<?xml version="1.0" encoding="UTF-8" standalone="no"?>
<svg width="129px" height="74px" viewBox="0 0 129 74" version="1.1" xmlns="http://www.w3.org/2000/svg" xmlns:xlink="http://www.w3.org/1999/xlink" xmlns:sketch="http://www.bohemiancoding.com/sketch/ns">
    <!-- Generator: Sketch 3.2.2 (9983) - http://www.bohemiancoding.com/sketch -->
    <title>icon-connect</title>
    <desc>Created with Sketch.</desc>
    <defs></defs>
    <g id="Page-1" stroke="none" stroke-width="1" fill="none" fill-rule="evenodd" sketch:type="MSPage">
        <g id="Events-Page" sketch:type="MSArtboardGroup" transform="translate(-688.000000, -2025.000000)">
            <g id="icon-connect" sketch:type="MSLayerGroup" transform="translate(686.000000, 2026.000000)">
                <g id="Group" sketch:type="MSShapeGroup">
                    <g id="Shape" stroke="#D4E0F9" stroke-width="2.5493" fill="#FFFFFF">
                        <path d="M31.7799763,41.198268 C31.7799763,44.1842062 29.1813728,46.2769485 27.1373254,44.7138557 L27.1373254,41.198268 L27.1373254,28.3096082 L27.1373254,67.5052371 C27.1373254,69.774268 25.2651124,71.6061031 22.9414438,71.6061031 C20.6177751,71.6061031 18.7455621,69.774268 18.7455621,67.5052371 L18.7455621,44.7138557 L16.3461302,44.7138557 L16.3461302,67.5052371 C16.3461302,69.774268 14.4746982,71.6061031 12.1479053,71.6061031 C9.82501775,71.6061031 7.9535858,69.7734845 7.9535858,67.5052371 L7.9535858,28.3096082 L7.9535858,41.198268 L7.9535858,44.7138557 C6.27585799,45.7943093 3.31015385,44.8274639 3.31015385,41.198268 L3.31015385,21.1319175 C3.31015385,18.9036289 4.30210651,17.9696907 6.44613018,17.9696907 L27.5348876,17.9696907 C30.3162604,17.9696907 31.7815385,18.4170722 31.7815385,21.1319175 L31.7815385,41.198268 L31.7799763,41.198268 Z M17.5458462,14.8646598 C13.4468166,14.8646598 10.140568,11.634268 10.140568,7.62898969 C10.140568,3.62371134 13.4468166,0.393319588 17.5458462,0.393319588 C21.6425325,0.393319588 24.948,3.62371134 24.948,7.62898969 C24.9472189,11.634268 21.6425325,14.8646598 17.5458462,14.8646598 L17.5458462,14.8646598 Z"></path>
                    </g>
                    <g transform="translate(97.633136, 0.000000)" id="Shape" stroke="#D4E0F9" stroke-width="2.5493" fill="#FFFFFF">
                        <path d="M31.715929,41.198268 C31.715929,44.1842062 29.1157633,46.2769485 27.072497,44.7138557 L27.072497,41.198268 L27.072497,28.3096082 L27.072497,67.5052371 C27.072497,69.774268 25.2010651,71.6061031 22.8773964,71.6061031 C20.5521657,71.6061031 18.6799527,69.7734845 18.6799527,67.5052371 L18.6799527,44.7138557 L16.2813018,44.7138557 L16.2813018,67.5052371 C16.2813018,69.774268 14.4098698,71.6061031 12.083858,71.6061031 C9.76097041,71.6061031 7.8887574,69.7734845 7.8887574,67.5052371 L7.8887574,28.3096082 L7.8887574,41.198268 L7.8887574,44.7138557 C6.21181065,45.7943093 3.24610651,44.8274639 3.24610651,41.198268 L3.24610651,21.1319175 C3.24610651,18.9036289 4.23805917,17.9696907 6.38052071,17.9696907 L27.4708402,17.9696907 C30.251432,17.9696907 31.7174911,18.4170722 31.7174911,21.1319175 L31.7174911,41.198268 L31.715929,41.198268 Z M17.4817988,14.8646598 C13.3827692,14.8646598 10.0765207,11.634268 10.0765207,7.62898969 C10.0765207,3.62371134 13.3827692,0.393319588 17.4817988,0.393319588 C21.5784852,0.393319588 24.8839527,3.62371134 24.8839527,7.62898969 C24.8831716,11.634268 21.5784852,14.8646598 17.4817988,14.8646598 L17.4817988,14.8646598 Z"></path>
                    </g>
                    <path d="M43.499858,29.2670515 L89.6295621,29.2670515" id="Shape" stroke="#D4E0F9" stroke-width="2.5493" fill="#FFFFFF"></path>
                    <ellipse id="Oval" fill="#D4E0F9" cx="90.1278817" cy="29.3516701" rx="2.9867929" ry="2.99612371"></ellipse>
                    <path d="M91.2846391,40.1710928 L43.4982959,40.1710928" id="Shape" stroke="#D4E0F9" stroke-width="2.5493" fill="#FFFFFF"></path>
                    <ellipse id="Oval" fill="#D4E0F9" cx="43.9966154" cy="40.1710928" rx="2.98601183" ry="2.99534021"></ellipse>
                </g>
            </g>
        </g>
    </g>
</svg>