<?xml version="1.0" encoding="UTF-8" standalone="no"?>
<svg width="125px" height="146px" viewBox="0 0 125 146" version="1.1" xmlns="http://www.w3.org/2000/svg" xmlns:xlink="http://www.w3.org/1999/xlink" xmlns:sketch="http://www.bohemiancoding.com/sketch/ns">
    <!-- Generator: Sketch 3.2.2 (9983) - http://www.bohemiancoding.com/sketch -->
    <title>MakerPartyLogo 2</title>
    <desc>Created with Sketch.</desc>
    <defs></defs>
    <g id="Page-1" stroke="none" stroke-width="1" fill="none" fill-rule="evenodd" sketch:type="MSPage">
        <g id="Events-Page" sketch:type="MSArtboardGroup" transform="translate(-401.000000, -744.000000)">
            <g id="MakerPartyLogo-2" sketch:type="MSLayerGroup" transform="translate(401.000000, 744.000000)">
                <path d="M122.123589,34.0306076 L63.9809244,0.463417774 C62.9101571,-0.154472591 61.1587094,-0.154472591 60.0885488,0.463417774 L1.94588448,34.0306076 C0.87572385,34.6488013 0,36.1654688 0,37.4015529 L0,104.539876 C0,105.775657 0.87572385,107.292628 1.94588448,107.910518 L17.9048672,117.12397 L18.2901008,145.408 L40.5044272,130.171558 L60.0885488,141.478011 C61.1587094,142.095901 62.9101571,142.095901 63.9809244,141.478011 L122.120252,107.910518 C123.190716,107.292628 124.06644,105.775657 124.06644,104.539876 L124.069777,37.4015529 C124.069777,36.1654688 123.194356,34.6488013 122.123589,34.0306076" id="Fill-1" fill="#00A6A5" sketch:type="MSShapeGroup"></path>
                <path d="M67.0710915,60.9317796 L68.4825023,60.0885125 L71.9671977,66.8310098 L77.3474242,66.8310098 L71.8840843,57.0979474 L77.4435809,49.195806 L72.2326145,49.195806 L68.5307323,54.5999959 C67.7987886,55.6295098 67.3092083,56.3805636 67.0710915,56.8549772 L67.0710915,49.195806 L62.2805453,49.195806 L62.2805453,66.8310098 L67.0710915,66.8310098 L67.0710915,60.9317796" id="Fill-2" fill="#FFE611" sketch:type="MSShapeGroup"></path>
                <path d="M84.0189415,62.9477341 L84.0189415,59.6174355 L89.3017979,59.6174355 L89.3017979,55.7936132 L84.0189415,55.7936132 L84.0189415,53.0187183 L89.7243415,53.0187183 L89.7243415,49.195806 L79.2538753,49.195806 L79.2538753,66.8310098 L89.7243415,66.8310098 L89.7243415,62.9477341 L84.0189415,62.9477341 Z" id="Fill-3" fill="#FFE611" sketch:type="MSShapeGroup"></path>
                <path d="M68.2283088,74.524761 L72.5371614,74.524761 L72.5371614,88.2648591 L77.2988909,88.2648591 L77.2988909,74.524761 L81.5937901,74.524761 L81.5937901,70.627532 L68.2283088,70.627532 L68.2283088,74.524761" id="Fill-4" fill="#FFE611" sketch:type="MSShapeGroup"></path>
                <path d="M54.5470574,49.123916 L52.7774097,49.123916 L51.6945091,53.3769552 C51.7551758,53.6344853 51.8228192,53.9150688 51.8992592,54.225379 C52.1534527,55.2460963 52.3685161,56.0793534 52.5456629,56.7236338 L53.3073334,59.6174355 L50.1050415,59.6174355 L49.1098042,63.5258878 L54.2958973,63.5258878 L55.1631278,66.8310098 L60.3734875,66.8310098 L54.5470574,49.123916" id="Fill-5" fill="#FFE611" sketch:type="MSShapeGroup"></path>
                <path d="M51.3872322,52.0932477 C51.3908722,52.0723177 51.3951189,52.048961 51.3987589,52.0292444 C51.3996689,52.0322777 51.4002756,52.0365244 51.4008822,52.039861 L52.1431393,49.123916 L48.191007,49.123916 L42.4370736,66.8310098 L47.6353,66.8310098 L51.3872322,52.0932477" id="Fill-6" fill="#FFE611" sketch:type="MSShapeGroup"></path>
                <path d="M90.1863185,76.6747889 L87.3965601,70.627532 L82.2083438,70.627532 L87.8743104,81.263315 L90.1863185,76.6747889" id="Fill-7" fill="#FFE611" sketch:type="MSShapeGroup"></path>
                <path d="M93.9227807,70.627532 L88.0105072,82.3595623 L88.0105072,88.2648591 L92.8110633,88.2648591 L92.8110633,81.376155 L98.6156534,70.627532 L93.9227807,70.627532" id="Fill-8" fill="#FFE611" sketch:type="MSShapeGroup"></path>
                <path d="M41.8064432,74.0433707 C41.8537633,73.8119272 41.89168,73.6180971 41.9192833,73.4630937 C41.92353,73.4873604 41.9292933,73.516177 41.9341466,73.5419604 L42.6946038,70.554732 L38.7115314,70.554732 L32.9579013,88.2648591 L38.1858544,88.2648591 L41.8064432,74.0433707" id="Fill-9" fill="#FFE611" sketch:type="MSShapeGroup"></path>
                <path d="M45.0681885,70.554732 L43.3294808,70.554732 L42.2295935,74.8751112 C42.2866202,75.114138 42.3500169,75.3728815 42.4203903,75.6564983 C42.6730671,76.6766089 42.8881305,77.5116861 43.065884,78.1544498 L43.8257344,81.0497682 L40.6574159,81.0497682 L39.662482,84.9573105 L44.8152083,84.9573105 L45.6839555,88.2648591 L50.8952253,88.2648591 L45.0681885,70.554732" id="Fill-10" fill="#FFE611" sketch:type="MSShapeGroup"></path>
                <path d="M97.1808859,49.195806 L92.8131867,49.195806 L92.8131867,66.8310098 L97.1129392,66.8310098 L97.1808859,49.195806" id="Fill-11" fill="#FFE611" sketch:type="MSShapeGroup"></path>
                <path d="M102.790129,59.1475719 C104.784244,58.0294846 105.779481,56.4494203 105.779481,54.4064691 C105.779481,50.9308737 103.384663,49.195806 98.5907801,49.195806 L97.7945296,49.195806 L97.7805763,52.8027448 L98.51798,52.8027448 C100.151431,52.8027448 100.968308,53.4072885 100.968308,54.6248692 C100.968308,56.0948234 100.133231,56.8319239 98.4703567,56.8319239 L97.7651063,56.8319239 L97.7508496,60.4139893 L98.7849135,60.4139893 L102.523802,66.8310098 L107.928296,66.8310098 L102.790129,59.1475719" id="Fill-12" fill="#FFE611" sketch:type="MSShapeGroup"></path>
                <path d="M34.1851887,49.195806 L30.6052466,61.6300534 L31.9332407,66.8310098 L32.6773178,66.8310098 L36.2369366,54.1534889 L36.3443167,54.1534889 C36.24907,56.0660067 36.1938633,57.2693308 36.1811233,57.7604277 C36.1714166,58.250008 36.1638332,58.696515 36.1638332,59.1005552 L36.1638332,66.8310098 L40.5433625,66.8310098 L40.5433625,49.195806 L34.1851887,49.195806" id="Fill-13" fill="#FFE611" sketch:type="MSShapeGroup"></path>
                <path d="M28.1418752,66.8310098 L31.2989704,66.8310098 L26.795681,49.195806 L20.4575273,49.195806 L20.4575273,66.8310098 L24.6796265,66.8310098 L24.6796265,59.1709286 C24.6796265,57.9733679 24.5965131,56.2919902 24.4278596,54.1277056 L24.5367564,54.1277056 L28.1418752,66.8310098" id="Fill-14" fill="#FFE611" sketch:type="MSShapeGroup"></path>
                <path d="M57.4008191,70.627532 L52.8001597,70.627532 L52.8001597,88.2648591 L57.3340857,88.2648591 L57.4008191,70.627532" id="Fill-15" fill="#FFE611" sketch:type="MSShapeGroup"></path>
                <path d="M62.7740689,80.5792979 C64.7697001,79.4612106 65.7670607,77.8811463 65.7670607,75.8384984 C65.7670607,72.3650264 63.3701193,70.627532 58.5795731,70.627532 L58.0144628,70.627532 L58.0011161,74.2350775 L58.5064698,74.2350775 C60.1387074,74.2350775 60.9546745,74.8414412 60.9546745,76.0538652 C60.9546745,77.5265494 60.1232374,78.2639532 58.4582397,78.2639532 L57.9862528,78.2639532 L57.9722994,81.844502 L58.7721899,81.844502 L62.5104721,88.2648591 L67.9152686,88.2648591 L62.7740689,80.5792979" id="Fill-16" fill="#FFE611" sketch:type="MSShapeGroup"></path>
                <path d="M24.95384,70.627532 L20.4575273,70.627532 L20.4575273,88.2648591 L24.8852866,88.2648591 L24.95384,70.627532" id="Fill-17" fill="#FFE611" sketch:type="MSShapeGroup"></path>
                <path d="M31.5804639,72.0868695 C30.4623765,71.1143823 28.7891889,70.627532 26.5618109,70.627532 L25.569607,70.627532 L25.5547436,74.4768343 L26.4535208,74.4768343 C27.770595,74.4768343 28.4333787,75.0698513 28.4333787,76.261042 C28.4333787,76.9681124 28.2207419,77.5232127 27.798805,77.9239163 C27.3765647,78.3270466 26.8078144,78.5290667 26.0919473,78.5290667 L25.538667,78.5290667 L25.524107,82.4114323 L26.5618109,82.4114323 C28.7021322,82.4114323 30.3513565,81.876352 31.5134272,80.801338 C32.6754978,79.7284474 33.2585049,78.2054098 33.2585049,76.2361686 C33.2585049,74.4437709 32.6985512,73.0587501 31.5804639,72.0868695" id="Fill-18" fill="#FFE611" sketch:type="MSShapeGroup"></path>
            </g>
        </g>
    </g>
</svg>