<?xml version="1.0" encoding="UTF-8" standalone="no"?>
<svg width="210px" height="210px" viewBox="0 0 210 210" version="1.1" xmlns="http://www.w3.org/2000/svg" xmlns:xlink="http://www.w3.org/1999/xlink" xmlns:sketch="http://www.bohemiancoding.com/sketch/ns">
    <!-- Generator: Sketch 3.2.2 (9983) - http://www.bohemiancoding.com/sketch -->
    <title>icon-web-literacy</title>
    <desc>Created with Sketch.</desc>
    <defs></defs>
    <g id="Page-1" stroke="none" stroke-width="1" fill="none" fill-rule="evenodd" sketch:type="MSPage">
        <g id="Web-Literacy-Page" sketch:type="MSArtboardGroup" transform="translate(-368.000000, -127.000000)">
            <g id="Headline-with-Image-Illustration" sketch:type="MSLayerGroup" transform="translate(346.000000, 37.000000)">
                <g id="icon-web-literacy" transform="translate(25.000000, 93.000000)" sketch:type="MSShapeGroup">
                    <path d="M83.7165101,52.7630523 C89.7890484,48.6375346 97.2680812,46.4983671 105.151628,47.1880881 C111.504286,47.7438737 117.277741,50.0620547 122.035752,53.619563" id="Shape-17" stroke="#CEE2EF" stroke-width="3"></path>
                    <g id="Shape-+-Shape" transform="translate(56.773585, 157.811321)" stroke="#CEE2EF" stroke-width="3">
                        <path d="M28.9246981,17.4208302 L31.6450189,16.3411698 L30.9829811,11.915717 L28.0625094,11.6780377 C27.5265283,10.3068113 26.7701887,9.06356604 25.842566,7.97716981 L27.0011321,5.2905283 L23.4041887,2.62890566 L21.1948302,4.50532075 C19.8736415,3.91930189 18.4485283,3.54883019 16.9637547,3.42950943 L15.9033396,0.761150943 L11.4769245,1.42318868 L11.2479057,4.24743396 C9.83337736,4.78822642 8.5545283,5.56573585 7.44022642,6.52030189 L4.85366038,5.406 L2.19011321,9.00198113 L3.99724528,11.1295472 C3.39198113,12.4853774 3.01284906,13.9518679 2.90122642,15.4789811 L0.322358491,16.5028302 L0.985358491,20.9292453 L3.74898113,21.1534528 C4.30228302,22.5804906 5.09422642,23.8718491 6.06996226,24.9909623 L4.96528302,27.5534717 L8.56222642,30.2141321 L10.7080755,28.3906415 C12.054283,28.9776226 13.5053774,29.3471321 15.0170943,29.4500943 L16.0630755,32.0818868 L20.4894906,31.4208113 L20.7223585,28.5571132 C22.1060943,28.0095849 23.3608868,27.2378491 24.4530566,26.2909811 L27.1146792,27.4360755 L29.7763019,23.8420189 L27.882566,21.6134151 C28.4531887,20.3028113 28.8130755,18.8911698 28.9246981,17.4208302 L28.9246981,17.4208302 Z" id="Shape"></path>
                        <path d="M15.351,12.6537736 C13.2657736,12.9674717 11.8252642,14.9131698 12.138,16.9983962 C12.4478491,19.0836226 14.3954717,20.5231698 16.4797358,20.2094717 C18.5688113,19.8996226 20.006434,17.9539245 19.6927358,15.8677358 C19.3809623,13.7805849 17.4381509,12.342 15.351,12.6537736 L15.351,12.6537736 Z" id="Shape"></path>
                    </g>
                    <g id="Shape-+-Shape" transform="translate(160.698113, 133.754717)" stroke="#CEE2EF" stroke-width="2.5">
                        <path d="M24.3444463,16.1839442 L24.8692986,12.6818466 L22.8286292,11.8719967 C22.7410632,10.6634766 22.4408368,9.50390648 21.9622149,8.43135849 L23.3915537,6.74802379 L21.2856177,3.90348728 L19.2395094,4.78567432 C18.3573224,4.0296694 17.3456899,3.41453158 16.2263675,2.98649139 L16.0447088,0.752741591 L12.543155,0.22897703 L11.7044791,2.34089582 C10.530224,2.43444463 9.40274323,2.72760049 8.35684578,3.19208121 L6.60933224,1.70780968 L3.76370796,3.8132018 L4.68070386,5.93763002 C3.94645447,6.79751764 3.34817719,7.78141181 2.92448811,8.86592535 L0.614593929,9.05465463 L0.0908293683,12.5551206 L2.2429959,13.4095693 C2.33001805,14.5724028 2.61555947,15.6884619 3.0658991,16.7267449 L1.56857424,18.4900312 L3.67342248,21.3340238 L5.77827071,20.4273618 C6.64196555,21.17684 7.63510582,21.7870829 8.73049713,22.2205619 L8.91487531,24.486945 L12.416429,25.008534 L13.2436833,22.9265291 C14.4391501,22.8454897 15.5872986,22.5528778 16.6522322,22.088397 L18.3507957,23.5307892 L21.1958761,21.4264848 L20.3218474,19.3988687 C21.0936251,18.5128745 21.7201846,17.491452 22.1580148,16.3617957 L24.3444463,16.1839442 L24.3444463,16.1839442 Z" id="Shape"></path>
                        <path d="M13.3418403,6.32217033 C16.7551191,6.83643963 19.1131989,10.0203648 18.6016013,13.433833 C18.0932505,16.8473013 14.90539,19.2048712 11.492575,18.6915294 C8.07187504,18.182361 5.71843344,14.9979722 6.23235013,11.5845039 C6.74302006,8.16639845 9.92345937,5.81021966 13.3418403,6.32217033 L13.3418403,6.32217033 Z" id="Shape"></path>
                    </g>
                    <g id="Group" transform="translate(20.207547, 60.622642)" stroke="#CEE2EF" stroke-width="3">
                        <path d="M23.6880566,40.9173962 C23.6880566,43.3634717 21.609566,45.0782264 19.9727547,43.7964906 L19.9727547,40.9173962 L19.9727547,30.3642453 L19.9727547,62.4596038 C19.9727547,64.3196604 18.4735472,65.8179057 16.6154151,65.8179057 C14.7553585,65.8179057 13.2580755,64.3186981 13.2580755,62.4596038 L13.2580755,43.7955283 L11.3393208,43.7955283 L11.3393208,62.4596038 C11.3393208,64.3196604 9.83915094,65.8179057 7.9800566,65.8179057 C6.12096226,65.8179057 4.62271698,64.3186981 4.62271698,62.4596038 L4.62271698,30.3642453 L4.62271698,40.9173962 L4.62271698,43.7964906 C3.28228302,44.6827358 0.907415094,43.8917547 0.907415094,40.9173962 L0.907415094,24.4857736 C0.907415094,22.6603585 1.70032075,21.8982453 3.41411321,21.8982453 L20.2912642,21.8982453 C22.5160189,21.8982453 23.6890189,22.2648679 23.6890189,24.4857736 L23.6890189,40.9173962 L23.6880566,40.9173962 Z M12.2967736,19.3540189 C9.01737736,19.3540189 6.37115094,16.7106792 6.37115094,13.4293585 C6.37115094,10.149 9.01737736,7.50469811 12.2967736,7.50469811 C15.5761698,7.50469811 18.221434,10.149 18.221434,13.4293585 C18.2223962,16.7106792 15.5771321,19.3540189 12.2967736,19.3540189 L12.2967736,19.3540189 Z" id="Shape-2"></path>
                        <path d="M58.329566,34.1815472 C58.329566,36.6276226 56.2510755,38.3423774 54.6142642,37.0606415 L54.6142642,34.1815472 L54.6142642,23.6283962 L54.6142642,55.7237547 C54.6142642,57.5838113 53.1150566,59.0820566 51.2569245,59.0820566 C49.3968679,59.0820566 47.8995849,57.5828491 47.8995849,55.7237547 L47.8995849,37.0596792 L45.9808302,37.0596792 L45.9808302,55.7237547 C45.9808302,57.5838113 44.4806604,59.0820566 42.621566,59.0820566 C40.7624717,59.0820566 39.2642264,57.5828491 39.2642264,55.7237547 L39.2642264,23.6283962 L39.2642264,34.1815472 L39.2642264,37.0606415 C37.9237925,37.9468868 35.5489245,37.1559057 35.5489245,34.1815472 L35.5489245,17.7499245 C35.5489245,15.9245094 36.3418302,15.1623962 38.0556226,15.1623962 L54.9327736,15.1623962 C57.1575283,15.1623962 58.3305283,15.5290189 58.3305283,17.7499245 L58.3305283,34.1815472 L58.329566,34.1815472 Z M46.938283,12.6181698 C43.6588868,12.6181698 41.0126604,9.97483019 41.0126604,6.69350943 C41.0126604,3.41315094 43.6588868,0.768849057 46.938283,0.768849057 C50.2176792,0.768849057 52.8629434,3.41315094 52.8629434,6.69350943 C52.8639057,9.97483019 50.2186415,12.6181698 46.938283,12.6181698 L46.938283,12.6181698 Z" id="Shape-3"></path>
                        <path d="M92.9710755,41.8796604 C92.9710755,44.3257358 90.8925849,46.0404906 89.2557736,44.7587547 L89.2557736,41.8796604 L89.2557736,31.3265094 L89.2557736,63.4218679 C89.2557736,65.2819245 87.756566,66.7801698 85.898434,66.7801698 C84.0383774,66.7801698 82.5410943,65.2809623 82.5410943,63.4218679 L82.5410943,44.7577925 L80.6223396,44.7577925 L80.6223396,63.4218679 C80.6223396,65.2819245 79.1221698,66.7801698 77.2630755,66.7801698 C75.4039811,66.7801698 73.9057358,65.2809623 73.9057358,63.4218679 L73.9057358,31.3265094 L73.9057358,41.8796604 L73.9057358,44.7587547 C72.5653019,45.645 70.190434,44.8540189 70.190434,41.8796604 L70.190434,25.4480377 C70.190434,23.6226226 70.9833396,22.8605094 72.6971321,22.8605094 L89.574283,22.8605094 C91.7990377,22.8605094 92.9720377,23.2271321 92.9720377,25.4480377 L92.9720377,41.8796604 L92.9710755,41.8796604 Z M81.5797925,20.316283 C78.3003962,20.316283 75.6541698,17.6729434 75.6541698,14.3916226 C75.6541698,11.1112642 78.3003962,8.46696226 81.5797925,8.46696226 C84.8591887,8.46696226 87.5044528,11.1112642 87.5044528,14.3916226 C87.5054151,17.6729434 84.8601509,20.316283 81.5797925,20.316283 L81.5797925,20.316283 Z" id="Shape-4"></path>
                        <path d="M127.612585,34.1815472 C127.612585,36.6276226 125.534094,38.3423774 123.897283,37.0606415 L123.897283,34.1815472 L123.897283,23.6283962 L123.897283,55.7237547 C123.897283,57.5838113 122.398075,59.0820566 120.539943,59.0820566 C118.679887,59.0820566 117.182604,57.5828491 117.182604,55.7237547 L117.182604,37.0596792 L115.263849,37.0596792 L115.263849,55.7237547 C115.263849,57.5838113 113.763679,59.0820566 111.904585,59.0820566 C110.045491,59.0820566 108.547245,57.5828491 108.547245,55.7237547 L108.547245,23.6283962 L108.547245,34.1815472 L108.547245,37.0606415 C107.206811,37.9468868 104.831943,37.1559057 104.831943,34.1815472 L104.831943,17.7499245 C104.831943,15.9245094 105.624849,15.1623962 107.338642,15.1623962 L124.215792,15.1623962 C126.440547,15.1623962 127.613547,15.5290189 127.613547,17.7499245 L127.613547,34.1815472 L127.612585,34.1815472 Z M116.221302,12.6181698 C112.941906,12.6181698 110.295679,9.97483019 110.295679,6.69350943 C110.295679,3.41315094 112.941906,0.768849057 116.221302,0.768849057 C119.500698,0.768849057 122.145962,3.41315094 122.145962,6.69350943 C122.146925,9.97483019 119.50166,12.6181698 116.221302,12.6181698 L116.221302,12.6181698 Z" id="Shape-5"></path>
                        <path d="M162.254094,41.8796604 C162.254094,44.3257358 160.175604,46.0404906 158.538792,44.7587547 L158.538792,41.8796604 L158.538792,31.3265094 L158.538792,63.4218679 C158.538792,65.2819245 157.039585,66.7801698 155.181453,66.7801698 C153.321396,66.7801698 151.824113,65.2809623 151.824113,63.4218679 L151.824113,44.7577925 L149.905358,44.7577925 L149.905358,63.4218679 C149.905358,65.2819245 148.405189,66.7801698 146.546094,66.7801698 C144.687,66.7801698 143.188755,65.2809623 143.188755,63.4218679 L143.188755,31.3265094 L143.188755,41.8796604 L143.188755,44.7587547 C141.848321,45.645 139.473453,44.8540189 139.473453,41.8796604 L139.473453,25.4480377 C139.473453,23.6226226 140.266358,22.8605094 141.980151,22.8605094 L158.857302,22.8605094 C161.082057,22.8605094 162.255057,23.2271321 162.255057,25.4480377 L162.255057,41.8796604 L162.254094,41.8796604 Z M150.862811,20.316283 C147.583415,20.316283 144.937189,17.6729434 144.937189,14.3916226 C144.937189,11.1112642 147.583415,8.46696226 150.862811,8.46696226 C154.142208,8.46696226 156.787472,11.1112642 156.787472,14.3916226 C156.788434,17.6729434 154.14317,20.316283 150.862811,20.316283 L150.862811,20.316283 Z" id="Shape-6"></path>
                    </g>
                    <g id="Group-4" transform="translate(97.188679, 131.830189)" stroke="#CEE2EF" stroke-width="3">
                        <path d="M49.0557599,27.0070806 L53.287506,24.9822436 L51.6578388,17.5785249 L46.966422,17.5181063 C45.865825,15.1626003 44.3757736,13.0634648 42.5942436,11.2803019 L44.1602264,6.83790738 L37.7721921,2.75639108 L34.369976,6.07124528 C32.0218182,5.23191767 29.5168988,4.78286106 26.9442127,4.784494 L24.8777358,0.462120069 L17.4723842,2.09342024 L17.4111492,6.94323156 C15.1274923,8.03158148 13.0879588,9.4857084 11.3480686,11.2182504 L6.73258319,9.58939966 L2.65188336,15.977434 L6.09492281,19.5111012 C5.28172213,21.798024 4.84001372,24.2343602 4.82368439,26.7360137 L0.35761235,28.8727067 L1.98727959,36.2772419 L6.93669983,36.3409262 C8.00218868,38.6033551 9.42528988,40.6306415 11.1243568,42.364 L9.48325901,47.0178593 L15.8721098,51.0993756 L19.3763842,47.6840961 C21.6829022,48.5258731 24.1445489,48.9888096 26.6731458,49.0173859 L28.766566,53.3936467 L36.1719177,51.763163 L36.2323362,46.9721372 C38.5674305,45.8944014 40.6535026,44.4337427 42.4317667,42.6848714 L46.9125352,44.2663671 L50.9940515,37.8766998 L47.7069571,34.5038765 C48.5748611,32.13694 49.0451458,29.6067101 49.0557599,27.0070806 L49.0557599,27.0070806 Z" id="Shape"></path>
                        <circle id="Oval" cx="26.9466621" cy="27.0789297" r="16.8281921"></circle>
                        <circle id="Oval" cx="26.9466621" cy="27.0789297" r="4.42688165"></circle>
                    </g>
                    <g id="Group-6" transform="translate(81.792453, 9.622642)" stroke="#CEE2EF" stroke-width="3">
                        <path d="M37.0747456,18.3695625 C37.0747456,8.255625 28.9879326,0.0605625 19.0107655,0.0605625 C9.03359838,0.0605625 0.946785445,8.2566875 0.946785445,18.3695625 C0.946785445,23.52375 4.29002102,31.617875 8.25086523,36.686 C14.429096,44.5899375 19.0107655,50.237125 19.0107655,50.237125 C19.0107655,50.237125 23.9023116,44.115 28.700573,37.873875 C33.4484394,31.7018125 37.0747456,23.4291875 37.0747456,18.3695625 L37.0747456,18.3695625 Z" id="Shape" fill="#FFFFFF"></path>
                        <ellipse id="Oval" cx="19.0107655" cy="17.1785" rx="9.19765067" ry="9.3213125"></ellipse>
                    </g>
                    <g id="Group-7" transform="translate(24.056604, 33.679245)">
                        <path d="M25.4759434,101.757509 C24.2654151,101.757509 23.2444528,102.740943 23.2444528,103.951472 L23.2444528,113.476925 L22.3514717,113.476925 L22.3514717,101.756547 C22.3514717,100.546019 21.3305094,99.5645094 20.1190189,99.5645094 C18.9075283,99.5645094 17.8875283,100.546981 17.8875283,101.756547 L17.8875283,113.476925 L16.9935849,113.476925 L16.9935849,101.756547 C16.9935849,100.546019 15.9726226,99.5645094 14.7611321,99.5645094 C13.5496415,99.5645094 12.5286792,100.546981 12.5286792,101.756547 L12.5286792,113.476925 L11.6366604,113.476925 L11.6366604,103.951472 C11.6366604,102.740943 10.6792075,101.757509 9.46867925,101.757509 C8.25622642,101.757509 7.16983019,102.740943 7.16983019,103.951472 L7.16983019,120.751642 L4.78822642,116.021151 C4.23011321,114.94534 2.62313208,114.443038 1.54828302,115.004038 C0.473433962,115.561189 -0.219396226,116.970906 0.339679245,118.045755 C0.339679245,118.045755 5.62732075,128.606604 6.72045283,130.086566 C8.1975283,132.089038 9.50428302,133.121547 12.3756792,133.121547 L20.6511509,133.121547 C24.8398868,133.121547 27.7083962,128.907792 27.7083962,124.719057 L27.7083962,119.314981 L27.7083962,113.344132 L27.7083962,103.951472 C27.7083962,102.741906 26.687434,101.757509 25.4759434,101.757509 L25.4759434,101.757509 Z" id="Shape" stroke="#CEE2EF" stroke-width="2.5" fill="#FFFFFF"></path>
                        <path d="M7.26413208,124.945189 C7.26413208,124.945189 10.5685472,124.731566 13.2330566,126.545434 C15.8985283,128.357377 16.8588679,130.702415 16.8588679,130.702415" id="Shape" stroke="#CEE2EF" stroke-width="3" fill="#CEE2EF"></path>
                        <circle id="Oval-68" fill="#CEE2EF" cx="36.0849057" cy="1.44339623" r="1.44339623"></circle>
                        <path d="M16.644283,122.387491 C16.644283,122.387491 18.054,124.575679 20.8012642,125.905528 C24.1076038,127.504811 27.0915849,126.864906 27.0915849,126.864906" id="Shape" stroke="#CEE2EF" stroke-width="3" fill="#CEE2EF"></path>
                        <path d="M11.5471698,117.877358 L26.9433962,117.877358" id="Shape" stroke="#CEE2EF" stroke-width="3"></path>
                    </g>
                    <path d="M166.431283,163.065283 C164.104528,165.652811 161.632472,168.106585 159.02666,170.414094" id="Shape-11" stroke="#CEE2EF" stroke-width="3" fill="#CEE2EF"></path>
                    <path d="M106.476453,194.212811 C105.801906,194.228208 105.125434,194.234943 104.447038,194.234943 C99.3489623,194.234943 94.3490377,193.815396 89.4780566,193.010943" id="Shape-15" stroke="#CEE2EF" stroke-width="3" fill="#FFFFFF"></path>
                    <path d="M51.2857925,182.07 C48.0227547,179.373736 44.9502453,176.457113 42.0923208,173.339377" id="Shape-14" stroke="#CEE2EF" stroke-width="3" fill="#FFFFFF"></path>
                    <path d="M85.7012396,149.2069 C74.3511273,147.237766 64.1735241,140.875804 57.4230434,131.582741" id="Shape-13" stroke="#CEE2EF" stroke-width="3"></path>
                    <path d="M87.4499279,138.948644 C79.9902963,137.20027 73.3319157,132.890059 68.6841664,126.801771" id="Shape-9" stroke="#CEE2EF" stroke-width="3"></path>
                    <path d="M12.4738302,122.449075 C11.0227358,116.914132 10.0008113,110.854755 9.64381132,104.386415" id="Shape-16" stroke="#CEE2EF" stroke-width="3" fill="#CEE2EF"></path>
                    <path d="M193.409562,104.391178 C193.079243,110.103635 192.1787,116.182237 190.519401,122.444313" id="Shape-18" stroke="#CEE2EF" stroke-width="3" fill="#CEE2EF"></path>
                    <path d="M134.758358,16.742434 C144.409868,20.6501887 153.239604,26.163 160.916547,32.9508113" id="Shape-10" stroke="#CEE2EF" stroke-width="3" fill="#FFFFFF"></path>
                    <path d="M34.8368491,38.1778302 C44.1813962,28.4329811 55.6717925,20.7608491 68.5478491,15.9206604" id="Shape-7" stroke="#CEE2EF" stroke-width="3" fill="#FFFFFF"></path>
                    <path d="M60.4311509,30.2295283 C57.4183019,30.2295283 54.9751132,32.7285283 54.9751132,35.8096981 C54.9751132,37.3801132 55.9845283,39.8473585 57.1815849,41.3917925 C59.0464528,43.8022642 60.4311509,45.5227925 60.4311509,45.5227925 C60.4311509,45.5227925 61.9082264,43.6579245 63.3573962,41.7555283 C64.7911698,39.8743019 65.8862264,37.350283 65.8862264,35.8096981 C65.8862264,32.7285283 63.444,30.2295283 60.4311509,30.2295283 Z" id="Shape-8" stroke="#CEE2EF" stroke-width="3" fill="#FFFFFF"></path>
                    <circle id="Oval-69" fill="#CEE2EF" cx="31.754717" cy="53.8867925" r="1.9245283"></circle>
                    <circle id="Oval-70" fill="#CEE2EF" cx="175.132075" cy="53.8867925" r="1.9245283"></circle>
                    <circle id="Oval-71" fill="#CEE2EF" cx="160.698113" cy="43.3018868" r="1.9245283"></circle>
                    <circle id="Oval-72" fill="#CEE2EF" cx="45.2264151" cy="43.3018868" r="1.9245283"></circle>
                    <path d="M147.678679,36.7719623 C147.678679,33.6907925 145.236453,31.1917925 142.223604,31.1917925 C139.210755,31.1917925 136.767566,33.6907925 136.767566,36.7719623 C136.767566,38.3423774 137.776981,40.8096226 138.974038,42.3540566 C140.838906,44.7645283 142.223604,46.4850566 142.223604,46.4850566 C142.223604,46.4850566 143.700679,44.6201887 145.149849,42.7177925 C146.583623,40.836566 147.678679,38.3125472 147.678679,36.7719623 L147.678679,36.7719623 Z" id="Shape-12" stroke="#CEE2EF" stroke-width="3" fill="#FFFFFF"></path>
                    <circle id="Oval-64" stroke="#CEE2EF" stroke-width="2.5" cx="102" cy="102" r="102"></circle>
                </g>
            </g>
        </g>
    </g>
</svg>