<?xml version="1.0" encoding="utf-8"?>
<!-- Generator: Adobe Illustrator 18.1.1, SVG Export Plug-In . SVG Version: 6.00 Build 0)  -->
<!DOCTYPE svg PUBLIC "-//W3C//DTD SVG 1.0//EN" "http://www.w3.org/TR/2001/REC-SVG-20010904/DTD/svg10.dtd">
<svg version="1.0" id="Layer_1" xmlns="http://www.w3.org/2000/svg" xmlns:xlink="http://www.w3.org/1999/xlink" x="0px" y="0px"
	 viewBox="-62.3 192.7 146.8 116.3" enable-background="new -62.3 192.7 146.8 116.3" xml:space="preserve">
<path fill="#FFFFFF" stroke="#AFDBC0" stroke-width="3" stroke-miterlimit="10" d="M11.8,295.2c-4.5,0-64.4,0-64.4,0v-84.3H0.3
	c3.8,0,6.8,3.1,11.6,6.8L11.8,295.2z"/>
<path fill="#FFFFFF" stroke="#AFDBC0" stroke-width="3" stroke-miterlimit="10" d="M10.7,217.7c4.7-3.8,7.8-6.8,11.6-6.8h52.9v84.3
	c0,0-59.9,0-64.4,0L10.7,217.7z"/>
<path fill="#FFFFFF" stroke="#AFDBC0" stroke-width="3" stroke-linecap="round" stroke-linejoin="round" stroke-miterlimit="10" d="
	M11.7,295c0,0.5-0.4-5.5-6.8-6.4H-48v-84.3H4.9c3.8,0,6.8,3.1,6.8,6.8L11.7,295z"/>
<line fill="none" stroke="#AFDBC0" stroke-width="3" stroke-miterlimit="10" x1="-37.2" y1="232.8" x2="-0.9" y2="232.8"/>
<line fill="none" stroke="#AFDBC0" stroke-width="3" stroke-miterlimit="10" x1="-37.2" y1="240.8" x2="-0.9" y2="240.8"/>
<line fill="none" stroke="#AFDBC0" stroke-width="3" stroke-miterlimit="10" x1="-37.2" y1="248.9" x2="-0.9" y2="248.9"/>
<line fill="none" stroke="#AFDBC0" stroke-width="3" stroke-miterlimit="10" x1="-37.2" y1="216.8" x2="-0.9" y2="216.8"/>
<line fill="none" stroke="#AFDBC0" stroke-width="3" stroke-miterlimit="10" x1="-37.2" y1="224.8" x2="-1.1" y2="224.8"/>
<path fill="#FFFFFF" stroke="#AFDBC0" stroke-width="3" stroke-linecap="round" stroke-linejoin="round" stroke-miterlimit="10" d="
	M70.4,288.5H18.5c-4.4,0.9-7.2,6.7-6.8,6.4v-83.9c0-3.8,3.1-6.8,6.8-6.8h51.9L70.4,288.5z"/>
<line fill="none" stroke="#AFDBC0" stroke-width="3" stroke-miterlimit="10" x1="24.7" y1="261" x2="60.9" y2="261"/>
<line fill="none" stroke="#AFDBC0" stroke-width="3" stroke-miterlimit="10" x1="24.7" y1="269" x2="60.9" y2="269"/>
<line fill="none" stroke="#AFDBC0" stroke-width="3" stroke-miterlimit="10" x1="24.7" y1="245.1" x2="60.9" y2="245.1"/>
<line fill="none" stroke="#AFDBC0" stroke-width="3" stroke-miterlimit="10" x1="24.7" y1="253.2" x2="60.9" y2="253.2"/>
<line fill="none" stroke="#AFDBC0" stroke-width="3" stroke-miterlimit="10" x1="24.7" y1="277.1" x2="60.9" y2="277.1"/>
<rect x="26" y="217" fill="none" stroke="#AFDBC0" stroke-width="3" stroke-miterlimit="10" width="34" height="19.2"/>
<rect x="-36.2" y="257.5" fill="none" stroke="#AFDBC0" stroke-width="3" stroke-miterlimit="10" width="34" height="19.9"/>
</svg>
