<?xml version="1.0" encoding="utf-8"?>
<!-- Generator: Adobe Illustrator 18.0.0, SVG Export Plug-In . SVG Version: 6.00 Build 0)  -->
<!DOCTYPE svg PUBLIC "-//W3C//DTD SVG 1.1//EN" "http://www.w3.org/Graphics/SVG/1.1/DTD/svg11.dtd">
<svg version="1.1" id="Layer_1" xmlns:sketch="http://www.bohemiancoding.com/sketch/ns"
	 xmlns="http://www.w3.org/2000/svg" xmlns:xlink="http://www.w3.org/1999/xlink" x="0px" y="0px" viewBox="0 0 72 87"
	 enable-background="new 0 0 72 87" xml:space="preserve">
<title>icon-learn-more</title>
<desc>Created with Sketch.</desc>
<g id="Page-1" sketch:type="MSPage">
	<g id="Web-Literacy-Page" transform="translate(-719.000000, -897.000000)" sketch:type="MSArtboardGroup">
		
			<g id="Curriculum-_x2B_-Modular_x2C_-remixable-W-_x2B_-noun_x5F_21025-_x2B_-Oval-109-_x2B_-Group-2" transform="translate(630.000000, 898.000000)" sketch:type="MSLayerGroup">
			<g id="icon-learn-more" transform="translate(91.000000, 0.000000)" sketch:type="MSShapeGroup">
				<path id="Rectangle-111" fill="#FFFFFF" stroke="#CEE2EF" stroke-width="2" d="M4,1.7h60c2.2,0,4,1.8,4,4v73.5c0,2.2-1.8,4-4,4
					H4c-2.2,0-4-1.8-4-4V5.7C0,3.5,1.8,1.7,4,1.7z"/>
				<rect id="Rectangle-112" x="9.5" y="1.7" fill="#CEE2EF" width="1.7" height="82.4"/>
				<rect id="Rectangle-113" x="16.4" y="6.9" fill="#CEE2EF" width="27.5" height="2.6"/>
				<rect id="Rectangle-119" x="16.4" y="13" fill="#CEE2EF" width="27.5" height="2.6"/>
				<rect id="Rectangle-114" x="16.4" y="28.6" fill="#CEE2EF" width="46.5" height="2.6"/>
				<rect id="Rectangle-115" x="16.4" y="36.4" fill="#CEE2EF" width="46.5" height="2.6"/>
				<rect id="Rectangle-116" x="16.4" y="44.2" fill="#CEE2EF" width="46.5" height="2.6"/>
				<rect id="Rectangle-117" x="16.4" y="52.9" fill="#CEE2EF" width="46.5" height="2.6"/>
				<rect id="Rectangle-118" x="45.6" y="71.1" fill="#CEE2EF" width="17.2" height="2.6"/>
				<path id="Path-82" fill="#CEE2EF" d="M52.6,1.1l-0.1,16.3l4.6-5.3l4.8,5.3L62.1,1L52.6,1.1z"/>
			</g>
		</g>
	</g>
</g>
</svg>
