<svg id="Layer_1" xmlns="http://www.w3.org/2000/svg" viewBox="0 0 165.6 165.6">
    <style>
        .st0{fill:#DBF1FA;} .st1{fill:none;stroke:#020303;stroke-width:2;stroke-miterlimit:10;} .st2{fill:none;stroke:#020303;stroke-width:2;stroke-miterlimit:10;stroke-dasharray:4,2;} .st3{fill:none;stroke:#020303;stroke-width:2;stroke-linejoin:bevel;stroke-miterlimit:10;} .st4{fill:#020303;} .st5{fill:#B6E3F8;} .st6{fill:#E6D8BE;} .st7{fill:none;stroke:#EC581E;stroke-width:26;stroke-miterlimit:10;} .st8{fill:#EB5322;} .st9{fill:#EC581E;} .st10{fill:#2499DA;} .st11{fill:none;} .st12{fill:#D9CBB5;} .st13{fill:#1C1C1A;} .st14{fill:#262724;} .st15{fill:none;stroke:#FFFFFF;stroke-miterlimit:10;} .st16{fill:none;stroke:#FFFFFF;stroke-width:2;stroke-miterlimit:10;} .st17{fill:none;stroke:#FFFFFF;stroke-width:3;stroke-miterlimit:10;} .st18{fill:#1F85B1;} .st19{fill:#009DEB;} .st20{fill:#009DEB;stroke:#000000;stroke-miterlimit:10;} .st21{fill:#FFFFFF;} .st22{stroke:#000000;stroke-miterlimit:10;} .st23{fill:#897266;} .st24{fill:#FFF300;} .st25{fill:none;stroke:#FFFFFF;stroke-width:4;stroke-miterlimit:10;} .st26{stroke:#6D6F72;stroke-width:9;stroke-miterlimit:10;} .st27{fill:#B3B3B3;} .st28{stroke:#FFF300;stroke-miterlimit:10;} .st29{fill:#FFFFFF;stroke:#000000;stroke-width:0.75;stroke-miterlimit:10;} .st30{fill:none;stroke:#000000;stroke-width:0.75;stroke-miterlimit:10;} .st31{clip-path:url(#SVGID_2_);fill:#2499DA;} .st32{clip-path:url(#SVGID_4_);fill:#2499DA;} .st33{fill:none;stroke:#EC581E;stroke-miterlimit:10;} .st34{fill:none;stroke:#EC581E;stroke-miterlimit:10;stroke-dasharray:4,3;}
    </style>
    <circle class="st33" cx="83.1" cy="82.8" r="60.9"/>
    <path class="st34" d="M9.7 82.8h24.6M131.5 82.8h24.6M82.9 9.6v24.6M82.9 131.4V156"/>
    <path class="st33" d="M134.1 31.6l-16.9 16.9"/>
    <path class="st9" d="M130.1 31.2l.1.8 3.6-.2-.1 3.7.8.1.1-4.5z"/>
    <path class="st33" d="M48.6 117.1L31.7 134"/>
    <path class="st9" d="M31.3 130l.8.1-.2 3.7 3.7-.2.1.8-4.5.1z"/>
    <g>
        <path class="st33" d="M134.1 134l-16.9-16.9"/>
        <path class="st9" d="M134.5 130l-.8.1.1 3.7-3.6-.2-.1.8 4.5.1z"/>
    </g>
    <g>
        <path class="st33" d="M48.6 48.5L31.7 31.6"/>
        <path class="st9" d="M35.7 31.2l-.1.8-3.7-.2.2 3.7-.8.1-.1-4.5z"/>
    </g>
    <g>
        <circle class="st33" cx="83.1" cy="67.2" r="10"/>
        <path class="st33" d="M98 94.6v10.9H68V94.6c0-8.3 6.7-15 15-15s15 6.7 15 15zM65.6 99.9H49.9v-8.1c0-6.2 5-11.2 11.2-11.2 3.1 0 5.9 1.3 8 3.3"/>
        <circle class="st33" cx="61.1" cy="70.4" r="7.5"/>
        <path class="st33" d="M100.2 99.9h15.7v-8.1c0-6.2-5-11.2-11.2-11.2-3.1 0-5.9 1.3-8 3.3"/>
        <circle class="st33" cx="104.7" cy="70.4" r="7.5"/>
    </g>
</svg>
