<?xml version="1.0" encoding="utf-8"?>
<!-- Generator: Adobe Illustrator 19.2.0, SVG Export Plug-In . SVG Version: 6.00 Build 0)  -->
<svg version="1.1" id="Layer_1" xmlns="http://www.w3.org/2000/svg" xmlns:xlink="http://www.w3.org/1999/xlink" x="0px" y="0px"
	 viewBox="0 0 165.6 165.6" style="enable-background:new 0 0 165.6 165.6;" xml:space="preserve">
<style type="text/css">
	.st0{fill:#DBF1FA;}
	.st1{fill:none;stroke:#020303;stroke-width:2;stroke-miterlimit:10;}
	.st2{fill:none;stroke:#020303;stroke-width:2;stroke-miterlimit:10;stroke-dasharray:4,2;}
	.st3{fill:none;stroke:#020303;stroke-width:2;stroke-linejoin:bevel;stroke-miterlimit:10;}
	.st4{fill:#020303;}
	.st5{fill:#B6E3F8;}
	.st6{fill:#E6D8BE;}
	.st7{fill:none;stroke:#EC581E;stroke-width:26;stroke-miterlimit:10;}
	.st8{fill:#EB5322;}
	.st9{fill:#EC581E;}
	.st10{fill:#2499DA;}
	.st11{fill:none;}
	.st12{fill:#D9CBB5;}
	.st13{fill:#1C1C1A;}
	.st14{fill:#262724;}
	.st15{fill:none;stroke:#FFFFFF;stroke-miterlimit:10;}
	.st16{fill:none;stroke:#FFFFFF;stroke-width:2;stroke-miterlimit:10;}
	.st17{fill:none;stroke:#FFFFFF;stroke-width:3;stroke-miterlimit:10;}
	.st18{fill:#1F85B1;}
	.st19{fill:#009DEB;}
	.st20{fill:#009DEB;stroke:#000000;stroke-miterlimit:10;}
	.st21{fill:#FFFFFF;}
	.st22{stroke:#000000;stroke-miterlimit:10;}
	.st23{fill:#897266;}
	.st24{fill:#FFF300;}
	.st25{fill:none;stroke:#FFFFFF;stroke-width:4;stroke-miterlimit:10;}
	.st26{stroke:#6D6F72;stroke-width:9;stroke-miterlimit:10;}
	.st27{fill:#B3B3B3;}
	.st28{stroke:#FFF300;stroke-miterlimit:10;}
	.st29{fill:#FFFFFF;stroke:#000000;stroke-width:0.75;stroke-miterlimit:10;}
	.st30{fill:none;stroke:#000000;stroke-width:0.75;stroke-miterlimit:10;}
	.st31{clip-path:url(#SVGID_2_);fill:#2499DA;}
	.st32{clip-path:url(#SVGID_4_);fill:#2499DA;}
	.st33{fill:none;stroke:#EC581E;stroke-miterlimit:10;}
	.st34{fill:none;stroke:#EC581E;stroke-miterlimit:10;stroke-dasharray:4,3;}
</style>
<g>
	<g>
		<path class="st33" d="M71.9,91.8v5h22l0-5.1c6-3.7,10-10.3,10-17.9c0-11.6-9.4-21-21-21s-21,9.4-21,21
			C61.9,81.4,65.9,88.1,71.9,91.8z"/>
		<line class="st33" x1="78.9" y1="96.8" x2="75.9" y2="76.8"/>
		<line class="st33" x1="86.9" y1="96.8" x2="89.9" y2="76.8"/>
		<polyline class="st33" points="75.9,77.8 79.9,80.8 82.9,77.8 85.9,80.8 89.9,77.8 		"/>
		<rect x="71.9" y="96.8" class="st33" width="22" height="6"/>
		<rect x="73.9" y="102.8" class="st33" width="18" height="6"/>
		<rect x="75.9" y="108.8" class="st33" width="14" height="6"/>
	</g>
	<circle class="st33" cx="82.9" cy="82.8" r="60.9"/>
	<g>
		<line class="st33" x1="9.7" y1="82.8" x2="34.3" y2="82.8"/>
		<line class="st33" x1="131.5" y1="82.8" x2="156.1" y2="82.8"/>
		<line class="st33" x1="82.9" y1="9.6" x2="82.9" y2="34.2"/>
		<line class="st33" x1="82.9" y1="131.4" x2="82.9" y2="156"/>
		<line class="st34" x1="134.6" y1="31.1" x2="117.2" y2="48.5"/>
		<line class="st34" x1="48.6" y1="117.1" x2="31.2" y2="134.5"/>
		<line class="st34" x1="134.6" y1="134.5" x2="117.2" y2="117.1"/>
		<line class="st34" x1="48.6" y1="48.5" x2="31.2" y2="31.1"/>
	</g>
</g>
</svg>
