<?xml version="1.0" encoding="utf-8"?>
<!-- Generator: Adobe Illustrator 19.2.0, SVG Export Plug-In . SVG Version: 6.00 Build 0)  -->
<svg version="1.1" id="Layer_1" xmlns="http://www.w3.org/2000/svg" xmlns:xlink="http://www.w3.org/1999/xlink" x="0px" y="0px"
	 viewBox="0 0 165.6 165.6" style="enable-background:new 0 0 165.6 165.6;" xml:space="preserve">
<style type="text/css">
	.st0{fill:#DBF1FA;}
	.st1{fill:none;stroke:#020303;stroke-width:2;stroke-miterlimit:10;}
	.st2{fill:none;stroke:#020303;stroke-width:2;stroke-miterlimit:10;stroke-dasharray:4,2;}
	.st3{fill:none;stroke:#020303;stroke-width:2;stroke-linejoin:bevel;stroke-miterlimit:10;}
	.st4{fill:#020303;}
	.st5{fill:#B6E3F8;}
	.st6{fill:#E6D8BE;}
	.st7{fill:none;stroke:#EC581E;stroke-width:26;stroke-miterlimit:10;}
	.st8{fill:#EB5322;}
	.st9{fill:#EC581E;}
	.st10{fill:#2499DA;}
	.st11{fill:none;}
	.st12{fill:#D9CBB5;}
	.st13{fill:#1C1C1A;}
	.st14{fill:#262724;}
	.st15{fill:none;stroke:#FFFFFF;stroke-miterlimit:10;}
	.st16{fill:none;stroke:#FFFFFF;stroke-width:2;stroke-miterlimit:10;}
	.st17{fill:none;stroke:#FFFFFF;stroke-width:3;stroke-miterlimit:10;}
	.st18{fill:#1F85B1;}
	.st19{fill:#009DEB;}
	.st20{fill:#009DEB;stroke:#000000;stroke-miterlimit:10;}
	.st21{fill:#FFFFFF;}
	.st22{stroke:#000000;stroke-miterlimit:10;}
	.st23{fill:#897266;}
	.st24{fill:#FFF300;}
	.st25{fill:none;stroke:#FFFFFF;stroke-width:4;stroke-miterlimit:10;}
	.st26{stroke:#6D6F72;stroke-width:9;stroke-miterlimit:10;}
	.st27{fill:#B3B3B3;}
	.st28{stroke:#FFF300;stroke-miterlimit:10;}
	.st29{fill:#FFFFFF;stroke:#000000;stroke-width:0.75;stroke-miterlimit:10;}
	.st30{fill:none;stroke:#000000;stroke-width:0.75;stroke-miterlimit:10;}
	.st31{clip-path:url(#SVGID_2_);fill:#2499DA;}
	.st32{clip-path:url(#SVGID_4_);fill:#2499DA;}
	.st33{fill:none;stroke:#EC581E;stroke-miterlimit:10;}
	.st34{fill:none;stroke:#EC581E;stroke-miterlimit:10;stroke-dasharray:4,3;}
</style>
<g>
	<circle class="st33" cx="83.1" cy="82.8" r="60.9"/>
	<g>
		<line class="st34" x1="9.7" y1="82.8" x2="34.3" y2="82.8"/>
		<line class="st34" x1="131.5" y1="82.8" x2="156.1" y2="82.8"/>
		<line class="st34" x1="82.9" y1="9.6" x2="82.9" y2="34.2"/>
		<line class="st34" x1="82.9" y1="131.4" x2="82.9" y2="156"/>
		<g>
			<line class="st33" x1="134.1" y1="31.6" x2="117.2" y2="48.5"/>
			<g>
				<polygon class="st9" points="130.1,31.2 130.2,32 133.8,31.8 133.7,35.5 134.5,35.6 134.6,31.1 				"/>
			</g>
		</g>
		<g>
			<line class="st33" x1="48.6" y1="117.1" x2="31.7" y2="134"/>
			<g>
				<polygon class="st9" points="31.3,130 32.1,130.1 31.9,133.8 35.6,133.6 35.7,134.4 31.2,134.5 				"/>
			</g>
		</g>
		<g>
			<line class="st33" x1="134.1" y1="134" x2="117.2" y2="117.1"/>
			<g>
				<polygon class="st9" points="134.5,130 133.7,130.1 133.8,133.8 130.2,133.6 130.1,134.4 134.6,134.5 				"/>
			</g>
		</g>
		<g>
			<line class="st33" x1="48.6" y1="48.5" x2="31.7" y2="31.6"/>
			<g>
				<polygon class="st9" points="35.7,31.2 35.6,32 31.9,31.8 32.1,35.5 31.3,35.6 31.2,31.1 				"/>
			</g>
		</g>
	</g>
	<g>
		<circle class="st33" cx="83.1" cy="67.2" r="10"/>
		<path class="st33" d="M98,94.6c0,7.4,0,3.6,0,10.9c-7.4,0-21.2,0-30,0c0-4,0-6.7,0-10.9c0-8.3,6.7-15,15-15S98,86.3,98,94.6z"/>
		<path class="st33" d="M65.6,99.9c-5.2,0-11.3,0-15.7,0c0-3,0-5,0-8.1c0-6.2,5-11.2,11.2-11.2c3.1,0,5.9,1.3,8,3.3"/>
		<circle class="st33" cx="61.1" cy="70.4" r="7.5"/>
		<path class="st33" d="M100.2,99.9c5.2,0,11.3,0,15.7,0c0-3,0-5,0-8.1c0-6.2-5-11.2-11.2-11.2c-3.1,0-5.9,1.3-8,3.3"/>
		<circle class="st33" cx="104.7" cy="70.4" r="7.5"/>
	</g>
</g>
</svg>
