<?xml version="1.0" encoding="utf-8"?>
<!-- Generator: Adobe Illustrator 19.2.0, SVG Export Plug-In . SVG Version: 6.00 Build 0)  -->
<svg version="1.1" id="Layer_1" xmlns="http://www.w3.org/2000/svg" xmlns:xlink="http://www.w3.org/1999/xlink" x="0px" y="0px"
	 viewBox="0 0 324 324" style="enable-background:new 0 0 324 324;" xml:space="preserve">
<style type="text/css">
	.st0{fill:none;stroke:#010101;stroke-width:2;stroke-miterlimit:10;}
	.st1{fill:#C2E8FA;}
	.st2{fill:#ECDFCA;}
	.st3{fill:none;stroke:#F26E27;stroke-width:26;stroke-miterlimit:10;}
	.st4{fill:#F16A2C;}
	.st5{fill:#F26E27;}
	.st6{fill:#27AAE1;}
	.st7{fill:none;}
	.st8{fill:#E1D4C2;}
	.st9{fill:#262623;}
	.st10{fill:#323330;}
	.st11{fill:none;stroke:#FFFFFF;stroke-miterlimit:10;}
	.st12{fill:none;stroke:#FFFFFF;stroke-width:2;stroke-miterlimit:10;}
	.st13{fill:none;stroke:#FFFFFF;stroke-width:3;stroke-miterlimit:10;}
	.st14{fill:#2197BF;}
	.st15{fill:#00AEEF;}
	.st16{fill:#00AEEF;stroke:#000000;stroke-miterlimit:10;}
	.st17{fill:#FFFFFF;}
	.st18{stroke:#000000;stroke-miterlimit:10;}
	.st19{fill:#9B8579;}
	.st20{fill:#FFF200;}
	.st21{fill:none;stroke:#FFFFFF;stroke-width:4;stroke-miterlimit:10;}
	.st22{stroke:#808285;stroke-width:9;stroke-miterlimit:10;}
	.st23{fill:#B3B3B3;}
	.st24{stroke:#FFF200;stroke-miterlimit:10;}
	.st25{fill:#FFFFFF;stroke:#000000;stroke-width:0.75;stroke-miterlimit:10;}
	.st26{fill:none;stroke:#000000;stroke-width:0.75;stroke-miterlimit:10;}
	.st27{fill:#E1F4FB;}
	.st28{clip-path:url(#SVGID_2_);fill:#27AAE1;}
	.st29{clip-path:url(#SVGID_4_);fill:#27AAE1;}
	.st30{fill:#010101;}
	.st31{fill:none;stroke:#F26E27;stroke-miterlimit:10;}
	.st32{fill:none;stroke:#F26E27;stroke-miterlimit:10;stroke-dasharray:4,3;}
	.st33{fill:none;stroke:#010101;stroke-width:2;stroke-miterlimit:10;stroke-dasharray:4,2;}
	.st34{clip-path:url(#SVGID_6_);}
	.st35{fill:#808285;}
</style>
<g>
	<circle class="st1" cx="162" cy="162" r="136.5"/>
</g>
<g>
	<defs>
		<circle id="SVGID_5_" cx="162" cy="162" r="136.5"/>
	</defs>
	<clipPath id="SVGID_2_">
		<use xlink:href="#SVGID_5_"  style="overflow:visible;"/>
	</clipPath>
	<g style="clip-path:url(#SVGID_2_);">
		<g>
			<path class="st5" d="M80.6,344.7h-26c0-23.8,1.7-46.2,4.8-63.3c1.6-8.9,3.5-16,5.8-21.3c5.2-12.1,12.6-14.7,18-14.7v26
				c3.6,0,6.1-1.9,6.8-2.8C86.6,273.2,80.6,300.2,80.6,344.7z"/>
		</g>
		<g>
			<path class="st5" d="M269.4,344.7h-26c0-44.5-6.1-71.4-9.3-76c0.7,0.9,3.2,2.8,6.8,2.8v-26c5.4,0,12.8,2.5,18,14.7
				c2.2,5.2,4.2,12.4,5.8,21.3C267.7,298.4,269.4,320.9,269.4,344.7z"/>
		</g>
		<g>
			<polygon class="st4" points="105.7,95.7 83.1,76.5 83.1,95.7 83.1,111.3 83.1,115.1 83.1,191.4 83.1,206 83.1,389.2 162,389.2 
				162,206 162,111.3 162,95.7 			"/>
		</g>
		<g>
			<polygon class="st5" points="218.3,95.7 240.9,76.5 240.9,95.7 240.9,111.3 240.9,115.1 240.9,191.4 240.9,206 240.9,389.2 
				162,389.2 162,206 162,111.3 162,95.7 			"/>
		</g>
		<g>
			<rect x="82.8" y="225.9" class="st6" width="158.4" height="118.7"/>
		</g>
		<g>
			<path class="st2" d="M83.1,115.1c0,0,4.2,0.7,10.6,3.5C87.3,115.8,83.1,115.1,83.1,115.1z"/>
		</g>
		<g>
			<path class="st7" d="M83.1,115.1c0,0,4.2,0.7,10.6,3.5C87.3,115.8,83.1,115.1,83.1,115.1z"/>
		</g>
		<g>
			<g>
				<path class="st2" d="M83.1,130.3v65.9l68.7,10.9c-0.3-1.7-0.6-3.4-1-5.1C147.4,186.5,133.1,140.6,83.1,130.3z M111.6,180.4
					c-3.2,0-5.9-2.6-5.9-5.9c0-3.2,2.6-5.9,5.9-5.9c3.2,0,5.9,2.6,5.9,5.9C117.5,177.8,114.8,180.4,111.6,180.4z"/>
			</g>
			<g>
				<path class="st8" d="M150.9,202c0.3,1.2,0.5,2.2,0.6,3c-9.6-57.5-40.7-78.8-57.5-86.2c-6.5-2.9-10.9-3.7-10.9-3.7v15.2
					C133.1,140.6,147.4,186.5,150.9,202z"/>
			</g>
			<g>
				<path class="st9" d="M149.7,195.8c0.9,4,2.1,11.3,2.1,11.3H162v-9.8h-11.9C149.9,196.4,149.7,195.8,149.7,195.8z"/>
			</g>
			<g>
				<circle class="st9" cx="111.6" cy="174.6" r="5.9"/>
			</g>
			<g>
				<path class="st10" d="M149.7,195.8c0,0,0.2,0.7,0.3,1.5H162v-1.5H149.7z"/>
			</g>
		</g>
		<g>
			<g>
				<path class="st2" d="M173.1,202c-0.3,1.7-0.7,3.4-1,5.1l68.7-10.9v-65.9C190.9,140.6,176.6,186.5,173.1,202z M206.5,174.6
					c0-3.2,2.6-5.9,5.9-5.9c3.2,0,5.9,2.6,5.9,5.9c0,3.2-2.6,5.9-5.9,5.9C209.2,180.4,206.5,177.8,206.5,174.6z"/>
			</g>
			<g>
				<path class="st8" d="M173.1,202c-0.3,1.2-0.5,2.2-0.6,3c9.6-57.5,40.7-78.8,57.5-86.2c6.5-2.9,10.9-3.7,10.9-3.7v15.2
					C190.9,140.6,176.6,186.5,173.1,202z"/>
			</g>
			<g>
				<path class="st9" d="M174.3,195.8c-0.9,4-2.1,11.3-2.1,11.3H162v-9.8h11.9C174.1,196.4,174.3,195.8,174.3,195.8z"/>
			</g>
			<g>
				<circle class="st9" cx="212.4" cy="174.6" r="5.9"/>
			</g>
			<g>
				<path class="st10" d="M174.3,195.8c0,0-0.2,0.7-0.3,1.5H162v-1.5H174.3z"/>
			</g>
		</g>
		<g>
			<path class="st17" d="M219,117.9v8.6h-2.4v-5.7c-0.4,0.3-0.8,0.5-1.1,0.7s-0.8,0.4-1.4,0.5v-1.9c0.8-0.3,1.4-0.6,1.9-0.9
				c0.4-0.4,0.8-0.8,1-1.3H219z"/>
			<path class="st17" d="M221.6,122.3c0-1.6,0.3-2.7,0.9-3.4c0.6-0.6,1.5-1,2.7-1c0.6,0,1,0.1,1.4,0.2c0.4,0.1,0.7,0.3,0.9,0.6
				c0.2,0.2,0.4,0.5,0.5,0.7c0.1,0.2,0.2,0.5,0.3,0.9c0.2,0.6,0.2,1.3,0.2,2c0,1.5-0.3,2.7-0.8,3.4c-0.5,0.7-1.4,1.1-2.7,1.1
				c-0.7,0-1.3-0.1-1.7-0.3c-0.4-0.2-0.8-0.6-1.1-1c-0.2-0.3-0.4-0.7-0.5-1.3C221.7,123.5,221.6,122.9,221.6,122.3z M223.9,122.3
				c0,1.1,0.1,1.8,0.3,2.2c0.2,0.4,0.5,0.6,0.8,0.6c0.2,0,0.4-0.1,0.6-0.3c0.2-0.2,0.3-0.4,0.4-0.8s0.1-0.9,0.1-1.7
				c0-1.1-0.1-1.9-0.3-2.3s-0.5-0.6-0.9-0.6c-0.4,0-0.7,0.2-0.8,0.6C224,120.5,223.9,121.2,223.9,122.3z"/>
		</g>
		<g>
			<path class="st17" d="M229.9,116.9l0.9-0.1c0,0.1,0.1,0.2,0.1,0.3c0.1,0.1,0.1,0.1,0.2,0.1c0.1,0,0.3-0.1,0.3-0.2
				c0.1-0.1,0.1-0.3,0.1-0.7c-0.1,0.1-0.2,0.2-0.3,0.2c-0.1,0.1-0.2,0.1-0.4,0.1c-0.3,0-0.5-0.1-0.7-0.3s-0.3-0.5-0.3-0.8
				c0-0.2,0.1-0.4,0.2-0.6s0.2-0.3,0.4-0.4c0.2-0.1,0.4-0.1,0.7-0.1c0.3,0,0.6,0.1,0.8,0.2c0.2,0.1,0.4,0.3,0.5,0.5s0.2,0.6,0.2,1
				c0,0.6-0.1,1-0.4,1.3c-0.2,0.3-0.6,0.4-1,0.4c-0.3,0-0.5,0-0.6-0.1c-0.1-0.1-0.3-0.1-0.4-0.3S230,117.1,229.9,116.9z
				 M231.6,115.4c0-0.2,0-0.3-0.1-0.4c-0.1-0.1-0.2-0.1-0.3-0.1c-0.1,0-0.2,0-0.3,0.1s-0.1,0.2-0.1,0.4c0,0.2,0,0.3,0.1,0.4
				c0.1,0.1,0.2,0.1,0.3,0.1c0.1,0,0.2,0,0.3-0.1S231.6,115.6,231.6,115.4z"/>
		</g>
		<g>
			<path class="st17" d="M200.7,248.2v24.3H194v-15.9c-1.1,0.8-2.1,1.5-3.2,2c-1,0.5-2.3,1-3.8,1.5v-5.4c2.3-0.7,4-1.6,5.3-2.6
				c1.2-1,2.2-2.3,2.9-3.8H200.7z"/>
			<path class="st17" d="M207.9,260.5c0-4.5,0.8-7.7,2.5-9.5s4.1-2.7,7.5-2.7c1.6,0,2.9,0.2,4,0.6c1,0.4,1.9,0.9,2.5,1.5
				s1.2,1.3,1.5,2c0.4,0.7,0.7,1.5,0.9,2.5c0.4,1.8,0.7,3.6,0.7,5.6c0,4.3-0.7,7.5-2.2,9.5c-1.5,2-4,3-7.6,3c-2,0-3.6-0.3-4.9-1
				c-1.2-0.6-2.3-1.6-3-2.8c-0.6-0.9-1-2.1-1.3-3.6C208.1,264,207.9,262.3,207.9,260.5z M214.5,260.5c0,3,0.3,5.1,0.8,6.2
				c0.5,1.1,1.3,1.7,2.3,1.7c0.7,0,1.3-0.2,1.8-0.7s0.9-1.2,1.1-2.2c0.2-1,0.4-2.6,0.4-4.8c0-3.2-0.3-5.3-0.8-6.4
				c-0.5-1.1-1.3-1.6-2.4-1.6c-1.1,0-1.9,0.6-2.4,1.7C214.7,255.4,214.5,257.5,214.5,260.5z"/>
		</g>
		<g>
			<path class="st17" d="M228.3,246.8l1.9-0.2c0,0.3,0.1,0.5,0.3,0.6c0.1,0.1,0.3,0.2,0.4,0.2c0.3,0,0.5-0.2,0.7-0.5
				c0.1-0.2,0.2-0.7,0.3-1.5c-0.2,0.2-0.5,0.4-0.7,0.5c-0.2,0.1-0.5,0.2-0.8,0.2c-0.6,0-1.1-0.2-1.6-0.7c-0.4-0.4-0.6-1-0.6-1.7
				c0-0.5,0.1-0.9,0.3-1.2s0.5-0.7,0.9-0.9c0.4-0.2,0.9-0.3,1.4-0.3c0.7,0,1.2,0.1,1.7,0.4c0.4,0.2,0.7,0.6,1,1.1s0.4,1.2,0.4,2
				c0,1.2-0.3,2.2-0.8,2.7c-0.5,0.6-1.2,0.9-2.2,0.9c-0.5,0-1-0.1-1.3-0.2s-0.6-0.3-0.8-0.6C228.6,247.5,228.5,247.1,228.3,246.8z
				 M231.9,243.7c0-0.4-0.1-0.7-0.3-0.9c-0.2-0.2-0.4-0.3-0.7-0.3c-0.3,0-0.5,0.1-0.6,0.3c-0.2,0.2-0.3,0.5-0.3,0.9
				c0,0.4,0.1,0.7,0.3,0.9c0.2,0.2,0.4,0.3,0.7,0.3c0.3,0,0.5-0.1,0.7-0.3C231.8,244.4,231.9,244.1,231.9,243.7z"/>
		</g>
		<g>
			<polyline points="103.7,112.4 83.1,95.7 83.1,115.1 103.7,133.2 			"/>
		</g>
		<g>
			<polyline points="220.3,112.4 240.9,95.7 240.9,115.1 220.3,133.2 			"/>
		</g>
		<g>
			<path d="M162.1,91.6c-26.9,0-49.7,8.3-58.3,19.9v20.4c7.8,10.6,27.5,18.4,51.3,19.7c0.8-1.6,1.6-3.6,2.5-5.9c0,0,0.8-2.2,4.5-2.8
				c3.8,0.6,4.5,2.8,4.5,2.8c0.9,2.3,1.7,4.3,2.5,5.9c23.8-1.3,43.5-9.1,51.3-19.7v-20.4C211.8,99.9,188.9,91.6,162.1,91.6z"/>
			<path class="st35" d="M166.4,156.2l-1.3-2.7c-0.9-1.8-1.7-3.7-2.5-5.8c-0.1-0.1-0.3-0.1-0.5-0.2c-0.3,0.1-0.4,0.2-0.5,0.2
				c-0.8,2.1-1.6,4-2.5,5.8l-1.3,2.7l-3-0.2c-24.9-1.4-45.8-9.6-54.7-21.5l-0.9-1.2V110l0.9-1.2c9.8-13.2,34.1-21.7,62-21.7
				s52.2,8.5,62,21.7l0.9,1.2v23.3l-0.9,1.2c-8.8,11.9-29.8,20.1-54.7,21.5L166.4,156.2z M170.8,144c0.4,1,0.7,1.9,1.1,2.8
				c19.8-1.6,36.6-7.9,44-16.6V113c-8.6-10-30.4-17-53.8-17s-45.3,6.9-53.9,17v17.2c7.4,8.6,24.2,15,44,16.6
				c0.4-0.9,0.8-1.8,1.1-2.8c0.8-2.2,3.4-5,8.1-5.6l0.7-0.1l0.7,0.1C167.4,139.1,170,141.8,170.8,144z"/>
		</g>
		<g>
			<path class="st17" d="M110.9,116.8c0,0,4-5.9,17.9-11c0,0-9.4,5.2-15,11H110.9z"/>
		</g>
		<g>
			<g>
				<path class="st15" d="M247.7,316.7h-13.6c-3.7,0-6.8,3.1-6.8,6.8v32.2c0,3.7,3.1,6.8,6.8,6.8h13.6c3.7,0,6.8-3.1,6.8-6.8v-32.2
					C254.5,319.8,251.4,316.7,247.7,316.7z M232.1,358.6c-0.5,0-0.9-0.4-0.9-0.9c0-0.5,0.4-0.9,0.9-0.9s0.9,0.4,0.9,0.9
					C233,358.2,232.6,358.6,232.1,358.6z M232.1,354.2c-0.5,0-0.9-0.4-0.9-0.9c0-0.5,0.4-0.9,0.9-0.9s0.9,0.4,0.9,0.9
					C233,353.8,232.6,354.2,232.1,354.2z M232.1,350.3c-0.5,0-0.9-0.4-0.9-0.9c0-0.5,0.4-0.9,0.9-0.9s0.9,0.4,0.9,0.9
					C233,349.9,232.6,350.3,232.1,350.3z M232.1,345.9c-0.5,0-0.9-0.4-0.9-0.9c0-0.5,0.4-0.9,0.9-0.9s0.9,0.4,0.9,0.9
					C233,345.5,232.6,345.9,232.1,345.9z M232.1,341.5c-0.5,0-0.9-0.4-0.9-0.9c0-0.5,0.4-0.9,0.9-0.9s0.9,0.4,0.9,0.9
					C233,341.1,232.6,341.5,232.1,341.5z M237.5,358.2c-0.3,0.4-0.8,0.5-1.2,0.2c-0.4-0.3-0.5-0.8-0.2-1.2c0.3-0.4,0.8-0.5,1.2-0.2
					C237.7,357.2,237.8,357.8,237.5,358.2z M237.5,353.8c-0.3,0.4-0.8,0.5-1.2,0.2c-0.4-0.3-0.5-0.8-0.2-1.2
					c0.3-0.4,0.8-0.5,1.2-0.2C237.7,352.9,237.8,353.4,237.5,353.8z M237.5,349.9c-0.3,0.4-0.8,0.5-1.2,0.2
					c-0.4-0.3-0.5-0.8-0.2-1.2c0.3-0.4,0.8-0.5,1.2-0.2C237.7,348.9,237.8,349.5,237.5,349.9z M237.5,345.5
					c-0.3,0.4-0.8,0.5-1.2,0.2c-0.4-0.3-0.5-0.8-0.2-1.2c0.3-0.4,0.8-0.5,1.2-0.2C237.7,344.5,237.8,345.1,237.5,345.5z
					 M237.5,341.1c-0.3,0.4-0.8,0.5-1.2,0.2c-0.4-0.3-0.5-0.8-0.2-1.2c0.3-0.4,0.8-0.5,1.2-0.2C237.7,340.2,237.8,340.7,237.5,341.1
					z M241.7,358.2c-0.3,0.4-0.8,0.5-1.2,0.2c-0.4-0.3-0.5-0.8-0.2-1.2s0.8-0.5,1.2-0.2C241.9,357.2,242,357.8,241.7,358.2z
					 M241.7,353.8c-0.3,0.4-0.8,0.5-1.2,0.2c-0.4-0.3-0.5-0.8-0.2-1.2s0.8-0.5,1.2-0.2C241.9,352.9,242,353.4,241.7,353.8z
					 M241.7,349.9c-0.3,0.4-0.8,0.5-1.2,0.2c-0.4-0.3-0.5-0.8-0.2-1.2s0.8-0.5,1.2-0.2C241.9,348.9,242,349.5,241.7,349.9z
					 M241.7,345.5c-0.3,0.4-0.8,0.5-1.2,0.2c-0.4-0.3-0.5-0.8-0.2-1.2s0.8-0.5,1.2-0.2C241.9,344.5,242,345.1,241.7,345.5z
					 M241.7,341.1c-0.3,0.4-0.8,0.5-1.2,0.2c-0.4-0.3-0.5-0.8-0.2-1.2s0.8-0.5,1.2-0.2C241.9,340.2,242,340.7,241.7,341.1z
					 M242.5,337h-3.2v-3.2h3.2V337z M245,358.6c-0.5,0-0.9-0.4-0.9-0.9c0-0.5,0.4-0.9,0.9-0.9c0.5,0,0.9,0.4,0.9,0.9
					C245.9,358.2,245.5,358.6,245,358.6z M245,354.2c-0.5,0-0.9-0.4-0.9-0.9c0-0.5,0.4-0.9,0.9-0.9c0.5,0,0.9,0.4,0.9,0.9
					C245.9,353.8,245.5,354.2,245,354.2z M245,350.3c-0.5,0-0.9-0.4-0.9-0.9c0-0.5,0.4-0.9,0.9-0.9c0.5,0,0.9,0.4,0.9,0.9
					C245.9,349.9,245.5,350.3,245,350.3z M245,345.9c-0.5,0-0.9-0.4-0.9-0.9c0-0.5,0.4-0.9,0.9-0.9c0.5,0,0.9,0.4,0.9,0.9
					C245.9,345.5,245.5,345.9,245,345.9z M245,341.5c-0.5,0-0.9-0.4-0.9-0.9c0-0.5,0.4-0.9,0.9-0.9c0.5,0,0.9,0.4,0.9,0.9
					C245.9,341.1,245.5,341.5,245,341.5z M246,331.7h-10.2v-10.2H246V331.7z M250.4,358.2c-0.3,0.4-0.8,0.5-1.2,0.2
					c-0.4-0.3-0.5-0.8-0.2-1.2c0.3-0.4,0.8-0.5,1.2-0.2C250.6,357.2,250.7,357.8,250.4,358.2z M250.4,353.8
					c-0.3,0.4-0.8,0.5-1.2,0.2c-0.4-0.3-0.5-0.8-0.2-1.2c0.3-0.4,0.8-0.5,1.2-0.2C250.6,352.9,250.7,353.4,250.4,353.8z
					 M250.4,349.9c-0.3,0.4-0.8,0.5-1.2,0.2c-0.4-0.3-0.5-0.8-0.2-1.2c0.3-0.4,0.8-0.5,1.2-0.2C250.6,348.9,250.7,349.5,250.4,349.9
					z M250.4,345.5c-0.3,0.4-0.8,0.5-1.2,0.2c-0.4-0.3-0.5-0.8-0.2-1.2c0.3-0.4,0.8-0.5,1.2-0.2
					C250.6,344.5,250.7,345.1,250.4,345.5z M250.4,341.1c-0.3,0.4-0.8,0.5-1.2,0.2c-0.4-0.3-0.5-0.8-0.2-1.2
					c0.3-0.4,0.8-0.5,1.2-0.2C250.6,340.2,250.7,340.7,250.4,341.1z M250.1,330.1c-0.5,0-0.9-0.4-0.9-0.9s0.4-0.9,0.9-0.9
					s0.9,0.4,0.9,0.9S250.6,330.1,250.1,330.1z M250.1,326.7c-0.5,0-0.9-0.4-0.9-0.9c0-0.5,0.4-0.9,0.9-0.9s0.9,0.4,0.9,0.9
					C251,326.3,250.6,326.7,250.1,326.7z M250.1,323.3c-0.5,0-0.9-0.4-0.9-0.9s0.4-0.9,0.9-0.9s0.9,0.4,0.9,0.9
					S250.6,323.3,250.1,323.3z"/>
			</g>
			<g>
				<rect x="235.8" y="321.6" class="st23" width="10.2" height="10.2"/>
			</g>
			<g>
				<circle class="st20" cx="250.1" cy="322.5" r="0.9"/>
			</g>
		</g>
		<g>
			<line class="st7" x1="189.9" y1="322.8" x2="174.1" y2="338.6"/>
		</g>
	</g>
</g>
</svg>
