<svg width="86" height="71" viewBox="0 0 86 71" xmlns="http://www.w3.org/2000/svg" xmlns:xlink="http://www.w3.org/1999/xlink">
    <title>
        icon-community-twitter
    </title>
    <defs>
        <path id="a" d="M0 .908h86V71H0"/>
    </defs>
    <g fill="none" fill-rule="evenodd">
        <mask id="b" fill="#fff">
            <use xlink:href="#a"/>
        </mask>
        <path d="M3.804 63.472C11 67.517 18.73 69.49 27.337 69.49c6.308 0 11.89-.924 17.055-2.826 5.392-1.982 9.826-4.502 13.56-7.706 3.79-3.145 7.078-6.876 9.782-11.1 2.83-4.42 4.82-8.726 6.086-13.16 1.298-4.55 1.956-9.163 1.956-13.71V18.78c0-.245.117-.473.318-.615 2.707-1.923 5.067-4.192 7.17-6.896-2.58.588-4.73.322-4.843.308-.272-.034-.503-.216-.604-.47-.103-.256-.056-.546.12-.76.023-.03 2.1-2.578 3.522-5.682-2.924 1.51-6.022 2.58-9.413 3.258-.254.05-.518-.033-.696-.222-3.29-3.506-7.373-5.284-12.136-5.284-4.615 0-8.446 1.59-11.71 4.858-3.266 3.27-4.853 7.105-4.853 11.726 0 1.42.138 2.66.42 3.79.056.228.003.467-.14.65-.142.184-.36.29-.593.29-.91 0-1.773-.1-2.606-.197-.432-.048-.868-.1-1.317-.137-5.746-.676-11.064-2.328-16.28-5.053-5.91-3.064-11.05-7.146-15.288-12.138C5.72 8.474 5.15 10.952 5.15 13.59c0 2.942.65 5.53 1.996 7.91 1.403 2.484 3.215 4.48 5.387 5.928.282.187.404.54.298.86-.103.324-.445.55-.745.524-2.416-.097-4.773-.675-7.02-1.722.195 3.586 1.434 6.716 3.77 9.54 2.52 3.05 5.715 4.97 9.49 5.705.35.068.605.372.61.728.007.358-.236.67-.583.75-1.642.38-3.22.57-4.694.57-.668 0-1.395 0-2.18-.066 1.13 2.823 2.94 5.17 5.388 6.988 2.826 2.095 5.97 3.168 9.61 3.275.316.01.594.216.693.518.1.3 0 .633-.25.83-6.347 5.018-13.74 7.562-21.975 7.562-.39 0-.77-.006-1.14-.018M27.336 71c-9.83 0-18.91-2.64-26.99-7.85-.292-.19-.42-.553-.306-.882.112-.328.447-.54.782-.506 1.184.107 2.598.217 4.123.217 7.207 0 13.74-2.034 19.448-6.05-3.113-.4-5.884-1.526-8.425-3.41-3.03-2.25-5.16-5.236-6.337-8.88-.08-.252-.023-.53.152-.73.174-.2.444-.295.702-.246 1.566.286 2.887.26 4.232.174-2.705-1.095-5.065-2.85-7.043-5.243-2.788-3.374-4.145-7.143-4.145-11.527v-.22c0-.266.14-.514.37-.65.23-.136.514-.14.747-.013 1.58.862 3.218 1.465 4.902 1.805-1.437-1.326-2.68-2.914-3.715-4.746-1.454-2.58-2.192-5.49-2.192-8.655 0-3.24.836-6.39 2.418-9.106.124-.213.347-.353.595-.37.234-.022.486.082.64.275 4.244 5.225 9.47 9.47 15.535 12.615 5.053 2.64 10.2 4.24 15.737 4.89.44.036.892.09 1.338.14.51.06 1 .116 1.495.15-.172-.978-.256-2.03-.256-3.183 0-4.972 1.782-9.277 5.296-12.794 3.51-3.517 7.81-5.3 12.776-5.3 5.056 0 9.407 1.833 12.94 5.453 3.783-.798 7.184-2.117 10.39-4.022.27-.162.61-.136.856.06.244.195.342.523.246.822-.915 2.825-2.614 5.458-3.658 6.914 1.234-.016 3.125-.198 4.957-.992.31-.135.67-.05.882.213.214.26.23.63.04.908-2.457 3.578-5.268 6.495-8.582 8.905v1.82c0 4.688-.678 9.44-2.015 14.123-1.305 4.58-3.354 9.017-6.266 13.565-2.788 4.352-6.18 8.2-10.08 11.44-3.862 3.313-8.447 5.922-14.01 7.967C39.576 70.046 33.824 71 27.337 71" fill="#E38300" mask="url(#b)"/>
    </g>
</svg>
