<svg width="89" height="56" viewBox="0 0 89 56" xmlns="http://www.w3.org/2000/svg" xmlns:xlink="http://www.w3.org/1999/xlink">
    <title>
        icon-community-question
    </title>
    <defs>
        <path id="a" d="M0 0h89v56H0z"/>
    </defs>
    <g fill="none" fill-rule="evenodd">
        <mask id="b" fill="#fff">
            <use xlink:href="#a"/>
        </mask>
        <path d="M60.085 24.92L87.492 2.188V53.37L60.085 24.92zm-30.004.968L44.02 37.45c.138.115.31.174.48.174.17 0 .342-.06.48-.174l13.94-11.562 27.548 28.598H2.532l27.55-28.598zm14.42 9.997L3.064 1.513h82.874L44.5 35.885zM1.51 2.187L28.914 24.92 1.51 53.37V2.188zM89 .757C89 .338 88.664 0 88.247 0H.756C.335 0 0 .34 0 .756V55.25c.002.08.023.16.05.238.005.017.003.035.01.052.002.006.01.012.013.018.038.083.09.16.154.225 0 0 0 .003.003.005.026.024.06.035.087.056.05.036.095.075.153.098.092.038.187.058.285.058h87.49c.098 0 .194-.02.285-.058.057-.023.103-.062.152-.098.03-.02.062-.032.088-.056 0-.002.003-.005.004-.005.062-.062.11-.137.15-.22.004-.008.012-.014.016-.025.006-.012.005-.03.01-.042.028-.08.048-.162.05-.247V.755z" fill="#E38300" mask="url(#b)"/>
    </g>
</svg>
