<svg width="137" height="78" viewBox="0 0 137 78" xmlns="http://www.w3.org/2000/svg" xmlns:xlink="http://www.w3.org/1999/xlink">
    <title>
        icon-clubs-connect
    </title>
    <defs>
        <path id="a" d="M0 .053h137V78H0z"/>
        <path id="c" d="M0 .053h137V78H0z"/>
    </defs>
    <g fill="none" fill-rule="evenodd">
        <path d="M92.91 29.3c1.365 0 2.47 1.107 2.47 2.475s-1.105 2.476-2.47 2.476c-1.363 0-2.467-1.107-2.467-2.475S91.547 29.3 92.91 29.3M46.376 41.044c1.364 0 2.47 1.108 2.47 2.476 0 1.368-1.106 2.476-2.47 2.476-1.363 0-2.468-1.108-2.468-2.476 0-1.368 1.105-2.476 2.468-2.476M15.95 1.292c4.057 0 7.357 3.22 7.357 7.175 0 3.957-3.3 7.174-7.356 7.174-4.057 0-7.36-3.216-7.36-7.173 0-3.956 3.303-7.175 7.36-7.175m0 15.588c4.738 0 8.59-3.774 8.59-8.413 0-4.64-3.852-8.413-8.59-8.413-4.737 0-8.593 3.774-8.593 8.413 0 4.64 3.856 8.413 8.594 8.413" fill="#E78832"/>
        <g>
            <mask id="b" fill="#fff">
                <use xlink:href="#a"/>
            </mask>
            <path d="M30.667 44.626c0 1.788-.942 3.056-1.875 3.52-.46.228-1.146.385-1.892-.06V30.744c0-.343-.275-.62-.617-.62-.34 0-.617.277-.617.62v42.22c0 2.094-1.752 3.798-3.903 3.798-2.15 0-3.903-1.704-3.903-3.798v-24.55c0-.343-.276-.62-.617-.62H14.66c-.342 0-.618.277-.618.62v24.55c0 2.094-1.752 3.798-3.906 3.798-2.15 0-3.9-1.704-3.9-3.798v-42.22c0-.343-.276-.62-.617-.62-.342 0-.618.277-.618.62v17.302c-.667.297-1.49.26-2.18-.118-1.024-.56-1.588-1.733-1.588-3.302V23.012c0-2.032.75-2.787 2.762-2.787H26.71c3.145 0 3.958.573 3.958 2.787v21.614zm-3.956-25.64H3.997C1.306 18.987 0 20.304 0 23.013v21.614c0 2.012.814 3.612 2.23 4.388.86.472 1.872.583 2.772.34v23.61C5.002 75.74 7.305 78 10.136 78c2.834 0 5.14-2.26 5.14-5.036v-23.93h1.35v23.93c0 2.777 2.304 5.036 5.137 5.036 2.832 0 5.137-2.26 5.137-5.036V49.44c.793.27 1.64.212 2.44-.186 1.532-.76 2.56-2.62 2.56-4.628l.002-21.614c0-3.717-2.455-4.025-5.19-4.025z" fill="#E78832" mask="url(#b)"/>
        </g>
        <path d="M121.05 1.292c4.055 0 7.355 3.22 7.355 7.175 0 3.957-3.302 7.174-7.356 7.174-4.06 0-7.36-3.216-7.36-7.173 0-3.956 3.3-7.175 7.36-7.175m0 15.588c4.735 0 8.588-3.774 8.59-8.413 0-4.64-3.854-8.413-8.59-8.413-4.74 0-8.595 3.774-8.595 8.413 0 4.64 3.856 8.413 8.594 8.413" fill="#E78832"/>
        <g>
            <mask id="d" fill="#fff">
                <use xlink:href="#c"/>
            </mask>
            <path d="M135.765 44.626c0 1.788-.942 3.056-1.877 3.52-.46.228-1.144.385-1.892-.06V30.744c0-.343-.275-.62-.617-.62-.34 0-.618.277-.618.62v42.22c0 2.094-1.75 3.798-3.9 3.798-2.154 0-3.905-1.704-3.905-3.798v-24.55c0-.343-.277-.62-.617-.62h-2.585c-.34 0-.617.277-.617.62v24.55c0 2.094-1.75 3.798-3.904 3.798-2.15 0-3.9-1.704-3.9-3.798v-42.22c0-.343-.278-.62-.618-.62-.34 0-.617.277-.617.62v17.302c-.67.297-1.49.26-2.18-.118-1.024-.56-1.588-1.733-1.588-3.302V23.012c0-2.032.748-2.787 2.76-2.787h22.717c3.142 0 3.956.573 3.956 2.787v21.614zm-3.956-25.64h-22.72c-2.685 0-3.992 1.317-3.992 4.026v21.614c0 2.012.814 3.612 2.23 4.39.86.47 1.87.583 2.77.337v23.61c0 2.778 2.304 5.037 5.136 5.037 2.834 0 5.138-2.26 5.138-5.036v-23.93h1.35v23.93c0 2.777 2.305 5.036 5.14 5.036 2.83 0 5.134-2.26 5.134-5.036V49.44c.793.27 1.64.21 2.442-.186 1.53-.76 2.56-2.62 2.56-4.628L137 23.012c0-3.717-2.455-4.025-5.19-4.025z" fill="#E78832" mask="url(#d)"/>
        </g>
        <path d="M91.533 31.775c0-.342-.276-.62-.617-.62H43.908c-.34 0-.617.278-.617.62 0 .34.277.62.618.62h47.008c.34 0 .617-.28.617-.62M95.38 42.9H47.66c-.342 0-.618.278-.618.62 0 .342.276.62.617.62h47.72c.34 0 .617-.278.617-.62 0-.342-.277-.62-.617-.62" fill="#E78832"/>
    </g>
</svg>
