<?xml version="1.0" encoding="utf-8"?>
<!-- Generator: Adobe Illustrator 16.0.0, SVG Export Plug-In . SVG Version: 6.00 Build 0)  -->
<!DOCTYPE svg PUBLIC "-//W3C//DTD SVG 1.1//EN" "http://www.w3.org/Graphics/SVG/1.1/DTD/svg11.dtd">
<svg version="1.1" xmlns="http://www.w3.org/2000/svg" xmlns:xlink="http://www.w3.org/1999/xlink" x="0px" y="0px"
	 width="269.986px" height="269.986px" viewBox="0 0 269.986 269.986" enable-background="new 0 0 269.986 269.986"
	 xml:space="preserve">
<g id="Notes">
</g>
<g id="Logomark_1_">
	<g id="Logomark">
	</g>
</g>
<g id="Lato_Black_Version">
	<g>
		
			<path fill="none" stroke="#82ADD4" stroke-width="2.0756" stroke-linecap="round" stroke-linejoin="round" stroke-miterlimit="10" d="
			M27.95,131.455c0-59.099,47.911-107.007,107.006-107.007c59.098,0,107.007,47.908,107.007,107.007
			c0,59.097-47.909,107.006-107.007,107.006c-52.516,0-96.198-37.834-105.274-87.73C28.542,144.477,27.95,138.037,27.95,131.455z"/>
		
			<path fill="none" stroke="#82ADD4" stroke-width="2.0756" stroke-linecap="round" stroke-linejoin="round" stroke-miterlimit="10" d="
			M207.42,53.15l-8.358-1.088l-0.987,10.356c0,0,7.892,2.958,9.369,7.889c1.481,4.933,2.958,11.343,2.958,11.343l-4.93,5.916
			l4.93,9.863l-3.45,4.438c0,0-3.454-9.368-5.425-9.863c-1.971-0.492-3.946-3.943-3.946-3.943l-5.917,2.465l2.465,3.451l4.933,1.972
			c0,0,0,0-0.987,1.975c-0.986,1.972,1.971,6.41,3.946,13.808c1.971,7.396-7.396,12.326-10.85,12.326
			c-3.452,0-7.89,2.469-8.876,5.917c-0.986,3.452,4.441,5.427,6.412,9.863c1.973,4.438-5.425,6.905-5.425,6.905l-8.383-9.37
			c0,0,0.494,1.974,0,5.919c-0.494,3.942,1.975,7.395,5.92,8.875c3.942,1.479,3.45,7.396,3.45,7.396l-1.479,3.944
			c0,0,0,4.931,4.436,7.89c4.439,2.959,12.331,4.932,12.331,4.932s-9.864-1.478-13.808-1.478c-3.946,0-6.411-2.96-10.85-7.397
			c-4.436-4.438-10.354-12.328-10.354-12.328s4.929,0.492,6.41,1.973c1.479,1.479,5.919,3.451,5.919,3.451s-4.44-9.863-4.44-13.315
			c0-3.451-3.452-13.313-3.452-13.313l-6.411,6.41c0,0,1.479-2.958,1.479-6.904c0-3.942-4.439-8.382-4.439-8.382
			s-4.436,1.974-7.396,3.946c-2.958,1.971-9.861,7.89-10.356,12.327c-0.492,4.439-4.438,9.368-4.438,9.368
			s-6.41-13.806-12.327-22.191c-5.917-8.381-11.34-7.396-17.257-7.396c-5.918,0-13.316-4.437-16.274-6.903
			c-2.958-2.465-5.917-0.984-5.917-0.984l5.917,8.873c0,0,6.904-0.492,10.848,0.988c3.945,1.479,1.481,4.437-1.973,9.367
			c-3.453,4.933-10.85,7.397-15.286,8.387c-4.44,0.984-3.944-4.442-3.944-4.442l-15.781-21.202l8.386,19.233l9.365,10.849
			l11.343-2.468c0,0-2.958,8.878-6.902,13.312c-3.946,4.44-11.835,12.329-11.835,12.329s1.479,4.438,1.479,9.37
			c0,4.931,0.492,9.861,0.492,9.861l-3.941,0.988c0,0,0,2.466-0.494,5.915c-0.495,3.453-5.427,10.849-5.427,10.849
			s-4.932-2.958-12.327-11.341c-7.396-8.381-7.889-21.205-10.356-29.586c-2.467-8.386-2.37-9.635-7.89-13.314
			c-2.958-1.974-7.637-0.449-7.637-0.449"/>
		<path fill="none" stroke="#82ADD4" stroke-width="2" stroke-linecap="round" stroke-linejoin="round" stroke-miterlimit="10" d="
			M30.023,112.393c0,0,5.51-5.287,7.665-6.208c3.453-1.481,6.474-1.668,6.474-1.668l-2.435,4.841l9.385,5.378l0.993-5.448
			l12.33,0.975c0,0,3.948-2.472,4.934-4.443c0.987-1.972,0.496-5.427,0.496-5.427l-7.398,2.463l-4.929-0.455l0.492-3.413h-4.932
			l1.973,5.142l-3.452,2.073l-4.323-10.304L41,91.512v11.343l-0.608-2.96l-0.795-7.396l-1.634,5.915l-3.031,4.44l-3.15,1.267
			l4.37-8.664l1.088-6.929l6.669-7.865l7.554-2.465l4.027-3.946l2.997-8.875l6.922-3.452"/>
		
			<line fill="none" stroke="#82ADD4" stroke-width="2.0756" stroke-linecap="round" stroke-linejoin="round" stroke-miterlimit="10" x1="63.948" y1="56.502" x2="58.522" y2="65.377"/>
		<path fill="none" stroke="#82ADD4" stroke-width="2" stroke-linecap="round" stroke-linejoin="round" stroke-miterlimit="10" d="
			M68.138,48.512l9.001,1.207l-3.886,5.365l8.414-11.375l7.906,0.479l4.446-3.951l-8.38-1.484l9.866-5.92l3.944,5.918l5.92,3.558
			l-0.988-5.321h5.917c0,0,1.973,0.635,1.973,2.115c0,1.481,4.438-5.109,4.438-5.109l-2.957-3.54c0,0,3.45-3.248,4.93-3.248
			c1.481,0,4.003-1.308,4.003-1.308"/>
		
			<polygon fill="none" stroke="#82ADD4" stroke-width="2" stroke-linecap="round" stroke-linejoin="round" stroke-miterlimit="10" points="
			91.315,184.65 87.123,191.986 82.686,191.986 83.672,197.474 87.123,203.91 91.562,203.895 		"/>
		
			<path fill="none" stroke="#82ADD4" stroke-width="2.0756" stroke-linecap="round" stroke-linejoin="round" stroke-miterlimit="10" d="
			M207.423,209.855c0,0,1.994-5.913-0.964-5.42c-2.96,0.493-8.384,3.453-12.824,5.426c-4.436,1.97-9.367,1.479-9.367,1.479
			s1.971-2.468,2.467-6.411c0.49-3.945,0-9.864,4.436-11.834c4.439-1.972,7.891,0,10.356-2.961c2.465-2.956,5.917-8.875,5.917-8.875
			l7.399-3.451l5.421-0.495l-1.972,6.905c0,0,3.452,0.986,4.932-3.452c1.479-4.438,1.479-5.915,1.479-5.915l2.612,10.232"/>
		<path fill="none" stroke="#82ADD4" stroke-width="2" stroke-linecap="round" stroke-linejoin="round" stroke-miterlimit="10" d="
			M203.747,61.432c0,0,8.506,11.344,11.464,17.26c2.959,5.917,4.005,14.301,4.005,14.301l-2.41,9.368l-9.806,4.44v-5.919l9.1-6.905"
			/>
		
			<path fill="none" stroke="#82ADD4" stroke-width="2.0756" stroke-linecap="round" stroke-linejoin="round" stroke-miterlimit="10" d="
			M71.92,82.186c0,0-4.411,1.764-4.115,2.203c0.294,0.441,0.883,4.41,0.883,4.41l-4.996-4.114c0,0-4.409,8.668-2.06,9.403
			c2.354,0.732,5.143-2.939,7.202-1.911c2.056,1.027,6.317,1.47,6.465-0.882c0.146-2.352-3.088-2.496-3.676-4.553
			C71.035,84.685,71.92,82.186,71.92,82.186z"/>
		
			<path fill="none" stroke="#82ADD4" stroke-width="2.0756" stroke-linecap="round" stroke-linejoin="round" stroke-miterlimit="10" d="
			M90.139,79.836l-6.76,5.436l4.848,7.933l-0.881,3.968c0,0,4.994,2.496,6.168,2.058c1.177-0.439,1.177-2.939-0.587-6.761
			c-1.762-3.817-5.29-5.58-4.407-7.639C89.402,82.775,90.139,79.836,90.139,79.836z"/>
		
			<path fill="none" stroke="#82ADD4" stroke-width="2.0756" stroke-linecap="round" stroke-linejoin="round" stroke-miterlimit="10" d="
			M142.736,148.596c0,0-3.086,1.91-1.323,4.264c1.764,2.35,3.674,2.201,3.38-0.297C144.498,150.065,142.736,148.596,142.736,148.596
			z"/>
		
			<path fill="none" stroke="#82ADD4" stroke-width="2.0756" stroke-linecap="round" stroke-linejoin="round" stroke-miterlimit="10" d="
			M188.868,129.205c-1.027,0.732-0.879,3.378,0.442,2.494C190.634,130.818,188.868,129.205,188.868,129.205z"/>
		
			<path fill="none" stroke="#82ADD4" stroke-width="2.0756" stroke-linecap="round" stroke-linejoin="round" stroke-miterlimit="10" d="
			M202.974,121.563c0,2.056,2.645,6.022,2.204,2.204C204.737,119.945,202.974,121.563,202.974,121.563z"/>
		
			<path fill="none" stroke="#82ADD4" stroke-width="2.0756" stroke-linecap="round" stroke-linejoin="round" stroke-miterlimit="10" d="
			M203.856,134.053c-0.293,2.495-0.001,7.638,2.352,8.078c2.348,0.442,4.11,1.469,3.085,3.086c-1.027,1.617-4.851,3.524-3.085,4.998
			c1.762,1.466,4.553,6.022,5.435,1.909c0.882-4.115,1.765-11.314-1.91-12.638c-3.672-1.324-3.671-4.406-4.407-6.464
			C204.59,130.964,203.856,134.053,203.856,134.053z"/>
		
			<path fill="none" stroke="#82ADD4" stroke-width="2.0756" stroke-linecap="round" stroke-linejoin="round" stroke-miterlimit="10" d="
			M198.273,152.562l-7.052,8.521l-3.232-1.469c0,0,1.027,11.46,5.877,9.403c4.848-2.054,6.316-7.199,6.61-9.991
			c0.293-2.79-0.294-3.378,0.735-4.406c1.028-1.031-0.296-3.82-1.47-3.38C198.567,151.681,199.153,151.241,198.273,152.562z"/>
		
			<path fill="none" stroke="#82ADD4" stroke-width="2.0756" stroke-linecap="round" stroke-linejoin="round" stroke-miterlimit="10" d="
			M220.016,164.464c0,0,3.821-3.38,6.025-2.204c2.205,1.177,3.232,2.939,3.232,2.939l4.113-2.204c0,0-4.407,4.555-4.262,6.17
			c0.148,1.616-0.879,0.442-3.232,1.029c-2.349,0.587-2.937-2.354-4.846-3.088c-1.912-0.73-3.967-1.319-4.113-3.376
			c-0.148-2.057,2.055-3.676,2.645-2.203C220.164,162.995,220.016,164.464,220.016,164.464z"/>
		
			<path fill="none" stroke="#82ADD4" stroke-width="2.0756" stroke-linecap="round" stroke-linejoin="round" stroke-miterlimit="10" d="
			M210.173,172.252c0,0-2.351,2.599-3.085,2.599s-1.469,2.395-1.469,2.395"/>
		
			<path fill="none" stroke="#82ADD4" stroke-width="2.0756" stroke-linecap="round" stroke-linejoin="round" stroke-miterlimit="10" d="
			M210.467,159.469c0,0-1.322,1.764-3.523,1.91c-2.206,0.148-1.766,0-3.087,2.646c-1.322,2.645-1.762,6.757-1.762,6.757l4.993-0.587
			c0,0-1.615-2.938-1.321-5.142c0.294-2.205-0.294-4.114-0.294-4.114"/>
	</g>
	<g>
		<ellipse fill="#BCD8EF" cx="206.622" cy="169.881" rx="7.265" ry="5.881"/>
		<ellipse fill="#BCD8EF" cx="71.019" cy="84.091" rx="7.265" ry="5.881"/>
		<ellipse fill="#BCD8EF" cx="40.577" cy="122.835" rx="7.265" ry="5.881"/>
		<ellipse fill="#BCD8EF" cx="115.297" cy="118.684" rx="7.264" ry="5.881"/>
		<ellipse fill="#BCD8EF" cx="64.1" cy="172.648" rx="7.264" ry="5.881"/>
		<path fill="#BCD8EF" d="M209.914,54.677c13.735,18.052,21.904,40.567,21.904,65.001c0,59.35-48.114,107.464-107.463,107.464
			c-29.042,0-55.378-11.538-74.718-30.258c19.629,25.79,50.643,42.448,85.555,42.448c59.35,0,107.462-48.113,107.462-107.463
			C242.654,101.565,230.092,74.212,209.914,54.677z"/>
	</g>
	<path fill="#F1F1F1" d="M27.95,131.455c0-59.099,47.911-107.007,107.006-107.007c59.098,0,107.007,47.908,107.007,107.007
		c0,59.097-47.909,107.006-107.007,107.006c-52.516,0-96.198-37.834-105.274-87.73C28.542,144.477,27.95,138.037,27.95,131.455z"/>
	<path fill="none" stroke="#C4E2EF" stroke-width="1.3837" stroke-miterlimit="10" d="M15.958,131.455
		c0-65.721,53.28-118.998,118.998-118.998c65.72,0,118.999,53.277,118.999,118.998c0,65.719-53.279,118.997-118.999,118.997
		c-58.401,0-106.979-42.073-117.072-97.561C16.617,145.937,15.958,138.774,15.958,131.455z"/>
	<ellipse fill="#BCD8EF" cx="71.019" cy="84.091" rx="7.265" ry="5.881"/>
	<ellipse fill="#BCD8EF" cx="40.577" cy="122.835" rx="7.264" ry="5.881"/>
	<ellipse fill="#BCD8EF" cx="115.297" cy="118.684" rx="7.264" ry="5.881"/>
	<ellipse fill="#BCD8EF" cx="64.1" cy="172.648" rx="7.264" ry="5.881"/>
	<ellipse fill="#BCD8EF" cx="206.622" cy="169.881" rx="7.265" ry="5.881"/>
	<path fill="#BCD8EF" d="M209.914,54.677c13.735,18.052,21.904,40.567,21.904,65.001c0,59.35-48.114,107.464-107.463,107.464
		c-29.042,0-55.378-11.538-74.718-30.258c19.629,25.79,50.643,42.448,85.555,42.448c59.35,0,107.462-48.113,107.462-107.463
		C242.654,101.565,230.092,74.212,209.914,54.677z"/>
	<g>
		
			<path fill="none" stroke="#82ADD4" stroke-width="2.0756" stroke-linecap="round" stroke-linejoin="round" stroke-miterlimit="10" d="
			M27.95,131.455c0-59.099,47.911-107.007,107.006-107.007c59.098,0,107.007,47.908,107.007,107.007
			c0,59.097-47.909,107.006-107.007,107.006c-52.516,0-96.198-37.834-105.274-87.73C28.542,144.477,27.95,138.037,27.95,131.455z"/>
		
			<path fill="none" stroke="#82ADD4" stroke-width="2.0756" stroke-linecap="round" stroke-linejoin="round" stroke-miterlimit="10" d="
			M207.42,53.15l-8.358-1.088l-0.987,10.356c0,0,7.892,2.958,9.369,7.889c1.481,4.933,2.958,11.343,2.958,11.343l-4.93,5.916
			l4.93,9.863l-3.45,4.438c0,0-3.454-9.368-5.425-9.863c-1.971-0.492-3.946-3.943-3.946-3.943l-5.917,2.465l2.465,3.451l4.933,1.972
			c0,0,0,0-0.987,1.975c-0.986,1.972,1.971,6.41,3.946,13.808c1.971,7.396-7.396,12.326-10.85,12.326
			c-3.452,0-7.89,2.469-8.876,5.917c-0.986,3.452,4.441,5.427,6.412,9.863c1.973,4.438-5.425,6.905-5.425,6.905l-8.383-9.37
			c0,0,0.494,1.974,0,5.919c-0.494,3.942,1.975,7.395,5.92,8.875c3.942,1.479,3.45,7.396,3.45,7.396l-1.479,3.944
			c0,0,0,4.931,4.436,7.89c4.439,2.959,12.331,4.932,12.331,4.932s-9.864-1.478-13.808-1.478c-3.946,0-6.411-2.96-10.85-7.397
			c-4.436-4.438-10.354-12.328-10.354-12.328s4.929,0.492,6.41,1.973c1.479,1.479,5.919,3.451,5.919,3.451s-4.44-9.863-4.44-13.315
			c0-3.451-3.452-13.313-3.452-13.313l-6.411,6.41c0,0,1.479-2.958,1.479-6.904c0-3.942-4.439-8.382-4.439-8.382
			s-4.436,1.974-7.396,3.946c-2.958,1.971-9.861,7.89-10.356,12.327c-0.492,4.439-4.438,9.368-4.438,9.368
			s-6.41-13.806-12.327-22.191c-5.917-8.381-11.34-7.396-17.257-7.396c-5.918,0-13.316-4.437-16.274-6.903
			c-2.958-2.465-5.917-0.984-5.917-0.984l5.917,8.873c0,0,6.904-0.492,10.848,0.988c3.945,1.479,1.481,4.437-1.973,9.367
			c-3.453,4.933-10.85,7.397-15.286,8.387c-4.44,0.984-3.944-4.442-3.944-4.442l-15.781-21.202l8.386,19.233l9.365,10.849
			l11.343-2.468c0,0-2.958,8.878-6.902,13.312c-3.946,4.44-11.835,12.329-11.835,12.329s1.479,4.438,1.479,9.37
			c0,4.931,0.492,9.861,0.492,9.861l-3.941,0.988c0,0,0,2.466-0.494,5.915c-0.495,3.453-5.427,10.849-5.427,10.849
			s-4.932-2.958-12.327-11.341c-7.396-8.381-7.889-21.205-10.356-29.586c-2.467-8.386-2.37-9.635-7.89-13.314
			c-2.958-1.974-7.637-0.449-7.637-0.449"/>
		<path fill="none" stroke="#82ADD4" stroke-width="2" stroke-linecap="round" stroke-linejoin="round" stroke-miterlimit="10" d="
			M30.023,112.393c0,0,5.51-5.287,7.665-6.208c3.453-1.481,6.474-1.668,6.474-1.668l-2.435,4.841l9.385,5.378l0.993-5.448
			l12.33,0.975c0,0,3.948-2.472,4.934-4.443c0.987-1.972,0.496-5.427,0.496-5.427l-7.398,2.463l-4.929-0.455l0.492-3.413h-4.932
			l1.973,5.142l-3.452,2.073l-4.323-10.304L41,91.512v11.343l-0.608-2.96l-0.795-7.396l-1.634,5.915l-3.031,4.44l-3.15,1.267
			l4.37-8.664l1.088-6.929l6.669-7.865l7.554-2.465l4.027-3.946l2.997-8.875l6.922-3.452"/>
		
			<line fill="none" stroke="#82ADD4" stroke-width="2.0756" stroke-linecap="round" stroke-linejoin="round" stroke-miterlimit="10" x1="63.948" y1="56.502" x2="58.522" y2="65.377"/>
		<path fill="none" stroke="#82ADD4" stroke-width="2" stroke-linecap="round" stroke-linejoin="round" stroke-miterlimit="10" d="
			M68.138,48.512l9.001,1.207l-3.886,5.365l8.414-11.375l7.906,0.479l4.446-3.951l-8.38-1.484l9.866-5.92l3.944,5.918l5.92,3.558
			l-0.988-5.321h5.917c0,0,1.973,0.635,1.973,2.115c0,1.481,4.438-5.109,4.438-5.109l-2.957-3.54c0,0,3.45-3.248,4.93-3.248
			c1.481,0,4.003-1.308,4.003-1.308"/>
		
			<polygon fill="none" stroke="#82ADD4" stroke-width="2" stroke-linecap="round" stroke-linejoin="round" stroke-miterlimit="10" points="
			91.315,184.65 87.123,191.986 82.686,191.986 83.672,197.474 87.123,203.91 91.562,203.895 		"/>
		
			<path fill="none" stroke="#82ADD4" stroke-width="2.0756" stroke-linecap="round" stroke-linejoin="round" stroke-miterlimit="10" d="
			M207.423,209.855c0,0,1.994-5.913-0.964-5.42c-2.96,0.493-8.384,3.453-12.824,5.426c-4.436,1.97-9.367,1.479-9.367,1.479
			s1.971-2.468,2.467-6.411c0.49-3.945,0-9.864,4.436-11.834c4.439-1.972,7.891,0,10.356-2.961c2.465-2.956,5.917-8.875,5.917-8.875
			l7.399-3.451l5.421-0.495l-1.972,6.905c0,0,3.452,0.986,4.932-3.452c1.479-4.438,1.479-5.915,1.479-5.915l2.612,10.232"/>
		<path fill="none" stroke="#82ADD4" stroke-width="2" stroke-linecap="round" stroke-linejoin="round" stroke-miterlimit="10" d="
			M203.747,61.432c0,0,8.506,11.344,11.464,17.26c2.959,5.917,4.005,14.301,4.005,14.301l-2.41,9.368l-9.806,4.44v-5.919l9.1-6.905"
			/>
		
			<path fill="none" stroke="#82ADD4" stroke-width="2.0756" stroke-linecap="round" stroke-linejoin="round" stroke-miterlimit="10" d="
			M71.92,82.186c0,0-4.411,1.764-4.115,2.203c0.294,0.441,0.883,4.41,0.883,4.41l-4.996-4.114c0,0-4.409,8.668-2.06,9.403
			c2.354,0.732,5.143-2.939,7.202-1.911c2.056,1.027,6.317,1.47,6.465-0.882c0.146-2.352-3.088-2.496-3.676-4.553
			C71.035,84.685,71.92,82.186,71.92,82.186z"/>
		
			<path fill="none" stroke="#82ADD4" stroke-width="2.0756" stroke-linecap="round" stroke-linejoin="round" stroke-miterlimit="10" d="
			M90.139,79.836l-6.76,5.436l4.848,7.933l-0.881,3.968c0,0,4.994,2.496,6.168,2.058c1.177-0.439,1.177-2.939-0.587-6.761
			c-1.762-3.817-5.29-5.58-4.407-7.639C89.402,82.775,90.139,79.836,90.139,79.836z"/>
		
			<path fill="none" stroke="#82ADD4" stroke-width="2.0756" stroke-linecap="round" stroke-linejoin="round" stroke-miterlimit="10" d="
			M142.736,148.596c0,0-3.086,1.91-1.323,4.264c1.764,2.35,3.674,2.201,3.38-0.297C144.498,150.065,142.736,148.596,142.736,148.596
			z"/>
		
			<path fill="none" stroke="#82ADD4" stroke-width="2.0756" stroke-linecap="round" stroke-linejoin="round" stroke-miterlimit="10" d="
			M188.868,129.205c-1.027,0.732-0.879,3.378,0.442,2.494C190.634,130.818,188.868,129.205,188.868,129.205z"/>
		
			<path fill="none" stroke="#82ADD4" stroke-width="2.0756" stroke-linecap="round" stroke-linejoin="round" stroke-miterlimit="10" d="
			M202.974,121.563c0,2.056,2.645,6.022,2.204,2.204C204.737,119.945,202.974,121.563,202.974,121.563z"/>
		
			<path fill="none" stroke="#82ADD4" stroke-width="2.0756" stroke-linecap="round" stroke-linejoin="round" stroke-miterlimit="10" d="
			M203.856,134.053c-0.293,2.495-0.001,7.638,2.352,8.078c2.348,0.442,4.11,1.469,3.085,3.086c-1.027,1.617-4.851,3.524-3.085,4.998
			c1.762,1.466,4.553,6.022,5.435,1.909c0.882-4.115,1.765-11.314-1.91-12.638c-3.672-1.324-3.671-4.406-4.407-6.464
			C204.59,130.964,203.856,134.053,203.856,134.053z"/>
		
			<path fill="none" stroke="#82ADD4" stroke-width="2.0756" stroke-linecap="round" stroke-linejoin="round" stroke-miterlimit="10" d="
			M198.273,152.562l-7.052,8.521l-3.232-1.469c0,0,1.027,11.46,5.877,9.403c4.848-2.054,6.316-7.199,6.61-9.991
			c0.293-2.79-0.294-3.378,0.735-4.406c1.028-1.031-0.296-3.82-1.47-3.38C198.567,151.681,199.153,151.241,198.273,152.562z"/>
		
			<path fill="none" stroke="#82ADD4" stroke-width="2.0756" stroke-linecap="round" stroke-linejoin="round" stroke-miterlimit="10" d="
			M220.016,164.464c0,0,3.821-3.38,6.025-2.204c2.205,1.177,3.232,2.939,3.232,2.939l4.113-2.204c0,0-4.407,4.555-4.262,6.17
			c0.148,1.616-0.879,0.442-3.232,1.029c-2.349,0.587-2.937-2.354-4.846-3.088c-1.912-0.73-3.967-1.319-4.113-3.376
			c-0.148-2.057,2.055-3.676,2.645-2.203C220.164,162.995,220.016,164.464,220.016,164.464z"/>
		
			<path fill="none" stroke="#82ADD4" stroke-width="2.0756" stroke-linecap="round" stroke-linejoin="round" stroke-miterlimit="10" d="
			M210.173,172.252c0,0-2.351,2.599-3.085,2.599s-1.469,2.395-1.469,2.395"/>
		
			<path fill="none" stroke="#82ADD4" stroke-width="2.0756" stroke-linecap="round" stroke-linejoin="round" stroke-miterlimit="10" d="
			M210.467,159.469c0,0-1.322,1.764-3.523,1.91c-2.206,0.148-1.766,0-3.087,2.646c-1.322,2.645-1.762,6.757-1.762,6.757l4.993-0.587
			c0,0-1.615-2.938-1.321-5.142c0.294-2.205-0.294-4.114-0.294-4.114"/>
	</g>
	<g>
		<g>
			<path fill="#F1F1F1" stroke="#2093D0" stroke-width="3.5538" stroke-miterlimit="10" d="M86.972,52.699
				c0-9.158-7.26-16.582-16.214-16.582c-8.956,0-16.214,7.424-16.214,16.582c0,4.67,3,12.002,6.556,16.593
				c5.545,7.16,9.658,12.276,9.658,12.276s4.391-5.546,8.698-11.199C83.717,64.777,86.972,57.283,86.972,52.699z"/>
			
				<ellipse fill="#F1F1F1" stroke="#2093D0" stroke-width="3.5538" stroke-miterlimit="10" cx="70.758" cy="52.586" rx="8.256" ry="8.445"/>
		</g>
		<g>
			<path fill="#F1F1F1" stroke="#2093D0" stroke-width="3.5538" stroke-miterlimit="10" d="M80.172,141.398
				c0-9.158-7.26-16.582-16.214-16.582c-8.956,0-16.214,7.424-16.214,16.582c0,4.67,3,12.002,6.556,16.593
				c5.545,7.16,9.658,12.276,9.658,12.276s4.391-5.546,8.698-11.199C76.917,153.477,80.172,145.982,80.172,141.398z"/>
			
				<ellipse fill="#F1F1F1" stroke="#2093D0" stroke-width="3.5538" stroke-miterlimit="10" cx="63.958" cy="141.285" rx="8.256" ry="8.445"/>
		</g>
		<g>
			<path fill="#F1F1F1" stroke="#2093D0" stroke-width="3.0956" stroke-miterlimit="10" d="M220.275,145.418
				c0-7.98-6.323-14.445-14.124-14.445s-14.123,6.465-14.123,14.445c0,4.066,2.613,10.453,5.71,14.451
				c4.83,6.237,8.413,10.694,8.413,10.694s3.825-4.831,7.577-9.755C217.44,155.938,220.275,149.409,220.275,145.418z"/>
			
				<ellipse fill="#F1F1F1" stroke="#2093D0" stroke-width="3.0956" stroke-miterlimit="10" cx="206.152" cy="145.317" rx="7.192" ry="7.356"/>
		</g>
		<g>
			<path fill="#F1F1F1" stroke="#2093D0" stroke-width="2.4476" stroke-miterlimit="10" d="M126.441,98.347
				c0-6.308-5-11.421-11.167-11.421c-6.168,0-11.167,5.113-11.167,11.421c0,3.216,2.066,8.267,4.516,11.428
				c3.818,4.931,6.651,8.455,6.651,8.455s3.024-3.819,5.991-7.713C124.199,106.666,126.441,101.504,126.441,98.347z"/>
			
				<ellipse fill="#F1F1F1" stroke="#2093D0" stroke-width="2.4476" stroke-miterlimit="10" cx="115.274" cy="98.269" rx="5.687" ry="5.815"/>
		</g>
		<g>
			<path fill="#F1F1F1" stroke="#2093D0" stroke-width="2.6554" stroke-miterlimit="10" d="M52.488,100.702
				c0-6.843-5.425-12.392-12.116-12.392c-6.692,0-12.115,5.549-12.115,12.392c0,3.487,2.242,8.968,4.899,12.398
				c4.143,5.348,7.216,9.172,7.216,9.172s3.281-4.144,6.499-8.368C50.056,109.727,52.488,104.125,52.488,100.702z"/>
			
				<ellipse fill="#F1F1F1" stroke="#2093D0" stroke-width="2.6554" stroke-miterlimit="10" cx="40.372" cy="100.615" rx="6.17" ry="6.31"/>
		</g>
	</g>
</g>
<g id="Guides">
</g>
</svg>
