<?xml version="1.0" encoding="utf-8"?>
<!-- Generator: Adobe Illustrator 18.1.1, SVG Export Plug-In . SVG Version: 6.00 Build 0)  -->
<!DOCTYPE svg PUBLIC "-//W3C//DTD SVG 1.0//EN" "http://www.w3.org/TR/2001/REC-SVG-20010904/DTD/svg10.dtd">
<svg version="1.0" id="Layer_1" xmlns="http://www.w3.org/2000/svg" xmlns:xlink="http://www.w3.org/1999/xlink" x="0px" y="0px"
	 viewBox="-114 116 270 270" enable-background="new -114 116 270 270" xml:space="preserve">
<g id="Notes">
</g>
<g id="Logomark_1_">
	<g id="Logomark">
	</g>
</g>
<g id="Lato_Black_Version">
	<g>
		
			<path fill="none" stroke="#82ADD4" stroke-width="2.0756" stroke-linecap="round" stroke-linejoin="round" stroke-miterlimit="10" d="
			M-86.1,247.5c0-59.1,47.9-107,107-107c59.1,0,107,47.9,107,107c0,59.1-47.9,107-107,107c-52.5,0-96.2-37.8-105.3-87.7
			C-85.5,260.5-86.1,254.1-86.1,247.5z"/>
		
			<path fill="none" stroke="#82ADD4" stroke-width="2.0756" stroke-linecap="round" stroke-linejoin="round" stroke-miterlimit="10" d="
			M93.4,169.2l-8.4-1.1l-1,10.4c0,0,7.9,3,9.4,7.9c1.5,4.9,3,11.3,3,11.3l-4.9,5.9l4.9,9.9l-3.4,4.4c0,0-3.5-9.4-5.4-9.9
			c-2-0.5-3.9-3.9-3.9-3.9l-5.9,2.5l2.5,3.5l4.9,2c0,0,0,0-1,2c-1,2,2,6.4,3.9,13.8c2,7.4-7.4,12.3-10.9,12.3
			c-3.5,0-7.9,2.5-8.9,5.9c-1,3.5,4.4,5.4,6.4,9.9c2,4.4-5.4,6.9-5.4,6.9l-8.4-9.4c0,0,0.5,2,0,5.9c-0.5,3.9,2,7.4,5.9,8.9
			c3.9,1.5,3.4,7.4,3.4,7.4l-1.5,3.9c0,0,0,4.9,4.4,7.9c4.4,3,12.3,4.9,12.3,4.9s-9.9-1.5-13.8-1.5c-3.9,0-6.4-3-10.9-7.4
			c-4.4-4.4-10.4-12.3-10.4-12.3s4.9,0.5,6.4,2c1.5,1.5,5.9,3.5,5.9,3.5s-4.4-9.9-4.4-13.3c0-3.5-3.5-13.3-3.5-13.3l-6.4,6.4
			c0,0,1.5-3,1.5-6.9c0-3.9-4.4-8.4-4.4-8.4s-4.4,2-7.4,3.9c-3,2-9.9,7.9-10.4,12.3c-0.5,4.4-4.4,9.4-4.4,9.4s-6.4-13.8-12.3-22.2
			c-5.9-8.4-11.3-7.4-17.3-7.4c-5.9,0-13.3-4.4-16.3-6.9c-3-2.5-5.9-1-5.9-1l5.9,8.9c0,0,6.9-0.5,10.8,1c3.9,1.5,1.5,4.4-2,9.4
			c-3.5,4.9-10.8,7.4-15.3,8.4c-4.4,1-3.9-4.4-3.9-4.4l-15.8-21.2l8.4,19.2l9.4,10.8l11.3-2.5c0,0-3,8.9-6.9,13.3
			c-3.9,4.4-11.8,12.3-11.8,12.3s1.5,4.4,1.5,9.4c0,4.9,0.5,9.9,0.5,9.9l-3.9,1c0,0,0,2.5-0.5,5.9c-0.5,3.5-5.4,10.8-5.4,10.8
			s-4.9-3-12.3-11.3c-7.4-8.4-7.9-21.2-10.4-29.6c-2.5-8.4-2.4-9.6-7.9-13.3c-3-2-7.6-0.4-7.6-0.4"/>
		<path fill="none" stroke="#82ADD4" stroke-width="2" stroke-linecap="round" stroke-linejoin="round" stroke-miterlimit="10" d="
			M-84,228.4c0,0,5.5-5.3,7.7-6.2c3.5-1.5,6.5-1.7,6.5-1.7l-2.4,4.8l9.4,5.4l1-5.4l12.3,1c0,0,3.9-2.5,4.9-4.4c1-2,0.5-5.4,0.5-5.4
			l-7.4,2.5l-4.9-0.5l0.5-3.4h-4.9l2,5.1l-3.5,2.1l-4.3-10.3l-6.3-4.4v11.3l-0.6-3l-0.8-7.4l-1.6,5.9l-3,4.4l-3.2,1.3l4.4-8.7
			l1.1-6.9l6.7-7.9l7.6-2.5l4-3.9l3-8.9l6.9-3.5"/>
		
			<line fill="none" stroke="#82ADD4" stroke-width="2.0756" stroke-linecap="round" stroke-linejoin="round" stroke-miterlimit="10" x1="-50.1" y1="172.5" x2="-55.5" y2="181.4"/>
		<path fill="none" stroke="#82ADD4" stroke-width="2" stroke-linecap="round" stroke-linejoin="round" stroke-miterlimit="10" d="
			M-45.9,164.5l9,1.2l-3.9,5.4l8.4-11.4l7.9,0.5l4.4-4l-8.4-1.5l9.9-5.9l3.9,5.9l5.9,3.6l-1-5.3h5.9c0,0,2,0.6,2,2.1
			c0,1.5,4.4-5.1,4.4-5.1l-3-3.5c0,0,3.4-3.2,4.9-3.2c1.5,0,4-1.3,4-1.3"/>
		
			<polygon fill="none" stroke="#82ADD4" stroke-width="2" stroke-linecap="round" stroke-linejoin="round" stroke-miterlimit="10" points="
			-22.7,300.7 -26.9,308 -31.3,308 -30.3,313.5 -26.9,319.9 -22.4,319.9 		"/>
		
			<path fill="none" stroke="#82ADD4" stroke-width="2.0756" stroke-linecap="round" stroke-linejoin="round" stroke-miterlimit="10" d="
			M93.4,325.9c0,0,2-5.9-1-5.4c-3,0.5-8.4,3.5-12.8,5.4c-4.4,2-9.4,1.5-9.4,1.5s2-2.5,2.5-6.4c0.5-3.9,0-9.9,4.4-11.8
			c4.4-2,7.9,0,10.4-3c2.5-3,5.9-8.9,5.9-8.9l7.4-3.5l5.4-0.5l-2,6.9c0,0,3.5,1,4.9-3.5c1.5-4.4,1.5-5.9,1.5-5.9l2.6,10.2"/>
		<path fill="none" stroke="#82ADD4" stroke-width="2" stroke-linecap="round" stroke-linejoin="round" stroke-miterlimit="10" d="
			M89.7,177.4c0,0,8.5,11.3,11.5,17.3c3,5.9,4,14.3,4,14.3l-2.4,9.4l-9.8,4.4v-5.9l9.1-6.9"/>
		
			<path fill="none" stroke="#82ADD4" stroke-width="2.0756" stroke-linecap="round" stroke-linejoin="round" stroke-miterlimit="10" d="
			M-42.1,198.2c0,0-4.4,1.8-4.1,2.2c0.3,0.4,0.9,4.4,0.9,4.4l-5-4.1c0,0-4.4,8.7-2.1,9.4c2.4,0.7,5.1-2.9,7.2-1.9
			c2.1,1,6.3,1.5,6.5-0.9c0.1-2.4-3.1-2.5-3.7-4.6S-42.1,198.2-42.1,198.2z"/>
		
			<path fill="none" stroke="#82ADD4" stroke-width="2.0756" stroke-linecap="round" stroke-linejoin="round" stroke-miterlimit="10" d="
			M-23.9,195.9l-6.8,5.4l4.8,7.9l-0.9,4c0,0,5,2.5,6.2,2.1c1.2-0.4,1.2-2.9-0.6-6.8c-1.8-3.8-5.3-5.6-4.4-7.6
			C-24.6,198.8-23.9,195.9-23.9,195.9z"/>
		
			<path fill="none" stroke="#82ADD4" stroke-width="2.0756" stroke-linecap="round" stroke-linejoin="round" stroke-miterlimit="10" d="
			M28.7,264.6c0,0-3.1,1.9-1.3,4.3c1.8,2.4,3.7,2.2,3.4-0.3C30.5,266.1,28.7,264.6,28.7,264.6z"/>
		
			<path fill="none" stroke="#82ADD4" stroke-width="2.0756" stroke-linecap="round" stroke-linejoin="round" stroke-miterlimit="10" d="
			M74.9,245.2c-1,0.7-0.9,3.4,0.4,2.5C76.6,246.8,74.9,245.2,74.9,245.2z"/>
		
			<path fill="none" stroke="#82ADD4" stroke-width="2.0756" stroke-linecap="round" stroke-linejoin="round" stroke-miterlimit="10" d="
			M89,237.6c0,2.1,2.6,6,2.2,2.2C90.7,236,89,237.6,89,237.6z"/>
		
			<path fill="none" stroke="#82ADD4" stroke-width="2.0756" stroke-linecap="round" stroke-linejoin="round" stroke-miterlimit="10" d="
			M89.9,250.1c-0.3,2.5,0,7.6,2.4,8.1c2.3,0.4,4.1,1.5,3.1,3.1c-1,1.6-4.9,3.5-3.1,5c1.8,1.5,4.6,6,5.4,1.9
			c0.9-4.1,1.8-11.3-1.9-12.6c-3.7-1.3-3.7-4.4-4.4-6.5C90.6,247,89.9,250.1,89.9,250.1z"/>
		
			<path fill="none" stroke="#82ADD4" stroke-width="2.0756" stroke-linecap="round" stroke-linejoin="round" stroke-miterlimit="10" d="
			M84.3,268.6l-7.1,8.5l-3.2-1.5c0,0,1,11.5,5.9,9.4c4.8-2.1,6.3-7.2,6.6-10c0.3-2.8-0.3-3.4,0.7-4.4c1-1-0.3-3.8-1.5-3.4
			C84.6,267.7,85.2,267.3,84.3,268.6z"/>
		
			<path fill="none" stroke="#82ADD4" stroke-width="2.0756" stroke-linecap="round" stroke-linejoin="round" stroke-miterlimit="10" d="
			M106,280.5c0,0,3.8-3.4,6-2.2c2.2,1.2,3.2,2.9,3.2,2.9l4.1-2.2c0,0-4.4,4.6-4.3,6.2c0.1,1.6-0.9,0.4-3.2,1
			c-2.3,0.6-2.9-2.4-4.8-3.1c-1.9-0.7-4-1.3-4.1-3.4c-0.1-2.1,2.1-3.7,2.6-2.2C106.2,279,106,280.5,106,280.5z"/>
		
			<path fill="none" stroke="#82ADD4" stroke-width="2.0756" stroke-linecap="round" stroke-linejoin="round" stroke-miterlimit="10" d="
			M96.2,288.3c0,0-2.4,2.6-3.1,2.6s-1.5,2.4-1.5,2.4"/>
		
			<path fill="none" stroke="#82ADD4" stroke-width="2.0756" stroke-linecap="round" stroke-linejoin="round" stroke-miterlimit="10" d="
			M96.5,275.5c0,0-1.3,1.8-3.5,1.9c-2.2,0.1-1.8,0-3.1,2.6c-1.3,2.6-1.8,6.8-1.8,6.8l5-0.6c0,0-1.6-2.9-1.3-5.1
			c0.3-2.2-0.3-4.1-0.3-4.1"/>
	</g>
	<g>
		<ellipse fill="#BCD8EF" cx="92.6" cy="285.9" rx="7.3" ry="5.9"/>
		<ellipse fill="#BCD8EF" cx="-43" cy="200.1" rx="7.3" ry="5.9"/>
		<ellipse fill="#BCD8EF" cx="-73.4" cy="238.8" rx="7.3" ry="5.9"/>
		<ellipse fill="#BCD8EF" cx="1.3" cy="234.7" rx="7.3" ry="5.9"/>
		<ellipse fill="#BCD8EF" cx="-49.9" cy="288.7" rx="7.3" ry="5.9"/>
		<path fill="#BCD8EF" d="M95.9,170.7c13.7,18.1,21.9,40.6,21.9,65c0,59.3-48.1,107.5-107.5,107.5c-29,0-55.4-11.5-74.7-30.3
			c19.6,25.8,50.6,42.4,85.6,42.4c59.4,0,107.5-48.1,107.5-107.5C128.7,217.6,116.1,190.2,95.9,170.7z"/>
	</g>
	<path fill="#F1F1F1" d="M-86.1,247.5c0-59.1,47.9-107,107-107c59.1,0,107,47.9,107,107c0,59.1-47.9,107-107,107
		c-52.5,0-96.2-37.8-105.3-87.7C-85.5,260.5-86.1,254.1-86.1,247.5z"/>
	<path fill="none" stroke="#EABEC8" stroke-width="1.384" stroke-miterlimit="10" d="M-98,247.5c0-65.7,53.3-119,119-119
		c65.7,0,119,53.3,119,119c0,65.7-53.3,119-119,119c-58.4,0-107-42.1-117.1-97.6C-97.4,262-98,254.8-98,247.5z"/>
	<ellipse fill="#E8B8C5" cx="-43" cy="200.1" rx="7.3" ry="5.9"/>
	<ellipse fill="#E8B8C5" cx="-73.4" cy="238.8" rx="7.3" ry="5.9"/>
	<ellipse fill="#E8B8C5" cx="1.3" cy="234.7" rx="7.3" ry="5.9"/>
	<ellipse fill="#E8B8C5" cx="-49.9" cy="288.7" rx="7.3" ry="5.9"/>
	<ellipse fill="#E8B8C5" cx="92.6" cy="285.9" rx="7.3" ry="5.9"/>
	<path fill="#E8B8C5" d="M95.9,170.7c13.7,18.1,21.9,40.6,21.9,65c0,59.3-48.1,107.5-107.5,107.5c-29,0-55.4-11.5-74.7-30.3
		c19.6,25.8,50.6,42.4,85.6,42.4c59.4,0,107.5-48.1,107.5-107.5C128.7,217.6,116.1,190.2,95.9,170.7z"/>
	<g>
		
			<path fill="none" stroke="#D38497" stroke-width="2.0756" stroke-linecap="round" stroke-linejoin="round" stroke-miterlimit="10" d="
			M-86.1,247.5c0-59.1,47.9-107,107-107c59.1,0,107,47.9,107,107c0,59.1-47.9,107-107,107c-52.5,0-96.2-37.8-105.3-87.7
			C-85.5,260.5-86.1,254.1-86.1,247.5z"/>
		
			<path fill="none" stroke="#D38497" stroke-width="2.0756" stroke-linecap="round" stroke-linejoin="round" stroke-miterlimit="10" d="
			M93.4,169.2l-8.4-1.1l-1,10.4c0,0,7.9,3,9.4,7.9c1.5,4.9,3,11.3,3,11.3l-4.9,5.9l4.9,9.9l-3.4,4.4c0,0-3.5-9.4-5.4-9.9
			c-2-0.5-3.9-3.9-3.9-3.9l-5.9,2.5l2.5,3.5l4.9,2c0,0,0,0-1,2c-1,2,2,6.4,3.9,13.8c2,7.4-7.4,12.3-10.9,12.3
			c-3.5,0-7.9,2.5-8.9,5.9c-1,3.5,4.4,5.4,6.4,9.9c2,4.4-5.4,6.9-5.4,6.9l-8.4-9.4c0,0,0.5,2,0,5.9c-0.5,3.9,2,7.4,5.9,8.9
			c3.9,1.5,3.4,7.4,3.4,7.4l-1.5,3.9c0,0,0,4.9,4.4,7.9c4.4,3,12.3,4.9,12.3,4.9s-9.9-1.5-13.8-1.5c-3.9,0-6.4-3-10.9-7.4
			c-4.4-4.4-10.4-12.3-10.4-12.3s4.9,0.5,6.4,2c1.5,1.5,5.9,3.5,5.9,3.5s-4.4-9.9-4.4-13.3c0-3.5-3.5-13.3-3.5-13.3l-6.4,6.4
			c0,0,1.5-3,1.5-6.9c0-3.9-4.4-8.4-4.4-8.4s-4.4,2-7.4,3.9c-3,2-9.9,7.9-10.4,12.3c-0.5,4.4-4.4,9.4-4.4,9.4s-6.4-13.8-12.3-22.2
			c-5.9-8.4-11.3-7.4-17.3-7.4c-5.9,0-13.3-4.4-16.3-6.9c-3-2.5-5.9-1-5.9-1l5.9,8.9c0,0,6.9-0.5,10.8,1c3.9,1.5,1.5,4.4-2,9.4
			c-3.5,4.9-10.8,7.4-15.3,8.4c-4.4,1-3.9-4.4-3.9-4.4l-15.8-21.2l8.4,19.2l9.4,10.8l11.3-2.5c0,0-3,8.9-6.9,13.3
			c-3.9,4.4-11.8,12.3-11.8,12.3s1.5,4.4,1.5,9.4c0,4.9,0.5,9.9,0.5,9.9l-3.9,1c0,0,0,2.5-0.5,5.9c-0.5,3.5-5.4,10.8-5.4,10.8
			s-4.9-3-12.3-11.3c-7.4-8.4-7.9-21.2-10.4-29.6c-2.5-8.4-2.4-9.6-7.9-13.3c-3-2-7.6-0.4-7.6-0.4"/>
		<path fill="none" stroke="#D38497" stroke-width="2" stroke-linecap="round" stroke-linejoin="round" stroke-miterlimit="10" d="
			M-84,228.4c0,0,5.5-5.3,7.7-6.2c3.5-1.5,6.5-1.7,6.5-1.7l-2.4,4.8l9.4,5.4l1-5.4l12.3,1c0,0,3.9-2.5,4.9-4.4c1-2,0.5-5.4,0.5-5.4
			l-7.4,2.5l-4.9-0.5l0.5-3.4h-4.9l2,5.1l-3.5,2.1l-4.3-10.3l-6.3-4.4v11.3l-0.6-3l-0.8-7.4l-1.6,5.9l-3,4.4l-3.2,1.3l4.4-8.7
			l1.1-6.9l6.7-7.9l7.6-2.5l4-3.9l3-8.9l6.9-3.5"/>
		
			<line fill="none" stroke="#D38497" stroke-width="2.0756" stroke-linecap="round" stroke-linejoin="round" stroke-miterlimit="10" x1="-50.1" y1="172.5" x2="-55.5" y2="181.4"/>
		<path fill="none" stroke="#D38497" stroke-width="2" stroke-linecap="round" stroke-linejoin="round" stroke-miterlimit="10" d="
			M-45.9,164.5l9,1.2l-3.9,5.4l8.4-11.4l7.9,0.5l4.4-4l-8.4-1.5l9.9-5.9l3.9,5.9l5.9,3.6l-1-5.3h5.9c0,0,2,0.6,2,2.1
			c0,1.5,4.4-5.1,4.4-5.1l-3-3.5c0,0,3.4-3.2,4.9-3.2c1.5,0,4-1.3,4-1.3"/>
		
			<polygon fill="none" stroke="#D38497" stroke-width="2" stroke-linecap="round" stroke-linejoin="round" stroke-miterlimit="10" points="
			-22.7,300.7 -26.9,308 -31.3,308 -30.3,313.5 -26.9,319.9 -22.4,319.9 		"/>
		
			<path fill="none" stroke="#D38497" stroke-width="2.0756" stroke-linecap="round" stroke-linejoin="round" stroke-miterlimit="10" d="
			M93.4,325.9c0,0,2-5.9-1-5.4c-3,0.5-8.4,3.5-12.8,5.4c-4.4,2-9.4,1.5-9.4,1.5s2-2.5,2.5-6.4c0.5-3.9,0-9.9,4.4-11.8
			c4.4-2,7.9,0,10.4-3c2.5-3,5.9-8.9,5.9-8.9l7.4-3.5l5.4-0.5l-2,6.9c0,0,3.5,1,4.9-3.5c1.5-4.4,1.5-5.9,1.5-5.9l2.6,10.2"/>
		<path fill="none" stroke="#D38497" stroke-width="2" stroke-linecap="round" stroke-linejoin="round" stroke-miterlimit="10" d="
			M89.7,177.4c0,0,8.5,11.3,11.5,17.3c3,5.9,4,14.3,4,14.3l-2.4,9.4l-9.8,4.4v-5.9l9.1-6.9"/>
		
			<path fill="none" stroke="#D38497" stroke-width="2.0756" stroke-linecap="round" stroke-linejoin="round" stroke-miterlimit="10" d="
			M-42.1,198.2c0,0-4.4,1.8-4.1,2.2c0.3,0.4,0.9,4.4,0.9,4.4l-5-4.1c0,0-4.4,8.7-2.1,9.4c2.4,0.7,5.1-2.9,7.2-1.9
			c2.1,1,6.3,1.5,6.5-0.9c0.1-2.4-3.1-2.5-3.7-4.6S-42.1,198.2-42.1,198.2z"/>
		
			<path fill="none" stroke="#D38497" stroke-width="2.0756" stroke-linecap="round" stroke-linejoin="round" stroke-miterlimit="10" d="
			M-23.9,195.9l-6.8,5.4l4.8,7.9l-0.9,4c0,0,5,2.5,6.2,2.1c1.2-0.4,1.2-2.9-0.6-6.8c-1.8-3.8-5.3-5.6-4.4-7.6
			C-24.6,198.8-23.9,195.9-23.9,195.9z"/>
		
			<path fill="none" stroke="#D38497" stroke-width="2.0756" stroke-linecap="round" stroke-linejoin="round" stroke-miterlimit="10" d="
			M28.7,264.6c0,0-3.1,1.9-1.3,4.3c1.8,2.4,3.7,2.2,3.4-0.3C30.5,266.1,28.7,264.6,28.7,264.6z"/>
		
			<path fill="none" stroke="#D38497" stroke-width="2.0756" stroke-linecap="round" stroke-linejoin="round" stroke-miterlimit="10" d="
			M74.9,245.2c-1,0.7-0.9,3.4,0.4,2.5C76.6,246.8,74.9,245.2,74.9,245.2z"/>
		
			<path fill="none" stroke="#D38497" stroke-width="2.0756" stroke-linecap="round" stroke-linejoin="round" stroke-miterlimit="10" d="
			M89,237.6c0,2.1,2.6,6,2.2,2.2C90.7,236,89,237.6,89,237.6z"/>
		
			<path fill="none" stroke="#D38497" stroke-width="2.0756" stroke-linecap="round" stroke-linejoin="round" stroke-miterlimit="10" d="
			M89.9,250.1c-0.3,2.5,0,7.6,2.4,8.1c2.3,0.4,4.1,1.5,3.1,3.1c-1,1.6-4.9,3.5-3.1,5c1.8,1.5,4.6,6,5.4,1.9
			c0.9-4.1,1.8-11.3-1.9-12.6c-3.7-1.3-3.7-4.4-4.4-6.5C90.6,247,89.9,250.1,89.9,250.1z"/>
		
			<path fill="none" stroke="#D38497" stroke-width="2.0756" stroke-linecap="round" stroke-linejoin="round" stroke-miterlimit="10" d="
			M84.3,268.6l-7.1,8.5l-3.2-1.5c0,0,1,11.5,5.9,9.4c4.8-2.1,6.3-7.2,6.6-10c0.3-2.8-0.3-3.4,0.7-4.4c1-1-0.3-3.8-1.5-3.4
			C84.6,267.7,85.2,267.3,84.3,268.6z"/>
		
			<path fill="none" stroke="#D38497" stroke-width="2.0756" stroke-linecap="round" stroke-linejoin="round" stroke-miterlimit="10" d="
			M106,280.5c0,0,3.8-3.4,6-2.2c2.2,1.2,3.2,2.9,3.2,2.9l4.1-2.2c0,0-4.4,4.6-4.3,6.2c0.1,1.6-0.9,0.4-3.2,1
			c-2.3,0.6-2.9-2.4-4.8-3.1c-1.9-0.7-4-1.3-4.1-3.4c-0.1-2.1,2.1-3.7,2.6-2.2C106.2,279,106,280.5,106,280.5z"/>
		
			<path fill="none" stroke="#D38497" stroke-width="2.0756" stroke-linecap="round" stroke-linejoin="round" stroke-miterlimit="10" d="
			M96.2,288.3c0,0-2.4,2.6-3.1,2.6s-1.5,2.4-1.5,2.4"/>
		
			<path fill="none" stroke="#D38497" stroke-width="2.0756" stroke-linecap="round" stroke-linejoin="round" stroke-miterlimit="10" d="
			M96.5,275.5c0,0-1.3,1.8-3.5,1.9c-2.2,0.1-1.8,0-3.1,2.6c-1.3,2.6-1.8,6.8-1.8,6.8l5-0.6c0,0-1.6-2.9-1.3-5.1
			c0.3-2.2-0.3-4.1-0.3-4.1"/>
	</g>
	<g>
		<g>
			<path fill="#F1F1F1" stroke="#D54361" stroke-width="3.5538" stroke-miterlimit="10" d="M-27,168.7c0-9.2-7.3-16.6-16.2-16.6
				c-9,0-16.2,7.4-16.2,16.6c0,4.7,3,12,6.6,16.6c5.5,7.2,9.7,12.3,9.7,12.3s4.4-5.5,8.7-11.2C-30.3,180.8-27,173.3-27,168.7z"/>
			
				<ellipse fill="#F1F1F1" stroke="#D54361" stroke-width="3.5538" stroke-miterlimit="10" cx="-43.2" cy="168.6" rx="8.3" ry="8.4"/>
		</g>
		<g>
			<path fill="#F1F1F1" stroke="#D54361" stroke-width="3.5538" stroke-miterlimit="10" d="M-33.8,257.4c0-9.2-7.3-16.6-16.2-16.6
				c-9,0-16.2,7.4-16.2,16.6c0,4.7,3,12,6.6,16.6c5.5,7.2,9.7,12.3,9.7,12.3s4.4-5.5,8.7-11.2C-37.1,269.5-33.8,262-33.8,257.4z"/>
			<ellipse fill="#F1F1F1" stroke="#D54361" stroke-width="3.5538" stroke-miterlimit="10" cx="-50" cy="257.3" rx="8.3" ry="8.4"/>
		</g>
		<g>
			<path fill="#F1F1F1" stroke="#D54361" stroke-width="3.0956" stroke-miterlimit="10" d="M106.3,261.4c0-8-6.3-14.4-14.1-14.4
				S78,253.5,78,261.4c0,4.1,2.6,10.5,5.7,14.5c4.8,6.2,8.4,10.7,8.4,10.7s3.8-4.8,7.6-9.8C103.4,272,106.3,265.4,106.3,261.4z"/>
			
				<ellipse fill="#F1F1F1" stroke="#D54361" stroke-width="3.0956" stroke-miterlimit="10" cx="92.2" cy="261.3" rx="7.2" ry="7.4"/>
		</g>
		<g>
			<path fill="#F1F1F1" stroke="#D54361" stroke-width="2.4476" stroke-miterlimit="10" d="M12.4,214.4c0-6.3-5-11.4-11.2-11.4
				c-6.2,0-11.2,5.1-11.2,11.4c0,3.2,2.1,8.3,4.5,11.4c3.8,4.9,6.7,8.5,6.7,8.5s3-3.8,6-7.7C10.2,222.7,12.4,217.5,12.4,214.4z"/>
			<ellipse fill="#F1F1F1" stroke="#D54361" stroke-width="2.4476" stroke-miterlimit="10" cx="1.3" cy="214.3" rx="5.7" ry="5.8"/>
		</g>
		<g>
			<path fill="#F1F1F1" stroke="#D54361" stroke-width="2.6554" stroke-miterlimit="10" d="M-61.5,216.7c0-6.8-5.4-12.4-12.1-12.4
				c-6.7,0-12.1,5.5-12.1,12.4c0,3.5,2.2,9,4.9,12.4c4.1,5.3,7.2,9.2,7.2,9.2s3.3-4.1,6.5-8.4C-63.9,225.7-61.5,220.1-61.5,216.7z"
				/>
			
				<ellipse fill="#F1F1F1" stroke="#D54361" stroke-width="2.6554" stroke-miterlimit="10" cx="-73.6" cy="216.6" rx="6.2" ry="6.3"/>
		</g>
	</g>
</g>
<g id="Guides">
</g>
</svg>
