<?xml version="1.0" encoding="utf-8"?>
<!-- Generator: Adobe Illustrator 16.0.0, SVG Export Plug-In . SVG Version: 6.00 Build 0)  -->
<!DOCTYPE svg PUBLIC "-//W3C//DTD SVG 1.1//EN" "http://www.w3.org/Graphics/SVG/1.1/DTD/svg11.dtd">
<svg version="1.1" xmlns="http://www.w3.org/2000/svg" xmlns:xlink="http://www.w3.org/1999/xlink" x="0px" y="0px"
	 width="450.045px" height="450.045px" viewBox="0 0 450.045 450.045" enable-background="new 0 0 450.045 450.045"
	 xml:space="preserve">
<g id="Notes">
</g>
<g id="Logomark_1_">
	<g id="Logomark">
		<g>
			<g>
				<g>
					<g>
						<path fill="#FFDE2F" d="M107.888,215.617c0,4.973,4.033,9.005,9.002,9.005c4.973,0,9.004-4.032,9.004-9.005
							c0-4.981-4.031-9.002-9.004-9.002C111.921,206.615,107.888,210.636,107.888,215.617z"/>
						<path fill="#FFDE2F" d="M193.915,305.999c0,4.972,4.033,9.005,9,9.005c4.973,0,9.006-4.033,9.006-9.005
							c0-4.981-4.033-9.002-9.006-9.002C197.948,296.997,193.915,301.018,193.915,305.999z"/>
						<path fill="#FFDE2F" d="M112.88,152.453c0,5.832,4.723,10.559,10.541,10.559c5.832,0,10.549-4.727,10.549-10.559
							c0-5.818-4.717-10.543-10.549-10.543C117.603,141.91,112.88,146.635,112.88,152.453z"/>
						<path fill="#FAA73F" d="M119.927,294.023c0,6.076,4.936,11.011,11.008,11.011c6.082,0,11.002-4.935,11.002-11.011
							c0-6.084-4.92-11.005-11.002-11.005C124.862,283.019,119.927,287.939,119.927,294.023z"/>
						<path fill="#FAA73F" d="M153.835,205.738c0,8.458,6.865,15.322,15.334,15.322c8.439,0,15.314-6.864,15.314-15.322
							c0-8.449-6.875-15.311-15.314-15.311C160.7,190.428,153.835,197.289,153.835,205.738z"/>
						<path fill="#FFDE2F" d="M232.501,209.803c0,6.979,5.641,12.637,12.613,12.637c6.99,0,12.637-5.657,12.637-12.637
							c0-6.973-5.646-12.621-12.637-12.621C238.142,197.182,232.501,202.83,232.501,209.803z"/>
						<path fill="#ADCDEC" d="M179.759,152.462c0,4.969,4.031,9.001,9,9.001c4.971,0,9.006-4.032,9.006-9.001
							c0-4.983-4.035-9.005-9.006-9.005C183.79,143.457,179.759,147.479,179.759,152.462z"/>
						<path fill="#ADCDEC" d="M191.319,263.188c0,7.217,5.834,13.076,13.045,13.076c7.213,0,13.051-5.859,13.051-13.076
							c0-7.201-5.838-13.046-13.051-13.046C197.153,250.142,191.319,255.986,191.319,263.188z"/>
						<polygon fill="#FAA73F" points="340.024,213.205 252.653,263.649 252.653,339.527 271.093,328.879 271.093,274.294 
							340.024,234.497 408.956,274.294 408.956,353.896 340.024,393.697 310.884,376.874 292.444,387.521 340.024,414.988 
							427.394,364.541 427.394,263.649 						"/>
						<g>
							<polygon fill="#FFDE2F" points="322.847,262.158 322.847,313.041 246.14,357.324 246.14,357.324 189.095,390.262 
								55.358,313.041 55.358,255.025 55.358,158.592 85.565,141.148 85.565,101.473 21.001,138.757 21.001,255.025 21.001,332.874 
								189.095,429.93 346.97,338.783 357.202,332.874 357.202,262.158 340.024,252.238 							"/>
							<polygon fill="#FFDE2F" points="315.538,114.699 189.095,41.688 134.036,73.482 134.036,113.158 189.095,81.361 
								298.358,144.453 322.847,158.592 322.847,205.383 340.024,195.463 357.202,205.383 357.202,138.757 							"/>
						</g>
						<path fill="#ADCDEC" d="M91.411,63.59c0,5.615,4.539,10.18,10.156,10.18c5.631,0,10.182-4.564,10.182-10.18
							c0-5.619-4.551-10.166-10.182-10.166C95.95,53.424,91.411,57.971,91.411,63.59z"/>
						<path fill="#FAA73F" d="M64.333,25.852c0,3.467,2.812,6.283,6.277,6.283c3.469,0,6.279-2.816,6.279-6.283
							c0-3.473-2.811-6.278-6.279-6.278C67.146,19.573,64.333,22.379,64.333,25.852z"/>
					</g>
				</g>
			</g>
		</g>
	</g>
</g>
<g id="Lato_Black_Version">
</g>
<g id="Guides">
</g>
</svg>
