<?xml version="1.0" encoding="utf-8"?>
<!-- Generator: Adobe Illustrator 16.0.0, SVG Export Plug-In . SVG Version: 6.00 Build 0)  -->
<!DOCTYPE svg PUBLIC "-//W3C//DTD SVG 1.1//EN" "http://www.w3.org/Graphics/SVG/1.1/DTD/svg11.dtd">
<svg version="1.1" xmlns="http://www.w3.org/2000/svg" xmlns:xlink="http://www.w3.org/1999/xlink" x="0px" y="0px"
	 width="450.045px" height="450.045px" viewBox="0 0 450.045 450.045" enable-background="new 0 0 450.045 450.045"
	 xml:space="preserve">
<g id="Notes">
</g>
<g id="Logomark_1_">
	<g id="Logomark">
		<g>
			<path fill="#FFDE2F" d="M195.503,429.439L28.628,332.067l-0.376-191.045l64.303-37.171l0.368,39.027L63.19,160.345
				l-0.372,153.508l131.94,76.562l133.433-76.562l0.371-50.18l15.982-10.033l17.468,9.665v70.243L195.503,429.439z M39.992,326.723
				l155.459,89.762l155.469-89.758v-57.218l-5.88-3.396l-5.876,3.396v50.434l-143.713,82.973L51.748,319.942V153.983l29.938-17.289
				v-13.573l-41.693,24.077V326.723z"/>
			<path fill="#FFDE2F" d="M329.598,208.671v-47.229l-133.443-76.09l-54.729,31.859V77.104l54.676-31.861l167.976,97.083
				l0.378,66.345l-17.615-9.744L329.598,208.671z M346.963,185.761l5.927,3.423v-40.626L196.102,58.025L152.311,83.31v13.686
				l43.791-25.287l144.934,83.691v33.782L346.963,185.761z"/>
			<g>
				<g>
					<path fill="#FFDE2F" d="M121.942,217.37c1.725,0,3.128,1.404,3.128,3.128c0,1.727-1.403,3.13-3.128,3.13
						s-3.128-1.403-3.128-3.13C118.814,218.774,120.218,217.37,121.942,217.37 M121.942,211.288c-5.09,0-9.21,4.11-9.21,9.21
						c0,5.088,4.12,9.212,9.21,9.212c5.087,0,9.21-4.124,9.21-9.212C131.152,215.398,127.029,211.288,121.942,211.288
						L121.942,211.288z"/>
					<path fill="#FFDE2F" d="M209.955,309.842c1.725,0,3.129,1.401,3.129,3.124c0,1.727-1.404,3.132-3.129,3.132
						c-1.724,0-3.127-1.405-3.127-3.132C206.828,311.243,208.231,309.842,209.955,309.842 M209.955,303.76
						c-5.084,0-9.209,4.109-9.209,9.206c0,5.088,4.125,9.214,9.209,9.214c5.086,0,9.21-4.126,9.21-9.214
						C219.165,307.869,215.041,303.76,209.955,303.76L209.955,303.76z"/>
					<path fill="#FFDE2F" d="M128.625,151.17c2.597,0,4.709,2.11,4.709,4.704c0,2.605-2.112,4.726-4.709,4.726
						c-2.594,0-4.703-2.12-4.703-4.726C123.922,153.28,126.031,151.17,128.625,151.17 M128.625,145.089
						c-5.956,0-10.785,4.828-10.785,10.785c0,5.963,4.829,10.808,10.785,10.808c5.961,0,10.791-4.845,10.791-10.808
						C139.416,149.917,134.586,145.089,128.625,145.089L128.625,145.089z"/>
					<path fill="#FAA73F" d="M136.308,295.536c2.853,0,5.175,2.324,5.175,5.183c0,2.855-2.322,5.179-5.175,5.179
						c-2.854,0-5.179-2.323-5.179-5.179C131.129,297.86,133.453,295.536,136.308,295.536 M136.308,289.454
						c-6.212,0-11.261,5.036-11.261,11.265c0,6.22,5.049,11.261,11.261,11.261c6.22,0,11.257-5.041,11.257-11.261
						C147.564,294.49,142.527,289.454,136.308,289.454L136.308,289.454z"/>
					<path fill="#FAA73F" d="M175.428,200.808c5.285,0,9.582,4.3,9.582,9.584c0,5.292-4.297,9.596-9.582,9.596
						c-5.297,0-9.607-4.304-9.607-9.596C165.82,205.107,170.131,200.808,175.428,200.808 M175.428,194.726
						c-8.665,0-15.689,7.016-15.689,15.666c0,8.653,7.024,15.678,15.689,15.678c8.637,0,15.664-7.024,15.664-15.678
						C191.092,201.741,184.064,194.726,175.428,194.726L175.428,194.726z"/>
					<path fill="#FFDE2F" d="M253.125,207.717c3.777,0,6.852,3.063,6.852,6.826c0,3.779-3.074,6.854-6.852,6.854
						c-3.762,0-6.82-3.074-6.82-6.854C246.305,210.78,249.363,207.717,253.125,207.717 M253.125,201.635
						c-7.131,0-12.902,5.777-12.902,12.908c0,7.147,5.771,12.937,12.902,12.937c7.154,0,12.934-5.789,12.934-12.937
						C266.059,207.412,260.279,201.635,253.125,201.635L253.125,201.635z"/>
					<path fill="#ADCDEC" d="M195.47,152.746c1.729,0,3.134,1.407,3.134,3.14c0,1.721-1.405,3.121-3.134,3.121
						c-1.725,0-3.128-1.4-3.128-3.121C192.342,154.153,193.745,152.746,195.47,152.746 M195.47,146.664
						c-5.08,0-9.21,4.122-9.21,9.222c0,5.076,4.13,9.202,9.21,9.202c5.086,0,9.216-4.126,9.216-9.202
						C204.686,150.786,200.556,146.664,195.47,146.664L195.47,146.664z"/>
					<path fill="#ADCDEC" d="M211.432,261.899c4.01,0,7.271,3.259,7.271,7.266c0,4.023-3.261,7.297-7.271,7.297
						c-4.006,0-7.266-3.273-7.266-7.297C204.166,265.158,207.426,261.899,211.432,261.899 M211.432,255.817
						c-7.367,0-13.347,5.98-13.347,13.348c0,7.383,5.979,13.379,13.347,13.379c7.385,0,13.353-5.996,13.353-13.379
						C224.784,261.798,218.816,255.817,211.432,255.817L211.432,255.817z"/>
					<path fill="#ADCDEC" d="M106.265,58.609c3.509,0,6.36,2.847,6.36,6.347c0,3.507-2.852,6.359-6.36,6.359
						c-3.494,0-6.337-2.853-6.337-6.359C99.928,61.456,102.771,58.609,106.265,58.609 M106.265,54.556
						c-5.747,0-10.392,4.652-10.392,10.4c0,5.747,4.645,10.414,10.392,10.414c5.761,0,10.415-4.667,10.415-10.414
						C116.68,59.208,112.025,54.556,106.265,54.556L106.265,54.556z"/>
					<path fill="#FAA73F" d="M74.594,23.979c1.305,0,2.366,1.062,2.366,2.363c0,1.311-1.062,2.378-2.366,2.378
						c-1.307,0-2.367-1.067-2.367-2.378C72.227,25.041,73.287,23.979,74.594,23.979 M74.594,19.926
						c-3.547,0-6.422,2.872-6.422,6.417c0,3.553,2.875,6.434,6.422,6.434c3.549,0,6.42-2.881,6.42-6.434
						C81.014,22.798,78.143,19.926,74.594,19.926L74.594,19.926z"/>
				</g>
				<g>
					<polygon fill="#FAA73F" points="344.996,214.042 256.221,265.301 256.221,342.401 274.955,331.58 274.955,276.114 
						344.996,235.677 415.035,276.114 415.035,356.995 344.996,397.441 315.387,380.345 296.65,391.165 344.996,419.076 
						433.771,367.813 433.771,265.301 					"/>
				</g>
			</g>
		</g>
	</g>
</g>
<g id="Lato_Black_Version">
</g>
<g id="Guides">
</g>
</svg>
