<?xml version="1.0" encoding="UTF-8" standalone="no"?>
<svg width="20px" height="31px" viewBox="0 0 20 31" version="1.1" xmlns="http://www.w3.org/2000/svg" xmlns:xlink="http://www.w3.org/1999/xlink">
    <!-- Generator: Sketch 3.7.1 (28215) - http://www.bohemiancoding.com/sketch -->
    <title>icon-approve</title>
    <desc>Created with Sketch.</desc>
    <defs></defs>
    <g id="Page-1" stroke="none" stroke-width="1" fill="none" fill-rule="evenodd">
        <g id="icon-approve" transform="translate(-1.000000, 0.000000)" fill="#335B98">
            <path d="M17.16,18.6 C20.4271486,15.9563199 21.6737975,11.5407362 20.2716172,7.57876758 C18.8694369,3.61679901 15.1227734,0.968398351 10.92,0.968398351 C6.71722657,0.968398351 2.97056307,3.61679901 1.5683828,7.57876758 C0.166202538,11.5407362 1.41285136,15.9563199 4.68,18.6 L2.19,25.34 C2.12497137,25.5140216 2.16178671,25.7097505 2.285599,25.8482524 C2.40941129,25.9867543 2.59980597,26.0451926 2.78,26 L5.93,25.25 L7.84,27.87 C7.93230514,27.99968 8.08084076,28.0776612 8.24,28.08 L8.31,28.08 C8.4919972,28.0549206 8.64558171,27.932053 8.71,27.76 L10.92,21.76 L14.17,30.55 C14.2344183,30.722053 14.3880028,30.8449206 14.57,30.87 L14.64,30.87 C14.7991592,30.8676612 14.9476949,30.78968 15.04,30.66 L16.95,28.04 L20.1,28.79 C20.2784196,28.831645 20.4654673,28.7743855 20.59,28.64 C20.7087455,28.502126 20.7432153,28.310627 20.68,28.14 L17.16,18.6 Z M2,10.91 C2,5.98914288 5.98914288,2 10.91,2 C15.8308571,2 19.82,5.98914288 19.82,10.91 C19.82,15.8308571 15.8308571,19.82 10.91,19.82 C5.99142742,19.814489 2.00551101,15.8285726 2,10.91 L2,10.91 Z M8.1,26.52 L6.54,24.39 C6.41765106,24.2196969 6.20203341,24.1438314 6,24.2 L3.43,24.81 L5.5,19.21 C6.90436682,20.1236883 8.51858462,20.6640555 10.19,20.78 L8.1,26.52 Z M16.86,27 C16.6642205,26.9528367 16.459255,27.0277279 16.34,27.19 L14.79,29.32 L11.64,20.78 C13.3123214,20.661053 14.9266069,20.1172212 16.33,19.2 L19.43,27.61 L16.86,27 Z" id="Shape"></path>
            <path d="M16.06,7.26 C15.9661167,7.16534367 15.8383188,7.11210084 15.705,7.11210084 C15.5716812,7.11210084 15.4438833,7.16534367 15.35,7.26 L9.46,13.15 L6.46,10.15 C6.26393891,9.95393892 5.94606109,9.95393892 5.75000001,10.15 C5.55393892,10.3460611 5.55393892,10.6639389 5.75,10.86 L9.08,14.19 C9.1738833,14.2846563 9.30168123,14.3378992 9.435,14.3378992 C9.56831877,14.3378992 9.6961167,14.2846563 9.79,14.19 L16.06,8 C16.1642571,7.90523776 16.2236966,7.770888 16.2236966,7.63 C16.2236966,7.489112 16.1642571,7.35476224 16.06,7.26 L16.06,7.26 Z" id="Shape"></path>
        </g>
    </g>
</svg>