<?xml version="1.0" encoding="UTF-8" standalone="no"?>
<svg width="19px" height="24px" viewBox="0 0 19 24" version="1.1" xmlns="http://www.w3.org/2000/svg" xmlns:xlink="http://www.w3.org/1999/xlink">
    <!-- Generator: Sketch 3.7.1 (28215) - http://www.bohemiancoding.com/sketch -->
    <title>Group</title>
    <desc>Created with Sketch.</desc>
    <defs></defs>
    <g id="Page-1" stroke="none" stroke-width="1" fill="none" fill-rule="evenodd">
        <g id="Group" fill="#335B98">
            <path d="M18.5,0 L0.5,0 C0.223857625,-1.69088438e-17 3.38176876e-17,0.223857625 0,0.5 L0,23.26 C3.38176876e-17,23.5361424 0.223857625,23.76 0.5,23.76 L18.5,23.76 C18.7761424,23.76 19,23.5361424 19,23.26 L19,0.5 C19,0.223857625 18.7761424,1.69088438e-17 18.5,0 L18.5,0 Z M1,1 L3.13,1 L3.13,22.76 L1,22.76 L1,1 L1,1 Z M18,22.76 L4.13,22.76 L4.13,1 L18,1 L18,22.76 L18,22.76 Z" id="Shape"></path>
            <path d="M6.37,6.14 L15.76,6.14 C16.0361424,6.14 16.26,5.91614237 16.26,5.64 C16.26,5.36385763 16.0361424,5.14 15.76,5.14 L6.37,5.14 C6.09385763,5.14 5.87,5.36385763 5.87,5.64 C5.87,5.91614237 6.09385763,6.14 6.37,6.14 L6.37,6.14 Z M15.76,7.34 L6.37,7.34 C6.09385763,7.34 5.87,7.56385763 5.87,7.84 C5.87,8.11614237 6.09385763,8.34 6.37,8.34 L15.76,8.34 C16.0361424,8.34 16.26,8.11614237 16.26,7.84 C16.26,7.56385763 16.0361424,7.34 15.76,7.34 L15.76,7.34 Z" id="Shape"></path>
        </g>
    </g>
</svg>