<?xml version="1.0" encoding="UTF-8" standalone="no"?>
<svg width="29px" height="29px" viewBox="0 0 29 29" version="1.1" xmlns="http://www.w3.org/2000/svg" xmlns:xlink="http://www.w3.org/1999/xlink">
    <!-- Generator: Sketch 3.7.1 (28215) - http://www.bohemiancoding.com/sketch -->
    <title>Slice 1</title>
    <desc>Created with Sketch.</desc>
    <defs></defs>
    <g id="Page-1" stroke="none" stroke-width="1" fill="none" fill-rule="evenodd">
        <g id="icon-events" fill="#335B98">
            <path d="M28,1.54 C28.0016688,1.5166965 28.0016688,1.4933035 28,1.47 C28.0041287,1.43344956 28.0041287,1.39655044 28,1.36 C27.9790475,1.30509984 27.9485813,1.2543229 27.91,1.21 C27.8816776,1.17200648 27.8479935,1.13832241 27.81,1.11 C27.7585056,1.06094954 27.6971401,1.02344837 27.63,1 L27.46,1 C27.4037488,0.990296042 27.3462512,0.990296042 27.29,1 L0.29,13.63 C0.117504835,13.7135432 0.00794494718,13.8883387 0.00794494718,14.08 C0.00794494718,14.2716613 0.117504835,14.4464568 0.29,14.53 L9.72,19.25 L14.44,28.68 C14.5241267,28.8516955 14.6988024,28.9603826 14.89,28.96 C15.0834752,28.9585417 15.2587436,28.8455909 15.34,28.67 L28,1.71 C28.009704,1.65374878 28.009704,1.59625122 28,1.54 L28,1.54 Z M25.13,3.16 L10.13,18.16 L9.93,18.36 L1.65,14.14 L25.13,3.16 Z M14.86,27.35 L10.69,19 L10.89,18.8 L25.89,3.8 L14.86,27.35 Z" id="Shape"></path>
        </g>
    </g>
</svg>