<?xml version="1.0" encoding="UTF-8" standalone="no"?>
<svg width="28px" height="28px" viewBox="0 0 28 28" version="1.1" xmlns="http://www.w3.org/2000/svg" xmlns:xlink="http://www.w3.org/1999/xlink">
    <!-- Generator: Sketch 3.7.1 (28215) - http://www.bohemiancoding.com/sketch -->
    <title>icon-institution</title>
    <desc>Created with Sketch.</desc>
    <defs></defs>
    <g id="Page-1" stroke="none" stroke-width="1" fill="none" fill-rule="evenodd">
        <g id="icon-institution" fill="#335B98">
            <path d="M27.5,15 L21.24,15 L21.24,10.14 L22,10.14 C22.2761424,10.1979899 22.5470101,10.0211424 22.605,9.745 C22.6629899,9.46885763 22.4861424,9.19798991 22.21,9.14 L14.5,5.7 L14.5,0.5 C14.5,0.223857625 14.2761424,1.69088438e-17 14,0 C13.8439744,0.00389406976 13.6991367,0.081883591 13.61,0.21 L10.66,0.21 C10.3838576,0.21 10.16,0.433857625 10.16,0.71 L10.16,3.26 C10.16,3.53614237 10.3838576,3.76 10.66,3.76 L13.5,3.76 L13.5,5.7 L5.84,9.18 C5.56385764,9.23798991 5.38701012,9.50885763 5.44500002,9.785 C5.50298992,10.0611424 5.77385763,10.2379899 6.05,10.18 L6.76,10.18 L6.76,15 L0.5,15 C0.223857625,15 3.38176876e-17,15.2238576 0,15.5 L0,26.63 C3.38176876e-17,26.9061424 0.223857625,27.13 0.5,27.13 L27.5,27.13 C27.7761424,27.13 28,26.9061424 28,26.63 L28,15.46 C27.9791015,15.199589 27.7612469,14.9991628 27.5,15 L27.5,15 Z M11.16,2.76 L11.16,1.21 L13.5,1.21 L13.5,2.76 L11.16,2.76 L11.16,2.76 Z M12,26.13 L12,20.43 L16,20.43 L16,26.13 L12,26.13 L12,26.13 Z M27,26.13 L17,26.13 L17,19.93 C17,19.6538576 16.7761424,19.43 16.5,19.43 L11.5,19.43 C11.2238576,19.43 11,19.6538576 11,19.93 L11,26.13 L1,26.13 L1,16 L7.26,16 C7.53614237,16 7.76,15.7761424 7.76,15.5 L7.76,9.64 C7.77486574,9.57078925 7.77486574,9.49921075 7.76,9.43 L14,6.57 L20.29,9.43 C20.2751343,9.49921075 20.2751343,9.57078925 20.29,9.64 L20.29,15.47 C20.29,15.7461424 20.5138576,15.97 20.79,15.97 L27,15.97 L27,26.13 L27,26.13 Z" id="Shape"></path>
        </g>
    </g>
</svg>