<?xml version="1.0" encoding="UTF-8" standalone="no"?>
<svg width="27px" height="27px" viewBox="0 0 27 27" version="1.1" xmlns="http://www.w3.org/2000/svg" xmlns:xlink="http://www.w3.org/1999/xlink">
    <!-- Generator: Sketch 3.7.1 (28215) - http://www.bohemiancoding.com/sketch -->
    <title>Shape</title>
    <desc>Created with Sketch.</desc>
    <defs></defs>
    <g id="Page-1" stroke="none" stroke-width="1" fill="none" fill-rule="evenodd">
        <g id="icon-share" transform="translate(-1.000000, -1.000000)" fill="#335B98">
            <path d="M21.66,11.68 C24.1158681,11.6929822 26.2663839,10.0352482 26.8789337,7.65696326 C27.4914836,5.27867832 26.4093426,2.78834284 24.2527626,1.61334522 C22.0961826,0.438347602 19.4169394,0.879318995 17.7506978,2.68350733 C16.0844561,4.48769566 15.8575354,7.19348705 17.2,9.25 L8.6,14.72 C7.18961558,13.4086667 5.1043014,13.1324043 3.40111232,14.0312514 C1.69792324,14.9300986 0.749215806,16.8075464 1.03589396,18.7119084 C1.32257212,20.6162705 2.78196139,22.1312091 4.67429097,22.4887954 C6.56662056,22.8463816 8.47818342,21.9684388 9.44,20.3 L16.74,23.22 L16.74,23.28 C16.6933512,25.2726112 18.1942054,26.9626546 20.1783686,27.1517897 C22.1625318,27.3409249 23.9556537,25.9648711 24.2863052,23.9993317 C24.6169567,22.0337923 23.3727604,20.1467878 21.435925,19.6763157 C19.4990895,19.2058436 17.5278799,20.3118015 16.92,22.21 L9.84,19.38 C10.2819784,18.0634127 10.0702909,16.6150249 9.27,15.48 L17.82,10 C18.8154812,11.0628613 20.2037851,11.6702443 21.66,11.68 L21.66,11.68 Z M20.45,20.55 C21.9577374,20.55 23.18,21.7722626 23.18,23.28 C23.18,24.7877374 21.9577374,26.01 20.45,26.01 C18.9422626,26.01 17.72,24.7877374 17.72,23.28 C17.72,21.7722626 18.9422626,20.55 20.45,20.55 L20.45,20.55 Z M8.83,19.28 C8.72695416,19.3668269 8.66824087,19.4952622 8.67,19.63 C7.80216839,21.2778204 5.78057424,21.9357652 4.10911807,21.1143773 C2.43766191,20.2929895 1.72341289,18.2905953 2.49771382,16.596812 C3.27201474,14.9030288 5.25364122,14.1330348 6.96842541,14.8596425 C8.68320961,15.5862503 9.5083457,17.5455575 8.83,19.28 L8.83,19.28 Z M21.66,2 C24.0569158,2 26,3.94308419 26,6.34 C26,8.73691581 24.0569158,10.68 21.66,10.68 C19.2630842,10.68 17.32,8.73691581 17.32,6.34 C17.32,3.94308419 19.2630842,2 21.66,2 L21.66,2 Z" id="Shape"></path>
        </g>
    </g>
</svg>