<?xml version="1.0" encoding="UTF-8" standalone="no"?>
<svg width="35px" height="35px" viewBox="0 0 35 35" version="1.1" xmlns="http://www.w3.org/2000/svg" xmlns:xlink="http://www.w3.org/1999/xlink">
    <!-- Generator: Sketch 3.7.1 (28215) - http://www.bohemiancoding.com/sketch -->
    <title>tab-icon-info-inactive</title>
    <desc>Created with Sketch.</desc>
    <defs>
        <path d="M35,18.030303 C35,27.1649485 27.164708,35 16.969697,35 C7.83421804,35 0,27.1649485 0,18.030303 C0,7.83505155 7.83421804,0 16.969697,0 C27.164708,0 35,7.83505155 35,18.030303 L35,18.030303 Z" id="path-1"></path>
        <mask id="mask-2" maskContentUnits="userSpaceOnUse" maskUnits="objectBoundingBox" x="0" y="0" width="35" height="35" fill="white">
            <use xlink:href="#path-1"></use>
        </mask>
    </defs>
    <g id="Page-1" stroke="none" stroke-width="1" fill="none" fill-rule="evenodd">
        <g id="tab-icon-info-inactive">
            <g id="Group-2">
                <use id="Stroke-1" stroke="#FFFFFF" mask="url(#mask-2)" stroke-width="4" xlink:href="#path-1"></use>
                <path d="M15.9090909,25.4545455 L19.0909091,25.4545455 L19.0909091,14.8484848 L15.9090909,14.8484848 L15.9090909,25.4545455 Z M19.0909091,11.1466485 C19.0909091,12.0289833 18.4384957,12.7272727 17.4900992,12.7272727 C16.5615043,12.7272727 15.9090909,12.0289833 15.9090909,11.1466485 C15.9090909,10.243744 16.5615043,9.54545455 17.4900992,9.54545455 C18.4384957,9.54545455 19.0909091,10.243744 19.0909091,11.1466485 L19.0909091,11.1466485 Z" id="Fill-3" fill="#FFFFFF"></path>
            </g>
        </g>
    </g>
</svg>