<?xml version="1.0" encoding="UTF-8" standalone="no"?>
<svg width="77px" height="61px" viewBox="0 0 77 61" version="1.1" xmlns="http://www.w3.org/2000/svg" xmlns:xlink="http://www.w3.org/1999/xlink" xmlns:sketch="http://www.bohemiancoding.com/sketch/ns">
    <!-- Generator: Sketch 3.4.4 (17249) - http://www.bohemiancoding.com/sketch -->
    <title>icon-home-hello</title>
    <desc>Created with Sketch.</desc>
    <defs>
        <path id="path-1" d="M0,0 L76.596,0 L76.596,61 L0,61 L0,0 Z"></path>
        <path id="path-3" d="M0,0 L76.596,0 L76.596,61 L0,61 L0,0 Z"></path>
    </defs>
    <g id="Page-1" stroke="none" stroke-width="1" fill="none" fill-rule="evenodd" sketch:type="MSPage">
        <g id="icon-home-hello" sketch:type="MSLayerGroup">
            <g id="Group-3">
                <mask id="mask-2" sketch:name="Clip 2" fill="white">
                    <use xlink:href="#path-1"></use>
                </mask>
                <g id="Clip-2"></g>
                <path d="M75.5958,31.4897 C75.5958,33.3957 74.0448,34.9467 72.1398,34.9467 L69.5018,34.9467 C69.2258,34.9467 69.0018,35.1697 69.0018,35.4467 L69.0018,45.4477 L58.6468,35.0927 C58.5528,34.9987 58.4258,34.9467 58.2928,34.9467 L51.5398,34.9467 L51.5398,23.9057 C51.5398,21.4487 49.5408,19.4497 47.0838,19.4497 L26.4848,19.4497 L26.4848,4.4557 C26.4848,2.5507 28.0348,0.9997 29.9408,0.9997 L72.1398,0.9997 C74.0448,0.9997 75.5958,2.5507 75.5958,4.4557 L75.5958,31.4897 Z M50.5398,34.9467 L29.9408,34.9467 C28.0348,34.9467 26.4848,33.3957 26.4848,31.4897 L26.4848,20.4497 L47.0838,20.4497 C48.9898,20.4497 50.5398,21.9997 50.5398,23.9057 L50.5398,34.9467 Z M50.5398,45.3347 C50.5398,47.2407 48.9898,48.7907 47.0838,48.7907 L18.3028,48.7907 C18.1698,48.7907 18.0428,48.8437 17.9488,48.9377 L7.5938,59.2927 L7.5938,49.2907 C7.5938,49.0147 7.3698,48.7907 7.0938,48.7907 L4.4558,48.7907 C2.5508,48.7907 0.9998,47.2407 0.9998,45.3347 L0.9998,23.9057 C0.9998,21.9997 2.5508,20.4497 4.4558,20.4497 L25.4848,20.4497 L25.4848,31.4897 C25.4848,33.9477 27.4838,35.9467 29.9408,35.9467 L50.5398,35.9467 L50.5398,45.3347 Z M72.1398,-0.0003 L29.9408,-0.0003 C27.4838,-0.0003 25.4848,1.9987 25.4848,4.4557 L25.4848,19.4497 L4.4558,19.4497 C1.9988,19.4497 -0.0002,21.4487 -0.0002,23.9057 L-0.0002,45.3347 C-0.0002,47.7917 1.9988,49.7907 4.4558,49.7907 L6.5938,49.7907 L6.5938,60.4997 C6.5938,60.7017 6.7158,60.8847 6.9028,60.9617 C6.9638,60.9877 7.0298,60.9997 7.0938,60.9997 C7.2238,60.9997 7.3518,60.9487 7.4478,60.8537 L18.5098,49.7907 L47.0838,49.7907 C49.5408,49.7907 51.5398,47.7917 51.5398,45.3347 L51.5398,35.9467 L58.0858,35.9467 L69.1488,47.0087 C69.2438,47.1047 69.3718,47.1557 69.5018,47.1557 C69.5668,47.1557 69.6318,47.1427 69.6938,47.1167 C69.8798,47.0397 70.0018,46.8577 70.0018,46.6557 L70.0018,35.9467 L72.1398,35.9467 C74.5968,35.9467 76.5958,33.9477 76.5958,31.4897 L76.5958,4.4557 C76.5958,1.9987 74.5968,-0.0003 72.1398,-0.0003 L72.1398,-0.0003 Z" id="Fill-1" fill="#72C0E3" sketch:type="MSShapeGroup" mask="url(#mask-2)"></path>
            </g>
            <path d="M19.9795,25.9248 L6.4165,25.9248 C6.1405,25.9248 5.9165,26.1488 5.9165,26.4248 C5.9165,26.7008 6.1405,26.9248 6.4165,26.9248 L19.9795,26.9248 C20.2555,26.9248 20.4795,26.7008 20.4795,26.4248 C20.4795,26.1488 20.2555,25.9248 19.9795,25.9248" id="Fill-4" fill="#72C0E3" sketch:type="MSShapeGroup"></path>
            <path d="M19.9795,30.8564 L6.4165,30.8564 C6.1405,30.8564 5.9165,31.0804 5.9165,31.3564 C5.9165,31.6324 6.1405,31.8564 6.4165,31.8564 L19.9795,31.8564 C20.2555,31.8564 20.4795,31.6324 20.4795,31.3564 C20.4795,31.0804 20.2555,30.8564 19.9795,30.8564" id="Fill-6" fill="#72C0E3" sketch:type="MSShapeGroup"></path>
            <path d="M68.6719,17.3164 L55.1089,17.3164 C54.8319,17.3164 54.6089,17.5404 54.6089,17.8164 C54.6089,18.0924 54.8319,18.3164 55.1089,18.3164 L68.6719,18.3164 C68.9479,18.3164 69.1719,18.0924 69.1719,17.8164 C69.1719,17.5404 68.9479,17.3164 68.6719,17.3164" id="Fill-8" fill="#72C0E3" sketch:type="MSShapeGroup"></path>
            <path d="M68.6719,22.2485 L55.1089,22.2485 C54.8319,22.2485 54.6089,22.4725 54.6089,22.7485 C54.6089,23.0245 54.8319,23.2485 55.1089,23.2485 L68.6719,23.2485 C68.9479,23.2485 69.1719,23.0245 69.1719,22.7485 C69.1719,22.4725 68.9479,22.2485 68.6719,22.2485" id="Fill-10" fill="#72C0E3" sketch:type="MSShapeGroup"></path>
            <mask id="mask-4" sketch:name="Clip 13" fill="white">
                <use xlink:href="#path-3"></use>
            </mask>
            <g id="Clip-13"></g>
            <path d="M67.671,11.885 L33.914,11.885 L33.914,8.953 L67.671,8.953 L67.671,11.885 Z M68.671,7.953 L32.914,7.953 L32.914,12.885 L68.671,12.885 L68.671,7.953 Z" id="Fill-12" fill="#72C0E3" sketch:type="MSShapeGroup" mask="url(#mask-4)"></path>
            <path d="M43.6799,26.4702 C43.1159,26.4702 42.6589,26.9272 42.6589,27.4912 C42.6589,28.0542 43.1159,28.5112 43.6799,28.5112 C44.2439,28.5112 44.6999,28.0542 44.6999,27.4912 C44.6999,26.9272 44.2439,26.4702 43.6799,26.4702" id="Fill-14" fill="#72C0E3" sketch:type="MSShapeGroup" mask="url(#mask-4)"></path>
            <path d="M38.5486,26.4702 C37.9856,26.4702 37.5286,26.9272 37.5286,27.4912 C37.5286,28.0542 37.9856,28.5112 38.5486,28.5112 C39.1126,28.5112 39.5696,28.0542 39.5696,27.4912 C39.5696,26.9272 39.1126,26.4702 38.5486,26.4702" id="Fill-15" fill="#72C0E3" sketch:type="MSShapeGroup" mask="url(#mask-4)"></path>
            <path d="M33.4176,26.4702 C32.8536,26.4702 32.3966,26.9272 32.3966,27.4912 C32.3966,28.0542 32.8536,28.5112 33.4176,28.5112 C33.9816,28.5112 34.4376,28.0542 34.4376,27.4912 C34.4376,26.9272 33.9816,26.4702 33.4176,26.4702" id="Fill-16" fill="#72C0E3" sketch:type="MSShapeGroup" mask="url(#mask-4)"></path>
        </g>
    </g>
</svg>