<?xml version="1.0" encoding="utf-8"?>
<!-- Generator: Adobe Illustrator 18.1.1, SVG Export Plug-In . SVG Version: 6.00 Build 0)  -->
<!DOCTYPE svg PUBLIC "-//W3C//DTD SVG 1.1//EN" "http://www.w3.org/Graphics/SVG/1.1/DTD/svg11.dtd">
<svg version="1.1" id="Layer_1" xmlns:sketch="http://www.bohemiancoding.com/sketch/ns"
	 xmlns="http://www.w3.org/2000/svg" xmlns:xlink="http://www.w3.org/1999/xlink" x="0px" y="0px" viewBox="-211 212 78.3 77"
	 enable-background="new -211 212 78.3 77" xml:space="preserve">
<title>icon-get-help</title>
<desc>Created with Sketch.</desc>
<g id="Page-1" sketch:type="MSPage">
	<g id="About-Page" transform="translate(-712.000000, -1112.000000)" sketch:type="MSArtboardGroup">
		<g id="Group" transform="translate(336.000000, 1113.000000)" sketch:type="MSLayerGroup">
			<path id="icon-get-help" sketch:type="MSShapeGroup" fill="#FFFFFF" stroke="#BBD8EF" stroke-width="2.5" d="M210,275.3v-9.2
				c0-0.4-0.1-0.8-0.4-1.1c-0.3-0.3-0.7-0.4-1.1-0.4h-9.2c-0.4,0-0.8,0.1-1.1,0.4c-0.3,0.3-0.4,0.7-0.4,1.1v9.2
				c0,0.4,0.1,0.8,0.4,1.1c0.3,0.3,0.7,0.4,1.1,0.4h9.2c0.4,0,0.8-0.1,1.1-0.4C209.9,276.1,210,275.8,210,275.3L210,275.3z
				 M222.3,240.1c0-2.8-0.9-5.4-2.7-7.8c-1.8-2.4-4-4.3-6.6-5.6c-2.7-1.3-5.4-2-8.2-2c-7.8,0-13.7,3.4-17.8,10.2
				c-0.5,0.8-0.4,1.4,0.4,2l6.3,4.8c0.2,0.2,0.5,0.3,0.9,0.3c0.5,0,0.9-0.2,1.2-0.6c1.7-2.2,3.1-3.6,4.1-4.4
				c1.1-0.8,2.5-1.2,4.1-1.2c1.5,0,2.9,0.4,4.1,1.2c1.2,0.8,1.8,1.8,1.8,2.8c0,1.2-0.3,2.2-1,2.9c-0.6,0.7-1.7,1.5-3.3,2.2
				c-2,0.9-3.9,2.3-5.5,4.2c-1.7,1.9-2.5,3.9-2.5,6v1.7c0,0.4,0.1,0.8,0.4,1.1c0.3,0.3,0.7,0.4,1.1,0.4h9.2c0.4,0,0.8-0.1,1.1-0.4
				c0.3-0.3,0.4-0.7,0.4-1.1c0-0.6,0.3-1.4,1-2.4c0.7-1,1.6-1.8,2.6-2.4c1-0.6,1.8-1,2.4-1.4c0.5-0.3,1.3-0.9,2.2-1.7
				s1.6-1.6,2.1-2.3s0.9-1.7,1.3-2.9C222.1,242.8,222.3,241.5,222.3,240.1L222.3,240.1z M240.7,249.3c0,6.7-1.6,12.9-4.9,18.5
				c-3.3,5.6-7.8,10.1-13.4,13.4s-11.8,4.9-18.5,4.9s-12.9-1.6-18.5-4.9c-5.6-3.3-10.1-7.8-13.4-13.4c-3.3-5.6-4.9-11.8-4.9-18.5
				c0-6.7,1.6-12.9,4.9-18.5s7.8-10.1,13.4-13.4c5.6-3.3,11.8-4.9,18.5-4.9s12.9,1.6,18.5,4.9c5.6,3.3,10.1,7.8,13.4,13.4
				S240.7,242.6,240.7,249.3L240.7,249.3z"/>
		</g>
	</g>
</g>
</svg>
