<?xml version="1.0" encoding="utf-8"?>
<!-- Generator: Adobe Illustrator 18.1.1, SVG Export Plug-In . SVG Version: 6.00 Build 0)  -->
<!DOCTYPE svg PUBLIC "-//W3C//DTD SVG 1.1//EN" "http://www.w3.org/Graphics/SVG/1.1/DTD/svg11.dtd">
<svg version="1.1" id="Layer_1" xmlns:sketch="http://www.bohemiancoding.com/sketch/ns"
	 xmlns="http://www.w3.org/2000/svg" xmlns:xlink="http://www.w3.org/1999/xlink" x="0px" y="0px" viewBox="-206 218 86 66"
	 enable-background="new -206 218 86 66" xml:space="preserve">
<title>icon-twitter</title>
<desc>Created with Sketch.</desc>
<g id="Page-1" sketch:type="MSPage">
	<g id="About-Page" transform="translate(-396.000000, -1124.000000)" sketch:type="MSArtboardGroup">
		<g id="Group" transform="translate(336.000000, 1113.000000)" sketch:type="MSLayerGroup">
			<path id="icon-twitter" sketch:type="MSShapeGroup" fill="#FFFFFF" stroke="#BBD8EF" stroke-width="2.5" d="M-73.4,246.5
				c0,0.5,0,1.1,0,2c0,4.2-0.6,8.4-1.8,12.6c-1.2,4.2-3.1,8.2-5.6,12.1s-5.5,7.3-9,10.2c-3.5,3-7.6,5.3-12.5,7.1
				c-4.9,1.8-10.1,2.6-15.7,2.6c-8.8,0-16.8-2.3-24.1-7c1.1,0.1,2.4,0.2,3.8,0.2c7.3,0,13.8-2.2,19.5-6.7c-3.4-0.1-6.4-1.1-9.1-3.1
				c-2.7-2-4.5-4.6-5.5-7.7c1.1,0.2,2.1,0.2,3,0.2c1.4,0,2.8-0.2,4.1-0.5c-3.6-0.7-6.6-2.5-9-5.4c-2.4-2.9-3.6-6.2-3.6-10v-0.2
				c2.2,1.2,4.6,1.9,7.1,2c-2.1-1.4-3.8-3.3-5.1-5.6c-1.3-2.3-1.9-4.8-1.9-7.5c0-2.8,0.7-5.5,2.1-7.9c3.9,4.8,8.7,8.7,14.3,11.6
				c4.6,2.4,9.4,3.9,14.5,4.5c1.2,0.1,2.3,0.3,3.5,0.3c-0.3-1.2-0.4-2.4-0.4-3.6c0-4.3,1.5-8,4.6-11.1s6.8-4.6,11.1-4.6
				c4.5,0,8.4,1.7,11.5,5c3.5-0.7,6.8-1.9,10-3.8c-1.2,3.7-4,7.1-4,7.1s3.1,0.4,6.1-0.9C-67.7,241.6-70.3,244.3-73.4,246.5z"/>
		</g>
	</g>
</g>
</svg>
