<?xml version="1.0" encoding="UTF-8" standalone="no"?>
<svg width="38px" height="55px" viewBox="0 0 38 55" version="1.1" xmlns="http://www.w3.org/2000/svg" xmlns:xlink="http://www.w3.org/1999/xlink" xmlns:sketch="http://www.bohemiancoding.com/sketch/ns">
    <!-- Generator: Sketch 3.4.4 (17249) - http://www.bohemiancoding.com/sketch -->
    <title>icon-home-help</title>
    <desc>Created with Sketch.</desc>
    <defs>
        <path id="path-1" d="M0,0 L37.908,0 L37.908,55 L0,55 L0,0 Z"></path>
    </defs>
    <g id="Page-1" stroke="none" stroke-width="1" fill="none" fill-rule="evenodd" sketch:type="MSPage">
        <g id="icon-home-help" sketch:type="MSLayerGroup">
            <mask id="mask-2" sketch:name="Clip 2" fill="white">
                <use xlink:href="#path-1"></use>
            </mask>
            <g id="Clip-2"></g>
            <path d="M18.4397,11.5049 C20.1227,11.5049 21.6447,11.9519 22.9667,12.8329 C24.3137,13.7309 25.0547,14.9089 25.0547,16.1509 C25.0547,17.5949 24.6577,18.7249 23.8727,19.5099 C23.1567,20.3469 21.8777,21.2039 20.2977,21.8949 C18.2277,22.8269 16.3177,24.2859 14.7807,26.1119 C13.1127,27.9759 12.3067,29.9009 12.3067,32.0089 L12.3067,33.7709 C12.3067,34.1199 12.3947,34.3769 12.5747,34.5569 C12.7547,34.7379 13.0127,34.8259 13.3617,34.8259 L22.8967,34.8259 C23.2457,34.8259 23.5027,34.7379 23.6837,34.5569 C23.8637,34.3769 23.9517,34.1199 23.9517,33.7709 C23.9517,32.9989 24.3307,32.0659 25.0777,30.9969 C25.8157,29.9429 26.7737,29.0589 27.9257,28.3669 C28.3857,28.0909 28.8047,27.8549 29.1847,27.6419 C29.6507,27.3799 30.0537,27.1549 30.3927,26.9289 C30.9607,26.5869 31.7857,25.9489 32.6187,25.2089 C33.4387,24.4789 34.1667,23.6829 34.7197,22.9079 C35.3287,22.0569 36.9077,19.2399 36.9077,16.4619 C36.9077,13.6829 35.9997,11.0639 34.2087,8.6769 C32.3577,6.2089 30.1157,4.3059 27.5437,3.0199 C24.7237,1.6619 22.0147,0.9999 19.2687,0.9999 C11.3347,0.9999 5.4397,4.3789 1.2477,11.3299 C0.8557,11.9579 0.9237,12.2869 1.5347,12.7449 L8.0667,17.7219 C8.2267,17.8749 8.4217,17.9309 8.6977,17.9309 C9.0567,17.9309 9.3257,17.7969 9.5407,17.5089 C11.5207,14.9479 12.9917,13.5669 13.8777,12.8579 C15.1187,11.9559 16.6467,11.5049 18.4397,11.5049 L18.4397,11.5049 Z M22.8967,35.8259 L13.3617,35.8259 C12.7437,35.8259 12.2407,35.6369 11.8677,35.2649 C11.4957,34.8919 11.3067,34.3899 11.3067,33.7709 L11.3067,32.0089 C11.3067,29.6769 12.2207,27.4729 14.0247,25.4559 C15.6487,23.5279 17.6807,21.9759 19.8927,20.9809 C21.8467,20.1269 22.7647,19.2669 23.1387,18.8309 C23.7547,18.2129 24.0547,17.3199 24.0547,16.1509 C24.0547,15.2539 23.4717,14.3709 22.4127,13.6649 C21.2577,12.8949 19.9207,12.5049 18.4397,12.5049 C16.8627,12.5049 15.5317,12.8909 14.4847,13.6529 C13.6587,14.3139 12.2517,15.6379 10.3357,18.1149 C9.9377,18.6469 9.3697,18.9309 8.6977,18.9309 C8.1477,18.9309 7.7147,18.7769 7.4117,18.4739 L0.9317,13.5429 C-0.0953,12.7719 -0.2723,11.8769 0.3957,10.8069 C4.7177,3.6379 11.0697,-9.99999993e-05 19.2687,-9.99999993e-05 C22.1687,-9.99999993e-05 25.0187,0.6939 27.9847,2.1229 C30.7037,3.4819 33.0637,5.4839 35.0087,8.0769 C36.9317,10.6409 37.9077,13.4619 37.9077,16.4619 C37.9077,19.5029 36.1947,22.5659 35.5347,23.4899 C34.9367,24.3249 34.1587,25.1779 33.2827,25.9559 C32.4067,26.7349 31.5257,27.4149 30.9267,27.7739 C30.5897,27.9989 30.1657,28.2379 29.6737,28.5139 C29.3027,28.7229 28.8907,28.9539 28.4407,29.2239 C27.4097,29.8429 26.5527,30.6319 25.8967,31.5699 C25.1157,32.6879 24.9517,33.3839 24.9517,33.7709 C24.9517,34.3899 24.7627,34.8919 24.3907,35.2639 C24.0177,35.6369 23.5147,35.8259 22.8967,35.8259 L22.8967,35.8259 Z M13.5687,42.3549 C13.2197,42.3549 12.9627,42.4429 12.7827,42.6229 C12.6017,42.8039 12.5137,43.0609 12.5137,43.4099 L12.5137,52.9449 C12.5137,53.2939 12.6017,53.5509 12.7827,53.7319 C12.9627,53.9119 13.2197,53.9999 13.5687,53.9999 L23.1037,53.9999 C23.4527,53.9999 23.7107,53.9119 23.8907,53.7319 C24.0727,53.5499 24.1587,53.3859 24.1587,52.9449 L24.1587,43.4099 C24.1587,43.0609 24.0707,42.8039 23.8907,42.6229 C23.7107,42.4429 23.4527,42.3549 23.1037,42.3549 L13.5687,42.3549 Z M23.1037,54.9999 L13.5687,54.9999 C12.9497,54.9999 12.4477,54.8109 12.0757,54.4389 C11.7037,54.0669 11.5137,53.5649 11.5137,52.9449 L11.5137,43.4099 C11.5137,42.7909 11.7037,42.2879 12.0757,41.9159 C12.4477,41.5439 12.9497,41.3549 13.5687,41.3549 L23.1037,41.3549 C23.7217,41.3549 24.2247,41.5439 24.5977,41.9159 C24.9697,42.2889 25.1587,42.7909 25.1587,43.4099 L25.1587,52.9449 C25.1587,53.6079 24.9967,54.0399 24.5977,54.4389 C24.2247,54.8109 23.7217,54.9999 23.1037,54.9999 L23.1037,54.9999 Z" id="Fill-1" fill="#72C0E3" sketch:type="MSShapeGroup" mask="url(#mask-2)"></path>
        </g>
    </g>
</svg>