<?xml version="1.0" encoding="UTF-8" standalone="no"?>
<svg width="55px" height="63px" viewBox="0 0 55 63" version="1.1" xmlns="http://www.w3.org/2000/svg" xmlns:xlink="http://www.w3.org/1999/xlink" xmlns:sketch="http://www.bohemiancoding.com/sketch/ns">
    <!-- Generator: Sketch 3.4.4 (17249) - http://www.bohemiancoding.com/sketch -->
    <title>icon-community-story</title>
    <desc>Created with Sketch.</desc>
    <defs>
        <path id="path-1" d="M0,0 L54.432,0 L54.432,63 L0,63 L0,0 Z"></path>
    </defs>
    <g id="Page-1" stroke="none" stroke-width="1" fill="none" fill-rule="evenodd" sketch:type="MSPage">
        <g id="icon-community-story" sketch:type="MSLayerGroup">
            <g id="Group-3">
                <mask id="mask-2" sketch:name="Clip 2" fill="white">
                    <use xlink:href="#path-1"></use>
                </mask>
                <g id="Clip-2"></g>
                <path d="M53.4316,60.0137 C53.4316,61.1087 52.5406,61.9997 51.4456,61.9997 L11.5146,61.9997 L11.5146,0.9997 L51.4456,0.9997 C52.5406,0.9997 53.4316,1.8907 53.4316,2.9857 L53.4316,60.0137 Z M2.8386,60.0137 L2.8386,52.5757 L7.1326,52.5757 C7.4096,52.5757 7.6326,52.3517 7.6326,52.0757 C7.6326,51.7987 7.4096,51.5757 7.1326,51.5757 L2.8386,51.5757 L2.8386,48.5397 L7.1326,48.5397 C7.4096,48.5397 7.6326,48.3167 7.6326,48.0397 C7.6326,47.7637 7.4096,47.5397 7.1326,47.5397 L2.8386,47.5397 L2.8386,44.5047 L7.1326,44.5047 C7.4096,44.5047 7.6326,44.2807 7.6326,44.0047 C7.6326,43.7277 7.4096,43.5047 7.1326,43.5047 L2.8386,43.5047 L2.8386,40.4697 L7.1326,40.4697 C7.4096,40.4697 7.6326,40.2457 7.6326,39.9697 C7.6326,39.6927 7.4096,39.4697 7.1326,39.4697 L2.8386,39.4697 L2.8386,23.5307 L7.1326,23.5307 C7.4096,23.5307 7.6326,23.3067 7.6326,23.0307 C7.6326,22.7537 7.4096,22.5307 7.1326,22.5307 L2.8386,22.5307 L2.8386,19.4947 L7.1326,19.4947 C7.4096,19.4947 7.6326,19.2717 7.6326,18.9947 C7.6326,18.7187 7.4096,18.4947 7.1326,18.4947 L2.8386,18.4947 L2.8386,15.4597 L7.1326,15.4597 C7.4096,15.4597 7.6326,15.2367 7.6326,14.9597 C7.6326,14.6837 7.4096,14.4597 7.1326,14.4597 L2.8386,14.4597 L2.8386,11.4247 L7.1326,11.4247 C7.4096,11.4247 7.6326,11.2007 7.6326,10.9247 C7.6326,10.6487 7.4096,10.4247 7.1326,10.4247 L2.8386,10.4247 L2.8386,2.9857 C2.8386,1.8907 3.7296,0.9997 4.8256,0.9997 L10.5146,0.9997 L10.5146,61.9997 L4.8256,61.9997 C3.7296,61.9997 2.8386,61.1087 2.8386,60.0137 L2.8386,60.0137 Z M51.4456,-0.0003 L4.8256,-0.0003 C3.1786,-0.0003 1.8386,1.3397 1.8386,2.9857 L1.8386,10.4247 L0.4996,10.4247 C0.2236,10.4247 -0.0004,10.6487 -0.0004,10.9247 C-0.0004,11.2007 0.2236,11.4247 0.4996,11.4247 L1.8386,11.4247 L1.8386,14.4597 L0.4996,14.4597 C0.2236,14.4597 -0.0004,14.6837 -0.0004,14.9597 C-0.0004,15.2367 0.2236,15.4597 0.4996,15.4597 L1.8386,15.4597 L1.8386,18.4947 L0.4996,18.4947 C0.2236,18.4947 -0.0004,18.7187 -0.0004,18.9947 C-0.0004,19.2717 0.2236,19.4947 0.4996,19.4947 L1.8386,19.4947 L1.8386,22.5307 L0.4996,22.5307 C0.2236,22.5307 -0.0004,22.7537 -0.0004,23.0307 C-0.0004,23.3067 0.2236,23.5307 0.4996,23.5307 L1.8386,23.5307 L1.8386,39.4697 L0.4996,39.4697 C0.2236,39.4697 -0.0004,39.6927 -0.0004,39.9697 C-0.0004,40.2457 0.2236,40.4697 0.4996,40.4697 L1.8386,40.4697 L1.8386,43.5047 L0.4996,43.5047 C0.2236,43.5047 -0.0004,43.7277 -0.0004,44.0047 C-0.0004,44.2807 0.2236,44.5047 0.4996,44.5047 L1.8386,44.5047 L1.8386,47.5397 L0.4996,47.5397 C0.2236,47.5397 -0.0004,47.7637 -0.0004,48.0397 C-0.0004,48.3167 0.2236,48.5397 0.4996,48.5397 L1.8386,48.5397 L1.8386,51.5757 L0.4996,51.5757 C0.2236,51.5757 -0.0004,51.7987 -0.0004,52.0757 C-0.0004,52.3517 0.2236,52.5757 0.4996,52.5757 L1.8386,52.5757 L1.8386,60.0137 C1.8386,61.6597 3.1786,62.9997 4.8256,62.9997 L51.4456,62.9997 C53.0916,62.9997 54.4316,61.6597 54.4316,60.0137 L54.4316,2.9857 C54.4316,1.3397 53.0916,-0.0003 51.4456,-0.0003 L51.4456,-0.0003 Z" id="Fill-1" fill="#7CD1C5" sketch:type="MSShapeGroup" mask="url(#mask-2)"></path>
            </g>
            <path d="M42.2695,54.1719 L39.5485,50.4219 L39.5485,47.9129 L44.9905,47.9129 L44.9905,50.4219 L42.2695,54.1719 Z M44.9905,46.9129 L39.5495,46.9129 L39.5495,14.3179 L44.9905,14.3179 L44.9905,46.9129 Z M39.5485,8.0749 L44.9895,8.0749 L44.9895,13.3179 L39.5485,13.3179 L39.5485,8.0749 Z M45.4905,7.0749 L39.0485,7.0749 C38.7725,7.0749 38.5485,7.2989 38.5485,7.5749 L38.5485,13.3179 L35.8865,13.3179 C35.6105,13.3179 35.3865,13.5419 35.3865,13.8179 L35.3865,24.7189 C35.3865,24.9959 35.6105,25.2189 35.8865,25.2189 C36.1635,25.2189 36.3865,24.9959 36.3865,24.7189 L36.3865,14.3179 L38.5485,14.3179 L38.5485,50.5849 C38.5485,50.6899 38.5815,50.7929 38.6445,50.8779 L41.7695,55.1849 L41.7695,56.2349 C41.7695,56.5119 41.9935,56.7349 42.2695,56.7349 C42.5455,56.7349 42.7695,56.5119 42.7695,56.2349 L42.7695,55.1849 L45.8945,50.8779 C45.9575,50.7929 45.9905,50.6899 45.9905,50.5849 L45.9905,7.5749 C45.9905,7.2989 45.7665,7.0749 45.4905,7.0749 L45.4905,7.0749 Z" id="Fill-4" fill="#7CD1C5" sketch:type="MSShapeGroup"></path>
        </g>
    </g>
</svg>