<?xml version="1.0" encoding="UTF-8" standalone="no"?>
<svg width="59px" height="37px" viewBox="0 0 59 37" version="1.1" xmlns="http://www.w3.org/2000/svg" xmlns:xlink="http://www.w3.org/1999/xlink" xmlns:sketch="http://www.bohemiancoding.com/sketch/ns">
    <!-- Generator: Sketch 3.4.4 (17249) - http://www.bohemiancoding.com/sketch -->
    <title>icon-community-question</title>
    <desc>Created with Sketch.</desc>
    <defs>
        <path id="path-1" d="M0,0 L59,0 L59,37 L0,37 L0,0 Z"></path>
    </defs>
    <g id="Page-1" stroke="none" stroke-width="1" fill="none" fill-rule="evenodd" sketch:type="MSPage">
        <g id="icon-community-question" sketch:type="MSLayerGroup">
            <mask id="mask-2" sketch:name="Clip 2" fill="white">
                <use xlink:href="#path-1"></use>
            </mask>
            <g id="Clip-2"></g>
            <path d="M39.8314,16.4658 L58.0004,1.4448 L58.0004,35.2628 L39.8314,16.4658 Z M19.9414,17.1048 L29.1814,24.7438 C29.2734,24.8198 29.3864,24.8588 29.5004,24.8588 C29.6134,24.8588 29.7264,24.8198 29.8184,24.7438 L39.0584,17.1048 L57.3214,35.9998 L1.6784,35.9998 L19.9414,17.1048 Z M29.5004,23.7098 L2.0304,0.9998 L56.9694,0.9998 L29.5004,23.7098 Z M1.0004,1.4448 L19.1684,16.4658 L1.0004,35.2628 L1.0004,1.4448 Z M59.0004,0.4998 C59.0004,0.2238 58.7764,-0.0002 58.5004,-0.0002 L0.5004,-0.0002 C0.2234,-0.0002 0.0004,0.2238 0.0004,0.4998 L0.0004,36.4998 L0.0004,36.5038 C0.0014,36.5578 0.0154,36.6108 0.0324,36.6618 C0.0364,36.6728 0.0354,36.6848 0.0394,36.6958 C0.0414,36.6998 0.0464,36.7038 0.0484,36.7078 C0.0734,36.7628 0.1074,36.8138 0.1504,36.8568 C0.1514,36.8568 0.1514,36.8588 0.1524,36.8598 C0.1694,36.8758 0.1914,36.8828 0.2104,36.8968 C0.2434,36.9208 0.2734,36.9468 0.3114,36.9618 C0.3724,36.9868 0.4354,36.9998 0.5004,36.9998 L58.5004,36.9998 C58.5644,36.9998 58.6284,36.9868 58.6884,36.9618 C58.7264,36.9468 58.7564,36.9208 58.7894,36.8968 C58.8084,36.8828 58.8304,36.8758 58.8474,36.8598 C58.8484,36.8588 58.8494,36.8568 58.8504,36.8568 C58.8914,36.8158 58.9234,36.7658 58.9494,36.7118 C58.9524,36.7058 58.9574,36.7018 58.9604,36.6948 C58.9644,36.6868 58.9634,36.6758 58.9664,36.6668 C58.9854,36.6138 58.9984,36.5598 58.9994,36.5038 C58.9994,36.5028 59.0004,36.5018 59.0004,36.4998 L59.0004,0.4998 Z" id="Fill-1" fill="#7CD1C5" sketch:type="MSShapeGroup" mask="url(#mask-2)"></path>
        </g>
    </g>
</svg>