<?xml version="1.0" encoding="UTF-8" standalone="no"?>
<svg width="200px" height="200px" viewBox="0 0 200 200" version="1.1" xmlns="http://www.w3.org/2000/svg" xmlns:xlink="http://www.w3.org/1999/xlink" xmlns:sketch="http://www.bohemiancoding.com/sketch/ns">
    <!-- Generator: Sketch 3.4.4 (17249) - http://www.bohemiancoding.com/sketch -->
    <title>icon-circle-community</title>
    <desc>Created with Sketch.</desc>
    <defs></defs>
    <g id="Page-1" stroke="none" stroke-width="1" fill="none" fill-rule="evenodd" sketch:type="MSPage">
        <g id="icon-circle-community" sketch:type="MSLayerGroup" fill="#9BE5DD">
            <path d="M134.8408,38.2251 C137.2088,38.2251 139.1358,40.2061 139.1358,42.6411 C139.1358,43.8821 138.1478,46.1501 136.8858,47.8061 C136.1358,48.7901 135.3778,49.7651 134.8358,50.4571 C134.2708,49.7451 133.4398,48.6911 132.4778,47.4461 C131.4298,46.0961 130.5458,43.8951 130.5458,42.6411 C130.5458,40.2061 132.4718,38.2251 134.8408,38.2251 M134.0618,52.6951 L134.8468,53.6711 L135.6248,52.6891 C135.6248,52.6891 137.0638,50.8721 138.4768,49.0181 C140.0428,46.9631 141.1358,44.3411 141.1358,42.6411 C141.1358,39.1031 138.3118,36.2251 134.8408,36.2251 C131.3698,36.2251 128.5458,39.1031 128.5458,42.6411 C128.5458,44.3501 129.5558,46.9431 130.8958,48.6711 C132.7128,51.0191 134.0618,52.6951 134.0618,52.6951" id="Fill-1" sketch:type="MSShapeGroup"></path>
            <path d="M29.2759,112.5967 L28.9429,112.0657 L27.0579,112.2727 L26.5249,110.7687 L28.1329,109.7387 L28.0629,109.1187 C27.9579,108.2007 28.0069,107.2797 28.2079,106.3837 L28.3449,105.7737 L26.8509,104.5787 L27.5389,103.1377 L29.4099,103.5477 L29.7979,103.0577 C30.3669,102.3387 31.0509,101.7217 31.8309,101.2247 L32.3559,100.8897 L32.1459,98.9917 L33.6509,98.4587 L34.6739,100.0547 L35.2969,99.9797 C36.2239,99.8677 37.1549,99.9117 38.0639,100.1117 L38.6709,100.2457 L39.8399,98.7847 L41.2819,99.4727 L40.8849,101.2827 L41.3819,101.6697 C42.1229,102.2467 42.7579,102.9487 43.2699,103.7547 L43.6039,104.2817 L45.4269,104.0797 L45.9609,105.5857 L44.4269,106.5677 L44.5049,107.1927 C44.6229,108.1467 44.5749,109.1027 44.3619,110.0347 L44.2229,110.6457 L45.6339,111.7747 L44.9459,113.2167 L43.1829,112.8297 L42.7949,113.3217 C42.2039,114.0727 41.4899,114.7107 40.6749,115.2187 L40.1399,115.5517 L40.3399,117.3627 L38.8359,117.8947 L37.8469,116.3507 L37.2269,116.4217 C36.2779,116.5317 35.3309,116.4787 34.4169,116.2657 L33.8029,116.1227 L32.6459,117.5687 L31.2039,116.8807 L31.6049,115.0517 L31.1189,114.6637 C30.3919,114.0837 29.7729,113.3887 29.2759,112.5967 L29.2759,112.5967 Z M28.9109,118.0027 L33.2159,120.0557 L34.5909,118.3387 C35.3259,118.4617 36.0729,118.5017 36.8239,118.4627 L38.0069,120.3097 L42.5029,118.7187 L42.2639,116.5617 C42.8849,116.1207 43.4509,115.6137 43.9569,115.0467 L46.0679,115.5097 L48.1239,111.2047 L46.4349,109.8537 C46.5569,109.1047 46.5949,108.3447 46.5479,107.5847 L48.3769,106.4137 L46.7829,101.9177 L44.6029,102.1587 C44.1629,101.5507 43.6609,100.9957 43.1039,100.5017 L43.5759,98.3517 L39.2699,96.2967 L37.8729,98.0417 C37.1509,97.9297 36.4219,97.8937 35.6929,97.9367 L34.4789,96.0437 L29.9839,97.6347 L30.2339,99.8937 C29.6509,100.3177 29.1169,100.7987 28.6389,101.3307 L26.4169,100.8447 L24.3619,105.1487 L26.1369,106.5687 C26.0239,107.2777 25.9849,107.9957 26.0229,108.7147 L24.1099,109.9407 L25.7019,114.4337 L27.9359,114.1877 C28.3619,114.7837 28.8479,115.3277 29.3889,115.8177 L28.9109,118.0027 Z" id="Fill-3" sketch:type="MSShapeGroup"></path>
            <path d="M34.7373,107.459 C35.0313,106.842 35.6493,106.481 36.2903,106.481 C36.5383,106.481 36.7893,106.535 37.0273,106.648 C37.8813,107.058 38.2443,108.084 37.8363,108.939 C37.6393,109.352 37.2933,109.664 36.8603,109.817 C36.4283,109.971 35.9623,109.945 35.5473,109.747 C35.1333,109.55 34.8203,109.203 34.6673,108.771 C34.5143,108.339 34.5393,107.874 34.7373,107.459 M34.6853,111.552 C35.1933,111.795 35.7373,111.917 36.2843,111.917 C36.7023,111.917 37.1223,111.846 37.5283,111.702 C38.4643,111.371 39.2153,110.695 39.6413,109.8 C40.5243,107.952 39.7373,105.728 37.8883,104.843 L37.8873,104.842 C36.0373,103.961 33.8153,104.749 32.9333,106.597 C32.5043,107.493 32.4503,108.502 32.7823,109.438 C33.1133,110.375 33.7903,111.126 34.6853,111.552" id="Fill-5" sketch:type="MSShapeGroup"></path>
            <path d="M57.4121,158.0303 C56.3671,159.1823 55.1451,160.1433 53.7811,160.8853 L53.2341,161.1843 L53.3671,164.3423 L49.9641,165.2903 L48.4551,162.5383 L47.8281,162.5713 C46.2591,162.6553 44.6951,162.4723 43.1881,162.0303 L42.5911,161.8553 L40.4901,164.1413 L37.4131,162.4053 L38.2741,159.4563 L37.8041,159.0353 C36.6141,157.9723 35.6231,156.7193 34.8601,155.3123 L34.5631,154.7633 L31.5261,154.8923 L30.5791,151.4883 L33.2241,150.0393 L33.1891,149.4103 C33.1011,147.7933 33.2921,146.1913 33.7581,144.6463 L33.9391,144.0463 L31.7291,142.0143 L33.4641,138.9383 L36.3461,139.7793 L36.7661,139.3133 C37.8461,138.1163 39.1181,137.1233 40.5481,136.3623 L41.1041,136.0663 L40.9771,133.0523 L44.3801,132.1043 L45.8411,134.7673 L46.4641,134.7383 C48.0631,134.6633 49.6471,134.8633 51.1731,135.3313 L51.7761,135.5163 L53.8541,133.2533 L56.9311,134.9893 L56.0611,137.9683 L56.5201,138.3893 C57.6781,139.4493 58.6411,140.6923 59.3841,142.0813 L59.6811,142.6353 L62.8171,142.5023 L63.7651,145.9043 L60.9931,147.4253 L61.0211,148.0473 C61.0901,149.6003 60.9001,151.1433 60.4561,152.6323 L60.2771,153.2313 L62.6151,155.3793 L60.8801,158.4563 L57.8321,157.5673 L57.4121,158.0303 Z M61.8431,160.8213 L65.1371,154.9793 L62.5411,152.5953 C62.8761,151.2843 63.0421,149.9403 63.0351,148.5863 L66.1171,146.8953 L64.3181,140.4373 L60.8381,140.5843 C60.1421,139.3983 59.3001,138.3143 58.3261,137.3483 L59.2951,134.0273 L53.4541,130.7323 L51.1471,133.2453 C49.7921,132.8883 48.3981,132.7003 47.0011,132.7243 L45.3711,129.7513 L38.9121,131.5513 L39.0541,134.9053 C37.8251,135.6243 36.7051,136.4973 35.7151,137.5113 L32.5011,136.5733 L29.2071,142.4143 L31.6721,144.6793 C31.3171,146.0523 31.1491,147.4623 31.1701,148.8843 L28.2261,150.4973 L30.0251,156.9573 L33.4131,156.8133 C34.1301,158.0193 34.9991,159.1183 36.0051,160.0933 L35.0481,163.3683 L40.8901,166.6623 L43.2311,164.1143 C44.5621,164.4483 45.9281,164.6113 47.2991,164.5893 L48.9731,167.6433 L55.4331,165.8433 L55.2851,162.3303 C56.4461,161.6373 57.5101,160.8003 58.4601,159.8333 L61.8431,160.8213 Z" id="Fill-7" sketch:type="MSShapeGroup"></path>
            <path d="M51.0737,149.9971 C50.3967,152.2091 48.0477,153.4571 45.8347,152.7821 C43.6227,152.1051 42.3737,149.7551 43.0497,147.5431 C43.6017,145.7391 45.2677,144.5751 47.0647,144.5751 C47.4697,144.5751 47.8827,144.6341 48.2887,144.7581 C50.5007,145.4351 51.7497,147.7851 51.0737,149.9971 M48.8737,142.8461 L48.8737,142.8461 C45.6067,141.8481 42.1357,143.6921 41.1377,146.9581 C40.1387,150.2251 41.9837,153.6951 45.2497,154.6941 C45.8517,154.8781 46.4597,154.9661 47.0577,154.9661 C49.7107,154.9661 52.1707,153.2471 52.9857,150.5821 C53.9857,147.3161 52.1407,143.8451 48.8737,142.8461" id="Fill-9" sketch:type="MSShapeGroup"></path>
            <path d="M100,198 C45.962,198 2,154.038 2,100 C2,45.962 45.962,2 100,2 C154.038,2 198,45.962 198,100 C198,154.038 154.038,198 100,198 M100,0 C44.86,0 0,44.86 0,100 C0,155.14 44.86,200 100,200 C155.14,200 200,155.14 200,100 C200,44.86 155.14,0 100,0" id="Fill-11" sketch:type="MSShapeGroup"></path>
            <path d="M152.3535,126.4121 L152.6735,122.9291 L152.8945,122.6521 L155.8895,125.0231 L155.6705,125.3011 L152.3535,126.4121 Z M173.8115,96.3791 L176.6615,98.6361 L157.1265,123.4511 L154.1405,121.0871 L173.8115,96.3791 Z M173.4895,93.5741 L150.7375,122.1501 L150.0815,129.2821 L156.8725,127.0081 L179.4675,98.3061 L173.4895,93.5741 Z" id="Fill-13" sketch:type="MSShapeGroup"></path>
            <path d="M80.5464,155.8076 C77.9074,158.5716 77.9154,162.9746 80.5624,165.6226 L81.9764,164.2086 C80.0914,162.3226 80.0984,159.1736 81.9924,157.1886 L80.5464,155.8076 Z" id="Fill-15" sketch:type="MSShapeGroup"></path>
            <path d="M104.4604,177.6523 L103.7644,178.3453 C103.2914,178.8183 102.6304,178.8183 102.1574,178.3453 L94.5544,170.7423 L96.7014,168.5953 L104.3044,176.1983 L104.3974,176.2803 C104.6964,176.5133 104.7494,176.8123 104.7534,176.9693 C104.7604,177.2343 104.6544,177.4833 104.4604,177.6523 L104.4604,177.6523 Z M76.6584,160.7063 C76.6584,155.0693 81.2444,150.4833 86.8814,150.4833 C92.5184,150.4833 97.1044,155.0693 97.1044,160.7063 C97.1044,166.3433 92.5184,170.9293 86.8814,170.9293 C81.2444,170.9293 76.6584,166.3433 76.6584,160.7063 L76.6584,160.7063 Z M97.5644,166.6303 C98.5424,164.8743 99.1044,162.8553 99.1044,160.7063 C99.1044,153.9663 93.6214,148.4833 86.8814,148.4833 C80.1414,148.4833 74.6584,153.9663 74.6584,160.7063 C74.6584,167.4463 80.1414,172.9293 86.8814,172.9293 C88.9164,172.9293 90.8334,172.4233 92.5224,171.5393 L100.7434,179.7593 C101.3644,180.3813 102.1634,180.6923 102.9604,180.6923 C103.7584,180.6923 104.5574,180.3813 105.1784,179.7593 L105.8054,179.1323 C106.4324,178.5693 106.7764,177.7623 106.7524,176.9113 C106.7284,176.0683 106.3374,175.2813 105.6784,174.7443 L97.5644,166.6303 Z" id="Fill-17" sketch:type="MSShapeGroup"></path>
            <path d="M137.884,165.7729 L134.379,160.2759 L140.405,156.3479 C141.982,159.6459 140.945,163.6649 137.884,165.7729 L137.884,165.7729 Z M131.099,170.1149 C129.391,171.2049 127.37,171.5609 125.409,171.1199 C123.458,170.6809 121.791,169.5079 120.713,167.8179 C118.483,164.3209 119.514,159.6619 123.011,157.4319 L128.117,154.1759 L136.205,166.8599 L131.099,170.1149 Z M139.31,154.6729 L133.303,158.5889 L129.814,153.1169 C131.004,152.4159 132.311,152.0659 133.61,152.0659 C135.752,152.0659 137.853,152.9829 139.31,154.6729 L139.31,154.6729 Z M156.332,139.9969 L154.645,141.0719 C156.977,144.7289 157.657,147.0749 157.817,148.3989 C157.975,149.7039 157.715,150.6439 157.084,151.0459 C155.187,152.2579 152.97,149.7589 150.045,146.0969 C147.213,142.5519 144.285,138.8869 141.072,140.9339 C137.903,142.9549 139.401,146.3199 140.496,148.7769 C141.036,149.9889 141.594,151.2419 141.568,152.1219 C141.558,152.6289 141.356,153.1959 141.036,153.6189 C139.69,151.9459 137.822,150.7819 135.675,150.3059 C133.183,149.7559 130.633,150.1989 128.502,151.5579 L121.936,155.7449 C117.509,158.5679 116.204,164.4659 119.027,168.8929 C120.39,171.0309 122.5,172.5149 124.969,173.0709 C125.665,173.2279 126.368,173.3049 127.065,173.3049 C128.857,173.3049 130.619,172.7939 132.174,171.8019 L138.741,167.6139 C142.879,164.9759 144.288,159.6499 142.148,155.3509 C143.029,154.5389 143.545,153.3039 143.568,152.1699 C143.606,150.8439 142.982,149.4439 142.323,147.9629 C141.037,145.0759 140.6,143.6069 142.147,142.6209 C143.724,141.6169 145.767,143.9449 148.482,147.3449 C151.349,150.9349 154.598,155.0049 158.159,152.7319 C158.921,152.2469 160.147,151.0069 159.803,148.1589 C159.534,145.9329 158.366,143.1869 156.332,139.9969 L156.332,139.9969 Z" id="Fill-19" sketch:type="MSShapeGroup"></path>
            <path d="M74.269,76.8804 C79.413,76.8804 83.597,81.0654 83.597,86.2084 C83.597,88.3844 82.782,90.5344 81.301,92.2614 L80.545,93.1444 L81.53,93.7604 C84.091,95.3604 86.02,97.8434 86.999,100.7634 C84.76,103.2034 83.247,106.2024 82.637,109.4514 C80.34,110.1864 77.447,110.5754 74.269,110.5754 C67.608,110.5754 60.865,108.6474 60.865,104.9614 C60.865,100.3164 63.163,96.0934 67.011,93.6684 L68.015,93.0344 L67.221,92.1524 C65.772,90.5434 64.941,88.3434 64.941,86.1174 C64.941,81.0244 69.126,76.8804 74.269,76.8804 M91.662,99.4274 L92.638,98.8004 L91.874,97.9264 C90.106,95.9054 89.132,93.3404 89.132,90.7034 C89.132,84.7114 94.007,79.8354 100,79.8354 C105.993,79.8354 110.868,84.7114 110.868,90.7034 C110.868,93.3404 109.894,95.9054 108.126,97.9264 L107.361,98.8004 L108.338,99.4274 C112.929,102.3724 115.67,107.3404 115.67,112.7184 C115.67,117.1974 107.547,119.2374 100,119.2374 C92.453,119.2374 84.331,117.1974 84.331,112.7184 C84.331,107.3404 87.071,102.3724 91.662,99.4274 M118.47,93.7604 L119.479,93.1284 L118.683,92.2434 C117.234,90.6334 116.403,88.4334 116.403,86.2084 C116.403,81.0654 120.587,76.8804 125.731,76.8804 C130.874,76.8804 135.059,81.0654 135.059,86.2084 C135.059,88.3844 134.243,90.5344 132.763,92.2614 L132.009,93.1404 L132.989,93.7574 C136.838,96.1844 139.136,100.3734 139.136,104.9614 C139.136,108.6474 132.392,110.5754 125.731,110.5754 C122.552,110.5754 119.661,110.1864 117.364,109.4514 C116.754,106.2024 115.24,103.2034 113.002,100.7634 C113.981,97.8424 115.909,95.3604 118.47,93.7604 M62.941,86.1174 C62.941,88.4444 63.69,90.7514 65.022,92.6054 C61.147,95.4664 58.865,100.0054 58.865,104.9614 C58.865,110.2214 66.602,112.5754 74.269,112.5754 C77.264,112.5754 80.039,112.2444 82.366,111.6154 C82.343,111.9814 82.331,112.3484 82.331,112.7184 C82.331,116.6484 86.958,121.2374 100,121.2374 C108.151,121.2374 117.67,119.0064 117.67,112.7184 C117.67,112.3484 117.657,111.9814 117.634,111.6154 C119.961,112.2444 122.736,112.5754 125.731,112.5754 C133.399,112.5754 141.136,110.2214 141.136,104.9614 C141.136,100.0534 138.848,95.5424 134.964,92.6864 C136.322,90.7654 137.059,88.5024 137.059,86.2084 C137.059,79.9624 131.977,74.8804 125.731,74.8804 C119.484,74.8804 114.403,79.9624 114.403,86.2084 C114.403,88.5334 115.151,90.8404 116.482,92.6934 C114.238,94.3464 112.485,96.6154 111.424,99.2404 C111.072,98.9394 110.711,98.6464 110.333,98.3694 C111.975,96.1384 112.868,93.4554 112.868,90.7034 C112.868,83.6084 107.096,77.8354 100,77.8354 C92.904,77.8354 87.132,83.6084 87.132,90.7034 C87.132,93.4554 88.025,96.1384 89.667,98.3704 C89.289,98.6464 88.928,98.9394 88.576,99.2404 C87.513,96.6114 85.756,94.3384 83.504,92.6844 C84.86,90.7634 85.597,88.5014 85.597,86.2084 C85.597,79.9624 80.516,74.8804 74.269,74.8804 C68.023,74.8804 62.941,79.9214 62.941,86.1174" id="Fill-21" sketch:type="MSShapeGroup"></path>
            <path d="M102.3174,60.022 C109.2514,60.416 115.9804,62.603 121.7784,66.349 L122.8634,64.669 C116.7754,60.735 109.7094,58.438 102.4304,58.025 C93.4274,57.515 84.6774,59.833 77.1334,64.733 L78.2234,66.41 C85.4064,61.744 93.7374,59.531 102.3174,60.022" id="Fill-23" sketch:type="MSShapeGroup"></path>
            <path d="M173.3677,64.7568 C173.3677,68.3038 170.7157,74.4258 167.1997,78.9978 C164.5767,82.4078 161.8927,85.8038 160.6097,87.4208 C159.3227,85.8218 156.5637,82.3768 153.2107,78.0868 C150.2607,74.3128 147.8617,68.3328 147.8617,64.7568 C147.8617,57.6218 153.5827,51.8178 160.6147,51.8178 C167.6467,51.8178 173.3677,57.6218 173.3677,64.7568 M145.8617,64.7568 C145.8617,68.7798 148.3967,75.1758 151.6347,79.3188 C156.2907,85.2748 159.8037,89.6068 159.8387,89.6498 L160.6207,90.6148 L161.3957,89.6438 C161.4327,89.5978 165.1677,84.9218 168.7847,80.2168 C172.5987,75.2578 175.3677,68.7568 175.3677,64.7568 C175.3677,56.5188 168.7497,49.8178 160.6147,49.8178 C152.4797,49.8178 145.8617,56.5188 145.8617,64.7568" id="Fill-25" sketch:type="MSShapeGroup"></path>
            <path d="M166.6172,63.8501 C166.6172,67.2121 163.9242,69.9471 160.6152,69.9471 C157.3042,69.9471 154.6122,67.2121 154.6122,63.8501 C154.6122,60.4881 157.3042,57.7531 160.6152,57.7531 C163.9242,57.7531 166.6172,60.4881 166.6172,63.8501 M152.6122,63.8501 C152.6122,68.3151 156.2022,71.9471 160.6152,71.9471 C165.0272,71.9471 168.6172,68.3151 168.6172,63.8501 C168.6172,59.3861 165.0272,55.7531 160.6152,55.7531 C156.2022,55.7531 152.6122,59.3861 152.6122,63.8501" id="Fill-27" sketch:type="MSShapeGroup"></path>
            <path d="M59.5869,179.3628 C67.8809,183.5948 76.7499,186.4808 85.9469,187.9388 L86.2609,185.9638 C77.2719,184.5378 68.6029,181.7178 60.4959,177.5818 L59.5869,179.3628 Z" id="Fill-29" sketch:type="MSShapeGroup"></path>
            <path d="M115.3701,185.689 C113.9351,185.945 112.4741,186.167 111.0281,186.35 L111.2791,188.334 C112.7581,188.147 114.2531,187.919 115.7211,187.658 C118.6891,187.129 121.6651,186.44 124.5671,185.609 L124.0161,183.687 C121.1811,184.499 118.2711,185.172 115.3701,185.689" id="Fill-31" sketch:type="MSShapeGroup"></path>
            <path d="M186.3574,110.9644 C184.5174,125.6044 178.9104,139.6384 170.1424,151.5484 L171.7534,152.7344 C180.7234,140.5494 186.4594,126.1914 188.3414,111.2134 L186.3574,110.9644 Z" id="Fill-33" sketch:type="MSShapeGroup"></path>
            <path d="M163.8013,37.8896 C155.9853,29.8616 146.8673,23.4556 136.7013,18.8506 L135.8763,20.6726 C145.8143,25.1746 154.7273,31.4356 162.3683,39.2856 L163.8013,37.8896 Z" id="Fill-35" sketch:type="MSShapeGroup"></path>
            <path d="M113.75,132.1426 L113.951,132.0306 L112.975,130.2856 L112.785,130.3916 C108.745,132.6126 104.443,133.7396 100,133.7396 C95.486,133.7396 91.122,132.5786 87.028,130.2866 L86.051,132.0316 C90.447,134.4926 95.141,135.7396 100,135.7396 C104.784,135.7396 109.41,134.5296 113.75,132.1426" id="Fill-37" sketch:type="MSShapeGroup"></path>
            <path d="M67.4424,124.1113 L65.8364,125.3023 C73.8264,136.0823 86.5984,142.5183 100.0004,142.5183 C113.4024,142.5183 126.1744,136.0823 134.1654,125.3013 L132.5584,124.1103 C124.9424,134.3843 112.7714,140.5183 100.0004,140.5183 C87.2294,140.5183 75.0584,134.3853 67.4424,124.1113" id="Fill-39" sketch:type="MSShapeGroup"></path>
            <path d="M37.1133,39.5684 C44.7403,31.6334 53.6563,25.2894 63.6153,20.7124 L62.7803,18.8944 C52.5933,23.5774 43.4723,30.0674 35.6723,38.1824 C32.0093,41.9924 28.6673,46.1504 25.7383,50.5394 L27.4013,51.6504 C30.2653,47.3584 33.5333,43.2934 37.1133,39.5684" id="Fill-41" sketch:type="MSShapeGroup"></path>
            <path d="M13.2778,90.6597 L11.2888,90.4477 C10.9538,93.5997 10.7838,96.8127 10.7838,99.9997 C10.7838,111.2547 12.8518,122.2257 16.9308,132.6077 L18.7918,131.8767 C14.8048,121.7277 12.7838,111.0037 12.7838,99.9997 C12.7838,96.8837 12.9498,93.7407 13.2778,90.6597" id="Fill-43" sketch:type="MSShapeGroup"></path>
            <path d="M107.9668,30.9116 C108.9398,30.9116 109.7318,30.1196 109.7318,29.1456 C109.7318,28.1726 108.9398,27.3806 107.9668,27.3806 C106.9928,27.3806 106.2008,28.1726 106.2008,29.1456 C106.2008,30.1196 106.9928,30.9116 107.9668,30.9116" id="Fill-45" sketch:type="MSShapeGroup"></path>
            <path d="M100,30.9116 C100.974,30.9116 101.766,30.1196 101.766,29.1456 C101.766,28.1726 100.974,27.3806 100,27.3806 C99.026,27.3806 98.234,28.1726 98.234,29.1456 C98.234,30.1196 99.026,30.9116 100,30.9116" id="Fill-47" sketch:type="MSShapeGroup"></path>
            <path d="M92.0337,30.9116 C93.0067,30.9116 93.7987,30.1196 93.7987,29.1456 C93.7987,28.1726 93.0067,27.3806 92.0337,27.3806 C91.0597,27.3806 90.2677,28.1726 90.2677,29.1456 C90.2677,30.1196 91.0597,30.9116 92.0337,30.9116" id="Fill-49" sketch:type="MSShapeGroup"></path>
            <path d="M100,12.5352 C111.222,12.5352 120.352,20.0532 120.352,29.2932 C120.352,38.5342 111.222,46.0512 100,46.0512 C97.12,46.0512 94.328,45.5602 91.703,44.5932 L91.153,44.3902 L86.915,48.0062 L86.7,41.9782 L86.317,41.6912 C82.079,38.5162 79.648,33.9982 79.648,29.2932 C79.648,20.0532 88.778,12.5352 100,12.5352 M84.735,42.9982 L85.063,52.2142 L91.566,46.6672 C94.251,47.5862 97.085,48.0512 100,48.0512 C112.325,48.0512 122.352,39.6372 122.352,29.2932 C122.352,18.9502 112.325,10.5352 100,10.5352 C87.675,10.5352 77.648,18.9502 77.648,29.2932 C77.648,34.4882 80.225,39.4582 84.735,42.9982" id="Fill-51" sketch:type="MSShapeGroup"></path>
            <path d="M68.4053,44.2588 C68.4053,46.2028 67.4153,48.0758 65.6883,49.3978 L65.3133,49.6848 L65.2503,51.4818 L64.0223,50.4108 L63.4633,50.6218 C62.3733,51.0328 61.2133,51.2408 60.0153,51.2408 C55.3883,51.2408 51.6243,48.1088 51.6243,44.2588 C51.6243,40.4088 55.3883,37.2768 60.0153,37.2768 C64.6413,37.2768 68.4053,40.4088 68.4053,44.2588 M49.6243,44.2588 C49.6243,49.2118 54.2853,53.2408 60.0153,53.2408 C61.2473,53.2408 62.4493,53.0568 63.5953,52.6928 L67.1043,55.7508 L67.2793,50.6828 C69.2723,48.9988 70.4053,46.6818 70.4053,44.2588 C70.4053,39.3058 65.7443,35.2768 60.0153,35.2768 C54.2853,35.2768 49.6243,39.3058 49.6243,44.2588" id="Fill-53" sketch:type="MSShapeGroup"></path>
            <path d="M20.519,68.4204 L29.098,68.3914 L29.1,69.2944 L29.1,69.3144 L29.123,80.9364 C29.123,80.9444 29.119,80.9504 29.119,80.9584 C29.119,80.9744 29.123,80.9884 29.123,81.0034 L29.127,83.1214 L21.434,83.1214 L20.519,68.4204 Z M37.27,62.5144 L37.248,61.5594 C37.204,60.2614 37.211,59.4984 37.369,58.9294 C37.424,58.7334 37.604,58.5964 37.807,58.5964 C37.842,58.5964 38.046,58.5974 38.082,58.5984 C38.362,58.6234 38.591,58.6764 38.868,58.8674 C39.731,59.4574 40.33,60.5494 40.431,61.7164 C40.594,63.6614 40.035,65.3334 39.947,65.5144 C39.931,65.5454 39.916,65.5774 39.903,65.6094 C39.646,66.2614 39.868,66.7244 40.023,66.9414 C40.49,67.5984 41.336,67.5634 41.737,67.5454 L50.958,67.5454 C51.546,67.5454 52.024,68.0234 52.024,68.6104 C52.024,69.1984 51.546,69.6764 50.958,69.6764 L49.864,69.6764 C49.327,69.6764 48.885,70.1014 48.865,70.6384 C48.845,71.1754 49.253,71.6324 49.789,71.6734 C50.342,71.7154 50.775,72.1774 50.775,72.7264 C50.775,73.3144 50.297,73.7924 49.709,73.7924 L48.958,73.7924 C48.42,73.7924 47.979,74.2174 47.958,74.7544 C47.938,75.2924 48.347,75.7494 48.883,75.7894 C49.436,75.8314 49.869,76.2944 49.869,76.8424 C49.869,77.4304 49.391,77.9084 48.803,77.9084 L48.167,77.9084 C47.629,77.9084 47.188,78.3334 47.167,78.8704 C47.147,79.4084 47.556,79.8654 48.092,79.9054 C48.645,79.9464 49.079,80.4094 49.079,80.9584 C49.079,81.5464 48.601,82.0244 48.013,82.0244 L32.185,82.0244 C31.597,82.0244 31.119,81.5464 31.119,80.9584 C31.119,80.9224 31.102,80.8924 31.098,80.8574 L31.098,69.9264 C31.504,69.7404 31.836,69.5854 31.861,69.5734 C35.804,67.5404 37.27,65.6334 37.27,62.5144 L37.27,62.5144 Z M30.986,83.7794 C31.354,83.9374 31.759,84.0244 32.185,84.0244 L48.013,84.0244 C49.703,84.0244 51.079,82.6494 51.079,80.9584 C51.079,80.3614 50.903,79.8004 50.6,79.3254 C51.368,78.7684 51.869,77.8624 51.869,76.8424 C51.869,76.2694 51.707,75.7294 51.425,75.2664 C52.239,74.7144 52.775,73.7824 52.775,72.7264 C52.775,72.2164 52.647,71.7324 52.42,71.3054 C53.375,70.7854 54.024,69.7724 54.024,68.6104 C54.024,66.9204 52.649,65.5454 50.958,65.5454 L42.04,65.5454 C42.298,64.6164 42.557,63.1424 42.423,61.5464 C42.272,59.7954 41.342,58.1354 39.999,57.2184 C39.324,56.7534 38.716,56.6474 38.26,56.6064 C38.206,56.6014 37.861,56.5964 37.807,56.5964 C36.709,56.5964 35.737,57.3354 35.442,58.3934 C35.213,59.2164 35.197,60.0924 35.249,61.6164 L35.27,62.5374 C35.27,64.5444 34.602,65.9084 30.989,67.7744 C30.728,66.9904 29.997,66.4204 29.127,66.4204 L20.519,66.4204 C19.977,66.4204 19.453,66.6474 19.082,67.0434 C18.71,67.4394 18.518,67.9764 18.553,68.5134 L19.44,83.2774 C19.506,84.3114 20.37,85.1214 21.407,85.1214 L29.127,85.1214 C29.993,85.1214 30.722,84.5574 30.986,83.7794 L30.986,83.7794 Z" id="Fill-55" sketch:type="MSShapeGroup"></path>
        </g>
    </g>
</svg>