<?xml version="1.0" encoding="UTF-8" standalone="no"?>
<svg width="57px" height="47px" viewBox="0 0 57 47" version="1.1" xmlns="http://www.w3.org/2000/svg" xmlns:xlink="http://www.w3.org/1999/xlink" xmlns:sketch="http://www.bohemiancoding.com/sketch/ns">
    <!-- Generator: Sketch 3.4.4 (17249) - http://www.bohemiancoding.com/sketch -->
    <title>icon-community-twitter</title>
    <desc>Created with Sketch.</desc>
    <defs>
        <path id="path-1" d="M0,0.601 L57,0.601 L57,47 L0,47"></path>
    </defs>
    <g id="Page-1" stroke="none" stroke-width="1" fill="none" fill-rule="evenodd" sketch:type="MSPage">
        <g id="icon-community-twitter" sketch:type="MSLayerGroup">
            <mask id="mask-2" sketch:name="Clip 2" fill="white">
                <use xlink:href="#path-1"></use>
            </mask>
            <g id="Clip-2"></g>
            <path d="M2.5215,42.0166 C7.2915,44.6946 12.4145,45.9996 18.1185,45.9996 C22.2995,45.9996 25.9985,45.3886 29.4225,44.1296 C32.9965,42.8176 35.9355,41.1496 38.4095,39.0286 C40.9215,36.9466 43.1015,34.4766 44.8935,31.6816 C46.7695,28.7546 48.0885,25.9046 48.9275,22.9686 C49.7875,19.9566 50.2235,16.9036 50.2235,13.8936 L50.2235,12.4326 C50.2235,12.2696 50.3015,12.1186 50.4345,12.0246 C52.2285,10.7516 53.7925,9.2496 55.1865,7.4596 C53.4765,7.8496 52.0515,7.6736 51.9765,7.6646 C51.7955,7.6416 51.6425,7.5216 51.5755,7.3526 C51.5075,7.1836 51.5385,6.9916 51.6545,6.8506 C51.6705,6.8306 53.0475,5.1436 53.9895,3.0886 C52.0515,4.0876 49.9985,4.7966 47.7505,5.2456 C47.5825,5.2786 47.4075,5.2236 47.2895,5.0986 C45.1095,2.7776 42.4035,1.6006 39.2465,1.6006 C36.1875,1.6006 33.6485,2.6526 31.4855,4.8166 C29.3205,6.9806 28.2685,9.5196 28.2685,12.5786 C28.2685,13.5196 28.3595,14.3406 28.5455,15.0886 C28.5835,15.2386 28.5485,15.3966 28.4545,15.5176 C28.3595,15.6396 28.2145,15.7096 28.0605,15.7096 C27.4575,15.7096 26.8855,15.6436 26.3335,15.5796 C26.0465,15.5476 25.7575,15.5136 25.4595,15.4886 C21.6515,15.0416 18.1265,13.9476 14.6695,12.1436 C10.7515,10.1156 7.3455,7.4136 4.5365,4.1086 C3.7905,5.6096 3.4125,7.2496 3.4125,8.9956 C3.4125,10.9436 3.8445,12.6566 4.7365,14.2326 C5.6665,15.8766 6.8675,17.1976 8.3065,18.1566 C8.4935,18.2806 8.5745,18.5146 8.5045,18.7266 C8.4355,18.9406 8.2085,19.0896 8.0095,19.0726 C6.4085,19.0086 4.8465,18.6256 3.3575,17.9326 C3.4865,20.3066 4.3075,22.3786 5.8555,24.2486 C7.5265,26.2676 9.6435,27.5376 12.1465,28.0246 C12.3775,28.0696 12.5465,28.2706 12.5505,28.5066 C12.5545,28.7436 12.3935,28.9496 12.1635,29.0026 C11.0755,29.2536 10.0285,29.3806 9.0525,29.3806 C8.6095,29.3806 8.1275,29.3806 7.6075,29.3366 C8.3565,31.2056 9.5555,32.7596 11.1785,33.9626 C13.0515,35.3496 15.1355,36.0596 17.5475,36.1306 C17.7575,36.1366 17.9415,36.2736 18.0075,36.4736 C18.0745,36.6726 18.0075,36.8926 17.8425,37.0226 C13.6355,40.3446 8.7355,42.0286 3.2775,42.0286 C3.0195,42.0286 2.7675,42.0246 2.5215,42.0166 M18.1185,46.9996 C11.6035,46.9996 5.5845,45.2516 0.2295,41.8026 C0.0365,41.6786 -0.0475,41.4376 0.0275,41.2196 C0.1005,41.0026 0.3225,40.8616 0.5445,40.8846 C1.3295,40.9556 2.2665,41.0286 3.2775,41.0286 C8.0545,41.0286 12.3845,39.6826 16.1675,37.0246 C14.1045,36.7586 12.2675,36.0136 10.5835,34.7666 C8.5755,33.2776 7.1625,31.3006 6.3835,28.8886 C6.3295,28.7216 6.3675,28.5376 6.4835,28.4056 C6.5985,28.2736 6.7775,28.2096 6.9485,28.2426 C7.9865,28.4316 8.8625,28.4146 9.7535,28.3576 C7.9605,27.6326 6.3965,26.4706 5.0855,24.8866 C3.2375,22.6536 2.3385,20.1586 2.3385,17.2566 L2.3385,17.1106 C2.3385,16.9346 2.4315,16.7706 2.5835,16.6806 C2.7355,16.5906 2.9245,16.5876 3.0785,16.6716 C4.1255,17.2426 5.2115,17.6416 6.3275,17.8666 C5.3755,16.9886 4.5505,15.9376 3.8655,14.7246 C2.9015,13.0176 2.4125,11.0906 2.4125,8.9956 C2.4125,6.8506 2.9665,4.7666 4.0155,2.9686 C4.0975,2.8276 4.2455,2.7346 4.4095,2.7226 C4.5645,2.7086 4.7315,2.7776 4.8345,2.9056 C7.6465,6.3646 11.1105,9.1746 15.1305,11.2566 C18.4795,13.0036 21.8905,14.0626 25.5605,14.4946 C25.8515,14.5176 26.1515,14.5526 26.4475,14.5866 C26.7855,14.6256 27.1105,14.6636 27.4385,14.6866 C27.3245,14.0386 27.2685,13.3426 27.2685,12.5786 C27.2685,9.2876 28.4495,6.4376 30.7785,4.1096 C33.1055,1.7816 35.9555,0.6006 39.2465,0.6006 C42.5975,0.6006 45.4815,1.8146 47.8235,4.2106 C50.3305,3.6816 52.5845,2.8086 54.7095,1.5476 C54.8885,1.4406 55.1145,1.4576 55.2765,1.5866 C55.4385,1.7166 55.5035,1.9336 55.4395,2.1316 C54.8335,4.0016 53.7075,5.7446 53.0155,6.7086 C53.8335,6.6976 55.0865,6.5776 56.3005,6.0516 C56.5055,5.9626 56.7445,6.0196 56.8855,6.1926 C57.0275,6.3646 57.0385,6.6096 56.9125,6.7936 C55.2835,9.1626 53.4205,11.0936 51.2235,12.6886 L51.2235,13.8936 C51.2235,16.9966 50.7745,20.1416 49.8885,23.2426 C49.0235,26.2736 47.6655,29.2106 45.7355,32.2216 C43.8875,35.1026 41.6395,37.6506 39.0535,39.7936 C36.4945,41.9876 33.4555,43.7146 29.7685,45.0686 C26.2305,46.3686 22.4185,46.9996 18.1185,46.9996" id="Fill-1" fill="#7CD1C5" sketch:type="MSShapeGroup" mask="url(#mask-2)"></path>
        </g>
    </g>
</svg>