<?xml version="1.0" encoding="utf-8"?>
<!-- Generator: Adobe Illustrator 19.1.0, SVG Export Plug-In . SVG Version: 6.00 Build 0)  -->
<svg version="1.1" id="Layer_1" xmlns="http://www.w3.org/2000/svg" xmlns:xlink="http://www.w3.org/1999/xlink" x="0px" y="0px"
	 viewBox="0 0 204 136.5" style="enable-background:new 0 0 204 136.5;" xml:space="preserve">
<style type="text/css">
	.st0{fill:#FFFFFF;}
</style>
<g>
	<path class="st0" d="M0,0v136.5h204V0H0z M200,4v18.2H4V4H200z M4,132.5V26.2h196v106.4H4z"/>
	<circle class="st0" cx="13.7" cy="12.9" r="3"/>
	<circle class="st0" cx="23" cy="12.9" r="3"/>
	<circle class="st0" cx="32.3" cy="12.9" r="3"/>
	<polygon class="st0" points="71.7,78.3 88.2,85.6 88.2,81.6 76.8,77 88.2,71.7 88.2,67.7 71.7,76 	"/>
	<polygon class="st0" points="96,89 100.6,89 109.6,64.7 105,64.7 	"/>
	<polygon class="st0" points="117.4,71.7 128.7,77 117.4,81.6 117.4,85.6 133.8,78.3 133.8,76 117.4,67.7 	"/>
</g>
</svg>
