<?xml version="1.0" encoding="utf-8"?>
<!-- Generator: Adobe Illustrator 16.0.0, SVG Export Plug-In . SVG Version: 6.00 Build 0)  -->
<!DOCTYPE svg PUBLIC "-//W3C//DTD SVG 1.1//EN" "http://www.w3.org/Graphics/SVG/1.1/DTD/svg11.dtd">
<svg version="1.1" id="Layer_1" xmlns="http://www.w3.org/2000/svg" xmlns:xlink="http://www.w3.org/1999/xlink" x="0px" y="0px"
	 width="147.908px" height="127.273px" viewBox="0 0 147.908 127.273" enable-background="new 0 0 147.908 127.273"
	 xml:space="preserve">
<g>
	<g>
		<path fill="none" stroke="#FFFFFF" stroke-width="3" stroke-miterlimit="10" d="M83.547,59.729V47.74l-7.621-1.779
			c-0.876-3.856-2.386-7.471-4.42-10.726l4.115-6.627l-8.476-8.477l-6.573,4.083c-3.275-2.084-6.919-3.637-10.814-4.539
			l-1.745-7.469l-11.988-0.001l-1.724,7.377C30.33,20.455,26.612,22,23.273,24.096l-6.381-3.963l-8.477,8.476l3.93,6.327
			c-2.146,3.359-3.733,7.107-4.633,11.117L0.49,47.74L0.489,59.729l7.224,1.688c0.899,4.011,2.486,7.759,4.633,11.117l-3.931,6.327
			l8.477,8.478l6.382-3.964c3.34,2.096,7.057,3.641,11.027,4.513l1.724,7.376l11.989,0.001l1.745-7.47
			c3.895-0.903,7.539-2.455,10.814-4.539l6.572,4.082l8.478-8.476l-4.117-6.627c2.034-3.256,3.544-6.869,4.42-10.726L83.547,59.729z
			"/>
	</g>
</g>
<circle fill="none" stroke="#FFFFFF" stroke-width="3" stroke-miterlimit="10" cx="41.816" cy="53.735" r="26.607"/>
<circle fill="none" stroke="#FFFFFF" stroke-width="3" stroke-miterlimit="10" cx="41.816" cy="53.735" r="20.896"/>
<circle fill="none" stroke="#FFFFFF" stroke-width="3" stroke-miterlimit="10" cx="41.816" cy="53.735" r="7"/>
<g>
	<g>
		<path fill="none" stroke="#FFFFFF" stroke-width="3" stroke-miterlimit="10" d="M127.086,77.367l4.134-2.798l-2.73-7.142
			l-4.947,0.675c-1.4-2.098-3.123-3.906-5.076-5.383l0.942-4.888l-6.981-3.119l-2.986,3.931c-2.427-0.495-4.951-0.59-7.479-0.241
			l-2.741-4.053l-7.144,2.73l0.653,4.79c-2.167,1.424-4.029,3.191-5.542,5.2l-4.705-0.907l-3.12,6.981l3.783,2.875
			c-0.514,2.49-0.605,5.085-0.228,7.68L79,86.35l2.73,7.146l4.689-0.642c1.449,2.185,3.248,4.056,5.292,5.568l-0.899,4.667
			l6.982,3.118l2.9-3.815c2.467,0.487,5.033,0.562,7.598,0.176L111,106.57l7.145-2.729l-0.661-4.851
			c2.115-1.426,3.933-3.181,5.409-5.169l4.847,0.934l3.121-6.979l-3.964-3.012C127.367,82.362,127.443,79.865,127.086,77.367z"/>
	</g>
</g>
<path fill="none" stroke="#FFFFFF" stroke-width="3" stroke-miterlimit="10" d="M101.398,70.6
	c-5.066,1.939-7.607,7.619-5.668,12.688c1.935,5.067,7.62,7.607,12.685,5.666c5.072-1.935,7.608-7.619,5.666-12.686
	C112.144,71.2,106.467,68.657,101.398,70.6z"/>
</svg>
