<?xml version="1.0" encoding="utf-8"?>
<!-- Generator: Adobe Illustrator 16.0.0, SVG Export Plug-In . SVG Version: 6.00 Build 0)  -->
<!DOCTYPE svg PUBLIC "-//W3C//DTD SVG 1.1//EN" "http://www.w3.org/Graphics/SVG/1.1/DTD/svg11.dtd">
<svg version="1.1" id="Layer_1" xmlns="http://www.w3.org/2000/svg" xmlns:xlink="http://www.w3.org/1999/xlink" x="0px" y="0px"
	 width="133.364px" height="130.756px" viewBox="0 0 133.364 130.756" enable-background="new 0 0 133.364 130.756"
	 xml:space="preserve">
<path fill="none" stroke="#FFFFFF" stroke-width="2" stroke-miterlimit="10" d="M9.365,65.5c0-32.032,25.969-58,58-58
	c32.032,0,58,25.968,58,58s-25.968,58-58,58c-28.465,0-52.142-20.507-57.062-47.552C9.687,72.559,9.365,69.067,9.365,65.5z"/>
<g>
	<path fill="none" stroke="#FFFFFF" stroke-width="2" stroke-linecap="round" stroke-linejoin="round" stroke-miterlimit="10" d="
		M106.643,23.058l-4.53-0.59l-0.535,5.613c0,0,4.277,1.604,5.078,4.276c0.803,2.673,1.604,6.147,1.604,6.147l-2.672,3.207
		l2.672,5.346l-1.87,2.405c0,0-1.872-5.078-2.94-5.346c-1.068-0.267-2.139-2.138-2.139-2.138l-3.207,1.336l1.336,1.871l2.674,1.068
		c0,0,0,0-0.535,1.07c-0.534,1.068,1.068,3.475,2.139,7.483c1.068,4.01-4.009,6.682-5.881,6.682c-1.871,0-4.276,1.338-4.812,3.207
		c-0.534,1.871,2.407,2.941,3.476,5.346c1.069,2.406-2.94,3.743-2.94,3.743l-4.544-5.079c0,0,0.268,1.07,0,3.208
		s1.07,4.009,3.209,4.811c2.137,0.802,1.87,4.01,1.87,4.01l-0.802,2.138c0,0,0,2.673,2.404,4.276
		c2.406,1.604,6.684,2.673,6.684,2.673s-5.347-0.801-7.484-0.801c-2.139,0-3.475-1.604-5.881-4.01
		c-2.404-2.405-5.612-6.682-5.612-6.682s2.672,0.267,3.475,1.069c0.802,0.801,3.208,1.87,3.208,1.87s-2.406-5.346-2.406-7.217
		s-1.871-7.217-1.871-7.217l-3.475,3.475c0,0,0.802-1.604,0.802-3.742c0-2.137-2.406-4.543-2.406-4.543s-2.404,1.069-4.009,2.139
		c-1.604,1.068-5.345,4.276-5.613,6.682c-0.267,2.406-2.405,5.078-2.405,5.078s-3.475-7.483-6.682-12.028
		c-3.207-4.543-6.146-4.009-9.354-4.009c-3.208,0-7.218-2.404-8.821-3.742c-1.604-1.336-3.207-0.533-3.207-0.533l3.207,4.81
		c0,0,3.742-0.267,5.88,0.536c2.139,0.801,0.803,2.404-1.069,5.077c-1.871,2.673-5.881,4.009-8.285,4.545
		c-2.406,0.534-2.138-2.407-2.138-2.407L29.679,56.68l4.545,10.425l5.076,5.88l6.148-1.337c0,0-1.604,4.812-3.741,7.216
		c-2.139,2.406-6.415,6.683-6.415,6.683s0.802,2.405,0.802,5.078s0.267,5.346,0.267,5.346l-2.137,0.535c0,0,0,1.337-0.268,3.207
		c-0.269,1.871-2.941,5.88-2.941,5.88s-2.673-1.604-6.682-6.147c-4.009-4.543-4.276-11.493-5.613-16.036
		c-1.337-4.545-1.284-5.223-4.276-7.217c-1.604-1.069-4.14-0.243-4.14-0.243"/>
	<path fill="none" stroke="#FFFFFF" stroke-width="2" stroke-linecap="round" stroke-linejoin="round" stroke-miterlimit="10" d="
		M10.489,55.168c0,0,2.986-2.865,4.154-3.365c1.871-0.803,3.509-0.903,3.509-0.903l-1.319,2.623l5.087,2.915l0.538-2.953
		l6.684,0.528c0,0,2.14-1.34,2.674-2.408c0.535-1.068,0.269-2.941,0.269-2.941l-4.01,1.335l-2.672-0.697L25.669,47h-2.673
		l1.069,3.237l-1.871,1.35l-1.381-5.472l-2.449-2.265v6.147l-1.293-1.604l-0.912-4.009l-1.126,3.207l-1.764,2.406l-1.768,0.687
		l2.339-4.696l0.574-3.755l3.607-4.264l4.091-1.336l2.181-2.139l1.623-4.811l3.752-1.871"/>
	
		<line fill="none" stroke="#FFFFFF" stroke-width="2" stroke-linecap="round" stroke-linejoin="round" stroke-miterlimit="10" x1="28.877" y1="24.874" x2="25.937" y2="29.685"/>
	<path fill="none" stroke="#FFFFFF" stroke-width="2" stroke-linecap="round" stroke-linejoin="round" stroke-miterlimit="10" d="
		M31.148,20.543l4.879,0.654l-2.106,2.908l4.561-6.165l4.285,0.259l2.41-2.142l-4.542-0.805l5.348-3.209l2.138,3.208l3.209,1.279
		L50.794,13h3.207c0,0,1.069,0.992,1.069,1.795s2.405-2.445,2.405-2.445l-1.603-1.757c0,0,1.87-1.68,2.672-1.68
		c0.803,0,2.17-0.669,2.17-0.669"/>
	
		<polygon fill="none" stroke="#FFFFFF" stroke-width="2" stroke-linecap="round" stroke-linejoin="round" stroke-miterlimit="10" points="
		43.711,93.678 41.438,97 39.033,97 39.568,100.629 41.438,104.446 43.845,104.273 	"/>
	<path fill="none" stroke="#FFFFFF" stroke-width="2" stroke-linecap="round" stroke-linejoin="round" stroke-miterlimit="10" d="
		M106.644,107.995c0,0,1.081-3.205-0.522-2.938c-1.604,0.268-4.544,1.871-6.95,2.94c-2.404,1.068-5.077,0.802-5.077,0.802
		s1.068-1.338,1.337-3.475c0.266-2.139,0-5.347,2.404-6.415c2.406-1.068,4.277,0,5.613-1.604c1.336-1.603,3.207-4.811,3.207-4.811
		l4.011-1.871l2.938-0.268l-1.068,3.742c0,0,1.871,0.535,2.673-1.871c0.802-2.405,0.802-3.206,0.802-3.206l1.416,5.546"/>
	<path fill="none" stroke="#FFFFFF" stroke-width="2" stroke-linecap="round" stroke-linejoin="round" stroke-miterlimit="10" d="
		M104.651,27.546c0,0,4.61,6.148,6.214,9.355s2.171,7.751,2.171,7.751l-0.332,5.078l-4.34,2.406v-3.208l3.957-3.742"/>
	<path fill="none" stroke="#FFFFFF" stroke-width="2" stroke-linecap="round" stroke-linejoin="round" stroke-miterlimit="10" d="
		M33.198,38.795c0,0-2.391,0.956-2.23,1.194c0.159,0.239,0.479,2.391,0.479,2.391l-2.708-2.23c0,0-2.39,4.698-1.116,5.097
		c1.275,0.397,2.787-1.593,3.903-1.035c1.114,0.557,3.424,0.796,3.504-0.479c0.079-1.274-1.674-1.353-1.992-2.468
		S33.198,38.795,33.198,38.795z"/>
	<path fill="none" stroke="#FFFFFF" stroke-width="2" stroke-linecap="round" stroke-linejoin="round" stroke-miterlimit="10" d="
		M43.073,37.521l-3.664,2.946l2.628,4.3l-0.478,2.15c0,0,2.707,1.354,3.344,1.115c0.638-0.238,0.638-1.593-0.318-3.664
		c-0.955-2.069-2.867-3.025-2.389-4.141C42.674,39.114,43.073,37.521,43.073,37.521z"/>
	<path fill="none" stroke="#FFFFFF" stroke-width="2" stroke-linecap="round" stroke-linejoin="round" stroke-miterlimit="10" d="
		M71.582,74.791c0,0-1.673,1.035-0.717,2.311c0.956,1.273,1.991,1.193,1.832-0.16C72.537,75.588,71.582,74.791,71.582,74.791z"/>
	<path fill="none" stroke="#FFFFFF" stroke-width="2" stroke-linecap="round" stroke-linejoin="round" stroke-miterlimit="10" d="
		M96.587,64.28c-0.557,0.397-0.477,1.831,0.239,1.353C97.544,65.155,96.587,64.28,96.587,64.28z"/>
	<path fill="none" stroke="#FFFFFF" stroke-width="2" stroke-linecap="round" stroke-linejoin="round" stroke-miterlimit="10" d="
		M104.232,60.139c0,1.114,1.434,3.265,1.194,1.194C105.188,59.262,104.232,60.139,104.232,60.139z"/>
	<path fill="none" stroke="#FFFFFF" stroke-width="2" stroke-linecap="round" stroke-linejoin="round" stroke-miterlimit="10" d="
		M104.711,66.908c-0.159,1.353-0.001,4.14,1.274,4.379c1.272,0.239,2.229,0.796,1.672,1.673c-0.557,0.876-2.629,1.91-1.672,2.708
		c0.955,0.795,2.468,3.265,2.945,1.035c0.479-2.23,0.957-6.133-1.035-6.85c-1.99-0.718-1.989-2.389-2.389-3.504
		C105.108,65.234,104.711,66.908,104.711,66.908z"/>
	<path fill="none" stroke="#FFFFFF" stroke-width="2" stroke-linecap="round" stroke-linejoin="round" stroke-miterlimit="10" d="
		M101.685,76.941l-3.822,4.618l-1.752-0.796c0,0,0.557,6.212,3.186,5.097c2.628-1.113,3.424-3.902,3.583-5.415
		s-0.159-1.831,0.398-2.389c0.558-0.559-0.16-2.07-0.797-1.832S102.161,76.225,101.685,76.941z"/>
	<path fill="none" stroke="#FFFFFF" stroke-width="2" stroke-linecap="round" stroke-linejoin="round" stroke-miterlimit="10" d="
		M113.47,83.392c0,0,2.071-1.832,3.266-1.194c1.195,0.638,1.752,1.593,1.752,1.593l2.229-1.194c0,0-2.389,2.469-2.31,3.344
		c0.08,0.876-0.477,0.24-1.752,0.559c-1.273,0.317-1.592-1.276-2.627-1.674c-1.036-0.396-2.15-0.716-2.229-1.83
		c-0.08-1.115,1.114-1.992,1.434-1.194C113.55,82.596,113.47,83.392,113.47,83.392z"/>
	<path fill="none" stroke="#FFFFFF" stroke-width="2" stroke-linecap="round" stroke-linejoin="round" stroke-miterlimit="10" d="
		M108.135,87.613c0,0-1.274,1.408-1.673,1.408c-0.397,0-0.796,1.298-0.796,1.298"/>
	<path fill="none" stroke="#FFFFFF" stroke-width="2" stroke-linecap="round" stroke-linejoin="round" stroke-miterlimit="10" d="
		M108.294,80.685c0,0-0.717,0.956-1.91,1.035c-1.195,0.08-0.957,0-1.673,1.434c-0.717,1.434-0.955,3.662-0.955,3.662l2.706-0.317
		c0,0-0.875-1.593-0.716-2.787c0.159-1.195-0.159-2.23-0.159-2.23"/>
</g>
</svg>
