<?xml version="1.0" encoding="utf-8"?>
<!-- Generator: Adobe Illustrator 19.1.0, SVG Export Plug-In . SVG Version: 6.00 Build 0)  -->
<svg version="1.1" id="Layer_1" xmlns="http://www.w3.org/2000/svg" xmlns:xlink="http://www.w3.org/1999/xlink" x="0px" y="0px"
	 viewBox="0 0 95 79" style="enable-background:new 0 0 95 79;" xml:space="preserve">
<style type="text/css">
	.st0{fill:#FFFFFF;}
</style>
<g>
	<g>
		<path class="st0" d="M9.7,50.1l-1.5,1.4C3,56.3,0,63.1,0,70.2v7.3C0,78.3,0.7,79,1.5,79h48c0.8,0,1.5-0.7,1.5-1.5v-8
			c0-0.7,0-1.3-0.1-2l0-0.5h42.6c0.8,0,1.5-0.7,1.5-1.5v-64C95,0.7,94.3,0,93.5,0h-72C20.7,0,20,0.7,20,1.5v15.4L19.7,17
			C12.7,19.5,8,26.1,8,33.5l0,0.3c0,0.3,0,0.7,0,1c0,0.5,0.1,1.1,0.2,1.6l0.1,0.3L8,36.9c-5,3.1-6.9,8.5-8,12.9
			c-0.1,0.5,0,1,0.3,1.3c0.3,0.3,0.7,0.5,1.1,0.5l0.2,0c2.6-0.3,4.5-0.6,6.1-1L9.7,50.1z M48,76H3v-5.8c0-9.1,5.8-17.6,14.4-21
			l0.2-0.1l0.2,0.1c4.9,2.4,10.6,2.4,15.4,0l0.2-0.1l0.2,0.1C42.2,52.4,48,60.6,48,69.5V76z M92,64H50.4l-0.1-0.4
			c-0.6-2.5-1.7-4.9-3.1-7.2L47,56.1l11.2-11.2c0.6-0.6,0.6-1.5,0-2.1c-0.6-0.6-1.5-0.6-2.1,0L45.2,53.7l-0.4-0.4
			c-2.1-2.4-4.7-4.4-7.6-5.9l-0.7-0.3l0.6-0.5c3.8-3.3,5.9-8.1,5.9-13.1c0-7.9-5.4-14.9-13-16.9c-0.1,0-0.3-0.1-0.4-0.1
			c-0.3-0.1-0.6-0.1-0.9-0.2c-0.3-0.1-0.5-0.1-0.8-0.1l-0.2,0c-0.2,0-0.3,0-0.5-0.1c-1.3-0.1-2.3-0.1-3.6,0L23,16.2V3h69V64z
			 M3.5,48.4l0.3-0.8c1.1-3.4,2.7-5.8,4.8-7.5l0.5-0.4l0.3,0.6c0.7,1.6,1.6,3,2.7,4.4l0.3,0.4L12,45.4c-2.2,1.5-4.4,2.3-7.6,2.9
			L3.5,48.4z M25.5,48c-5.7,0-10.9-3.4-13.2-8.6L12,38.8l0.6-0.1c6.1-1.1,11.2-5.4,13.3-11.3l0.2-0.7l0.5,0.4
			c3.6,2.9,8.1,4.2,12.6,3.7l0.5,0l0.1,0.5c0.1,0.8,0.2,1.5,0.2,2.2C40,41.5,33.5,48,25.5,48z M11.2,35.9l-0.1-0.5
			c0-0.3-0.1-0.6-0.1-0.8l0-0.1c0-0.3,0-0.6,0-0.9c0-8,6.5-14.5,14.5-14.5c0.4,0,0.9,0,1.3,0.1h0c0.2,0,0.3,0,0.5,0.1
			c0.2,0,0.5,0.1,0.7,0.1c4.6,0.8,8.5,3.8,10.5,8l0.3,0.7l-0.8,0c-4.5,0.2-8.7-1.7-11.7-5.2c-0.4-0.5-1-0.7-1.5-0.5
			c-0.6,0.2-1,0.7-1.1,1.2c-0.9,6.4-5.7,11.3-12.1,12.3L11.2,35.9z"/>
	</g>
	<g>
		<path class="st0" d="M51.5,12c-0.8,0-1.5,0.7-1.5,1.5s0.7,1.5,1.5,1.5h24c0.8,0,1.5-0.7,1.5-1.5S76.3,12,75.5,12H51.5z"/>
	</g>
	<g>
		<path class="st0" d="M51.5,24c-0.8,0-1.5,0.7-1.5,1.5s0.7,1.5,1.5,1.5h32c0.8,0,1.5-0.7,1.5-1.5S84.3,24,83.5,24H51.5z"/>
	</g>
	<g>
		<path class="st0" d="M51.5,36c-0.8,0-1.5,0.7-1.5,1.5s0.7,1.5,1.5,1.5h32c0.8,0,1.5-0.7,1.5-1.5S84.3,36,83.5,36H51.5z"/>
	</g>
</g>
</svg>
