<svg id="Layer_1" data-name="Layer 1" xmlns="http://www.w3.org/2000/svg" viewBox="0 0 70 70"><defs><style>.cls-1{fill:#f89c24}</style></defs><title>MLN_Web-Literacy_Icons</title><path class="cls-1" d="M64.24 23.7h5.22a.5.5 0 0 0 0-1h-4.9l1.55-4.89a.5.5 0 0 0 0-.15V8.08h3.33a.5.5 0 1 0 0-1h-3.39a2.56 2.56 0 0 0-.63-1.32 3 3 0 0 0-3.79-.23 3.15 3.15 0 0 0-.71-2 2.88 2.88 0 0 0-3.79-.24v-.4a3.19 3.19 0 0 0-.71-2 2.89 2.89 0 0 0-4.08 0 3.14 3.14 0 0 0-.71 2 2.88 2.88 0 0 0-3.79.24 3.19 3.19 0 0 0-.71 2v1.95H30.87a.5.5 0 0 0-.5.5v.52h-2.11l-5.32-1.68V.51a.5.5 0 1 0-1 0V6.1l-4.13-1.31H7.8a3.92 3.92 0 0 0-.47 0V.51a.5.5 0 1 0-1 0v4.58a2 2 0 0 0-.57.39 2.86 2.86 0 0 0-.24 3.79 3.14 3.14 0 0 0-2 .71 2.88 2.88 0 0 0-.24 3.79h-.39a3.19 3.19 0 0 0-2 .71 2.89 2.89 0 0 0 0 4.08 3.14 3.14 0 0 0 2 .71 2.86 2.86 0 0 0 .24 3.79 3.19 3.19 0 0 0 2 .71h1.2V39.1a.5.5 0 0 0 .5.5h.52v2.11l-2 6.34H.5a.5.5 0 1 0 0 1H5l-1 3.11a.5.5 0 0 0 0 .15v9.86a3.76 3.76 0 0 0 .33 1.5H.5a.5.5 0 1 0 0 1h4.85a2.82 2.82 0 0 0 3.17-.22 3.13 3.13 0 0 0 .71 2 2.86 2.86 0 0 0 3.77.25v.38a3.18 3.18 0 0 0 .71 2 2.89 2.89 0 0 0 4.08 0 3.13 3.13 0 0 0 .71-2 2.86 2.86 0 0 0 3.79-.24 3.19 3.19 0 0 0 .71-2v-.17h16.1a.5.5 0 0 0 .5-.5v-.52h2.11l5.5 1.74v4.08a.5.5 0 0 0 1 0V65.7l4 1.25h10.01a4.12 4.12 0 0 0 .65-.07v2.55a.5.5 0 0 0 1 0v-2.87a1.9 1.9 0 0 0 .39-.29 2.88 2.88 0 0 0 .24-3.79 3.14 3.14 0 0 0 2-.71 2.88 2.88 0 0 0 .2-3.77h.39a3.19 3.19 0 0 0 2-.71 2.89 2.89 0 0 0 0-4.08 3.14 3.14 0 0 0-2-.71 2.88 2.88 0 0 0-.24-3.79 3.19 3.19 0 0 0-2-.71h-1V30.87a.5.5 0 0 0-.5-.5h-.55v-2.11zM31.37 8.08h15.77v2.55a2.88 2.88 0 0 0-3.79.24 3.18 3.18 0 0 0-.71 2v4.45a.5.5 0 0 0 .08.28l3.39 5.06H31.37V8.08zm17.36 22.29h-1a.5.5 0 0 0-.5.5V47l-3.83 2.56h-3.8v-1a.5.5 0 0 0-.5-.5H24.55l-3.13-4.68V39.6h1a.5.5 0 0 0 .5-.5V24.61l3.65-2.44h3.78v1a.5.5 0 0 0 .5.5h15.94l1.94 2.9v3.78zM3.25 21a1.87 1.87 0 0 1 .55-1.33 2.22 2.22 0 0 1 1.33-.42h10.12a.5.5 0 0 0 0-1H2.89a2.25 2.25 0 0 1-1.33-.42 1.89 1.89 0 0 1 0-2.67 2.23 2.23 0 0 1 1.33-.42h12.36a.5.5 0 0 0 0-1h-9.7a2.24 2.24 0 0 1-1.33-.42 1.89 1.89 0 0 1 0-2.67 2.23 2.23 0 0 1 1.33-.42h9.7a.5.5 0 0 0 0-1H7.8a2.24 2.24 0 0 1-1.33-.42 1.89 1.89 0 0 1 0-2.67 2.22 2.22 0 0 1 1.33-.37h9.78L28 9.08h2.34v12.09h-3.9a.5.5 0 0 0-.28.08l-9 6h-4.25a2.24 2.24 0 0 1-1.33-.42 1.88 1.88 0 0 1 0-2.67 2.22 2.22 0 0 1 1.33-.42h2.35a.5.5 0 1 0 0-1H5.14a2.23 2.23 0 0 1-1.33-.42A1.87 1.87 0 0 1 3.25 21zm4.08 2.75h3.3a2.86 2.86 0 0 0 .24 3.79 3.18 3.18 0 0 0 2 .71h4.45a.5.5 0 0 0 .28-.08l4.31-2.89V38.6H7.33V23.76zm14.26 42.42a1.89 1.89 0 0 1-2.67 0 2.23 2.23 0 0 1-.42-1.33V54.72a.5.5 0 0 0-1 0v12.36a2.22 2.22 0 0 1-.42 1.33 1.89 1.89 0 0 1-2.67 0 2.22 2.22 0 0 1-.41-1.33V54.72a.5.5 0 0 0-1 0v9.7a2.24 2.24 0 0 1-.42 1.33 1.93 1.93 0 0 1-2.67 0 2.22 2.22 0 0 1-.42-1.33v-9.7a.5.5 0 0 0-1 0v7.45a2.25 2.25 0 0 1-.42 1.33 1.89 1.89 0 0 1-2.67 0 2.22 2.22 0 0 1-.4-1.33v-9.78l3.33-10.45a.5.5 0 0 0 0-.15V39.6h12.09v3.93a.5.5 0 0 0 .08.28l6 9v4.29a2.25 2.25 0 0 1-.42 1.33 1.89 1.89 0 0 1-2.67 0 2.23 2.23 0 0 1-.41-1.37v-2.34a.5.5 0 0 0-1 0v10.12a2.24 2.24 0 0 1-.41 1.33zm17-2.5H23v-4.33a2.86 2.86 0 0 0 3.79-.24 3.19 3.19 0 0 0 .71-2v-4.48a.5.5 0 0 0-.08-.28l-2.2-3.29H38.6v14.62zm28.13-12.93a1.87 1.87 0 0 1-.55 1.33 2.22 2.22 0 0 1-1.33.42H54.72a.5.5 0 0 0 0 1h12.36a2.25 2.25 0 0 1 1.33.42 1.89 1.89 0 0 1 0 2.67 2.22 2.22 0 0 1-1.33.42H54.72a.5.5 0 0 0 0 1h9.7a2.23 2.23 0 0 1 1.33.42 1.89 1.89 0 0 1 0 2.67 2.23 2.23 0 0 1-1.33.42h-9.7a.5.5 0 0 0 0 1h7.45a2.24 2.24 0 0 1 1.33.42 1.89 1.89 0 0 1 0 2.67 2.23 2.23 0 0 1-1.33.42h-9.78l-10.45-3.35H39.6V50.58h3.93a.5.5 0 0 0 .28-.08l9-6h4.29a2.24 2.24 0 0 1 1.33.42 1.88 1.88 0 0 1 0 2.67 2.22 2.22 0 0 1-1.33.42h-2.38a.5.5 0 0 0 0 1h10.11a2.24 2.24 0 0 1 1.33.42 1.87 1.87 0 0 1 .56 1.31zM62.82 48h-3.48a2.86 2.86 0 0 0-.24-3.79 3.18 3.18 0 0 0-2-.71h-4.48a.5.5 0 0 0-.28.08l-4.14 2.77v-15h14.62V48zM49.73 30.37v-3.93a.5.5 0 0 0-.08-.28l-6-9v-4.25a2.22 2.22 0 0 1 .42-1.33 1.89 1.89 0 0 1 2.67 0 2.22 2.22 0 0 1 .42 1.33v2.35a.5.5 0 0 0 1 0V5.14a2.23 2.23 0 0 1 .42-1.33 1.89 1.89 0 0 1 2.67 0 2.22 2.22 0 0 1 .42 1.33v10.12a.5.5 0 0 0 1 0V2.89a2.25 2.25 0 0 1 .42-1.33 1.89 1.89 0 0 1 2.67 0 2.23 2.23 0 0 1 .42 1.33v12.37a.5.5 0 0 0 1 0V5.55a2.24 2.24 0 0 1 .42-1.33 1.89 1.89 0 0 1 2.67 0 2.23 2.23 0 0 1 .42 1.33v9.7a.5.5 0 0 0 1 0V7.8a2.24 2.24 0 0 1 .42-1.33 1.93 1.93 0 0 1 2.67 0 2.22 2.22 0 0 1 .42 1.33v9.78L61.82 28a.5.5 0 0 0 0 .15v2.19H49.73z"/><path class="cls-1" d="M59.43 34.58h-2.25a.5.5 0 0 0 0 1h2.25a.5.5 0 0 0 0-1zM35.07 14.22a.5.5 0 0 0 .5-.5v-2.24a.5.5 0 0 0-1 0v2.25a.5.5 0 0 0 .5.49zM10.72 35.4H13a.5.5 0 1 0 0-1h-2.28a.5.5 0 1 0 0 1zM34.9 57.53a.5.5 0 0 0-.5.5v2.25a.5.5 0 0 0 1 0V58a.5.5 0 0 0-.5-.47z"/></svg>