<?xml version="1.0" encoding="UTF-8" standalone="no"?>
<svg width="242px" height="175px" viewBox="0 0 242 175" version="1.1" xmlns="http://www.w3.org/2000/svg" xmlns:xlink="http://www.w3.org/1999/xlink" xmlns:sketch="http://www.bohemiancoding.com/sketch/ns">
    <!-- Generator: Sketch 3.4.4 (17249) - http://www.bohemiancoding.com/sketch -->
    <title>Page 1</title>
    <desc>Created with Sketch.</desc>
    <defs></defs>
    <g id="Page-1" stroke="none" stroke-width="1" fill="none" fill-rule="evenodd" sketch:type="MSPage">
        <g sketch:type="MSLayerGroup" fill="#EB91A2">
            <path d="M169.9639,26.2134 C169.5579,27.2614 168.9749,28.2274 168.2319,29.0814 L167.8189,29.5564 L168.6629,31.5164 L166.9759,32.7644 L165.3379,31.3734 L164.7669,31.6214 C163.7309,32.0714 162.6479,32.3374 161.5479,32.4124 L160.9199,32.4554 L160.1179,34.4724 L158.0409,34.1634 L157.8649,31.9764 L157.2869,31.7464 C156.2629,31.3404 155.3259,30.7714 154.4999,30.0534 L154.0259,29.6414 L151.9849,30.5204 L150.7369,28.8344 L152.1859,27.1284 L151.9379,26.5574 C151.5019,25.5534 151.2399,24.5004 151.1599,23.4274 L151.1129,22.8034 L149.0289,21.9754 L149.3399,19.9004 L151.5769,19.7174 L151.8049,19.1354 C152.1969,18.1304 152.7549,17.1994 153.4619,16.3714 L153.8659,15.8974 L152.9789,13.8434 L154.6679,12.5944 L156.3599,14.0334 L156.9349,13.7784 C157.9409,13.3324 159.0039,13.0624 160.0949,12.9754 L160.7159,12.9254 L161.5249,10.8854 L163.6019,11.1964 L163.7789,13.3584 L164.3659,13.5834 C165.3979,13.9784 166.3539,14.5504 167.2099,15.2824 L167.6829,15.6884 L169.6579,14.8374 L170.9079,16.5244 L169.5259,18.1514 L169.7819,18.7264 C170.2439,19.7614 170.5189,20.8544 170.6009,21.9744 L170.6469,22.5994 L172.6159,23.3814 L172.3059,25.4574 L170.1909,25.6284 L169.9639,26.2134 Z M173.1029,27.3994 L174.0069,27.6004 L174.8289,22.1084 L172.5319,21.1964 C172.4139,20.2754 172.1869,19.3724 171.8529,18.5014 L173.4599,16.6084 L170.3219,12.3734 L168.0199,13.3654 C167.2889,12.8034 166.5029,12.3334 165.6709,11.9604 L165.4659,9.4534 L160.2499,8.6724 L159.3089,11.0484 C158.4209,11.1674 157.5519,11.3884 156.7129,11.7084 L154.7549,10.0444 L150.5129,13.1794 L151.5439,15.5644 C151.0059,16.2664 150.5519,17.0234 150.1879,17.8244 L147.5979,18.0364 L146.8149,23.2484 L149.2299,24.2074 C149.3439,25.0794 149.5569,25.9364 149.8669,26.7684 L148.1859,28.7484 L151.3199,32.9844 L153.6799,31.9674 C154.3869,32.5174 155.1529,32.9834 155.9699,33.3584 L156.1759,35.9074 L161.3919,36.6844 L162.3199,34.3464 C163.2239,34.2344 164.1129,34.0154 164.9789,33.6924 L166.8899,35.3154 L171.1279,32.1814 L170.1459,29.9024 C170.7189,29.1664 171.2009,28.3694 171.5829,27.5224 L173.1029,27.3994 Z" id="Fill-1" sketch:type="MSShapeGroup"></path>
            <path d="M167.1982,23.5293 C166.9422,25.2483 166.0302,26.7653 164.6302,27.8003 C163.2312,28.8343 161.5132,29.2623 159.7952,29.0023 C158.0732,28.7463 156.5542,27.8343 155.5192,26.4353 C154.4862,25.0373 154.0582,23.3213 154.3182,21.6013 C154.5742,19.8803 155.4862,18.3623 156.8842,17.3273 C158.0172,16.4873 159.3602,16.0473 160.7452,16.0473 C161.0692,16.0473 161.3952,16.0713 161.7212,16.1203 C165.2732,16.6573 167.7302,19.9803 167.1982,23.5293 M162.0182,14.1423 L162.0172,14.1433 C159.7652,13.8053 157.5212,14.3663 155.6942,15.7193 C153.8662,17.0723 152.6752,19.0563 152.3402,21.3043 C152.0012,23.5523 152.5592,25.7973 153.9112,27.6253 C155.2642,29.4533 157.2492,30.6453 159.4992,30.9803 C159.9272,31.0453 160.3562,31.0763 160.7822,31.0763 C162.5872,31.0763 164.3392,30.5023 165.8192,29.4083 C167.6492,28.0553 168.8422,26.0723 169.1762,23.8243 C169.8712,19.1873 166.6602,14.8433 162.0182,14.1423" id="Fill-3" sketch:type="MSShapeGroup"></path>
            <path d="M187.6638,18.3926 C187.6308,18.8386 187.5258,19.2786 187.3508,19.7006 L187.0058,20.5306 L186.3418,21.1306 C186.0198,21.4206 185.6618,21.6476 185.2758,21.8066 L184.4868,22.1296 L183.6508,22.0726 C183.2388,22.0436 182.8308,21.9386 182.4368,21.7596 L181.6608,21.4066 L181.0928,20.7316 C180.8018,20.3846 180.5728,19.9906 180.4138,19.5606 L180.0948,18.7006 L180.1588,17.7906 C180.1918,17.3226 180.3008,16.8706 180.4838,16.4446 L180.8438,15.6106 L181.4958,15.0316 C181.8298,14.7356 182.1968,14.5066 182.5878,14.3516 L183.3748,14.0406 L184.2078,14.1106 C184.6218,14.1456 185.0258,14.2526 185.4078,14.4286 L186.1788,14.7836 L186.7528,15.4796 C187.0308,15.8166 187.2508,16.1966 187.4048,16.6086 L187.7318,17.4806 L187.6638,18.3926 Z M190.8598,18.0446 L190.5678,16.0146 L189.2778,15.9066 C189.0408,15.2756 188.7068,14.7046 188.2958,14.2066 L188.8088,12.9746 L187.2198,11.7496 L186.2448,12.6116 C185.6608,12.3436 185.0318,12.1726 184.3758,12.1176 L183.9048,10.8926 L181.9518,11.1966 L181.8518,12.4926 C181.2248,12.7406 180.6608,13.0986 180.1678,13.5366 L179.0258,13.0256 L177.8498,14.6756 L178.6478,15.6536 C178.3798,16.2746 178.2128,16.9496 178.1638,17.6506 L177.0238,18.1216 L177.3158,20.1556 L178.5388,20.2556 C178.7818,20.9126 179.1318,21.5056 179.5618,22.0186 L179.0738,23.1966 L180.6618,24.4186 L181.6098,23.5806 C182.2048,23.8506 182.8458,24.0216 183.5138,24.0676 L183.9758,25.2766 L185.9298,24.9726 L186.0338,23.6566 C186.6448,23.4066 187.1988,23.0506 187.6818,22.6146 L188.8578,23.1416 L190.0338,21.4886 L189.1978,20.4666 C189.4478,19.8636 189.6088,19.2146 189.6588,18.5406 L190.8598,18.0446 Z" id="Fill-5" sketch:type="MSShapeGroup"></path>
            <path d="M190.8606,18.0444 L190.8606,18.0444 L190.8606,18.0484 L190.8606,18.0444 Z" id="Fill-7" sketch:type="MSShapeGroup"></path>
            <path d="M61.4062,57.9194 C60.7172,59.3444 58.6132,60.4144 56.2002,60.4144 L28.3582,60.4144 C25.9452,60.4144 23.8412,59.3444 23.1522,57.9194 L61.4062,57.9194 Z M28.5972,52.9894 L55.9592,52.9894 L59.7282,55.9194 L24.8282,55.9194 L28.5972,52.9894 Z M29.2632,35.7444 C29.2632,35.1294 29.7632,34.6294 30.3782,34.6294 L54.1782,34.6294 C54.7932,34.6294 55.2932,35.1294 55.2932,35.7444 L55.2932,50.9894 L29.2632,50.9894 L29.2632,35.7444 Z M20.9162,56.9534 C20.9402,60.0184 24.1992,62.4144 28.3582,62.4144 L56.2002,62.4144 C60.3752,62.4144 63.6452,60.0014 63.6452,56.9194 L63.6412,56.9194 C63.6422,56.6174 63.5062,56.3234 63.2582,56.1294 L57.2932,51.4934 L57.2932,35.7444 C57.2932,34.0264 55.8962,32.6294 54.1782,32.6294 L30.3782,32.6294 C28.6602,32.6294 27.2632,34.0264 27.2632,35.7444 L27.2632,51.4934 L21.2992,56.1294 C21.0502,56.3234 20.9152,56.6174 20.9152,56.9194 L20.9132,56.9194 C20.9132,56.9224 20.9142,56.9244 20.9142,56.9264 C20.9142,56.9364 20.9152,56.9444 20.9162,56.9534 L20.9162,56.9534 Z" id="Fill-9" sketch:type="MSShapeGroup"></path>
            <path d="M35.7993,43.8687 L38.2353,39.6877 C38.3103,39.5597 38.3113,39.3997 38.2403,39.2687 L38.2393,39.2677 C38.1683,39.1377 38.0333,39.0577 37.8883,39.0577 L36.2593,39.0577 L36.2593,37.8027 C36.2593,37.3427 35.8983,36.9707 35.4503,36.9707 C35.0053,36.9707 34.6433,37.3427 34.6433,37.8027 L34.6433,39.0597 L33.0143,39.0597 C32.8683,39.0597 32.7343,39.1377 32.6633,39.2687 C32.5913,39.3997 32.5933,39.5597 32.6683,39.6877 L35.1043,43.8687 C35.1773,43.9947 35.3093,44.0717 35.4513,44.0717 C35.5943,44.0717 35.7263,43.9937 35.7993,43.8687" id="Fill-11" sketch:type="MSShapeGroup"></path>
            <path d="M33.438,43.9019 C33.438,43.4359 33.072,43.0589 32.619,43.0589 C32.167,43.0589 31.801,43.4359 31.801,43.9019 C31.801,44.3669 32.167,44.7449 32.619,44.7449 C33.072,44.7449 33.438,44.3669 33.438,43.9019" id="Fill-13" sketch:type="MSShapeGroup"></path>
            <path d="M33.7246,45.2915 C33.2726,45.2915 32.9056,45.6685 32.9056,46.1345 C32.9056,46.6005 33.2726,46.9775 33.7246,46.9775 C34.1766,46.9775 34.5436,46.6005 34.5436,46.1345 C34.5436,45.6685 34.1766,45.2915 33.7246,45.2915" id="Fill-15" sketch:type="MSShapeGroup"></path>
            <path d="M36.1794,45.2915 C35.7274,45.2915 35.3604,45.6685 35.3604,46.1345 C35.3604,46.6005 35.7274,46.9775 36.1794,46.9775 C36.6314,46.9775 36.9974,46.6005 36.9974,46.1345 C36.9974,45.6685 36.6314,45.2915 36.1794,45.2915" id="Fill-17" sketch:type="MSShapeGroup"></path>
            <path d="M38.3486,44.1113 C37.8966,44.1113 37.5296,44.4883 37.5296,44.9543 C37.5296,45.4203 37.8966,45.7973 38.3486,45.7973 C38.8006,45.7973 39.1676,45.4203 39.1676,44.9543 C39.1676,44.4883 38.8006,44.1113 38.3486,44.1113" id="Fill-19" sketch:type="MSShapeGroup"></path>
            <path d="M39.6174,41.8369 C39.1654,41.8369 38.7984,42.2139 38.7984,42.6799 C38.7984,43.1459 39.1654,43.5229 39.6174,43.5229 C40.0694,43.5229 40.4364,43.1459 40.4364,42.6799 C40.4364,42.2139 40.0694,41.8369 39.6174,41.8369" id="Fill-21" sketch:type="MSShapeGroup"></path>
            <path d="M41.009,39.73 C40.557,39.73 40.19,40.107 40.19,40.573 C40.19,41.039 40.557,41.416 41.009,41.416 C41.461,41.416 41.828,41.039 41.828,40.573 C41.828,40.107 41.461,39.73 41.009,39.73" id="Fill-23" sketch:type="MSShapeGroup"></path>
            <path d="M42.8098,39.5625 C43.2618,39.5625 43.6288,39.1855 43.6288,38.7195 C43.6288,38.2535 43.2618,37.8765 42.8098,37.8765 C42.3578,37.8765 41.9918,38.2535 41.9918,38.7195 C41.9918,39.1855 42.3578,39.5625 42.8098,39.5625" id="Fill-25" sketch:type="MSShapeGroup"></path>
            <path d="M45.1428,38.6772 C45.5948,38.6772 45.9618,38.3002 45.9618,37.8342 C45.9618,37.3692 45.5948,36.9912 45.1428,36.9912 C44.6908,36.9912 44.3238,37.3692 44.3238,37.8342 C44.3238,38.3002 44.6908,38.6772 45.1428,38.6772" id="Fill-27" sketch:type="MSShapeGroup"></path>
            <path d="M47.6396,37.2021 C47.1876,37.2021 46.8206,37.5791 46.8206,38.0451 C46.8206,38.5111 47.1876,38.8881 47.6396,38.8881 C48.0916,38.8881 48.4586,38.5111 48.4586,38.0451 C48.4586,37.5791 48.0916,37.2021 47.6396,37.2021" id="Fill-29" sketch:type="MSShapeGroup"></path>
            <path d="M49.9724,39.8564 C50.4244,39.8564 50.7914,39.4794 50.7914,39.0134 C50.7914,38.5474 50.4244,38.1704 49.9724,38.1704 C49.5204,38.1704 49.1544,38.5474 49.1544,39.0134 C49.1544,39.4794 49.5204,39.8564 49.9724,39.8564" id="Fill-31" sketch:type="MSShapeGroup"></path>
            <path d="M51.5688,41.8799 C52.0208,41.8799 52.3878,41.5029 52.3878,41.0369 C52.3878,40.5709 52.0208,40.1939 51.5688,40.1939 C51.1168,40.1939 50.7498,40.5709 50.7498,41.0369 C50.7498,41.5029 51.1168,41.8799 51.5688,41.8799" id="Fill-33" sketch:type="MSShapeGroup"></path>
            <path d="M51.9372,42.7217 C51.4852,42.7217 51.1182,43.0987 51.1182,43.5647 C51.1182,44.0307 51.4852,44.4077 51.9372,44.4077 C52.3892,44.4077 52.7552,44.0307 52.7552,43.5647 C52.7552,43.0987 52.3892,42.7217 51.9372,42.7217" id="Fill-35" sketch:type="MSShapeGroup"></path>
            <path d="M51.0366,45.0381 C50.5846,45.0381 50.2176,45.4151 50.2176,45.8811 C50.2176,46.3471 50.5846,46.7241 51.0366,46.7241 C51.4886,46.7241 51.8556,46.3471 51.8556,45.8811 C51.8556,45.4151 51.4886,45.0381 51.0366,45.0381" id="Fill-37" sketch:type="MSShapeGroup"></path>
            <path d="M49.2358,46.8496 C48.7838,46.8496 48.4168,47.2266 48.4168,47.6926 C48.4168,48.1586 48.7838,48.5356 49.2358,48.5356 C49.6878,48.5356 50.0548,48.1586 50.0548,47.6926 C50.0548,47.2266 49.6878,46.8496 49.2358,46.8496" id="Fill-39" sketch:type="MSShapeGroup"></path>
            <path d="M46.821,47.5239 C46.369,47.5239 46.002,47.9009 46.002,48.3669 C46.002,48.8329 46.369,49.2099 46.821,49.2099 C47.273,49.2099 47.64,48.8329 47.64,48.3669 C47.64,47.9009 47.273,47.5239 46.821,47.5239" id="Fill-41" sketch:type="MSShapeGroup"></path>
            <path d="M44.3652,46.9766 C43.9132,46.9766 43.5462,47.3536 43.5462,47.8196 C43.5462,48.2846 43.9132,48.6626 44.3652,48.6626 C44.8172,48.6626 45.1842,48.2846 45.1842,47.8196 C45.1842,47.3536 44.8172,46.9766 44.3652,46.9766" id="Fill-43" sketch:type="MSShapeGroup"></path>
            <path d="M43.8332,45.7124 C43.8332,45.2474 43.4662,44.8694 43.0142,44.8694 C42.5622,44.8694 42.1962,45.2474 42.1962,45.7124 C42.1962,46.1774 42.5622,46.5554 43.0142,46.5554 C43.4662,46.5554 43.8332,46.1774 43.8332,45.7124" id="Fill-45" sketch:type="MSShapeGroup"></path>
            <path d="M42.9736,43.396 C42.9736,43.861 43.3396,44.239 43.7926,44.239 C44.2446,44.239 44.6106,43.861 44.6106,43.396 C44.6106,42.931 44.2446,42.553 43.7926,42.553 C43.3396,42.553 42.9736,42.931 42.9736,43.396" id="Fill-47" sketch:type="MSShapeGroup"></path>
            <path d="M46.9846,42.9741 C46.9846,42.5081 46.6186,42.1311 46.1666,42.1311 C45.7136,42.1311 45.3476,42.5081 45.3476,42.9741 C45.3476,43.4391 45.7136,43.8171 46.1666,43.8171 C46.6186,43.8171 46.9846,43.4391 46.9846,42.9741" id="Fill-49" sketch:type="MSShapeGroup"></path>
            <path d="M46.821,44.4482 C46.369,44.4482 46.002,44.8252 46.002,45.2912 C46.002,45.7572 46.369,46.1342 46.821,46.1342 C47.273,46.1342 47.64,45.7572 47.64,45.2912 C47.64,44.8252 47.273,44.4482 46.821,44.4482" id="Fill-51" sketch:type="MSShapeGroup"></path>
            <path d="M139.8662,43.8232 L176.7532,43.8232 L176.7532,55.2562 L188.1852,43.8232 L198.1532,43.8232 C200.3122,43.8232 202.0682,42.0522 202.0682,39.8742 L202.0682,4.4752 C202.0682,2.2982 200.3122,0.5262 198.1532,0.5262 L198.1532,2.5262 C199.2092,2.5262 200.0682,3.4012 200.0682,4.4752 L200.0682,39.8742 C200.0682,40.9482 199.2092,41.8232 198.1532,41.8232 L187.3572,41.8232 L178.7532,50.4272 L178.7532,41.8232 L139.8662,41.8232 C138.8102,41.8232 137.9502,40.9482 137.9502,39.8742 L137.9502,4.4752 C137.9502,3.4012 138.8102,2.5262 139.8662,2.5262 L198.1522,2.5262 L198.1522,0.5262 L139.8662,0.5262 C137.7072,0.5262 135.9502,2.2982 135.9502,4.4752 L135.9502,39.8742 C135.9502,42.0522 137.7072,43.8232 139.8662,43.8232" id="Fill-53" sketch:type="MSShapeGroup"></path>
            <path d="M20.4175,171.2466 C19.9855,171.5906 19.9135,172.2196 20.2575,172.6516 C20.6005,173.0836 21.2295,173.1556 21.6625,172.8116 C21.9775,172.5626 53.4475,148.1206 83.3925,174.3686 C83.5825,174.5346 83.8175,174.6166 84.0515,174.6166 C84.3295,174.6166 84.6055,174.5006 84.8035,174.2756 C85.1675,173.8596 85.1265,173.2286 84.7105,172.8646 C53.5235,145.5256 20.7445,170.9866 20.4175,171.2466" id="Fill-55" sketch:type="MSShapeGroup"></path>
            <path d="M97.3628,123.4521 C79.3808,128.2111 68.9858,137.5371 68.5518,137.9311 C68.1428,138.3041 68.1128,138.9361 68.4848,139.3441 C68.8558,139.7521 69.4888,139.7831 69.8978,139.4111 C70.0008,139.3171 80.3608,130.0201 97.8738,125.3861 C114.0618,121.1021 139.8098,120.0771 170.5418,139.5161 C170.7078,139.6211 170.8928,139.6711 171.0758,139.6711 C171.4068,139.6711 171.7318,139.5071 171.9218,139.2061 C172.2168,138.7391 172.0778,138.1211 171.6118,137.8261 C140.2688,118.0011 113.9348,119.0671 97.3628,123.4521" id="Fill-57" sketch:type="MSShapeGroup"></path>
            <path d="M147.3061,81.2183 C144.3651,77.4193 141.9721,71.3983 141.9721,67.7973 C141.9721,60.6143 147.6751,54.7713 154.6841,54.7713 C161.6941,54.7713 167.3971,60.6143 167.3971,67.7973 L167.3981,67.7983 C167.3981,71.3693 164.7531,77.5333 161.2451,82.1353 C158.6341,85.5613 155.9611,88.9743 154.6791,90.6033 C153.3931,88.9913 150.6461,85.5303 147.3061,81.2183 M53.0051,138.0803 C52.6171,138.4733 52.6211,139.1063 53.0141,139.4943 C53.4061,139.8833 54.0401,139.8793 54.4281,139.4873 C54.5681,139.3453 68.6751,125.2793 91.6151,118.3183 C112.7431,111.9053 145.9471,110.3893 184.1201,139.5783 C184.3011,139.7173 184.5151,139.7833 184.7261,139.7833 C185.0281,139.7833 185.3251,139.6483 185.5221,139.3913 C185.8571,138.9523 185.7741,138.3243 185.3351,137.9893 C175.0571,130.1303 165.1321,124.4783 155.6851,120.5103 L155.6851,92.5583 C156.5241,91.4953 159.7211,87.4343 162.8361,83.3473 C166.6391,78.3583 169.3981,71.8183 169.3971,67.7973 C169.3971,59.5113 162.7971,52.7713 154.6841,52.7713 C146.5721,52.7713 139.9721,59.5113 139.9721,67.7973 C139.9721,71.8423 142.4991,78.2753 145.7251,82.4433 C149.7151,87.5933 152.8571,91.5303 153.6851,92.5633 L153.6851,119.6793 C128.2471,109.5633 106.4331,111.7143 90.9481,116.4303 C67.5511,123.5533 53.1481,137.9363 53.0051,138.0803" id="Fill-59" sketch:type="MSShapeGroup"></path>
            <path d="M18.1328,111.2046 C15.1918,107.4046 12.7988,101.3846 12.7988,97.7846 C12.7988,90.6016 18.5018,84.7586 25.5108,84.7586 C32.5208,84.7586 38.2238,90.6016 38.2238,97.7846 C38.2238,101.3546 35.5788,107.5186 32.0718,112.1216 C29.4598,115.5476 26.7858,118.9606 25.5048,120.5896 C24.2188,118.9786 21.4708,115.5166 18.1328,111.2046 M51.2498,144.1586 C42.0628,144.4266 33.6948,146.7606 26.5108,149.8596 L26.5108,122.5436 C27.3518,121.4786 30.5478,117.4206 33.6628,113.3346 C37.4648,108.3436 40.2238,101.8046 40.2238,97.7846 C40.2238,89.4986 33.6238,82.7586 25.5108,82.7586 C17.3988,82.7586 10.7988,89.4986 10.7988,97.7846 C10.7988,101.8286 13.3258,108.2616 16.5508,112.4296 C20.5408,117.5816 23.6848,121.5186 24.5108,122.5516 L24.5108,150.7576 C9.6858,157.6456 0.4068,167.4546 0.2678,167.6026 C-0.1082,168.0076 -0.0852,168.6406 0.3188,169.0166 C0.5108,169.1956 0.7558,169.2846 0.9998,169.2846 C1.2678,169.2846 1.5348,169.1776 1.7318,168.9656 C1.9368,168.7456 22.4978,146.9966 51.3078,146.1586 C69.3668,145.6186 86.8288,153.3206 103.2258,169.0066 C103.6248,169.3886 104.2578,169.3746 104.6398,168.9756 C105.0218,168.5766 105.0078,167.9436 104.6088,167.5616 C87.8098,151.4916 69.8668,143.6216 51.2498,144.1586" id="Fill-61" sketch:type="MSShapeGroup"></path>
            <path d="M168.0942,154.1328 C153.3032,158.6198 143.5462,167.6828 143.1382,168.0668 C142.7362,168.4448 142.7162,169.0778 143.0942,169.4798 C143.4722,169.8828 144.1052,169.9038 144.5082,169.5248 C144.6052,169.4328 154.3822,160.3628 168.7432,156.0258 C187.9012,150.2408 205.7262,155.1748 221.7232,170.6928 C221.9182,170.8808 222.1692,170.9748 222.4202,170.9748 C222.6802,170.9748 222.9412,170.8728 223.1372,170.6708 C223.5222,170.2748 223.5122,169.6418 223.1162,169.2568 C202.4672,149.2268 181.7982,149.9768 168.0942,154.1328" id="Fill-63" sketch:type="MSShapeGroup"></path>
            <path d="M154.1045,171.1426 C153.7055,171.5246 153.6905,172.1576 154.0725,172.5566 C154.4555,172.9566 155.0875,172.9696 155.4865,172.5886 C155.7555,172.3306 182.8475,147.1096 214.3215,174.7516 C214.5115,174.9176 214.7465,174.9996 214.9805,174.9996 C215.2585,174.9996 215.5355,174.8846 215.7325,174.6596 C216.0975,174.2456 216.0565,173.6136 215.6415,173.2486 C182.8075,144.4126 154.3875,170.8716 154.1045,171.1426" id="Fill-65" sketch:type="MSShapeGroup"></path>
            <path d="M159.0239,144.3813 C159.3449,144.3813 159.6599,144.2273 159.8539,143.9413 C160.1629,143.4843 160.0429,142.8613 159.5849,142.5523 C118.5229,114.8043 82.2569,140.7493 81.8959,141.0153 C81.4509,141.3413 81.3549,141.9673 81.6819,142.4123 C82.0079,142.8583 82.6329,142.9533 83.0789,142.6283 C83.4299,142.3713 118.5999,117.2693 158.4649,144.2103 C158.6369,144.3253 158.8319,144.3813 159.0239,144.3813" id="Fill-67" sketch:type="MSShapeGroup"></path>
            <path d="M181.4868,144.1587 C151.8498,145.0207 130.7148,167.3777 130.5048,167.6027 C130.1278,168.0077 130.1508,168.6397 130.5548,169.0157 C130.7478,169.1957 130.9918,169.2837 131.2368,169.2837 C131.5038,169.2837 131.7718,169.1777 131.9678,168.9657 C132.1728,168.7457 152.7348,146.9957 181.5448,146.1587 C199.6098,145.6187 217.0658,153.3207 233.4618,169.0067 C233.8608,169.3887 234.4948,169.3747 234.8758,168.9757 C235.2578,168.5757 235.2438,167.9437 234.8448,167.5617 C218.0478,151.4917 200.0998,143.6187 181.4868,144.1587" id="Fill-69" sketch:type="MSShapeGroup"></path>
            <path d="M36.7319,154.6636 C21.9449,159.1106 12.2459,167.8116 11.8399,168.1806 C11.4319,168.5516 11.4009,169.1836 11.7729,169.5926 C11.9699,169.8096 12.2409,169.9206 12.5129,169.9206 C12.7529,169.9206 12.9929,169.8346 13.1849,169.6606 C13.2809,169.5736 22.9499,160.8966 37.3079,156.5796 C56.5129,150.8026 74.4789,155.2056 90.7039,169.6666 C91.1159,170.0336 91.7479,169.9976 92.1159,169.5856 C92.4829,169.1736 92.4469,168.5416 92.0349,168.1736 C71.1349,149.5466 50.4259,150.5456 36.7319,154.6636" id="Fill-71" sketch:type="MSShapeGroup"></path>
            <path d="M25.5107,103.8281 C22.2117,103.8281 19.5287,101.0731 19.5287,97.6861 C19.5287,94.2991 22.2117,91.5441 25.5107,91.5441 C28.8097,91.5441 31.4937,94.2991 31.4937,97.6861 C31.4937,101.0731 28.8097,103.8281 25.5107,103.8281 M25.5107,89.5441 C21.1097,89.5441 17.5287,93.1961 17.5287,97.6861 C17.5287,102.1761 21.1097,105.8281 25.5107,105.8281 C29.9127,105.8281 33.4937,102.1761 33.4937,97.6861 C33.4937,93.1961 29.9127,89.5441 25.5107,89.5441" id="Fill-73" sketch:type="MSShapeGroup"></path>
            <path d="M148.7026,67.7007 C148.7026,64.3137 151.3866,61.5587 154.6856,61.5587 C157.9846,61.5587 160.6676,64.3137 160.6676,67.7007 C160.6676,71.0877 157.9846,73.8427 154.6856,73.8427 C151.3866,73.8427 148.7026,71.0877 148.7026,67.7007 M162.6676,67.7007 C162.6676,63.2107 159.0866,59.5587 154.6856,59.5587 C150.2836,59.5587 146.7026,63.2107 146.7026,67.7007 C146.7026,72.1907 150.2836,75.8427 154.6856,75.8427 C159.0866,75.8427 162.6676,72.1907 162.6676,67.7007" id="Fill-75" sketch:type="MSShapeGroup"></path>
            <path d="M240,115.7432 C240,119.6052 236.851,122.7472 232.979,122.7472 L198.929,122.7472 C195.058,122.7472 191.909,119.6052 191.909,115.7432 L191.909,115.3092 C191.909,111.4472 195.058,108.3052 198.929,108.3052 L202.753,108.3052 C203.292,108.3052 203.735,107.8772 203.753,107.3382 C203.881,103.5402 206.956,100.5652 210.753,100.5652 L211.138,100.5652 C212.146,100.5652 213.118,100.7762 214.028,101.1912 C214.523,101.4182 215.113,101.2042 215.347,100.7102 C216.502,98.2722 218.989,96.6962 221.682,96.6962 L222.066,96.6962 C225.929,96.6962 229.071,99.8432 229.071,103.7102 L229.07,107.3042 C229.07,107.5702 229.175,107.8242 229.363,108.0122 C229.55,108.1992 229.805,108.3052 230.07,108.3052 L232.979,108.3052 C236.851,108.3052 240,111.4472 240,115.3092 L240,115.7432 Z M232.979,106.3052 L231.071,106.3052 L231.071,103.7112 C231.071,98.7402 227.031,94.6962 222.066,94.6962 L221.682,94.6962 C218.535,94.6962 215.607,96.3692 213.986,99.0272 C213.072,98.7202 212.118,98.5652 211.138,98.5652 L210.753,98.5652 C206.199,98.5652 202.453,101.8942 201.837,106.3052 L198.929,106.3052 C193.955,106.3052 189.909,110.3442 189.909,115.3092 L189.909,115.7432 C189.909,120.7082 193.955,124.7472 198.929,124.7472 L232.979,124.7472 C237.953,124.7472 242,120.7082 242,115.7432 L242,115.3092 C242,110.3442 237.953,106.3052 232.979,106.3052 L232.979,106.3052 Z" id="Fill-77" sketch:type="MSShapeGroup"></path>
            <path d="M80.3369,86.7134 L82.4489,86.7134 C82.9829,86.7134 83.4239,86.2924 83.4479,85.7584 C83.5419,83.6594 85.2619,82.0144 87.3629,82.0144 C87.9499,82.0144 88.5149,82.1424 89.0389,82.3934 C89.2799,82.5074 89.5559,82.5234 89.8059,82.4324 C90.0569,82.3434 90.2619,82.1584 90.3749,81.9174 C91.0209,80.5494 92.4119,79.6654 93.9199,79.6654 C96.0819,79.6654 97.8389,81.4244 97.8389,83.5864 L97.8389,85.6354 C97.8339,85.7134 97.8369,85.7934 97.8489,85.8734 C97.9279,86.3584 98.3459,86.7134 98.8369,86.7134 L100.3979,86.7134 C102.6019,86.7134 104.3949,88.5044 104.3949,90.7054 C104.3949,92.9064 102.6019,94.6974 100.3989,94.6974 L80.3359,94.6974 C78.1319,94.6974 76.3399,92.9064 76.3399,90.7054 C76.3399,88.5044 78.1329,86.7134 80.3369,86.7134 M80.3359,96.6974 L100.3989,96.6974 C103.7049,96.6974 106.3949,94.0094 106.3949,90.7054 C106.3949,87.4014 103.7039,84.7134 100.3979,84.7134 L99.8389,84.7134 L99.8389,83.5864 C99.8389,80.3214 97.1839,77.6654 93.9199,77.6654 C91.9559,77.6654 90.1229,78.6574 89.0309,80.2534 C88.4929,80.0944 87.9349,80.0144 87.3629,80.0144 C84.5159,80.0144 82.1329,82.0134 81.5699,84.7134 L80.3369,84.7134 C77.0299,84.7134 74.3399,87.4014 74.3399,90.7054 C74.3399,94.0094 77.0299,96.6974 80.3359,96.6974" id="Fill-79" sketch:type="MSShapeGroup"></path>
            <path d="M11.2207,28.6084 C11.2207,27.4844 12.1197,26.5704 13.2257,26.5704 L71.3317,26.5714 C72.4377,26.5714 73.3367,27.4854 73.3367,28.6094 L73.3367,66.0444 C73.3367,67.1694 72.4377,68.0844 71.3317,68.0844 L56.4917,68.0844 L47.9627,76.6944 L47.8817,68.0844 L13.2257,68.0844 C12.1197,68.0844 11.2207,67.1684 11.2207,66.0434 L11.2207,28.6084 Z M13.2257,70.0844 L45.9007,70.0844 L46.0077,81.5104 L57.3257,70.0844 L71.3317,70.0844 C73.5397,70.0844 75.3367,68.2724 75.3367,66.0444 L75.3367,28.6094 C75.3367,26.3824 73.5397,24.5714 71.3317,24.5714 L13.2257,24.5704 C11.0177,24.5704 9.2207,26.3814 9.2207,28.6084 L9.2207,66.0434 C9.2207,68.2714 11.0177,70.0844 13.2257,70.0844 L13.2257,70.0844 Z" id="Fill-81" sketch:type="MSShapeGroup"></path>
        </g>
    </g>
</svg>