<svg width="199" height="189" viewBox="0 0 199 189" xmlns="http://www.w3.org/2000/svg">
  <g fill="none">
    <path
        d="M185.67 159.887l1.284-8.607-4.991-1.99c-.214-2.97-.948-5.82-2.119-8.456l3.496-4.137-5.15-6.991-5.004 2.168c-2.158-1.858-4.632-3.37-7.369-4.422l-.444-5.49-8.564-1.287-2.051 5.191c-2.872.23-5.629.95-8.187 2.092l-4.274-3.648-6.96 5.175 2.243 5.221c-1.796 2.113-3.259 4.532-4.295 7.197l-5.649.464-1.281 8.603 5.264 2.1c.213 2.858.911 5.601 2.013 8.153l-3.662 4.334 5.148 6.99 5.148-2.228c2.112 1.842 4.541 3.342 7.22 4.407l.451 5.57 8.564 1.282 2.023-5.117c2.924-.199 5.732-.918 8.336-2.06l4.154 3.545 6.958-5.172-2.138-4.983c1.888-2.178 3.42-4.688 4.491-7.464l5.347-.437zm-26.561-26.576c9.632 1.458 16.287 10.488 14.843 20.168-1.435 9.68-10.431 16.366-20.061 14.91-9.653-1.444-16.294-10.475-14.844-20.155 1.441-9.693 10.416-16.375 20.063-14.923zm38.382-22.983l-.687-4.799-3.03-.258c-.556-1.487-1.341-2.835-2.303-4.013l1.202-2.913-3.732-2.886-2.292 2.035c-1.371-.635-2.849-1.037-4.39-1.167l-1.1-2.893-4.593.718-.238 3.062c-1.468.586-2.795 1.429-3.951 2.464l-2.684-1.208-2.764 3.899 1.875 2.307c-.628 1.47-1.021 3.06-1.137 4.716l-2.676 1.11.688 4.8 2.867.243c.574 1.547 1.396 2.948 2.408 4.161l-1.146 2.779 3.732 2.885 2.226-1.977c1.397.636 2.902 1.037 4.471 1.149l1.085 2.854 4.593-.717.242-3.105c1.436-.594 2.738-1.43 3.871-2.457l2.762 1.242 2.762-3.897-1.965-2.416c.592-1.421.965-2.952 1.081-4.546l2.823-1.171zm-16.906-3.998c-2.164.34-3.658 2.45-3.334 4.711.321 2.261 2.342 3.822 4.505 3.482 2.168-.336 3.659-2.446 3.334-4.708-.323-2.263-2.339-3.823-4.505-3.485z"
        id="Shape" stroke="#F197AC" stroke-width="2.395"/>
    <g stroke="#E796AC" stroke-width="2.395">
      <path d="M156.741 53.296l-.003 53.181" fill="#AFDBC0"/>
      <g transform="translate(135.941 1)">
        <path
            d="M20.454.211c-10.595 0-19.183 8.775-19.183 19.6 0 5.517 3.55 14.183 7.756 19.61 6.56 8.462 11.426 14.507 11.426 14.507s5.195-6.555 10.291-13.234c5.042-6.608 8.894-15.465 8.894-20.883 0-10.825-8.588-19.6-19.183-19.6z"/>
        <ellipse cx="20.456" cy="19.676" rx="9.717" ry="9.928"/>
      </g>
    </g>
    <g>
      <path
          d="M185.963 70.769l-28.154-11.535c-.204-.089-.446-.089-.658 0l-28.143 11.535c-.331.137-.545.463-.542.823.003.36.228.683.562.81l11.354 4.337v8.779c0 4.296 8.311 8.357 17.1 8.357 8.792 0 17.103-4.062 17.103-8.357v-8.677l6.161-2.405v6.807c-1.043.367-1.802 1.345-1.802 2.518 0 .988.559 1.822 1.349 2.292l-1.216 1.948c-.167.271-.178.611-.024.892.153.278.446.453.762.453h3.657c.48 0 .872-.394.872-.879 0-.264-.115-.501-.3-.662l-1.096-1.753c.793-.47 1.353-1.304 1.353-2.292 0-1.173-.764-2.151-1.81-2.518v-7.489l3.459-1.352c.33-.13.552-.453.556-.813.003-.36-.212-.686-.543-.819z"
          fill="#fff"/>
      <path
          d="M185.963 70.769l-28.154-11.535c-.204-.089-.446-.089-.658 0l-28.143 11.535c-.331.137-.545.463-.542.823.003.36.228.683.562.81l11.354 4.337v8.779c0 4.296 8.311 8.357 17.1 8.357 8.792 0 17.103-4.062 17.103-8.357v-8.677l6.161-2.405v6.807c-1.043.367-1.802 1.345-1.802 2.518 0 .988.559 1.822 1.349 2.292l-1.216 1.948c-.167.271-.178.611-.024.892.153.278.446.453.762.453h3.657c.48 0 .872-.394.872-.879 0-.264-.115-.501-.3-.662l-1.096-1.753c.793-.47 1.353-1.304 1.353-2.292 0-1.173-.764-2.151-1.81-2.518v-7.489l3.459-1.352c.33-.13.552-.453.556-.813.003-.36-.212-.686-.543-.819zm-13.484 14.731c0 2.536-6.439 6.446-14.997 6.446-8.555 0-14.994-3.91-14.994-6.446v-7.923l15.011 5.732c.096.037.199.057.302.057.103 0 .21-.02.31-.057l14.368-5.615v7.806zm10.077-1.739c0 .518-.419.94-.937.94-.515 0-.931-.422-.931-.94s.415-.94.931-.94c.518 0 .937.422.937.94zm-24.766-2.792l-24.697-9.432 24.391-10 24.419 10.006-24.113 9.425z"
          fill="#E796AC"/>
    </g>
    <path
        d="M69.631 15.201c-.397-1.144-.904-2.053-1.522-2.726s-1.37-1.222-2.256-1.647c-.886-.424-1.753-.71-2.601-.858-.849-.148-1.753-.221-2.712-.221-.959 0-1.993.235-3.1.706-1.107.47-2.126 1.061-3.058 1.771-.932.71-1.73 1.375-2.394 1.993-.664.618-1.218 1.185-1.661 1.702-.332.406-.784.609-1.356.609-.572 0-1.024-.203-1.356-.609-.443-.517-.996-1.084-1.661-1.702-.664-.618-1.462-1.282-2.394-1.993-.932-.71-1.951-1.301-3.058-1.771-1.107-.47-2.14-.706-3.1-.706-.959 0-1.863.074-2.712.221-.849.148-1.716.434-2.601.858-.886.424-1.637.973-2.256 1.647-.618.673-1.125 1.582-1.522 2.726s-.595 2.463-.595 3.958c0 3.1 1.725 6.375 5.175 9.825l16.079 15.498 16.052-15.471c3.469-3.469 5.203-6.753 5.203-9.852 0-1.494-.198-2.814-.595-3.958zm3.244 4.231c0 3.914-2.03 7.898-6.089 11.953l-16.566 15.938c-.319.319-.709.478-1.17.478-.461 0-.851-.159-1.17-.478l-16.592-15.991c-.177-.142-.421-.372-.731-.691-.31-.319-.802-.899-1.476-1.74-.674-.841-1.276-1.704-1.808-2.59-.532-.885-1.006-1.957-1.423-3.214-.417-1.257-.625-2.479-.625-3.666 0-3.896 1.126-6.942 3.377-9.138 2.251-2.196 5.362-3.294 9.333-3.294 1.099 0 2.22.19 3.364.571 1.143.381 2.207.894 3.191 1.541.984.646 1.83 1.253 2.539 1.82.709.567 1.383 1.169 2.021 1.806.638-.638 1.312-1.24 2.021-1.806.709-.567 1.556-1.173 2.539-1.82.984-.646 2.047-1.16 3.191-1.541 1.143-.381 2.265-.571 3.364-.571 3.971 0 7.082 1.098 9.333 3.294 2.251 2.196 3.377 5.242 3.377 9.138z"
        fill="#F197AC"/>
    <path
        d="M54.784 42.421h5.711c5.287 0 9.578 4.289 9.578 9.579v3.822c0 5.284-4.288 9.579-9.578 9.579h-50.916c-5.287 0-9.578-4.289-9.578-9.579v-3.822c0-5.284 4.288-9.579 9.578-9.579h6.985v-1.241c0-5.281 4.287-9.573 9.576-9.573h3.781c.94 0 1.849.135 2.708.388 1.467-3.406 4.855-5.795 8.8-5.795h3.781c5.29 0 9.576 4.286 9.576 9.573v6.648z"
        stroke="#E796AC" stroke-width="2.635" fill="#fff"/>
    <g transform="translate(42.044 24.8)">
      <path fill="#E796AC" d="M27.435 54.487h3.658v3.632h-3.658z"/>
      <rect stroke="#E796AC" stroke-width="2.395" fill="#fff" x="3.658" width="104.254" height="134.401" rx="2.395"/>
      <path fill="#E796AC" d="M14.632 2.232h2.803v130.201h-2.803z"/>
      <rect fill="#E796AC" y="23.611" width="16.461" height="3" rx="2.395"/>
      <rect fill="#E796AC" y="50.854" width="16.461" height="3" rx="2.395"/>
      <rect fill="#E796AC" y="78.098" width="16.461" height="3" rx="2.395"/>
      <rect fill="#E796AC" y="105.341" width="16.461" height="3.632" rx="2.395"/>
      <rect stroke="#E796AC" stroke-width="2.395" x="27.435" y="12.714" width="31.093" height="27.243" rx="2.395"/>
      <path fill="#E796AC"
            d="M65.845 16.346h25.606v3h-25.606zm0 7.265h25.606v3h-25.606zm0 7.265h25.606v3h-25.606zm-29.265 23.611h54.87v3h-54.87zm-9.145 0h3.658v3.632h-3.658zm0 7.265h3.658v3.632h-3.658zm9.145-7.265h54.87v3h-54.87zm0 7.265h54.87v3h-54.87zm-9.145 7.265h3.658v3.632h-3.658zm9.145 0h54.87v3h-54.87zm-9.145 7.265h3.658v3.632h-3.658zm9.145 0h54.87v3h-54.87zm-9.145 16.346h3.658v3.632h-3.658zm0 7.265h3.658v3.632h-3.658zm9.145-7.265h54.87v3h-54.87zm0 7.265h54.87v3h-54.87zm-9.145 7.264h3.658v3.632h-3.658zm9.145 0h54.87v3h-54.87zm-9.145 7.265h3.658v3.632h-3.658zm9.145 0h54.87v3h-54.87z"/>
      <path
          d="M94.156.4c.151 0 .296.03.434.089.217.085.389.22.517.404.128.184.192.387.192.61v12.689c0 .223-.064.427-.192.61-.128.184-.301.318-.517.404-.125.053-.269.079-.434.079-.315 0-.588-.105-.818-.315l-4.346-4.174-4.346 4.174c-.236.217-.509.325-.818.325-.151 0-.296-.03-.434-.089-.217-.085-.389-.22-.517-.404-.128-.184-.192-.387-.192-.61v-12.689c0-.223.064-.427.192-.61.128-.184.301-.318.517-.404.138-.059.282-.089.434-.089h10.327z"
          fill="#F197AC"/>
    </g>
    <path
        d="M64.158 144.079c0 4.18-3.642 7.11-6.506 4.922v-22.966 54.874c0 3.177-2.624 5.741-5.88 5.741-3.257 0-5.88-2.565-5.88-5.741v-31.908h-3.363v31.908c0 3.177-2.623 5.741-5.884 5.741-3.255 0-5.878-2.566-5.878-5.741v-54.874 18.044 4.922c-2.351 1.513-6.508.159-6.508-4.922v-28.093c0-3.12 1.39-4.427 4.395-4.427h29.555c3.898 0 5.951.626 5.951 4.427v28.093h-.002zm-19.948-36.867c-5.745 0-10.378-4.523-10.378-10.13 0-5.607 4.634-10.13 10.378-10.13 5.741 0 10.374 4.523 10.374 10.13-.001 5.607-4.632 10.13-10.374 10.13z"
        stroke="#F39EB1" stroke-width="3.053" fill="#fff"/>
  </g>
</svg>
