<?xml version="1.0" encoding="UTF-8" standalone="no"?>
<svg width="51px" height="66px" viewBox="0 0 51 66" version="1.1" xmlns="http://www.w3.org/2000/svg" xmlns:xlink="http://www.w3.org/1999/xlink" xmlns:sketch="http://www.bohemiancoding.com/sketch/ns">
    <!-- Generator: Sketch 3.4.4 (17249) - http://www.bohemiancoding.com/sketch -->
    <title>icon-clubs-teaching</title>
    <desc>Created with Sketch.</desc>
    <defs>
        <path id="path-1" d="M0,0.255 L51,0.255 L51,66 L0,66 L0,0.255 Z"></path>
        <path id="path-3" d="M0,0.255 L43.2910156,0.255 L51,0.255 L51,66 L0,66 L0,0.255 Z"></path>
    </defs>
    <g id="Page-1" stroke="none" stroke-width="1" fill="none" fill-rule="evenodd" sketch:type="MSPage">
        <g id="icon-clubs-teaching" sketch:type="MSLayerGroup">
            <g id="Group-3">
                <mask id="mask-2" sketch:name="Clip 2" fill="white">
                    <use xlink:href="#path-1"></use>
                </mask>
                <g id="Clip-2"></g>
                <path d="M50,60.8843 C50,63.1543 48.153,65.0003 45.884,65.0003 L5.115,65.0003 C2.846,65.0003 1,63.1543 1,60.8843 L1,5.3713 C1,3.1013 2.846,1.2553 5.115,1.2553 L45.884,1.2553 C48.153,1.2553 50,3.1013 50,5.3713 L50,60.8843 Z M45.884,0.2553 L5.115,0.2553 C2.295,0.2553 0,2.5503 0,5.3713 L0,60.8843 C0,63.7053 2.295,66.0003 5.115,66.0003 L45.884,66.0003 C48.705,66.0003 51,63.7053 51,60.8843 L51,5.3713 C51,2.5503 48.705,0.2553 45.884,0.2553 L45.884,0.2553 Z" id="Fill-1" fill="#3379AC" sketch:type="MSShapeGroup" mask="url(#mask-2)"></path>
            </g>
            <path d="M40.9609,43.3545 L10.0379,43.3545 C9.7619,43.3545 9.5379,43.5785 9.5379,43.8545 C9.5379,44.1305 9.7619,44.3545 10.0379,44.3545 L40.9609,44.3545 C41.2369,44.3545 41.4609,44.1305 41.4609,43.8545 C41.4609,43.5785 41.2369,43.3545 40.9609,43.3545" id="Fill-4" fill="#3379AC" sketch:type="MSShapeGroup"></path>
            <path d="M40.9609,48.7612 L10.0379,48.7612 C9.7619,48.7612 9.5379,48.9852 9.5379,49.2612 C9.5379,49.5372 9.7619,49.7612 10.0379,49.7612 L40.9609,49.7612 C41.2369,49.7612 41.4609,49.5372 41.4609,49.2612 C41.4609,48.9852 41.2369,48.7612 40.9609,48.7612" id="Fill-6" fill="#3379AC" sketch:type="MSShapeGroup"></path>
            <path d="M40.9609,54.168 L10.0379,54.168 C9.7619,54.168 9.5379,54.392 9.5379,54.668 C9.5379,54.944 9.7619,55.168 10.0379,55.168 L40.9609,55.168 C41.2369,55.168 41.4609,54.944 41.4609,54.668 C41.4609,54.392 41.2369,54.168 40.9609,54.168" id="Fill-8" fill="#3379AC" sketch:type="MSShapeGroup"></path>
            <path d="M40.9609,11.0879 L10.0379,11.0879 C9.7619,11.0879 9.5379,11.3119 9.5379,11.5879 C9.5379,11.8639 9.7619,12.0879 10.0379,12.0879 L40.9609,12.0879 C41.2369,12.0879 41.4609,11.8639 41.4609,11.5879 C41.4609,11.3119 41.2369,11.0879 40.9609,11.0879" id="Fill-10" fill="#3379AC" sketch:type="MSShapeGroup"></path>
            <mask id="mask-4" sketch:name="Clip 15" fill="white">
                <use xlink:href="#path-3"></use>
            </mask>
            <g id="Clip-15"></g>
            <path d="M39.961,32.214 L11.038,32.214 L11.038,17.994 L39.961,17.994 L39.961,32.214 Z M40.961,16.995 L10.038,16.995 L10.038,33.215 L40.961,33.215 L40.961,16.995 Z" id="Fill-14" fill="#3379AC" sketch:type="MSShapeGroup" mask="url(#mask-4)"></path>
        </g>
    </g>
</svg>
