<?xml version="1.0" encoding="utf-8"?>
<!-- Generator: Adobe Illustrator 19.2.0, SVG Export Plug-In . SVG Version: 6.00 Build 0)  -->
<svg version="1.2" baseProfile="tiny" id="Layer_1" xmlns:sketch="http://www.bohemiancoding.com/sketch/ns"
	 xmlns="http://www.w3.org/2000/svg" xmlns:xlink="http://www.w3.org/1999/xlink" x="0px" y="0px" viewBox="0 0 202 202"
	 xml:space="preserve">
<g>
	<path fill="none" stroke="#3379AC" stroke-width="2" stroke-miterlimit="10" d="M102.6,189c-0.7,0-1.3,0-2,0
		c-4.9,0-9.8-0.4-14.5-1.2"/>
	<g>
		<path fill="none" stroke="#3379AC" stroke-width="2" stroke-miterlimit="10" d="M15.4,122.7c-1.4-5.4-2.4-11.3-2.7-17.5"/>
		<path fill="none" stroke="#3379AC" stroke-width="2" stroke-miterlimit="10" d="M166.7,159.3c-2.3,2.5-4.7,4.9-7.2,7.1"/>
		<path fill="none" stroke="#3379AC" stroke-width="2" stroke-miterlimit="10" d="M186.9,79.5c1.6,6.6,2.4,13.6,2.4,20.7
			c0,0.6,0,1.2,0,1.9"/>
		<path fill="none" stroke="#3379AC" stroke-width="2" stroke-miterlimit="10" d="M134.1,18.2c9.4,3.8,17.9,9.1,25.4,15.7"/>
		<path fill="none" stroke="#3379AC" stroke-width="2" stroke-miterlimit="10" d="M37.1,39c9.1-9.5,20.2-16.9,32.7-21.6"/>
		<g>
			<ellipse fill="none" stroke="#3379AC" stroke-width="2" stroke-miterlimit="10" cx="100.6" cy="35.4" rx="9.8" ry="26.1"/>
			<ellipse fill="none" stroke="#3379AC" stroke-width="2" stroke-miterlimit="10" cx="100.6" cy="35.4" rx="26.1" ry="9.8"/>
			
				<ellipse transform="matrix(0.7071 -0.7071 0.7071 0.7071 4.4332 81.5256)" fill="none" stroke="#3379AC" stroke-width="2" stroke-miterlimit="10" cx="100.6" cy="35.4" rx="9.8" ry="26.1"/>
			
				<ellipse transform="matrix(0.7071 -0.7071 0.7071 0.7071 4.4317 81.5254)" fill="none" stroke="#3379AC" stroke-width="2" stroke-miterlimit="10" cx="100.6" cy="35.4" rx="26.1" ry="9.8"/>
		</g>
		<g>
			<g>
				<g>
					<path fill="none" stroke="#3379AC" stroke-width="2" stroke-miterlimit="10" d="M82.7,171.1l2.6-1l-0.6-4.3l-2.8-0.2
						c-0.5-1.3-1.3-2.5-2.2-3.6l1.1-2.6l-3.5-2.6l-2.1,1.8c-1.3-0.6-2.7-0.9-4.1-1l-1-2.6l-4.3,0.6l-0.2,2.7
						c-1.4,0.5-2.6,1.3-3.7,2.2l-2.5-1.1l-2.6,3.5l1.8,2.1c-0.6,1.3-1,2.7-1.1,4.2l-2.5,1l0.6,4.3l2.7,0.2c0.5,1.4,1.3,2.6,2.3,3.7
						l-1.1,2.5l3.5,2.6l2.1-1.8c1.3,0.6,2.7,0.9,4.2,1l1,2.6l4.3-0.6l0.2-2.8c1.3-0.5,2.6-1.3,3.6-2.2l2.6,1.1l2.6-3.5l-1.8-2.2
						C82.2,173.9,82.6,172.5,82.7,171.1z"/>
				</g>
			</g>
			<path fill="none" stroke="#3379AC" stroke-width="2" stroke-miterlimit="10" d="M69.5,166.5c-2,0.3-3.4,2.2-3.1,4.2
				c0.3,2,2.2,3.4,4.2,3.1c2-0.3,3.4-2.2,3.1-4.2C73.4,167.6,71.6,166.2,69.5,166.5z"/>
		</g>
		<g>
			<g>
				<g>
					<path fill="none" stroke="#3379AC" stroke-width="2" stroke-miterlimit="10" d="M67.2,91.9l5.9-0.1l1.9-8.8l-5.3-2.5
						c0-3-0.5-5.8-1.5-8.5l4.1-4.2l-4.8-7.6L62,62.2c-2.1-2-4.5-3.8-7.2-5.1l-0.1-5.7L46,49.5l-2.4,5.1c-3,0-6,0.5-8.8,1.5l-4-3.9
						L23.2,57l1.9,5.3c-2.1,2.1-3.9,4.6-5.2,7.4l-5.5,0.1l-1.9,8.8l5,2.4c0,3.1,0.6,6.1,1.6,8.9l-3.9,4l4.8,7.6l5.3-1.9
						c2.1,2.1,4.6,3.8,7.3,5.1l0.1,5.7l8.8,1.9l2.5-5.2c3,0,5.9-0.6,8.6-1.6l4.1,4l7.6-4.8L62.3,99C64.3,97,66,94.6,67.2,91.9z"/>
				</g>
			</g>
			<circle fill="none" stroke="#3379AC" stroke-width="2" stroke-miterlimit="10" cx="43.6" cy="80.9" r="19.9"/>
			<circle fill="none" stroke="#3379AC" stroke-width="2" stroke-miterlimit="10" cx="43.6" cy="80.9" r="15.6"/>
			<circle fill="none" stroke="#3379AC" stroke-width="2" stroke-miterlimit="10" cx="43.6" cy="80.9" r="5.2"/>
		</g>
		<g>
			<g>
				<g>
					<path fill="none" stroke="#3379AC" stroke-width="2" stroke-miterlimit="10" d="M149,156.1l4.8-2.3l-1.9-8.5l-5.4-0.1
						c-1.3-2.7-3-5.1-5-7.1l1.8-5.1l-7.3-4.7l-3.9,3.8c-2.7-1-5.6-1.5-8.5-1.5l-2.4-4.9l-8.5,1.9l-0.1,5.5c-2.6,1.2-4.9,2.9-6.9,4.9
						l-5.3-1.9l-4.7,7.3l3.9,4c-0.9,2.6-1.4,5.4-1.5,8.3l-5.1,2.4l1.9,8.5l5.7,0.1c1.2,2.6,2.8,4.9,4.8,6.9l-1.9,5.3l7.3,4.7l4-3.9
						c2.6,1,5.5,1.5,8.3,1.5l2.4,5l8.5-1.9l0.1-5.5c2.7-1.2,5.1-2.9,7.1-4.9l5.1,1.8l4.7-7.3l-3.8-3.9
						C148.5,162,149,159.1,149,156.1z"/>
				</g>
			</g>
			<circle fill="none" stroke="#3379AC" stroke-width="2" stroke-miterlimit="10" cx="123.7" cy="156.2" r="19.2"/>
			<circle fill="none" stroke="#3379AC" stroke-width="2" stroke-miterlimit="10" cx="123.7" cy="156.2" r="5.1"/>
		</g>
		<g>
			<path fill="none" stroke="#3379AC" stroke-width="2" stroke-miterlimit="10" d="M185.9,122.7c0-8.9-7-16.1-15.7-16.1
				c-8.7,0-15.7,7.2-15.7,16.1c0,4.5,2.9,11.6,6.4,16.1c5.4,6.9,9.4,11.9,9.4,11.9s4.3-5.4,8.4-10.9
				C182.8,134.4,185.9,127.2,185.9,122.7z"/>
			<ellipse fill="none" stroke="#3379AC" stroke-width="2" stroke-miterlimit="10" cx="170.2" cy="122.6" rx="8" ry="8.2"/>
		</g>
		<path fill="none" stroke="#3379AC" stroke-width="2" stroke-miterlimit="10" d="M67.2,36.7c0-3-2.4-5.4-5.3-5.4s-5.3,2.4-5.3,5.4
			c0,1.5,1,3.9,2.1,5.4c1.8,2.3,3.2,4,3.2,4s1.4-1.8,2.8-3.7C66.1,40.7,67.2,38.2,67.2,36.7z"/>
		<path fill="none" stroke="#3379AC" stroke-width="2" stroke-miterlimit="10" d="M48,114.4C48,114.4,48,114.4,48,114.4"/>
		<g>
			<g>
				<g>
					<path fill="none" stroke="#3379AC" stroke-width="2" stroke-miterlimit="10" d="M121.6,107.3l0.9-6l-3.5-1.4
						c-0.2-2.1-0.7-4.1-1.5-5.9l2.5-2.9l-3.6-4.9l-3.5,1.5c-1.5-1.3-3.3-2.4-5.2-3.1l-0.3-3.8l-6-0.9l-1.4,3.6c-2,0.2-4,0.7-5.7,1.5
						l-3-2.5L86.3,86l1.6,3.6c-1.3,1.5-2.3,3.2-3,5l-4,0.3l-0.9,6l3.7,1.5c0.1,2,0.6,3.9,1.4,5.7l-2.6,3l3.6,4.9l3.6-1.6
						c1.5,1.3,3.2,2.3,5.1,3.1l0.3,3.9l6,0.9l1.4-3.6c2.1-0.1,4-0.6,5.9-1.4l2.9,2.5l4.9-3.6l-1.5-3.5c1.3-1.5,2.4-3.3,3.2-5.2
						L121.6,107.3z"/>
				</g>
			</g>
			<path fill="none" stroke="#3379AC" stroke-width="2" stroke-miterlimit="10" d="M103.2,88.7c6.9,1,11.6,7.4,10.6,14.3
				c-1,6.9-7.4,11.6-14.3,10.6c-6.9-1-11.6-7.4-10.6-14.3C89.9,92.4,96.3,87.7,103.2,88.7z"/>
		</g>
		<path fill="none" stroke="#3379AC" stroke-width="2" stroke-miterlimit="10" d="M85.3,141c-10.4-4.2-18.8-12.3-23.3-22.4"/>
		<path fill="none" stroke="#3379AC" stroke-width="2" stroke-miterlimit="10" d="M144.2,103.1c-0.3,6.2-1.9,12.1-4.5,17.3"/>
		<path fill="none" stroke="#3379AC" stroke-width="2" stroke-miterlimit="10" d="M87.6,130.2c-6.7-3.2-12.2-8.6-15.4-15.3"/>
		<path fill="none" stroke="#3379AC" stroke-width="2" stroke-miterlimit="10" d="M133.3,102.2c-0.2,5.1-1.5,10-3.9,14.2"/>
		<path fill="none" stroke="#3379AC" stroke-width="2" stroke-miterlimit="10" d="M81,76.3c5.5-4.5,12.6-7.2,20.3-7.2
			c6.2,0,12,1.8,16.9,4.8"/>
		<path fill="none" stroke="#3379AC" stroke-width="2" stroke-miterlimit="10" d="M176.6,75.3c0,2.4-2,4-3.6,2.8c0,0,0-1.3,0-2.8
			V65.1l0,0v31.2c0,1.8-1.5,3.3-3.3,3.3c-1.8,0-3.3-1.5-3.3-3.3V78.1h-1.9v18.1c0,1.8-1.5,3.3-3.3,3.3c-1.8,0-3.3-1.5-3.3-3.3V65.1
			l0,0v10.2c0,1.5,0,2.8,0,2.8c-1.3,0.9-3.6,0.1-3.6-2.8V59.4c0-1.8,0.8-2.5,2.4-2.5h16.4c2.2,0,3.3,0.4,3.3,2.5L176.6,75.3
			L176.6,75.3z M165.6,54.4c-3.2,0-5.8-2.6-5.8-5.8c0-3.2,2.6-5.8,5.8-5.8s5.8,2.6,5.8,5.8C171.3,51.8,168.7,54.4,165.6,54.4z"/>
		<path fill="none" stroke="#3379AC" stroke-width="2" stroke-miterlimit="10" d="M145.8,75.7c0,1.5-2.3,1.8-2.3,1.8v11.7
			c0,1.2-0.9,2.1-2.1,2.1c-1.2,0-2.1-0.9-2.1-2.1V77.5h-1.2v11.7c0,1.2-0.9,2.1-2.1,2.1c-1.2,0-2.1-0.9-2.1-2.1V69.1l0,0l-7.7-9.5
			c-1.1-1.2,0.2-3.1,1.6-1.9c0,0,6.4,6.1,7.5,6.1h8.5c1.4,0,2.1,0.2,2.1,1.6L145.8,75.7L145.8,75.7z M138.7,62.2
			c-2.1,0-3.7-1.7-3.7-3.7s1.7-3.7,3.7-3.7c2.1,0,3.7,1.7,3.7,3.7S140.8,62.2,138.7,62.2z"/>
		<g>
			<path fill="none" stroke="#3379AC" stroke-width="2" stroke-miterlimit="10" d="M47.6,122.2c-1.2,0-2.2,1-2.2,2.1v9.2h-0.9v-11.4
				c0-1.2-1-2.1-2.2-2.1s-2.2,1-2.2,2.1v11.4h-0.9v-11.4c0-1.2-1-2.1-2.2-2.1s-2.2,1-2.2,2.1v11.4h-0.9v-9.2c0-1.2-0.9-2.1-2.1-2.1
				c-1.2,0-2.2,1-2.2,2.1v16.3l-2.3-4.6c-0.5-1-2.1-1.5-3.1-1c-1,0.5-1.7,1.9-1.2,3c0,0,5.1,10.3,6.2,11.7c1.4,1.9,2.7,2.9,5.5,2.9
				c2.8,0,8,0,8,0c4.1,0,6.8-4.1,6.8-8.2v-5.2v-5.8v-9.1C49.8,123.2,48.8,122.2,47.6,122.2z"/>
			<path fill="none" stroke="#3379AC" stroke-width="2" stroke-miterlimit="10" d="M29.9,141c0,0,3.2-0.2,5.8,1.6
				c2.6,1.8,3.5,4,3.5,4"/>
			<path fill="none" stroke="#3379AC" stroke-width="2" stroke-miterlimit="10" d="M39,138.5c0,0,1.4,2.1,4,3.4
				c3.2,1.6,6.1,0.9,6.1,0.9"/>
			<line fill="none" stroke="#3379AC" stroke-width="2" stroke-miterlimit="10" x1="34.1" y1="134.1" x2="49" y2="134.1"/>
		</g>
		<path fill="none" stroke="#3379AC" stroke-width="2" stroke-miterlimit="10" d="M46.5,168.4c-3.2-2.6-6.1-5.4-8.9-8.5"/>
		<path fill="none" stroke="#3379AC" stroke-width="2" stroke-miterlimit="10" d="M20.3,43.4C8.7,59.6,1.9,79.5,1.9,101
			c0,54.7,44.3,99,99,99s99-44.3,99-99c0-28-11.6-53.3-30.3-71.3"/>
		<path fill="none" stroke="#3379AC" stroke-width="2" stroke-miterlimit="10" d="M169.6,172.3c18.7-18,30.3-43.3,30.3-71.3
			c0-54.7-44.3-99-99-99s-99,44.3-99,99c0,21.5,6.8,41.3,18.5,57.6"/>
	</g>
</g>
</svg>
