<?xml version="1.0" encoding="utf-8"?>
<!-- Generator: Adobe Illustrator 19.2.0, SVG Export Plug-In . SVG Version: 6.00 Build 0)  -->
<svg version="1.1" id="Layer_1" xmlns:sketch="http://www.bohemiancoding.com/sketch/ns"
	 xmlns="http://www.w3.org/2000/svg" xmlns:xlink="http://www.w3.org/1999/xlink" x="0px" y="0px" viewBox="0 0 62 37"
	 style="enable-background:new 0 0 62 37;" xml:space="preserve">
<style type="text/css">
	.st0{fill:#E78832;}
</style>
<title>icon-university</title>
<desc>Created with Sketch.</desc>
<g id="Page-1" sketch:type="MSPage">
	<path id="icon-university" sketch:type="MSShapeGroup" class="st0" d="M31,24.5L1.8,12.8L31,1l29.2,11.8L31,24.5z M48.6,27.3
		c0,4.3-8.7,8.4-17.6,8.4s-17.6-4.2-17.6-8.4v-8.8l17.5,7c0.1,0,0.1,0,0.2,0s0.1,0,0.2,0l17.5-7V27.3z M56.3,27.1
		c0,0.8-0.7,1.5-1.5,1.5c-0.8,0-1.5-0.7-1.5-1.5c0-0.8,0.7-1.5,1.5-1.5C55.6,25.6,56.3,26.3,56.3,27.1L56.3,27.1z M55.8,31.6
		c0,0,0,0.1,0,0.1c0,0-0.1,0.1-0.1,0.1h-1.9c0,0-0.1,0-0.1-0.1c0,0,0-0.1,0-0.1l0.9-1.5c0,0,0.1,0,0.1,0c0,0,0.1,0,0.1,0L55.8,31.6z
		 M61.7,12.3L31.2,0c-0.1,0-0.3,0-0.4,0L0.3,12.3C0.1,12.4,0,12.6,0,12.8c0,0.2,0.1,0.4,0.3,0.5l12,4.9v9.2c0,4.9,8.9,9.4,18.6,9.4
		s18.6-4.5,18.6-9.4v-9.2l4.6-1.9v8.4c-1.1,0.2-2,1.2-2,2.5c0,1.1,0.7,2,1.7,2.3c0,0-0.1,0.1-0.1,0.1l-0.9,1.5
		c-0.2,0.3-0.2,0.8,0,1.1c0.2,0.4,0.6,0.6,1,0.6h1.9c0.4,0,0.8-0.2,1-0.6c0.2-0.4,0.2-0.8,0-1.1l-0.9-1.5c0,0-0.1-0.1-0.1-0.1
		c1-0.3,1.7-1.3,1.7-2.3c0-1.2-0.9-2.2-2-2.5v-8.8l6.4-2.6c0.2-0.1,0.3-0.3,0.3-0.5C62,12.6,61.9,12.4,61.7,12.3L61.7,12.3z"/>
</g>
</svg>
