<?xml version="1.0" encoding="utf-8"?>
<!-- Generator: Adobe Illustrator 19.2.0, SVG Export Plug-In . SVG Version: 6.00 Build 0)  -->
<svg version="1.1" id="Layer_1" xmlns:sketch="http://www.bohemiancoding.com/sketch/ns"
	 xmlns="http://www.w3.org/2000/svg" xmlns:xlink="http://www.w3.org/1999/xlink" x="0px" y="0px" viewBox="0 0 60 34"
	 style="enable-background:new 0 0 60 34;" xml:space="preserve">
<style type="text/css">
	.st0{filter:url(#Adobe_OpacityMaskFilter);}
	.st1{fill:#FFFFFF;}
	.st2{mask:url(#mask-2);fill:#E78832;}
</style>
<title>icon-community</title>
<desc>Created with Sketch.</desc>
<g id="Page-1" sketch:type="MSPage">
	<g id="icon-community" sketch:type="MSLayerGroup">
		<g id="Clip-2">
		</g>
		<defs>
			<filter id="Adobe_OpacityMaskFilter" filterUnits="userSpaceOnUse" x="0" y="0.7" width="60" height="33.3">
				<feColorMatrix  type="matrix" values="1 0 0 0 0  0 1 0 0 0  0 0 1 0 0  0 0 0 1 0"/>
			</filter>
		</defs>
		<mask maskUnits="userSpaceOnUse" x="0" y="0.7" width="60" height="33.3" id="mask-2">
			<g class="st0">
				<path id="path-1" class="st1" d="M0,0.7h60V34H0"/>
			</g>
		</mask>
		<path id="Fill-1" sketch:type="MSShapeGroup" class="st2" d="M48.9,26.7c-2.4,0-4.5-0.3-6.2-0.8c0,0-0.1,0-0.1,0
			c-0.4-2.4-1.6-4.7-3.3-6.5c0.7-2.2,2.2-4.1,4.2-5.4c0.1-0.1,0.2-0.2,0.2-0.4c0-0.1,0-0.3-0.1-0.4c-1.1-1.2-1.7-2.9-1.7-4.6
			c0-3.9,3.2-7,7.1-7s7.1,3.2,7.1,7c0,1.6-0.6,3.3-1.7,4.6c-0.1,0.1-0.1,0.3-0.1,0.4s0.1,0.3,0.2,0.3c2.9,1.8,4.6,4.9,4.6,8.4
			C59,25.3,53.8,26.7,48.9,26.7 M30,33c-5.7,0-11.8-1.6-11.8-5c0-4,2.1-7.7,5.5-9.9c0.1-0.1,0.2-0.2,0.2-0.4c0-0.1,0-0.3-0.1-0.4
			c-1.3-1.5-2.1-3.4-2.1-5.4c0-4.5,3.7-8.2,8.2-8.2s8.2,3.7,8.2,8.2c0,2-0.7,3.9-2.1,5.4c-0.1,0.1-0.1,0.3-0.1,0.4
			c0,0.1,0.1,0.3,0.2,0.4c3.4,2.2,5.5,5.9,5.5,9.9C41.8,31.5,35.8,33,30,33 M17.3,25.8c-1.7,0.5-3.9,0.8-6.2,0.8
			C6.2,26.7,1,25.3,1,22.4c0-3.5,1.7-6.6,4.6-8.4c0.1-0.1,0.2-0.2,0.2-0.4c0-0.1,0-0.3-0.1-0.4C4.6,12,4,10.3,4,8.6
			c0-3.8,3.2-7,7.1-7s7.1,3.2,7.1,7c0,1.6-0.6,3.3-1.7,4.6c-0.1,0.1-0.1,0.3-0.1,0.4c0,0.1,0.1,0.3,0.2,0.3c2,1.2,3.4,3.1,4.2,5.4
			c-1.7,1.8-2.8,4-3.3,6.5C17.4,25.8,17.4,25.8,17.3,25.8 M55.4,13.5c1.1-1.4,1.6-3.1,1.6-4.8c0-4.4-3.6-8-8.1-8s-8.1,3.6-8.1,8
			c0,1.7,0.6,3.4,1.6,4.8c-1.8,1.3-3.2,3-3.9,5.1c-0.4-0.3-0.8-0.7-1.2-1c1.3-1.6,2-3.6,2-5.6c0-5-4.1-9.2-9.2-9.2
			c-5.1,0-9.2,4.1-9.2,9.2c0,2,0.7,4,2,5.6c-0.4,0.3-0.8,0.6-1.2,1c-0.8-2.1-2.2-3.9-3.9-5.1c1.1-1.4,1.6-3.1,1.6-4.8
			c0-4.4-3.6-8-8.1-8C6.6,0.7,3,4.2,3,8.6c0,1.7,0.6,3.4,1.6,4.8c-2.9,2-4.6,5.3-4.6,9c0,3.7,5.6,5.3,11.1,5.3
			c2.3,0,4.5-0.3,6.2-0.8c0,0.4-0.1,0.8-0.1,1.1c0,4.1,6.4,6,12.8,6c5.9,0,12.8-1.6,12.8-6c0-0.4,0-0.8-0.1-1.1
			c1.8,0.5,3.9,0.8,6.2,0.8c5.5,0,11.1-1.6,11.1-5.3C60,18.8,58.3,15.5,55.4,13.5"/>
	</g>
</g>
</svg>
