<?xml version="1.0" encoding="UTF-8" standalone="no"?>
<svg width="200px" height="258px" viewBox="0 0 200 258" version="1.1" xmlns="http://www.w3.org/2000/svg" xmlns:xlink="http://www.w3.org/1999/xlink" xmlns:sketch="http://www.bohemiancoding.com/sketch/ns">
    <!-- Generator: Sketch 3.4.4 (17249) - http://www.bohemiancoding.com/sketch -->
    <title>icon-circle-clubs</title>
    <desc>Created with Sketch.</desc>
    <defs></defs>
    <g id="Page-1" stroke="none" stroke-width="1" fill="none" fill-rule="evenodd" sketch:type="MSPage">
        <g id="icon-circle-clubs" sketch:type="MSLayerGroup" fill="#3379AC">
            <path d="M100,256 C45.962,256 2,212.038 2,158 C2,138.034 7.953,118.911 19.203,102.556 C19.988,102.968 20.88,103.204 21.827,103.204 C24.953,103.204 27.496,100.661 27.496,97.535 C27.496,96.072 26.935,94.742 26.023,93.735 C44.675,72.279 71.539,60 100,60 C104.784,60 109.579,60.365 114.282,61.051 C114.282,61.068 114.28,61.083 114.28,61.1 C114.28,64.226 116.823,66.77 119.95,66.77 C122.306,66.77 124.33,65.324 125.184,63.273 C137.873,66.635 149.569,72.429 159.982,80.505 C159.432,81.378 159.109,82.408 159.109,83.514 C159.109,86.64 161.652,89.184 164.779,89.184 C166.167,89.184 167.438,88.681 168.424,87.85 C187.499,106.452 198,131.335 198,158 C198,212.038 154.038,256 100,256 M21.827,93.865 C23.85,93.865 25.496,95.511 25.496,97.535 C25.496,99.558 23.85,101.204 21.827,101.204 C19.803,101.204 18.157,99.558 18.157,97.535 C18.157,95.511 19.803,93.865 21.827,93.865 M10.042,50.663 C10.042,44.004 15.329,38.587 21.827,38.587 C28.324,38.587 33.61,44.004 33.61,50.663 C33.61,53.979 31.15,59.708 27.888,63.988 C25.489,67.135 23.035,70.271 21.82,71.814 C20.601,70.285 18.069,67.093 15.001,63.132 C12.267,59.601 10.042,54.006 10.042,50.663 M119.95,57.43 C121.973,57.43 123.619,59.076 123.619,61.1 C123.619,63.123 121.973,64.77 119.95,64.77 C117.926,64.77 116.28,63.123 116.28,61.1 C116.28,59.076 117.926,57.43 119.95,57.43 M108.166,14.228 C108.166,7.569 113.452,2.152 119.95,2.152 C126.447,2.152 131.733,7.569 131.733,14.228 C131.733,17.544 129.273,23.272 126.011,27.553 C123.612,30.7 121.157,33.835 119.943,35.379 C118.724,33.85 116.192,30.658 113.125,26.698 C110.39,23.166 108.166,17.572 108.166,14.228 M152.995,36.642 C152.995,29.983 158.281,24.566 164.779,24.566 C171.277,24.566 176.563,29.983 176.563,36.642 C176.563,39.958 174.103,45.686 170.84,49.967 C168.441,53.114 165.987,56.25 164.772,57.793 C163.553,56.264 161.021,53.072 157.954,49.112 C155.219,45.58 152.995,39.986 152.995,36.642 M168.449,83.514 C168.449,85.537 166.802,87.184 164.779,87.184 C162.755,87.184 161.109,85.537 161.109,83.514 C161.109,81.49 162.755,79.844 164.779,79.844 C166.802,79.844 168.449,81.49 168.449,83.514 M169.707,86.307 C170.177,85.481 170.449,84.53 170.449,83.514 C170.449,80.729 168.429,78.413 165.779,77.938 L165.779,59.748 C166.581,58.731 169.543,54.968 172.431,51.179 C175.984,46.517 178.563,40.403 178.563,36.642 C178.563,28.881 172.379,22.566 164.779,22.566 C157.178,22.566 150.995,28.881 150.995,36.642 C150.995,40.426 153.357,46.441 156.373,50.336 C160.072,55.112 162.987,58.766 163.779,59.754 L163.779,77.938 C162.87,78.101 162.037,78.48 161.333,79.022 C150.652,70.711 138.643,64.757 125.608,61.316 C125.611,61.244 125.619,61.173 125.619,61.1 C125.619,58.315 123.6,55.998 120.95,55.523 L120.95,37.334 C121.752,36.317 124.714,32.554 127.602,28.765 C131.155,24.103 133.733,17.99 133.733,14.228 C133.733,6.467 127.55,0.152 119.95,0.152 C112.349,0.152 106.166,6.467 106.166,14.228 C106.166,18.012 108.528,24.027 111.543,27.922 C115.242,32.698 118.158,36.352 118.95,37.34 L118.95,55.523 C116.975,55.877 115.356,57.253 114.656,59.084 C109.83,58.376 104.909,58 100,58 C70.921,58 43.475,70.562 24.44,92.508 C23.941,92.248 23.399,92.061 22.827,91.958 L22.827,73.769 C23.629,72.752 26.591,68.989 29.479,65.2 C33.032,60.539 35.61,54.425 35.61,50.663 C35.61,42.901 29.427,36.587 21.827,36.587 C14.226,36.587 8.042,42.901 8.042,50.663 C8.042,54.447 10.405,60.462 13.42,64.357 C17.119,69.133 20.035,72.787 20.827,73.775 L20.827,91.958 C18.176,92.433 16.157,94.75 16.157,97.535 C16.157,98.993 16.715,100.32 17.623,101.325 C6.098,118.037 0,137.586 0,158 C0,213.14 44.86,258 100,258 C155.14,258 200,213.14 200,158 C200,130.738 189.243,105.3 169.707,86.307" id="Fill-1" sketch:type="MSShapeGroup"></path>
            <path d="M10.7227,162.2197 C11.0537,168.2137 11.9877,174.1787 13.5007,179.9497 L15.4347,179.4427 C13.9567,173.8017 13.0427,167.9697 12.7197,162.1097 L10.7227,162.2197 Z" id="Fill-3" sketch:type="MSShapeGroup"></path>
            <path d="M85.6343,243.46 L85.3083,245.434 C90.1353,246.231 95.0783,246.635 100.0003,246.635 C100.6663,246.635 101.3303,246.628 101.9923,246.613 L101.9463,244.614 C96.5123,244.738 90.9923,244.346 85.6343,243.46" id="Fill-5" sketch:type="MSShapeGroup"></path>
            <path d="M157.915,222.7002 L159.241,224.1972 C161.787,221.9432 164.231,219.5162 166.509,216.9842 L165.021,215.6472 C162.795,218.1232 160.404,220.4962 157.915,222.7002" id="Fill-7" sketch:type="MSShapeGroup"></path>
            <path d="M186.9531,136.2939 L185.0081,136.7609 C186.6051,143.4189 187.4141,150.3019 187.4141,157.2189 C187.4141,157.8309 187.4091,158.4399 187.3961,159.0489 L189.3961,159.0899 C189.4091,158.4679 189.4141,157.8449 189.4141,157.2189 C189.4141,150.1449 188.5861,143.1049 186.9531,136.2939" id="Fill-9" sketch:type="MSShapeGroup"></path>
            <path d="M159.207,90.2134 C151.574,83.4644 142.935,78.1114 133.531,74.3034 L132.78,76.1574 C141.974,79.8804 150.419,85.1124 157.882,91.7114 L159.207,90.2134 Z" id="Fill-11" sketch:type="MSShapeGroup"></path>
            <path d="M69.2446,75.3691 L68.5406,73.4971 C56.1216,78.1651 44.6796,85.7201 35.4516,95.3441 L36.8946,96.7271 C45.9176,87.3181 57.1036,79.9321 69.2446,75.3691" id="Fill-13" sketch:type="MSShapeGroup"></path>
            <path d="M81.7229,86.3687 C82.7329,88.3107 84.0149,90.3477 85.5369,92.4237 C84.0149,94.4997 82.7329,96.5367 81.7229,98.4787 C77.1899,96.8057 74.5819,94.5767 74.5819,92.4237 C74.5819,90.2707 77.1909,88.0427 81.7229,86.3687 M81.9489,74.6417 C82.5959,73.9947 83.5809,73.6737 84.8369,73.6737 C86.5089,73.6737 88.6609,74.2437 91.1329,75.3687 C91.1769,75.3887 91.2219,75.4137 91.2649,75.4337 C90.6099,77.5147 90.0769,79.8497 89.6869,82.3827 C87.1459,82.7727 84.8019,83.3087 82.7169,83.9667 C80.6989,79.5827 80.4279,76.1627 81.9489,74.6417 M99.7279,67.2767 C101.8809,67.2767 104.1089,69.8857 105.7829,74.4187 C103.8449,75.4267 101.8109,76.7057 99.7389,78.2237 C97.6909,76.7187 95.6519,75.4297 93.6809,74.3967 C95.3539,69.8767 97.5789,67.2767 99.7279,67.2767 M114.5909,73.6677 C115.8629,73.6677 116.8599,73.9927 117.5109,74.6427 C119.0329,76.1647 118.7609,79.5837 116.7439,83.9677 C114.6569,83.3087 112.3119,82.7727 109.7689,82.3817 C109.3779,79.8397 108.8419,77.4937 108.1839,75.4077 C110.6949,74.2517 112.8899,73.6677 114.5909,73.6677 M124.8769,92.4237 C124.8769,94.5767 122.2689,96.8047 117.7379,98.4777 C116.7279,96.5357 115.4469,94.4987 113.9239,92.4237 C115.4459,90.3477 116.7279,88.3107 117.7379,86.3687 C122.2689,88.0427 124.8769,90.2717 124.8769,92.4237 M117.5119,110.2047 C116.0029,111.7137 112.6559,111.4487 108.3279,109.4767 C108.2839,109.4567 108.2369,109.4307 108.1929,109.4107 C108.8469,107.3317 109.3799,104.9967 109.7689,102.4657 C112.3129,102.0747 114.6579,101.5387 116.7449,100.8797 C118.7619,105.2647 119.0339,108.6837 117.5119,110.2047 M99.7279,117.5717 C97.5769,117.5717 95.3499,114.9667 93.6769,110.4397 C95.6179,109.4307 97.6559,108.1497 99.7299,106.6287 C101.7749,108.1307 103.8089,109.4167 105.7769,110.4487 C104.1039,114.9707 101.8779,117.5717 99.7279,117.5717 M89.0849,96.8127 C89.1609,98.0477 89.2689,99.2517 89.4079,100.4207 C87.2729,100.0757 85.3309,99.6287 83.6039,99.1067 C84.4579,97.5137 85.5089,95.8237 86.7779,94.0657 C87.4979,94.9797 88.2759,95.8967 89.0849,96.8127 M88.9599,91.2537 C88.9539,91.6417 88.9489,92.0317 88.9489,92.4237 C88.9489,92.8167 88.9539,93.2047 88.9599,93.5927 C88.6399,93.2017 88.3189,92.8107 88.0179,92.4237 C88.3189,92.0357 88.6399,91.6457 88.9599,91.2537 M89.0849,88.0347 C88.2769,88.9507 87.4979,89.8677 86.7779,90.7807 C85.5099,89.0237 84.4579,87.3347 83.6039,85.7407 C85.3319,85.2197 87.2729,84.7717 89.4079,84.4277 C89.2699,85.5957 89.1609,86.7997 89.0849,88.0347 M92.9729,83.9667 C92.6839,84.2467 92.3939,84.5137 92.1059,84.8017 C91.8179,85.0887 91.5519,85.3797 91.2719,85.6687 C91.3229,85.1487 91.3819,84.6407 91.4439,84.1397 C91.9459,84.0767 92.4539,84.0177 92.9729,83.9667 M95.3389,81.7797 C94.1049,81.8557 92.9009,81.9647 91.7319,82.1027 C92.0759,79.9757 92.5209,78.0417 93.0399,76.3187 C94.6789,77.1957 96.3669,78.2647 98.0679,79.4877 C97.1609,80.2037 96.2499,80.9767 95.3389,81.7797 M100.8919,81.6547 C100.5059,81.6487 100.1189,81.6437 99.7289,81.6437 C99.3329,81.6437 98.9399,81.6487 98.5479,81.6557 C98.9379,81.3357 99.3269,81.0177 99.7119,80.7177 C100.1059,81.0227 100.4989,81.3337 100.8919,81.6547 M104.1269,81.7807 C103.2139,80.9747 102.2959,80.2007 101.3749,79.4727 C103.1299,78.2067 104.8189,77.1507 106.4099,76.2977 C106.9319,78.0257 107.3789,79.9677 107.7239,82.1027 C106.5589,81.9647 105.3579,81.8567 104.1269,81.7807 M108.1839,85.6627 C107.9059,85.3747 107.6399,85.0857 107.3539,84.7997 C107.0689,84.5147 106.7779,84.2457 106.4909,83.9677 C107.0079,84.0187 107.5129,84.0767 108.0129,84.1387 C108.0749,84.6387 108.1329,85.1447 108.1839,85.6627 M110.3709,88.0287 C110.2949,86.7957 110.1869,85.5937 110.0489,84.4267 C112.1849,84.7717 114.1279,85.2197 115.8559,85.7417 C115.0029,87.3347 113.9519,89.0237 112.6829,90.7807 C111.9619,89.8657 111.1809,88.9467 110.3709,88.0287 M110.4959,93.5987 C110.5029,93.2087 110.5079,92.8187 110.5079,92.4237 C110.5079,92.0297 110.5029,91.6387 110.4959,91.2477 C110.8189,91.6417 111.1399,92.0347 111.4439,92.4237 C111.1399,92.8127 110.8189,93.2057 110.4959,93.5987 M110.3709,96.8187 C111.1809,95.9007 111.9619,94.9817 112.6829,94.0657 C113.9519,95.8237 115.0029,97.5127 115.8569,99.1057 C114.1279,99.6277 112.1859,100.0757 110.0489,100.4207 C110.1869,99.2537 110.2949,98.0517 110.3709,96.8187 M106.4969,100.8797 C106.7829,100.6027 107.0689,100.3327 107.3529,100.0487 C107.6399,99.7617 107.9059,99.4727 108.1839,99.1847 C108.1329,99.7017 108.0749,100.2087 108.0129,100.7087 C107.5149,100.7707 107.0119,100.8287 106.4969,100.8797 M104.1399,103.0667 C105.3669,102.9907 106.5629,102.8827 107.7239,102.7447 C107.3809,104.8707 106.9359,106.8037 106.4179,108.5257 C104.7809,107.6497 103.0929,106.5807 101.3939,105.3597 C102.3069,104.6397 103.2239,103.8757 104.1399,103.0667 M98.5709,103.1927 C98.9549,103.1987 99.3399,103.2037 99.7289,103.2037 C100.1229,103.2037 100.5129,103.1997 100.9029,103.1927 C100.5149,103.5107 100.1289,103.8267 99.7449,104.1257 C99.3529,103.8217 98.9629,103.5127 98.5709,103.1927 M95.3369,103.0677 C96.2499,103.8737 97.1679,104.6477 98.0899,105.3757 C96.3309,106.6447 94.6409,107.6977 93.0469,108.5517 C92.5249,106.8237 92.0769,104.8817 91.7319,102.7447 C92.8999,102.8837 94.1029,102.9917 95.3369,103.0677 M92.1069,100.0467 C92.3929,100.3317 92.6839,100.6017 92.9729,100.8807 C92.4529,100.8297 91.9459,100.7707 91.4439,100.7087 C91.3819,100.2067 91.3229,99.6987 91.2719,99.1787 C91.5519,99.4677 91.8189,99.7587 92.1069,100.0467 M90.9489,92.4237 C90.9489,91.1937 90.9819,89.9997 91.0399,88.8377 C91.8269,87.9677 92.6419,87.0937 93.5199,86.2157 C94.3959,85.3397 95.2679,84.5197 96.1359,83.7357 C97.2999,83.6767 98.4959,83.6437 99.7289,83.6437 C100.9589,83.6437 102.1519,83.6767 103.3129,83.7347 C104.1969,84.5317 105.0759,85.3497 105.9399,86.2137 C106.8169,87.0907 107.6309,87.9627 108.4159,88.8317 C108.4739,89.9957 108.5079,91.1917 108.5079,92.4237 C108.5079,93.6567 108.4739,94.8517 108.4159,96.0147 C107.6299,96.8847 106.8159,97.7577 105.9389,98.6347 C105.0619,99.5117 104.1879,100.3267 103.3189,101.1127 C102.1559,101.1707 100.9609,101.2037 99.7289,101.2037 C98.5009,101.2037 97.3089,101.1707 96.1499,101.1137 C95.2649,100.3167 94.3859,99.4967 93.5209,98.6327 C92.6429,97.7537 91.8269,96.8797 91.0399,96.0097 C90.9819,94.8477 90.9489,93.6547 90.9489,92.4237 M81.9479,110.2067 C80.4269,108.6847 80.6979,105.2647 82.7159,100.8807 C84.8019,101.5387 87.1459,102.0747 89.6869,102.4657 C90.0779,105.0087 90.6149,107.3527 91.2729,109.4397 C86.8889,111.4567 83.4689,111.7277 81.9479,110.2067 M80.8699,100.2407 C78.6259,105.2427 78.3379,109.4247 80.5339,111.6207 C81.5589,112.6457 83.0139,113.1327 84.7839,113.1327 C86.8069,113.1327 89.2449,112.4867 91.9139,111.2887 C93.8639,116.4167 96.6219,119.5717 99.7279,119.5717 C102.8299,119.5717 105.5839,116.4267 107.5339,111.3127 C110.2469,112.5437 112.6479,113.1627 114.6289,113.1627 C116.4369,113.1627 117.8969,112.6487 118.9259,111.6187 C121.1219,109.4227 120.8339,105.2417 118.5909,100.2397 C123.7199,98.2897 126.8769,95.5317 126.8769,92.4237 C126.8769,89.3167 123.7199,86.5577 118.5899,84.6077 C120.8329,79.6067 121.1209,75.4247 118.9249,73.2287 C116.7299,71.0337 112.5469,71.3217 107.5449,73.5657 C105.5949,68.4337 102.8359,65.2767 99.7279,65.2767 C96.6269,65.2767 93.8729,68.4207 91.9239,73.5327 C86.7369,71.1787 82.6919,71.0687 80.5349,73.2277 C78.3389,75.4237 78.6269,79.6057 80.8709,84.6067 C75.7389,86.5567 72.5819,89.3157 72.5819,92.4237 C72.5819,95.5317 75.7389,98.2907 80.8699,100.2407" id="Fill-15" sketch:type="MSShapeGroup"></path>
            <path d="M79.7139,236.6143 L77.2809,235.5673 L76.8069,235.9783 C75.8139,236.8403 74.6919,237.5223 73.4739,238.0043 L72.8959,238.2323 L72.6829,240.8413 L69.9559,241.2483 L69.0009,238.8453 L68.3719,238.8023 C67.0519,238.7123 65.7569,238.3943 64.5219,237.8553 L63.9499,237.6063 L61.9959,239.2663 L59.7799,237.6273 L60.7879,235.2893 L60.3739,234.8153 C59.4839,233.7943 58.7859,232.6403 58.2999,231.3863 L58.0739,230.8013 L55.5569,230.5973 L55.1479,227.8703 L57.4959,226.9383 L57.5419,226.3133 C57.6399,224.9703 57.9699,223.6623 58.5219,222.4263 L58.7779,221.8513 L57.1309,219.9113 L58.7719,217.6953 L61.1269,218.7103 L61.6009,218.3043 C62.6239,217.4283 63.7679,216.7453 65.0029,216.2733 L65.5919,216.0483 L65.8009,213.4693 L68.5279,213.0613 L69.4939,215.4923 L70.1129,215.5413 C71.4209,215.6463 72.6929,215.9703 73.8949,216.5033 L74.4689,216.7583 L76.4869,215.0443 L78.7029,216.6833 L77.6459,219.1353 L78.0509,219.6083 C78.8969,220.5993 79.5639,221.7113 80.0349,222.9153 L80.2619,223.4963 L82.9289,223.7143 L83.3369,226.4403 L80.8529,227.4263 L80.8059,228.0493 C80.7079,229.3413 80.3939,230.6013 79.8739,231.7953 L79.6249,232.3663 L81.3539,234.4003 L79.7139,236.6143 Z M82.7369,228.8303 L85.5489,227.7143 L84.6719,221.8493 L81.6529,221.6033 C81.2089,220.6053 80.6449,219.6653 79.9699,218.7983 L81.1679,216.0193 L76.4009,212.4923 L74.1189,214.4313 C73.0809,214.0273 72.0029,213.7533 70.8989,213.6133 L69.8009,210.8483 L63.9359,211.7263 L63.6989,214.6463 C62.6639,215.0993 61.6889,215.6823 60.7879,216.3863 L58.1079,215.2313 L54.5789,219.9963 L56.4489,222.1983 C56.0269,223.2743 55.7459,224.3923 55.6079,225.5363 L52.9349,226.5973 L53.8139,232.4633 L56.6779,232.6953 C57.1439,233.7473 57.7399,234.7343 58.4589,235.6393 L57.3159,238.2923 L62.0819,241.8183 L64.3059,239.9273 C65.3739,240.3373 66.4779,240.6093 67.6019,240.7393 L68.6829,243.4603 L74.5479,242.5853 L74.7899,239.6183 C75.8029,239.1623 76.7539,238.5853 77.6289,237.8943 L80.3779,239.0773 L83.9049,234.3143 L81.9459,232.0103 C82.3389,230.9833 82.6039,229.9173 82.7369,228.8303 L82.7369,228.8303 Z" id="Fill-17" sketch:type="MSShapeGroup"></path>
            <path d="M71.3535,228.7769 C70.9235,229.3579 70.2925,229.7359 69.5745,229.8429 C68.8625,229.9509 68.1455,229.7729 67.5645,229.3419 C66.9835,228.9119 66.6045,228.2819 66.4985,227.5669 C66.2775,226.0909 67.2985,224.7099 68.7765,224.4869 C69.4905,224.3799 70.2055,224.5579 70.7865,224.9879 C71.3675,225.4189 71.7465,226.0499 71.8535,226.7669 C71.9605,227.4819 71.7835,228.1949 71.3535,228.7769 M71.9765,223.3809 C70.9655,222.6319 69.7235,222.3229 68.4805,222.5089 L68.4795,222.5089 C65.9115,222.8949 64.1355,225.2969 64.5205,227.8619 C64.7055,229.1049 65.3635,230.2009 66.3755,230.9499 C67.1945,231.5559 68.1645,231.8739 69.1635,231.8739 C69.3975,231.8739 69.6345,231.8569 69.8705,231.8209 C71.1155,231.6359 72.2125,230.9779 72.9605,229.9659 C73.7095,228.9549 74.0185,227.7129 73.8315,226.4699 C73.6455,225.2259 72.9865,224.1289 71.9765,223.3809" id="Fill-19" sketch:type="MSShapeGroup"></path>
            <path d="M51.2856,161.3691 C48.6196,162.3431 45.8296,162.8521 42.9926,162.8841 L42.3696,162.8911 L39.9706,167.9101 L32.7666,166.3251 L32.6986,160.8241 L32.1256,160.5601 C29.5086,159.3511 27.1376,157.7121 25.0786,155.6871 L24.6336,155.2491 L19.4956,157.0621 L15.5266,150.8471 L19.2976,146.9751 L19.0806,146.3841 C18.0756,143.6461 17.5596,140.7801 17.5476,137.8651 L17.5456,137.2371 L12.6926,134.9151 L14.2786,127.7121 L19.6586,127.6421 L19.9246,127.0741 C21.1556,124.4371 22.8276,122.0521 24.8936,119.9861 L25.3386,119.5401 L23.5426,114.4431 L29.7566,110.4721 L33.6576,114.2721 L34.2456,114.0621 C36.9556,113.0911 39.7856,112.5991 42.6596,112.5991 L42.6836,112.5991 L43.3146,112.5991 L45.6886,107.6371 L52.8896,109.2231 L52.9626,114.7861 L53.5246,115.0541 C56.0816,116.2721 58.3996,117.9071 60.4146,119.9121 L60.8606,120.3561 L66.1606,118.4841 L70.1316,124.7011 L66.1816,128.7551 L66.3896,129.3421 C67.3286,131.9831 67.8136,134.7461 67.8326,137.5541 L67.8376,138.1801 L72.9646,140.6321 L71.3786,147.8351 L65.6946,147.9091 L65.4286,148.4741 C64.2336,151.0141 62.6326,153.3171 60.6696,155.3191 L60.2336,155.7641 L62.1166,161.1041 L55.9016,165.0761 L51.8756,161.1541 L51.2856,161.3691 Z M64.5306,161.9351 L62.5316,156.2661 C64.3116,154.3651 65.7996,152.2251 66.9636,149.8921 L72.9906,149.8141 L75.2586,139.5131 L69.8216,136.9111 C69.7436,134.3051 69.2926,131.7381 68.4766,129.2651 L72.6706,124.9601 L66.9916,116.0701 L61.3726,118.0541 C59.4566,116.2331 57.2996,114.7121 54.9466,113.5241 L54.8696,107.6111 L44.5696,105.3421 L42.0516,110.6061 C39.3656,110.6661 36.7176,111.1251 34.1646,111.9741 L30.0166,107.9331 L21.1286,113.6121 L23.0366,119.0251 C21.1536,120.9971 19.5926,123.2241 18.3856,125.6591 L12.6656,125.7331 L10.3986,136.0351 L15.5576,138.5031 C15.6316,141.2241 16.1126,143.9001 16.9916,146.4761 L12.9876,150.5871 L18.6646,159.4761 L24.1296,157.5481 C26.0906,159.3901 28.3016,160.9191 30.7136,162.1031 L30.7866,167.9371 L41.0906,170.2041 L43.6406,164.8701 C46.2786,164.7791 48.8746,164.3061 51.3746,163.4581 L55.6416,167.6151 L64.5306,161.9351 Z" id="Fill-21" sketch:type="MSShapeGroup"></path>
            <path d="M42.6807,156.8433 C32.2647,156.8433 23.7907,148.3693 23.7907,137.9523 C23.7907,127.5363 32.2647,119.0623 42.6807,119.0623 C53.0977,119.0623 61.5717,127.5363 61.5717,137.9523 C61.5717,148.3693 53.0977,156.8433 42.6807,156.8433 M63.5717,137.9523 C63.5717,126.4333 54.1997,117.0623 42.6807,117.0623 C31.1617,117.0623 21.7907,126.4333 21.7907,137.9523 C21.7907,149.4713 31.1617,158.8433 42.6807,158.8433 C54.1997,158.8433 63.5717,149.4713 63.5717,137.9523" id="Fill-23" sketch:type="MSShapeGroup"></path>
            <path d="M42.6807,152.5742 C34.6187,152.5742 28.0597,146.0152 28.0597,137.9522 C28.0597,129.8902 34.6187,123.3312 42.6807,123.3312 C50.7437,123.3312 57.3027,129.8902 57.3027,137.9522 C57.3027,146.0152 50.7437,152.5742 42.6807,152.5742 M42.6807,121.3312 C33.5157,121.3312 26.0597,128.7872 26.0597,137.9522 C26.0597,147.1172 33.5157,154.5742 42.6807,154.5742 C51.8457,154.5742 59.3027,147.1172 59.3027,137.9522 C59.3027,128.7872 51.8457,121.3312 42.6807,121.3312" id="Fill-25" sketch:type="MSShapeGroup"></path>
            <path d="M42.6807,142.1855 C40.3467,142.1855 38.4477,140.2865 38.4477,137.9525 C38.4477,135.6185 40.3467,133.7195 42.6807,133.7195 C45.0147,133.7195 46.9137,135.6185 46.9137,137.9525 C46.9137,140.2865 45.0147,142.1855 42.6807,142.1855 M42.6807,131.7195 C39.2437,131.7195 36.4477,134.5155 36.4477,137.9525 C36.4477,141.3895 39.2437,144.1855 42.6807,144.1855 C46.1177,144.1855 48.9137,141.3895 48.9137,137.9525 C48.9137,134.5155 46.1177,131.7195 42.6807,131.7195" id="Fill-27" sketch:type="MSShapeGroup"></path>
            <path d="M149.084,225.7207 L145.269,231.6937 L140.303,229.9407 L139.858,230.3787 C137.866,232.3367 135.575,233.9217 133.049,235.0867 L132.476,235.3517 L132.409,240.6697 L125.487,242.1937 L123.167,237.3427 L122.544,237.3347 C119.802,237.3037 117.106,236.8107 114.529,235.8697 L113.938,235.6547 L110.047,239.4477 L104.076,235.6327 L105.897,230.4697 L105.46,230.0237 C103.565,228.0907 102.018,225.8647 100.861,223.4077 L100.594,222.8427 L95.101,222.7717 L93.577,215.8507 L98.535,213.4787 L98.539,212.8537 C98.557,210.1437 99.026,207.4737 99.936,204.9177 L100.144,204.3307 L96.324,200.4107 L100.138,194.4397 L105.263,196.2487 L105.708,195.8047 C107.653,193.8677 109.894,192.2877 112.368,191.1087 L112.93,190.8407 L112.998,185.4637 L119.919,183.9397 L122.212,188.7377 L122.843,188.7367 L122.859,188.7367 C125.638,188.7367 128.377,189.2127 131.001,190.1507 L131.588,190.3607 L135.359,186.6857 L141.33,190.5007 L139.593,195.4287 L140.038,195.8737 C142.033,197.8717 143.649,200.1777 144.841,202.7257 L145.106,203.2947 L150.307,203.3617 L151.83,210.2817 L147.139,212.5257 L147.136,213.1537 C147.125,215.9677 146.626,218.7387 145.654,221.3887 L145.438,221.9797 L149.084,225.7207 Z M154.124,211.4007 L151.919,201.3817 L146.378,201.3107 C145.212,198.9647 143.708,196.8167 141.895,194.9137 L143.744,189.6697 L135.099,184.1467 L131.081,188.0627 C128.617,187.2467 126.065,186.8047 123.477,186.7437 L121.039,181.6447 L111.018,183.8527 L110.946,189.5797 C108.676,190.7277 106.597,192.1937 104.75,193.9467 L99.307,192.0257 L93.785,200.6707 L97.848,204.8407 C97.063,207.2277 96.627,209.7017 96.551,212.2117 L91.283,214.7317 L93.488,224.7507 L99.326,224.8257 C100.452,227.0757 101.885,229.1377 103.599,230.9707 L101.662,236.4637 L110.307,241.9867 L114.44,237.9587 C116.851,238.7747 119.353,239.2317 121.896,239.3207 L124.368,244.4877 L134.388,242.2827 L134.46,236.6307 C136.783,235.4897 138.913,234.0157 140.807,232.2397 L146.1,234.1077 L151.623,225.4607 L147.743,221.4797 C148.589,218.9917 149.053,216.4117 149.126,213.7917 L154.124,211.4007 Z" id="Fill-29" sketch:type="MSShapeGroup"></path>
            <path d="M122.8457,231.4893 C112.7827,231.4893 104.5957,223.3023 104.5957,213.2393 C104.5957,203.1763 112.7827,194.9893 122.8457,194.9893 C132.9087,194.9893 141.0957,203.1763 141.0957,213.2393 C141.0957,223.3023 132.9087,231.4893 122.8457,231.4893 M122.8457,192.9893 C111.6797,192.9893 102.5957,202.0733 102.5957,213.2393 C102.5957,224.4053 111.6797,233.4893 122.8457,233.4893 C134.0117,233.4893 143.0957,224.4053 143.0957,213.2393 C143.0957,202.0733 134.0117,192.9893 122.8457,192.9893" id="Fill-31" sketch:type="MSShapeGroup"></path>
            <path d="M122.8457,217.3032 C120.6047,217.3032 118.7817,215.4802 118.7817,213.2392 C118.7817,210.9982 120.6047,209.1752 122.8457,209.1752 C125.0867,209.1752 126.9097,210.9982 126.9097,213.2392 C126.9097,215.4802 125.0867,217.3032 122.8457,217.3032 M122.8457,207.1752 C119.5017,207.1752 116.7817,209.8952 116.7817,213.2392 C116.7817,216.5832 119.5017,219.3032 122.8457,219.3032 C126.1897,219.3032 128.9097,216.5832 128.9097,213.2392 C128.9097,209.8952 126.1897,207.1752 122.8457,207.1752" id="Fill-33" sketch:type="MSShapeGroup"></path>
            <path d="M176.9326,196.2705 C173.8556,200.3095 170.7036,204.3305 169.2826,206.1365 C167.8616,204.3555 164.6416,200.3015 160.7056,195.2195 C157.3136,190.8385 154.5536,183.8905 154.5536,179.7315 C154.5536,171.4085 161.1626,164.6375 169.2876,164.6375 C177.4126,164.6375 184.0226,171.4085 184.0226,179.7315 C184.0226,183.8575 180.9746,190.9685 176.9326,196.2705 M169.2876,162.6375 C160.0606,162.6375 152.5536,170.3065 152.5536,179.7315 C152.5536,184.3445 155.4396,191.6865 159.1246,196.4445 C164.4506,203.3195 168.4686,208.3205 168.5086,208.3705 L169.2936,209.3475 L170.0726,208.3645 C170.1146,208.3115 174.3866,202.9135 178.5236,197.4825 C182.8686,191.7825 186.0226,184.3165 186.0226,179.7315 C186.0226,170.3065 178.5156,162.6375 169.2876,162.6375" id="Fill-35" sketch:type="MSShapeGroup"></path>
            <path d="M169.2881,186.812 C165.4221,186.812 162.2761,183.585 162.2761,179.619 C162.2761,175.652 165.4221,172.425 169.2881,172.425 C173.1541,172.425 176.2991,175.652 176.2991,179.619 C176.2991,183.585 173.1541,186.812 169.2881,186.812 M169.2881,170.425 C164.3191,170.425 160.2761,174.549 160.2761,179.619 C160.2761,184.688 164.3191,188.812 169.2881,188.812 C174.2571,188.812 178.2991,184.688 178.2991,179.619 C178.2991,174.549 174.2571,170.425 169.2881,170.425" id="Fill-37" sketch:type="MSShapeGroup"></path>
            <path d="M65.3091,93.7368 C65.3091,94.9778 64.3211,97.2468 63.0591,98.9018 C62.3091,99.8868 61.5511,100.8608 61.0091,101.5538 C60.4441,100.8408 59.6141,99.7868 58.6511,98.5428 C57.6041,97.1908 56.7191,94.9908 56.7191,93.7368 C56.7191,91.3018 58.6461,89.3208 61.0151,89.3208 C63.3831,89.3208 65.3091,91.3018 65.3091,93.7368 M54.7191,93.7368 C54.7191,95.4448 55.7301,98.0378 57.0691,99.7668 C58.8861,102.1148 60.2361,103.7918 60.2361,103.7918 L61.0211,104.7668 L61.7981,103.7858 C61.7981,103.7858 63.2381,101.9678 64.6501,100.1138 C66.2161,98.0598 67.3091,95.4378 67.3091,93.7368 C67.3091,90.1988 64.4851,87.3208 61.0151,87.3208 C57.5431,87.3208 54.7191,90.1988 54.7191,93.7368" id="Fill-39" sketch:type="MSShapeGroup"></path>
            <path d="M47.9302,170.8662 L46.2782,171.9912 L47.9812,170.9432 L47.9302,170.8662 Z" id="Fill-41" sketch:type="MSShapeGroup"></path>
            <path d="M116.063,164.2344 C115.366,166.0324 114.365,167.6884 113.088,169.1544 L112.675,169.6294 L114.111,172.9604 L110.501,175.6304 L107.713,173.2634 L107.142,173.5134 C105.368,174.2864 103.511,174.7424 101.62,174.8714 L100.991,174.9134 L99.63,178.3384 L95.187,177.6764 L94.884,173.9554 L94.305,173.7264 C92.555,173.0334 90.946,172.0564 89.523,170.8214 L89.049,170.4104 L85.586,171.9024 L82.915,168.2934 L85.376,165.3954 L85.128,164.8244 C84.381,163.1034 83.933,161.2954 83.794,159.4514 L83.748,158.8274 L80.208,157.4224 L80.873,152.9804 L84.672,152.6704 L84.899,152.0884 C85.574,150.3614 86.531,148.7654 87.744,147.3444 L88.148,146.8714 L86.641,143.3794 L90.252,140.7084 L93.127,143.1504 L93.702,142.8954 C95.426,142.1294 97.25,141.6654 99.124,141.5164 L99.744,141.4664 L101.122,137.9994 L105.565,138.6634 L105.864,142.3374 L106.453,142.5624 C108.225,143.2394 109.867,144.2204 111.333,145.4764 L111.807,145.8824 L115.165,144.4344 L117.838,148.0444 L115.489,150.8104 L115.746,151.3844 C116.538,153.1604 117.01,155.0354 117.149,156.9584 L117.195,157.5834 L120.545,158.9134 L119.878,163.3584 L116.29,163.6504 L116.063,164.2344 Z M121.622,165.2234 L122.758,157.6404 L119.088,156.1834 C118.904,154.4574 118.479,152.7714 117.821,151.1534 L120.39,148.1294 L115.829,141.9704 L112.15,143.5564 C110.802,142.4754 109.329,141.5954 107.756,140.9314 L107.43,136.9204 L99.848,135.7864 L98.34,139.5824 C96.669,139.7724 95.037,140.1874 93.473,140.8194 L90.338,138.1564 L84.176,142.7154 L85.823,146.5304 C84.784,147.8324 83.93,149.2554 83.275,150.7774 L79.129,151.1154 L77.995,158.6954 L81.858,160.2294 C82.038,161.8734 82.438,163.4864 83.053,165.0414 L80.363,168.2084 L84.922,174.3664 L88.698,172.7394 C90.007,173.8004 91.446,174.6744 92.99,175.3454 L93.322,179.4204 L100.904,180.5494 L102.389,176.8124 C104.085,176.6384 105.752,176.2274 107.36,175.5884 L110.415,178.1814 L116.576,173.6254 L115.005,169.9824 C116.107,168.6284 117.007,167.1394 117.689,165.5424 L121.622,165.2234 Z" id="Fill-43" sketch:type="MSShapeGroup"></path>
            <path d="M111.9341,159.8999 C111.4781,162.9609 109.8551,165.6619 107.3641,167.5039 C104.8721,169.3469 101.8131,170.1079 98.7561,169.6479 C95.6891,169.1919 92.9871,167.5679 91.1451,165.0789 C89.3041,162.5899 88.5441,159.5329 89.0051,156.4709 C89.4631,153.4039 91.0851,150.7009 93.5741,148.8589 C95.5891,147.3659 97.9781,146.5829 100.4411,146.5829 C101.0191,146.5829 101.6011,146.6259 102.1831,146.7129 C108.5071,147.6659 112.8811,153.5809 111.9341,159.8999 M102.4811,144.7349 L102.4801,144.7349 C98.8891,144.1969 95.3011,145.0909 92.3831,147.2519 C89.4661,149.4119 87.5641,152.5809 87.0271,156.1739 C86.4871,159.7639 87.3781,163.3489 89.5371,166.2679 C91.6971,169.1879 94.8661,171.0909 98.4591,171.6259 C99.1431,171.7289 99.8261,171.7789 100.5051,171.7789 C103.3891,171.7789 106.1881,170.8609 108.5531,169.1119 C111.4751,166.9519 113.3781,163.7849 113.9121,160.1959 C115.0221,152.7879 109.8941,145.8529 102.4811,144.7349" id="Fill-45" sketch:type="MSShapeGroup"></path>
            <path d="M62.0205,175.2144 L60.1935,176.0274 C64.8105,186.3994 73.4965,194.7674 84.0255,198.9874 L84.7695,197.1314 C74.7195,193.1034 66.4275,185.1144 62.0205,175.2144" id="Fill-47" sketch:type="MSShapeGroup"></path>
            <path d="M137.873,177.0225 L139.659,177.9215 C142.449,172.3845 144.007,166.4225 144.291,160.2005 L142.293,160.1095 C142.022,166.0475 140.535,171.7385 137.873,177.0225" id="Fill-49" sketch:type="MSShapeGroup"></path>
            <path d="M87.1738,186.2969 C80.6568,183.2319 75.3708,177.9609 72.2868,171.4549 L70.4798,172.3109 C73.7608,179.2349 79.3878,184.8439 86.3218,188.1069 L87.1738,186.2969 Z" id="Fill-51" sketch:type="MSShapeGroup"></path>
            <path d="M127.6924,172.9731 L129.4494,173.9281 C131.9194,169.3871 133.2554,164.4501 133.4234,159.2531 L131.4244,159.1881 C131.2674,164.0711 130.0114,168.7081 127.6924,172.9731" id="Fill-53" sketch:type="MSShapeGroup"></path>
            <path d="M116.7188,131.7412 L117.7728,130.0412 C112.5568,126.8092 106.5418,125.1002 100.3768,125.1002 C92.7838,125.1002 85.3658,127.7392 79.4908,132.5292 L80.7548,134.0792 C86.2748,129.5792 93.2428,127.1002 100.3768,127.1002 C106.1688,127.1002 111.8208,128.7052 116.7188,131.7412" id="Fill-55" sketch:type="MSShapeGroup"></path>
            <path d="M164.6641,100.8872 C167.2831,100.8872 169.4141,103.0182 169.4141,105.6382 C169.4141,106.9102 168.9211,108.1052 168.0261,109.0002 C167.1311,109.8952 165.9371,110.3882 164.6641,110.3882 C162.0441,110.3882 159.9131,108.2572 159.9131,105.6372 C159.9131,103.0182 162.0441,100.8872 164.6641,100.8872 M164.6641,112.3882 C166.4711,112.3882 168.1671,111.6872 169.4401,110.4142 C170.7141,109.1412 171.4141,107.4452 171.4141,105.6372 C171.4141,101.9152 168.3861,98.8872 164.6641,98.8872 C160.9411,98.8872 157.9131,101.9152 157.9131,105.6372 C157.9131,109.3602 160.9411,112.3882 164.6641,112.3882" id="Fill-57" sketch:type="MSShapeGroup"></path>
            <path d="M174.7212,116.3687 L174.7202,132.3177 C174.7202,133.4187 174.1662,134.1897 173.6512,134.4407 C173.4672,134.5307 173.2892,134.5557 173.1142,134.5167 L173.1142,122.0747 L171.1142,122.0747 L171.1142,153.2257 C171.1142,154.4717 170.1012,155.4857 168.8552,155.4857 C167.6102,155.4857 166.5962,154.4717 166.5962,153.2257 L166.5962,134.1107 L162.7342,134.1107 L162.7342,153.2257 C162.7342,154.4717 161.7202,155.4857 160.4742,155.4857 C159.2282,155.4857 158.2152,154.4717 158.2152,153.2257 L158.2152,122.0747 L156.2152,122.0747 L156.2152,134.4367 C155.9772,134.4637 155.7232,134.4167 155.4952,134.2947 C154.9242,133.9877 154.6092,133.2857 154.6092,132.3177 L154.6092,116.3687 C154.6092,115.0857 154.9852,114.8577 156.0422,114.8577 L172.4232,114.8577 C174.6172,114.8577 174.7212,115.2207 174.7212,116.3687 M152.6092,116.3687 L152.6092,132.3177 C152.6092,134.0307 153.3162,135.3937 154.5492,136.0557 C155.0752,136.3387 155.6492,136.4687 156.2152,136.4437 L156.2152,153.2257 C156.2152,155.5747 158.1262,157.4857 160.4742,157.4857 C162.5622,157.4857 164.3042,155.9757 164.6652,153.9907 C165.0272,155.9757 166.7682,157.4857 168.8552,157.4857 C171.2032,157.4857 173.1142,155.5747 173.1142,153.2257 L173.1142,136.5337 C173.5882,136.5627 174.0662,136.4637 174.5272,136.2387 C175.8592,135.5897 176.7202,134.0507 176.7202,132.3177 L176.7212,116.3687 C176.7212,112.8577 173.9252,112.8577 172.4232,112.8577 L156.0422,112.8577 C153.7962,112.8577 152.6092,114.0717 152.6092,116.3687" id="Fill-59" sketch:type="MSShapeGroup"></path>
            <path d="M125.917,115.4683 C125.93,115.3673 125.973,115.3073 125.96,115.3033 C125.961,115.3033 126.052,115.3113 126.197,115.4393 C132.885,121.7873 133.993,121.7873 134.357,121.7873 L142.816,121.7873 C143.944,121.7873 143.944,121.8343 143.944,122.4073 L143.944,132.6963 C143.944,133.1763 142.884,133.4583 142.502,133.5063 L141.618,133.6093 L141.618,146.1843 C141.618,146.7933 141.123,147.2883 140.515,147.2883 C139.907,147.2883 139.413,146.7933 139.413,146.1843 L139.413,133.4993 L136.211,133.4993 L136.211,146.1843 C136.211,146.7933 135.716,147.2883 135.108,147.2883 C134.5,147.2883 134.006,146.7933 134.006,146.1843 L134.006,125.7353 L126.081,115.9233 C125.913,115.7313 125.906,115.5553 125.917,115.4683 M135.101,115.4853 C135.101,113.9903 136.317,112.7743 137.813,112.7743 C139.306,112.7743 140.521,113.9903 140.521,115.4853 C140.521,116.9793 139.306,118.1953 137.813,118.1953 C136.317,118.1953 135.101,116.9793 135.101,115.4853 M124.576,113.8803 C123.803,114.6483 123.591,116.1143 124.55,117.2103 L132.006,126.4423 L132.006,146.1843 C132.006,147.8963 133.398,149.2883 135.108,149.2883 C136.267,149.2883 137.279,148.6493 137.812,147.7063 C138.345,148.6493 139.357,149.2883 140.515,149.2883 C142.226,149.2883 143.618,147.8963 143.618,146.1843 L143.618,135.3043 C144.722,134.9653 145.944,134.1843 145.944,132.6963 L145.944,122.4073 C145.944,119.7873 143.752,119.7873 142.816,119.7873 L139.728,119.7873 C141.372,119.0523 142.521,117.4003 142.521,115.4853 C142.521,112.8873 140.409,110.7743 137.813,110.7743 C135.215,110.7743 133.101,112.8873 133.101,115.4853 C133.101,117.4003 134.251,119.0523 135.896,119.7873 L134.456,119.7873 C133.61,119.4393 130.262,116.5403 127.549,113.9663 C126.435,112.9763 125.253,113.2083 124.576,113.8803" id="Fill-61" sketch:type="MSShapeGroup"></path>
            <path d="M42.0176,208.668 L33.9856,208.668 C31.5806,208.668 30.5976,207.885 29.3016,206.128 C28.5606,205.125 25.2456,198.677 23.1906,194.574 C23.0376,194.278 23.1406,193.939 23.2156,193.764 C23.3586,193.427 23.6286,193.13 23.9386,192.97 C24.0816,192.895 24.2576,192.857 24.4486,192.857 C24.6066,192.857 24.7746,192.884 24.9406,192.936 C25.3036,193.05 25.6006,193.273 25.7286,193.52 L29.9336,201.872 L29.9336,199.008 C30.9576,199.073 32.7366,199.341 34.2556,200.376 C36.5386,201.928 37.4046,203.947 37.4116,203.963 L39.2626,203.205 C39.2196,203.101 38.1836,200.628 35.3806,198.723 C33.4246,197.392 31.1846,197.072 29.9336,197.005 L29.9336,181.356 C29.9336,180.754 30.5086,180.227 31.1636,180.227 C31.7836,180.227 32.2686,180.723 32.2686,181.356 L32.2686,191.601 L33.1816,191.601 L33.1816,192.136 L47.8676,192.136 L47.8676,198.912 C47.2196,199.001 44.9966,199.188 42.5996,198.028 C40.2386,196.885 38.9806,194.989 38.9676,194.97 L37.2886,196.055 C37.3506,196.151 38.8416,198.432 41.7276,199.829 C43.6726,200.769 45.5116,200.982 46.7786,200.982 C47.2236,200.982 47.5846,200.955 47.8676,200.924 L47.8676,201.513 C47.8676,204.968 45.5176,208.668 42.0176,208.668 M36.3006,178.098 C36.9336,178.098 37.4676,178.614 37.4676,179.226 L37.4676,190.136 L35.1346,190.136 L35.1346,179.226 C35.1346,178.614 35.6686,178.098 36.3006,178.098 M41.5016,178.098 C42.1336,178.098 42.6676,178.614 42.6676,179.226 L42.6676,190.136 L40.3356,190.136 L40.3356,179.226 C40.3356,178.614 40.8696,178.098 41.5016,178.098 M46.7006,180.227 C47.3336,180.227 47.8676,180.744 47.8676,181.356 L47.8676,190.136 L45.5346,190.136 L45.5346,181.356 C45.5346,180.744 46.0686,180.227 46.7006,180.227 M46.7006,178.227 C45.9226,178.227 45.2086,178.505 44.6576,178.967 C44.5236,177.363 43.1596,176.098 41.5016,176.098 C40.4256,176.098 39.4746,176.63 38.9016,177.442 C38.3296,176.63 37.3766,176.098 36.3006,176.098 C34.6486,176.098 33.2886,177.354 33.1466,178.949 C32.6086,178.498 31.9166,178.227 31.1636,178.227 C29.4126,178.227 27.9336,179.66 27.9336,181.356 L27.9336,193.452 L27.5096,192.609 C27.1296,191.879 26.4136,191.303 25.5426,191.029 C24.6666,190.753 23.7466,190.814 23.0166,191.195 C22.2986,191.567 21.7006,192.217 21.3756,192.978 C21.0066,193.842 21.0216,194.737 21.4096,195.483 C21.9386,196.541 26.6116,205.853 27.6916,207.316 C29.2586,209.439 30.7906,210.668 33.9856,210.668 L42.0176,210.668 C46.8666,210.668 49.8676,205.916 49.8676,201.513 L49.8676,181.356 C49.8676,179.63 48.4466,178.227 46.7006,178.227" id="Fill-63" sketch:type="MSShapeGroup"></path>
            <path d="M37.4146,216.2725 L35.9396,217.6245 C38.7316,220.6695 41.7676,223.5525 44.9636,226.1925 L46.2376,224.6505 C43.1126,222.0685 40.1436,219.2505 37.4146,216.2725" id="Fill-65" sketch:type="MSShapeGroup"></path>
            <path d="M16.3179,50.5723 C16.3179,47.4523 18.7899,44.9143 21.8269,44.9143 C24.8649,44.9143 27.3369,47.4523 27.3369,50.5723 C27.3369,53.6923 24.8649,56.2303 21.8269,56.2303 C18.7899,56.2303 16.3179,53.6923 16.3179,50.5723 M29.3369,50.5723 C29.3369,46.3493 25.9679,42.9143 21.8269,42.9143 C17.6869,42.9143 14.3179,46.3493 14.3179,50.5723 C14.3179,54.7953 17.6869,58.2303 21.8269,58.2303 C25.9679,58.2303 29.3369,54.7953 29.3369,50.5723" id="Fill-67" sketch:type="MSShapeGroup"></path>
            <path d="M159.269,36.5503 C159.269,33.4303 161.741,30.8923 164.779,30.8923 C167.817,30.8923 170.289,33.4303 170.289,36.5503 C170.289,39.6703 167.817,42.2083 164.779,42.2083 C161.741,42.2083 159.269,39.6703 159.269,36.5503 M172.289,36.5503 C172.289,32.3273 168.92,28.8923 164.779,28.8923 C160.638,28.8923 157.269,32.3273 157.269,36.5503 C157.269,40.7733 160.638,44.2083 164.779,44.2083 C168.92,44.2083 172.289,40.7733 172.289,36.5503" id="Fill-69" sketch:type="MSShapeGroup"></path>
            <path d="M114.4399,14.1362 C114.4399,11.0162 116.9119,8.4782 119.9499,8.4782 C122.9869,8.4782 125.4589,11.0162 125.4589,14.1362 C125.4589,17.2562 122.9869,19.7942 119.9499,19.7942 C116.9119,19.7942 114.4399,17.2562 114.4399,14.1362 M127.4589,14.1362 C127.4589,9.9132 124.0899,6.4782 119.9499,6.4782 C115.8089,6.4782 112.4399,9.9132 112.4399,14.1362 C112.4399,18.3592 115.8089,21.7942 119.9499,21.7942 C124.0899,21.7942 127.4589,18.3592 127.4589,14.1362" id="Fill-71" sketch:type="MSShapeGroup"></path>
        </g>
    </g>
</svg>
