<?xml version="1.0" encoding="utf-8"?>
<!-- Generator: Adobe Illustrator 19.2.0, SVG Export Plug-In . SVG Version: 6.00 Build 0)  -->
<svg version="1.1" id="Layer_1" xmlns:sketch="http://www.bohemiancoding.com/sketch/ns"
	 xmlns="http://www.w3.org/2000/svg" xmlns:xlink="http://www.w3.org/1999/xlink" x="0px" y="0px" viewBox="0 0 52 47"
	 style="enable-background:new 0 0 52 47;" xml:space="preserve">
<style type="text/css">
	.st0{filter:url(#Adobe_OpacityMaskFilter);}
	.st1{fill:#FFFFFF;}
	.st2{mask:url(#mask-2);fill:#E78832;}
</style>
<title>icon-classroom</title>
<desc>Created with Sketch.</desc>
<g id="Page-1" sketch:type="MSPage">
	<g id="icon-classroom" sketch:type="MSLayerGroup">
		<g id="Clip-2">
		</g>
		<defs>
			<filter id="Adobe_OpacityMaskFilter" filterUnits="userSpaceOnUse" x="0" y="0.4" width="52" height="46.6">
				<feColorMatrix  type="matrix" values="1 0 0 0 0  0 1 0 0 0  0 0 1 0 0  0 0 0 1 0"/>
			</filter>
		</defs>
		<mask maskUnits="userSpaceOnUse" x="0" y="0.4" width="52" height="46.6" id="mask-2">
			<g class="st0">
				<path id="path-1" class="st1" d="M0,0.4h52V47H0V0.4z"/>
			</g>
		</mask>
		<path id="Fill-1" sketch:type="MSShapeGroup" class="st2" d="M51,37.7H30.5c-0.5-1.6-1.2-3.1-2.1-4.5l8.7-8.7
			c0.2-0.2,0.2-0.5,0-0.7c-0.2-0.2-0.5-0.2-0.7,0l-8.6,8.6c-1.6-2-3.6-3.6-6.1-4.7c2.5-1.9,4.1-4.9,4.1-8.2c0-1-0.1-2-0.4-2.9
			c0,0,0,0,0,0s0,0,0,0c-1.2-4.3-5.2-7.4-9.8-7.4c-0.7,0-1.4,0.1-2,0.2v-8H51V37.7z M30.1,46h-29v-4c0-6.1,3.8-11.5,9.4-13.6
			c1.5,0.9,3.2,1.4,5.1,1.4c1.9,0,3.6-0.5,5.1-1.4c5.6,2.1,9.4,7.6,9.4,13.6V46z M7,27.1c-1.7,1.4-4.6,2-5.9,2.2
			c0.2-1.2,0.8-3.7,2.4-5c0.7-0.6,1.6-1.2,2.4-1.5c0.4,1.3,1.1,2.5,2,3.5l-0.2,0.2C7.5,26.7,7.3,26.9,7,27.1L7,27.1z M24.8,19.5
			c0,5.1-4.1,9.3-9.2,9.3c-4.1,0-7.5-2.7-8.8-6.4c4.3-0.4,7.9-3.5,9-7.7c2.3,2.2,5.5,3.2,8.8,2.6C24.7,18,24.8,18.7,24.8,19.5
			L24.8,19.5z M15.6,10.2c4,0,7.4,2.5,8.7,6.1c-3.2,0.5-6.3-0.6-8.4-3c-0.1-0.1-0.3-0.2-0.5-0.2c-0.2,0.1-0.3,0.2-0.4,0.4
			c-0.6,4.3-4.1,7.5-8.4,7.8c-0.1-0.6-0.2-1.3-0.2-1.9C6.3,14.4,10.5,10.2,15.6,10.2L15.6,10.2z M51.5,0.4H13
			c-0.3,0-0.5,0.2-0.5,0.5v8.8c-4.2,1.3-7.2,5.2-7.2,9.8c0,0.8,0.1,1.6,0.3,2.3c-0.9,0.4-1.9,1-2.7,1.7C0.4,25.6,0,29.7,0,29.8
			c0,0.1,0,0.3,0.1,0.4c0.1,0.1,0.2,0.1,0.4,0.1c0,0,0,0,0,0c0.2,0,4.8-0.5,7.1-2.5c0.3-0.2,0.5-0.5,0.7-0.7L8.6,27
			c0.3,0.3,0.6,0.5,0.9,0.7c-5.7,2.4-9.4,8-9.4,14.3v4.5c0,0.3,0.2,0.5,0.5,0.5h30c0.3,0,0.5-0.2,0.5-0.5V42c0-1.1-0.1-2.2-0.4-3.3
			h20.8c0.3,0,0.5-0.2,0.5-0.5V0.9C52,0.6,51.8,0.4,51.5,0.4L51.5,0.4z"/>
	</g>
</g>
</svg>
