<?xml version="1.0" encoding="UTF-8" standalone="no"?>
<svg width="111px" height="63px" viewBox="0 0 111 63" version="1.1" xmlns="http://www.w3.org/2000/svg" xmlns:xlink="http://www.w3.org/1999/xlink" xmlns:sketch="http://www.bohemiancoding.com/sketch/ns">
    <!-- Generator: Sketch 3.4.4 (17249) - http://www.bohemiancoding.com/sketch -->
    <title>icon-activity-build</title>
    <desc>Created with Sketch.</desc>
    <defs>
        <path id="path-1" d="M0,0.043 L111,0.043 L111,63 L0,63 L0,0.043 Z"></path>
        <path id="path-3" d="M0,0.043 L111,0.043 L111,63 L0,63 L0,0.043 Z"></path>
    </defs>
    <g id="Page-1" stroke="none" stroke-width="1" fill="none" fill-rule="evenodd" sketch:type="MSPage">
        <g id="icon-activity-build" sketch:type="MSLayerGroup">
            <g id="Group-3">
                <mask id="mask-2" sketch:name="Clip 2" fill="white">
                    <use xlink:href="#path-1"></use>
                </mask>
                <g id="Clip-2"></g>
                <path d="M24.8457,36.0444 C24.8457,37.4884 24.0827,38.5124 23.3267,38.8864 C22.9547,39.0704 22.3997,39.1974 21.7937,38.8394 L21.7937,24.8314 C21.7937,24.5544 21.5707,24.3314 21.2937,24.3314 C21.0177,24.3314 20.7937,24.5544 20.7937,24.8314 L20.7937,58.9324 C20.7937,60.6234 19.3757,62.0004 17.6327,62.0004 C15.8897,62.0004 14.4707,60.6234 14.4707,58.9324 L14.4707,39.1034 C14.4707,38.8274 14.2467,38.6034 13.9707,38.6034 L11.8767,38.6034 C11.6007,38.6034 11.3767,38.8274 11.3767,39.1034 L11.3767,58.9324 C11.3767,60.6234 9.9577,62.0004 8.2127,62.0004 C6.4697,62.0004 5.0517,60.6234 5.0517,58.9324 L5.0517,24.8314 C5.0517,24.5544 4.8277,24.3314 4.5517,24.3314 C4.2757,24.3314 4.0517,24.5544 4.0517,24.8314 L4.0517,38.8064 C3.5117,39.0464 2.8437,39.0154 2.2867,38.7114 C1.4567,38.2584 0.9997,37.3114 0.9997,36.0444 L0.9997,18.5864 C0.9997,16.9454 1.6067,16.3354 3.2367,16.3354 L21.6417,16.3354 C24.1887,16.3354 24.8477,16.7984 24.8477,18.5864 L24.8457,36.0444 Z M21.6417,15.3354 L3.2367,15.3354 C1.0587,15.3354 -0.0003,16.3984 -0.0003,18.5864 L-0.0003,36.0444 C-0.0003,37.6694 0.6587,38.9614 1.8077,39.5894 C2.5037,39.9694 3.3217,40.0604 4.0517,39.8624 L4.0517,58.9324 C4.0517,61.1754 5.9177,63.0004 8.2127,63.0004 C10.5087,63.0004 12.3767,61.1754 12.3767,58.9324 L12.3767,39.6034 L13.4707,39.6034 L13.4707,58.9324 C13.4707,61.1754 15.3377,63.0004 17.6327,63.0004 C19.9277,63.0004 21.7937,61.1754 21.7937,58.9324 L21.7937,39.9334 C22.4377,40.1504 23.1247,40.1024 23.7717,39.7824 C25.0117,39.1684 25.8457,37.6664 25.8457,36.0444 L25.8477,18.5864 C25.8477,15.5844 23.8587,15.3354 21.6417,15.3354 L21.6417,15.3354 Z" id="Fill-1" fill="#EB91A2" sketch:type="MSShapeGroup" mask="url(#mask-2)"></path>
            </g>
            <path d="M12.9238,1.0435 C16.2098,1.0435 18.8838,3.6435 18.8838,6.8385 C18.8828,10.0345 16.2088,12.6335 12.9238,12.6335 C9.6358,12.6335 6.9608,10.0345 6.9608,6.8385 C6.9608,3.6435 9.6358,1.0435 12.9238,1.0435 M12.9238,13.6335 C16.7608,13.6335 19.8828,10.5855 19.8838,6.8385 C19.8838,3.0915 16.7618,0.0435 12.9238,0.0435 C9.0848,0.0435 5.9608,3.0915 5.9608,6.8385 C5.9608,10.5855 9.0848,13.6335 12.9238,13.6335" id="Fill-4" fill="#EB91A2" sketch:type="MSShapeGroup"></path>
            <path d="M98.0752,1.0435 C101.3622,1.0435 104.0362,3.6435 104.0362,6.8385 C104.0352,10.0345 101.3612,12.6335 98.0752,12.6335 C94.7872,12.6335 92.1122,10.0345 92.1122,6.8385 C92.1122,3.6435 94.7872,1.0435 98.0752,1.0435 M98.0752,13.6335 C101.9122,13.6335 105.0352,10.5855 105.0362,6.8385 C105.0362,3.0915 101.9132,0.0435 98.0752,0.0435 C94.2362,0.0435 91.1122,3.0915 91.1122,6.8385 C91.1122,10.5855 94.2362,13.6335 98.0752,13.6335" id="Fill-6" fill="#EB91A2" sketch:type="MSShapeGroup"></path>
            <g id="Group-10">
                <mask id="mask-4" sketch:name="Clip 9" fill="white">
                    <use xlink:href="#path-3"></use>
                </mask>
                <g id="Clip-9"></g>
                <path d="M109.998,36.0444 C109.998,37.4884 109.235,38.5124 108.478,38.8864 C108.106,39.0704 107.551,39.1974 106.945,38.8394 L106.945,24.8314 C106.945,24.5544 106.722,24.3314 106.445,24.3314 C106.169,24.3314 105.945,24.5544 105.945,24.8314 L105.945,58.9324 C105.945,60.6234 104.527,62.0004 102.784,62.0004 C101.04,62.0004 99.621,60.6234 99.621,58.9324 L99.621,39.1034 C99.621,38.8274 99.397,38.6034 99.121,38.6034 L97.027,38.6034 C96.751,38.6034 96.527,38.8274 96.527,39.1034 L96.527,58.9324 C96.527,60.6234 95.108,62.0004 93.364,62.0004 C91.621,62.0004 90.203,60.6234 90.203,58.9324 L90.203,24.8314 C90.203,24.5544 89.979,24.3314 89.703,24.3314 C89.427,24.3314 89.203,24.5544 89.203,24.8314 L89.203,38.8064 C88.662,39.0474 87.996,39.0164 87.438,38.7114 C86.608,38.2584 86.151,37.3114 86.151,36.0444 L86.151,18.5864 C86.151,16.9454 86.757,16.3354 88.387,16.3354 L106.793,16.3354 C109.341,16.3354 110,16.7984 110,18.5864 L109.998,36.0444 Z M106.793,15.3354 L88.387,15.3354 C86.21,15.3354 85.151,16.3984 85.151,18.5864 L85.151,36.0444 C85.151,37.6694 85.811,38.9614 86.96,39.5894 C87.656,39.9704 88.473,40.0594 89.203,39.8634 L89.203,58.9324 C89.203,61.1754 91.069,63.0004 93.364,63.0004 C95.66,63.0004 97.527,61.1754 97.527,58.9324 L97.527,39.6034 L98.621,39.6034 L98.621,58.9324 C98.621,61.1754 100.488,63.0004 102.784,63.0004 C105.079,63.0004 106.945,61.1754 106.945,58.9324 L106.945,39.9334 C107.587,40.1504 108.275,40.1044 108.923,39.7824 C110.164,39.1684 110.998,37.6664 110.998,36.0444 L111,18.5864 C111,15.5864 108.922,15.3354 106.793,15.3354 L106.793,15.3354 Z" id="Fill-8" fill="#EB91A2" sketch:type="MSShapeGroup" mask="url(#mask-4)"></path>
            </g>
            <path d="M75.278,27.6646 C76.383,27.6646 77.278,26.7686 77.278,25.6646 C77.278,24.5606 76.383,23.6646 75.278,23.6646 C74.347,23.6646 73.572,24.3036 73.349,25.1646 L35.574,25.1646 C35.298,25.1646 35.074,25.3876 35.074,25.6646 C35.074,25.9406 35.298,26.1646 35.574,26.1646 L73.349,26.1646 C73.572,27.0256 74.347,27.6646 75.278,27.6646" id="Fill-11" fill="#EB91A2" sketch:type="MSShapeGroup"></path>
            <path d="M77.2783,34.6509 L39.5033,34.6509 C39.2803,33.7899 38.5053,33.1509 37.5743,33.1509 C36.4703,33.1509 35.5743,34.0469 35.5743,35.1509 C35.5743,36.2559 36.4703,37.1509 37.5743,37.1509 C38.5053,37.1509 39.2813,36.5119 39.5043,35.6509 L77.2783,35.6509 C77.5543,35.6509 77.7783,35.4269 77.7783,35.1509 C77.7783,34.8749 77.5543,34.6509 77.2783,34.6509" id="Fill-13" fill="#EB91A2" sketch:type="MSShapeGroup"></path>
        </g>
    </g>
</svg>