<?xml version="1.0" encoding="UTF-8" standalone="no"?>
<svg width="88px" height="57px" viewBox="0 0 88 57" version="1.1" xmlns="http://www.w3.org/2000/svg" xmlns:xlink="http://www.w3.org/1999/xlink" xmlns:sketch="http://www.bohemiancoding.com/sketch/ns">
    <!-- Generator: Sketch 3.4.4 (17249) - http://www.bohemiancoding.com/sketch -->
    <title>icon-activity-explore</title>
    <desc>Created with Sketch.</desc>
    <defs>
        <path id="path-1" d="M0,0.56 L87.45,0.56 L87.45,57 L0,57"></path>
    </defs>
    <g id="Page-1" stroke="none" stroke-width="1" fill="none" fill-rule="evenodd" sketch:type="MSPage">
        <g id="icon-activity-explore" sketch:type="MSLayerGroup">
            <path d="M25.4558,18.3486 C25.5398,18.5326 25.7208,18.6406 25.9098,18.6406 C25.9798,18.6406 26.0508,18.6256 26.1178,18.5946 C26.3698,18.4796 26.4788,18.1826 26.3638,17.9316 L23.6348,11.9816 C23.5188,11.7296 23.2208,11.6216 22.9728,11.7356 C22.7208,11.8506 22.6108,12.1476 22.7268,12.3986 L25.4558,18.3486 Z" id="Fill-1" fill="#EB91A2" sketch:type="MSShapeGroup"></path>
            <path d="M59.9969,18.5923 C60.0649,18.6253 60.1389,18.6403 60.2099,18.6403 C60.3969,18.6403 60.5769,18.5343 60.6619,18.3533 L63.4629,12.4033 C63.5809,12.1533 63.4739,11.8553 63.2239,11.7383 C62.9759,11.6193 62.6759,11.7273 62.5589,11.9773 L59.7579,17.9273 C59.6399,18.1773 59.7469,18.4753 59.9969,18.5923" id="Fill-3" fill="#EB91A2" sketch:type="MSShapeGroup"></path>
            <path d="M87.3973,20.0166 C87.2733,19.7686 86.9733,19.6706 86.7263,19.7926 L72.8673,26.7236 C72.6203,26.8466 72.5203,27.1466 72.6433,27.3936 C72.7313,27.5696 72.9083,27.6706 73.0903,27.6706 C73.1663,27.6706 73.2423,27.6536 73.3143,27.6176 L87.1733,20.6876 C87.4203,20.5636 87.5203,20.2636 87.3973,20.0166" id="Fill-5" fill="#EB91A2" sketch:type="MSShapeGroup"></path>
            <path d="M14.4304,27.6704 C14.6144,27.6704 14.7904,27.5684 14.8774,27.3934 C15.0004,27.1464 14.9004,26.8454 14.6534,26.7224 L0.7224,19.7924 C0.4774,19.6704 0.1754,19.7694 0.0524,20.0174 C-0.0706,20.2644 0.0304,20.5654 0.2774,20.6884 L14.2074,27.6184 C14.2794,27.6534 14.3554,27.6704 14.4304,27.6704" id="Fill-7" fill="#EB91A2" sketch:type="MSShapeGroup"></path>
            <g id="Group-11">
                <mask id="mask-2" sketch:name="Clip 10" fill="white">
                    <use xlink:href="#path-1"></use>
                </mask>
                <g id="Clip-10"></g>
                <path d="M74.4959,54.9521 C73.9129,55.6181 73.0949,56.0001 72.2499,56.0001 L44.4709,56.0001 L44.4709,50.9261 C44.8979,44.5901 50.7549,43.6211 52.0939,43.4861 C52.1199,43.4901 52.1469,43.4931 52.1789,43.4901 C52.4159,43.4811 52.9089,43.4631 52.9079,42.9681 C52.9069,42.6991 52.6649,42.4741 52.3949,42.4661 C52.3639,42.4651 52.3319,42.4641 52.2979,42.4641 C50.8659,42.4641 46.4759,43.3591 44.4709,47.1911 L44.4709,37.9501 C44.4709,37.6741 44.2469,37.4501 43.9709,37.4501 C43.6939,37.4501 43.4709,37.6741 43.4709,37.9501 L43.4709,56.0001 L21.2569,56.0001 C21.4829,54.9241 23.1069,48.4531 29.0579,48.0031 C33.0749,48.3321 34.3549,51.1781 34.4099,51.3061 C34.4919,51.4961 34.6769,51.6091 34.8699,51.6091 C34.9349,51.6091 35.0019,51.5971 35.0659,51.5691 C35.3189,51.4611 35.4369,51.1691 35.3309,50.9151 C35.2689,50.7691 33.8749,47.6261 29.6179,47.0641 C29.5369,47.0091 29.4449,46.9701 29.3409,46.9701 C29.3349,46.9701 29.3279,46.9701 29.3209,46.9711 C29.2179,46.9741 29.1279,46.9961 29.0279,47.0031 C28.7879,46.9861 28.5469,46.9701 28.2899,46.9701 C23.6829,46.9701 22.2429,42.8661 22.1829,42.6911 C22.0959,42.4301 21.8149,42.2891 21.5509,42.3761 C21.2899,42.4641 21.1479,42.7461 21.2349,43.0081 C21.2489,43.0501 22.5029,46.6411 26.2029,47.6821 C21.3589,49.7941 20.2489,55.9241 20.2369,55.9971 L20.2369,56.0001 L15.6899,56.0001 C14.8219,56.0001 13.9959,55.6291 13.4249,54.9811 C12.8329,54.3101 12.5699,53.4301 12.6859,52.5021 C13.4299,46.5261 15.9269,40.4631 19.7599,35.5721 C21.1049,36.9451 22.4539,37.6411 23.7769,37.6411 L23.8469,37.6411 C25.5969,37.6091 26.6099,36.3541 26.6519,36.3011 C26.8229,36.0851 26.7869,35.7731 26.5719,35.6011 C26.3569,35.4291 26.0449,35.4641 25.8699,35.6781 C25.8389,35.7161 25.0899,36.6241 23.8129,36.6411 L23.7779,36.6411 C22.7059,36.6411 21.5679,36.0161 20.3909,34.7851 C22.2219,32.5941 24.3359,30.6711 26.6859,29.1321 C26.7459,29.1911 26.8149,29.2411 26.9019,29.2641 C27.1149,29.3201 32.1079,30.7211 31.8509,36.5281 C31.5549,43.1971 37.2549,44.1751 37.3119,44.1841 C37.3389,44.1881 37.3649,44.1901 37.3909,44.1901 C37.6329,44.1901 37.8459,44.0141 37.8849,43.7681 C37.9279,43.4951 37.7409,43.2401 37.4689,43.1971 C37.2879,43.1681 33.4469,42.4911 32.9119,38.0671 C33.0599,38.0781 33.2119,38.1041 33.3549,38.1041 C34.3749,38.1041 35.2919,37.8061 36.0909,37.2121 C38.3749,35.5141 38.8469,32.0021 38.8659,31.8531 C38.9009,31.5791 38.7079,31.3291 38.4329,31.2941 C38.1579,31.2561 37.9099,31.4521 37.8739,31.7261 C37.8699,31.7581 37.4329,34.9701 35.4909,36.4111 C34.7489,36.9621 33.8609,37.1691 32.8529,37.0601 C32.8519,36.8971 32.8419,36.7441 32.8489,36.5721 C33.0889,31.1661 29.1919,29.0851 27.7139,28.4931 C31.1959,26.4391 35.1589,25.2201 39.4899,25.2201 C41.4599,25.2201 41.9259,26.3821 42.3759,27.5051 C42.6829,28.2711 43.0319,29.1401 43.9709,29.1401 C44.9099,29.1401 45.2339,28.2791 45.5199,27.5191 C45.9459,26.3891 46.3869,25.2201 48.4499,25.2201 C54.4049,25.2201 59.6519,27.4631 63.9009,31.0141 C63.8399,31.0151 63.7789,31.0261 63.7199,31.0521 C61.7899,31.8931 60.5439,33.0701 60.0179,34.5481 C59.2999,36.5691 60.2169,38.3831 60.2559,38.4591 C60.3449,38.6311 60.5189,38.7301 60.6999,38.7301 C60.7769,38.7301 60.8559,38.7121 60.9299,38.6741 C61.1749,38.5481 61.2709,38.2461 61.1439,38.0001 C61.1369,37.9861 60.3859,36.5001 60.9609,34.8831 C61.3899,33.6761 62.4529,32.6951 64.1199,31.9691 C64.3269,31.8781 64.4329,31.6651 64.4079,31.4521 C66.4769,33.2671 68.2969,35.3921 69.8309,37.7201 C69.6719,37.8571 69.6069,38.0821 69.6899,38.2861 C69.7269,38.3761 70.5459,40.5251 66.6329,43.4291 C62.0029,46.8631 64.6399,52.0591 64.6669,52.1121 C64.7559,52.2831 64.9299,52.3801 65.1099,52.3801 C65.1869,52.3801 65.2669,52.3621 65.3409,52.3241 C65.5849,52.1971 65.6809,51.8951 65.5539,51.6501 C65.4599,51.4681 63.2909,47.1521 67.2279,44.2311 C69.9789,42.1911 70.6629,40.3731 70.7609,39.2101 C73.1709,43.3161 74.7289,47.9331 75.2529,52.4971 C75.2539,52.5001 75.2539,52.5031 75.2549,52.5061 C75.3709,53.3771 75.0939,54.2681 74.4959,54.9521 M48.4499,24.2201 C45.6939,24.2201 45.0259,25.9931 44.5849,27.1661 C44.3299,27.8431 44.1939,28.1401 43.9709,28.1401 C43.7339,28.1401 43.5789,27.8171 43.3049,27.1321 C42.8389,25.9731 42.1359,24.2201 39.4899,24.2201 C31.7669,24.2201 24.6379,27.9881 19.4919,34.1011 C19.3939,34.1111 19.2959,34.1411 19.2159,34.2101 C19.0859,34.3211 19.0359,34.4831 19.0519,34.6411 C15.2089,39.4171 12.5449,45.5371 11.6939,52.3781 C11.5419,53.5951 11.8899,54.7541 12.6749,55.6431 C13.4359,56.5051 14.5349,57.0001 15.6899,57.0001 L72.2499,57.0001 C73.3829,57.0001 74.4749,56.4941 75.2479,55.6111 C76.0349,54.7111 76.3989,53.5341 76.2459,52.3791 C74.4309,36.5891 62.2229,24.2201 48.4499,24.2201" id="Fill-9" fill="#EB91A2" sketch:type="MSShapeGroup" mask="url(#mask-2)"></path>
            </g>
            <path d="M58.2498,46.2002 C56.4218,46.2002 53.0108,43.0782 53.0108,37.1102 C53.0108,34.9052 52.4358,33.4172 51.3018,32.6872 C49.7378,31.6802 47.7658,32.5572 47.6838,32.5952 C47.4328,32.7092 47.3208,33.0062 47.4358,33.2572 C47.5508,33.5092 47.8478,33.6212 48.0978,33.5052 C48.1118,33.4982 49.6478,32.8122 50.7608,33.5282 C51.5898,34.0612 52.0108,35.2672 52.0108,37.1102 C52.0108,43.6072 55.6998,47.2002 58.2498,47.2002 C58.5258,47.2002 58.7498,46.9762 58.7498,46.7002 C58.7498,46.4242 58.5258,46.2002 58.2498,46.2002" id="Fill-12" fill="#EB91A2" sketch:type="MSShapeGroup"></path>
            <path d="M53.2625,50.543 C52.9765,50.513 52.7465,50.711 52.7155,50.983 C52.6845,51.255 52.8805,51.502 53.1525,51.537 C53.2415,51.548 55.3315,51.851 55.0915,55.346 C55.0735,55.622 55.2815,55.86 55.5565,55.879 C55.5685,55.88 55.5795,55.88 55.5915,55.88 C55.8515,55.88 56.0715,55.679 56.0895,55.415 C56.3985,50.925 53.2935,50.546 53.2625,50.543" id="Fill-14" fill="#EB91A2" sketch:type="MSShapeGroup"></path>
            <path d="M44.2498,17.0303 C44.5258,17.0303 44.7498,16.8063 44.7498,16.5303 L44.7498,1.0603 C44.7498,0.7833 44.5258,0.5603 44.2498,0.5603 C43.9738,0.5603 43.7498,0.7833 43.7498,1.0603 L43.7498,16.5303 C43.7498,16.8063 43.9738,17.0303 44.2498,17.0303" id="Fill-16" fill="#EB91A2" sketch:type="MSShapeGroup"></path>
            <path d="M44.0013,52.195 C43.9933,52.203 43.9463,52.674 43.9393,52.667 C43.9393,52.667 43.4493,56.428 40.9293,56.428 L47.0113,56.428 C44.4913,56.428 44.0013,52.195 44.0013,52.195" id="Fill-18" fill="#EB91A2" sketch:type="MSShapeGroup"></path>
        </g>
    </g>
</svg>