<svg id="Layer_1" data-name="Layer 1" xmlns="http://www.w3.org/2000/svg" viewBox="0 0 346.53 117.83"><defs><style>.cls-1{fill:#0a1e3e;stroke:#fff;stroke-miterlimit:10;stroke-width:3.2px;}.cls-2{fill:#3da2db;}.cls-3{fill:#00bcd6;}.cls-4{fill:#fdc20f;}.cls-5{fill:#8ac542;}.cls-6{fill:#4653a4;}.cls-7{fill:#292a2a;opacity:0.4;}</style></defs><title>SSCConference&amp;amp;Exp_home_Logo</title><rect class="cls-1" x="1.6" y="1.6" width="114.63" height="114.63" rx="7.18" ry="7.18"/><path class="cls-2" d="M66.63,145.25l3-3.56a9.32,9.32,0,0,0,5.68,2.4c2.15,0,3.21-.85,3.21-2.22s-1.3-1.9-3.31-2.75l-3-1.27c-2.36-1-4.62-2.93-4.62-6.27,0-3.81,3.38-6.84,8.18-6.84a10.64,10.64,0,0,1,7.4,3L80.49,131a7.45,7.45,0,0,0-4.76-1.83c-1.8,0-2.93.78-2.93,2.08s1.52,1.9,3.49,2.71l3,1.2c2.78,1.13,4.55,3,4.55,6.24,0,3.81-3.17,7.12-8.67,7.12A12.58,12.58,0,0,1,66.63,145.25Z" transform="translate(-34.39 -44.77)"/><path class="cls-3" d="M86.62,136.79c0-7.61,5-12.06,10.86-12.06a9.71,9.71,0,0,1,6.91,3L101.64,131a5.88,5.88,0,0,0-4.05-1.83c-3.14,0-5.64,2.78-5.64,7.4s2.19,7.47,5.57,7.47a6.13,6.13,0,0,0,4.48-2.15l2.75,3.24a9.46,9.46,0,0,1-7.44,3.38C91.48,148.56,86.62,144.51,86.62,136.79Z" transform="translate(-34.39 -44.77)"/><path class="cls-4" d="M105.83,136.79c0-7.61,5-12.06,10.86-12.06a9.71,9.71,0,0,1,6.91,3L120.84,131a5.87,5.87,0,0,0-4.05-1.83c-3.14,0-5.64,2.78-5.64,7.4s2.19,7.47,5.57,7.47a6.13,6.13,0,0,0,4.48-2.15l2.75,3.24a9.46,9.46,0,0,1-7.44,3.38C110.69,148.56,105.83,144.51,105.83,136.79Z" transform="translate(-34.39 -44.77)"/><polygon class="cls-5" points="76.44 46.29 76.44 42.22 74.4 42.22 74.4 38.16 70.34 38.16 70.34 42.22 68.3 42.22 68.3 46.29 66.78 46.29 66.78 66.03 77.97 66.03 77.97 46.29 76.44 46.29"/><rect class="cls-5" x="66.78" y="68.21" width="11.19" height="8.23"/><rect class="cls-4" x="80.08" y="56.43" width="11.19" height="9.61"/><rect class="cls-4" x="80.08" y="68.21" width="11.19" height="8.23"/><polygon class="cls-3" points="65.05 33.72 63.52 33.72 63.52 30.36 61.49 30.36 61.49 26.29 61.08 26.29 59.45 10.25 57.83 26.29 57.42 26.29 57.42 30.36 55.39 30.36 55.39 33.72 53.86 33.72 53.86 61.36 53.86 63.02 53.86 63.53 57.59 67.27 53.86 71 53.86 71.35 53.86 74.6 53.86 76.43 65.05 76.43 65.05 70.99 61.3 67.24 65.05 63.49 65.05 33.72"/><polygon class="cls-6" points="52.01 66.06 52.01 65.85 52.01 65.1 52.01 46.29 40.82 46.29 40.82 65.1 40.82 65.85 40.82 66.06 52.01 66.06"/><polygon class="cls-6" points="40.82 68.23 40.82 73.8 40.82 76.43 52.01 76.43 52.01 73.8 52.01 68.23 40.82 68.23"/><polygon class="cls-2" points="27.63 68.23 27.57 68.23 27.57 72.93 27.57 76.43 38.76 76.43 38.76 72.93 38.76 68.23 32.08 68.23 27.63 68.23"/><polygon class="cls-2" points="27.57 56.43 27.57 64.1 27.57 65.98 27.57 66.06 27.63 66.06 32.08 66.06 38.76 66.06 38.76 66.13 38.76 64.23 38.76 56.43 27.57 56.43"/><path class="cls-4" d="M132.78,111.11h-7.12v1.6h7.12a1.7,1.7,0,0,1,1.69,1.69v19.88a1.7,1.7,0,0,1-1.69,1.69H107.63v1.6h25.14a3.3,3.3,0,0,0,3.3-3.3V114.4A3.3,3.3,0,0,0,132.78,111.11Z" transform="translate(-34.39 -44.77)"/><path class="cls-2" d="M52.13,134.28V114.4a1.7,1.7,0,0,1,1.69-1.69H62v-1.6H53.83a3.3,3.3,0,0,0-3.3,3.3v19.88a3.3,3.3,0,0,0,3.3,3.3H77.07V136H53.83A1.7,1.7,0,0,1,52.13,134.28Z" transform="translate(-34.39 -44.77)"/><path class="cls-2" d="M181.71,75.82l1.74-2a9,9,0,0,0,6.32,2.86c3,0,4.78-1.5,4.78-3.73s-1.64-3.07-3.81-4l-3.28-1.43c-2.16-.91-4.64-2.55-4.64-5.9s3-6.07,7.19-6.07a9.5,9.5,0,0,1,6.77,2.83l-1.57,1.89A7.3,7.3,0,0,0,190,58c-2.55,0-4.26,1.29-4.26,3.35s2,3,3.81,3.8l3.25,1.4c2.65,1.15,4.71,2.72,4.71,6.11,0,3.63-3,6.53-7.78,6.53A11.11,11.11,0,0,1,181.71,75.82Z" transform="translate(-34.39 -44.77)"/><path class="cls-2" d="M202,55.89h3.49l4.4,12.22c0.56,1.57,1.08,3.21,1.64,4.78h0.14c0.56-1.57,1-3.21,1.57-4.78l4.33-12.22h3.52v22.9h-2.72V66.19c0-2,.25-4.75.38-6.77h-0.14l-1.82,5.2-4.33,11.87h-1.92l-4.33-11.87-1.82-5.2h-0.14c0.14,2,.35,4.75.35,6.77v12.6H202V55.89Z" transform="translate(-34.39 -44.77)"/><path class="cls-2" d="M232.1,55.89h3.28l7.75,22.9H240l-2.16-7h-8.34l-2.2,7h-3Zm-1.85,13.58h6.88L236,66c-0.84-2.55-1.57-5.06-2.3-7.71H233.6c-0.7,2.65-1.43,5.17-2.27,7.71Z" transform="translate(-34.39 -44.77)"/><path class="cls-2" d="M246.37,55.89h7.16c4.68,0,8,1.68,8,6.42a6.25,6.25,0,0,1-5.17,6.49l5.83,10h-3.28l-5.51-9.67h-4.15v9.67h-2.9V55.89Zm6.74,10.85c3.56,0,5.55-1.47,5.55-4.43s-2-4.08-5.55-4.08h-3.84v8.52h3.84Z" transform="translate(-34.39 -44.77)"/><path class="cls-2" d="M270.48,58.33h-6.91V55.89h16.75v2.44h-6.91V78.79h-2.93V58.33Z" transform="translate(-34.39 -44.77)"/><path class="cls-2" d="M290.09,67.34c0-7.37,4.33-11.87,10.16-11.87a8.36,8.36,0,0,1,6.28,2.83L305,60.18A6.26,6.26,0,0,0,300.28,58c-4.33,0-7.19,3.56-7.19,9.25s2.76,9.39,7.09,9.39a6.91,6.91,0,0,0,5.3-2.58l1.61,1.82a8.86,8.86,0,0,1-7,3.32C294.34,79.21,290.09,74.81,290.09,67.34Z" transform="translate(-34.39 -44.77)"/><path class="cls-2" d="M311.34,55.89h2.9v22.9h-2.9V55.89Z" transform="translate(-34.39 -44.77)"/><path class="cls-2" d="M325.26,58.33h-6.91V55.89H335.1v2.44h-6.91V78.79h-2.93V58.33Z" transform="translate(-34.39 -44.77)"/><path class="cls-2" d="M339.21,55.89h2.9v22.9h-2.9V55.89Z" transform="translate(-34.39 -44.77)"/><path class="cls-2" d="M348.39,55.89h13.19v2.44h-10.3v7.19H360V68h-8.69v8.31h10.65v2.48H348.39V55.89Z" transform="translate(-34.39 -44.77)"/><path class="cls-2" d="M365.1,75.82l1.74-2a9,9,0,0,0,6.32,2.86c3,0,4.78-1.5,4.78-3.73s-1.64-3.07-3.81-4l-3.28-1.43c-2.16-.91-4.64-2.55-4.64-5.9s3-6.07,7.19-6.07a9.5,9.5,0,0,1,6.77,2.83l-1.57,1.89a7.3,7.3,0,0,0-5.2-2.16c-2.55,0-4.26,1.29-4.26,3.35s2,3,3.81,3.8l3.25,1.4c2.65,1.15,4.71,2.72,4.71,6.11,0,3.63-3,6.53-7.78,6.53A11.11,11.11,0,0,1,365.1,75.82Z" transform="translate(-34.39 -44.77)"/><path class="cls-4" d="M182.45,108.29C182.45,98,189.27,92,197.14,92A13.15,13.15,0,0,1,206.49,96l-3.72,4.48A8,8,0,0,0,197.29,98c-4.24,0-7.63,3.77-7.63,10s3,10.11,7.54,10.11a8.3,8.3,0,0,0,6.06-2.91l3.72,4.39a12.8,12.8,0,0,1-10.06,4.58C189,124.22,182.45,118.74,182.45,108.29Z" transform="translate(-34.39 -44.77)"/><path class="cls-4" d="M208.44,108c0-10.16,5.72-16,14.12-16s14.12,5.87,14.12,16-5.72,16.26-14.12,16.26S208.44,118.12,208.44,108Zm21,0c0-6.2-2.67-9.92-6.92-9.92s-6.92,3.72-6.92,9.92,2.67,10.21,6.92,10.21S229.47,114.21,229.47,108Z" transform="translate(-34.39 -44.77)"/><path class="cls-4" d="M242.53,92.56h7.2L257.84,108l3.05,6.87h0.19c-0.29-3.29-.86-7.68-0.86-11.35v-11h6.68v31.1h-7.2l-8.11-15.5-3.05-6.77h-0.19c0.29,3.43.86,7.58,0.86,11.26v11h-6.68V92.56Z" transform="translate(-34.39 -44.77)"/><path class="cls-4" d="M274.24,92.56h7.2L289.55,108l3.05,6.87h0.19c-0.29-3.29-.86-7.68-0.86-11.35v-11h6.68v31.1h-7.2l-8.11-15.5-3.05-6.77h-0.19c0.29,3.43.86,7.58,0.86,11.26v11h-6.68V92.56Z" transform="translate(-34.39 -44.77)"/><path class="cls-4" d="M306,92.56h19.46v5.91H313v6.25h10.59v5.87H313v7.15h12.92v5.91H306V92.56Z" transform="translate(-34.39 -44.77)"/><path class="cls-4" d="M330.6,108.29C330.6,98,337.42,92,345.29,92A13.15,13.15,0,0,1,354.64,96l-3.72,4.48A8,8,0,0,0,345.43,98c-4.24,0-7.63,3.77-7.63,10s3,10.11,7.54,10.11a8.3,8.3,0,0,0,6.06-2.91l3.72,4.39a12.8,12.8,0,0,1-10.06,4.58C337.18,124.22,330.6,118.74,330.6,108.29Z" transform="translate(-34.39 -44.77)"/><path class="cls-4" d="M365.32,98.47h-8.54V92.56h24.13v5.91h-8.54v25.18h-7.06V98.47Z" transform="translate(-34.39 -44.77)"/><path class="cls-7" d="M182.86,144.33c0-4.7,2.76-7.57,6.48-7.57a5.34,5.34,0,0,1,4,1.8l-1,1.2a4,4,0,0,0-3-1.38c-2.76,0-4.59,2.27-4.59,5.9s1.76,6,4.52,6a4.41,4.41,0,0,0,3.39-1.65l1,1.16a5.65,5.65,0,0,1-4.48,2.12C185.58,151.9,182.86,149.09,182.86,144.33Z" transform="translate(-34.39 -44.77)"/><path class="cls-7" d="M194.93,144.26c0-4.68,2.56-7.51,6.24-7.51s6.26,2.85,6.26,7.51-2.58,7.64-6.26,7.64S194.93,149,194.93,144.26Zm10.56,0c0-3.63-1.72-5.88-4.32-5.88s-4.32,2.25-4.32,5.88,1.72,6,4.32,6S205.49,147.91,205.49,144.26Z" transform="translate(-34.39 -44.77)"/><path class="cls-7" d="M210.57,137h1.92l5.28,9.18,1.58,3h0.09c-0.09-1.47-.22-3.12-0.22-4.66V137H221v14.61h-1.92l-5.3-9.2-1.58-3h-0.09c0.11,1.47.24,3,.24,4.57v7.64h-1.76V137Z" transform="translate(-34.39 -44.77)"/><path class="cls-7" d="M225,137h8.42v1.56h-6.57v4.95h5.57v1.56h-5.57v6.55H225V137Z" transform="translate(-34.39 -44.77)"/><path class="cls-7" d="M236,137h8.42v1.56h-6.57v4.59h5.55v1.58h-5.55V150h6.79v1.58H236V137Z" transform="translate(-34.39 -44.77)"/><path class="cls-7" d="M247.73,137h4.57c3,0,5.12,1.07,5.12,4.1a4,4,0,0,1-3.3,4.14l3.72,6.37h-2.09l-3.52-6.17h-2.65v6.17h-1.85V137Zm4.3,6.93c2.27,0,3.54-.94,3.54-2.83s-1.27-2.61-3.54-2.61h-2.45v5.44H252Z" transform="translate(-34.39 -44.77)"/><path class="cls-7" d="M260.4,137h8.42v1.56h-6.57v4.59h5.55v1.58h-5.55V150H269v1.58H260.4V137Z" transform="translate(-34.39 -44.77)"/><path class="cls-7" d="M272.14,137h1.92l5.28,9.18,1.58,3H281c-0.09-1.47-.22-3.12-0.22-4.66V137h1.76v14.61h-1.91l-5.3-9.2-1.58-3h-0.09c0.11,1.47.25,3,.25,4.57v7.64h-1.76V137Z" transform="translate(-34.39 -44.77)"/><path class="cls-7" d="M285.71,144.33c0-4.7,2.76-7.57,6.48-7.57a5.34,5.34,0,0,1,4,1.8l-1,1.2a4,4,0,0,0-3-1.38c-2.76,0-4.59,2.27-4.59,5.9s1.76,6,4.52,6a4.41,4.41,0,0,0,3.39-1.65l1,1.16a5.65,5.65,0,0,1-4.48,2.12C288.42,151.9,285.71,149.09,285.71,144.33Z" transform="translate(-34.39 -44.77)"/><path class="cls-7" d="M299.27,137h8.42v1.56h-6.57v4.59h5.55v1.58h-5.55V150h6.79v1.58h-8.64V137Z" transform="translate(-34.39 -44.77)"/><path class="cls-7" d="M314.17,147.85c0-2,1.38-3.18,2.87-4.21a7.85,7.85,0,0,1-1-3.43,3.31,3.31,0,0,1,3.39-3.45,2.7,2.7,0,0,1,2.87,2.9c0,1.92-1.67,3.14-3.3,4.32a19,19,0,0,0,3.7,4.1,12.78,12.78,0,0,0,2-4.32h1.71A16.59,16.59,0,0,1,324,149a9.71,9.71,0,0,0,2.74,1.4l-0.49,1.51a11.45,11.45,0,0,1-3.36-1.67,6.13,6.13,0,0,1-4.21,1.67C316,151.9,314.17,150.21,314.17,147.85Zm7.44,1.4a21.58,21.58,0,0,1-3.83-4.34c-1,.83-1.83,1.69-1.83,2.83a2.69,2.69,0,0,0,2.87,2.7A4.27,4.27,0,0,0,321.61,149.25Zm-3.25-6.5c1.34-.89,2.49-1.78,2.49-3.07a1.4,1.4,0,0,0-1.38-1.6,1.9,1.9,0,0,0-1.8,2.12A6.14,6.14,0,0,0,318.36,142.74Z" transform="translate(-34.39 -44.77)"/><path class="cls-7" d="M333.49,137h8.42v1.56h-6.57v4.59h5.55v1.58h-5.55V150h6.79v1.58h-8.64V137Z" transform="translate(-34.39 -44.77)"/><path class="cls-7" d="M347.81,144.08l-4-7.06h2l2,3.74c0.38,0.67.69,1.27,1.14,2.12h0.09c0.4-.85.69-1.45,1-2.12l1.94-3.74h2l-4,7.15,4.26,7.46h-2l-2.14-3.94c-0.38-.71-0.78-1.45-1.25-2.34h-0.09c-0.42.89-.8,1.63-1.16,2.34l-2.12,3.94h-2Z" transform="translate(-34.39 -44.77)"/><path class="cls-7" d="M356.65,137h4.17c3.27,0,5.48,1.09,5.48,4.3s-2.18,4.52-5.39,4.52H358.5v5.79h-1.85V137Zm4,7.31c2.54,0,3.76-.94,3.76-3s-1.29-2.81-3.85-2.81H358.5v5.81h2.18Z" transform="translate(-34.39 -44.77)"/><path class="cls-7" d="M368.42,144.26c0-4.68,2.56-7.51,6.24-7.51s6.26,2.85,6.26,7.51-2.58,7.64-6.26,7.64S368.42,149,368.42,144.26Zm10.56,0c0-3.63-1.72-5.88-4.32-5.88s-4.32,2.25-4.32,5.88,1.72,6,4.32,6S379,147.91,379,144.26Z" transform="translate(-34.39 -44.77)"/></svg>