<?xml version="1.0" encoding="utf-8"?>
<!-- Generator: Adobe Illustrator 18.0.0, SVG Export Plug-In . SVG Version: 6.00 Build 0)  -->
<!DOCTYPE svg PUBLIC "-//W3C//DTD SVG 1.1//EN" "http://www.w3.org/Graphics/SVG/1.1/DTD/svg11.dtd">
<svg version="1.1" id="Layer_1" xmlns="http://www.w3.org/2000/svg" xmlns:xlink="http://www.w3.org/1999/xlink" x="0px" y="0px"
	 viewBox="0 0 800 578" enable-background="new 0 0 800 578" xml:space="preserve">
<path id="444_bg" fill="#292F33" d="M800,489.1c0,49.1-39.8,88.9-88.9,88.9H88.9C39.8,578,0,538.2,0,489.1V88.9
	C0,39.8,39.8,0,88.9,0h622.2C760.2,0,800,39.8,800,88.9V489.1z"/>
<g>
	<defs>
		<path id="444_mask_1" d="M244,421.8c0,49.1-17.7,66.2-66.8,66.2H88.3C39.2,488,22,470.8,22,421.8V155.1
			C22,106.1,39.2,89,88.3,89h88.9c49.1,0,66.8,17.1,66.8,66.1V421.8z"/>
	</defs>
	<clipPath id="444_mask_1_1_">
		<use xlink:href="#444_mask_1"  overflow="visible"/>
	</clipPath>
	<g id="444_slot_1" clip-path="url(#444_mask_1_1_)">
		<rect x="22" y="-1829" fill="#CCD6DD" width="221" height="2327"/>
		<g>
			<path fill="#BE1931" d="M114.5,316.5h62.6c13.2,0,18.1,8.6,18.1,16.9c0,8.5-4.6,16.9-18.1,16.9H88.6C76.2,350.2,71,339,71,332.6
				c0-4.9,2.7-10,5.6-16.1l60.6-123.2c6.8-13.7,9.5-18.6,20.5-18.6c13.4,0,20.3,10.3,20.3,17.4c0,3-0.7,5.1-2.4,8.5L114.5,316.5z"/>
			<path fill="#BE1931" d="M143,318.9v44c0,13.4,8.3,18.1,16.9,18.1c8.3,0,16.9-4.9,16.9-18.1v-44H143z"/>
			<path fill="#BE1931" d="M176.8,350.9v-44c0-13.4-8.3-18.1-16.9-18.1c-8.3,0-16.9,4.9-16.9,18.1v44H176.8z"/>
		</g>
		<rect x="22.7" y="-48.8" fill="#E1E8ED" width="220.9" height="208.3"/>
		<rect x="22.7" y="-465.9" fill="#E1E8ED" width="220.9" height="208.3"/>
		<rect x="22.7" y="-883" fill="#E1E8ED" width="220.9" height="208.3"/>
		<rect x="22.7" y="-1300.2" fill="#E1E8ED" width="220.9" height="208.3"/>
		<rect x="22.7" y="-1717.3" fill="#E1E8ED" width="220.9" height="208.3"/>
		<rect x="23" y="400" fill="#E1E8ED" width="221" height="99"/>
		<g>
			<path fill="#A0041E" d="M77-806.8c0,0,0,41.6,0,49.8c0,8.2,4.3,10,4.3,10s39.1,30.9,46.5,36.6c7.3,5.8,5.2-6.4,5.2-6.4v-45.8
				L77-806.8z"/>
			<path fill="#DD2E44" d="M189-806.8c0,0,0,41.6,0,49.8c0,8.2-4,10-4,10s-39.3,30.9-46.6,36.6c-7.3,5.8-5.4-6.4-5.4-6.4v-45.8
				L189-806.8z"/>
			<path fill="#EA596E" d="M138.3-849.1c-3-2.5-8-2.5-11,0L79-810.7c-3,2.5-3,6.5,0,8.9l48.4,38.8c3,2.5,8,2.5,11,0l48.7-39.2
				c3-2.5,3-6.5,0-8.9L138.3-849.1z"/>
			<ellipse fill="#FFFFFF" cx="135.1" cy="-806.8" rx="11.7" ry="9.4"/>
			<path fill="#FFFFFF" d="M175.6-768.4c-3.5,0-5.5-3.6-4.5-8.1c1-4.5,4.7-8.1,8.2-8.1c3.5,0,5.5,3.6,4.5,8.1
				C182.8-772.1,179.1-768.4,175.6-768.4z"/>
			<path fill="#FFFFFF" d="M163.1-747.5c-3.6,0-5.6-3.8-4.6-8.5c1-4.7,4.7-8.5,8.3-8.5c3.6,0,5.6,3.8,4.6,8.5
				C170.4-751.3,166.7-747.5,163.1-747.5z"/>
			<path fill="#FFFFFF" d="M149.3-726.5c-3.4,0-5.3-3.7-4.3-8.3c1-4.6,4.5-8.3,7.9-8.3s5.3,3.7,4.4,8.3
				C156.2-730.2,152.7-726.5,149.3-726.5z"/>
			<path fill="#E1E8ED" d="M89.6-778.6c-4,0-6.3,4.1-5.2,9.1c1.2,5,5.3,9.1,9.3,9.1c4,0,6.3-4.1,5.2-9.1
				C97.8-774.6,93.6-778.6,89.6-778.6z"/>
			<path fill="#E1E8ED" d="M112.1-748.4c-4,0-6.3,4.1-5.2,9.1c1.2,5,5.3,9.1,9.3,9.1c4,0,6.3-4.1,5.2-9.1
				C120.3-744.4,116.1-748.4,112.1-748.4z"/>
			<path fill="#EA596E" d="M133-707.2c-2.2,0-4-1.9-4-4.3v-52.1c0-2.4,1.8-4.3,4-4.3c2.2,0,4,1.9,4,4.3v52.1
				C137-709.1,135.2-707.2,133-707.2z"/>
		</g>
		<g>
			<path fill="#A0041E" d="M77-382.8c0,0,0,41.6,0,49.8c0,8.2,4.3,10,4.3,10s39.1,30.9,46.5,36.6s5.2-6.4,5.2-6.4v-45.8L77-382.8z"
				/>
			<path fill="#DD2E44" d="M189-382.8c0,0,0,41.6,0,49.8c0,8.2-4,10-4,10s-39.3,30.9-46.6,36.6c-7.3,5.8-5.4-6.4-5.4-6.4v-45.8
				L189-382.8z"/>
			<path fill="#EA596E" d="M138.3-425.1c-3-2.5-8-2.5-11,0L79-386.7c-3,2.5-3,6.5,0,8.9l48.4,38.8c3,2.5,8,2.5,11,0l48.7-39.2
				c3-2.5,3-6.5,0-8.9L138.3-425.1z"/>
			<ellipse fill="#FFFFFF" cx="135.1" cy="-382.8" rx="11.7" ry="9.4"/>
			<path fill="#FFFFFF" d="M175.6-344.4c-3.5,0-5.5-3.6-4.5-8.1c1-4.5,4.7-8.1,8.2-8.1c3.5,0,5.5,3.6,4.5,8.1
				C182.8-348.1,179.1-344.4,175.6-344.4z"/>
			<path fill="#FFFFFF" d="M163.1-323.5c-3.6,0-5.6-3.8-4.6-8.5c1-4.7,4.7-8.5,8.3-8.5c3.6,0,5.6,3.8,4.6,8.5
				C170.4-327.3,166.7-323.5,163.1-323.5z"/>
			<path fill="#FFFFFF" d="M149.3-302.5c-3.4,0-5.3-3.7-4.3-8.3c1-4.6,4.5-8.3,7.9-8.3s5.3,3.7,4.4,8.3
				C156.2-306.2,152.7-302.5,149.3-302.5z"/>
			<path fill="#E1E8ED" d="M89.6-354.6c-4,0-6.3,4.1-5.2,9.1c1.2,5,5.3,9.1,9.3,9.1c4,0,6.3-4.1,5.2-9.1
				C97.8-350.6,93.6-354.6,89.6-354.6z"/>
			<path fill="#E1E8ED" d="M112.1-324.4c-4,0-6.3,4.1-5.2,9.1c1.2,5,5.3,9.1,9.3,9.1c4,0,6.3-4.1,5.2-9.1
				C120.3-320.4,116.1-324.4,112.1-324.4z"/>
			<path fill="#EA596E" d="M133-283.2c-2.2,0-4-1.9-4-4.3v-52.1c0-2.4,1.8-4.3,4-4.3c2.2,0,4,1.9,4,4.3v52.1
				C137-285.1,135.2-283.2,133-283.2z"/>
		</g>
		<g>
			<path fill="#A0041E" d="M90.1,498.5l0.6,0.5H77v-8.7c0-1.3,0-2.1,0-2.1L90.1,498.5z"/>
			<path fill="#DD2E44" d="M189,488.2c0,0,0,0.9,0,2.4v8.4h-13.7l0.6-0.5L189,488.2z"/>
			<path fill="#EA596E" d="M189,490.6c-0.4,0.8-1,1.6-1.8,2.3l-7,5.7l-0.6,0.5H86.3l-0.6-0.5l-6.6-5.3c-1-0.8-1.7-1.8-2-2.9
				c-0.7-2.1,0-4.4,2-6l48.2-38.4c3-2.5,8-2.5,11,0l48.9,38C189.4,485.7,190,488.3,189,490.6z"/>
			<ellipse fill="#FFFFFF" cx="135.1" cy="488.2" rx="11.7" ry="9.4"/>
		</g>
		<g>
			<path fill="#E6E7E8" d="M189-929.1c0,8.9-7.2,16.1-16.1,16.1H93.1c-8.9,0-16.1-7.2-16.1-16.1v-111.8c0-8.9,7.2-16.1,16.1-16.1
				h79.8c8.9,0,16.1,7.2,16.1,16.1V-929.1z"/>
			<path fill="#DD2E44" d="M104.9-1028.6c-10.1,0-18.5,7.5-19.8,17.3c2.9-3.2,7.1-5.2,11.8-5.2c8.9,0,16.1,7.2,16.1,16.1
				c0,8.1,6,8.9,2.8,11.8c9.8-1.4,9.2-9.7,9.2-19.8C125.1-1019.6,116.1-1028.6,104.9-1028.6z"/>
			<path fill="#55ACEE" d="M153.3-1000.4c0-8.9,7.2-16.1,16.1-16.1c4.7,0,8.9,2,11.8,5.2c-1.4-9.8-9.7-17.3-19.8-17.3
				c-11.1,0-20.1,9-20.1,20.1c0,10.1-0.5,18.5,9.2,19.8C147.2-991.5,153.3-992.3,153.3-1000.4z"/>
			<path fill="#FFAC33" d="M117-1008.4c0-20,16.1-36.2,16.1-36.2s16.1,16.2,16.1,36.2c0,20-7.2,36.2-16.1,36.2
				C124.2-972.2,117-988.4,117-1008.4z"/>
			<path fill="#553788" d="M107.8-971.9c3.2,2.9,5.2,7.1,5.2,11.8c0,8.9-7.2,16.1-16.1,16.1c-4.7,0-8.9-2-11.8-5.2
				c1.4,9.8,9.7,17.3,19.8,17.3c11.1,0,20.1-9,20.1-20.1C125.1-962.2,117.5-970.5,107.8-971.9z"/>
			<path fill="#553788" d="M169.4-944c-8.9,0-16.1-7.2-16.1-16.1c0-4.7,2-8.9,5.2-11.8c-9.8,1.4-17.3,9.7-17.3,19.8
				c0,11.1,9,20.1,20.1,20.1c10.1,0,18.5-7.5,19.8-17.3C178.2-946,174-944,169.4-944z"/>
			<path fill="#9266CC" d="M117-960.1c0,20,12.1,36.2,16.1,36.2c4,0,16.1-16.2,16.1-36.2c0-20-7.2-36.2-16.1-36.2
				C124.2-996.4,117-980.1,117-960.1z"/>
			<path fill="#EDBB9F" d="M113-988.3c0-15.6,12.1-16.1,20.1-16.1s20.1,0.5,20.1,16.1c0,15.6-9,28.2-20.1,28.2
				C122-960.1,113-972.7,113-988.3z"/>
			<circle fill="#662113" cx="125.1" cy="-988.3" r="4"/>
			<circle fill="#662113" cx="141.2" cy="-988.3" r="4"/>
			<path fill="#662113" d="M133.1-968.9c4.4,0,8.1-3.1,8.1-8.1h-16.1C125.1-972,128.7-968.9,133.1-968.9z"/>
			<circle fill="#A0041E" cx="84.8" cy="-1012.5" r="4"/>
			<circle fill="#226699" cx="181.4" cy="-1012.5" r="4"/>
			<circle fill="#DD2E44" cx="133.1" cy="-1044.7" r="4"/>
		</g>
		<g>
			<path fill="#E6E7E8" d="M189-1556.1c0,8.9-7.2,16.1-16.1,16.1H93.1c-8.9,0-16.1-7.2-16.1-16.1v-111.8c0-8.9,7.2-16.1,16.1-16.1
				h79.8c8.9,0,16.1,7.2,16.1,16.1V-1556.1z"/>
			<path fill="#DD2E44" d="M104.9-1655.6c-10.1,0-18.5,7.5-19.8,17.3c2.9-3.2,7.1-5.2,11.8-5.2c8.9,0,16.1,7.2,16.1,16.1
				c0,8.1,6,8.9,2.8,11.8c9.8-1.4,9.2-9.7,9.2-19.8C125.1-1646.6,116.1-1655.6,104.9-1655.6z"/>
			<path fill="#55ACEE" d="M153.3-1627.4c0-8.9,7.2-16.1,16.1-16.1c4.7,0,8.9,2,11.8,5.2c-1.4-9.8-9.7-17.3-19.8-17.3
				c-11.1,0-20.1,9-20.1,20.1c0,10.1-0.5,18.5,9.2,19.8C147.2-1618.5,153.3-1619.3,153.3-1627.4z"/>
			<path fill="#FFAC33" d="M117-1635.4c0-20,16.1-36.2,16.1-36.2s16.1,16.2,16.1,36.2c0,20-7.2,36.2-16.1,36.2
				C124.2-1599.2,117-1615.4,117-1635.4z"/>
			<path fill="#553788" d="M107.8-1598.9c3.2,2.9,5.2,7.1,5.2,11.8c0,8.9-7.2,16.1-16.1,16.1c-4.7,0-8.9-2-11.8-5.2
				c1.4,9.8,9.7,17.3,19.8,17.3c11.1,0,20.1-9,20.1-20.1C125.1-1589.2,117.5-1597.5,107.8-1598.9z"/>
			<path fill="#553788" d="M169.4-1571c-8.9,0-16.1-7.2-16.1-16.1c0-4.7,2-8.9,5.2-11.8c-9.8,1.4-17.3,9.7-17.3,19.8
				c0,11.1,9,20.1,20.1,20.1c10.1,0,18.5-7.5,19.8-17.3C178.2-1573,174-1571,169.4-1571z"/>
			<path fill="#9266CC" d="M117-1587.1c0,20,12.1,36.2,16.1,36.2c4,0,16.1-16.2,16.1-36.2s-7.2-36.2-16.1-36.2
				C124.2-1623.4,117-1607.1,117-1587.1z"/>
			<path fill="#EDBB9F" d="M113-1615.3c0-15.6,12.1-16.1,20.1-16.1s20.1,0.5,20.1,16.1c0,15.6-9,28.2-20.1,28.2
				C122-1587.1,113-1599.7,113-1615.3z"/>
			<circle fill="#662113" cx="125.1" cy="-1615.3" r="4"/>
			<circle fill="#662113" cx="141.2" cy="-1615.3" r="4"/>
			<path fill="#662113" d="M133.1-1595.9c4.4,0,8.1-3.1,8.1-8.1h-16.1C125.1-1599,128.7-1595.9,133.1-1595.9z"/>
			<circle fill="#A0041E" cx="84.8" cy="-1639.5" r="4"/>
			<circle fill="#226699" cx="181.4" cy="-1639.5" r="4"/>
			<circle fill="#DD2E44" cx="133.1" cy="-1671.7" r="4"/>
		</g>
		<g>
			<path fill="#77B255" d="M163.3,79.1c-0.8,0-1.6-0.2-2.3-0.7C134.7,60,112,28.6,99,8.2c6.8,42.4,4,66.3,3.9,67.4
				c-0.3,2.2-2.3,3.7-4.5,3.5c-2.2-0.3-3.8-2.3-3.5-4.5c0-0.3,3.8-32.3-8-87.3c-0.4-2,0.7-3.9,2.6-4.6c1.9-0.7,4,0.1,4.9,1.9
				c0.3,0.6,32.2,59.9,71.2,87.2c1.8,1.3,2.3,3.8,1,5.6C165.8,78.5,164.6,79.1,163.3,79.1z"/>
			<path fill="#5C913B" d="M165.5,18c-14,3.9-20.3,10.3-43.3,2.7c-19-6.3-28.3-16.9-25.6-25.4c2.8-8.4,12.8-12.7,31.8-6.5
				C147.6-4.9,145.1,2.8,165.5,18z"/>
			<circle fill="#BE1931" cx="163.3" cy="95.2" r="32.2"/>
			<circle fill="#BE1931" cx="102.9" cy="95.2" r="32.2"/>
		</g>
		<g>
			<path fill="#77B255" d="M163.3-540.9c-0.8,0-1.6-0.2-2.3-0.7c-26.3-18.4-49-49.8-62-70.2c6.8,42.4,4,66.3,3.9,67.4
				c-0.3,2.2-2.3,3.7-4.5,3.5c-2.2-0.3-3.8-2.3-3.5-4.5c0-0.3,3.8-32.3-8-87.3c-0.4-2,0.7-3.9,2.6-4.6c1.9-0.7,4,0.1,4.9,1.9
				c0.3,0.6,32.2,59.9,71.2,87.2c1.8,1.3,2.3,3.8,1,5.6C165.8-541.5,164.6-540.9,163.3-540.9z"/>
			<path fill="#5C913B" d="M165.5-602c-14,3.9-20.3,10.3-43.3,2.7c-19-6.3-28.3-16.9-25.6-25.4c2.8-8.4,12.8-12.7,31.8-6.5
				C147.6-624.9,145.1-617.2,165.5-602z"/>
			<circle fill="#BE1931" cx="163.3" cy="-524.8" r="32.2"/>
			<circle fill="#BE1931" cx="102.9" cy="-524.8" r="32.2"/>
		</g>
		<g>
			<path fill="#5C913B" d="M106.5-1257.1c26.1-5.1,34,5.1,46.9,0.3c12.9-4.8,0.4,11.4-3,14.1c-3.4,2.8-32.8,19.4-45.5,13.3
				C92.1-1235.4,92.1-1254.2,106.5-1257.1z"/>
			<path fill="#77B255" d="M121-1206.1c-1.2,0-2.4-0.6-3.2-1.6c-2.8-3.7-5.3-7.9-7.9-12.3c-9.1-15.3-19.5-32.6-46.1-38.5
				c-2.2-0.5-3.5-2.6-3.1-4.8c0.5-2.2,2.6-3.5,4.8-3.1c30,6.7,41.8,26.4,51.3,42.3c2.5,4.2,4.9,8.3,7.4,11.6c1.3,1.8,1,4.3-0.8,5.6
				C122.6-1206.4,121.8-1206.1,121-1206.1z"/>
			<path fill="#FFCC4D" d="M198.7-1143.5c0-0.1,0-0.1,0-0.2c11.2-21.5,10.7-60.9-13.5-85c-23.4-23.4-55.1-23.4-75.6-16.4
				c-6.4,2.5-11.7,0.3-15.4,3.9c-3.5,3.5-1.4,10.9-2.9,15.4c-12.8,20.9-13.7,52.4,10.8,77c20,20,42,27.5,80.5,19.5c0,0,0,0,0,0
				c4.6-0.9,11.9,2.1,14.4-0.4C201.4-1134.1,198.3-1139.2,198.7-1143.5z"/>
			<path fill="#77B255" d="M93.6-1244c0,0-17.2-2.4-27.6,18.5c-10.4,20.9,2.3,36.7,1.2,50.9c-1.2,14.2,6.3,5.1,10.6-1.8
				c4.2-6.9,17-19.7,19.9-37.3C100.4-1231.3,97.3-1239.7,93.6-1244z"/>
		</g>
		<g>
			<g>
				<circle fill="#292F33" cx="133.1" cy="-1407.1" r="72.5"/>
			</g>
			<circle fill="#E1E8ED" cx="133.1" cy="-1407.1" r="36.2"/>
			<path fill="#292F33" d="M115.8-1398.3c0-5.7,3.1-9.8,7.6-12.2c-3.3-2.4-5.4-5.7-5.4-10.1c0-8.3,6.9-13.6,15.3-13.6
				c8.2,0,15.4,5.2,15.4,13.6c0,4-2,7.9-5.5,10.1c4.8,2.4,7.6,6.8,7.6,12.2c0,9.8-8,16.1-17.5,16.1
				C123.5-1382.1,115.8-1388.8,115.8-1398.3z M126.9-1399c0,3.6,2.1,7.1,6.4,7.1c4,0,6.4-3.5,6.4-7.1c0-4.5-2.5-7.1-6.4-7.1
				C129.2-1406.1,126.9-1402.9,126.9-1399z M128.2-1419.5c0,3.2,1.8,5.4,5.1,5.4c3.3,0,5.2-2.2,5.2-5.4c0-3-1.8-5.4-5.2-5.4
				C130-1424.9,128.2-1422.5,128.2-1419.5z"/>
		</g>
		<g>
			<g>
				<circle fill="#292F33" cx="133.1" cy="-149.1" r="72.5"/>
			</g>
			<circle fill="#E1E8ED" cx="133.1" cy="-149.1" r="36.2"/>
			<path fill="#292F33" d="M115.8-140.3c0-5.7,3.1-9.8,7.6-12.2c-3.3-2.4-5.4-5.7-5.4-10.1c0-8.3,6.9-13.6,15.3-13.6
				c8.2,0,15.4,5.2,15.4,13.6c0,4-2,7.9-5.5,10.1c4.8,2.4,7.6,6.8,7.6,12.2c0,9.8-8,16.1-17.5,16.1
				C123.5-124.1,115.8-130.8,115.8-140.3z M126.9-141c0,3.6,2.1,7.1,6.4,7.1c4,0,6.4-3.5,6.4-7.1c0-4.5-2.5-7.1-6.4-7.1
				C129.2-148.1,126.9-144.9,126.9-141z M128.2-161.5c0,3.2,1.8,5.4,5.1,5.4c3.3,0,5.2-2.2,5.2-5.4c0-3-1.8-5.4-5.2-5.4
				C130-166.9,128.2-164.5,128.2-161.5z"/>
		</g>
		<g>
			<path fill="#FFCC4D" d="M189-1784.7c-2.5,2.5-9.7-0.5-14.4,0.4c0,0,0,0,0,0c-38.4,8-60.5,0.6-80.4-19.4
				c-7.9-7.9-13.2-16.3-16.3-25.3h119.7c-0.2,11-2.8,22.2-7,30.4c0,0.1,0,0,0,0.1C190.3-1794.1,193.4-1789.1,189-1784.7z"/>
		</g>
	</g>
</g>
<g>
	<defs>
		<path id="444_mask_2" d="M510,421.8c0,49.1-17.1,66.2-66.2,66.2h-88.9c-49.1,0-66.9-17.2-66.9-66.2V155.1
			c0-49.1,17.9-66.1,66.9-66.1h88.9c49.1,0,66.2,17.1,66.2,66.1V421.8z"/>
	</defs>
	<clipPath id="444_mask_2_1_">
		<use xlink:href="#444_mask_2"  overflow="visible"/>
	</clipPath>
	<g id="444_slot_2" clip-path="url(#444_mask_2_1_)">
		<rect x="289" y="-1822" fill="#CCD6DD" width="221" height="2321"/>
		<rect x="288.3" y="-45.8" fill="#E1E8ED" width="220.9" height="208.3"/>
		<rect x="288.3" y="-462.9" fill="#E1E8ED" width="220.9" height="208.3"/>
		<rect x="288.3" y="-880" fill="#E1E8ED" width="220.9" height="208.3"/>
		<rect x="288.3" y="-1297.2" fill="#E1E8ED" width="220.9" height="208.3"/>
		<rect x="288.3" y="-1714.3" fill="#E1E8ED" width="220.9" height="208.3"/>
		<rect x="288" y="403" fill="#E1E8ED" width="221" height="97"/>
		<g>
			<path fill="#A0041E" d="M346-1638.8c0,0,0,41.6,0,49.8s4.1,10,4.1,10s39.2,30.9,46.6,36.6c7.3,5.8,5.3-6.4,5.3-6.4v-45.8
				L346-1638.8z"/>
			<path fill="#DD2E44" d="M458-1638.8c0,0,0,41.6,0,49.8s-4.2,10-4.2,10s-39.2,30.9-46.5,36.6c-7.3,5.8-5.3-6.4-5.3-6.4v-45.8
				L458-1638.8z"/>
			<path fill="#EA596E" d="M406.9-1681.1c-3-2.5-8-2.5-11,0l-48.2,38.4c-3,2.5-3,6.5,0,8.9L396-1595c3,2.5,8,2.5,11,0l48.7-39.2
				c3-2.5,3-6.5,0-8.9L406.9-1681.1z"/>
			<ellipse fill="#FFFFFF" cx="403.7" cy="-1638.8" rx="11.7" ry="9.4"/>
			<path fill="#FFFFFF" d="M444.2-1600.4c-3.5,0-5.5-3.6-4.5-8.1c1-4.5,4.7-8.1,8.2-8.1c3.5,0,5.5,3.6,4.5,8.1
				C451.4-1604.1,447.7-1600.4,444.2-1600.4z"/>
			<path fill="#FFFFFF" d="M431.7-1579.5c-3.6,0-5.6-3.8-4.6-8.5c1-4.7,4.7-8.5,8.3-8.5c3.6,0,5.6,3.8,4.6,8.5
				C439-1583.3,435.3-1579.5,431.7-1579.5z"/>
			<path fill="#FFFFFF" d="M417.9-1558.5c-3.4,0-5.3-3.7-4.3-8.3c1-4.6,4.5-8.3,7.9-8.3s5.3,3.7,4.4,8.3
				C424.8-1562.2,421.3-1558.5,417.9-1558.5z"/>
			<path fill="#E1E8ED" d="M358.2-1610.6c-4,0-6.3,4.1-5.2,9.1c1.2,5,5.3,9.1,9.3,9.1c4,0,6.3-4.1,5.2-9.1
				C366.4-1606.6,362.2-1610.6,358.2-1610.6z"/>
			<path fill="#E1E8ED" d="M380.7-1580.4c-4,0-6.3,4.1-5.2,9.1c1.2,5,5.3,9.1,9.3,9.1c4,0,6.3-4.1,5.2-9.1
				C388.9-1576.4,384.7-1580.4,380.7-1580.4z"/>
			<path fill="#EA596E" d="M402-1539.2c-2.2,0-4-1.9-4-4.3v-52.1c0-2.4,1.8-4.3,4-4.3c2.2,0,4,1.9,4,4.3v52.1
				C406-1541.1,404.2-1539.2,402-1539.2z"/>
		</g>
		<g>
			<path fill="#A0041E" d="M346-1214.8c0,0,0,41.6,0,49.8s4.1,10,4.1,10s39.2,30.9,46.6,36.6c7.3,5.8,5.3-6.4,5.3-6.4v-45.8
				L346-1214.8z"/>
			<path fill="#DD2E44" d="M458-1214.8c0,0,0,41.6,0,49.8s-4.2,10-4.2,10s-39.2,30.9-46.5,36.6c-7.3,5.8-5.3-6.4-5.3-6.4v-45.8
				L458-1214.8z"/>
			<path fill="#EA596E" d="M406.9-1257.1c-3-2.5-8-2.5-11,0l-48.2,38.4c-3,2.5-3,6.5,0,8.9L396-1171c3,2.5,8,2.5,11,0l48.7-39.2
				c3-2.5,3-6.5,0-8.9L406.9-1257.1z"/>
			<ellipse fill="#FFFFFF" cx="403.7" cy="-1214.8" rx="11.7" ry="9.4"/>
			<path fill="#FFFFFF" d="M444.2-1176.4c-3.5,0-5.5-3.6-4.5-8.1c1-4.5,4.7-8.1,8.2-8.1c3.5,0,5.5,3.6,4.5,8.1
				C451.4-1180.1,447.7-1176.4,444.2-1176.4z"/>
			<path fill="#FFFFFF" d="M431.7-1155.5c-3.6,0-5.6-3.8-4.6-8.5c1-4.7,4.7-8.5,8.3-8.5c3.6,0,5.6,3.8,4.6,8.5
				C439-1159.3,435.3-1155.5,431.7-1155.5z"/>
			<path fill="#FFFFFF" d="M417.9-1134.5c-3.4,0-5.3-3.7-4.3-8.3c1-4.6,4.5-8.3,7.9-8.3s5.3,3.7,4.4,8.3
				C424.8-1138.2,421.3-1134.5,417.9-1134.5z"/>
			<path fill="#E1E8ED" d="M358.2-1186.6c-4,0-6.3,4.1-5.2,9.1c1.2,5,5.3,9.1,9.3,9.1c4,0,6.3-4.1,5.2-9.1
				C366.4-1182.6,362.2-1186.6,358.2-1186.6z"/>
			<path fill="#E1E8ED" d="M380.7-1156.4c-4,0-6.3,4.1-5.2,9.1c1.2,5,5.3,9.1,9.3,9.1c4,0,6.3-4.1,5.2-9.1
				C388.9-1152.4,384.7-1156.4,380.7-1156.4z"/>
			<path fill="#EA596E" d="M402-1115.2c-2.2,0-4-1.9-4-4.3v-52.1c0-2.4,1.8-4.3,4-4.3c2.2,0,4,1.9,4,4.3v52.1
				C406-1117.1,404.2-1115.2,402-1115.2z"/>
		</g>
		<g>
			<path fill="#E6E7E8" d="M457-295.1c0,8.9-7.2,16.1-16.1,16.1h-79.8c-8.9,0-16.1-7.2-16.1-16.1v-111.8c0-8.9,7.2-16.1,16.1-16.1
				h79.8c8.9,0,16.1,7.2,16.1,16.1V-295.1z"/>
			<path fill="#DD2E44" d="M372.5-394.6c-10.1,0-18.5,7.5-19.8,17.3c2.9-3.2,7.1-5.2,11.8-5.2c8.9,0,16.1,7.2,16.1,16.1
				c0,8.1,6,8.9,2.8,11.8c9.8-1.4,9.2-9.7,9.2-19.8C392.7-385.6,383.7-394.6,372.5-394.6z"/>
			<path fill="#55ACEE" d="M420.9-366.4c0-8.9,7.2-16.1,16.1-16.1c4.7,0,8.9,2,11.8,5.2c-1.4-9.8-9.7-17.3-19.8-17.3
				c-11.1,0-20.1,9-20.1,20.1c0,10.1-0.5,18.5,9.2,19.8C414.8-357.5,420.9-358.3,420.9-366.4z"/>
			<path fill="#FFAC33" d="M384.6-374.4c0-20,16.1-36.2,16.1-36.2s16.1,16.2,16.1,36.2c0,20-7.2,36.2-16.1,36.2
				S384.6-354.4,384.6-374.4z"/>
			<path fill="#553788" d="M375.4-337.9c3.2,2.9,5.2,7.1,5.2,11.8c0,8.9-7.2,16.1-16.1,16.1c-4.7,0-8.9-2-11.8-5.2
				c1.4,9.8,9.7,17.3,19.8,17.3c11.1,0,20.1-9,20.1-20.1C392.7-328.2,385.1-336.5,375.4-337.9z"/>
			<path fill="#553788" d="M437-310c-8.9,0-16.1-7.2-16.1-16.1c0-4.7,2-8.9,5.2-11.8c-9.8,1.4-17.3,9.7-17.3,19.8
				c0,11.1,9,20.1,20.1,20.1c10.1,0,18.5-7.5,19.8-17.3C445.8-312,441.6-310,437-310z"/>
			<path fill="#9266CC" d="M384.6-326.1c0,20,12.1,36.2,16.1,36.2s16.1-16.2,16.1-36.2c0-20-7.2-36.2-16.1-36.2
				S384.6-346.1,384.6-326.1z"/>
			<path fill="#EDBB9F" d="M380.6-354.3c0-15.6,12.1-16.1,20.1-16.1s20.1,0.5,20.1,16.1c0,15.6-9,28.2-20.1,28.2
				C389.6-326.1,380.6-338.7,380.6-354.3z"/>
			<circle fill="#662113" cx="392.7" cy="-354.3" r="4"/>
			<circle fill="#662113" cx="408.8" cy="-354.3" r="4"/>
			<path fill="#662113" d="M400.7-334.9c4.4,0,8.1-3.1,8.1-8.1h-16.1C392.7-338,396.3-334.9,400.7-334.9z"/>
			<circle fill="#A0041E" cx="352.4" cy="-378.5" r="4"/>
			<circle fill="#226699" cx="449" cy="-378.5" r="4"/>
			<circle fill="#DD2E44" cx="400.7" cy="-410.7" r="4"/>
		</g>
		<g>
			<path fill="#E6E7E8" d="M454-718.1c0,8.9-7.2,16.1-16.1,16.1h-79.8c-8.9,0-16.1-7.2-16.1-16.1v-111.8c0-8.9,7.2-16.1,16.1-16.1
				h79.8c8.9,0,16.1,7.2,16.1,16.1V-718.1z"/>
			<path fill="#DD2E44" d="M369.5-817.6c-10.1,0-18.5,7.5-19.8,17.3c2.9-3.2,7.1-5.2,11.8-5.2c8.9,0,16.1,7.2,16.1,16.1
				c0,8.1,6,8.9,2.8,11.8c9.8-1.4,9.2-9.7,9.2-19.8C389.7-808.6,380.7-817.6,369.5-817.6z"/>
			<path fill="#55ACEE" d="M417.9-789.4c0-8.9,7.2-16.1,16.1-16.1c4.7,0,8.9,2,11.8,5.2c-1.4-9.8-9.7-17.3-19.8-17.3
				c-11.1,0-20.1,9-20.1,20.1c0,10.1-0.5,18.5,9.2,19.8C411.8-780.5,417.9-781.3,417.9-789.4z"/>
			<path fill="#FFAC33" d="M381.6-797.4c0-20,16.1-36.2,16.1-36.2s16.1,16.2,16.1,36.2s-7.2,36.2-16.1,36.2S381.6-777.4,381.6-797.4
				z"/>
			<path fill="#553788" d="M372.4-760.9c3.2,2.9,5.2,7.1,5.2,11.8c0,8.9-7.2,16.1-16.1,16.1c-4.7,0-8.9-2-11.8-5.2
				c1.4,9.8,9.7,17.3,19.8,17.3c11.1,0,20.1-9,20.1-20.1C389.7-751.2,382.1-759.5,372.4-760.9z"/>
			<path fill="#553788" d="M434-733c-8.9,0-16.1-7.2-16.1-16.1c0-4.7,2-8.9,5.2-11.8c-9.8,1.4-17.3,9.7-17.3,19.8
				c0,11.1,9,20.1,20.1,20.1c10.1,0,18.5-7.5,19.8-17.3C442.8-735,438.6-733,434-733z"/>
			<path fill="#9266CC" d="M381.6-749.1c0,20,12.1,36.2,16.1,36.2s16.1-16.2,16.1-36.2c0-20-7.2-36.2-16.1-36.2
				S381.6-769.1,381.6-749.1z"/>
			<path fill="#EDBB9F" d="M377.6-777.3c0-15.6,12.1-16.1,20.1-16.1s20.1,0.5,20.1,16.1c0,15.6-9,28.2-20.1,28.2
				C386.6-749.1,377.6-761.7,377.6-777.3z"/>
			<circle fill="#662113" cx="389.7" cy="-777.3" r="4"/>
			<circle fill="#662113" cx="405.8" cy="-777.3" r="4"/>
			<path fill="#662113" d="M397.7-757.9c4.4,0,8.1-3.1,8.1-8.1h-16.1C389.7-761,393.3-757.9,397.7-757.9z"/>
			<circle fill="#A0041E" cx="349.4" cy="-801.5" r="4"/>
			<circle fill="#226699" cx="446" cy="-801.5" r="4"/>
			<circle fill="#DD2E44" cx="397.7" cy="-833.7" r="4"/>
		</g>
		<g>
			<path fill="#77B255" d="M423.9-545.9c-0.8,0-1.6-0.2-2.3-0.7c-26.3-18.4-49-49.8-62-70.2c6.8,42.4,4,66.3,3.9,67.4
				c-0.3,2.2-2.3,3.7-4.5,3.5c-2.2-0.3-3.8-2.3-3.5-4.5c0-0.3,3.8-32.3-8-87.3c-0.4-2,0.7-3.9,2.6-4.6c1.9-0.7,4,0.1,4.9,1.9
				c0.3,0.6,32.2,59.9,71.2,87.2c1.8,1.3,2.3,3.8,1,5.6C426.4-546.5,425.2-545.9,423.9-545.9z"/>
			<path fill="#5C913B" d="M426.1-607c-14,3.9-20.3,10.3-43.3,2.7c-19-6.3-28.3-16.9-25.6-25.4c2.8-8.4,12.8-12.7,31.8-6.5
				C408.2-629.9,405.7-622.2,426.1-607z"/>
			<circle fill="#BE1931" cx="423.9" cy="-529.8" r="32.2"/>
			<circle fill="#BE1931" cx="363.5" cy="-529.8" r="32.2"/>
		</g>
		<g>
			<path fill="#77B255" d="M435.9-1372.9c-0.8,0-1.6-0.2-2.3-0.7c-26.3-18.4-49-49.8-62-70.2c6.8,42.4,4,66.3,3.9,67.4
				c-0.3,2.2-2.3,3.7-4.5,3.5c-2.2-0.3-3.8-2.3-3.5-4.5c0-0.3,3.8-32.3-8-87.3c-0.4-2,0.7-3.9,2.6-4.6c1.9-0.7,4,0.1,4.9,1.9
				c0.3,0.6,32.2,59.9,71.2,87.2c1.8,1.3,2.3,3.8,1,5.6C438.4-1373.5,437.2-1372.9,435.9-1372.9z"/>
			<path fill="#5C913B" d="M438.1-1434c-14,3.9-20.3,10.3-43.3,2.7c-19-6.3-28.3-16.9-25.6-25.4c2.8-8.4,12.8-12.7,31.8-6.5
				C420.2-1456.9,417.7-1449.2,438.1-1434z"/>
			<circle fill="#BE1931" cx="435.9" cy="-1356.8" r="32.2"/>
			<circle fill="#BE1931" cx="375.5" cy="-1356.8" r="32.2"/>
		</g>
		<g>
			<path fill="#5C913B" d="M372.1,4.9c26.1-5.1,34,5.1,46.9,0.3c12.9-4.8,0.4,11.4-3,14.1c-3.4,2.8-32.8,19.4-45.5,13.3
				C357.7,26.6,357.7,7.8,372.1,4.9z"/>
			<path fill="#77B255" d="M386.6,55.9c-1.2,0-2.4-0.6-3.2-1.6c-2.8-3.7-5.3-7.9-7.9-12.3c-9.1-15.3-19.5-32.6-46.1-38.5
				c-2.2-0.5-3.5-2.6-3.1-4.8c0.5-2.2,2.6-3.5,4.8-3.1c30,6.7,41.8,26.4,51.3,42.3c2.5,4.2,4.9,8.3,7.4,11.6c1.3,1.8,1,4.3-0.8,5.6
				C388.2,55.7,387.4,55.9,386.6,55.9z"/>
			<path fill="#FFCC4D" d="M464.3,118.5c0-0.1,0-0.1,0-0.2c11.2-21.5,10.7-60.9-13.5-85C427.4,10,395.7,9.9,375.2,16.9
				c-6.4,2.5-11.7,0.3-15.4,3.9c-3.5,3.5-1.4,10.9-2.9,15.4c-12.8,20.9-13.7,52.4,10.8,77c20,20,42,27.5,80.5,19.5c0,0,0,0,0,0
				c4.6-0.9,11.9,2.1,14.4-0.4C467,128,463.9,122.8,464.3,118.5z"/>
			<path fill="#77B255" d="M359.2,18c0,0-17.2-2.4-27.6,18.5c-10.4,20.9,2.3,36.7,1.2,50.9c-1.2,14.2,6.3,5.1,10.6-1.8
				c4.2-6.9,17-19.7,19.9-37.3C366,30.7,362.9,22.3,359.2,18z"/>
		</g>
		<g>
			<path fill="#5C913B" d="M372.1,446.9c26.1-5.1,34,5.1,46.9,0.3c12.9-4.8,0.4,11.4-3,14.1c-3.4,2.8-32.8,19.4-45.5,13.3
				C357.7,468.6,357.7,449.8,372.1,446.9z"/>
			<path fill="#77B255" d="M386.6,497.9c-1.2,0-2.4-0.6-3.2-1.6c-2.8-3.7-5.3-7.9-7.9-12.3c-9.1-15.3-19.5-32.6-46.1-38.5
				c-2.2-0.5-3.5-2.6-3.1-4.8c0.5-2.2,2.6-3.5,4.8-3.1c30,6.7,41.8,26.4,51.3,42.3c2.5,4.2,4.9,8.3,7.4,11.6c1.3,1.8,1,4.3-0.8,5.6
				C388.2,497.7,387.4,497.9,386.6,497.9z"/>
			<path fill="#FFCC4D" d="M466.2,500H349c-0.4,1.9-0.6,4-0.8,6.1c0.1-2.1,0.4-4.1,0.7-6.1c0-0.1,0-0.2,0.1-0.4
				c1.3-7.7,4.1-15.1,7.9-21.4c1.5-4.4-0.7-11.9,2.9-15.4c0.1-0.1,0.2-0.2,0.3-0.3l0,0c0.2-0.1,0.3-0.3,0.5-0.4c0,0,0,0,0,0
				c0.2-0.1,0.3-0.2,0.5-0.3c2.2-1.3,4.8-1.3,7.8-1.5c1.9-0.2,4-0.5,6.2-1.3c12.2-4.2,28.4-5.9,44.5-1.6
				c10.9,2.9,21.6,8.8,31.1,18.2C457.8,482.6,462.9,491,466.2,500z"/>
			<path fill="#77B255" d="M363.2,490.3c-0.5,3.2-1.4,6.3-2.4,9.2c-0.1,0.2-0.1,0.3-0.2,0.5h-32.9c-0.6-7,0.2-13.6,4-21.3
				c8.5-17,21.4-18.7,26-18.7h0.1c1,0,1.5,0,1.5,0c0.5,0.6,1,1.3,1.5,2c0,0-0.2,0-0.2,0c0.2,0.4,0.5,0.8,0.5,1.3v0c1,0.3,1,0.6,1,1
				v0c0,1,0.8,2.1,1.2,3.4C364.5,472.8,364.9,480,363.2,490.3z"/>
		</g>
		<g>
			<g>
				<circle fill="#292F33" cx="392.7" cy="-145.1" r="72.5"/>
			</g>
			<circle fill="#E1E8ED" cx="392.7" cy="-145.1" r="36.2"/>
			<path fill="#292F33" d="M402.8-148.5c3.5-2.2,5.4-6.2,5.4-10.1c0-8.4-7.2-13.6-15.4-13.6c-8.4,0-15.3,5.3-15.3,13.6
				c0,4.5,2,7.7,5.4,10.1c-4.5,2.4-7.6,6.6-7.6,12.2c0,9.5,7.7,16.1,17.5,16.1c9.5,0,17.5-6.3,17.5-16.1
				C410.4-141.7,407.6-146.1,402.8-148.5z M392.9-162.9c3.3,0,5.2,2.3,5.2,5.4c0,3.2-1.9,5.4-5.2,5.4c-3.3,0-5.1-2.2-5.1-5.4
				C387.8-160.5,389.6-162.9,392.9-162.9z M392.9-129.9c-4.3,0-6.4-3.5-6.4-7.1c0-4,2.3-7.1,6.4-7.1c3.9,0,6.4,2.6,6.4,7.1
				C399.3-133.4,396.9-129.9,392.9-129.9z"/>
		</g>
		<g>
			<g>
				<circle fill="#292F33" cx="399.7" cy="-981.1" r="72.5"/>
			</g>
			<circle fill="#E1E8ED" cx="399.7" cy="-981.1" r="36.2"/>
			<path fill="#292F33" d="M409.8-984.5c3.5-2.2,5.4-6.2,5.4-10.1c0-8.3-7.2-13.6-15.4-13.6c-8.4,0-15.3,5.3-15.3,13.6
				c0,4.5,2,7.7,5.4,10.1c-4.5,2.4-7.6,6.6-7.6,12.2c0,9.5,7.7,16.1,17.5,16.1c9.5,0,17.5-6.3,17.5-16.1
				C417.4-977.7,414.6-982.1,409.8-984.5z M399.9-998.9c3.3,0,5.2,2.3,5.2,5.4c0,3.2-1.9,5.4-5.2,5.4c-3.3,0-5.1-2.2-5.1-5.4
				C394.8-996.5,396.6-998.9,399.9-998.9z M399.9-965.9c-4.3,0-6.4-3.5-6.4-7.1c0-4,2.3-7.1,6.4-7.1c3.9,0,6.4,2.6,6.4,7.1
				C406.3-969.3,403.9-965.9,399.9-965.9z"/>
		</g>
		<path fill="#BE1931" d="M468.1-1808.5c0,17.8-14.4,32.1-32.2,32.1c-13.8,0-25.6-8.8-30.2-21c-1.3-3.5-2-7.3-2-11.3
			c0-3.9,0.7-7.4,2-10.9c0.3-0.9,0.7-2.4,1.1-2.4h58.3C467-1818,468.1-1813.4,468.1-1808.5z"/>
		<path fill="#BE1931" d="M404.7-1822c0.4,0,0.7,1.4,1,2.3c1.3,3.5,2,7.1,2,11.1c0,3.9-0.7,7.7-2,11.1c-4.5,12.3-16.4,21-30.2,21
			c-17.8,0-32.2-14.2-32.2-32c0-4.9,1.1-9.5,3.1-13.5H404.7z"/>
		<g>
			<path fill="#BE1931" d="M399.5,383.5c-21.1,0-41.2-11.8-55.2-32.4c-12.7-18.7-19.7-43.2-19.7-69.1s7-50.4,19.7-69.1
				c14-20.6,34.1-32.4,55.2-32.4s41.2,11.8,55.2,32.4c12.7,18.7,19.7,43.2,19.7,69.1s-7,50.4-19.7,69.1
				C440.7,371.7,420.6,383.5,399.5,383.5z M399.5,217.5c-11.8,0-20.5,10.2-24.6,16.2c-8.5,12.5-13.3,30.1-13.3,48.3
				s4.9,35.8,13.3,48.3c4.1,6.1,12.8,16.2,24.6,16.2s20.5-10.2,24.6-16.2c8.5-12.5,13.3-30.1,13.3-48.3s-4.9-35.8-13.3-48.3
				C420,227.7,411.3,217.5,399.5,217.5z"/>
		</g>
	</g>
</g>
<g>
	<defs>
		<path id="444_mask_3" d="M777,421.8c0,49.1-17.5,66.2-66.6,66.2h-88.9c-49.1,0-66.6-17.2-66.6-66.2V155.1
			c0-49.1,17.5-66.1,66.6-66.1h88.9c49.1,0,66.6,17.1,66.6,66.1V421.8z"/>
	</defs>
	<clipPath id="444_mask_3_1_">
		<use xlink:href="#444_mask_3"  overflow="visible"/>
	</clipPath>
	<g id="444_slot_3" clip-path="url(#444_mask_3_1_)">
		<rect x="556" y="-1819" fill="#CCD6DD" width="220" height="2324"/>
		<g>
			<path fill="#BE1931" d="M710,324h-62.6l61.1-116.1c1.7-3.4,2.4-5.7,2.4-8.7c0-7.1-6.8-17.4-20.3-17.4c-11,0-13.7,4.9-20.5,18.5
				l-60.6,123.2c-2.9,6.1-5.6,11.1-5.6,16c0,6.4,5.1,17.5,17.6,17.5H710c13.4,0,18.1-7.9,18.1-16.5C728.1,332.2,723.2,324,710,324z"
				/>
			<path fill="#BE1931" d="M675.9,325.9v44c0,13.4,8.3,18.1,16.9,18.1c8.3,0,16.9-4.9,16.9-18.1v-44H675.9z"/>
			<path fill="#BE1931" d="M709.6,357.9v-44c0-13.4-8.3-18.1-16.9-18.1c-8.3,0-16.9,4.9-16.9,18.1v44H709.6z"/>
		</g>
		<rect x="555.5" y="-41.8" fill="#E1E8ED" width="220.9" height="208.3"/>
		<rect x="555.5" y="-458.9" fill="#E1E8ED" width="220.9" height="208.3"/>
		<rect x="555.5" y="-876" fill="#E1E8ED" width="220.9" height="208.3"/>
		<rect x="555.5" y="-1293.2" fill="#E1E8ED" width="220.9" height="208.3"/>
		<rect x="555.5" y="-1710.3" fill="#E1E8ED" width="220.9" height="208.3"/>
		<rect x="556" y="407" fill="#E1E8ED" width="220" height="99"/>
		<g>
			<path fill="#A0041E" d="M610-1418.8c0,0,0,41.6,0,49.8c0,8.2,4.2,10,4.2,10s39.2,30.9,46.5,36.6s5.3-6.4,5.3-6.4v-45.8
				L610-1418.8z"/>
			<path fill="#DD2E44" d="M722-1418.8c0,0,0,41.6,0,49.8c0,8.2-4.1,10-4.1,10s-39.2,30.9-46.6,36.6c-7.3,5.8-5.3-6.4-5.3-6.4v-45.8
				L722-1418.8z"/>
			<path fill="#EA596E" d="M671.2-1461.1c-3-2.5-8-2.5-11,0l-48.2,38.4c-3,2.5-3,6.5,0,8.9l48.4,38.8c3,2.5,8,2.5,11,0l48.7-39.2
				c3-2.5,3-6.5,0-8.9L671.2-1461.1z"/>
			<ellipse fill="#FFFFFF" cx="668" cy="-1418.8" rx="11.7" ry="9.4"/>
			<path fill="#FFFFFF" d="M708.5-1380.4c-3.5,0-5.5-3.6-4.5-8.1c1-4.5,4.7-8.1,8.2-8.1c3.5,0,5.5,3.6,4.5,8.1
				C715.6-1384.1,712-1380.4,708.5-1380.4z"/>
			<path fill="#FFFFFF" d="M696-1359.5c-3.6,0-5.6-3.8-4.6-8.5c1-4.7,4.7-8.5,8.3-8.5c3.6,0,5.6,3.8,4.6,8.5
				C703.3-1363.3,699.6-1359.5,696-1359.5z"/>
			<path fill="#FFFFFF" d="M682.2-1338.5c-3.4,0-5.3-3.7-4.3-8.3c1-4.6,4.5-8.3,7.9-8.3s5.3,3.7,4.4,8.3
				C689.1-1342.2,685.6-1338.5,682.2-1338.5z"/>
			<path fill="#E1E8ED" d="M622.5-1390.6c-4,0-6.3,4.1-5.2,9.1c1.2,5,5.3,9.1,9.3,9.1c4,0,6.3-4.1,5.2-9.1
				C630.6-1386.6,626.5-1390.6,622.5-1390.6z"/>
			<path fill="#E1E8ED" d="M644.9-1360.4c-4,0-6.3,4.1-5.2,9.1c1.2,5,5.3,9.1,9.3,9.1c4,0,6.3-4.1,5.2-9.1
				C653.1-1356.4,648.9-1360.4,644.9-1360.4z"/>
			<path fill="#EA596E" d="M666-1319.2c-2.2,0-4-1.9-4-4.3v-52.1c0-2.4,1.8-4.3,4-4.3c2.2,0,4,1.9,4,4.3v52.1
				C670-1321.1,668.2-1319.2,666-1319.2z"/>
		</g>
		<g>
			<path fill="#E6E7E8" d="M722-1550.1c0,8.9-7.2,16.1-16.1,16.1h-79.8c-8.9,0-16.1-7.2-16.1-16.1v-111.8c0-8.9,7.2-16.1,16.1-16.1
				h79.8c8.9,0,16.1,7.2,16.1,16.1V-1550.1z"/>
			<path fill="#DD2E44" d="M637.9-1649.6c-10.1,0-18.5,7.5-19.8,17.3c2.9-3.2,7.1-5.2,11.8-5.2c8.9,0,16.1,7.2,16.1,16.1
				c0,8.1,6,8.9,2.8,11.8c9.8-1.4,9.2-9.7,9.2-19.8C658.1-1640.6,649-1649.6,637.9-1649.6z"/>
			<path fill="#55ACEE" d="M686.2-1621.4c0-8.9,7.2-16.1,16.1-16.1c4.7,0,8.9,2,11.8,5.2c-1.4-9.8-9.7-17.3-19.8-17.3
				c-11.1,0-20.1,9-20.1,20.1c0,10.1-0.5,18.5,9.2,19.8C680.2-1612.5,686.2-1613.3,686.2-1621.4z"/>
			<path fill="#FFAC33" d="M650-1629.4c0-20,16.1-36.2,16.1-36.2s16.1,16.2,16.1,36.2c0,20-7.2,36.2-16.1,36.2
				C657.2-1593.2,650-1609.4,650-1629.4z"/>
			<path fill="#553788" d="M640.8-1592.9c3.2,2.9,5.2,7.1,5.2,11.8c0,8.9-7.2,16.1-16.1,16.1c-4.7,0-8.9-2-11.8-5.2
				c1.4,9.8,9.7,17.3,19.8,17.3c11.1,0,20.1-9,20.1-20.1C658.1-1583.2,650.5-1591.5,640.8-1592.9z"/>
			<path fill="#553788" d="M702.4-1565c-8.9,0-16.1-7.2-16.1-16.1c0-4.7,2-8.9,5.2-11.8c-9.8,1.4-17.3,9.7-17.3,19.8
				c0,11.1,9,20.1,20.1,20.1c10.1,0,18.5-7.5,19.8-17.3C711.2-1567,707-1565,702.4-1565z"/>
			<path fill="#9266CC" d="M650-1581.1c0,20,12.1,36.2,16.1,36.2c4,0,16.1-16.2,16.1-36.2s-7.2-36.2-16.1-36.2
				C657.2-1617.4,650-1601.1,650-1581.1z"/>
			<path fill="#EDBB9F" d="M646-1609.3c0-15.6,12.1-16.1,20.1-16.1c8.1,0,20.1,0.5,20.1,16.1c0,15.6-9,28.2-20.1,28.2
				C655-1581.1,646-1593.7,646-1609.3z"/>
			<circle fill="#662113" cx="658.1" cy="-1609.3" r="4"/>
			<circle fill="#662113" cx="674.2" cy="-1609.3" r="4"/>
			<path fill="#662113" d="M666.1-1589.9c4.4,0,8.1-3.1,8.1-8.1h-16.1C658.1-1593,661.7-1589.9,666.1-1589.9z"/>
			<circle fill="#A0041E" cx="617.8" cy="-1633.5" r="4"/>
			<circle fill="#226699" cx="714.4" cy="-1633.5" r="4"/>
			<circle fill="#DD2E44" cx="666.1" cy="-1665.7" r="4"/>
		</g>
		<g>
			<path fill="#E6E7E8" d="M722,123.9c0,8.9-7.2,16.1-16.1,16.1h-79.8c-8.9,0-16.1-7.2-16.1-16.1V12.1C610,3.2,617.2-4,626.1-4h79.8
				c8.9,0,16.1,7.2,16.1,16.1V123.9z"/>
			<path fill="#DD2E44" d="M637.8,24.4c-10.1,0-18.5,7.5-19.8,17.3c2.9-3.2,7.1-5.2,11.8-5.2c8.9,0,16.1,7.2,16.1,16.1
				c0,8.1,6,8.9,2.8,11.8c9.8-1.4,9.2-9.7,9.2-19.8C657.9,33.4,648.9,24.4,637.8,24.4z"/>
			<path fill="#55ACEE" d="M686.1,52.6c0-8.9,7.2-16.1,16.1-16.1c4.7,0,8.9,2,11.8,5.2c-1.4-9.8-9.7-17.3-19.8-17.3
				c-11.1,0-20.1,9-20.1,20.1c0,10.1-0.5,18.5,9.2,19.8C680.1,61.5,686.1,60.7,686.1,52.6z"/>
			<path fill="#FFAC33" d="M649.9,44.6c0-20,16.1-36.2,16.1-36.2s16.1,16.2,16.1,36.2s-7.2,36.2-16.1,36.2S649.9,64.6,649.9,44.6z"
				/>
			<path fill="#553788" d="M640.7,81.1c3.2,2.9,5.2,7.1,5.2,11.8c0,8.9-7.2,16.1-16.1,16.1c-4.7,0-8.9-2-11.8-5.2
				c1.4,9.8,9.7,17.3,19.8,17.3c11.1,0,20.1-9,20.1-20.1C657.9,90.8,650.4,82.5,640.7,81.1z"/>
			<path fill="#553788" d="M702.2,109c-8.9,0-16.1-7.2-16.1-16.1c0-4.7,2-8.9,5.2-11.8c-9.8,1.4-17.3,9.7-17.3,19.8
				c0,11.1,9,20.1,20.1,20.1c10.1,0,18.5-7.5,19.8-17.3C711.1,107,706.9,109,702.2,109z"/>
			<path fill="#9266CC" d="M649.9,92.9c0,20,12.1,36.2,16.1,36.2s16.1-16.2,16.1-36.2s-7.2-36.2-16.1-36.2S649.9,72.9,649.9,92.9z"
				/>
			<path fill="#EDBB9F" d="M645.9,64.7c0-15.6,12.1-16.1,20.1-16.1s20.1,0.5,20.1,16.1c0,15.6-9,28.2-20.1,28.2
				C654.9,92.9,645.9,80.3,645.9,64.7z"/>
			<circle fill="#662113" cx="657.9" cy="64.7" r="4"/>
			<circle fill="#662113" cx="674.1" cy="64.7" r="4"/>
			<path fill="#662113" d="M666,84.1c4.4,0,8.1-3.1,8.1-8.1h-16.1C657.9,81,661.6,84.1,666,84.1z"/>
			<circle fill="#A0041E" cx="617.7" cy="40.5" r="4"/>
			<circle fill="#226699" cx="714.3" cy="40.5" r="4"/>
			<circle fill="#DD2E44" cx="666" cy="8.3" r="4"/>
		</g>
		<g>
			<path fill="#77B255" d="M696.2-532.9c-0.8,0-1.6-0.2-2.3-0.7c-26.3-18.4-49-49.8-62-70.2c6.8,42.4,4,66.3,3.9,67.4
				c-0.3,2.2-2.3,3.7-4.5,3.5c-2.2-0.3-3.8-2.3-3.5-4.5c0-0.3,3.8-32.3-8-87.3c-0.4-2,0.7-3.9,2.6-4.6c1.9-0.7,4,0.1,4.9,1.9
				c0.3,0.6,32.2,59.9,71.2,87.2c1.8,1.3,2.3,3.8,1,5.6C698.7-533.5,697.5-532.9,696.2-532.9z"/>
			<path fill="#5C913B" d="M698.4-594c-14,3.9-20.3,10.3-43.3,2.7c-19-6.3-28.3-16.9-25.6-25.4c2.8-8.4,12.8-12.7,31.8-6.5
				C680.5-616.9,678-609.2,698.4-594z"/>
			<circle fill="#BE1931" cx="696.2" cy="-516.8" r="32.2"/>
			<circle fill="#BE1931" cx="635.8" cy="-516.8" r="32.2"/>
		</g>
		<g>
			<path fill="#77B255" d="M696.2-1152.9c-0.8,0-1.6-0.2-2.3-0.7c-26.3-18.4-49-49.8-62-70.2c6.8,42.4,4,66.3,3.9,67.4
				c-0.3,2.2-2.3,3.7-4.5,3.5c-2.2-0.3-3.8-2.3-3.5-4.5c0-0.3,3.8-32.3-8-87.3c-0.4-2,0.7-3.9,2.6-4.6c1.9-0.7,4,0.1,4.9,1.9
				c0.3,0.6,32.2,59.9,71.2,87.2c1.8,1.3,2.3,3.8,1,5.6C698.7-1153.5,697.5-1152.9,696.2-1152.9z"/>
			<path fill="#5C913B" d="M698.4-1214c-14,3.9-20.3,10.3-43.3,2.7c-19-6.3-28.3-16.9-25.6-25.4c2.8-8.4,12.8-12.7,31.8-6.5
				C680.5-1236.9,678-1229.2,698.4-1214z"/>
			<circle fill="#BE1931" cx="696.2" cy="-1136.8" r="32.2"/>
			<circle fill="#BE1931" cx="635.8" cy="-1136.8" r="32.2"/>
		</g>
		<g>
			<path fill="#5C913B" d="M639.4-204.1c26.1-5.1,34,5.1,46.9,0.3c12.9-4.8,0.4,11.4-3,14.1c-3.4,2.8-32.8,19.4-45.5,13.3
				C625-182.4,624.9-201.2,639.4-204.1z"/>
			<path fill="#77B255" d="M653.8-153.1c-1.2,0-2.4-0.6-3.2-1.6c-2.8-3.7-5.3-7.9-7.9-12.3c-9.1-15.3-19.5-32.6-46.1-38.5
				c-2.2-0.5-3.5-2.6-3.1-4.8c0.5-2.2,2.6-3.5,4.8-3.1c30,6.7,41.8,26.4,51.3,42.3c2.5,4.2,4.9,8.3,7.4,11.6c1.3,1.8,1,4.3-0.8,5.6
				C655.5-153.4,654.7-153.1,653.8-153.1z"/>
			<path fill="#FFCC4D" d="M731.5-90.5c0-0.1,0-0.1,0-0.2c11.2-21.5,10.7-60.9-13.5-85c-23.4-23.4-55.1-23.4-75.6-16.4
				c-6.4,2.5-11.7,0.3-15.4,3.9c-3.5,3.5-1.4,10.9-2.9,15.4c-12.8,20.9-13.7,52.4,10.8,77c20,20,42,27.5,80.5,19.5c0,0,0,0,0,0
				c4.6-0.9,11.9,2.1,14.4-0.4C734.3-81.1,731.2-86.2,731.5-90.5z"/>
			<path fill="#77B255" d="M626.5-191c0,0-17.2-2.4-27.6,18.5c-10.4,20.9,2.3,36.7,1.2,50.9c-1.2,14.2,6.3,5.1,10.6-1.8
				c4.2-6.9,17-19.7,19.9-37.3C633.3-178.3,630.2-186.7,626.5-191z"/>
		</g>
		<g>
			<g>
				<circle fill="#292F33" cx="666" cy="-354.1" r="72.5"/>
			</g>
			<circle fill="#E1E8ED" cx="666" cy="-354.1" r="36.2"/>
			<path fill="#292F33" d="M676.1-357.5c3.5-2.2,5.4-6.2,5.4-10.1c0-8.4-7.1-13.6-15.4-13.6c-8.4,0-15.3,5.3-15.3,13.6
				c0,4.5,2,7.7,5.4,10.1c-4.5,2.4-7.6,6.6-7.6,12.2c0,9.5,7.7,16.1,17.5,16.1c9.5,0,17.5-6.3,17.5-16.1
				C683.7-350.7,680.9-355.1,676.1-357.5z M666.2-371.9c3.3,0,5.2,2.3,5.2,5.4c0,3.2-1.9,5.4-5.2,5.4s-5.1-2.2-5.1-5.4
				C661.1-369.5,662.9-371.9,666.2-371.9z M666.2-338.9c-4.3,0-6.4-3.5-6.4-7.1c0-4,2.3-7.1,6.4-7.1c3.9,0,6.4,2.6,6.4,7.1
				C672.6-342.4,670.2-338.9,666.2-338.9z"/>
		</g>
		<g>
			<g>
				<circle fill="#292F33" cx="666" cy="-761.1" r="72.5"/>
			</g>
			<g>
				<path fill="#292F33" d="M737.2-1819c-6.4,34-35.8,58.9-71.2,58.9s-64.8-24.9-71.2-58.9H737.2z"/>
			</g>
			<circle fill="#E1E8ED" cx="666" cy="-761.1" r="36.2"/>
			<path fill="#292F33" d="M676.1-764.5c3.5-2.2,5.4-6.2,5.4-10.1c0-8.4-7.1-13.6-15.4-13.6c-8.4,0-15.3,5.3-15.3,13.6
				c0,4.5,2,7.7,5.4,10.1c-4.5,2.4-7.6,6.6-7.6,12.2c0,9.5,7.7,16.1,17.5,16.1c9.5,0,17.5-6.3,17.5-16.1
				C683.7-757.7,680.9-762.1,676.1-764.5z M666.2-778.9c3.3,0,5.2,2.3,5.2,5.4c0,3.2-1.9,5.4-5.2,5.4s-5.1-2.2-5.1-5.4
				C661.1-776.5,662.9-778.9,666.2-778.9z M666.2-745.9c-4.3,0-6.4-3.5-6.4-7.1c0-4,2.3-7.1,6.4-7.1c3.9,0,6.4,2.6,6.4,7.1
				C672.6-749.4,670.2-745.9,666.2-745.9z"/>
		</g>
		<g>
			<path fill="#5C913B" d="M639.2-1036.1c26.1-5.1,34,5.1,46.9,0.3c12.9-4.8,0.4,11.4-3,14.1c-3.4,2.8-32.8,19.4-45.5,13.3
				C624.8-1014.4,624.8-1033.2,639.2-1036.1z"/>
			<path fill="#77B255" d="M653.7-985.1c-1.2,0-2.4-0.6-3.2-1.6c-2.8-3.7-5.3-7.9-7.9-12.3c-9.1-15.3-19.5-32.6-46.1-38.5
				c-2.2-0.5-3.5-2.6-3.1-4.8c0.5-2.2,2.6-3.5,4.8-3.1c30,6.7,41.8,26.4,51.3,42.3c2.5,4.2,4.9,8.3,7.4,11.6c1.3,1.8,1,4.3-0.8,5.6
				C655.3-985.4,654.5-985.1,653.7-985.1z"/>
			<path fill="#FFCC4D" d="M731.4-922.5c0-0.1,0-0.1,0-0.2c11.2-21.5,10.7-60.9-13.5-85c-23.4-23.4-55.1-23.4-75.6-16.4
				c-6.4,2.5-11.7,0.3-15.4,3.9c-3.5,3.5-1.4,10.9-2.9,15.4c-12.8,20.9-13.7,52.4,10.8,77c20,20,42,27.5,80.5,19.5c0,0,0,0,0,0
				c4.6-0.9,11.9,2.1,14.4-0.4C734.1-913.1,731-918.2,731.4-922.5z"/>
			<path fill="#77B255" d="M626.3-1023c0,0-17.2-2.4-27.6,18.5c-10.4,20.9,2.3,36.7,1.2,50.9c-1.2,14.2,6.3,5.1,10.6-1.8
				c4.2-6.9,17-19.7,19.9-37.3C633.1-1010.3,630-1018.7,626.3-1023z"/>
		</g>
		<g>
			<path fill="#292F33" d="M734.6,506H597.4c9.7-29,36.8-49.1,68.6-49.1S724.9,477,734.6,506z"/>
		</g>
	</g>
</g>
</svg>
