<?xml version="1.0" encoding="UTF-8" standalone="no"?>
<svg version="1.1" id="Layer_1" xmlns:sketch="http://www.bohemiancoding.com/sketch/ns"
	 xmlns="http://www.w3.org/2000/svg" xmlns:xlink="http://www.w3.org/1999/xlink" x="0px" y="0px" width="19px" height="19px"
	 viewBox="0 0 19 19" enable-background="new 0 0 19 19" xml:space="preserve">
<title>Imported Layers</title>
<desc>Created with Sketch.</desc>
<g id="Page-1" sketch:type="MSPage">
	<path id="Imported-Layers" sketch:type="MSShapeGroup" fill="#FFFFFF" d="M9.5,0.2c-5.2,0-9.3,4.2-9.3,9.3c0,5.1,4.2,9.3,9.3,9.3
		c5.1,0,9.3-4.2,9.3-9.3C18.8,4.4,14.6,0.2,9.5,0.2z M12.2,13.4c0,0.1-0.1,0.2-0.2,0.2H4.3c-0.1,0-0.2-0.1-0.2-0.2v-1.6
		c0-0.1,0.1-0.2,0.2-0.2H12c0.1,0,0.2,0.1,0.2,0.2V13.4z M14.9,10.3c0,0.1-0.1,0.2-0.2,0.2H4.3c-0.1,0-0.2-0.1-0.2-0.2V8.7
		c0-0.1,0.1-0.2,0.2-0.2h10.4c0.1,0,0.2,0.1,0.2,0.2V10.3z M14.9,7.2c0,0.1-0.1,0.2-0.2,0.2H4.3c-0.1,0-0.2-0.1-0.2-0.2V5.6
		c0-0.1,0.1-0.2,0.2-0.2h10.4c0.1,0,0.2,0.1,0.2,0.2V7.2z"/>
</g>
</svg>
