<?xml version="1.0" encoding="utf-8"?>
<!-- Generator: Adobe Illustrator 18.0.0, SVG Export Plug-In . SVG Version: 6.00 Build 0)  -->
<!DOCTYPE svg PUBLIC "-//W3C//DTD SVG 1.1//EN" "http://www.w3.org/Graphics/SVG/1.1/DTD/svg11.dtd">
<svg version="1.1" id="Layer_1" xmlns="http://www.w3.org/2000/svg" xmlns:xlink="http://www.w3.org/1999/xlink" x="0px" y="0px"
	 viewBox="0 0 400 400" enable-background="new 0 0 400 400" xml:space="preserve">
<g>
	<path class="help_button_balon" fill="#2A6797" d="M192.8,6C128.1,6,75.7,46.7,75.7,97.1c0,28.4,16.8,53.8,43,70.5c-3.4,15-11.3,37.3-30,59.7
		c37.4-6.2,61.4-24.4,76.3-41.7c9,1.7,18.3,2.7,27.9,2.7c64.7,0,117.1-40.8,117.1-91.1S257.4,6,192.8,6"/>
	<path class="help_button_point" fill="#BDDDF4" d="M153.8,97c0,7.2-5.8,13-13,13c-7.2,0-13-5.8-13-13s5.8-13,13-13C147.9,84,153.8,89.9,153.8,97"/>
	<path class="help_button_point" fill="#BDDDF4" d="M205.8,97c0,7.2-5.8,13-13,13s-13-5.8-13-13s5.8-13,13-13C200,84,205.8,89.9,205.8,97"/>
	<path class="help_button_point" fill="#BDDDF4" d="M257.9,97c0,7.2-5.8,13-13,13c-7.2,0-13-5.8-13-13s5.8-13,13-13C252,84,257.9,89.9,257.9,97"/>
</g>
<g>
  <path fill="#005189" d="M81.2,306v-50.5h6.9v21.1h21.2v-21.1h6.9V306h-6.9v-23.7H88.1V306H81.2z"/>
  <path fill="#005189" d="M127.7,280.9c0-8.2,1.9-14.6,5.8-19.3c3.9-4.7,9.1-7,15.5-7c6.5,0,11.6,2.3,15.5,6.8s5.8,11,5.8,19.3
    c0,8.2-1.9,14.6-5.8,19.2s-9,6.9-15.5,6.9c-6.5,0-11.6-2.3-15.5-6.8C129.6,295.6,127.7,289.2,127.7,280.9z M135,280.9
    c0,7,1.2,12.1,3.7,15.4c2.5,3.3,5.9,4.9,10.2,4.9c9.3,0,13.9-6.8,13.9-20.4c0-13.6-4.6-20.4-13.9-20.4c-4.4,0-7.8,1.7-10.3,5
    S135,273.9,135,280.9z"/>
  <path fill="#005189" d="M175.4,255.6h6.7l8.2,44.4l9.7-44.4h7.4l10,44.3l8.4-44.3h6.4L221.9,306h-8.8l-9.4-42.6l-9.4,42.6h-8.7
    L175.4,255.6z"/>
  <path fill="#005189" d="M260.7,306v-50.5h6.9V306H260.7z"/>
  <path fill="#005189" d="M276.1,261.5v-5.9h36l-0.7,5.9h-14V306h-6.9v-44.5H276.1z"/>
  <path fill="#005189" d="M75.7,343.4h6.7l8.2,44.4l9.7-44.4h7.4l10,44.3l8.4-44.3h6.4l-10.2,50.5h-8.8l-9.4-42.6l-9.4,42.6h-8.7
    L75.7,343.4z"/>
  <path fill="#005189" d="M137.6,368.8c0-8.2,1.9-14.6,5.8-19.3c3.9-4.7,9.1-7,15.5-7c6.5,0,11.6,2.3,15.5,6.8s5.8,11,5.8,19.3
    c0,8.2-1.9,14.6-5.8,19.2s-9,6.9-15.5,6.9c-6.5,0-11.6-2.3-15.5-6.8C139.6,383.5,137.6,377.1,137.6,368.8z M145,368.8
    c0,7,1.2,12.1,3.7,15.4c2.5,3.3,5.9,4.9,10.2,4.9c9.3,0,13.9-6.8,13.9-20.4c0-13.6-4.6-20.4-13.9-20.4c-4.4,0-7.8,1.7-10.3,5
    S145,361.8,145,368.8z"/>
  <path fill="#005189" d="M191.6,393.9v-50.5h13.2c6.3,0,11.1,1.2,14.3,3.6s4.9,5.9,4.9,10.7c0,3.5-0.9,6.4-2.7,8.6
    c-1.8,2.2-4.5,3.9-8.2,5l13.6,22.6h-8.3l-12.1-21.4h-7.8v21.4H191.6z M198.5,367.1h7c3.6,0,6.4-0.7,8.3-2.2
    c1.9-1.5,2.8-3.9,2.8-7.2c0-3.1-0.9-5.4-2.8-6.8c-1.9-1.4-4.9-2.1-9-2.1h-6.2V367.1z"/>
  <path fill="#005189" d="M235.9,393.9v-50.5h6.9v50.5H235.9z M243.2,366.9l19.2-23.5h7.9l-19.1,23.1l20.5,27.4h-8.5L243.2,366.9z"/>
  <path fill="#005189" d="M273.5,388.2l3.9-4.3c2,1.7,4,3,6.1,3.8c2.1,0.9,4.4,1.3,7,1.3c3.1,0,5.7-0.8,7.8-2.3
    c2-1.5,3.1-3.8,3.1-6.7c0-2.5-0.8-4.4-2.3-5.7c-1.5-1.4-4.4-2.7-8.7-4c-5.1-1.6-8.9-3.5-11.3-5.6c-2.4-2.2-3.6-5.2-3.6-8.9
    c0-3.9,1.5-7.1,4.5-9.5s6.8-3.7,11.4-3.7c3.3,0,6.2,0.5,8.6,1.4c2.4,1,4.7,2.4,7,4.4l-3.8,4.3c-3.6-2.9-7.5-4.4-11.5-4.4
    c-2.6,0-4.8,0.6-6.5,1.9s-2.6,3-2.6,5.3c0,1.5,0.3,2.7,0.9,3.7c0.6,1,1.7,1.9,3.2,2.7c1.6,0.9,3.9,1.8,6.9,2.7
    c1.8,0.6,3.4,1.1,4.7,1.6s2.6,1.2,4,2.1s2.5,1.8,3.3,2.8c0.8,1,1.5,2.3,2.1,3.8c0.5,1.5,0.8,3.2,0.8,5.1c0,4.5-1.6,8.1-4.8,10.8
    s-7.6,4.1-13.2,4.1C283.7,394.8,277.9,392.6,273.5,388.2z"/>
</g>
  <path class="help_button_x" style="opacity: 0;" fill="#BDDDF4" d="M205.6,65.3l-13.8,13.8L178,65.3c-2.5-2.5-6.7-2.5-9.2,0l-9.2,9.2c-2.5,2.5-2.5,6.7,0,9.2l13.8,13.8
    l-13.8,13.8c-2.5,2.5-2.5,6.7,0,9.2l9.2,9.2c2.5,2.5,6.7,2.5,9.2,0l13.8-13.8l13.8,13.8c2.5,2.5,6.7,2.5,9.2,0l9.2-9.2
    c2.5-2.5,2.5-6.7,0-9.2l-13.8-13.8L224,83.7c2.5-2.5,2.5-6.7,0-9.2l-9.2-9.2C212.2,62.8,208.1,62.8,205.6,65.3z"/>
</svg>
