<?xml version="1.0" encoding="utf-8"?>
<!-- Generator: Adobe Illustrator 18.0.0, SVG Export Plug-In . SVG Version: 6.00 Build 0)  -->
<!DOCTYPE svg PUBLIC "-//W3C//DTD SVG 1.1//EN" "http://www.w3.org/Graphics/SVG/1.1/DTD/svg11.dtd">
<svg version="1.1" id="Layer_1" xmlns="http://www.w3.org/2000/svg" xmlns:xlink="http://www.w3.org/1999/xlink" x="0px" y="0px"
	 width="300px" height="300px" viewBox="0 0 300 300" enable-background="new 0 0 300 300" xml:space="preserve">
<g>
	<path fill="#E75B70" d="M235.3,102.3c-36.3-27.3-46.5-46.5-62-46.5s-15.5,7.8-23.3,7.8s-7.8-7.8-23.3-7.8s-25.7,19.3-62,46.5
		c-31,23.3-54.3,23.3-54.3,38.8s38.8,46.5,62,69.8c15.5,15.5,38.8,31,77.5,31s62-15.5,77.5-31c23.3-23.3,62-54.3,62-69.8
		S266.3,125.5,235.3,102.3z"/>
	<path fill="#662314" d="M230.5,129.4c-34.3-11.4-57.3-16.1-80.5-16.1s-46.2,4.8-80.5,16.1c-29.3,9.7-51.3,5.2-51.3,11.6
		c0,6.5,69.8,38.8,131.8,38.8s131.8-32.3,131.8-38.8C281.8,134.6,259.8,139.1,230.5,129.4z"/>
	<path fill="#FFFFFF" d="M230.5,129.4c-34.3-11.4-57.3-16.1-80.5-16.1s-46.2,4.8-80.5,16.1c-28.1,9.3-49.4,5.5-51.1,10.9
		c19,3,70.7-5,131.6-5s112.6,8,131.6,5C279.9,134.9,258.6,138.7,230.5,129.4z"/>
</g>
<g>
	<path fill="#642217" d="M157.8,9.2c-13.3,0-25.9,3.1-37.2,8.6c-3-0.5-6.2-0.9-9.4-0.9C81.3,17,57,41.3,57,71.3v93h0.1
		c1.4,50.1,42.4,90.4,92.9,90.4s91.5-40.2,92.9-90.4h0.1V94.5C243,47.4,204.9,9.2,157.8,9.2z"/>
	<path fill="#8A69AE" d="M219.8,218.6H212H88h-7.8c-17.1,0-31,13.9-31,31v38.8H88h124h38.8v-38.8
		C250.8,232.4,236.9,218.6,219.8,218.6z"/>
	<rect x="212" y="257.3" fill="#7552A2" width="7.8" height="31"/>
	<rect x="80.2" y="257.3" fill="#7552A2" width="7.8" height="31"/>
	<path fill="#D79F85" d="M126.7,195.3v31c0,12.8,10.4,23.3,23.3,23.3c12.8,0,23.3-10.4,23.3-23.3v-31H126.7z"/>
	<path fill="#D79F85" d="M119,48c0,0,0,41.2-38.8,46v47c0,38.5,31.2,69.8,69.8,69.8s69.8-31.2,69.8-69.8v-38.9
		C133.6,99.2,119,48,119,48z"/>
	<path fill="#BC2035" d="M181,172c0,0-15.5,0-31,0s-31,0-31,0s7.8,15.5,31,15.5S181,172,181,172z"/>
	<path fill="#8A69AE" d="M49.2,288.3l31-69.8L57,141l23.3-93H41.5c0,0-31,62-31,93S49.2,288.3,49.2,288.3z"/>
	<path fill="#8A69AE" d="M250.8,288.3l-31-69.8L243,141l-23.3-93h38.8c0,0,31,62,31,93S250.8,288.3,250.8,288.3z"/>
	<path fill="#C06A52" d="M107.7,17.2c-1.1-5.4-6.4-8.8-11.8-7.7l-20.7,4.3H57c-8.6,0-15.5,6.9-15.5,15.5V37v11h38.8
		c0,0,14.7-9.7,15.4-18.2l2.8-0.6h5.1c0-0.6-0.2-1.1-0.3-1.7C106.6,25.4,108.5,21.4,107.7,17.2z"/>
	<path fill="#D79F85" d="M142.2,21.5c0-4.3-3.5-7.8-7.8-7.8L88,21.5H49.2c-4.3,0-7.8,3.5-7.8,7.8V48h38.8l15.5-7.8l38.8-11
		C134.5,29.2,142.2,25.8,142.2,21.5L142.2,21.5z"/>
	<path fill="#C06A52" d="M243,13.7h-18.2l-20.7-4.3c-5.4-1.1-10.6,2.4-11.8,7.7c-0.9,4.2,1.1,8.3,4.5,10.4c-0.1,0.6-0.3,1.1-0.3,1.7
		h5.1l2.8,0.6c0.7,8.3,15.4,14.9,15.4,14.9h38.8V37v-7.8C258.5,20.7,251.6,13.7,243,13.7z"/>
	<path fill="#D79F85" d="M157.8,21.5c0-4.3,3.5-7.8,7.8-7.8l46.5,7.8h38.8c4.3,0,7.8,3.5,7.8,7.8V48h-38.8l-15.5-7.8l-38.8-11
		C165.5,29.2,157.8,25.8,157.8,21.5L157.8,21.5z"/>
	<g>
		<path fill="#C06A52" d="M157.8,160.4h-15.5c-2.1,0-3.9-1.7-3.9-3.9s1.7-3.9,3.9-3.9h15.5c2.1,0,3.9,1.7,3.9,3.9
			S159.9,160.4,157.8,160.4z"/>
		<path fill="#2A2F33" d="M119,133.3c-4.3,0-7.8-3.5-7.8-7.8v-7.8c0-4.3,3.5-7.8,7.8-7.8s7.8,3.5,7.8,7.8v7.8
			C126.7,129.8,123.3,133.3,119,133.3z"/>
		<path fill="#2A2F33" d="M181,133.3c-4.3,0-7.8-3.5-7.8-7.8v-7.8c0-4.3,3.5-7.8,7.8-7.8s7.8,3.5,7.8,7.8v7.8
			C188.8,129.8,185.3,133.3,181,133.3z"/>
	</g>
</g>
<g>
	<g>
		<path fill="#F3911F" d="M254.3,278c1.2,1.2,3.1,1.2,4.2,0l26.8-26.8c1.2-1.2,1.2-3.1,0-4.2L87.9,49.7c-1.2-1.2-3.1-1.2-4.2,0
			L56.9,76.5c-1.2,1.2-1.2,3.1,0,4.2L254.3,278z"/>
	</g>
	<path fill="#66767F" d="M178.9,24.3c0,0-46.5-23.3-85.3,15.5C58.7,74.7,39.3,94.1,39.3,94.1s-7.8-7.8-15.5,0s-7.8,7.8-7.8,7.8
		s-7.8,7.8,0,15.5s31,31,31,31s7.8,7.8,15.5,0s7.8-7.8,7.8-7.8s7.8-7.8,0-15.5c-0.2-0.2-0.4-0.4-0.6-0.6c6-5.8,14.9-11.6,23.9-7.1
		l31-31c0,0-7.8-23.3,7.8-38.8s23.3-15.5,38.8-15.5S178.9,24.3,178.9,24.3z"/>
</g>
<g>
	<path fill="#C06A52" d="M270.5,189.1c2.8-12.2,1.9-25.3-3.6-38.3c-5.3-12.6-14.3-22.6-25.4-29.3c2.5-9.2,1.8-19.2-2.5-29.1
		c-6.5-14.9-20.6-24.8-36.5-27.6c1.9-4.4,2.6-10,0.3-16.8c-7.8-23.3-38.8-7.8-62-38.8c-18.9,11.3-23,28.2-22.3,42.5
		C99.7,55,89,59,89,59l0,0c-10.6,4.3-18,14.6-18,26.7c0,6.8,2.5,13,6.4,17.9l-5.4,2l0,0c-18.1,6.7-30.8,23.1-30.8,42.2
		c0,8.1,2.3,15.7,6.4,22.3c-21.9,9.8-37.2,31.2-37.2,56.1c0,34.3,28.6,62,63.9,62c25.3,0,50.8-5.5,73.9-12.9
		c17.4,8.1,44.2,12.9,84.4,12.9c31.4,0,56.9-25.5,56.9-56.9C289.6,214.6,282.2,199.5,270.5,189.1z"/>
	<ellipse fill="#F5F8FA" cx="115.1" cy="129.4" rx="27.1" ry="34.9"/>
	<path fill="#F5F8FA" d="M219.8,129.4c0,19.3-12.1,34.9-27.1,34.9c-15,0-27.1-15.6-27.1-34.9s12.1-34.9,27.1-34.9
		C207.6,94.5,219.8,110.1,219.8,129.4z"/>
	<ellipse fill="#2A2F33" cx="119" cy="129.4" rx="15.5" ry="19.4"/>
	<ellipse fill="#2A2F33" cx="188.8" cy="129.4" rx="15.5" ry="19.4"/>
	<path fill="#2A2F33" d="M83.7,202.2c-1.9-3.8,0-6.9,4.3-6.9h139.6c4.3,0,6.2,3.1,4.3,6.9c0,0-19.8,39.6-74.1,39.6
		S83.7,202.2,83.7,202.2z"/>
	<path fill="#F2ABBA" d="M157.8,210.8c-21.5,0-40,7.1-48.8,17.5c11.6,7.4,27.5,13.5,48.8,13.5s37.2-6.1,48.8-13.5
		C197.7,218,179.2,210.8,157.8,210.8z"/>
</g>
<!-- <g>
	<path fill="#BDBEC0" d="M111.6,40.2c-42.8,0-77.5,34.7-77.5,77.5v80.6h31v-80.6c0-25.7,20.8-46.5,46.5-46.5
		c25.7,0,46.5,20.8,46.5,46.5v80.6h31v-80.6C189.1,75,154.4,40.2,111.6,40.2z"/>
	<path fill="#FBAC35" d="M205.1,260.3c0,17.1-13.9,31-31,31h-124c-17.1,0-31-13.9-31-31v-78c0-17.1,13.9-31,31-31h124
		c17.1,0,31,13.9,31,31V260.3z"/>
	<path fill="#C26A50" d="M212,9.2c-38.5,0-69.8,31.2-69.8,69.8c0,38.5,31.2,69.8,69.8,69.8s69.8-31.2,69.8-69.8
		C281.8,40.5,250.6,9.2,212,9.2z M212,55.7c-8.6,0-15.5-6.9-15.5-15.5s6.9-15.5,15.5-15.5s15.5,6.9,15.5,15.5S220.6,55.7,212,55.7z"
		/>
	<path fill="#C26A50" d="M236.1,179.8v-54.3c0-8.6-7.3-15.5-15.9-15.5c-5.8,0-10.8,3.2-13.5,7.9c-9.8,0.9-17.6,9.1-17.6,19.2V269
		c0,10.7,8.5,19.4,19.2,19.4c9.4,0,17.2-6.7,18.9-15.6c0.1,0,0.6,0.1,0.7,0.1c4.3,0,8.1-3.5,8.1-7.8v-7.8c0-4.3-8-7.8-8-7.8v-7.8
		c0,0,8-3.5,8-7.8v-15.5c0-4.3-8-7.8-8-7.8v-17.7C236.1,190.5,236.1,185.5,236.1,179.8z"/>
</g>
<g>
	<path fill="#2A2F33" d="M289.5,180.8c0-0.1,0-0.8,0-0.8c0-1.3-0.2-2.9-0.4-4.1c-3.7-23.6-31.1-105.3-38.3-119.7
		c-7.8-15.5-25.5-13.4-31-8c-7.8,7.8-7.8,23.2,0,23.2s23.3-0.4,31,23.2c6.1,18.6,13.1,46.3,17.6,65.1c-12.4-6.1-32.2-9.2-53-9.2
		c-22.7,0-40.7,2.3-50.2,7.4c-3.8-0.9-8.8-1.4-15.2-1.4s-11.4,0.5-15.2,1.4c-9.5-5.2-27.5-7.4-50.2-7.4c-20.7,0-40.6,3.1-53,9.1
		c4.5-18.8,11.5-46.5,17.6-65.1C57,71,72.5,71.4,80.2,71.4s7.8-15.4,0-23.2c-5.5-5.5-23.3-7.6-31,7.9C42,70.5,14.6,152,10.9,175.6
		c-0.3,1.2-0.4,2.4-0.4,3.7c0,0.1,0,1.4,0,1.5c0,0.1,0,1.5,0,1.5h0c0.2,0,3.8,10.6,8.2,10.6c0.4,0,0.7-0.7,1-0.8
		c2.4,21.1,8.9,42.8,15.4,49.3c16.5,16.5,65.9,16.3,82.4-0.2c10.1-10.1,19.4-41.2,23-60.4c2.9-0.6,6.1-1.1,9.4-1.1s6.5,0.4,9.4,1
		c3.7,19.2,12.9,50.2,23,60.3c16.5,16.5,65.9,16.5,82.4,0c6.5-6.5,13-28.5,15.4-49.6c0.3,0.1,0.7,1.4,1,1.4c4.4,0,8-10.6,8.2-10.6h0
		C289.6,182.4,289.5,180.9,289.5,180.8z"/>
	<path fill="#5FA9DD" d="M125.8,188.4c0,9.1-8.6,32.7-18.1,42.3c-12.1,12.1-48.3,12.1-60.4,0c-6-6-12.1-20.9-12.1-39
		c0-12.1,24.4-16.5,49.4-16.5C109.3,175.2,125.8,179.4,125.8,188.4z"/>
	<path fill="#5FA9DD" d="M174.2,188.4c0,9.1,8.6,32.7,18.1,42.3c12.1,12.1,48.3,12.1,60.4,0c6-6,12.1-20.9,12.1-39
		c0-12.1-24.4-16.5-49.4-16.5C190.7,175.2,174.2,179.4,174.2,188.4z"/>
</g> -->
<g>
	<path fill="#FFCD4E" d="M281.8,141.1c0,72.8-59,131.8-131.8,131.8c-72.8,0-131.8-59-131.8-131.8C18.2,68.3,77.2,9.3,150,9.3
		C222.8,9.3,281.8,68.3,281.8,141.1"/>
	<path fill="#66471B" d="M130.3,131.9c-0.5-1-11.6-25.6-34.6-25.6c-22.9,0-34.1,24.5-34.6,25.6c-0.7,1.6-0.2,3.5,1.1,4.6
		c1.4,1.1,3.3,1.1,4.7,0.1c0.1-0.1,9.8-7,28.7-7c18.8,0,28.5,6.8,28.7,7c0.7,0.5,1.5,0.8,2.3,0.8c0.9,0,1.7-0.3,2.4-0.8
		C130.5,135.4,131,133.5,130.3,131.9z"/>
	<circle fill="#F5F8FA" cx="200.4" cy="114.1" r="50.4"/>
	<circle fill="#2A2F33" cx="200.4" cy="114.1" r="19.4"/>
	<path fill="#66471B" d="M64.7,180c0,30.7,35.6,69.8,85.3,69.8s85.3-38.8,85.3-69.8C235.3,180,155.2,201.4,64.7,180z"/>
	<path fill="#E75B70" d="M103.5,194.6v47.2c0,23.3,15.5,46.5,46.5,46.5s46.5-23.3,46.5-46.5v-46.8
		C147.7,204.9,103.5,194.6,103.5,194.6z"/>
</g>
<g>
	<path fill="#E75B70" d="M233.1,72.2c0,61.7-70.6,54.8-70.6,106.9v11.2h-41.3v-13.1c0-63.7,66.7-62.5,66.7-101.8
		c0-18.9-17-29.7-40.1-29.7c-17.7,0-37,8.1-52.1,26.6L66.9,49.8c22.4-25.8,50.9-39.3,85.3-39.3C203.8,10.5,233.1,40.2,233.1,72.2z
		 M172.2,257.8c0,16.6-12.7,29.3-29.3,29.3c-16.2,0-28.9-12.7-28.9-29.3c0-15.8,12.7-28.9,28.9-28.9
		C159.5,228.8,172.2,242,172.2,257.8z"/>
</g>
</svg>
