<svg version="1.1" xmlns="http://www.w3.org/2000/svg" xmlns:xlink="http://www.w3.org/1999/xlink" x="0px" y="0px"
	 viewBox="0 0 400 700" enable-background="new 0 0 400 700" xml:space="preserve">
        <g class="loading_text"> 
          <text class="loading_text_black letter_i" transform="matrix(1 0 0 1 292.2168 556.0117)"  
                font-size="75" letter-spacing="3">I</text>
          <text class="loading_text_black letter_j" transform="matrix(1 0 0 1 214.0898 556.0117)"  
                font-size="75" letter-spacing="3">J</text>
          <text class="loading_text_black letter_o" transform="matrix(1 0 0 1 135.1942 556.0119)"  
                font-size="75" letter-spacing="3">O</text>
          <text class="loading_text_black letter_l" transform="matrix(1 0 0 1 57.8335 556.0117)"  
                font-size="75" letter-spacing="3">L</text>
          <text class="loading_text_black letter_o" transform="matrix(1 0 0 1 292.2167 447.672)"  
                font-size="75" letter-spacing="3">O</text>
          <text class="loading_text_black letter_t" transform="matrix(1 0 0 1 214.0898 447.6719)"  
                font-size="75" letter-spacing="3">T</text>
          <text class="loading_text_black letter_p" transform="matrix(1 0 0 1 135.1948 447.6719)"  
                font-size="75" letter-spacing="3">P</text>
          <text class="loading_text_black letter_y" transform="matrix(1 0 0 1 57.8335 447.6719)"  
                font-size="75" letter-spacing="3">Y</text>
          <text class="loading_text_black letter_r" transform="matrix(1 0 0 1 292.2168 338.4194)"  
                font-size="75" letter-spacing="3">R</text>
          <text class="loading_text_black letter_c" transform="matrix(1 0 0 1 214.0901 338.4195)"  
                font-size="75" letter-spacing="3">C</text>
        </g>
        <g class="loading_text"> 
          <text class="loading_text_gray letter_s" transform="matrix(1 0 0 1 135.9614 338.4194)" 
                font-size="75" letter-spacing="3">S</text>
          <text class="loading_text_gray letter_i" transform="matrix(1 0 0 1 57.8335 338.4194)" 
                font-size="75" letter-spacing="3">I</text>
          <text class="loading_text_gray letter_s" transform="matrix(1 0 0 1 292.2168 234.7925)" 
                font-size="75" letter-spacing="3">S</text>
          <text class="loading_text_gray letter_i" transform="matrix(1 0 0 1 214.0902 234.7926)" 
                font-size="75" letter-spacing="3">I</text>
          <text class="loading_text_gray letter_h" transform="matrix(1 0 0 1 135.9614 234.7925)" 
                font-size="75" letter-spacing="3">H</text>
          <text class="loading_text_gray letter_t" transform="matrix(1 0 0 1 57.8335 234.7925)" 
                font-size="75" letter-spacing="3">T</text>
        </g>
      <g>
          <use xlink:href="#New_Symbol_i" class="emoji_i emoji_item"
               width="30" height="57.9" id="i_2_" x="-15" y="-29" 
               transform="matrix(1 0 0 -1 315  525)" overflow="visible"/>
          <use xlink:href="#New_Symbol_i" class="emoji_i emoji_item"
               width="30" height="57.9" id="i_1_" x="-15" y="-29" 
               transform="matrix(1 0 0 -1 81  312)" overflow="visible"/>
          <use xlink:href="#New_Symbol_i" class="emoji_i emoji_item"
               width="30" height="57.9" id="i" x="-15" y="-29" 
               transform="matrix(1 0 0 -1 238 208) " overflow="visible"/>
	        <use xlink:href="#New_Symbol_c" class="emoji_c emoji_item"
               width="58" height="39.4" id="c" x="-29" y="-19.7" 
               transform="matrix(1 0 0 -1 239  312)" overflow="visible"/>
          <use xlink:href="#New_Symbol_t" class="emoji_t emoji_item"
               width="60" height="49.3" id="t_1_" x="-30" y="-24.3" 
               transform="matrix(1 0 0 -1  239 420)" overflow="visible"/>
	        <use xlink:href="#New_Symbol_t" class="emoji_t emoji_item"
               width="60" height="49.3" id="t" x="-30" y="-24.3" 
               transform="matrix(1 0 0 -1 78  207)" overflow="visible"/>
	        <use xlink:href="#New_Symbol_r" class="emoji_r emoji_item"
               width="58" height="59" id="r" x="-29" y="-29.5" 
               transform="matrix(1 0 0 -1 315  313)" overflow="visible"/>
	        <use xlink:href="#New_Symbol_p" class="emoji_p emoji_item"
               width="56.5" height="45.7" id="p" x="-28.3" y="-22.8" 
               transform="matrix(1 0 0 -1  158.5484 423.4471)" overflow="visible"/>
	        <use xlink:href="#New_Symbol_s" class="emoji_s emoji_item"
               width="56" height="58.7" id="s_1_" x="-28" y="-29.4" 
               transform="matrix(1 0 0 -1  159 314)" overflow="visible"/>
          <use xlink:href="#New_Symbol_s" class="emoji_s emoji_item"
               width="56" height="58.7" id="s" x="-28" y="-29.4" 
               transform="matrix(1 0 0 -1 316  208)" overflow="visible"/>
	        <use xlink:href="#New_Symbol_h" class="emoji_h emoji_item"
               width="35.1" height="59" id="h" x="-17.6" y="-29.5" 
               transform="matrix(1 0 0 -1  158.5 208.5)" overflow="visible"/>
	        <use xlink:href="#New_Symbol_o" class="emoji_o emoji_item"
               width="62" height="59.8" id="o_1_" x="-31" y="-29.9" 
               transform="matrix(1 0 0 -1  158 526)" overflow="visible"/>
          <use xlink:href="#New_Symbol_o" class="emoji_o emoji_item"
               width="62" height="59.8" id="o" x="-31" y="-29.9" 
               transform="matrix(1 0 0 -1 315  420)" overflow="visible"/>
	        <use xlink:href="#New_Symbol_l" class="emoji_l emoji_item"
               width="60" height="58.7" id="l" x="-30" y="-29.4" 
               transform="matrix(1 0 0 -1 81  525)" overflow="visible"/>
	        <use xlink:href="#New_Symbol_y" class="emoji_y emoji_item"
               width="49" height="60.1" id="y" x="-24.5" y="-30" 
               transform="matrix(1 0 0 -1  80.5 420.5241)" overflow="visible"/>
	        <use xlink:href="#New_Symbol_j" class="emoji_j emoji_item"
               width="56" height="57.4" id="j" x="-28" y="-28.5" 
               transform="matrix(1 0 0 -1  238 524)" overflow="visible"/>
</g>

<symbol  id="New_Symbol_i" viewBox="-15 -29 30 57.9">
  <path id="path22_24_" fill="#CCD6DD" d="M9.7,19.2c0-5.3-4.3-9.7-9.7-9.7s-9.7,4.3-9.7,9.7s4.3,9.7,9.7,9.7S9.7,24.6,9.7,19.2"/>
  <polygon fill="#CCD6DD" points="11,10 11,-24 -11,-24 -11,10   "/>
  <polygon fill="#DD2E44" points="11,7.9 11,0.7 -8.1,10 6.6,10  "/>
  <polygon fill="#DD2E44" points="11,-20.8 11,-24 2.8,-24 -11,-17.2 -11,-10.1   "/>
  <polygon fill="#FFFFFF" points="11,0.7 11,-6.5 -11,4.3 -11,10 -8.1,10   "/>
  <polygon fill="#FFFFFF" points="11,-13.6 11,-20.8 -11,-10.1 -11,-2.9  "/>
  <polygon fill="#FFFFFF" points="2.8,-24 -11,-24 -11,-17.2   "/>
  <polygon fill="#55ACEE" points="11,-6.5 11,-13.6 -11,-2.9 -11,4.3   "/>
  <polygon fill="none" points="11,10 11,-24 -11,-24 -11,10  "/>
  <path id="path68_7_" fill="#99AAB5" d="M14.5,12c0-1.8-1.4-3-3.2-3h-22.6c-1.8,0-3.2,1.2-3.2,3s1.4,3,3.2,3h22.6
    C13.1,15,14.5,13.8,14.5,12"/>
  <path id="path72_7_" fill="#99AAB5" d="M14.5-25.5c0-1.8-1.4-3.5-3.2-3.5h-22.6c-1.8,0-3.2,1.7-3.2,3.5s1.4,3.5,3.2,3.5h22.6
    C13.1-22,14.5-23.7,14.5-25.5"/>
  <polygon display="none" fill="none" points="-15,28 15,28 15,-29 -15,-29   "/>
</symbol>
<symbol  id="New_Symbol_c" viewBox="-29 -19.7 58 39.4">
  <path id="path22_23_" fill="#5C913B" d="M-25.8,19.7c-1.5-3.4-2.4-7.2-2.4-11.2c0-15.6,13-28.2,29-28.2C13.4-19.7,24-12,28.1-1.2
    L-25.8,19.7z"/>
  <path id="path26_20_" fill="#FFE8B6" d="M-22.8,18.5c-1.4-3.1-2.1-6.4-2.1-10c0-13.9,11.6-25.1,25.8-25.1
    c11.1,0,20.6,6.9,24.2,16.5L-22.8,18.5z"/>
  <path id="path30_20_" fill="#DD2E44" d="M-19.8,17.4c-1.2-2.7-1.9-5.7-1.9-8.8c0-12.1,10.1-22,22.6-22c9.8,0,18.1,6.1,21.2,14.5
    L-19.8,17.4z"/>
  <path id="path34_15_" d="M-13.7,7.3c-0.5-0.7-1.2-1.1-1.6-0.9c-0.4,0.2-0.3,1,0.2,1.8s1.2,1.1,1.6,0.9C-13.1,8.8-13.2,8-13.7,7.3"
    />
  <path id="path38_13_" d="M-4.1,5.7c-0.5-0.7-1.2-1.1-1.6-0.9C-6,5-5.9,5.8-5.4,6.6s1.2,1.1,1.6,0.9C-3.5,7.2-3.6,6.4-4.1,5.7"/>
  <path id="path42_14_" d="M4.1-1.9c0.1-0.9-0.2-1.6-0.7-1.7C3-3.6,2.6-2.9,2.5-2C2.5-1.1,2.7-0.4,3.2-0.4C3.6-0.3,4.1-1,4.1-1.9"/>
  <path id="path46_12_" d="M-10.4,1.3c0.1-0.9-0.2-1.6-0.7-1.7c-0.4,0-0.9,0.6-0.9,1.5c-0.1,0.9,0.2,1.6,0.7,1.7
    C-10.9,2.9-10.5,2.2-10.4,1.3"/>
  <path id="path50_11_" d="M-4.1-7.3C-4.6-8-5.3-8.4-5.7-8.1C-6.1-7.8-5.9-7-5.4-6.3c0.5,0.7,1.3,1.1,1.6,0.8
    C-3.4-5.8-3.5-6.6-4.1-7.3"/>
  <path id="path54_7_" d="M8.9-8C9.3-8.8,9.4-9.6,9-9.8c-0.4-0.2-1.1,0.2-1.5,1C7-8,7-7.2,7.4-7C7.8-6.8,8.4-7.2,8.9-8"/>
  <path id="path58_7_" d="M-2.4,0.1C-2-0.7-1.9-1.4-2.2-1.7c-0.4-0.2-1.1,0.2-1.6,0.9C-4.3,0-4.4,0.8-4,1C-3.6,1.2-2.9,0.8-2.4,0.1"
    />
  <path id="path62_7_" d="M12-2.4c-0.5-0.7-1.3-1.1-1.6-0.8c-0.4,0.3-0.2,1.1,0.3,1.8c0.5,0.7,1.3,1.1,1.6,0.8
    C12.7-0.9,12.6-1.7,12-2.4"/>
  <polygon display="none" fill="none" points="-29,19 29,19 29,-19 -29,-19   "/>
</symbol>
<symbol  id="New_Symbol_j" viewBox="-28 -28.5 56 57.4">
  <path id="path22_13_" fill="#77B255" d="M19.5,22.4c-3.6,0-6.5-2.9-6.5-6.5V1c0-1.8-1-3.2-3-4v22.1c0,5.4-4.6,9.8-10,9.8
    s-10-4.4-10-9.8V-9.6c-2,0.8-3,2.2-3,4.1v8.4c0,3.6-2.9,6.5-6.5,6.5S-26,6.4-26,2.8V-8.6c0-3.6,2.7-6.3,5.4-7.8
    c2-1.2,7.6-2.6,10.6-2.7V-24c0-6,20-6,20,0v11.4c3,0.2,8.5,1.6,10.4,2.7C23.1-8.4,26-5.7,26-2v17.9C26,19.5,23.1,22.4,19.5,22.4"/>
  <path id="path26_11_" fill="#3E721D" d="M-8.2,19.2c0-0.9-0.7-1.6-1.6-1.6c-0.9,0-1.6,0.7-1.6,1.6s0.7,1.6,1.6,1.6
    C-8.9,20.8-8.2,20.1-8.2,19.2"/>
  <path id="path30_13_" fill="#3E721D" d="M9.8,24c0-0.9-0.7-1.6-1.6-1.6S6.5,23.1,6.5,24c0,0.9,0.7,1.6,1.6,1.6S9.8,24.9,9.8,24"/>
  <path id="path34_12_" fill="#3E721D" d="M6.5,14.3c0-0.9-0.7-1.6-1.6-1.6s-1.6,0.7-1.6,1.6c0,0.9,0.7,1.6,1.6,1.6
    S6.5,15.2,6.5,14.3"/>
  <path id="path38_10_" fill="#3E721D" d="M-4.9,2.8c0-0.9-0.7-1.6-1.6-1.6s-1.6,0.7-1.6,1.6s0.7,1.6,1.6,1.6S-4.9,3.7-4.9,2.8"/>
  <path id="path42_8_" fill="#3E721D" d="M4.9-3.7c0-0.9-0.7-1.6-1.6-1.6S1.6-4.6,1.6-3.7S2.4-2,3.3-2S4.9-2.8,4.9-3.7"/>
  <path id="path46_6_" fill="#3E721D" d="M-6.5-13.5c0-0.9-0.7-1.6-1.6-1.6s-1.6,0.7-1.6,1.6c0,0.9,0.7,1.6,1.6,1.6
    S-6.5-12.6-6.5-13.5"/>
  <path id="path50_6_" fill="#3E721D" d="M-19.6-15.1c0-0.9-0.7-1.6-1.6-1.6s-1.6,0.7-1.6,1.6c0,0.9,0.7,1.6,1.6,1.6
    C-20.3-13.5-19.6-14.2-19.6-15.1"/>
  <path id="path54_5_" fill="#3E721D" d="M-13-3.7c0-0.9-0.7-1.6-1.6-1.6c-0.9,0-1.6,0.7-1.6,1.6S-15.6-2-14.7-2
    C-13.8-2-13-2.8-13-3.7"/>
  <path id="path58_5_" fill="#3E721D" d="M-24.5-0.4c0-0.9-0.7-1.6-1.6-1.6c-0.9,0-1.6,0.7-1.6,1.6s0.7,1.6,1.6,1.6
    C-25.2,1.2-24.5,0.5-24.5-0.4"/>
  <path id="path62_5_" fill="#3E721D" d="M27.7,15.9c0-0.9-0.7-1.6-1.6-1.6s-1.6,0.7-1.6,1.6c0,0.9,0.7,1.6,1.6,1.6
    C27,17.5,27.7,16.8,27.7,15.9"/>
  <path id="path66_4_" fill="#3E721D" d="M17.9,11c0-0.9-0.7-1.6-1.6-1.6s-1.6,0.7-1.6,1.6c0,0.9,0.7,1.6,1.6,1.6S17.9,11.9,17.9,11"
    />
  <path id="path70_4_" fill="#3E721D" d="M24.5,2.8c0-0.9-0.7-1.6-1.6-1.6s-1.6,0.7-1.6,1.6s0.7,1.6,1.6,1.6S24.5,3.7,24.5,2.8"/>
  <path id="path74_4_" fill="#3E721D" d="M19.6-10.2c0-0.9-0.7-1.6-1.6-1.6s-1.6,0.7-1.6,1.6c0,0.9,0.7,1.6,1.6,1.6
    S19.6-9.3,19.6-10.2"/>
  <path id="path78_4_" fill="#3E721D" d="M8.2-20c0-0.9-0.7-1.6-1.6-1.6S4.9-20.9,4.9-20s0.7,1.6,1.6,1.6S8.2-19.1,8.2-20"/>
  <polygon display="none" fill="none" points="-28,28 28,28 28,-28 -28,-28   "/>
</symbol>
<symbol  id="New_Symbol_t" viewBox="-30 -24.3 60 49.3">
  <path id="path14_5_" fill="#BDDDF4" d="M-8.2,25H-18l-11.4-15h16.3L-8.2,25z"/>
  <path id="path18_5_" fill="#5DADEC" d="M29.4,10L18,25H8.2l4.9-15H29.4z"/>
  <path id="path22_22_" fill="#4289C1" d="M13.1,10h16.3L0-24.3L13.1,10z"/>
  <path id="path26_19_" fill="#8CCAF7" d="M-13.1,10h-16.3L0-24.3L-13.1,10z"/>
  <path id="path30_19_" fill="#8CCAF7" d="M-8.2,25l-4.9-15h26.1L8.2,25H-8.2z"/>
  <path id="path34_14_" fill="#5DADEC" d="M0-24.3L-13.1,10h26.1L0-24.3z"/>
  <polygon display="none" fill="none" points="-30,25 30,25 30,-24 -30,-24   "/>
</symbol>
<symbol  id="New_Symbol_r" viewBox="-29 -29.5 58 59">
  <path id="path22_10_" fill="#77B255" d="M-13.9,9.8c-0.2,0-0.5,0.1-0.7,0.2c-7.2,3.6-12.3,12.3-13.9,17.4c-0.3,0.9,0.2,1.8,1,2.1
    c0.9,0.3,1.8-0.2,2.1-1c1.4-4.3,6-12.3,12.3-15.5c0.8-0.4,1.1-1.4,0.7-2.2C-12.8,10.2-13.3,9.8-13.9,9.8"/>
  <path id="path26_18_" fill="#553788" d="M12.3-18c0-6.3-5.1-11.5-11.5-11.5S-10.7-24.4-10.7-18S-5.5-6.6,0.8-6.6S12.3-11.7,12.3-18
    "/>
  <path id="path30_18_" fill="#9266CC" d="M-2.5,4.9c0-6.3-5.1-11.5-11.5-11.5S-25.4-1.4-25.4,4.9s5.1,11.5,11.5,11.5
    S-2.5,11.3-2.5,4.9"/>
  <path id="path34_13_" fill="#AA8DD8" d="M12.3,9.8c0-6.3-5.1-11.5-11.5-11.5S-10.7,3.5-10.7,9.8s5.1,11.5,11.5,11.5
    S12.3,16.2,12.3,9.8"/>
  <path id="path38_12_" fill="#744EAA" d="M25.4,0c0-6.3-5.1-11.5-11.5-11.5S2.5-6.3,2.5,0s5.1,11.5,11.5,11.5S25.4,6.3,25.4,0"/>
  <path id="path42_13_" fill="#744EAA" d="M-4.1-13.1c0-6.3-5.1-11.5-11.5-11.5s-11.5,5.1-11.5,11.5s5.1,11.5,11.5,11.5
    S-4.1-6.8-4.1-13.1"/>
  <path id="path46_11_" fill="#9266CC" d="M10.7-4.9c0-6.3-5.1-11.5-11.5-11.5s-11.5,5.1-11.5,11.5S-7.2,6.6-0.8,6.6
    S10.7,1.4,10.7-4.9"/>
  <path id="path50_10_" fill="#9266CC" d="M28.7-18c0-6.3-5.1-11.5-11.5-11.5S5.7-24.4,5.7-18S10.9-6.6,17.2-6.6S28.7-11.7,28.7-18"
    />
  <polygon display="none" fill="none" points="-29,29 29,29 29,-29 -29,-29   "/>
</symbol>
<symbol  id="New_Symbol_p" viewBox="-28.3 -22.8 56.5 45.7">
  <path id="path22_12_" fill="#FFAC33" d="M28.1-5.8C26.4-16,15.5-22.8,0-22.8S-26.4-16-28.1-5.8c-0.4,2.4,0.3,13.2,1.7,15.3
    c4.2,6,5.7-16.9,26.4-16.9c22.6,0,22.3,22.9,26.4,16.9C27.9,7.5,28.5-3.4,28.1-5.8"/>
  <path id="path26_10_" fill="#8A4B38" d="M0,1c-5.2,0-9.4,1.1-9.4,2.6S-5.2,6.1,0,6.1c5.2,0,9.4-1.1,9.4-2.6S5.2,1,0,1 M0,22.8
    c-15.2,0-27.6-7.5-27.6-16.7c0-9.2,12.3-16.7,27.6-16.7c15.2,0,27.6,7.5,27.6,16.7C27.6,15.4,15.2,22.8,0,22.8"/>
  <path id="path30_11_" fill="#8A4B38" d="M-26.7,8.8c-1.1-1.7-1.5-9,0.8-12.4c3.5-5.2,5.2-2.6,7.7-3.3c3.8-1.2,4.1-4.2,7.1-5.7
    c3.4-1.7,5.4-1.2,10.2,0c6.8,1.7,11.2-1.8,15.3,0c3.4,1.5,5.4,6.7,7.3,7.4c6.1,2,7.4,11.6,2.8,15.6c-1.4-3-8.4-13.7-12.9-14.2
    C7.3-4.4-6.1-5.5-11.8-2.6c-5.7,2.9-11.4,6.5-12.2,7.5C-24.7,5.9-26.7,8.8-26.7,8.8"/>
  <path id="path34_9_" fill="#F4900C" d="M0,10c-6.1,0-11.1-2-11.1-4.5c0-1,0.8-1.8,2-2.6c-0.2,0.2-0.3,0.4-0.3,0.7
    C-9.4,5-5.2,6.1,0,6.1c5.2,0,9.4-1.1,9.4-2.6c0-0.2-0.1-0.4-0.3-0.7c1.3,0.7,2,1.6,2,2.6C11.1,8,6.1,10,0,10"/>
  <path id="path38_11_" fill="#F4ABBA" d="M-22.3,3c-0.6,0-1.2,0.3-1.5,0.9c-0.4,0.8-0.1,1.9,0.7,2.3l3.8,2c0.8,0.4,1.9,0.1,2.3-0.7
    c0.4-0.8,0.1-1.9-0.7-2.3l-3.8-2C-21.8,3.1-22,3-22.3,3"/>
  <path id="path42_12_" fill="#F4ABBA" d="M-2.9-9.7c-0.7,0-1.3,0.4-1.6,1.1l-1.2,2.9c-0.4,0.9,0.1,1.9,0.9,2.2
    c0.9,0.4,1.9-0.1,2.2-0.9l1.2-2.9C-1-8.2-1.4-9.2-2.3-9.6C-2.5-9.7-2.7-9.7-2.9-9.7"/>
  <path id="path46_10_" fill="#55ACEE" d="M16.4-2.9c-0.3,0-0.6,0.1-0.9,0.2c-0.8,0.5-1.1,1.5-0.6,2.3l1.8,3.1
    c0.5,0.8,1.5,1.1,2.3,0.6c0.8-0.5,1.1-1.5,0.6-2.3L17.9-2C17.6-2.6,17-2.9,16.4-2.9"/>
  <path id="path50_9_" fill="#F4ABBA" d="M19.3,10.2c-0.9,0-1.7,0.6-1.7,1.5c0,0.9,0.7,1.7,1.6,1.7l2,0c1,0,1.7-0.7,1.8-1.7
    c0-0.9-0.7-1.6-1.6-1.6L19.3,10.2L19.3,10.2z"/>
  <path id="path54_6_" fill="#F4ABBA" d="M2.8,16.5c-0.7,0-1.4,0.5-1.6,1.2c-0.3,0.9,0.2,1.9,1.1,2.1l1.3,0.4
    c0.9,0.3,1.9-0.2,2.1-1.1C6,18.3,5.5,17.3,4.6,17l-1.3-0.4C3.1,16.5,2.9,16.5,2.8,16.5"/>
  <path id="path58_6_" fill="#88C9F9" d="M-6.7,13.7c-0.3,0-0.5,0.1-0.8,0.2l-1.3,0.6C-9.6,15-9.9,16-9.5,16.8
    c0.4,0.8,1.4,1.2,2.3,0.8l1.3-0.6c0.8-0.4,1.2-1.4,0.8-2.3C-5.5,14.1-6.1,13.7-6.7,13.7"/>
  <path id="path62_6_" fill="#88C9F9" d="M8.2-7.9c-0.3,0-0.5,0.1-0.8,0.2L6.1-7.1C5.3-6.7,4.9-5.7,5.4-4.8C5.8-4,6.8-3.6,7.7-4.1
    l1.3-0.6C9.8-5.1,10.1-6.1,9.7-7C9.4-7.6,8.8-7.9,8.2-7.9"/>
  <path id="path66_5_" fill="#55ACEE" d="M-14.1-4.2c-0.2,0-0.5,0-0.7,0.1c-0.9,0.4-1.3,1.4-0.9,2.2l0.6,1.5c0.4,0.9,1.4,1.3,2.2,0.9
    c0.9-0.4,1.3-1.4,0.9-2.2l-0.6-1.5C-12.8-3.8-13.5-4.2-14.1-4.2"/>
  <path id="path70_5_" fill="#55ACEE" d="M11.3,12c-0.7,0-1.3,0.4-1.6,1c-0.4,0.9,0,1.9,0.9,2.2l1.1,0.5c0.9,0.4,1.9,0,2.2-0.9
    c0.4-0.9,0-1.9-0.9-2.2L12,12.1C11.8,12,11.5,12,11.3,12"/>
  <path id="path74_5_" fill="#55ACEE" d="M-16.4,12c-0.1,0-0.3,0-0.4,0l-0.9,0.2c-0.9,0.2-1.5,1.1-1.3,2c0.2,0.9,1.1,1.5,2,1.3
    l0.9-0.2c0.9-0.2,1.5-1.1,1.3-2C-14.9,12.6-15.6,12-16.4,12"/>
</symbol>
<symbol  id="New_Symbol_s" viewBox="-28 -29.4 56 58.7">
  <path id="path22_14_" fill="#FFCC4D" d="M27.7,1.6c0-15.3-12.4-27.7-27.7-27.7c-15.3,0-27.7,12.4-27.7,27.7
    c0,15.3,12.4,27.7,27.7,27.7C15.3,29.4,27.7,16.9,27.7,1.6"/>
  <path id="path26_13_" fill="#664500" d="M-4.1,3.6c-0.1,0.2-2.4,5.4-7.3,5.4c-4.8,0-7.2-5.2-7.3-5.4c-0.2-0.3-0.1-0.7,0.2-1
    c0.3-0.2,0.7-0.2,1,0c0,0,2.1,1.5,6,1.5c4,0,6-1.4,6-1.5c0.1-0.1,0.3-0.2,0.5-0.2c0.2,0,0.4,0.1,0.5,0.2C-4.1,2.8-4,3.2-4.1,3.6"/>
  <path id="path30_14_" fill="#F5F8FA" d="M21.2,7.3c0-5.9-4.7-10.6-10.6-10.6S0,1.4,0,7.3s4.7,10.6,10.6,10.6S21.2,13.2,21.2,7.3"/>
  <path id="path34_10_" fill="#292F33" d="M14.7,7.3c0-2.3-1.8-4.1-4.1-4.1S6.5,5,6.5,7.3s1.8,4.1,4.1,4.1S14.7,9.6,14.7,7.3"/>
  <path id="path38_8_" fill="#664500" d="M-17.9-6.6c0-6.5,7.5-14.7,17.9-14.7s17.9,8.2,17.9,14.7C17.9-6.6,1.1-11.1-17.9-6.6"/>
  <path id="path42_9_" fill="#E75A70" d="M-9-9v-10.6c0-4.9,3-9.8,9.5-9.8s9.5,4.9,9.5,9.8v9.9C0-11.8-9-9.4-9-9.4"/>
  <polygon display="none" fill="none" points="-28,29 28,29 28,-29 -28,-29   "/>
</symbol>
<symbol  id="New_Symbol_h" viewBox="-17.6 -29.5 35.1 59">
  <g id="g20_9_" transform="translate(21.1426,4.7852)">
    <path id="path22_9_" fill="#E1E8ED" d="M-17.6-28.1c0-1.9-1.6-3.5-3.5-3.5c-1.9,0-3.5,1.6-3.5,3.5c0,1.9,1.6,3.5,3.5,3.5
      C-19.2-24.6-17.6-26.1-17.6-28.1"/>
  </g>
  <g id="g24_8_" transform="translate(28.6426,21.3569)">
    <path id="path26_8_" fill="#E1E8ED" d="M-12.8-17.5c0,8.7-7.1,15.8-15.8,15.8s-15.8-7.1-15.8-15.8c0-8.8-1.8-27.2-1.8-27.2
      c0-1.9,1.6-3.5,3.5-3.5s3.5,1.6,3.5,3.5c0-1.9,1.6-3.5,3.5-3.5c1.9,0,3.5,1.6,3.5,3.5h7c0-1.9,1.6-3.5,3.5-3.5
      c1.9,0,3.5,1.6,3.5,3.5c0-1.9,1.6-3.5,3.5-3.5c1.9,0,3.5,1.6,3.5,3.5C-11.1-44.7-12.8-26.3-12.8-17.5"/>
  </g>
  <g id="g28_9_" transform="translate(21,34)">
    <path id="path30_9_" fill="#DD2E44" d="M-17.7-9.4c0-3.6-2.4-9.8-3.3-9.8c-0.9,0-3.3,6.2-3.3,9.8s2.4,4.9,3.3,4.9
      C-20.1-4.5-17.7-5.8-17.7-9.4"/>
  </g>
  <g id="g32_9_" transform="translate(16.6348,4)">
    <path id="path34_8_" fill="#DD2E44" d="M-20.5-28.6c0,4.3,2.8,13.1,3.9,13.1s3.9-8.8,3.9-13.1s-2.8-4.9-3.9-4.9
      C-17.7-33.5-20.5-32.9-20.5-28.6"/>
  </g>
  <g id="g36_7_" transform="translate(26,14.5)">
    <path id="path38_7_" fill="#F4900C" d="M-14.5-21.9c0-2.5-7.9-7.4-11.5-7.4s-11.5,4.9-11.5,7.4s7.9,7.4,11.5,7.4
      S-14.5-19.4-14.5-21.9"/>
  </g>
  <g id="g40_7_" transform="translate(26,14.5)">
    <path id="path42_7_" fill="#FFAC33" d="M-14.5-21.9c0-2.5-22.9-2.5-22.9,0s7.9,7.4,11.5,7.4S-14.5-19.4-14.5-21.9"/>
  </g>
  <g id="g44_6_" transform="translate(14,18.5)">
    <path id="path46_7_" fill="#292F33" d="M-22.2-19.3c0-1.4-1.1-2.5-2.5-2.5s-2.5,1.1-2.5,2.5c0,1.4,1.1,2.5,2.5,2.5
      S-22.2-18-22.2-19.3"/>
  </g>
  <g id="g48_6_" transform="translate(27,18.5)">
    <path id="path50_7_" fill="#292F33" d="M-13.9-19.3c0-1.4-1.1-2.5-2.5-2.5c-1.4,0-2.5,1.1-2.5,2.5c0,1.4,1.1,2.5,2.5,2.5
      C-15-16.9-13.9-18-13.9-19.3"/>
  </g>
</symbol>
<symbol  id="New_Symbol_o" viewBox="-31 -29.9 62 59.8">
  <path id="path22_8_" fill="#F4900C" d="M-25-2.4c0,15.2,12.3,27.5,27.5,27.5S30,12.8,30-2.4c0-15.2-12.3-27.5-27.5-27.5
    S-25-17.6-25-2.4"/>
  <path id="path26_7_" fill="#662113" d="M-11,17.5c-0.4,0.4-1.3,0.3-2.3-0.2c-5.5,4.6-14.4,6.1-14.8,6.2c-0.9,0.2-1.8-0.5-1.9-1.4
    c-0.2-0.9,0.5-1.8,1.4-1.9c0.1,0,8.2-1.4,13-5.3c-0.5-0.9-0.5-1.7-0.1-2.1c0.7-0.7,2.2-0.1,3.5,1.2S-10.3,16.9-11,17.5"/>
  <path id="path30_8_" fill="#5C913B" d="M5,28.5c0,0-5.2-7.2-11.7-8.8c-5-1.2-11.6-1.3-12.2,0.2c-0.7,1.5,2.6,6.6,8.3,9
    S5,28.5,5,28.5"/>
  <polygon display="none" fill="none" points="-31,29 31,29 31,-29 -31,-29   "/>
</symbol>
<symbol  id="New_Symbol_l" viewBox="-30 -29.4 60 58.7">
  <g id="g20_8_" transform="translate(37,19)">
    <path id="path22_20_" fill="#CCD6DD" d="M-7.6-19c0-16.2-13.1-29.4-29.4-29.4S-66.4-35.2-66.4-19S-53.2,10.4-37,10.4
      S-7.6-2.8-7.6-19"/>
  </g>
  <g id="g24_7_" transform="translate(33,19)">
    <path id="path26_16_" fill="#3B88C3" d="M-10.2-19c0-12.6-10.2-22.8-22.8-22.8S-55.8-31.6-55.8-19S-45.6,3.8-33,3.8
      S-10.2-6.4-10.2-19"/>
  </g>
  <g id="g28_8_" transform="translate(29,19)">
    <path id="path30_16_" fill="#DD2E44" d="M-12.7-19c0-9-7.3-16.3-16.3-16.3c-9,0-16.3,7.3-16.3,16.3c0,9,7.3,16.3,16.3,16.3
      C-20-2.7-12.7-10-12.7-19"/>
  </g>
  <g id="g32_8_" transform="translate(25,19)">
    <path id="path34_7_" fill="#FFAC33" d="M-15.2-19c0-5.4-4.4-9.8-9.8-9.8c-5.4,0-9.8,4.4-9.8,9.8c0,5.4,4.4,9.8,9.8,9.8
      C-19.6-9.2-15.2-13.6-15.2-19"/>
  </g>
  <g id="g36_6_" transform="translate(35.8643,7.8008)">
    <path id="path38_6_" d="M-8.3-26.1c-0.7-0.5-2.1-1-3.2-1c-3.2,0-7.6,1.2-10.3,3.9l-4.8,6.3c-0.4,0.4-0.6,0.7-0.3,1.3
      c0.2,0.6-1.2,0.7-0.6,0.7h8.3c3,0,7-1.8,9.7-4.7l0.6-0.5c1.3-1.4,1.9-2.6,1.9-3.8C-7.1-24.8-7.5-25.5-8.3-26.1"/>
  </g>
  <g id="g40_6_" transform="translate(29.3047,1.7959)">
    <path id="path42_6_" d="M-12.5-29.9L-12.5-29.9c-1.3,0-2.7,0.7-4.1,2l-1.1,0.6c-2.9,2.7-5.7,6.7-5.7,9.8V-9c0,0.6,1.1-0.8,1.7-0.6
      C-21-9.4-20-9.5-19.5-10l5.2-5.1c2.8-2.8,5-7.5,5-10.8c0-1.1-0.2-2-0.7-2.7C-10.6-29.4-11.5-29.9-12.5-29.9"/>
  </g>
  <g id="g44_4_" transform="translate(32.3447,5.0361)">
    <path id="path46_4_" fill="#C1694F" d="M-10.6-27.8c-0.4,0-0.8,0.2-1.1,0.5L-34.5-4.5c-0.6,0.6-0.6,1.7,0,2.3s1.7,0.6,2.3,0
      L-9.4-25c0.6-0.6,0.6-1.7,0-2.3C-9.7-27.6-10.2-27.8-10.6-27.8"/>
  </g>
  <polygon display="none" fill="none" points="-30,29 30,29 30,-29 -30,-29   "/>
</symbol>
<symbol  id="New_Symbol_y" viewBox="-24.5 -30 49 60.1">
  <path id="path22_21_" fill="#8899A6" d="M2.7-3.7c0,0,19.2,18.5,21.1,20.1c1.9,1.6-1.2,3.8-5,3.8h-17H0h-1.9h-17
    c-1.9,0-7.5-1.2-4.7-4.1c2-2,21.2-19.8,21.2-19.8v-17c0,0-7.7-3.9-9.2-4.8c-1.6-0.9-0.6-2.5,0.1-2.7c1.1-0.4,3.8-1.8,11.4-1.8
    c7.8,0,10.4,1.5,11.3,1.8c0.4,0.1,2.3,1.6,0,2.9c-4,2.4-8.6,4.7-8.6,4.7V-3.7z"/>
  <path id="path26_17_" fill="#CCD6DD" d="M24.5,17.8c0-2.7-11-4.9-24.5-4.9s-24.5,2.2-24.5,4.9c0,2.7,11,4.9,24.5,4.9
    S24.5,20.5,24.5,17.8"/>
  <path id="path30_17_" fill="#CCD6DD" d="M-21.7,17.6C-19.5,15.5-7.3,5.4-2,1.1c1.5-1.2,3.6-1,4.7-0.2s18.7,16.1,18.7,16.1
    L-21.7,17.6z"/>
  <path id="path42_11_" fill="#662113" d="M-0.9,2.6c-0.4,0.2-0.1,1.3,0.4,2.2L12,29.1c0.5,0.9,1.6,1.2,2.5,0.7
    c0.9-0.5,1.2-1.6,0.7-2.5L0.7,4C0.5,3.6-0.4,2.3-0.9,2.6"/>
  <path id="path46_9_" fill="#5C913B" d="M7.3,17.1c1.9-1.1,3.3-4.4,2-6.8C8,7.9,4.4,7.5,2.5,8.5c-1.9,1.1-3.5,4.2-2,6.8
    C1.9,17.9,5.4,18.2,7.3,17.1"/>
  <path id="path50_4_" fill="#FFFFFF" d="M-1,12.2c-6.3,0-12.3,0.8-18,2.5l-0.2,0.1c-0.9,0.3-1.4,1.2-1.1,2.1
    c0.3,0.9,1.2,1.4,2.1,1.1l0.2-0.1c11-3.2,23.4-3.1,36.9,0.2c0.9,0.2,1.8-0.3,2-1.2c0.2-0.9-0.3-1.8-1.2-2
    C12.5,13.1,5.6,12.2-1,12.2"/>
</symbol>
</svg>
