<?xml version="1.0" encoding="utf-8"?>
<!-- Generator: Adobe Illustrator 18.0.0, SVG Export Plug-In . SVG Version: 6.00 Build 0)  -->
<!DOCTYPE svg PUBLIC "-//W3C//DTD SVG 1.1//EN" "http://www.w3.org/Graphics/SVG/1.1/DTD/svg11.dtd">
<svg version="1.1" id="Layer_1" xmlns="http://www.w3.org/2000/svg" xmlns:xlink="http://www.w3.org/1999/xlink" x="0px" y="0px"
     viewBox="0 0 204.2 204.2" enable-background="new 0 0 204.2 204.2" xml:space="preserve">
<g>
    <path fill="#FFCC4D" d="M177.9,59.6c0,13.5-11,24.5-24.5,24.5c-13.5,0-24.5-11-24.5-24.5c0-13.5,11-24.5,24.5-24.5
        C167,35.1,177.9,46.1,177.9,59.6"/>
    <path fill="#664500" d="M141.9,52.4c0,0,0-2.9,2.9-2.9c2.9,0,2.9,2.9,2.9,2.9v2.9c0,0,0,2.9-2.9,2.9c-2.9,0-2.9-2.9-2.9-2.9V52.4z"
        />
    <path fill="#664500" d="M159.2,52.4c0,0,0-2.9,2.9-2.9s2.9,2.9,2.9,2.9v2.9c0,0,0,2.9-2.9,2.9s-2.9-2.9-2.9-2.9V52.4z"/>
    <path fill="#664500" d="M166.9,66.3c-0.3-0.2-0.6-0.2-0.9,0c-0.1,0-5.7,4.2-12.5,4.2c-6.9,0-12.5-4.1-12.5-4.2
        c-0.3-0.2-0.7-0.2-0.9,0c-0.3,0.2-0.3,0.6-0.1,0.9c0.2,0.3,4.6,7.6,13.6,7.6s13.4-7.2,13.6-7.6C167.2,66.9,167.1,66.5,166.9,66.3"
        />
</g>
<g>
    <path fill="#FFFFFF" d="M192.7,156.4h-78.5c-6.4,0-11.6-5.2-11.6-11.6V11.6c0-6.4,5.2-11.6,11.6-11.6h78.5
        c6.4,0,11.6,5.2,11.6,11.6v133.3C204.2,151.2,199.1,156.4,192.7,156.4z M114.2,6c-3.1,0-5.6,2.5-5.6,5.6v133.3
        c0,3.1,2.5,5.6,5.6,5.6h78.5c3.1,0,5.6-2.5,5.6-5.6V11.6c0-3.1-2.5-5.6-5.6-5.6H114.2z"/>
    <path fill="#FFFFFF" d="M137.5,204.2H18.9C8.5,204.2,0,195.8,0,185.3v-63.8c0-10.4,8.5-18.9,18.9-18.9h73.2c1.7,0,3,1.3,3,3
        s-1.3,3-3,3H18.9c-7.1,0-12.9,5.8-12.9,12.9v63.8c0,7.1,5.8,12.9,12.9,12.9h118.6c7.1,0,12.9-5.8,12.9-12.9v-19.8c0-1.7,1.3-3,3-3
        s3,1.3,3,3v19.8C156.4,195.8,147.9,204.2,137.5,204.2z"/>
    <path fill="#FFFFFF" d="M30,92.4c-1.7,0-3-1.3-3-3c0-6.6,1-13,3.1-19.2c0.5-1.6,2.2-2.4,3.8-1.9c1.6,0.5,2.4,2.2,1.9,3.8
        C33.9,77.6,33,83.4,33,89.4C33,91,31.7,92.4,30,92.4z M41.4,57.7c-0.6,0-1.2-0.2-1.8-0.6c-1.3-1-1.6-2.9-0.6-4.2
        c3.9-5.3,8.5-9.8,13.8-13.6c1.3-1,3.2-0.6,4.2,0.7c1,1.3,0.6,3.2-0.7,4.2c-4.8,3.4-9,7.6-12.5,12.3C43.2,57.2,42.3,57.7,41.4,57.7z
         M71.1,36.5c-1.3,0-2.5-0.8-2.9-2.1c-0.5-1.6,0.4-3.3,2-3.8c5.9-1.8,12-2.8,18.3-2.8c1.7,0,3,1.3,3,3s-1.3,3-3,3
        c-5.6,0-11.2,0.8-16.5,2.5C71.7,36.4,71.4,36.5,71.1,36.5z"/>
    <path fill="#FFFFFF" d="M80.4,44.3c-0.9,0-1.8-0.4-2.4-1.2c-1-1.3-0.8-3.2,0.5-4.2l10.3-8.1l-10.1-6.6c-1.4-0.9-1.8-2.8-0.9-4.2
        c0.9-1.4,2.8-1.8,4.2-0.9l13.6,8.9c0.8,0.5,1.3,1.4,1.4,2.4c0,1-0.4,1.9-1.1,2.5L82.3,43.6C81.7,44.1,81.1,44.3,80.4,44.3z"/>
</g>
<g>
    <path fill="#FFCC4D" d="M59.6,129.1c13.4,0,24.3,10.9,24.3,24.3c0,13.4-10.9,24.3-24.3,24.3c-13.4,0-24.3-10.9-24.3-24.3
        C35.3,140,46.2,129.1,59.6,129.1"/>
    <path fill="#292F33" d="M76.6,142.7c-0.3,0.1-6.3,1.7-6.3,10.7c0,9,6,10.6,6.3,10.7c0.3,0.1,0.6-0.1,0.8-0.3
        c0.2-0.3,0.1-0.6-0.1-0.9c0,0-2.7-2.8-2.7-9.5c0-6.7,2.6-9.5,2.7-9.5c0.1-0.1,0.2-0.3,0.2-0.5c0-0.1,0-0.2-0.1-0.4
        C77.3,142.8,76.9,142.6,76.6,142.7"/>
    <path fill="#292F33" d="M58.6,156.7c-4.7,4.7-4.7,12.1-4.7,12.4c0,0.8,0.6,1.4,1.4,1.4c0.8,0,1.4-0.6,1.4-1.4c0,0,0-2.8,1.1-5.7
        c0.9,0.8,2.3,1.4,3.9,1.4c2.8,0,5-1.6,5-3.6s-2.2-3.6-5-3.6c-0.2,0-0.5,0-0.7,0.1c0,0,0,0,0-0.1c0-0.4-0.1-0.7-0.4-1
        C60.1,156.1,59.2,156.1,58.6,156.7"/>
    <path fill="#292F33" d="M53.9,137.7c0,0.3,0.1,7.8,4.7,12.4c0.6,0.6,1.5,0.6,2,0c0.3-0.3,0.4-0.6,0.4-1c0,0,0,0,0-0.1
        c0.2,0,0.5,0.1,0.7,0.1c2.8,0,5-1.6,5-3.6c0-2-2.2-3.6-5-3.6c-1.6,0-3,0.6-3.9,1.4c-1-2.9-1.1-5.7-1.1-5.7c0-0.8-0.6-1.4-1.4-1.4
        C54.6,136.3,53.9,136.9,53.9,137.7"/>
</g>
</svg>
