<svg version="1.1" xmlns="http://www.w3.org/2000/svg" xmlns:xlink="http://www.w3.org/1999/xlink" x="0px" y="0px"
     id="orange" viewBox="0 0 800 800" enable-background="new 0 0 800 800" xml:space="preserve"> 
        <path id="path22_21_" fill="#F4900C" d="M114.4,426.9c0-173.5,140.6-314.2,314.2-314.2s314.2,140.7,314.2,314.2
          S602.3,741.2,428.7,741.2S114.4,600.5,114.4,426.9"/>
        <path id="path26_16_" fill="#662113" d="M274.6,200c-5.1-5.1-15.2-3.7-25.9,2.3C186,150.2,84,132.7,79.3,132
          c-10.5-1.7-20.2,5.3-22,15.6c-1.7,10.4,5.2,20.2,15.6,22c1,0.2,94,16.3,149,60.2c-5.2,10-6.2,19.3-1.4,24.1
          c7.4,7.4,25.6,1.5,40.4-13.5C276,225.4,282.1,207.4,274.6,200"/>
        <path id="path30_14_" fill="#5C913B" d="M457.2,74.6c0,0-59.2,82.2-133.7,100.4c-56.7,13.9-132.2,15.2-139.7-2.3
          c-7.5-17.4,29.9-75,94.6-102.8C343.2,42.2,457.2,74.6,457.2,74.6"/>
</svg>
