<?xml version="1.0" encoding="utf-8"?>
<!-- Generator: Adobe Illustrator 18.0.0, SVG Export Plug-In . SVG Version: 6.00 Build 0)  -->
<!DOCTYPE svg PUBLIC "-//W3C//DTD SVG 1.1//EN" "http://www.w3.org/Graphics/SVG/1.1/DTD/svg11.dtd">
<svg version="1.1" id="Layer_1" xmlns="http://www.w3.org/2000/svg" xmlns:xlink="http://www.w3.org/1999/xlink" x="0px" y="0px"
	 width="800px" height="997px" viewBox="0 0 800 997" enable-background="new 0 0 800 997" xml:space="preserve">
<ellipse fill="#FFCC4D" cx="400" cy="222.9" rx="271.3" ry="205.3"/>
<ellipse fill="#F4900C" cx="400" cy="222.9" rx="216.8" ry="178.6"/>
<g>
	<circle fill="#F4900C" cx="697.9" cy="335.7" r="89.9"/>
	<circle fill="#F4900C" cx="102.1" cy="335.7" r="89.9"/>
</g>
<path fill="#FFAC33" d="M734.4,455.8H65.6c-6.5,0-11.7-5.3-11.7-11.7V227.4c0-6.5,5.3-11.7,11.7-11.7h668.9
	c6.5,0,11.7,5.3,11.7,11.7v216.7C746.2,450.6,740.9,455.8,734.4,455.8z"/>
<path fill="#226699" d="M622.1,700.6H177.9c-20,0-36.2-16.2-36.2-36.2V121c0-20,16.2-36.2,36.2-36.2h444.2c20,0,36.2,16.2,36.2,36.2
	v543.4C658.3,684.4,642.1,700.6,622.1,700.6z"/>
<path fill="#55ACEE" d="M665,766H135c-21.7,0-39.3-17.6-39.3-39.3V189.5c0-21.7,17.6-39.3,39.3-39.3h530c21.7,0,39.3,17.6,39.3,39.3
	v537.3C704.3,748.4,686.7,766,665,766z"/>
<path fill="#3B88C3" d="M767.2,712.9v69.5H32.8v-69.5c0-23.8,19.3-43.2,43.2-43.2h238l86,86.1l86-86.1h238
	C747.8,669.8,767.2,689.1,767.2,712.9z"/>
<path fill="#3B88C3" d="M767.2,782.4H32.8H767.2z"/>
<circle fill="#FFFFFF" cx="541.1" cy="335.7" r="99.5"/>
<circle fill="#FFFFFF" cx="258.9" cy="335.7" r="99.5"/>
<path fill="#F5F8FA" d="M640.7,572.4c0,15.1-6.1,28.8-16.1,38.7c-7.3,7.2-16.4,12.4-26.8,14.8c-3.9,0.9-7.8,1.3-12,1.3H214.2
	c-3.9,0-7.6-0.4-11.3-1.2c-24.9-5.2-43.6-27.2-43.6-53.6c0-15.2,6.1-28.8,16.1-38.8c7.4-7.4,16.9-12.7,27.5-14.9
	c3.6-0.8,7.4-1.2,11.3-1.2h371.6c4.1,0,8.1,0.4,12,1.3C622.3,524.3,640.7,546.2,640.7,572.4z"/>
<g id="eye_pupils">
	<path fill="#DD2E44" d="M541.1,409.7L541.1,409.7c-17.9,0-32.4-14.5-32.4-32.4v-83c0-17.9,14.5-32.4,32.4-32.4l0,0
		c17.9,0,32.4,14.5,32.4,32.4v83C573.6,395.2,559,409.7,541.1,409.7z"/>
	<path fill="#DD2E44" d="M258.9,409.7L258.9,409.7c-17.9,0-32.4-14.5-32.4-32.4v-83c0-17.9,14.5-32.4,32.4-32.4l0,0
		c17.9,0,32.4,14.5,32.4,32.4v83C291.3,395.2,276.8,409.7,258.9,409.7z"/>
</g>
<g>
	<defs>
		<path id="SVGID_1_" d="M640.7,572.4c0,15.1-6.1,28.8-16.1,38.7c-7.3,7.2-16.4,12.4-26.8,14.8c-3.9,0.9-7.8,1.3-12,1.3H214.2
			c-3.9,0-7.6-0.4-11.3-1.2c-24.9-5.2-43.6-27.2-43.6-53.6c0-15.2,6.1-28.8,16.1-38.8c7.4-7.4,16.9-12.7,27.5-14.9
			c3.6-0.8,7.4-1.2,11.3-1.2h371.6c4.1,0,8.1,0.4,12,1.3C622.3,524.3,640.7,546.2,640.7,572.4z"/>
	</defs>
	<clipPath id="SVGID_2_">
		<use xlink:href="#SVGID_1_"  overflow="visible"/>
	</clipPath>
	<g id="teeth" clip-path="url(#SVGID_2_)">
		<rect x="597.5" y="517.6" fill="#CCD6DD" width="43.6" height="109.6"/>
		<rect x="488.1" y="517.6" fill="#CCD6DD" width="43.6" height="109.6"/>
		<rect x="706.8" y="517.6" fill="#CCD6DD" width="43.6" height="109.6"/>
		<rect x="378.2" y="517.6" fill="#CCD6DD" width="43.6" height="109.6"/>
		<rect x="268.3" y="517.6" fill="#CCD6DD" width="43.6" height="109.6"/>
		<rect x="158.4" y="517.6" fill="#CCD6DD" width="43.6" height="109.6"/>
		<rect x="48.5" y="517.6" fill="#CCD6DD" width="43.6" height="109.6"/>
	</g>
</g>
<g>
	<path fill="#FFFFFF" d="M119.6,907.2h15v77.2h40.3l-1.7,12.6h-53.6V907.2z"/>
	<path fill="#FFFFFF" d="M227.6,998.7c-22.5,0-34.1-18.2-34.1-46.5c0-27.7,11.6-46.8,34.1-46.8s34.1,18.5,34.1,46.7
		C261.7,979.8,250.1,998.7,227.6,998.7z M227.6,917.3c-13.3,0-18.6,11.7-18.6,35c0,23.2,5.7,34.7,18.6,34.7
		c13.3,0,18.6-11.7,18.6-34.9S240.9,917.3,227.6,917.3z"/>
	<path fill="#FFFFFF" d="M295.9,975.4l-6.2,21.6h-15.5l28.6-89.8h18.7l28.6,89.8h-16l-6.2-21.6H295.9z M324.8,963.7L311.9,919
		L299,963.7H324.8z"/>
	<path fill="#FFFFFF" d="M388.9,997h-22v-89.8h20.6c21.9,0,43.2,7.2,43.2,44.4C430.7,989,409,997,388.9,997z M390.4,918.8H382v66.7
		h8.5c12.5,0,24.3-6.5,24.3-34C414.8,923.1,402.3,918.8,390.4,918.8z"/>
	<path fill="#FFFFFF" d="M508.4,918.7h-19.5v66.7h19.5V997h-54.1v-11.6h19.5v-66.7h-19.5v-11.5h54.1V918.7z"/>
	<path fill="#FFFFFF" d="M547.4,920.6c0.5,5.3,2.1,21.1,2.1,35.7V997h-13.4v-89.8h19.6l28.6,76.4c-0.5-5.3-2.1-19.3-2.1-35.5v-40.9
		h13.4V997H576L547.4,920.6z"/>
	<path fill="#FFFFFF" d="M616.2,952c0-30.8,18.2-46.6,39.2-46.6c12.2,0,19.6,3.8,26.7,10.4l-8.5,8.7c-5.5-4.9-10.8-7.3-17.8-7.3
		c-12.6,0-23.8,9.1-23.8,34.7c0,25.1,7.3,35,21.5,35c5.5,0,10.5-1.3,14.8-3.8v-24.7h-15.2l-1.6-11.6H683v43.6
		c-8.5,4.8-17.7,8.2-30.2,8.2C629.9,998.7,616.2,983,616.2,952z"/>
</g>
</svg>
