<svg version="1.1" xmlns="http://www.w3.org/2000/svg" xmlns:xlink="http://www.w3.org/1999/xlink" x="0px" y="0px"
     id="roll" viewBox="0 0 800 800" enable-background="new 0 0 800 800" xml:space="preserve"> 
        <path id="path22_24_" fill="#CCD6DD" d="M525.7,150.2c0,68.8-55.8,124.7-124.7,124.7s-124.7-55.8-124.7-124.7S332.2,25.6,401,25.6
          S525.7,81.4,525.7,150.2"/>
        <polygon fill="#DD2E44" points="546.4,297 546.4,389.5 311.5,274.9 501.1,274.9   "/>
        <polygon fill="#DD2E44" points="546.4,666.8 546.4,711.2 447.7,711.2 255.6,617.4 255.6,524.9   "/>
        <polygon fill="#FFFFFF" points="546.4,389.4 546.4,481.9 255.6,340 255.6,274.9 311.5,274.9   "/>
        <polygon fill="#FFFFFF" points="546.4,574.4 546.4,666.8 255.6,524.9 255.6,432.4   "/>
        <polygon fill="#FFFFFF" points="447.7,711.2 258.2,711.2 255.6,709.8 255.6,617.4   "/>
        <polygon fill="#55ACEE" points="546.4,481.9 546.4,574.4 255.6,432.4 255.6,340   "/>
        <path id="path68_7_" fill="#99AAB5" d="M588,254.2c0,22.9-18.6,41.6-41.6,41.6H255.5c-22.9,0-41.6-18.6-41.6-41.6
          c0-22.9,18.6-41.6,41.6-41.6h290.9C569.4,212.6,588,231.2,588,254.2"/>
        <path id="path72_7_" fill="#99AAB5" d="M588,731.9c0,22.9-18.6,41.6-41.6,41.6H255.5c-22.9,0-41.6-18.6-41.6-41.6
          c0-22.9,18.6-41.6,41.6-41.6h290.9C569.4,690.4,588,709,588,731.9"/>
</svg>
