<?xml version="1.0" encoding="utf-8"?>
<!-- Generator: Adobe Illustrator 18.0.0, SVG Export Plug-In . SVG Version: 6.00 Build 0)  -->
<!DOCTYPE svg PUBLIC "-//W3C//DTD SVG 1.1//EN" "http://www.w3.org/Graphics/SVG/1.1/DTD/svg11.dtd">
<svg version="1.1" id="s4" xmlns="http://www.w3.org/2000/svg" xmlns:xlink="http://www.w3.org/1999/xlink" x="0px" y="0px"
	 width="393.1px" height="700px" viewBox="0 0 393.1 700" enable-background="new 0 0 393.1 700" xml:space="preserve">
<polyline fill="#283344" points="0,700 0,0 393.1,0 393.1,700 "/>
<path id="bubble" fill="#005189" d="M338.9,269.4h-285c-9.6,0-17.5-7.9-17.5-17.5V111c0-9.6,7.9-17.5,17.5-17.5H339
	c9.6,0,17.5,7.9,17.5,17.5v140.6C356.4,261.6,348.5,269.4,338.9,269.4z"/>
<g id="g0">
	<g>
		<path fill="#FFFFFF" d="M78.5,138.3H65v18.6h-6.8V116H65v16.7h13.4V116h6.8v40.9h-6.8L78.5,138.3L78.5,138.3z"/>
	</g>
	<g>
		<path fill="#FFFFFF" d="M121.2,153.1l-1.4,4.5c-3-0.4-5.4-1.6-6.4-4.3c-2.2,2.9-5.9,4.3-10,4.3c-6.4,0-10.4-3.9-10.4-9.7
			c0-6.6,5.4-10.4,15-10.4h4.5v-1.8c0-4.1-2.5-5.8-7-5.8c-2.1,0-5.1,0.4-8.3,1.6l-1.6-4.7c3.9-1.4,7.7-2.2,11-2.2
			c8.4,0,12.5,3.9,12.5,10.5v14C118.8,151.8,119.5,152.7,121.2,153.1z M112.2,148.8v-7h-3.7c-6.2,0-8.7,2.2-8.7,5.9
			c0,3.3,1.8,5.1,5.2,5.1C107.9,152.7,110.7,151.3,112.2,148.8z"/>
	</g>
	<g>
		<path fill="#FFFFFF" d="M146.9,156.9h-7.7L128,125.7h7.2l7.9,25.8l8-25.8h6.8L146.9,156.9z"/>
	</g>
	<g>
		<path fill="#FFFFFF" d="M180.1,152.6c3,0,5.6-0.9,8.3-2.8l2.9,4.1c-2.9,2.4-7,3.9-11.3,3.9c-9.7,0-15.1-6.7-15.1-16.4
			c0-9.4,5.4-16.5,14.3-16.5c8.3,0,13.5,5.9,13.5,15.7c0,1.1-0.1,2.2-0.3,3h-20.7C171.9,149.8,175.6,152.6,180.1,152.6z M171.5,139
			h14.6c-0.1-5.9-2.5-9.2-7-9.2C174.8,129.8,171.9,132.7,171.5,139z"/>
	</g>
	<g>
		<path fill="#FFFFFF" d="M263.5,153.1l-1.4,4.5c-3-0.4-5.4-1.6-6.4-4.3c-2.2,2.9-5.9,4.3-10,4.3c-6.4,0-10.4-3.9-10.4-9.7
			c0-6.6,5.4-10.4,15-10.4h4.5v-1.8c0-4.1-2.5-5.8-7-5.8c-2.1,0-5.1,0.4-8.3,1.6l-1.6-4.7c3.9-1.4,7.7-2.2,11-2.2
			c8.4,0,12.5,3.9,12.5,10.5v14C261.1,151.8,261.9,152.7,263.5,153.1z M254.6,148.8v-7h-3.7c-6.2,0-8.7,2.2-8.7,5.9
			c0,3.3,1.8,5.1,5.2,5.1C250.2,152.7,253,151.3,254.6,148.8z"/>
	</g>
	<g>
		<path fill="#FFFFFF" d="M59.4,196.8h5.8l0.4,4.1c2.6-3.1,6.3-5,10.2-5c5.9,0,8.7,3.4,8.7,9.3V228h-6.7v-19.5
			c0-5.5-0.7-7.6-4.5-7.6c-3.1,0-5.8,2.2-7.3,4.6v22.4h-6.7L59.4,196.8z"/>
	</g>
	<g>
		<path fill="#FFFFFF" d="M112,223.3h8.7v4.9H96v-4.9h9.3v-21.5h-9.1v-4.9H112L112,223.3L112,223.3z M111.7,185.7
			c0,2.4-1.8,4.1-4.3,4.1c-2.6,0-4.3-1.8-4.3-4.1c0-2.2,1.7-4.2,4.3-4.2S111.7,183.3,111.7,185.7z"/>
	</g>
	<g>
		<path fill="#FFFFFF" d="M153.3,220.8l3,4.2c-2.8,2.2-6.8,3.9-11,3.9c-9.6,0-15.2-6.4-15.2-16.3c0-9.6,5.8-16.7,15.3-16.7
			c4.2,0,7.7,1.3,10.9,3.8l-3.1,4.1c-2.4-1.6-5-2.6-7.7-2.6c-5,0-8.4,3.5-8.4,11.3s3.5,10.8,8.4,10.8
			C148.4,223.4,151.1,222.4,153.3,220.8z"/>
	</g>
	<g>
		<path fill="#FFFFFF" d="M180.1,223.7c3,0,5.6-0.9,8.3-2.8l2.9,4.1c-2.9,2.4-7,3.9-11.3,3.9c-9.7,0-15.1-6.7-15.1-16.4
			c0-9.4,5.4-16.5,14.3-16.5c8.3,0,13.5,5.9,13.5,15.7c0,1-0.1,2.2-0.3,3h-20.7C171.9,220.9,175.6,223.7,180.1,223.7z M171.5,210.1
			h14.6c-0.1-5.9-2.5-9.2-7-9.2C174.8,200.9,171.9,203.8,171.5,210.1z"/>
	</g>
	<g>
		<path fill="#FFFFFF" d="M262.3,184.3v43.9h-5.9l-0.4-3.9c-2.1,3-5.1,4.6-8.8,4.6c-8,0-11.8-6.6-11.8-16.4
			c0-9.6,4.7-16.5,12.3-16.5c3.1,0,5.9,1.2,7.9,3.4v-15.9L262.3,184.3z M242.4,212.5c0,8,2.4,11.3,6.6,11.3c3,0,5.1-2.1,6.7-4.5
			v-14.8c-1.4-2.2-3.7-3.5-6.2-3.5C245,201.1,242.4,204.7,242.4,212.5z"/>
	</g>
	<g>
		<path fill="#FFFFFF" d="M299.2,224.4l-1.4,4.5c-3-0.4-5.4-1.6-6.4-4.3c-2.2,2.9-5.9,4.3-10,4.3c-6.4,0-10.4-3.9-10.4-9.7
			c0-6.6,5.4-10.4,15-10.4h4.5v-2.1c0-4.1-2.5-5.8-7-5.8c-2.1,0-5.1,0.4-8.3,1.6l-1.6-4.7c3.9-1.4,7.7-2.2,11-2.2
			c8.4,0,12.5,3.9,12.5,10.5v14.2C296.8,222.9,297.5,223.8,299.2,224.4z M290.1,220v-7h-3.7c-6.2,0-8.7,2.2-8.7,5.9
			c0,3.3,1.8,5.1,5.2,5.1C285.9,224.1,288.7,222.5,290.1,220z"/>
	</g>
	<g>
		<path fill="#FFFFFF" d="M325,228.3c-2.4,7.1-6.6,11.9-15.4,12.7l-0.8-5c6.3-1,8.4-3.3,10-7.7h-2.2l-10.5-31.2h7.1l7.9,26.8l8-26.8
			h6.8L325,228.3z"/>
	</g>
</g>
<g id="g1">
	<g id="g10_150_" transform="matrix(1.25,0,0,-1.25,0,47.5)">
		<g id="g12_175_">
			<g>
				<g>
					<g>
						<g id="g14_177_">
							<g id="g20_161_" transform="translate(34.7988,36.9946)">
								<path id="path22_161_" fill="#99AAB5" d="M235.2-157.7c-0.3,0.2-6-3-7.4-6.8c-0.9-2.2-1.3-4.6-1.3-6
									c-1.1,0.6-2.2,0.9-3.3,0.9c-1.1,0-2-0.3-3.3-0.9c0,1.6-0.3,3.8-1.3,6c-1.4,3.8-7.1,7.1-7.4,6.8c-0.3-0.2,3.3-12.1,5.2-15.8
									c-1.7-1.9-3.3-4.4-3.3-6.8s1.3-3.8,3-4.4c1.9-0.6,3.8,0.6,6.8,0.6c3,0,4.9-1.4,6.8-0.6c1.7,0.6,3,2.1,3,4.4
									s-1.4,4.7-3.3,6.8C231.9-170,235.5-158,235.2-157.7"/>
							</g>
							<g id="g24_152_" transform="translate(13.6919,19.0781)">
								<path id="path26_152_" fill="#F4ABBA" d="M240.4-153.5c-0.2,1.1-0.5,2.7-1.1,4.1c-1.1,3-4.4,5.5-4.6,5.5
									c-0.3-0.2,1.9-7.7,3.6-11.2C238.8-154.3,239.6-154,240.4-153.5"/>
							</g>
							<g id="g28_110_" transform="translate(27.0303,16.9063)">
								<path id="path30_105_" fill="#F4ABBA" d="M237-152.9c1.6,3.5,3.8,11.2,3.6,11.2c-0.3,0.2-3.3-2.4-4.6-5.5
									c-0.6-1.6-0.9-3-1.1-4.1C235.6-151.8,236.4-152.1,237-152.9"/>
							</g>
							<g id="g32_87_" transform="translate(26,7)">
								<path id="path34_84_" fill="#CCD6DD" d="M237.2-150.4c0-2-2.4-3.8-5.2-3.8c-2.8,0-5.2,1.7-5.2,3.8c0,2,2.4,3.8,5.2,3.8
									C235-146.6,237.2-148.3,237.2-150.4"/>
							</g>
							<g id="g36_78_" transform="translate(22,6.4219)">
								<path id="path38_78_" fill="#FFFFFF" d="M238.2-150.3c0-2-0.2-2.2-2.2-2.2c-2,0-2.2,0.2-2.2,2.2
									C233.8-149.5,238.2-149.5,238.2-150.3"/>
							</g>
							<g id="g40_80_" transform="translate(15,12.6719)">
								<path id="path42_78_" fill="#292F33" d="M239.9-151.9c0-0.6-0.5-1.1-1.1-1.1c-0.6,0-1.1,0.5-1.1,1.1c0,0.6,0.5,1.1,1.1,1.1
									C239.4-150.8,239.9-151.2,239.9-151.9"/>
							</g>
							<g id="g44_62_" transform="translate(26,12.6719)">
								<path id="path46_62_" fill="#292F33" d="M237.2-151.9c0-0.6-0.5-1.1-1.1-1.1c-0.6,0-1.1,0.5-1.1,1.1c0,0.6,0.5,1.1,1.1,1.1
									C236.7-150.8,237.2-151.2,237.2-151.9"/>
							</g>
							<g id="g48_51_" transform="translate(22,11.1719)">
								<path id="path50_51_" fill="#F4ABBA" d="M238.2-151.5c0-1.3-1.4-2.2-2.2-2.2c-0.8,0-2.2,0.9-2.2,2.2
									C233.8-150.2,238.2-150.2,238.2-151.5"/>
							</g>
						</g>
					</g>
				</g>
			</g>
		</g>
	</g>
	<g id="g10_1_" transform="matrix(1.25,0,0,-1.25,0,47.5)">
		<g id="g12_1_">
			<g>
				<g>
					<g>
						<g id="g14_1_">
							<g id="g20_1_" transform="translate(36,19)">
								<path id="path22_1_" fill="#FFCC4D" d="M206.5-152c0-7.2-5.7-13-13-13c-7.3,0-13,5.7-13,13s5.7,13,13,13
									C200.7-139.1,206.5-145,206.5-152"/>
							</g>
							<g id="g24_1_" transform="translate(29.457,19.2031)">
								<path id="path26_1_" fill="#664500" d="M208-152.1c0,0.2-1.1,2.5-3.3,2.5c-2.2,0-3.3-2.4-3.3-2.5s0-0.3,0.2-0.5
									c0.2-0.2,0.3-0.2,0.5,0c0,0,1,0.6,2.9,0.6c1.9,0,2.7-0.6,2.9-0.6h0.2c0.2,0,0.2,0,0.2,0.2C208-152.4,208-152.2,208-152.1"/>
							</g>
							<g id="g28_1_" transform="translate(17.457,19.2031)">
								<path id="path30_1_" fill="#664500" d="M210.8-152.1c0,0.2-1.1,2.5-3.3,2.5s-3.3-2.4-3.3-2.5s0-0.3,0.2-0.5
									c0.2-0.2,0.3-0.2,0.5,0c0,0,1,0.6,2.9,0.6c1.9,0,2.7-0.6,2.9-0.6h0.2c0.2,0,0.2,0,0.2,0.2
									C210.8-152.4,210.9-152.2,210.8-152.1"/>
							</g>
							<g id="g32_1_" transform="translate(32,20.9995)">
								<path id="path34_1_" fill="#664500" d="M207.4-152.6c-0.3,0-0.6,0.2-0.6,0.5c-1.3,3.3-4.8,4.1-4.8,4.1
									c-0.5,0.2-0.6,0.5-0.6,1c0.2,0.5,0.5,0.6,1,0.6c0.2,0,4.1-1,5.9-4.9c0.2-0.3,0-0.8-0.5-1
									C207.6-152.6,207.6-152.6,207.4-152.6"/>
							</g>
							<g id="g36_1_" transform="translate(5.9995,20.9995)">
								<path id="path38_1_" fill="#664500" d="M213.6-152.6c-0.2,0-0.2,0-0.3,0c-0.3,0.2-0.6,0.6-0.5,1c1.6,4.1,5.7,4.9,5.9,4.9
									c0.5,0.2,0.8-0.2,1-0.6c0.2-0.5-0.2-0.8-0.6-1c-0.2,0-3.3-0.8-4.8-4.1C214.2-152.4,213.9-152.6,213.6-152.6"/>
							</g>
							<g id="g40_1_" transform="translate(19,15)">
								<path id="path42_1_" fill="#664500" d="M210.4-151c-2.7,0-4.6,0.3-6.8,0.8c-0.5,0.2-1.4,0-1.4-1.4c0-3,3.5-6.8,8.3-6.8
									c4.8,0,8.3,3.8,8.3,6.8c0,1.4-1,1.6-1.4,1.4C215-150.7,213.1-151,210.4-151"/>
							</g>
							<g id="g44_2_" transform="translate(10,14)">
								<path id="path46_2_" fill="#FFFFFF" d="M212.7-150.8c0,0,2.2-0.8,6.8-0.8c4.5,0,6.8,0.8,6.8,0.8s-1.4-3-6.8-3
									C214-154,212.7-150.8,212.7-150.8"/>
							</g>
							<g id="g48_2_" transform="translate(11.8472,8.7705)">
								<path id="path50_2_" fill="#5DADEC" d="M212.2-149.5c-0.5-2.1-2.5-3.3-4.6-2.7c-2.1,0.5-3.3,2.5-2.7,4.6
									c0.6,2.1,4.8,6.7,5.6,6.4C211.1-141.5,212.7-147.6,212.2-149.5"/>
							</g>
							<g id="g52_1_" transform="translate(26.1328,8.7705)">
								<path id="path54_1_" fill="#5DADEC" d="M208.8-149.5c0.5-2.1,2.5-3.3,4.6-2.7c2.1,0.5,3.3,2.5,2.7,4.6
									c-0.6,2.1-4.8,6.7-5.6,6.4C209.9-141.5,208.3-147.6,208.8-149.5"/>
							</g>
						</g>
					</g>
				</g>
			</g>
		</g>
	</g>
	<g id="g10_156_" transform="matrix(1.25,0,0,-1.25,0,47.5)">
		<g id="g12_180_">
			<g>
				<g>
					<g>
						<g id="g14_182_">
							<g id="g20_170_" transform="translate(2.7266,14.7012)">
								<path id="path22_170_" fill="#FFAC33" d="M185.3-150.1c0,0-0.9,0.9,0,1.9c0.9,0.9,1.9,0,1.9,0l4.5-4.2l0.3,0.6l-6.2,5.9
									c0,0-0.9,0.9,0,1.9s1.9,0,1.9,0l5.9-5.3l0.4,0.4l-7,6.2c0,0-0.9,0.9,0,1.9c0.9,0.9,1.9,0,1.9,0l7-6.2l0.4,0.4l-6.4,5.9
									c0,0-0.9,0.9,0,1.9c0.9,0.9,1.9,0,1.9,0s4.9-4.3,6.7-6.2c1.9-1.8,2.4-1.3,2.4-1.3l-1.8,1.6l-2.1,1.9c0,0-0.9,0.9,0,1.9
									c0.9,0.9,1.9,0,1.9,0l5.3-4.9c3.3-3.1,3.4-8,0.4-11.3c-3.1-3.3-8-3.4-11.3-0.4c-0.1,0.1-0.4,0.4-0.4,0.4l0,0L185.3-150.1z"
									/>
							</g>
							<g id="g24_157_" transform="translate(5.627,16.6504)">
								<path id="path26_157_" fill="#FFDC5D" d="M184.5-150.5c0,0-0.9,0.9,0,1.9s1.9,0,1.9,0l4.5-4.2l0.3,0.6l-6.2,5.9
									c0,0-0.9,0.9,0,1.9c0.9,0.9,1.9,0,1.9,0l5.9-5.3l0.4,0.4l-7,6.2c0,0-0.9,0.9,0,1.9c0.9,1,1.9,0,1.9,0l7-6.2l0.4,0.4
									l-6.4,5.9c0,0-0.9,0.9,0,1.9c0.9,0.9,1.9,0,1.9,0s4.9-4.3,6.7-6.2c1.9-1.8,2.4-1.3,2.4-1.3l-1.8,1.6l-2.1,1.9
									c0,0-0.9,0.9,0,1.9c0.9,0.9,1.9,0,1.9,0l5.3-4.9c3.3-3.1,3.4-8,0.4-11.3c-3.1-3.3-8-3.4-11.3-0.4c-0.1,0.1-0.4,0.4-0.4,0.4
									l0,0L184.5-150.5z"/>
							</g>
							<g id="g28_115_" transform="translate(25.541,30.5415)">
								<path id="path30_109_" fill="#FFAC33" d="M178.3-154.9c-0.1,0-0.3,0-0.4,0.1c-0.3,0.3-0.3,0.7-0.1,1l2.1,2.7
									c0.3,0.3,0.6,0.3,1,0.1c0.3-0.3,0.3-0.6,0.1-1l-2.1-2.7C178.9-154.8,178.6-154.9,178.3-154.9"/>
							</g>
							<g id="g32_91_" transform="translate(20,30)">
								<path id="path34_88_" fill="#FFAC33" d="M180-154.7c-0.4,0-0.7,0.3-0.7,0.7v3.4c0,0.4,0.3,0.7,0.7,0.7s0.7-0.3,0.7-0.7v-3.4
									C180.8-154.4,180.5-154.7,180-154.7"/>
							</g>
							<g id="g36_82_" transform="translate(29.417,27.333)">
								<path id="path38_82_" fill="#FFAC33" d="M177.2-153.8c-0.3,0-0.6,0.1-0.6,0.4c-0.1,0.3,0,0.7,0.4,0.9l3.1,1.2
									c0.3,0.1,0.7,0,0.9-0.4c0.1-0.3,0-0.7-0.4-0.9l-3.1-1.2L177.2-153.8"/>
							</g>
						</g>
					</g>
				</g>
			</g>
		</g>
	</g>
	<g id="g10_4_" transform="matrix(1.25,0,0,-1.25,0,47.5)">
		<g id="g12_7_">
			<g>
				<g>
					<g>
						<g id="g14_7_">
							<g id="g20_7_" transform="translate(27,28.0005)">
								<path id="path22_4_" fill="#292F33" d="M123.4-154.3c-2.6,0-4.7,1.2-5.9,3.6c-1.2-2.3-2.9-3.6-5.1-3.6
									c-0.5,0-0.8,0.3-0.8,0.8c0,0.5,0.3,0.8,0.8,0.8c2,0,3.6,1.4,4.5,4.3c0.2,0.3,0.3,0.5,0.8,0.5c0.5,0,0.6-0.2,0.8-0.5
									c0.9-2.9,2.6-4.3,5.1-4.3c0.5,0,0.8-0.3,0.8-0.8C124.2-154,123.9-154.3,123.4-154.3"/>
							</g>
							<g id="g24_7_" transform="translate(15.604,27.3462)">
								<path id="path26_4_" fill="#FFAC33" d="M126.3-154.1c2.5-2.5,0.3-4.3-2.2-7c-2.5-2.5-4.3-4.7-7-2.2c-2.5,2.5-2.5,6.5,0,9.2
									C119.6-151.4,123.8-151.4,126.3-154.1"/>
							</g>
							<g id="g28_6_" transform="translate(16.4351,26.0278)">
								<path id="path30_6_" fill="#BE1931" d="M126-153.7c1.2-1.2,0.2-4-2.2-6.5c-2.3-2.3-5.4-3.4-6.5-2.2c-1.2,1.2-0.2,4,2.2,6.5
									C122-153.5,124.9-152.6,126-153.7"/>
							</g>
							<g id="g32_4_" transform="translate(22.2988,27.3462)">
								<path id="path34_4_" fill="#FFAC33" d="M124.6-154.1c-2.5-2.5-0.3-4.3,2.2-7c2.5-2.5,4.3-4.7,7-2.2c2.5,2.5,2.5,6.5,0,9.2
									C131.1-151.4,127.2-151.4,124.6-154.1"/>
							</g>
							<g id="g36_4_" transform="translate(21.4688,26.0278)">
								<path id="path38_4_" fill="#BE1931" d="M124.7-153.7c-1.2-1.2-0.2-4,2.2-6.5c2.3-2.3,5.4-3.4,6.5-2.2c1.2,1.2,0.2,4-2.2,6.5
									C128.8-153.5,125.8-152.6,124.7-153.7"/>
							</g>
							<g id="g40_6_" transform="translate(23.4102,18.7793)">
								<path id="path42_6_" fill="#AA8DD8" d="M124.3-152c0.2,0.2,0.3,0.2,0.5,0.2c0.6,0,1.2-0.3,1.6-0.6c0.5-0.3,0.6-0.9,0.5-1.4
									c-0.2-0.9-0.9-1.7-2.5-1.6c-0.6,0-0.8-0.2-0.8-0.2c0-0.2,0.2-0.3,0.8-0.5c0.6,0,1.2-0.3,1.6-0.6c0.5-0.3,0.6-0.9,0.5-1.4
									c-0.2-0.9-0.9-1.7-2.5-1.6c-0.5,0-0.6,0-0.8-0.2l-0.2-0.2c0-0.2,0.2-0.3,0.8-0.5c0.5,0,0.6-0.5,0.6-0.8
									c0-0.5-0.5-0.6-0.8-0.6c-1.6,0.2-2.2,1.1-2,2c0.2,0.9,0.9,1.7,2.5,1.6c0.5,0,0.6,0,0.8,0.2l0.2,0.2c0,0.2-0.2,0.3-0.8,0.5
									c-1.6,0.2-2.2,1.1-2,2c0.2,0.9,0.9,1.7,2.5,1.6c0.5,0,0.6,0,0.8,0.2l0.2,0.2c0,0.2-0.2,0.3-0.8,0.5c-0.5,0-0.6,0.5-0.6,0.8
									C124.1-152.1,124.3-152,124.3-152"/>
							</g>
							<g id="g44_5_" transform="translate(16.2661,1.0146)">
								<path id="path46_5_" fill="#77B255" d="M126.1-147.3c-1.4-0.5-2.5,0.3-2.6,1.1c-0.3,0.8,0.3,1.9,1.7,2.3
									c0.6,0.2,0.8,0.5,0.8,0.5c0,0.2-0.3,0.2-0.9,0c-1.4-0.5-2.5,0.3-2.6,1.1c-0.3,0.8,0.3,1.9,1.7,2.3c0.6,0.2,0.8,0.5,0.8,0.5
									c0,0.2-0.3,0.2-0.9,0c-0.5-0.2-0.8,0.2-0.9,0.5c-0.2,0.5,0.2,0.8,0.5,0.9c1.4,0.5,2.5-0.3,2.6-1.1c0.3-0.8-0.3-1.9-1.7-2.3
									c-0.6-0.2-0.8-0.5-0.8-0.5c0-0.2,0.3-0.2,0.9,0c1.4,0.5,2.5-0.3,2.6-1.1c0.3-0.8-0.3-1.9-1.7-2.3c-0.6-0.2-0.8-0.5-0.8-0.5
									c0-0.2,0.3-0.2,0.9,0c0.5,0.2,0.8-0.2,0.9-0.5C126.7-146.9,126.5-147.2,126.1-147.3"/>
							</g>
							<g id="g48_5_" transform="translate(2,9.5)">
								<path id="path50_5_" fill="#5C913B" d="M129.8-149.3c0,0.6,0.5,1.1,1.1,1.1s1.1-0.5,1.1-1.1s-0.5-1.1-1.1-1.1
									C130.3-150.7,129.8-150.1,129.8-149.3"/>
							</g>
							<g id="g52_4_" transform="translate(6,6)">
								<path id="path54_4_" fill="#9266CC" d="M128.8-148.6c0,0.8,0.6,1.4,1.4,1.4c0.8,0,1.4-0.6,1.4-1.4c0-0.8-0.6-1.4-1.4-1.4
									C129.2-150.2,128.8-149.4,128.8-148.6"/>
							</g>
							<g id="g56_2_" transform="translate(29,10)">
								<path id="path58_2_" fill="#9266CC" d="M122.7-149.7c0,0.8,0.6,1.4,1.4,1.4s1.4-0.6,1.4-1.4s-0.6-1.4-1.4-1.4
									C123.6-151.2,122.7-150.4,122.7-149.7"/>
							</g>
							<g id="g60_2_" transform="translate(25,5.5)">
								<path id="path62_2_" fill="#5C913B" d="M123.7-148.4c0,0.6,0.5,1.1,1.1,1.1s1.1-0.5,1.1-1.1s-0.5-1.1-1.1-1.1
									C124.5-149.7,123.7-149,123.7-148.4"/>
							</g>
							<g id="g64_2_" transform="translate(17,17.5)">
								<path id="path66_2_" fill="#5C913B" d="M125.8-151.4c0,0.6,0.5,1.1,1.1,1.1s1.1-0.5,1.1-1.1s-0.5-1.1-1.1-1.1
									S125.8-152,125.8-151.4"/>
							</g>
							<g id="g68_2_" transform="translate(6,14)">
								<path id="path70_2_" fill="#FFCC4D" d="M128.8-150.6c0,0.8,0.6,1.4,1.4,1.4c0.8,0,1.4-0.6,1.4-1.4c0-0.8-0.6-1.4-1.4-1.4
									C129.2-152.3,128.8-151.5,128.8-150.6"/>
							</g>
							<g id="g72_2_" transform="translate(27,20.5)">
								<path id="path74_2_" fill="#FFCC4D" d="M123.4-152.2c0,0.6,0.5,1.1,1.1,1.1c0.6,0,1.1-0.5,1.1-1.1s-0.5-1.1-1.1-1.1
									S123.4-152.9,123.4-152.2"/>
							</g>
							<g id="g76_2_" transform="translate(12,22.5)">
								<path id="path78_2_" fill="#FFCC4D" d="M127.3-152.9c0,0.6,0.5,1.1,1.1,1.1s1.1-0.5,1.1-1.1s-0.5-1.1-1.1-1.1
									C127.7-153.9,127.3-153.5,127.3-152.9"/>
							</g>
						</g>
					</g>
				</g>
			</g>
		</g>
	</g>
	<g id="g10_149_" transform="matrix(1.25,0,0,-1.25,0,47.5)">
		<g id="g12_174_">
			<g>
				<g>
					<g>
						<g id="g14_176_">
							<g id="g20_160_" transform="translate(23.4941,31.6558)">
								<path id="path22_160_" fill="#DD2E44" d="M94.1-153.6c-0.4,0-0.9,0-1.3-0.1c-0.6,0-1.9,0.1-2.5,0.1c-6,0-11.3-2.2-11.3-10.3
									c0-6.4,4.9-11.6,12.2-11.6c7,0,12.8,5.2,12.8,11.6C103.8-155.7,97.2-153.6,94.1-153.6"/>
							</g>
							<g id="g24_151_" transform="translate(9.439,36.9087)">
								<path id="path26_151_" fill="#77B255" d="M98.1-155.1c1.2-1.2,1.9-1.6,2.4-3.4c0.1-1,1.6-1,1.6-1s-2.8-1.2-3.9-2.4
									c0,0,3.4,1.2,4.6,1.2c0,0,2.4-1.2,2.4-2.4c0,0,0,2.4-1.2,2.4c0,0,3.4,0,3.4-2.4c0,0,0,3.4-1.2,3.4c0,0,3.4,1.2,4.6,0
									c0,0-1.2,1.2-3.4,1.2c0,0,1.2,1.2,3.4,1.2c0,0-3.7,1-4.9-1.2c0,0-1,1,1,3.1c0,0-3.1-0.6-3.1-2.8c0,0-1,0-1.9,0.9
									C100.6-156,98.1-155.1,98.1-155.1"/>
							</g>
						</g>
					</g>
				</g>
			</g>
		</g>
	</g>
	<g id="g10_159_" transform="matrix(1.25,0,0,-1.25,0,47.5)">
		<g id="g12_183_">
			<g>
				<g>
					<g>
						<g id="g14_185_">
							<g id="g20_173_" transform="translate(35.751,15)">
								<path id="path22_173_" fill="#77B255" d="M63-149.1c-2.5,0-9-2.7-12-5.5v9.4c0,0.5-0.3,0.8-0.8,0.8c-0.5,0-0.8-0.3-0.8-0.8
									v-9.4c-2.9,2.7-9.4,5.5-12.2,5.5c-0.6,0,8.2-10.5,12.2-9.7v-0.3c0-0.5,0.3-0.8,0.8-0.8c0.5,0,0.8,0.3,0.8,0.8v0.3
									C55-159.6,63.7-149.1,63-149.1"/>
							</g>
							<g id="g24_160_" transform="translate(26,23.5835)">
								<path id="path26_160_" fill="#EA596E" d="M65.4-151c0-4.8-1.3-7.1-5.2-7.1c-4,0-5.2,2.4-5.2,7.1c0,4.8,3.8,10.1,5.2,10.1
									C61.5-140.9,65.4-146.4,65.4-151"/>
							</g>
							<g id="g28_118_" transform="translate(23.7949,35)">
								<path id="path30_111_" fill="#F4ABBA" d="M65.9-153.9c-0.3,0-3-10.9-3.6-14.6c-0.6,3.8-3.3,14.6-3.8,14.6
									c-0.8,0-4.4-6.8-4.4-10s4.4-6,8.2-6c3.8,0,8.2,3,8.2,6C70.5-160.8,66.8-153.9,65.9-153.9"/>
							</g>
						</g>
					</g>
				</g>
			</g>
		</g>
	</g>
	<g id="g10_153_" transform="matrix(1.25,0,0,-1.25,0,47.5)">
		<g id="g12_177_">
			<g>
				<g>
					<g>
						<g id="g14_179_">
							<g id="g20_163_" transform="translate(36,19)">
								<path id="path22_163_" fill="#FDCB58" d="M33.6-150.9c0-6.5-5.2-11.9-11.9-11.9c-6.5,0-11.8,5.2-11.8,11.9
									c0,6.6,5.2,11.9,11.8,11.9C28.4-139.2,33.6-144.6,33.6-150.9"/>
							</g>
							<g id="g24_154_" transform="translate(7,24)">
								<path id="path26_154_" fill="#664500" d="M42.5-152.3c-0.4,0-0.7,0.3-0.7,0.7c0,0.4,0.3,0.7,0.7,0.7c0.1,0,2.5,0,4.2,2.5
									c0.3,0.3,0.7,0.4,1,0.1c0.3-0.3,0.4-0.7,0.1-1C45.7-152.3,42.7-152.3,42.5-152.3"/>
							</g>
							<g id="g28_112_" transform="translate(31,24)">
								<path id="path30_106_" fill="#664500" d="M35.1-152.3c-0.1,0-3.2,0-5.3,3c-0.3,0.3-0.1,0.7,0.1,1c0.1,0.3,0.7,0.1,1-0.1
									c1.9-2.5,4.2-2.5,4.2-2.5c0.4,0,0.7-0.3,0.7-0.7C35.7-152,35.6-152.3,35.1-152.3"/>
							</g>
							<g id="g32_88_" transform="translate(31.5996,16.7998)">
								<path id="path34_85_" fill="#664500" d="M35-150.3c-0.1,0-1.3,1-3.2,1.6c0,0.1,0,0.1,0,0.3c0,0.3-0.1,0.4-0.3,0.7
									c1.3,0.3,2.3,0.4,2.3,0.4c0.4,0,0.7,0.3,0.7,0.7s-0.3,0.7-0.7,0.7c-0.1,0-3.8,0-6.1-2.3c-0.1-0.1-0.3-0.4-0.1-0.7
									c0.1-0.3,0.3-0.4,0.6-0.4c3.2,0,5.8-1.9,5.8-1.9c0.1-0.1,0.3-0.1,0.4-0.1s0.4,0.1,0.6,0.3C35.2-150.9,35.2-150.5,35-150.3"
									/>
							</g>
							<g id="g36_80_" transform="translate(16.707,19.707)">
								<path id="path38_80_" fill="#664500" d="M39.5-151.2c-2.2,2.2-5.8,2.3-6.1,2.3c-0.4,0-0.7-0.3-0.7-0.7s0.3-0.7,0.7-0.7
									c0,0,1,0,2.3-0.4c-0.1-0.1-0.3-0.4-0.3-0.7c0-0.1,0-0.1,0-0.3c-1.9-0.6-3.2-1.6-3.2-1.6c-0.3-0.3-0.4-0.7-0.1-1
									c0.1-0.1,0.3-0.3,0.6-0.3c0.1,0,0.3,0,0.4,0.1c0,0,2.6,1.9,5.8,1.9c0.3,0,0.6,0.1,0.6,0.4C39.7-151.6,39.6-151.3,39.5-151.2
									"/>
							</g>
							<g id="g40_82_" transform="translate(19,7)">
								<path id="path42_80_" fill="#664500" d="M38.7-147.2c-0.1,0-0.4,0.1-0.6,0.3l-2.2,2.7l-1.6-2c-0.1-0.1-0.3-0.3-0.4-0.3
									c-0.1,0-0.4,0-0.6,0.1l-0.7,0.7c-0.3,0.3-0.3,0.7,0,1s0.7,0.3,1,0l0.1-0.1l1.6,2.2c0.1,0.1,0.3,0.3,0.6,0.3
									c0.1,0,0.4-0.1,0.6-0.3l2.2-2.7l2.2,2.7c0.1,0.1,0.3,0.3,0.6,0.3c0.1,0,0.4-0.1,0.6-0.3l1.6-2.2l0.1,0.1
									c0.3,0.3,0.7,0.3,1,0s0.3-0.7,0-1l-0.7-0.7c-0.1-0.1-0.3-0.1-0.6-0.1c-0.1,0-0.4,0.1-0.4,0.3l-1.6,2l-2.2-2.7
									C39.2-147.2,38.9-147.2,38.7-147.2"/>
							</g>
						</g>
					</g>
				</g>
			</g>
		</g>
	</g>
	<g id="g10_148_" transform="matrix(1.25,0,0,-1.25,0,47.5)">
		<g id="g12_173_">
			<g>
				<g>
					<g>
						<g id="g14_175_">
							<g id="g20_159_" transform="translate(36,19)">
								<path id="path22_159_" fill="#FFCC4D" d="M178-93.8c0-7.3-5.9-13.4-13.4-13.4c-7.5,0-13.4,5.9-13.4,13.4s5.9,13.4,13.4,13.4
									C172.2-80.6,178-86.7,178-93.8"/>
							</g>
							<g id="g24_150_" transform="translate(29.457,19.2031)">
								<path id="path26_150_" fill="#664500" d="M179.5-93.9c0,0.2-1.1,2.6-3.4,2.6s-3.4-2.4-3.4-2.6c0-0.2,0-0.3,0.2-0.5
									s0.3-0.2,0.5,0c0,0,1,0.7,2.9,0.7c2,0,2.8-0.7,2.9-0.7h0.2c0.2,0,0.2,0,0.2,0.2C179.5-94.2,179.6-94,179.5-93.9"/>
							</g>
							<g id="g28_109_" transform="translate(17.457,19.2031)">
								<path id="path30_104_" fill="#664500" d="M182-93.9c0,0.2-1.1,2.6-3.4,2.6c-2.3,0-3.4-2.4-3.4-2.6c0-0.2,0-0.3,0.2-0.5
									s0.3-0.2,0.5,0c0,0,1,0.7,2.9,0.7c2,0,2.8-0.7,2.9-0.7h0.2c0.2,0,0.2,0,0.2,0.2C182-94.2,182.3-94,182-93.9"/>
							</g>
							<g id="g32_86_" transform="translate(32,20.9995)">
								<path id="path34_83_" fill="#664500" d="M178.9-94.4c-0.3,0-0.7,0.2-0.7,0.5c-1.3,3.4-4.9,4.2-4.9,4.2
									c-0.5,0.2-0.7,0.5-0.7,1c0.2,0.5,0.5,0.7,1,0.7c0.2,0,4.2-1,6-5.1c0.2-0.3,0-0.8-0.5-1C179.3-94.4,179.3-94.4,178.9-94.4"/>
							</g>
							<g id="g36_77_" transform="translate(5.9995,20.9995)">
								<path id="path38_77_" fill="#664500" d="M184.7-94.4c-0.2,0-0.2,0-0.3,0c-0.3,0.2-0.7,0.7-0.5,1c1.6,4.2,5.9,5.1,6,5.1
									c0.5,0.2,0.8-0.2,1-0.7c0.2-0.5-0.2-0.8-0.7-1c-0.2,0-3.4-0.8-4.9-4.2C185.2-94.2,184.9-94.4,184.7-94.4"/>
							</g>
							<g id="g40_79_" transform="translate(19,15)">
								<path id="path42_77_" fill="#664500" d="M181.8-93.1c-2.8,0-4.7,0.3-7,0.8c-0.5,0.2-1.5,0-1.5-1.5c0-3.1,3.6-7,8.5-7
									c4.9,0,8.5,3.9,8.5,7c0,1.5-1,1.6-1.5,1.5C186.6-92.6,184.6-93.1,181.8-93.1"/>
							</g>
							<g id="g44_61_" transform="translate(10,14)">
								<path id="path46_61_" fill="#FFFFFF" d="M184-92.7c0,0,2.3-0.8,7-0.8c4.6,0,7,0.8,7,0.8s-1.5-3.1-7-3.1
									C185.3-96,184-92.7,184-92.7"/>
							</g>
							<g id="g48_50_" transform="translate(11.8472,8.7705)">
								<path id="path50_50_" fill="#5DADEC" d="M183.4-91.5c-0.5-2.1-2.6-3.4-4.7-2.8c-2.1,0.5-3.4,2.6-2.8,4.7
									c0.7,2.1,4.9,6.8,5.7,6.5C182.2-83.3,184-89.5,183.4-91.5"/>
							</g>
							<g id="g52_49_" transform="translate(26.1328,8.7705)">
								<path id="path54_47_" fill="#5DADEC" d="M180.3-91.5c0.5-2.1,2.6-3.4,4.7-2.8c2.1,0.5,3.4,2.6,2.8,4.7
									c-0.7,2.1-4.9,6.8-5.7,6.5C181.3-83.3,179.8-89.5,180.3-91.5"/>
							</g>
						</g>
					</g>
				</g>
			</g>
		</g>
	</g>
	<g id="g10_2_" transform="matrix(1.25,0,0,-1.25,0,47.5)">
		<g id="g12_2_">
			<g>
				<g>
					<g>
						<g id="g14_2_">
							<g id="g20_2_" transform="translate(27,28.0005)">
								<path id="path22_2_" fill="#292F33" d="M122.9-96.6c-2.7,0-4.7,1.2-5.9,3.6c-1.2-2.3-3-3.6-5.2-3.6c-0.5,0-0.8,0.3-0.8,0.8
									c0,0.5,0.3,0.8,0.8,0.8c2,0,3.6,1.4,4.5,4.4c0.2,0.3,0.3,0.5,0.8,0.5c0.5,0,0.6-0.2,0.8-0.5c0.9-3,2.7-4.4,5.2-4.4
									c0.5,0,0.8-0.3,0.8-0.8C123.7-96.3,123.4-96.6,122.9-96.6"/>
							</g>
							<g id="g24_2_" transform="translate(15.604,27.3462)">
								<path id="path26_2_" fill="#FFAC33" d="M125.7-96.3c2.5-2.5,0.3-4.4-2.2-7c-2.5-2.5-4.4-4.7-7-2.2c-2.5,2.5-2.5,6.6,0,9.2
									C119-93.7,123.2-93.7,125.7-96.3"/>
							</g>
							<g id="g28_2_" transform="translate(16.4351,26.0278)">
								<path id="path30_2_" fill="#BE1931" d="M125.4-96c1.2-1.2,0.2-4.1-2.2-6.6c-2.3-2.3-5.5-3.4-6.6-2.2
									c-1.2,1.2-0.2,4.1,2.2,6.6C121.4-95.8,124.3-94.9,125.4-96"/>
							</g>
							<g id="g32_2_" transform="translate(22.2988,27.3462)">
								<path id="path34_2_" fill="#FFAC33" d="M124-96.3c-2.5-2.5-0.3-4.4,2.2-7c2.5-2.5,4.4-4.7,7-2.2c2.5,2.5,2.5,6.6,0,9.2
									C130.6-93.7,126.5-93.7,124-96.3"/>
							</g>
							<g id="g36_2_" transform="translate(21.4688,26.0278)">
								<path id="path38_2_" fill="#BE1931" d="M124.2-96c-1.2-1.2-0.2-4.1,2.2-6.6c2.3-2.3,5.5-3.4,6.6-2.2
									c1.2,1.2,0.2,4.1-2.2,6.6C128.2-95.8,125.3-94.9,124.2-96"/>
							</g>
							<g id="g40_4_" transform="translate(23.4102,18.7793)">
								<path id="path42_4_" fill="#AA8DD8" d="M123.7-94.1c0.2,0.2,0.3,0.2,0.5,0.2c0.6,0,1.2-0.3,1.6-0.6c0.5-0.3,0.6-0.9,0.5-1.4
									c-0.2-0.9-0.9-1.7-2.5-1.6c-0.6,0-0.8-0.2-0.8-0.2c0-0.2,0.2-0.3,0.8-0.5c0.6,0,1.2-0.3,1.6-0.6c0.5-0.3,0.6-0.9,0.5-1.4
									c-0.2-0.9-0.9-1.7-2.5-1.6c-0.5,0-0.6,0-0.8-0.2l-0.2-0.2c0-0.2,0.2-0.3,0.8-0.5c0.5,0,0.6-0.5,0.6-0.8
									c0-0.5-0.5-0.6-0.8-0.6c-1.6,0.2-2.2,1.1-2,2c0.2,0.9,0.9,1.7,2.5,1.6c0.5,0,0.6,0,0.8,0.2l0.2,0.2c0,0.2-0.2,0.3-0.8,0.5
									c-1.6,0.2-2.2,1.1-2,2c0.2,0.9,0.9,1.7,2.5,1.6c0.5,0,0.6,0,0.8,0.2l0.2,0.2c0,0.2-0.2,0.3-0.8,0.5c-0.5,0-0.6,0.5-0.6,0.8
									C123.6-94.4,123.6-94.2,123.7-94.1"/>
							</g>
							<g id="g44_3_" transform="translate(16.2661,1.0146)">
								<path id="path46_3_" fill="#77B255" d="M125.5-89.7c-1.4-0.5-2.5,0.3-2.7,1.1c-0.3,0.8,0.3,1.9,1.7,2.3
									c0.6,0.2,0.8,0.5,0.8,0.5c0,0.2-0.3,0.2-0.9,0c-1.4-0.5-2.5,0.3-2.7,1.1c-0.3,0.8,0.3,1.9,1.7,2.3c0.6,0.2,0.8,0.5,0.8,0.5
									c0,0.2-0.3,0.2-0.9,0c-0.5-0.2-0.8,0.2-0.9,0.5c-0.2,0.5,0.2,0.8,0.5,0.9c1.4,0.5,2.5-0.3,2.7-1.1c0.3-0.8-0.3-1.9-1.7-2.3
									c-0.6-0.2-0.8-0.5-0.8-0.5c0-0.2,0.3-0.2,0.9,0c1.4,0.5,2.5-0.3,2.7-1.1c0.3-0.8-0.3-1.9-1.7-2.3c-0.6-0.2-0.8-0.5-0.8-0.5
									c0-0.2,0.3-0.2,0.9,0c0.5,0.2,0.8-0.2,0.9-0.5C126.1-89.2,125.9-89.5,125.5-89.7"/>
							</g>
							<g id="g48_3_" transform="translate(2,9.5)">
								<path id="path50_3_" fill="#5C913B" d="M129.2-91.6c0,0.6,0.5,1.1,1.1,1.1c0.6,0,1.1-0.5,1.1-1.1c0-0.6-0.5-1.1-1.1-1.1
									C129.5-93.1,129.2-92.4,129.2-91.6"/>
							</g>
							<g id="g52_2_" transform="translate(6,6)">
								<path id="path54_2_" fill="#9266CC" d="M128.1-91c0,0.8,0.6,1.4,1.4,1.4s1.4-0.6,1.4-1.4s-0.6-1.4-1.4-1.4
									C128.6-92.5,128.1-91.7,128.1-91"/>
							</g>
							<g id="g56_1_" transform="translate(29,10)">
								<path id="path58_1_" fill="#9266CC" d="M122.2-92c0,0.8,0.6,1.4,1.4,1.4s1.4-0.6,1.4-1.4c0-0.8-0.6-1.4-1.4-1.4
									C123.1-93.6,122.2-92.8,122.2-92"/>
							</g>
							<g id="g60_1_" transform="translate(25,5.5)">
								<path id="path62_1_" fill="#5C913B" d="M123.2-90.8c0,0.6,0.5,1.1,1.1,1.1c0.6,0,1.1-0.5,1.1-1.1s-0.5-1.1-1.1-1.1
									C123.8-92,123.2-91.4,123.2-90.8"/>
							</g>
							<g id="g64_1_" transform="translate(17,17.5)">
								<path id="path66_1_" fill="#5C913B" d="M125.3-93.7c0,0.6,0.5,1.1,1.1,1.1s1.1-0.5,1.1-1.1c0-0.6-0.5-1.1-1.1-1.1
									C125.7-94.8,125.3-94.3,125.3-93.7"/>
							</g>
							<g id="g68_1_" transform="translate(6,14)">
								<path id="path70_1_" fill="#FFCC4D" d="M128.1-92.9c0,0.8,0.6,1.4,1.4,1.4s1.4-0.6,1.4-1.4c0-0.8-0.6-1.4-1.4-1.4
									C128.6-94.6,128.1-93.8,128.1-92.9"/>
							</g>
							<g id="g72_1_" transform="translate(27,20.5)">
								<path id="path74_1_" fill="#FFCC4D" d="M122.9-94.5c0,0.6,0.5,1.1,1.1,1.1s1.1-0.5,1.1-1.1c0-0.6-0.5-1.1-1.1-1.1
									S122.9-95.2,122.9-94.5"/>
							</g>
							<g id="g76_1_" transform="translate(12,22.5)">
								<path id="path78_1_" fill="#FFCC4D" d="M126.7-95.1c0,0.6,0.5,1.1,1.1,1.1c0.6,0,1.1-0.5,1.1-1.1c0-0.6-0.5-1.1-1.1-1.1
									C127.1-96.2,126.7-95.8,126.7-95.1"/>
							</g>
						</g>
					</g>
				</g>
			</g>
		</g>
	</g>
	<g id="g10_158_" transform="matrix(1.25,0,0,-1.25,0,47.5)">
		<g id="g12_182_">
			<g>
				<g>
					<g>
						<g id="g14_184_">
							<g id="g20_172_" transform="translate(19,33)">
								<path id="path22_172_" fill="#F4900C" d="M96.2-97c5.4,0,9.6-2.9,10.8-1.4c0.2,0.3,0.2,0.5,0.2,0.8c0,1.4-5.1,3.7-11,3.7
									c-6.2,0-11-2.2-11-3.7c0-0.3,0-0.5,0.2-0.8C86.6-99.9,90.9-97,96.2-97"/>
							</g>
							<g id="g24_159_" transform="translate(19,34)">
								<path id="path26_159_" fill="#FFCC4D" d="M96.2-97.5c-4.5,0-7.7-1.4-9.1-1.9c-0.3-0.2-0.5-0.6-0.3-0.9
									c0.2-0.2,7.9-20,7.9-20s0.6-1.4,1.4-1.4c0.8,0,1.4,1.4,1.4,1.4l7.7,20c0,0,0.2,0.6-0.5,0.9C103.8-98.6,100.7-97.5,96.2-97.5
									"/>
							</g>
						</g>
					</g>
				</g>
			</g>
		</g>
		<g id="g28_117_">
			<g>
				<g>
					<g>
						<g>
							<g>
								<g>
									<g>
										<g>
											<g>
												<g>
													<g>
														<g>
															<g>
																<g>
																	<defs>
																		<path id="SVGID_1_" d="M106.2-65.4c-0.3-0.2-0.5-0.6-0.3-0.9l0,0c0.2-0.3,7.7-20,7.7-20l0,0c0,0,0.8-1.4,1.4-1.4
																			l0,0c0.8,0,1.4,1.4,1.4,1.4l0,0l7.7,20c0,0,0.2,0.6-0.5,0.9l0,0c-1.2,0.6-4.5,1.9-8.8,1.9l0,0
																			C110.7-63.5,107.3-64.6,106.2-65.4"/>
																	</defs>
																	<clipPath id="SVGID_2_">
																		<use xlink:href="#SVGID_1_"  overflow="visible"/>
																	</clipPath>
																	<g id="g30_4_" clip-path="url(#SVGID_2_)">
																		<g id="g36_83_" transform="translate(19,6)">
																			<path id="path38_83_" fill="#BE1931" d="M96.2-90c0-1.5-1.2-2.9-2.9-2.9c-1.5,0-2.9,1.2-2.9,2.9
																				c0,1.7,1.2,2.9,2.9,2.9C94.9-87,96.2-88.3,96.2-90"/>
																		</g>
																		<g id="g40_84_" transform="translate(18,17)">
																			<path id="path42_82_" fill="#BE1931" d="M96.4-92.9c0-1.5-1.2-2.9-2.9-2.9c-1.5,0-2.9,1.2-2.9,2.9
																				c0,1.5,1.2,2.9,2.9,2.9C95.2-90,96.4-91.2,96.4-92.9"/>
																		</g>
																		<g id="g44_65_" transform="translate(21,29)">
																			<path id="path46_65_" fill="#BE1931" d="M95.6-95.9c0-1.5-1.2-2.9-2.9-2.9c-1.5,0-2.9,1.2-2.9,2.9
																				c0,1.5,1.2,2.9,2.9,2.9S95.6-94.4,95.6-95.9"/>
																		</g>
																		<g id="g48_54_" transform="translate(30,24)">
																			<path id="path50_54_" fill="#BE1931" d="M93.2-94.8c0-1.5-1.2-2.9-2.9-2.9c-1.7,0-2.9,1.2-2.9,2.9
																				c0,1.5,1.2,2.9,2.9,2.9C92-91.9,93.2-93.1,93.2-94.8"/>
																		</g>
																		<g id="g52_52_" transform="translate(28,12)">
																			<path id="path54_50_" fill="#BE1931" d="M93.8-91.6c0-1.5-1.2-2.9-2.9-2.9S88-93.3,88-91.6
																				c0,1.5,1.2,2.9,2.9,2.9S93.8-89.9,93.8-91.6"/>
																		</g>
																		<g id="g56_37_" transform="translate(11,25)">
																			<path id="path58_37_" fill="#BE1931" d="M98.3-95c0-1.5-1.2-2.9-2.9-2.9c-1.5,0-2.9,1.2-2.9,2.9
																				c0,1.5,1.2,2.9,2.9,2.9C96.9-91.9,98.3-93.3,98.3-95"/>
																		</g>
																	</g>
																</g>
															</g>
														</g>
													</g>
												</g>
											</g>
										</g>
									</g>
								</g>
							</g>
						</g>
					</g>
				</g>
			</g>
		</g>
	</g>
	<g id="g10_3_" transform="matrix(1.25,0,0,-1.25,0,47.5)">
		<g id="g12_6_">
			<g>
				<g>
					<g>
						<g id="g14_6_">
							<g id="g20_5_" transform="translate(36,19)">
								<path id="path22_3_" fill="#FFCC4D" d="M63.1-92.8c0-6.6-5.3-12-12-12s-12,5.3-12,12c0,6.7,5.3,12,12,12
									C57.8-80.9,63.1-86.3,63.1-92.8"/>
							</g>
							<g id="g24_5_" transform="translate(29.457,19.2031)">
								<path id="path26_3_" fill="#664500" d="M65-92.8c0,0.1-1,2.3-3.1,2.3s-3.1-2.2-3.1-2.3c0-0.1,0-0.3,0.1-0.4
									c0.1-0.1,0.3-0.1,0.4,0c0,0,0.9,0.6,2.6,0.6c1.8,0,2.5-0.6,2.6-0.6h0.1c0.1,0,0.1,0,0.1,0.1C65-93.1,65.2-93,65-92.8"/>
							</g>
							<g id="g28_3_" transform="translate(17.457,19.2031)">
								<path id="path30_3_" fill="#664500" d="M68.5-92.8c0,0.1-1,2.3-3.1,2.3s-3.1-2.2-3.1-2.3c0-0.1,0-0.3,0.1-0.4
									c0.1-0.1,0.3-0.1,0.4,0c0,0,0.9,0.6,2.6,0.6c1.8,0,2.5-0.6,2.6-0.6h0.1c0.1,0,0.1,0,0.1,0.1C68.5-93.1,68.8-93,68.5-92.8"/>
							</g>
							<g id="g32_3_" transform="translate(32,20.9995)">
								<path id="path34_3_" fill="#664500" d="M64.3-93.5c-0.3,0-0.6,0.1-0.6,0.4c-1.2,3.1-4.4,3.8-4.4,3.8
									c-0.4,0.1-0.6,0.4-0.6,0.9c0.1,0.4,0.4,0.6,0.9,0.6c0.1,0,3.8-0.9,5.4-4.5c0.1-0.3,0-0.7-0.4-0.9
									C64.6-93.5,64.6-93.5,64.3-93.5"/>
							</g>
							<g id="g36_3_" transform="translate(5.9995,20.9995)">
								<path id="path38_3_" fill="#664500" d="M72.1-93.5c-0.1,0-0.1,0-0.3,0c-0.3,0.1-0.6,0.6-0.4,0.9c1.5,3.8,5.3,4.5,5.4,4.5
									c0.4,0.1,0.7-0.1,0.9-0.6c0.1-0.4-0.1-0.7-0.6-0.9c-0.1,0-3.1-0.7-4.4-3.8C72.6-93.3,72.3-93.5,72.1-93.5"/>
							</g>
							<g id="g40_5_" transform="translate(19,15)">
								<path id="path42_5_" fill="#664500" d="M68.2-91.6c-2.5,0-4.2,0.3-6.3,0.7c-0.4,0.1-1.3,0-1.3-1.3c0-2.8,3.2-6.3,7.6-6.3
									s7.6,3.5,7.6,6.3c0,1.3-0.9,1.5-1.3,1.3C72.5-91.3,70.7-91.6,68.2-91.6"/>
							</g>
							<g id="g44_4_" transform="translate(10,14)">
								<path id="path46_4_" fill="#FFFFFF" d="M71-91.3c0,0,2.1-0.7,6.3-0.7c4.1,0,6.3,0.7,6.3,0.7s-1.3-2.8-6.3-2.8
									C72.2-94.1,71-91.3,71-91.3"/>
							</g>
							<g id="g48_4_" transform="translate(11.8472,8.7705)">
								<path id="path50_4_" fill="#5DADEC" d="M70.3-89.6c-0.4-1.9-2.3-3.1-4.2-2.5c-1.9,0.4-3.1,2.3-2.5,4.2
									c0.6,1.9,4.4,6.2,5.1,5.9C69.3-82.3,70.9-87.9,70.3-89.6"/>
							</g>
							<g id="g52_3_" transform="translate(26.1328,8.7705)">
								<path id="path54_3_" fill="#5DADEC" d="M66.1-89.6c0.4-1.9,2.3-3.1,4.2-2.5c1.9,0.4,3.1,2.3,2.5,4.2
									c-0.6,1.9-4.4,6.2-5.1,5.9S65.7-87.9,66.1-89.6"/>
							</g>
						</g>
					</g>
				</g>
			</g>
		</g>
	</g>
	<g id="g10_157_" transform="matrix(1.25,0,0,-1.25,0,47.5)">
		<g id="g12_181_">
			<g>
				<g>
					<g>
						<g id="g14_183_">
							<g id="g20_171_" transform="translate(18,19)">
								<path id="path22_171_" fill="#E1E8ED" d="M39-94.8c0-3.9-2.7-7-6-7s-6,3.1-6,7c0,3.9,2.7,7,6,7S39-90.9,39-94.8"/>
							</g>
							<g id="g24_158_" transform="translate(37,19)">
								<path id="path26_158_" fill="#E1E8ED" d="M33.5-94.8c0-3.9-2.7-7-6-7c-3.3,0-6,3.1-6,7c0,3.9,2.7,7,6,7
									C30.9-87.7,33.5-90.9,33.5-94.8"/>
							</g>
							<g id="g28_116_" transform="translate(9,15)">
								<path id="path30_110_" fill="#292F33" d="M41.4-93.6c0-1.2-0.9-2.1-2.1-2.1c-1.2,0-2.1,0.9-2.1,2.1s0.9,2.1,2.1,2.1
									S41.4-92.6,41.4-93.6"/>
							</g>
							<g id="g32_92_" transform="translate(28,15)">
								<path id="path34_89_" fill="#292F33" d="M36.2-93.6c0-1.2-0.9-2.1-2.1-2.1S32-94.8,32-93.6s0.9,2.1,2.1,2.1
									C35.1-91.5,36.2-92.6,36.2-93.6"/>
							</g>
						</g>
					</g>
				</g>
			</g>
		</g>
	</g>
</g>
<g id="g2">
	<g id="g10_49_" transform="matrix(1.25,0,0,-1.25,0,47.5)">
		<g id="g12_52_">
			<g>
				<g>
					<g>
						<g id="g14_52_">
							<g id="g20_52_" transform="translate(23.4941,31.6558)">
								<path id="path22_52_" fill="#DD2E44" d="M237.3-154.2c-0.5,0-0.9,0-1.4-0.2c-0.6,0-2,0.2-2.7,0.2c-6.3,0-12-2.4-12-10.9
									c0-6.8,5.2-12.3,12.9-12.3c7.4,0,13.6,5.5,13.6,12.3C247.4-156.4,240.7-154.2,237.3-154.2"/>
							</g>
							<g id="g24_50_" transform="translate(9.439,36.9087)">
								<path id="path26_50_" fill="#77B255" d="M240.8-155.4c1.3-1.3,2-1.7,2.5-3.6c0.2-1.1,1.7-1.1,1.7-1.1s-3-1.3-4.1-2.5
									c0,0,3.6,1.3,4.9,1.3c0,0,2.5-1.3,2.5-2.5c0,0,0,2.5-1.3,2.5c0,0,3.6,0,3.6-2.5c0,0,0,3.6-1.3,3.6c0,0,3.6,1.3,4.9,0
									c0,0-1.3,1.3-3.6,1.3c0,0,1.3,1.3,3.6,1.3c0,0-3.9,1.1-5.2-1.3c0,0-1.1,1.1,1.1,3.3c0,0-3.3-0.6-3.3-3c0,0-1.1,0-2,0.9
									C243.3-156.3,240.8-155.4,240.8-155.4"/>
							</g>
						</g>
					</g>
				</g>
			</g>
		</g>
	</g>
	<g id="g10_46_" transform="matrix(1.25,0,0,-1.25,0,47.5)">
		<g id="g12_49_">
			<g>
				<g>
					<g>
						<g id="g14_49_">
							<g id="g20_49_" transform="translate(35.751,15)">
								<path id="path22_49_" fill="#77B255" d="M204.6-150.3c-2.5,0-9.1-2.7-12.1-5.6v9.4c0,0.5-0.3,0.8-0.8,0.8
									c-0.5,0-0.8-0.3-0.8-0.8v-9.4c-2.9,2.7-9.4,5.6-12.2,5.6c-0.6,0,8.3-10.5,12.2-9.7v-0.3c0-0.5,0.3-0.8,0.8-0.8
									c0.5,0,0.8,0.3,0.8,0.8v0.3C196.5-160.7,205-150.3,204.6-150.3"/>
							</g>
							<g id="g24_47_" transform="translate(26,23.5835)">
								<path id="path26_47_" fill="#EA596E" d="M206.8-152.2c0-4.8-1.3-7.2-5.2-7.2c-4,0-5.2,2.4-5.2,7.2s3.8,10.2,5.2,10.2
									C202.9-142.2,206.8-147.4,206.8-152.2"/>
							</g>
							<g id="g28_45_" transform="translate(23.7949,35)">
								<path id="path30_41_" fill="#F4ABBA" d="M207.4-155c-0.3,0-3-11-3.7-14.6c-0.6,3.8-3.3,14.6-3.8,14.6c-0.8,0-4.5-6.8-4.5-10
									c0-3.2,4.5-6,8.3-6c4,0,8.3,3,8.3,6C212-162,208.2-155,207.4-155"/>
							</g>
						</g>
					</g>
				</g>
			</g>
		</g>
	</g>
	<g id="g10_18_" transform="matrix(1.25,0,0,-1.25,0,47.5)">
		<g id="g12_21_">
			<g>
				<g>
					<g>
						<g id="g14_21_">
							<g id="g20_21_" transform="translate(18,19)">
								<path id="path22_21_" fill="#E1E8ED" d="M180.1-152.5c0-3.9-2.7-7-5.9-7c-3.3,0-5.9,3.1-5.9,7c0,3.9,2.7,7,5.9,7
									C177.4-145.5,180.1-148.6,180.1-152.5"/>
							</g>
							<g id="g24_20_" transform="translate(37,19)">
								<path id="path26_20_" fill="#E1E8ED" d="M174.8-152.5c0-3.9-2.7-7-5.9-7c-3.3,0-5.9,3.1-5.9,7c0,3.9,2.7,7,5.9,7
									C172.1-145.5,174.8-148.6,174.8-152.5"/>
							</g>
							<g id="g28_19_" transform="translate(9,15)">
								<path id="path30_17_" fill="#292F33" d="M182.9-151.3c0-1.2-0.9-2.1-2.1-2.1s-2.1,0.9-2.1,2.1s0.9,2.1,2.1,2.1
									C181.7-149.2,182.9-150.1,182.9-151.3"/>
							</g>
							<g id="g32_15_" transform="translate(28,15)">
								<path id="path34_14_" fill="#292F33" d="M177.4-151.3c0-1.2-0.9-2.1-2.1-2.1s-2.1,0.9-2.1,2.1s0.9,2.1,2.1,2.1
									C176.5-149.2,177.4-150.1,177.4-151.3"/>
							</g>
						</g>
					</g>
				</g>
			</g>
		</g>
	</g>
	<g id="g10_20_" transform="matrix(1.25,0,0,-1.25,0,47.5)">
		<g id="g12_46_">
			<g>
				<g>
					<g>
						<g id="g14_46_">
							<g id="g20_35_" transform="translate(12.9829,33.438)">
								<path id="path22_35_" fill="#FFAC33" d="M125.6-153.5c3.4,0.2,5.7-1.2,5.9-5.1c0.2-3.3-3.9-5.1-5.9-5.1
									c-1.9,0-0.9,1.4,0.5,1.7c1.1,0.3,3.3,1.7,2.6,3.3c-0.5,1.7-3.3,2-4.7-0.2c-0.6-0.9-2.6-0.6-2.9,0.3
									C120.2-156.7,121.8-153.6,125.6-153.5"/>
							</g>
							<g id="g24_28_" transform="translate(36.75,15.6162)">
								<path id="path26_28_" fill="#E1E8ED" d="M119.5-148.9c0,5.7-3.3,8.4-10.9,8.4c-0.8,0-1.6,0-2.2-0.2c-0.9,1.7-3.6,2-6.2,2
									c-3.3,0-7.3-4.5-7.3-8.1s2.6-3.6,5.7-3.6c0.2-2.3,0.9-4.3,2.3-5.4c0.2-0.8,1.1-4.3,2.9-4.3c0.9,0,1.6,1.2,1.9,2.5
									c0.8-0.2,1.7-0.2,2.8-0.2c1.2,0,2.5,0.2,3.4,0.3c0-1.2,0.5-2.6,1.6-2.6c1.7,0,3.3,3.7,3.6,4.8
									C118.7-153.5,119.5-151.5,119.5-148.9"/>
							</g>
							<g id="g28_37_" transform="translate(7,21.2139)">
								<path id="path30_28_" fill="#292F33" d="M127-150.5c0-0.6-0.5-1.1-1.1-1.1c-0.6,0-1.1,0.5-1.1,1.1c0,0.6,0.5,1.1,1.1,1.1
									C126.5-149.4,127-149.8,127-150.5"/>
							</g>
							<g id="g32_34_" transform="translate(18.5625,32.6611)">
								<path id="path34_19_" fill="#FFCC4D" d="M124.1-153.3c3.3-1.1,4.3-3.3,2.9-6.7c-0.9-2.9-5.4-3.3-7.6-2.5
									c-1.7,0.6-0.5,1.7,1.1,1.4c1.2-0.2,3.4,0.5,3.7,2c0.2,1.7-2.2,2.9-4.3,1.6c-0.9-0.6-4.3-0.3-4,0.8
									C116.5-154.4,120.5-152.2,124.1-153.3"/>
							</g>
						</g>
					</g>
				</g>
			</g>
		</g>
	</g>
	<g id="g10_24_" transform="matrix(1.25,0,0,-1.25,0,47.5)">
		<g id="g12_25_">
			<g>
				<g>
					<g>
						<g id="g14_25_">
							<g id="g20_25_" transform="translate(36,19)">
								<path id="path22_25_" fill="#FFCC4D" d="M90.1-151.2c0-6.7-5.4-12.2-12.2-12.2s-12.2,5.4-12.2,12.2S71-139,77.9-139
									C84.8-139.1,90.1-144.7,90.1-151.2"/>
							</g>
							<g id="g24_24_" transform="translate(29.457,19.2031)">
								<path id="path26_24_" fill="#664500" d="M92-151.3c0,0.1-1,2.4-3.1,2.4s-3.1-2.2-3.1-2.4c0-0.1,0-0.3,0.1-0.4
									c0.1-0.1,0.3-0.1,0.4,0c0,0,0.9,0.6,2.7,0.6s2.5-0.6,2.7-0.6h0.2c0.1,0,0.1,0,0.1,0.1C92-151.6,92.1-151.4,92-151.3"/>
							</g>
							<g id="g28_23_" transform="translate(17.457,19.2031)">
								<path id="path30_21_" fill="#664500" d="M95.3-151.3c0,0.1-1,2.4-3.1,2.4c-2.1,0-3.1-2.2-3.1-2.4c0-0.1,0-0.3,0.2-0.4
									c0.1-0.1,0.3-0.1,0.4,0c0,0,0.9,0.6,2.7,0.6s2.5-0.6,2.7-0.6h0.1c0.1,0,0.1,0,0.1,0.1C95.3-151.6,95.6-151.4,95.3-151.3"/>
							</g>
							<g id="g32_19_" transform="translate(32,20.9995)">
								<path id="path34_18_" fill="#664500" d="M91.3-151.9c-0.3,0-0.6,0.1-0.6,0.4c-1.2,3.1-4.5,3.9-4.5,3.9
									c-0.4,0.1-0.6,0.4-0.6,0.9c0.1,0.4,0.4,0.6,0.9,0.6c0.1,0,3.9-0.9,5.5-4.6c0.1-0.3,0-0.7-0.4-0.9
									C91.6-151.9,91.6-151.9,91.3-151.9"/>
							</g>
							<g id="g36_17_" transform="translate(5.9995,20.9995)">
								<path id="path38_17_" fill="#664500" d="M98.8-151.9c-0.1,0-0.1,0-0.3,0c-0.3,0.1-0.6,0.6-0.4,0.9c1.5,3.9,5.4,4.6,5.5,4.6
									c0.4,0.1,0.7-0.1,0.9-0.6c0.2-0.4-0.1-0.7-0.6-0.9c-0.1,0-3.1-0.7-4.5-3.9C99.2-151.7,98.9-151.9,98.8-151.9"/>
							</g>
							<g id="g40_16_" transform="translate(19,15)">
								<path id="path42_16_" fill="#664500" d="M95-150c-2.5,0-4.3,0.3-6.4,0.7c-0.4,0.1-1.3,0-1.3-1.3c0-2.8,3.3-6.4,7.8-6.4
									c4.5,0,7.8,3.6,7.8,6.4c0,1.3-0.9,1.5-1.3,1.3C99.4-149.7,97.6-150,95-150"/>
							</g>
							<g id="g44_15_" transform="translate(10,14)">
								<path id="path46_15_" fill="#FFFFFF" d="M97.6-149.8c0,0,2.1-0.7,6.4-0.7c4.2,0,6.4,0.7,6.4,0.7s-1.3-2.8-6.4-2.8
									C99-152.6,97.6-149.8,97.6-149.8"/>
							</g>
							<g id="g48_14_" transform="translate(11.8472,8.7705)">
								<path id="path50_14_" fill="#5DADEC" d="M97-148.2c-0.4-1.9-2.4-3.1-4.3-2.5c-1.9,0.4-3.1,2.4-2.5,4.3
									c0.6,1.9,4.5,6.3,5.2,6C96-140.7,97.6-146.4,97-148.2"/>
							</g>
							<g id="g52_12_" transform="translate(26.1328,8.7705)">
								<path id="path54_12_" fill="#5DADEC" d="M93-148.2c0.4-1.9,2.4-3.1,4.3-2.5c1.9,0.4,3.1,2.4,2.5,4.3s-4.5,6.3-5.2,6
									C93.9-140.7,92.6-146.4,93-148.2"/>
							</g>
						</g>
					</g>
				</g>
			</g>
		</g>
	</g>
	<g id="g10_5_" transform="matrix(1.25,0,0,-1.25,0,47.5)">
		<g id="g12_8_">
			<g>
				<g>
					<g>
						<g id="g14_8_">
							<g id="g20_8_" transform="translate(19,33)">
								<path id="path22_5_" fill="#F4900C" d="M67.2-154.7c5.5,0,9.8-3,11.1-1.4c0.2,0.3,0.2,0.5,0.2,0.8c0,1.4-5.2,3.8-11.3,3.8
									c-6.3,0-11.3-2.2-11.3-3.8c0-0.3,0-0.5,0.2-0.8C57.5-157.7,61.8-154.7,67.2-154.7"/>
							</g>
							<g id="g24_8_" transform="translate(19,34)">
								<path id="path26_5_" fill="#FFCC4D" d="M67.2-155.2c-4.6,0-7.9-1.4-9.4-1.9c-0.3-0.2-0.5-0.6-0.3-1
									c0.2-0.2,8.1-20.5,8.1-20.5s0.6-1.4,1.4-1.4s1.4,1.4,1.4,1.4l7.9,20.5c0,0,0.2,0.6-0.5,1C75.1-156.4,71.9-155.2,67.2-155.2"
									/>
							</g>
						</g>
					</g>
				</g>
			</g>
		</g>
		<g id="g28_8_">
			<g>
				<g>
					<g>
						<g>
							<g>
								<g>
									<g>
										<g>
											<g>
												<g>
													<g>
														<g>
															<g>
																<g>
																	<defs>
																		<path id="SVGID_3_" d="M77.2-123.2c-0.3-0.2-0.5-0.6-0.3-1l0,0c0.2-0.3,7.9-20.5,7.9-20.5l0,0
																			c0,0,0.8-1.4,1.4-1.4l0,0c0.8,0,1.4,1.4,1.4,1.4l0,0l7.9,20.5c0,0,0.2,0.6-0.5,1l0,0c-1.3,0.6-4.6,1.9-9,1.9l0,0
																			C81.6-121.2,78.3-122.5,77.2-123.2"/>
																	</defs>
																	<clipPath id="SVGID_4_">
																		<use xlink:href="#SVGID_3_"  overflow="visible"/>
																	</clipPath>
																	<g id="g30_1_" clip-path="url(#SVGID_4_)">
																		<g id="g36_6_" transform="translate(19,6)">
																			<path id="path38_6_" fill="#BE1931" d="M67.2-148.2c0-1.6-1.3-3-3-3c-1.6,0-3,1.3-3,3s1.3,3,3,3
																				C65.9-145.2,67.2-146.4,67.2-148.2"/>
																		</g>
																		<g id="g40_7_" transform="translate(18,17)">
																			<path id="path42_7_" fill="#BE1931" d="M67.6-150.9c0-1.6-1.3-3-3-3c-1.6,0-3,1.3-3,3c0,1.6,1.3,3,3,3
																				C66.1-147.9,67.6-149.2,67.6-150.9"/>
																		</g>
																		<g id="g44_7_" transform="translate(21,29)">
																			<path id="path46_7_" fill="#BE1931" d="M66.8-153.7c0-1.6-1.3-3-3-3c-1.6,0-3,1.3-3,3c0,1.6,1.3,3,3,3
																				C65.5-150.7,66.8-152.3,66.8-153.7"/>
																		</g>
																		<g id="g48_6_" transform="translate(30,24)">
																			<path id="path50_6_" fill="#BE1931" d="M64.4-152.7c0-1.6-1.3-3-3-3c-1.7,0-3,1.3-3,3c0,1.6,1.3,3,3,3
																				C63.2-149.7,64.4-151,64.4-152.7"/>
																		</g>
																		<g id="g52_5_" transform="translate(28,12)">
																			<path id="path54_5_" fill="#BE1931" d="M65.2-149.7c0-1.6-1.3-3-3-3c-1.7,0-3,1.3-3,3c0,1.6,1.3,3,3,3
																				C63.7-146.7,65.2-148,65.2-149.7"/>
																		</g>
																		<g id="g56_3_" transform="translate(11,25)">
																			<path id="path58_3_" fill="#BE1931" d="M69.3-152.9c0-1.6-1.3-3-3-3c-1.6,0-3,1.3-3,3c0,1.6,1.3,3,3,3
																				C67.7-149.7,69.3-151.2,69.3-152.9"/>
																		</g>
																	</g>
																</g>
															</g>
														</g>
													</g>
												</g>
											</g>
										</g>
									</g>
								</g>
							</g>
						</g>
					</g>
				</g>
			</g>
		</g>
	</g>
	<g id="g10_48_" transform="matrix(1.25,0,0,-1.25,0,47.5)">
		<g id="g12_51_">
			<g>
				<g>
					<g>
						<g id="g14_51_">
							<g id="g20_51_" transform="translate(27,28.0005)">
								<path id="path22_51_" fill="#292F33" d="M34.9-153.9c-2.5,0-4.3,1.2-5.5,3.3c-1.2-2.2-2.7-3.3-4.8-3.3
									c-0.4,0-0.7,0.3-0.7,0.7c0,0.4,0.3,0.7,0.7,0.7c1.9,0,3.3,1.3,4.2,4c0.1,0.3,0.3,0.4,0.7,0.4c0.4,0,0.6-0.1,0.7-0.4
									c0.9-2.7,2.5-4,4.8-4c0.4,0,0.7-0.3,0.7-0.7C35.7-153.4,35.4-153.9,34.9-153.9"/>
							</g>
							<g id="g24_49_" transform="translate(15.604,27.3462)">
								<path id="path26_49_" fill="#FFAC33" d="M38.4-153.6c2.3-2.3,0.3-4-2-6.5s-4-4.3-6.5-2c-2.5,2.3-2.3,6.1,0,8.5
									C32.2-151.1,36.1-151.1,38.4-153.6"/>
							</g>
							<g id="g28_47_" transform="translate(16.4351,26.0278)">
								<path id="path30_43_" fill="#BE1931" d="M38-153.2c1.2-1.2,0.1-3.8-2-6.1c-2.2-2.2-5.1-3.2-6.1-2c-1.2,1.2-0.1,3.8,2,6.1
									C34.3-152.9,37-152.1,38-153.2"/>
							</g>
							<g id="g32_36_" transform="translate(22.2988,27.3462)">
								<path id="path34_35_" fill="#FFAC33" d="M36.5-153.6c-2.3-2.3-0.3-4,2-6.5s4-4.3,6.5-2c2.5,2.3,2.3,6.1,0,8.5
									C42.4-151.1,38.8-151.1,36.5-153.6"/>
							</g>
							<g id="g36_32_" transform="translate(21.4688,26.0278)">
								<path id="path38_32_" fill="#BE1931" d="M36.5-153.2c-1.2-1.2-0.1-3.8,2-6.1c2.2-2.2,5.1-3.2,6.1-2c1.2,1.2,0.1,3.8-2,6.1
									C40.4-152.9,37.5-152.1,36.5-153.2"/>
							</g>
							<g id="g40_30_" transform="translate(23.4102,18.7793)">
								<path id="path42_30_" fill="#AA8DD8" d="M35.9-150.9c0.1,0.1,0.3,0.1,0.4,0.1c0.6,0,1.2-0.3,1.4-0.6
									c0.4-0.3,0.6-0.9,0.4-1.3c-0.1-0.9-0.9-1.6-2.3-1.4c-0.6,0-0.7-0.1-0.7-0.1c0-0.1,0.1-0.3,0.7-0.4c0.6,0,1.2-0.3,1.4-0.6
									c0.4-0.3,0.6-0.9,0.4-1.3c-0.1-0.9-0.9-1.6-2.3-1.4c-0.4,0-0.6,0-0.7-0.1l-0.1-0.1c0-0.1,0.1-0.3,0.7-0.4
									c0.4,0,0.6-0.4,0.6-0.7c0-0.4-0.4-0.6-0.7-0.6c-1.4,0.1-2,1-1.9,1.9c0.1,0.9,0.9,1.6,2.3,1.4c0.4,0,0.6,0,0.7,0.1l0.1,0.1
									c0,0.1-0.1,0.3-0.7,0.4c-1.4,0.1-2,1-1.9,1.9c0.1,0.9,0.9,1.6,2.3,1.4c0.4,0,0.6,0,0.7,0.1l0.1,0.1c0,0.1-0.1,0.3-0.7,0.4
									c-0.4,0-0.6,0.4-0.6,0.7C35.8-151.2,35.9-151,35.9-150.9"/>
							</g>
							<g id="g44_28_" transform="translate(16.2661,1.0146)">
								<path id="path46_28_" fill="#77B255" d="M38.2-145.5c-1.3-0.4-2.3,0.3-2.5,1c-0.3,0.7,0.3,1.7,1.6,2.2
									c0.6,0.1,0.7,0.4,0.7,0.4c0,0.1-0.3,0.1-0.9,0c-1.3-0.4-2.3,0.3-2.5,1c-0.3,0.7,0.3,1.7,1.6,2.2c0.6,0.1,0.7,0.4,0.7,0.4
									c0,0.1-0.3,0.1-0.9,0c-0.4-0.1-0.7,0.1-0.9,0.4c-0.1,0.4,0.1,0.7,0.4,0.9c1.3,0.4,2.3-0.3,2.5-1c0.3-0.7-0.3-1.7-1.6-2.2
									c-0.6-0.1-0.7-0.4-0.7-0.4c0-0.1,0.3-0.1,0.9,0c1.3,0.4,2.3-0.3,2.5-1c0.3-0.7-0.3-1.7-1.6-2.2c-0.6-0.1-0.7-0.4-0.7-0.4
									c0-0.1,0.3-0.1,0.9,0c0.4,0.1,0.7-0.1,0.9-0.4C38.7-145.1,38.5-145.4,38.2-145.5"/>
							</g>
							<g id="g48_27_" transform="translate(2,9.5)">
								<path id="path50_27_" fill="#5C913B" d="M42.6-147.9c0,0.6,0.4,1,1,1c0.6,0,1-0.4,1-1s-0.4-1-1-1
									C43-149.2,42.6-148.7,42.6-147.9"/>
							</g>
							<g id="g52_22_" transform="translate(6,6)">
								<path id="path54_22_" fill="#9266CC" d="M41.3-147c0,0.7,0.6,1.3,1.3,1.3s1.3-0.6,1.3-1.3s-0.6-1.3-1.3-1.3
									C41.9-148.5,41.3-147.8,41.3-147"/>
							</g>
							<g id="g56_12_" transform="translate(29,10)">
								<path id="path58_12_" fill="#9266CC" d="M34.2-148.3c0,0.7,0.6,1.3,1.3,1.3c0.7,0,1.3-0.6,1.3-1.3c0-0.7-0.6-1.3-1.3-1.3
									C35-149.7,34.2-149,34.2-148.3"/>
							</g>
							<g id="g60_7_" transform="translate(25,5.5)">
								<path id="path62_7_" fill="#5C913B" d="M35.5-146.8c0,0.6,0.4,1,1,1c0.6,0,1-0.4,1-1c0-0.6-0.4-1-1-1
									C36.1-148,35.5-147.4,35.5-146.8"/>
							</g>
							<g id="g64_7_" transform="translate(17,17.5)">
								<path id="path66_7_" fill="#5C913B" d="M37.9-150.4c0,0.6,0.4,1,1,1c0.6,0,1-0.4,1-1c0-0.6-0.4-1-1-1
									C38.3-151.5,37.9-151,37.9-150.4"/>
							</g>
							<g id="g68_7_" transform="translate(6,14)">
								<path id="path70_7_" fill="#FFCC4D" d="M41.3-149.4c0,0.7,0.6,1.3,1.3,1.3s1.3-0.6,1.3-1.3c0-0.7-0.6-1.3-1.3-1.3
									C41.9-151,41.3-150.3,41.3-149.4"/>
							</g>
							<g id="g72_7_" transform="translate(27,20.5)">
								<path id="path74_7_" fill="#FFCC4D" d="M34.9-151.4c0,0.6,0.4,1,1,1c0.6,0,1-0.4,1-1s-0.4-1-1-1S34.9-152,34.9-151.4"/>
							</g>
							<g id="g76_7_" transform="translate(12,22.5)">
								<path id="path78_7_" fill="#FFCC4D" d="M39.5-152.1c0,0.6,0.4,1,1,1c0.6,0,1-0.4,1-1s-0.4-1-1-1
									C40-153.1,39.5-152.7,39.5-152.1"/>
							</g>
						</g>
					</g>
				</g>
			</g>
		</g>
	</g>
	<g id="g10_45_" transform="matrix(1.25,0,0,-1.25,0,47.5)">
		<g id="g12_48_">
			<g>
				<g>
					<g>
						<g id="g14_48_">
							<g id="g20_48_" transform="translate(35.751,15)">
								<path id="path22_48_" fill="#77B255" d="M177.6-92.9c-2.6,0-9.3-2.8-12.4-5.7v9.6c0,0.5-0.3,0.8-0.8,0.8
									c-0.5,0-0.8-0.3-0.8-0.8v-9.6c-2.9,2.8-9.6,5.7-12.5,5.7c-0.7,0,8.5-10.8,12.5-9.9v-0.3c0-0.5,0.3-0.8,0.8-0.8
									c0.5,0,0.8,0.3,0.8,0.8v0.3C169.3-103.7,178.2-92.9,177.6-92.9"/>
							</g>
							<g id="g24_46_" transform="translate(26,23.5835)">
								<path id="path26_46_" fill="#EA596E" d="M179.7-94.9c0-4.9-1.3-7.3-5.4-7.3c-4.1,0-5.4,2.4-5.4,7.3c0,4.9,3.9,10.4,5.4,10.4
									C175.7-84.4,179.7-89.8,179.7-94.9"/>
							</g>
							<g id="g28_44_" transform="translate(23.7949,35)">
								<path id="path30_40_" fill="#F4ABBA" d="M180.1-97.3c-0.3,0-3.1-11.2-3.7-15c-0.7,3.9-3.4,15-3.9,15c-0.8,0-4.6-7-4.6-10.3
									c0-3.3,4.6-6.2,8.5-6.2c4.1,0,8.5,3.1,8.5,6.2S181.1-97.3,180.1-97.3"/>
							</g>
						</g>
					</g>
				</g>
			</g>
		</g>
	</g>
	<g id="g10_9_" transform="matrix(1.25,0,0,-1.25,0,47.5)">
		<g id="g12_12_">
			<g>
				<g>
					<g>
						<g id="g14_12_">
							<g id="g20_12_" transform="translate(12.9829,33.438)">
								<path id="path22_12_" fill="#FFAC33" d="M125.7-96c3.4,0.2,5.8-1.2,5.9-5.2c0.2-3.3-3.9-5.2-5.9-5.2c-1.9,0-0.9,1.4,0.5,1.7
									c1.1,0.3,3.3,1.7,2.7,3.3c-0.5,1.7-3.3,2-4.7-0.2c-0.6-0.9-2.7-0.6-3,0.3C120.2-99.4,121.8-96.3,125.7-96"/>
							</g>
							<g id="g24_11_" transform="translate(36.75,15.6162)">
								<path id="path26_11_" fill="#E1E8ED" d="M119.6-91.5c0,5.8-3.3,8.4-10.9,8.4c-0.8,0-1.6,0-2.2-0.2c-0.9,1.7-3.6,2-6.2,2
									c-3.3,0-7.3-4.5-7.3-8.1s2.7-3.6,5.8-3.6c0.2-2.3,0.9-4.4,2.3-5.5c0.2-0.8,1.1-4.4,3-4.4c0.9,0,1.6,1.2,1.9,2.5
									c0.8-0.2,1.7-0.2,2.8-0.2c1.2,0,2.5,0.2,3.4,0.3c0-1.2,0.5-2.7,1.6-2.7c1.7,0,3.3,3.7,3.6,4.8
									C118.9-96.3,119.6-94.3,119.6-91.5"/>
							</g>
							<g id="g28_11_" transform="translate(7,21.2139)">
								<path id="path30_9_" fill="#292F33" d="M127-93c0-0.6-0.5-1.1-1.1-1.1s-1.1,0.5-1.1,1.1c0,0.6,0.5,1.1,1.1,1.1
									C126.5-91.9,127-92.4,127-93"/>
							</g>
							<g id="g32_7_" transform="translate(18.5625,32.6611)">
								<path id="path34_7_" fill="#FFCC4D" d="M124.1-96c3.3-1.1,4.4-3.3,3-6.7c-0.9-3-5.5-3.3-7.6-2.5c-1.7,0.6-0.5,1.7,1.1,1.4
									c1.2-0.2,3.4,0.5,3.7,2c0.2,1.7-2.2,3-4.4,1.6c-0.9-0.6-4.4-0.3-4.1,0.8C116.5-97.1,120.5-94.7,124.1-96"/>
							</g>
						</g>
					</g>
				</g>
			</g>
		</g>
	</g>
	<g id="g10_47_" transform="matrix(1.25,0,0,-1.25,0,47.5)">
		<g id="g12_50_">
			<g>
				<g>
					<g>
						<g id="g14_50_">
							<g id="g20_50_" transform="translate(21.1426,4.7852)">
								<path id="path22_50_" fill="#E1E8ED" d="M95.5-88.8c0-0.9-0.8-1.5-1.5-1.5c-0.9,0-1.5,0.8-1.5,1.5c0,0.9,0.8,1.5,1.5,1.5
									C94.7-86.9,95.5-87.7,95.5-88.8"/>
							</g>
							<g id="g24_48_" transform="translate(28.6426,21.3569)">
								<path id="path26_48_" fill="#E1E8ED" d="M93.7-93c0,3.9-3.2,7.3-7.3,7.3c-3.9,0-7.3-3.2-7.3-7.3c0-3.9-0.8-12.4-0.8-12.4
									c0-0.9,0.8-1.5,1.5-1.5c0.9,0,1.5,0.8,1.5,1.5c0-0.9,0.8-1.5,1.5-1.5c0.9,0,1.5,0.8,1.5,1.5h3.2c0-0.9,0.8-1.5,1.5-1.5
									c0.9,0,1.5,0.8,1.5,1.5c0-0.9,0.8-1.5,1.5-1.5c0.9,0,1.5,0.8,1.5,1.5C94.5-105.2,93.7-96.9,93.7-93"/>
							</g>
							<g id="g28_46_" transform="translate(21,34)">
								<path id="path30_42_" fill="#DD2E44" d="M95.7-96.1c0-1.5-1.1-4.3-1.4-4.3c-0.5,0-1.4,2.8-1.4,4.3S94-94,94.3-94
									S95.7-94.6,95.7-96.1"/>
							</g>
							<g id="g32_35_" transform="translate(16.6348,4)">
								<path id="path34_34_" fill="#DD2E44" d="M96.7-88.3c0,1.9,1.2,5.9,1.7,5.9c0.5,0,1.7-4,1.7-5.9c0-1.9-1.2-2.2-1.7-2.2
									C98-90.7,96.7-90.4,96.7-88.3"/>
							</g>
							<g id="g36_31_" transform="translate(26,14.5)">
								<path id="path38_31_" fill="#F4900C" d="M94.3-91.2c0-1.1-3.6-3.2-5.1-3.2c-1.5,0-5.1,2.2-5.1,3.2c0,1.1,3.6,3.2,5.1,3.2
									C90.7-87.8,94.3-90.1,94.3-91.2"/>
							</g>
							<g id="g40_29_" transform="translate(26,14.5)">
								<path id="path42_29_" fill="#FFAC33" d="M94.3-91.2c0-1.1-10.2-1.1-10.2,0c0,1.1,3.6,3.2,5.1,3.2
									C90.7-87.8,94.3-90.1,94.3-91.2"/>
							</g>
							<g id="g44_27_" transform="translate(14,18.5)">
								<path id="path46_27_" fill="#292F33" d="M97.3-92.2c0-0.6-0.5-1.1-1.1-1.1c-0.6,0-1.1,0.5-1.1,1.1s0.5,1.1,1.1,1.1
									C96.8-91.2,97.3-91.6,97.3-92.2"/>
							</g>
							<g id="g48_26_" transform="translate(27,18.5)">
								<path id="path50_26_" fill="#292F33" d="M94.1-92.2c0-0.6-0.5-1.1-1.1-1.1c-0.6,0-1.1,0.5-1.1,1.1s0.5,1.1,1.1,1.1
									C93.6-91.2,94.1-91.6,94.1-92.2"/>
							</g>
						</g>
					</g>
				</g>
			</g>
		</g>
	</g>
	<g id="g10_22_" transform="matrix(1.25,0,0,-1.25,0,47.5)">
		<g id="g12_47_">
			<g>
				<g>
					<g>
						<g id="g14_47_">
							<g id="g20_37_" transform="translate(35.751,15)">
								<path id="path22_37_" fill="#77B255" d="M60.6-91.3c-2.3,0-8.4-2.5-11.1-5.1v8.6c0,0.4-0.3,0.7-0.7,0.7
									c-0.4,0-0.7-0.3-0.7-0.7v-8.6c-2.6,2.5-8.6,5.1-11.3,5.1c-0.6,0,7.6-9.7,11.3-8.9v-0.3c0-0.4,0.3-0.7,0.7-0.7
									c0.4,0,0.7,0.3,0.7,0.7v0.3C53.1-101,61.1-91.3,60.6-91.3"/>
							</g>
							<g id="g24_45_" transform="translate(26,23.5835)">
								<path id="path26_45_" fill="#EA596E" d="M63.4-93.7c0-4.4-1.2-6.6-4.8-6.6c-3.7,0-4.8,2.2-4.8,6.6c0,4.4,3.5,9.4,4.8,9.4
									C59.7-84.5,63.4-89.3,63.4-93.7"/>
							</g>
							<g id="g28_43_" transform="translate(23.7949,35)">
								<path id="path30_39_" fill="#F4ABBA" d="M64.1-97.2c-0.3,0-2.8-10.1-3.4-13.5c-0.6,3.5-3.1,13.5-3.5,13.5
									c-0.7,0-4.1-6.3-4.1-9.2s4.1-5.6,7.6-5.6c3.7,0,7.6,2.8,7.6,5.6C68.4-103.7,64.9-97.2,64.1-97.2"/>
							</g>
						</g>
					</g>
				</g>
			</g>
		</g>
	</g>
	<g id="g10_7_" transform="matrix(1.25,0,0,-1.25,0,47.5)">
		<g id="g12_10_">
			<g>
				<g>
					<g>
						<g id="g14_10_">
							<g id="g20_10_" transform="translate(36.8848,25.1665)">
								<path id="path22_10_" fill="#BE1931" d="M32.1-95.8c0,3.9-3.1,7-7,7c-2.4,0-4.3-1.2-5.7-2.8c-1.2,1.8-3.3,2.8-5.7,2.8
									c-3.9,0-7-3.1-7-7c0-0.6,0-1,0.2-1.6c0.9-6,7.8-12.4,12.6-14.2c4.9,1.8,11.5,8.1,12.6,14.2C32.1-97,32.1-96.2,32.1-95.8"/>
							</g>
						</g>
					</g>
				</g>
			</g>
		</g>
	</g>
</g>
<g id="g3">
	<g id="g10_15_" transform="matrix(1.25,0,0,-1.25,0,47.5)">
		<g id="g12_18_">
			<g>
				<g>
					<g>
						<g id="g14_18_">
							<g id="g20_18_" transform="translate(12.9829,33.438)">
								<path id="path22_18_" fill="#FFAC33" d="M240.6-156.1c3.5,0.2,5.8-1.3,6-5.2c0.2-3.3-3.9-5.2-6-5.2c-1.9,0-0.9,1.4,0.5,1.7
									c1.1,0.3,3.3,1.7,2.7,3.3c-0.5,1.7-3.3,2-4.7-0.2c-0.6-0.9-2.7-0.6-3,0.3C235.2-159.6,236.6-156.4,240.6-156.1"/>
							</g>
							<g id="g24_16_" transform="translate(36.75,15.6162)">
								<path id="path26_16_" fill="#E1E8ED" d="M234.7-151.7c0,5.8-3.3,8.5-11,8.5c-0.8,0-1.6,0-2.2-0.2c-0.9,1.7-3.6,2-6.3,2
									c-3.3,0-7.4-4.6-7.4-8.2c0-3.6,2.7-3.6,5.8-3.6c0.2-2.4,0.9-4.4,2.4-5.5c0.2-0.8,1.1-4.4,3-4.4c0.9,0,1.6,1.3,1.9,2.5
									c0.8-0.2,1.7-0.2,2.8-0.2c1.3,0,2.5,0.2,3.5,0.3c0-1.3,0.5-2.7,1.6-2.7c1.7,0,3.3,3.8,3.6,4.9
									C233.9-156.6,234.7-154.6,234.7-151.7"/>
							</g>
							<g id="g28_16_" transform="translate(7,21.2139)">
								<path id="path30_14_" fill="#292F33" d="M241.9-153.2c0-0.6-0.5-1.1-1.1-1.1c-0.6,0-1.1,0.5-1.1,1.1c0,0.6,0.5,1.1,1.1,1.1
									C241.4-152.1,241.9-152.8,241.9-153.2"/>
							</g>
							<g id="g32_13_" transform="translate(18.5625,32.6611)">
								<path id="path34_12_" fill="#FFCC4D" d="M239.1-156.1c3.3-1.1,4.4-3.3,3-6.8c-0.9-3-5.5-3.3-7.7-2.5
									c-1.7,0.6-0.5,1.7,1.1,1.4c1.3-0.2,3.5,0.5,3.8,2c0.2,1.7-2.2,3-4.4,1.6c-0.9-0.6-4.4-0.3-4.1,0.8
									C231.3-157.2,235.6-154.8,239.1-156.1"/>
							</g>
						</g>
					</g>
				</g>
			</g>
		</g>
	</g>
	<g id="g10_11_" transform="matrix(1.25,0,0,-1.25,0,47.5)">
		<g id="g12_14_">
			<g>
				<g>
					<g>
						<g id="g14_14_">
							<g id="g20_14_" transform="translate(34.7988,36.9946)">
								<path id="path22_14_" fill="#99AAB5" d="M205.9-155.6c-0.3,0.2-6-3-7.5-6.8c-1-2.2-1.3-4.6-1.3-6c-1.1,0.6-2.2,1-3.3,1
									c-1,0-2.1-0.3-3.3-1c0,1.6-0.3,3.8-1.3,6c-1.4,3.8-7.2,7.2-7.5,6.8c-0.3-0.2,3.3-12.2,5.2-15.9c-1.8-1.9-3.3-4.5-3.3-6.8
									s1.3-3.8,3-4.5c1.9-0.6,3.8,0.6,6.8,0.6c3,0,4.9-1.4,6.8-0.6c1.7,0.6,3,2.1,3,4.5s-1.4,4.8-3.3,6.8
									C202.7-167.8,206.2-155.7,205.9-155.6"/>
							</g>
							<g id="g24_12_" transform="translate(13.6919,19.0781)">
								<path id="path26_12_" fill="#F4ABBA" d="M210.9-151.3c-0.2,1.1-0.5,2.7-1.1,4.1c-1.1,3-4.5,5.6-4.6,5.6
									c-0.3-0.2,1.9-7.8,3.7-11.3C209.5-152.3,210.2-151.8,210.9-151.3"/>
							</g>
							<g id="g28_12_" transform="translate(27.0303,16.9063)">
								<path id="path30_10_" fill="#F4ABBA" d="M207.9-150.7c1.6,3.5,3.8,11.3,3.7,11.3c-0.3,0.2-3.3-2.4-4.6-5.6
									c-0.6-1.6-1-3-1.1-4.1C206.3-149.6,207.1-150.1,207.9-150.7"/>
							</g>
							<g id="g32_9_" transform="translate(26,7)">
								<path id="path34_9_" fill="#CCD6DD" d="M208-148.3c0-2.1-2.4-3.8-5.2-3.8s-5.2,1.8-5.2,3.8s2.4,3.8,5.2,3.8
									C205.8-144.5,208-146.4,208-148.3"/>
							</g>
							<g id="g36_10_" transform="translate(22,6.4219)">
								<path id="path38_10_" fill="#FFFFFF" d="M209-148.2c0-2.1-0.2-2.2-2.2-2.2c-2.1,0-2.2,0.2-2.2,2.2
									C204.4-147.4,209-147.4,209-148.2"/>
							</g>
							<g id="g40_10_" transform="translate(15,12.6719)">
								<path id="path42_10_" fill="#292F33" d="M210.6-149.7c0-0.6-0.5-1.1-1.1-1.1c-0.6,0-1.1,0.5-1.1,1.1c0,0.6,0.5,1.1,1.1,1.1
									S210.6-149.1,210.6-149.7"/>
							</g>
							<g id="g44_10_" transform="translate(26,12.6719)">
								<path id="path46_10_" fill="#292F33" d="M208-149.7c0-0.6-0.5-1.1-1.1-1.1s-1.1,0.5-1.1,1.1c0,0.6,0.5,1.1,1.1,1.1
									C207.4-148.6,208-149.1,208-149.7"/>
							</g>
							<g id="g48_9_" transform="translate(22,11.1719)">
								<path id="path50_9_" fill="#F4ABBA" d="M209-149.5c0-1.3-1.4-2.2-2.2-2.2s-2.2,1-2.2,2.2C204.4-148.1,209-148.1,209-149.5"
									/>
							</g>
						</g>
					</g>
				</g>
			</g>
		</g>
	</g>
	<g id="g10_16_" transform="matrix(1.25,0,0,-1.25,0,47.5)">
		<g id="g12_19_">
			<g>
				<g>
					<g>
						<g id="g14_19_">
							<g id="g20_19_" transform="translate(35.751,15)">
								<path id="path22_19_" fill="#77B255" d="M177-151c-2.4,0-8.5-2.5-11.3-5.2v8.8c0,0.4-0.3,0.7-0.7,0.7s-0.7-0.3-0.7-0.7v-8.8
									c-2.7,2.5-8.8,5.2-11.4,5.2c-0.6,0,7.7-9.8,11.4-9.1v-0.3c0-0.4,0.3-0.7,0.7-0.7s0.7,0.3,0.7,0.7v0.3
									C169.4-160.8,177.6-151,177-151"/>
							</g>
							<g id="g24_17_" transform="translate(26,23.5835)">
								<path id="path26_17_" fill="#EA596E" d="M179.8-153.4c0-4.5-1.2-6.7-4.9-6.7c-3.7,0-4.9,2.2-4.9,6.7s3.6,9.5,4.9,9.5
									C176.1-143.9,179.8-148.9,179.8-153.4"/>
							</g>
							<g id="g28_17_" transform="translate(23.7949,35)">
								<path id="path30_15_" fill="#F4ABBA" d="M180.4-156.8c-0.3,0-2.8-10.2-3.4-13.7c-0.6,3.6-3.1,13.7-3.6,13.7
									c-0.7,0-4.2-6.4-4.2-9.3s4.2-5.6,7.7-5.6c3.7,0,7.7,2.8,7.7,5.6C184.7-163.3,181.3-156.8,180.4-156.8"/>
							</g>
						</g>
					</g>
				</g>
			</g>
		</g>
	</g>
	<g id="g10_6_" transform="matrix(1.25,0,0,-1.25,0,47.5)">
		<g id="g12_9_">
			<g>
				<g>
					<g>
						<g id="g14_9_">
							<g id="g20_9_" transform="translate(36.8848,25.1665)">
								<path id="path22_9_" fill="#BE1931" d="M120.5-152.6c0,4-3.3,7.3-7.3,7.3c-2.5,0-4.5-1.2-5.9-2.9c-1.2,1.9-3.4,2.9-5.9,2.9
									c-4,0-7.3-3.3-7.3-7.3c0-0.6,0-1.1,0.2-1.7c0.9-6.2,8.1-12.9,13-14.7c5.1,1.9,12,8.4,13,14.7
									C120.5-153.7,120.5-153.1,120.5-152.6"/>
							</g>
						</g>
					</g>
				</g>
			</g>
		</g>
	</g>
	<g id="g10_8_" transform="matrix(1.25,0,0,-1.25,0,47.5)">
		<g id="g12_11_">
			<g>
				<g>
					<g>
						<g id="g14_11_">
							<g id="g20_11_" transform="translate(19,33)">
								<path id="path22_11_" fill="#F4900C" d="M96.4-156.9c5.2,0,9.2-2.8,10.4-1.3c0.1,0.3,0.1,0.4,0.1,0.7
									c0,1.3-4.9,3.6-10.6,3.6c-6,0-10.6-2.1-10.6-3.6c0-0.3,0-0.4,0.1-0.7C87.1-159.7,91.3-156.9,96.4-156.9"/>
							</g>
							<g id="g24_9_" transform="translate(19,34)">
								<path id="path26_9_" fill="#FFCC4D" d="M96.4-157.3c-4.3,0-7.5-1.3-8.8-1.8c-0.3-0.1-0.4-0.6-0.3-0.9
									c0.1-0.1,7.6-19.2,7.6-19.2s0.6-1.3,1.3-1.3c0.7,0,1.3,1.3,1.3,1.3L105-160c0,0,0.1,0.6-0.4,0.9
									C103.7-158.3,100.7-157.3,96.4-157.3"/>
							</g>
						</g>
					</g>
				</g>
			</g>
		</g>
		<g id="g28_9_">
			<g>
				<g>
					<g>
						<g>
							<g>
								<g>
									<g>
										<g>
											<g>
												<g>
													<g>
														<g>
															<g>
																<g>
																	<defs>
																		<path id="SVGID_5_" d="M106.7-125.1c-0.3-0.1-0.4-0.6-0.3-0.9l0,0c0.1-0.3,7.5-19.2,7.5-19.2l0,0
																			c0,0,0.7-1.3,1.3-1.3l0,0c0.7,0,1.3,1.3,1.3,1.3l0,0L124-126c0,0,0.1,0.6-0.4,0.9l0,0c-1.2,0.6-4.3,1.8-8.5,1.8
																			l0,0C111.1-123.3,107.8-124.5,106.7-125.1"/>
																	</defs>
																	<clipPath id="SVGID_6_">
																		<use xlink:href="#SVGID_5_"  overflow="visible"/>
																	</clipPath>
																	<g id="g30_2_" clip-path="url(#SVGID_6_)">
																		<g id="g36_7_" transform="translate(19,6)">
																			<path id="path38_7_" fill="#BE1931" d="M96.4-148.9c0-1.5-1.2-2.8-2.8-2.8c-1.5,0-2.8,1.2-2.8,2.8
																				s1.2,2.8,2.8,2.8C95.2-146.1,96.4-147.5,96.4-148.9"/>
																		</g>
																		<g id="g40_8_" transform="translate(18,17)">
																			<path id="path42_8_" fill="#BE1931" d="M96.6-152.3c0-1.5-1.2-2.8-2.8-2.8c-1.5,0-2.8,1.2-2.8,2.8
																				c0,1.5,1.2,2.8,2.8,2.8C95.4-149.5,96.6-150.6,96.6-152.3"/>
																		</g>
																		<g id="g44_8_" transform="translate(21,29)">
																			<path id="path46_8_" fill="#BE1931" d="M95.7-155.7c0-1.5-1.2-2.8-2.8-2.8c-1.5,0-2.8,1.2-2.8,2.8
																				c0,1.5,1.2,2.8,2.8,2.8S95.7-154.2,95.7-155.7"/>
																		</g>
																		<g id="g48_7_" transform="translate(30,24)">
																			<path id="path50_7_" fill="#BE1931" d="M93.1-154.3c0-1.5-1.2-2.8-2.8-2.8c-1.6,0-2.8,1.2-2.8,2.8
																				c0,1.5,1.2,2.8,2.8,2.8C91.9-151.4,93.1-152.6,93.1-154.3"/>
																		</g>
																		<g id="g52_6_" transform="translate(28,12)">
																			<path id="path54_6_" fill="#BE1931" d="M93.8-150.8c0-1.5-1.2-2.8-2.8-2.8c-1.6,0-2.8,1.2-2.8,2.8
																				c0,1.5,1.2,2.8,2.8,2.8C92.6-147.9,93.8-149.1,93.8-150.8"/>
																		</g>
																		<g id="g56_4_" transform="translate(11,25)">
																			<path id="path58_4_" fill="#BE1931" d="M98.7-154.5c0-1.5-1.2-2.8-2.8-2.8c-1.5,0-2.8,1.2-2.8,2.8
																				c0,1.5,1.2,2.8,2.8,2.8C97.4-151.7,98.7-152.9,98.7-154.5"/>
																		</g>
																	</g>
																</g>
															</g>
														</g>
													</g>
												</g>
											</g>
										</g>
									</g>
								</g>
							</g>
						</g>
					</g>
				</g>
			</g>
		</g>
	</g>
	<g id="g10_19_" transform="matrix(1.25,0,0,-1.25,0,47.5)">
		<g id="g12_22_">
			<g>
				<g>
					<g>
						<g id="g14_22_">
							<g id="g20_22_" transform="translate(21.1426,4.7852)">
								<path id="path22_22_" fill="#E1E8ED" d="M66.7-147c0-1-0.8-1.6-1.6-1.6c-1,0-1.6,0.8-1.6,1.6c0,1,0.8,1.6,1.6,1.6
									C65.9-145.1,66.7-145.9,66.7-147"/>
							</g>
							<g id="g24_19_" transform="translate(28.6426,21.3569)">
								<path id="path26_19_" fill="#E1E8ED" d="M65.1-150.9c0,4-3.3,7.5-7.5,7.5c-4,0-7.5-3.3-7.5-7.5c0-4-0.8-12.7-0.8-12.7
									c0-1,0.8-1.6,1.6-1.6c1,0,1.6,0.8,1.6,1.6c0-1,0.8-1.6,1.6-1.6c1,0,1.6,0.8,1.6,1.6H59c0-1,0.8-1.6,1.6-1.6
									c1,0,1.6,0.8,1.6,1.6c0-1,0.8-1.6,1.6-1.6c1,0,1.6,0.8,1.6,1.6C65.9-163.4,65.1-154.9,65.1-150.9"/>
							</g>
							<g id="g28_20_" transform="translate(21,34)">
								<path id="path30_18_" fill="#DD2E44" d="M66.8-153.8c0-1.6-1.1-4.4-1.4-4.4c-0.5,0-1.4,2.9-1.4,4.4c0,1.6,1.1,2.2,1.4,2.2
									C65.7-151.6,66.8-152.2,66.8-153.8"/>
							</g>
							<g id="g32_16_" transform="translate(16.6348,4)">
								<path id="path34_15_" fill="#DD2E44" d="M67.9-146.5c0,1.9,1.3,6,1.7,6c0.5,0,1.7-4.1,1.7-6c0-1.9-1.3-2.2-1.7-2.2
									C69.1-149,67.9-148.7,67.9-146.5"/>
							</g>
							<g id="g36_13_" transform="translate(26,14.5)">
								<path id="path38_13_" fill="#F4900C" d="M65.4-149.2c0-1.1-3.6-3.3-5.2-3.3c-1.6,0-5.2,2.2-5.2,3.3c0,1.1,3.6,3.3,5.2,3.3
									C61.9-145.7,65.4-148.1,65.4-149.2"/>
							</g>
							<g id="g40_13_" transform="translate(26,14.5)">
								<path id="path42_13_" fill="#FFAC33" d="M65.4-149.2c0-1.1-10.5-1.1-10.5,0c0,1.1,3.6,3.3,5.2,3.3
									C61.9-145.7,65.4-148.1,65.4-149.2"/>
							</g>
							<g id="g44_13_" transform="translate(14,18.5)">
								<path id="path46_13_" fill="#292F33" d="M68.2-150.2c0-0.6-0.5-1.1-1.1-1.1s-1.1,0.5-1.1,1.1c0,0.6,0.5,1.1,1.1,1.1
									C67.9-149.1,68.2-149.6,68.2-150.2"/>
							</g>
							<g id="g48_12_" transform="translate(27,18.5)">
								<path id="path50_12_" fill="#292F33" d="M65.2-150.2c0-0.6-0.5-1.1-1.1-1.1c-0.6,0-1.1,0.5-1.1,1.1c0,0.6,0.5,1.1,1.1,1.1
									C64.9-149.1,65.2-149.6,65.2-150.2"/>
							</g>
						</g>
					</g>
				</g>
			</g>
		</g>
	</g>
	<g id="g10_17_" transform="matrix(1.25,0,0,-1.25,0,47.5)">
		<g id="g12_20_">
			<g>
				<g>
					<g>
						<g id="g14_20_">
							<g id="g20_20_" transform="translate(18,19)">
								<path id="path22_20_" fill="#E1E8ED" d="M38.2-152.2c0-3.8-2.6-6.8-5.8-6.8c-3.2,0-5.8,3-5.8,6.8s2.6,6.8,5.8,6.8
									C35.6-145.4,38.2-148.5,38.2-152.2"/>
							</g>
							<g id="g24_18_" transform="translate(37,19)">
								<path id="path26_18_" fill="#E1E8ED" d="M32.4-152.2c0-3.8-2.6-6.8-5.8-6.8s-5.8,3-5.8,6.8s2.6,6.8,5.8,6.8
									C29.8-145.4,32.4-148.5,32.4-152.2"/>
							</g>
							<g id="g28_18_" transform="translate(9,15)">
								<path id="path30_16_" fill="#292F33" d="M41.1-151c0-1.2-0.9-2-2-2c-1.2,0-2,0.9-2,2c0,1.2,0.9,2,2,2
									C40.1-149,41.1-149.8,41.1-151"/>
							</g>
							<g id="g32_14_" transform="translate(28,15)">
								<path id="path34_13_" fill="#292F33" d="M35.2-151c0-1.2-0.9-2-2-2c-1.2,0-2,0.9-2,2c0,1.2,0.9,2,2,2
									C34.2-149,35.2-149.8,35.2-151"/>
							</g>
						</g>
					</g>
				</g>
			</g>
		</g>
	</g>
	<g id="g10_10_" transform="matrix(1.25,0,0,-1.25,0,47.5)">
		<g id="g12_13_">
			<g>
				<g>
					<g>
						<g id="g14_13_">
							<g id="g20_13_" transform="translate(34.7988,36.9946)">
								<path id="path22_13_" fill="#99AAB5" d="M178.4-97.8c-0.3,0.2-6.2-3.1-7.7-7c-1-2.3-1.3-4.7-1.3-6.2c-1.1,0.7-2.3,1-3.4,1
									c-1,0-2.1-0.3-3.4-1c0,1.6-0.3,3.9-1.3,6.2c-1.5,3.9-7.3,7.3-7.7,7c-0.3-0.2,3.4-12.5,5.4-16.3c-1.8-2-3.4-4.6-3.4-7
									c0-2.4,1.3-3.9,3.1-4.6c2-0.7,3.9,0.7,7,0.7c3.1,0,5.1-1.5,7-0.7c1.8,0.7,3.1,2.1,3.1,4.6s-1.5,4.9-3.4,7
									C175.2-110.4,178.8-98.2,178.4-97.8"/>
							</g>
							<g id="g24_10_" transform="translate(13.6919,19.0781)">
								<path id="path26_10_" fill="#F4ABBA" d="M183.1-94c-0.2,1.1-0.5,2.8-1.1,4.2c-1.1,3.1-4.6,5.7-4.7,5.7
									c-0.3-0.2,2-8,3.7-11.6C181.6-94.9,182.2-94.4,183.1-94"/>
							</g>
							<g id="g28_10_" transform="translate(27.0303,16.9063)">
								<path id="path30_8_" fill="#F4ABBA" d="M180.2-93.4c1.6,3.6,3.9,11.6,3.7,11.6c-0.3,0.2-3.4-2.4-4.7-5.7
									c-0.7-1.6-1-3.1-1.1-4.2C178.6-92.2,179.4-92.7,180.2-93.4"/>
							</g>
							<g id="g32_5_" transform="translate(26,7)">
								<path id="path34_6_" fill="#CCD6DD" d="M180.4-91.3c0-2.1-2.4-3.9-5.4-3.9s-5.4,1.8-5.4,3.9c0,2.1,2.4,3.9,5.4,3.9
									C178.1-87.4,180.4-89.2,180.4-91.3"/>
							</g>
							<g id="g36_9_" transform="translate(22,6.4219)">
								<path id="path38_9_" fill="#FFFFFF" d="M181.3-91.2c0-2.1-0.2-2.3-2.3-2.3s-2.3,0.2-2.3,2.3
									C176.6-90.3,181.3-90.3,181.3-91.2"/>
							</g>
							<g id="g40_9_" transform="translate(15,12.6719)">
								<path id="path42_9_" fill="#292F33" d="M182.7-92.6c0-0.7-0.5-1.1-1.1-1.1c-0.7,0-1.1,0.5-1.1,1.1s0.5,1.1,1.1,1.1
									S182.7-92,182.7-92.6"/>
							</g>
							<g id="g44_9_" transform="translate(26,12.6719)">
								<path id="path46_9_" fill="#292F33" d="M180.4-92.6c0-0.7-0.5-1.1-1.1-1.1c-0.6,0-1.1,0.5-1.1,1.1s0.5,1.1,1.1,1.1
									C179.7-91.5,180.4-92,180.4-92.6"/>
							</g>
							<g id="g48_8_" transform="translate(22,11.1719)">
								<path id="path50_8_" fill="#F4ABBA" d="M181.3-92.2c0-1.3-1.5-2.3-2.3-2.3c-0.8,0-2.3,1-2.3,2.3
									C176.6-90.8,181.3-90.8,181.3-92.2"/>
							</g>
						</g>
					</g>
				</g>
			</g>
		</g>
	</g>
	<g id="g10_28_" transform="matrix(1.25,0,0,-1.25,0,47.5)">
		<g id="g12_29_">
			<g>
				<g>
					<g>
						<g id="g14_29_">
							<g id="g20_29_" transform="translate(36.8848,25.1665)">
								<path id="path22_29_" fill="#BE1931" d="M120-98.3c0,4.1-3.3,7.3-7.3,7.3c-2.5,0-4.5-1.2-5.9-3c-1.2,1.9-3.4,3-5.9,3
									c-4.1,0-7.3-3.3-7.3-7.3c0-0.6,0-1.1,0.2-1.7c0.9-6.2,8.1-13,13.1-14.8c5.2,1.9,12,8.4,13.1,14.8
									C120-99.4,120-98.8,120-98.3"/>
							</g>
						</g>
					</g>
				</g>
			</g>
		</g>
	</g>
	<g id="g10_13_" transform="matrix(1.25,0,0,-1.25,0,47.5)">
		<g id="g12_16_">
			<g>
				<g>
					<g>
						<g id="g14_16_">
							<g id="g20_16_" transform="translate(35.751,15)">
								<path id="path22_16_" fill="#77B255" d="M91.9-92.8c-2.5,0-8.8-2.6-11.8-5.4v9.1c0,0.5-0.3,0.8-0.8,0.8
									c-0.5,0-0.8-0.3-0.8-0.8v-9.1c-2.8,2.6-9.1,5.4-11.9,5.4c-0.6,0,8-10.2,11.9-9.4v-0.3c0-0.5,0.3-0.8,0.8-0.8
									c0.5,0,0.8,0.3,0.8,0.8v0.3C84-103,92.4-92.8,91.9-92.8"/>
							</g>
							<g id="g24_14_" transform="translate(26,23.5835)">
								<path id="path26_14_" fill="#EA596E" d="M94.3-94.9c0-4.6-1.2-7-5.1-7s-5.1,2.3-5.1,7s3.7,9.9,5.1,9.9
									C90.4-85.1,94.3-90.2,94.3-94.9"/>
							</g>
							<g id="g28_14_" transform="translate(23.7949,35)">
								<path id="path30_12_" fill="#F4ABBA" d="M94.9-97.9c-0.3,0-2.9-10.7-3.6-14.2c-0.6,3.7-3.2,14.2-3.7,14.2
									c-0.8,0-4.3-6.7-4.3-9.8s4.3-5.9,8-5.9c3.9,0,8,2.9,8,5.9C99.4-104.7,95.7-97.9,94.9-97.9"/>
							</g>
						</g>
					</g>
				</g>
			</g>
		</g>
	</g>
	<g id="g10_12_" transform="matrix(1.25,0,0,-1.25,0,47.5)">
		<g id="g12_15_">
			<g>
				<g>
					<g>
						<g id="g14_15_">
							<g id="g20_15_" transform="translate(34.7988,36.9946)">
								<path id="path22_15_" fill="#99AAB5" d="M62.5-95.8c-0.3,0.1-5.6-2.8-6.9-6.3c-0.9-2.1-1.2-4.2-1.2-5.6
									c-1,0.6-2.1,0.9-3.1,0.9c-0.9,0-1.9-0.3-3.1-0.9c0,1.5-0.3,3.5-1.2,5.6c-1.3,3.5-6.6,6.6-6.9,6.3
									c-0.3-0.1,3.1-11.3,4.8-14.7c-1.6-1.8-3.1-4.1-3.1-6.3c0-2.2,1.2-3.5,2.8-4.1c1.8-0.6,3.5,0.6,6.3,0.6
									c2.8,0,4.5-1.3,6.3-0.6c1.6,0.6,2.8,1.9,2.8,4.1s-1.3,4.4-3.1,6.3C59.6-107.1,62.8-96.1,62.5-95.8"/>
							</g>
							<g id="g24_13_" transform="translate(13.6919,19.0781)">
								<path id="path26_13_" fill="#F4ABBA" d="M68.8-90.6c-0.1,1-0.4,2.5-1,3.8c-1,2.8-4.1,5.1-4.2,5.1c-0.3-0.1,1.8-7.2,3.4-10.4
									C67.5-91.4,68.1-91,68.8-90.6"/>
							</g>
							<g id="g28_13_" transform="translate(27.0303,16.9063)">
								<path id="path30_11_" fill="#F4ABBA" d="M64.9-89.8c1.5,3.2,3.5,10.4,3.4,10.4c-0.3,0.1-3.1-2.2-4.2-5.1
									c-0.6-1.5-0.9-2.8-1-3.8C63.6-88.8,64.3-89.2,64.9-89.8"/>
							</g>
							<g id="g32_11_" transform="translate(26,7)">
								<path id="path34_10_" fill="#CCD6DD" d="M65.2-86.9c0-1.9-2.2-3.5-4.8-3.5c-2.6,0-4.8,1.6-4.8,3.5c0,1.9,2.2,3.5,4.8,3.5
									C63.1-83.4,65.2-85,65.2-86.9"/>
							</g>
							<g id="g36_11_" transform="translate(22,6.4219)">
								<path id="path38_11_" fill="#FFFFFF" d="M66.4-86.8c0-1.9-0.1-2.1-2.1-2.1c-1.9,0-2.1,0.1-2.1,2.1
									C62.3-86,66.4-86,66.4-86.8"/>
							</g>
							<g id="g40_11_" transform="translate(15,12.6719)">
								<path id="path42_11_" fill="#292F33" d="M68.4-88.7c0-0.6-0.4-1-1-1s-1,0.4-1,1s0.4,1,1,1C68-87.7,68.4-88.1,68.4-88.7"/>
							</g>
							<g id="g44_11_" transform="translate(26,12.6719)">
								<path id="path46_11_" fill="#292F33" d="M65.2-88.7c0-0.6-0.4-1-1-1s-1,0.4-1,1s0.4,1,1,1C64.6-87.7,65.2-88.1,65.2-88.7"/>
							</g>
							<g id="g48_10_" transform="translate(22,11.1719)">
								<path id="path50_10_" fill="#F4ABBA" d="M66.4-88.2c0-1.2-1.3-2.1-2.1-2.1c-0.7,0-2.1,0.9-2.1,2.1
									C62.3-86.9,66.4-86.9,66.4-88.2"/>
							</g>
						</g>
					</g>
				</g>
			</g>
		</g>
	</g>
	<g id="g10_14_" transform="matrix(1.25,0,0,-1.25,0,47.5)">
		<g id="g12_17_">
			<g>
				<g>
					<g>
						<g id="g14_17_">
							<g id="g20_17_" transform="translate(36,19)">
								<path id="path22_17_" fill="#FFCC4D" d="M34.3-91.9c0-6.7-5.4-12.3-12.3-12.3c-6.9,0-12.3,5.4-12.3,12.3
									c0,6.7,5.4,12.3,12.3,12.3C28.8-80,34.3-85.3,34.3-91.9"/>
							</g>
							<g id="g24_15_" transform="translate(29.457,19.2031)">
								<path id="path26_15_" fill="#664500" d="M36-92c0,0.2-1,2.4-3.1,2.4s-3.1-2.2-3.1-2.4c0-0.1,0-0.3,0.1-0.4
									c0.1-0.2,0.3-0.2,0.4,0c0,0,0.9,0.6,2.7,0.6c1.8,0,2.5-0.6,2.7-0.6h0.2c0.2,0,0.2,0,0.2,0.2C36-92.3,36-92.1,36-92"/>
							</g>
							<g id="g28_15_" transform="translate(17.457,19.2031)">
								<path id="path30_13_" fill="#664500" d="M39.5-92c0,0.2-1,2.4-3.1,2.4c-2.1,0-3.1-2.2-3.1-2.4c0-0.1,0-0.3,0.2-0.4
									c0.1-0.2,0.3-0.2,0.4,0c0,0,0.9,0.6,2.7,0.6s2.5-0.6,2.7-0.6h0.1c0.2,0,0.2,0,0.2,0.2C39.5-92.3,39.5-92.1,39.5-92"/>
							</g>
							<g id="g32_12_" transform="translate(32,20.9995)">
								<path id="path34_11_" fill="#664500" d="M35.5-92.6c-0.3,0-0.6,0.2-0.6,0.4c-1.2,3.1-4.5,3.9-4.5,3.9
									c-0.4,0.1-0.6,0.4-0.6,0.9c0.1,0.4,0.4,0.6,0.9,0.6c0.1,0,3.9-0.9,5.5-4.6c0.2-0.3,0-0.7-0.4-0.9
									C35.6-92.6,35.5-92.6,35.5-92.6"/>
							</g>
							<g id="g36_12_" transform="translate(5.9995,20.9995)">
								<path id="path38_12_" fill="#664500" d="M42.6-92.6c-0.1,0-0.1,0-0.3,0c-0.3,0.2-0.6,0.6-0.4,0.9c1.5,3.9,5.4,4.6,5.5,4.6
									c0.4,0.2,0.7-0.1,0.9-0.6c0.1-0.4-0.2-0.7-0.6-0.9c-0.2,0-3.1-0.7-4.5-3.9C43.2-92.4,42.9-92.6,42.6-92.6"/>
							</g>
							<g id="g40_12_" transform="translate(19,15)">
								<path id="path42_12_" fill="#664500" d="M39-90.8c-2.5,0-4.3,0.3-6.4,0.7c-0.4,0.2-1.3,0-1.3-1.3c0-2.8,3.3-6.4,7.8-6.4
									c4.5,0,7.8,3.6,7.8,6.4c0,1.3-0.9,1.5-1.3,1.3C43.4-90.5,41.6-90.8,39-90.8"/>
							</g>
							<g id="g44_12_" transform="translate(10,14)">
								<path id="path46_12_" fill="#FFFFFF" d="M41.6-90.5c0,0,2.1-0.7,6.4-0.7c4.2,0,6.4,0.7,6.4,0.7s-1.3-2.8-6.4-2.8
									C43.1-93.4,41.6-90.5,41.6-90.5"/>
							</g>
							<g id="g48_11_" transform="translate(11.8472,8.7705)">
								<path id="path50_11_" fill="#5DADEC" d="M41-89.2c-0.4-1.9-2.4-3.1-4.3-2.5c-1.9,0.4-3.1,2.4-2.5,4.3c0.4,1.9,4.5,6.3,5.2,6
									C40.1-81.4,41.6-87.1,41-89.2"/>
							</g>
							<g id="g52_7_" transform="translate(26.1328,8.7705)">
								<path id="path54_7_" fill="#5DADEC" d="M36.9-89.2c0.4-1.9,2.4-3.1,4.3-2.5c1.9,0.4,3.1,2.4,2.5,4.3c-0.6,1.9-4.5,6.3-5.2,6
									C37.9-81.4,36.4-87.1,36.9-89.2"/>
							</g>
						</g>
					</g>
				</g>
			</g>
		</g>
	</g>
</g>
<g id="f1">
	<g>
		<g>
			<g>
				<g id="g14_4_">
					<g id="g20_4_" transform="translate(37,19)">
						<path id="path22_8_" fill="#CCD6DD" d="M95.1,321.2c0,16.4-13.2,29.5-29.5,29.5S36,337.6,36,321.2s13.2-29.5,29.5-29.5
							C81.6,291.8,95.1,305.1,95.1,321.2"/>
					</g>
					<g id="g24_4_" transform="translate(33,19)">
						<path id="path26_8_" fill="#3B88C3" d="M92.5,321.2c0,12.6-10.2,22.9-22.9,22.9s-23-9.9-23-22.9s10.2-22.9,22.9-22.9
							S92.5,308.6,92.5,321.2"/>
					</g>
					<g id="g28_5_" transform="translate(29,19)">
						<path id="path30_5_" fill="#DD2E44" d="M90,321.2c0,8.9-7.5,16.4-16.4,16.4s-16.4-7.5-16.4-16.4s7.5-16.4,16.4-16.4
							S90,312,90,321.2"/>
					</g>
					<g id="g32_8_" transform="translate(25,19)">
						<path id="path34_8_" fill="#FFAC33" d="M87.5,321.2c0,5.5-4.4,9.9-9.9,9.9s-9.9-4.4-9.9-9.9s4.4-9.9,9.9-9.9
							C83,311.4,87.5,316.1,87.5,321.2"/>
					</g>
					<g id="g36_8_" transform="translate(35.8643,7.8008)">
						<path id="path38_8_" d="M94.5,350.8c-0.6,0.4-2.1,1-3.1,1c-3.2,0-7.6-1.2-10.5-3.9l-4.8-6.5c-0.4-0.4-0.6-1-0.1-1.5
							c0.1-0.6-1.2-1-0.6-1h8.2c3.1,0,7,2.1,9.8,5l0.6,0.6c1.2,1.2,2.1,2.6,2.1,3.9C95.6,349.3,95.2,350.3,94.5,350.8"/>
					</g>
					<g id="g40_3_" transform="translate(29.3047,1.7959)">
						<path id="path42_3_" d="M90.1,366.8L90.1,366.8c-1.2,0-2.6-0.6-4.2-2.1l-1-0.6c-3.1-2.6-5.5-6.6-5.5-9.9v-8.6
							c0-0.6,1,1,1.2,0.6c0.6-0.1,1.5-0.1,2.1,0.1l5.4,5.4c2.9,2.9,5,7.6,5,10.9c0,1.1-0.1,2.1-1,2.9
							C92,366.3,91.2,366.8,90.1,366.8"/>
					</g>
					<g id="g44_6_" transform="translate(32.3447,5.0361)">
						<path id="path46_6_" fill="#C1694F" d="M92.2,358.2c-0.4,0-1-0.1-1.1-0.4l-23-23c-0.6-0.6-0.6-1.8,0-2.2
							c0.6-0.6,1.8-0.6,2.2,0l22.9,23c0.6,0.6,0.6,1.8,0,2.2C92.8,358,92.5,358.2,92.2,358.2"/>
					</g>
				</g>
			</g>
		</g>
	</g>
</g>
<g id="f2">
	<g id="g12_5_">
		<g>
			<g>
				<g>
					<g>
						<g id="g14_5_">
							<g id="g20_6_" transform="translate(16.373,35.978)">
								<path id="path22_7_" fill="#5C913B" d="M175.8,276.5c-2.9,2.9-10.9,13.8-6.6,23c4.2,9.8,9.8,3.8,12.1-4.2
									c1.2-4.2,1.2-9.8-1.2-17.6C178.7,273.7,175.8,276.5,175.8,276.5"/>
							</g>
							<g id="g24_6_" transform="translate(35.6768,16.6738)">
								<path id="path26_7_" fill="#5C913B" d="M188.2,327.6c-2.9,2.9-13.8,10.9-23,6.6c-9.4-4.2-3.8-9.8,4.2-12.1
									c4.2-1.2,9.8-1.2,17.6,1.2C191.2,324.7,188.2,327.6,188.2,327.6"/>
							</g>
							<g id="g28_7_" transform="translate(33.3145,30.6826)">
								<path id="path30_7_" fill="#F4900C" d="M186.8,290.3c0,0-0.1-2.9-1.2-3.8c-1-1-3.2-1-3.2-1c-2.9,0-34,4.2-39.4,31.5
									c-1,4.8,0.1,7.6,1.2,9.4c0,0.1,0,0.1,0,0.1c0.1,0.1,0.4,0.4,1,0.6c0.1,0.1,0.4,0.4,0.6,0.6h0.1c1.8,1.2,4.5,2.6,9.8,1.5
									C182.5,324.5,186.8,293.2,186.8,290.3"/>
							</g>
						</g>
					</g>
				</g>
			</g>
		</g>
	</g>
	<g id="g32_10_">
		<g>
			<g>
				<g>
					<g>
						<g>
							<g>
								<g>
									<g>
										<g>
											<g>
												<g>
													<g>
														<g>
															<g>
																<g>
																	<g>
																		<defs>
																			<path id="SVGID_7_" d="M175.9,347.9c-1,4.8,0.1,7.6,1.2,9.4l0,0c0,0.1,0,0.1,0,0.1l0,0c0.1,0.1,0.4,0.4,1,0.6
																				l0,0c0.1,0.1,0.4,0.4,0.6,0.6l0,0h0.1l0,0c1.8,1.2,4.5,2.6,9.8,1.5l0,0c27.2-5.5,31.6-36.8,31.6-39.2l0,0
																				c0,0-0.1-2.9-1.2-3.8l0,0c-1-1-3.2-1-3.2-1l0,0C212.8,316.5,181.4,320.6,175.9,347.9"/>
																		</defs>
																		<clipPath id="SVGID_8_">
																			<use xlink:href="#SVGID_7_"  overflow="visible"/>
																		</clipPath>
																		<g id="g34_4_" clip-path="url(#SVGID_8_)">
																			<g id="g40_54_" transform="translate(25.7686,26.5654)">
																				<path id="path42_53_" fill="#F7B82D" d="M182.1,301.4c-1,1-2.1,1-2.6,0l-2.6-2.6c-1-1-1-2.1,0-2.6
																					c1-1,2.1-1,2.6,0l2.6,2.6C182.7,299.2,182.7,300.6,182.1,301.4"/>
																			</g>
																			<g id="g44_39_" transform="translate(17.6812,26.5654)">
																				<path id="path46_39_" fill="#F7B82D" d="M176.8,301.4c-1,1-2.1,1-2.6,0l-2.6-2.6c-1-1-1-2.1,0-2.6
																					c1-0.6,2.1-1,2.6,0l2.6,2.6C177.5,299.2,177.5,300.6,176.8,301.4"/>
																			</g>
																			<g id="g48_33_" transform="translate(20.1074,28.9922)">
																				<path id="path50_33_" fill="#F7B82D" d="M178.5,294.9c-1,1-2.1,1-2.6,0l-2.6-2.6c-1-1-1-2.1,0-2.6
																					c1-1,2.1-1,2.6,0l2.6,2.6C179,293,179,294.3,178.5,294.9"/>
																			</g>
																			<g id="g52_35_" transform="translate(15.2559,24.1392)">
																				<path id="path54_34_" fill="#F7B82D" d="M175.1,307.7c-1,1-2.1,1-2.6,0l-2.6-2.6c-1-1-1-2.1,0-2.6
																					c1-1,2.1-1,2.6,0l2.6,2.6C175.8,305.7,175.8,307.1,175.1,307.7"/>
																			</g>
																			<g id="g56_25_" transform="translate(28.1943,28.9922)">
																				<path id="path58_25_" fill="#F7B82D" d="M183.5,294.9c-1,1-2.1,1-2.6,0l-2.6-2.6c-1-1-1-2.1,0-2.6
																					c1-1,2.1-1,2.6,0l2.6,2.6C184.3,293,184.3,294.3,183.5,294.9"/>
																			</g>
																			<g id="g60_16_" transform="translate(30.6172,31.3828)">
																				<path id="path62_30_" fill="#F7B82D" d="M184.9,288.5c-1,1-2.1,1-2.6,0l-2.6-2.6c-1-1-1-2.1,0-2.6
																					c1-1,2.1-1,2.6,0l2.6,2.6C185.8,286.6,185.8,287.6,184.9,288.5"/>
																			</g>
																			<g id="g64_13_" transform="translate(23.3428,24.1392)">
																				<path id="path66_13_" fill="#F7B82D" d="M180.5,307.7c-1,1-2.1,1-2.6,0l-2.6-2.6c-1-1-1-2.1,0-2.6
																					c1-1,2.1-1,2.6,0l2.6,2.6C181.2,305.7,181.2,307.1,180.5,307.7"/>
																			</g>
																			<g id="g68_13_" transform="translate(20.915,21.7134)">
																				<path id="path70_13_" fill="#F7B82D" d="M178.7,314.1c-1,1-2.1,1-2.6,0l-2.6-2.6c-1-1-1-2.1,0-2.6
																					c1-1,2.1-1,2.6,0l2.6,2.6C179.6,312.3,179.6,313.4,178.7,314.1"/>
																			</g>
																			<g id="g72_13_" transform="translate(16.064,16.8613)">
																				<path id="path74_13_" fill="#F7B82D" d="M175.8,327.1c-1,1-2.1,1-2.6,0l-2.6-2.6c-1-1-1-2.1,0-2.6
																					c1-1,2.1-1,2.6,0l2.6,2.6C176.5,324.9,176.5,326.3,175.8,327.1"/>
																			</g>
																			<g id="g76_10_" transform="translate(18.4902,19.2871)">
																				<path id="path78_10_" fill="#F7B82D" d="M177,320.4c-1,1-2.1,1-2.6,0l-2.6-2.6c-1-1-1-2.1,0-2.6
																					c1-1,2.1-1,2.6,0l2.6,2.6C178,318.6,178,319.9,177,320.4"/>
																			</g>
																		</g>
																	</g>
																</g>
															</g>
														</g>
													</g>
												</g>
											</g>
										</g>
									</g>
								</g>
							</g>
						</g>
					</g>
				</g>
			</g>
		</g>
	</g>
	<g id="g80_7_">
		<g>
			<g>
				<g>
					<g>
						<g id="g82_2_">
							<g id="g88_6_" transform="translate(28.8662,13.4258)">
								<path id="path90_6_" fill="#77B255" d="M184,335.9c-11.9-3.9-25,1.1-31.8,5.9c4.8-7,9.9-20.1,5.9-31.8
									c-1.5-4.5-9.1-9.1-13.8-4.5c-1.5,1.5-3.1,3.1,0,3.1s7.6,4.5,6.1,9.1c-1.2,4.2-11.4,14.2-6.6,25.2c-0.4,0.1-1,0.4-1.2,1
									l-1.2,1.2c-1.5,1.5-1.5,3.9,0,5.5l1.2,1.2c1.5,1.5,3.9,1.5,5.5,0l1.2-1.2c0.1-0.1,0.1-0.4,0.4-0.6
									c11.6,6.5,22.9-4.5,26.9-6.1c4.5-1.5,9.1,3.1,9.1,6.1c0,3.1,1.5,1.5,3.1,0C193.2,345.2,188.5,337.4,184,335.9"/>
							</g>
						</g>
					</g>
				</g>
			</g>
		</g>
	</g>
</g>
<g id="f3">
	<g>
		<g>
			<g>
				<g id="g14_3_">
					<g id="g20_3_" transform="translate(35.9639,25.0449)">
						<path id="path22_6_" fill="#FFCC4D" d="M282.5,305.3L282.5,305.3c0,0,1.8-16.4,0-17.9c-1.5-1.5-11,1.1-13,1.5
							c-4.2-2.1-8.9-3.2-15.1-3.2c-6.1,0-11,1.2-15.1,3.2c-1.8-0.4-11.4-3.1-13-1.5c-1.8,1.8,0,18.1,0,18.1v-0.1
							c-1.2,4.2-1.8,8.8-1.8,13.2c0,8.9,5.6,16.2,12.5,20.6c0.1-10.8-3.8-22.2-9.9-22.2c-1,0-1.2,0.1-2.1,0.1
							c0.4-1.2,1.5-2.1,3.4-2.1c7,0,10.9,14.1,9.9,25c5.4,3.1,10.9,4.5,15.4,4.5s10.2-1.5,15.4-4.5c-1-11,3.1-25,9.9-25
							c2.1,0,3.1,0.6,3.4,2.1c-0.4-0.1-1.1-0.1-2.1-0.1c-6.5,0-10.2,11.9-9.9,22.2c6.6-4.5,12.5-11.6,12.5-20.8
							C284.4,314,283.6,309.4,282.5,305.3"/>
					</g>
					<g id="g24_3_" transform="translate(19,16)">
						<path id="path26_6_" fill="#292F33" d="M271.5,329.1c-3.4,0-6.5,3.1-6.5,6.5v9.9c0,3.4,3.1,6.5,6.5,6.5s6.5-3.1,6.5-6.5v-9.9
							C278.1,332.2,275.1,329.1,271.5,329.1"/>
					</g>
					<g id="g28_4_" transform="translate(18.9995,22)">
						<path id="path30_4_" fill="#67757F" d="M271.5,313.4c5,0,5,1,5,2.2c0,1.5-2.2,5-5,5c-2.2,0-5-3.2-5-5
							C266.6,314.2,267,313.4,271.5,313.4"/>
					</g>
					<g id="g32_6_" transform="translate(30.9238,16.4941)">
						<path id="path34_5_" fill="#9AAAB4" d="M279.2,327.9l-8.2,1.8c-0.4,0.1-1,0.4-0.6,1c0.4,0.4,0.4,0.6,1,0.6h0.1l6.6-1.2
							C278.5,329.3,279.1,328.5,279.2,327.9"/>
					</g>
					<g id="g36_5_" transform="translate(34.5605,19)">
						<path id="path38_5_" fill="#9AAAB4" d="M281.6,321.2L281.6,321.2l2.6-1c0.4-0.1,0.6-0.6,0.4-1.1c-0.1-0.4-0.6-0.6-1.1-0.4
							l-14.9,5c-0.4,0.1-0.6,0.6-0.4,1.1c0.1,0.1,0.4,0.6,1,0.6c0.1,0,0.1,0,0.1,0l8.9-3.1C279.4,321.6,280.5,321.2,281.6,321.2"/>
					</g>
					<g id="g40_2_" transform="translate(12.0981,15.4902)">
						<path id="path42_2_" fill="#9AAAB4" d="M267.3,330.5l-8.2-1.8c0.1,0.6,1,1.2,1.1,2.1l6.6,1.2h0.1c0.1,0,1-0.1,1-0.6
							C267.9,330.8,267.5,330.6,267.3,330.5"/>
					</g>
					<g id="g44_1_" transform="translate(11.1582,17.4746)">
						<path id="path46_1_" fill="#9AAAB4" d="M266.5,325.3l-14.9-5c-0.4-0.1-1,0.1-1.1,0.4c-0.1,0.4,0.1,1,0.4,1.1l2.6,1l0,0
							c1.1,0,2.1,0.4,3.2,1.1l8.9,3.1c0.1,0,0.1,0,0.1,0c0.1,0,0.6-0.1,1-0.6C267.2,325.8,266.9,325.4,266.5,325.3"/>
					</g>
					<g id="g48_1_" transform="translate(8.3472,26.3345)">
						<path id="path50_1_" fill="#F5F8FA" d="M265,302c-1.5,5.4,0.1,10.2,3.9,11.4c3.9,1.1,7.8-2.1,9.8-7.5
							c1.5-5.4-0.1-10.2-3.9-11.4C270.6,293.2,266.5,296.5,265,302"/>
					</g>
					<g id="g52_8_" transform="translate(29.6523,26.3345)">
						<path id="path54_8_" fill="#F5F8FA" d="M278.7,302c1.5,5.4-0.1,10.2-3.9,11.4s-7.8-2.1-9.8-7.5c-1.5-5.4,0.1-10.2,3.9-11.4
							C272.8,293.2,276.8,296.5,278.7,302"/>
					</g>
					<g id="g56_5_" transform="translate(36.7529,17.8174)">
						<path id="path58_5_" fill="#FCAB40" d="M283.1,324.4c-0.4-0.1-1.1-0.1-2.1-0.1c-7.6,0-11.6,16.4-9.8,28h10.8
							C278.8,340.4,284.8,328.9,283.1,324.4"/>
					</g>
					<g id="g60_13_" transform="translate(2.4043,18)">
						<path id="path62_8_" fill="#FCAB40" d="M260.9,323.9c-1,0-1.2,0.1-2.1,0.1c0.1-0.1,0.1-0.6,0.4-1c-3.1,3.8,3.8,16.2,0.4,28.4
							h10.8C272.6,340.2,268.5,323.9,260.9,323.9"/>
					</g>
				</g>
			</g>
		</g>
	</g>
</g>
<path id="sel" fill="#F46060" d="M221.8,396.6H172c-3.5,0-6.4-2.9-6.4-6.4l0,0c0-3.5,2.9-6.4,6.4-6.4h49.8c3.5,0,6.4,2.9,6.4,6.4
	l0,0C228.2,393.7,225.3,396.6,221.8,396.6z"/>
<g id="tt1">
	<text transform="matrix(1 0 0 1 32.704 444.5771)" fill="#FFFFFF" font-family="'FiraSans-Regular'" font-size="26">Pick an emoji and Codemoji</text>
</g>
<g id="tt2">
	<text transform="matrix(1 0 0 1 20.1611 475.7773)" fill="#FFFFFF" font-family="'FiraSans-Regular'" font-size="26">will use it in a unique formula</text>
</g>
<g id="tt3">
	<text transform="matrix(1 0 0 1 39.5341 506.9775)" fill="#FFFFFF" font-family="'FiraSans-Regular'" font-size="26">to scramble your message.</text>
</g>
</svg>
