<?xml version="1.0" encoding="utf-8"?>
<!-- Generator: Adobe Illustrator 18.0.0, SVG Export Plug-In . SVG Version: 6.00 Build 0)  -->
<!DOCTYPE svg PUBLIC "-//W3C//DTD SVG 1.1//EN" "http://www.w3.org/Graphics/SVG/1.1/DTD/svg11.dtd">
<svg version="1.1" id="s7" xmlns="http://www.w3.org/2000/svg" xmlns:xlink="http://www.w3.org/1999/xlink" x="0px" y="0px"
	 viewBox="0 0 393.1 700" enable-background="new 0 0 393.1 700" xml:space="preserve">
<polyline fill="#283344" points="0,700 0,0 393.1,0 393.1,700 "/>
<g id="text_last_onboarding">
	<g>
		<g id="tt1">
			<g>
				<text transform="matrix(1 0 0 1 64.4172 185.7427)" fill="#FFFFFF" font-family="'FiraSans-Regular'" font-size="26">Codemoji is a fun way </text>
			</g>
		</g>
		<g id="tt2">
			<g>
				<text transform="matrix(1 0 0 1 50.1921 216.9427)" fill="#FFFFFF" font-family="'FiraSans-Regular'" font-size="26">for you and your friends </text>
			</g>
		</g>
		<g id="tt3">
			<g>
				<text transform="matrix(1 0 0 1 62.1003 248.1427)" fill="#FFFFFF" font-family="'FiraSans-Regular'" font-size="26">to learn about ciphers.</text>
			</g>
		</g>
		<g id="tt4">
			<g>
				<text transform="matrix(1 0 0 1 55.2766 311.5427)" fill="#FFFFFF" font-family="'FiraSans-Regular'" font-size="26">You shouldn’t use it for </text>
			</g>
		</g>
		<g id="tt5">
			<g>
				<text transform="matrix(1 0 0 1 49.5764 342.7427)" fill="#FFFFFF" font-family="'FiraSans-Regular'" font-size="26">secure communications, </text>
			</g>
		</g>
		<g id="tt6">
			<g>
				<text transform="matrix(1 0 0 1 30.2858 373.9427)" fill="#FFFFFF" font-family="'FiraSans-Regular'" font-size="26">though. Thankfully, modern </text>
			</g>
		</g>
		<g id="tt7">
			<g>
				<text transform="matrix(1 0 0 1 73.5832 405.1427)" fill="#FFFFFF" font-family="'FiraSans-Regular'" font-size="26">encryption tools are </text>
			</g>
		</g>
		<g id="tt8">
			<g>
				<text transform="matrix(1 0 0 1 36.5383 436.3427)" fill="#FFFFFF" font-family="'FiraSans-Regular'" font-size="26">way stronger than emojis ;)</text>
			</g>
		</g>
		<g id="tt9">
			<g>
				<text transform="matrix(1 0 0 1 38.1633 498.7427)" fill="#FFFFFF" font-family="'FiraSans-Regular'" font-size="26">Ready to create and share </text>
			</g>
		</g>
		<g id="tt10">
			<g>
				<text transform="matrix(1 0 0 1 21.9641 529.9427)" fill="#FFFFFF" font-family="'FiraSans-Regular'" font-size="26">your own Codemoji message?</text>
			</g>
		</g>
	</g>
</g>
</svg>
