<?xml version="1.0" encoding="utf-8"?>
<!-- Generator: Adobe Illustrator 18.0.0, SVG Export Plug-In . SVG Version: 6.00 Build 0)  -->
<!DOCTYPE svg PUBLIC "-//W3C//DTD SVG 1.1//EN" "http://www.w3.org/Graphics/SVG/1.1/DTD/svg11.dtd">
<svg version="1.1" id="s1" xmlns="http://www.w3.org/2000/svg" xmlns:xlink="http://www.w3.org/1999/xlink" x="0px" y="0px"
	 width="393.1px" height="700px" viewBox="0 0 393.1 700" enable-background="new 0 0 393.1 700" xml:space="preserve">
<polyline fill="#283344" points="0,700 0,0 393.1,0 393.1,700 "/>
<g id="a1">
	<g id="onboarding_slide_1_A5">
		<path id="path22_87_" fill="#3B88C3" d="M369.6,167.6c0,3.5-2.8,6.2-6.2,6.2h-43.8c-3.5,0-6.2-2.8-6.2-6.2v-43.8
			c0-3.5,2.8-6.2,6.2-6.2h43.8c3.5,0,6.2,2.8,6.2,6.2V167.6z"/>
		<path id="path26_80_" fill="#FFFFFF" d="M350.6,145.8c0-5.9-3-11.1-9.1-11.1s-9.1,5.2-9.1,11.1c0,5.9,3,11.1,9.1,11.1
			C347.8,156.9,350.6,151.6,350.6,145.8 M324.9,145.8c0-10.1,6.8-17.9,16.6-17.9s16.6,8,16.6,17.9c0,10-6.8,17.9-16.6,17.9
			C331.8,163.5,324.9,155.8,324.9,145.8"/>
	</g>
	<g id="onboarding_slide_1_A3">
		<path id="path22_85_" fill="#3B88C3" d="M298.9,167.6c0,3.5-2.8,6.2-6.2,6.2h-43.8c-3.5,0-6.2-2.8-6.2-6.2v-43.8
			c0-3.5,2.8-6.2,6.2-6.2h43.8c3.5,0,6.2,2.8,6.2,6.2V167.6z"/>
		<path id="path26_78_" fill="#FFFFFF" d="M262.6,132c0-2.4,1.5-3.8,3.6-3.8s3.6,1.4,3.6,3.8v24.2h8.6c2.5,0,3.5,1.9,3.5,3.5
			c-0.1,1.6-1.4,3.2-3.5,3.2h-12.1c-2.4,0-3.8-1.5-3.8-4L262.6,132L262.6,132z"/>
	</g>
	<g id="onboarding_slide_1_A4">
		<path id="path22_83_" fill="#3B88C3" d="M228.1,167.6c0,3.5-2.8,6.2-6.2,6.2h-43.8c-3.5,0-6.2-2.8-6.2-6.2v-43.8
			c0-3.5,2.8-6.2,6.2-6.2h43.8c3.5,0,6.2,2.8,6.2,6.2V167.6z"/>
		<path id="path26_75_" fill="#FFFFFF" d="M191.9,132c0-2.4,1.5-3.8,3.6-3.8c2.1,0,3.6,1.4,3.6,3.8v24.2h8.6c2.5,0,3.5,1.9,3.5,3.5
			c-0.1,1.6-1.4,3.2-3.5,3.2h-12.1c-2.4,0-3.8-1.5-3.8-4L191.9,132L191.9,132z"/>
	</g>
	<g id="onboarding_slide_1_A2">
		<path id="path22_81_" fill="#3B88C3" d="M157.4,167.6c0,3.5-2.8,6.2-6.2,6.2h-43.8c-3.5,0-6.2-2.8-6.2-6.2v-43.8
			c0-3.5,2.8-6.2,6.2-6.2h43.8c3.5,0,6.2,2.8,6.2,6.2V167.6z"/>
		<path id="path26_73_" fill="#FFFFFF" d="M120.2,132.6c0-2.4,1.2-4.2,3.8-4.2h12c2.4,0,3.5,1.6,3.5,3.4c0,1.6-1.1,3.4-3.5,3.4h-8.5
			v7.1h8c2.4,0,3.5,1.6,3.5,3.4c0,1.6-1.2,3.4-3.5,3.4h-8v7.4h9c2.4,0,3.5,1.6,3.5,3.4c0,1.6-1.1,3.4-3.5,3.4H124
			c-2.1,0-3.8-1.5-3.8-3.6V132.6L120.2,132.6z"/>
	</g>
	<g id="onboarding_slide_1_A1">
		<path id="path22_79_" fill="#3B88C3" d="M86.6,167.6c0,3.5-2.8,6.2-6.2,6.2H36.6c-3.5,0-6.2-2.8-6.2-6.2v-43.8
			c0-3.5,2.8-6.2,6.2-6.2h43.8c3.5,0,6.2,2.8,6.2,6.2V167.6z"/>
		<path id="path26_69_" fill="#FFFFFF" d="M70.2,128.6c-2.1,0-3.9,1.8-3.9,3.9v8.6H50.8v-8.6c0-2.1-1.8-3.9-3.9-3.9
			c-2.1,0-3.9,1.8-3.9,3.9V159c0,2.1,1.8,3.9,3.9,3.9c2.1,0,3.9-1.8,3.9-3.9v-10.1h15.6V159c0,2.1,1.8,3.9,3.9,3.9
			c2.1,0,3.9-1.8,3.9-3.9v-26.5C74.1,130.4,72.4,128.6,70.2,128.6"/>
	</g>
</g>
<g id="a2">
	<path id="onboarding_slide1_line_5" fill="#FFFFFF" d="M57.6,231.4c0-0.5,0.4-1,1-1l0,0c0.5,0,1,0.4,1,1l0,0c0,0.5-0.4,1-1,1l0,0
		C58,232.4,57.6,231.9,57.6,231.4z M57.6,227.8c0-0.5,0.4-1,1-1l0,0c0.5,0,1,0.4,1,1l0,0c0,0.5-0.4,1-1,1l0,0
		C58,228.8,57.6,228.2,57.6,227.8z M57.6,224.1c0-0.5,0.4-1,1-1l0,0c0.5,0,1,0.4,1,1l0,0c0,0.5-0.4,1-1,1l0,0
		C58,225,57.6,224.6,57.6,224.1z M57.6,220.5c0-0.5,0.4-1,1-1l0,0c0.5,0,1,0.4,1,1l0,0c0,0.5-0.4,1-1,1l0,0
		C58,221.4,57.6,221,57.6,220.5z M57.6,216.9c0-0.5,0.4-1,1-1l0,0c0.5,0,1,0.4,1,1l0,0c0,0.5-0.4,1-1,1l0,0
		C58,217.8,57.6,217.4,57.6,216.9z M57.6,213.2c0-0.5,0.4-1,1-1l0,0c0.5,0,1,0.4,1,1l0,0c0,0.5-0.4,1-1,1l0,0
		C58,214.1,57.6,213.8,57.6,213.2z M57.6,209.6c0-0.5,0.4-1,1-1l0,0c0.5,0,1,0.4,1,1l0,0c0,0.5-0.4,1-1,1l0,0
		C58,210.5,57.6,210.1,57.6,209.6z M57.6,206c0-0.5,0.4-1,1-1l0,0c0.5,0,1,0.4,1,1l0,0c0,0.5-0.4,1-1,1l0,0
		C58,206.9,57.6,206.5,57.6,206z M57.6,202.2c0-0.5,0.4-1,1-1l0,0c0.5,0,1,0.4,1,1l0,0c0,0.5-0.4,1-1,1l0,0
		C58,203.2,57.6,202.8,57.6,202.2z M57.6,198.6c0-0.5,0.4-1,1-1l0,0c0.5,0,1,0.4,1,1l0,0c0,0.5-0.4,1-1,1l0,0
		C58,199.6,57.6,199.1,57.6,198.6z M57.6,195c0-0.5,0.4-1,1-1l0,0c0.5,0,1,0.4,1,1l0,0c0,0.5-0.4,1-1,1l0,0
		C58,196,57.6,195.5,57.6,195z M57.6,191.4c0-0.5,0.4-1,1-1l0,0c0.5,0,1,0.4,1,1l0,0c0,0.5-0.4,1-1,1l0,0
		C58,192.4,57.6,191.9,57.6,191.4z"/>
	<path id="onboarding_slide1_line_4" fill="#FFFFFF" d="M128.5,231.4c0-0.5,0.4-1,1-1l0,0c0.5,0,1,0.4,1,1l0,0c0,0.5-0.4,1-1,1l0,0
		C129,232.4,128.5,231.9,128.5,231.4z M128.5,227.8c0-0.5,0.4-1,1-1l0,0c0.5,0,1,0.4,1,1l0,0c0,0.5-0.4,1-1,1l0,0
		C129,228.8,128.5,228.2,128.5,227.8z M128.5,224.1c0-0.5,0.4-0.9,1-0.9l0,0c0.5,0,1,0.4,1,0.9l0,0c0,0.5-0.4,1-1,1l0,0
		C129,225,128.5,224.6,128.5,224.1z M128.5,220.5c0-0.5,0.4-1,1-1l0,0c0.5,0,1,0.4,1,1l0,0c0,0.5-0.4,1-1,1l0,0
		C129,221.4,128.5,221,128.5,220.5z M128.5,216.9c0-0.5,0.4-1,1-1l0,0c0.5,0,1,0.4,1,1l0,0c0,0.5-0.4,1-1,1l0,0
		C129,217.8,128.5,217.4,128.5,216.9z M128.5,213.2c0-0.5,0.4-1,1-1l0,0c0.5,0,1,0.4,1,1l0,0c0,0.5-0.4,1-1,1l0,0
		C129,214.1,128.5,213.8,128.5,213.2z M128.5,209.6c0-0.5,0.4-1,1-1l0,0c0.5,0,1,0.4,1,1l0,0c0,0.5-0.4,1-1,1l0,0
		C129,210.5,128.5,210.1,128.5,209.6z M128.5,206c0-0.5,0.4-1,1-1l0,0c0.5,0,1,0.4,1,1l0,0c0,0.5-0.4,1-1,1l0,0
		C129,206.9,128.5,206.5,128.5,206z M128.5,202.2c0-0.5,0.4-1,1-1l0,0c0.5,0,1,0.4,1,1l0,0c0,0.5-0.4,1-1,1l0,0
		C129,203.2,128.5,202.8,128.5,202.2z M128.5,198.6c0-0.5,0.4-1,1-1l0,0c0.5,0,1,0.4,1,1l0,0c0,0.5-0.4,1-1,1l0,0
		C129,199.6,128.5,199.1,128.5,198.6z M128.5,195c0-0.5,0.4-1,1-1l0,0c0.5,0,1,0.4,1,1l0,0c0,0.5-0.4,1-1,1l0,0
		C129,196,128.5,195.5,128.5,195z M128.5,191.4c0-0.5,0.4-1,1-1l0,0c0.5,0,1,0.4,1,1l0,0c0,0.5-0.4,1-1,1l0,0
		C129,192.4,128.5,191.9,128.5,191.4z"/>
	<path id="onboarding_slide1_line_3" fill="#FFFFFF" d="M199.5,231.4c0-0.5,0.4-1,1-1l0,0c0.5,0,1,0.4,1,1l0,0c0,0.5-0.4,1-1,1l0,0
		C199.9,232.4,199.5,231.9,199.5,231.4z M199.5,227.8c0-0.5,0.4-1,1-1l0,0c0.5,0,1,0.4,1,1l0,0c0,0.5-0.4,1-1,1l0,0
		C199.9,228.8,199.5,228.2,199.5,227.8z M199.5,224.1c0-0.5,0.4-0.9,1-0.9l0,0c0.5,0,1,0.4,1,0.9l0,0c0,0.5-0.4,1-1,1l0,0
		C199.9,225,199.5,224.6,199.5,224.1z M199.5,220.5c0-0.5,0.4-1,1-1l0,0c0.5,0,1,0.4,1,1l0,0c0,0.5-0.4,1-1,1l0,0
		C199.9,221.4,199.5,221,199.5,220.5z M199.5,216.9c0-0.5,0.4-1,1-1l0,0c0.5,0,1,0.4,1,1l0,0c0,0.5-0.4,1-1,1l0,0
		C199.9,217.8,199.5,217.4,199.5,216.9z M199.5,213.2c0-0.5,0.4-1,1-1l0,0c0.5,0,1,0.4,1,1l0,0c0,0.5-0.4,1-1,1l0,0
		C199.9,214.1,199.5,213.8,199.5,213.2z M199.5,209.6c0-0.5,0.4-1,1-1l0,0c0.5,0,1,0.4,1,1l0,0c0,0.5-0.4,1-1,1l0,0
		C199.9,210.5,199.5,210.1,199.5,209.6z M199.5,206c0-0.5,0.4-1,1-1l0,0c0.5,0,1,0.4,1,1l0,0c0,0.5-0.4,1-1,1l0,0
		C199.9,206.9,199.5,206.5,199.5,206z M199.5,202.2c0-0.5,0.4-1,1-1l0,0c0.5,0,1,0.4,1,1l0,0c0,0.5-0.4,1-1,1l0,0
		C199.9,203.2,199.5,202.8,199.5,202.2z M199.5,198.6c0-0.5,0.4-1,1-1l0,0c0.5,0,1,0.4,1,1l0,0c0,0.5-0.4,1-1,1l0,0
		C199.9,199.6,199.5,199.1,199.5,198.6z M199.5,195c0-0.5,0.4-1,1-1l0,0c0.5,0,1,0.4,1,1l0,0c0,0.5-0.4,1-1,1l0,0
		C199.9,196,199.5,195.5,199.5,195z M199.5,191.4c0-0.5,0.4-1,1-1l0,0c0.5,0,1,0.4,1,1l0,0c0,0.5-0.4,1-1,1l0,0
		C199.9,192.4,199.5,191.9,199.5,191.4z"/>
	<path id="onboarding_slide1_line_2" fill="#FFFFFF" d="M270.5,231.4c0-0.5,0.4-1,1-1l0,0c0.5,0,1,0.4,1,1l0,0c0,0.5-0.4,1-1,1l0,0
		C270.9,232.4,270.5,231.9,270.5,231.4z M270.5,227.8c0-0.5,0.4-1,1-1l0,0c0.5,0,1,0.4,1,1l0,0c0,0.5-0.4,1-1,1l0,0
		C270.9,228.8,270.5,228.2,270.5,227.8z M270.5,224.1c0-0.5,0.4-1,1-1l0,0c0.5,0,1,0.4,1,1l0,0c0,0.5-0.4,1-1,1l0,0
		C270.9,225.1,270.5,224.6,270.5,224.1z M270.5,220.5c0-0.5,0.4-1,1-1l0,0c0.5,0,1,0.4,1,1l0,0c0,0.5-0.4,1-1,1l0,0
		C270.9,221.4,270.5,221,270.5,220.5z M270.5,216.9c0-0.5,0.4-1,1-1l0,0c0.5,0,1,0.4,1,1l0,0c0,0.5-0.4,1-1,1l0,0
		C270.9,217.8,270.5,217.4,270.5,216.9z M270.5,213.2c0-0.5,0.4-1,1-1l0,0c0.5,0,1,0.4,1,1l0,0c0,0.5-0.4,1-1,1l0,0
		C270.9,214.1,270.5,213.8,270.5,213.2z M270.5,209.6c0-0.5,0.4-1,1-1l0,0c0.5,0,1,0.4,1,1l0,0c0,0.5-0.4,1-1,1l0,0
		C270.9,210.5,270.5,210.1,270.5,209.6z M270.5,206c0-0.5,0.4-1,1-1l0,0c0.5,0,1,0.4,1,1l0,0c0,0.5-0.4,1-1,1l0,0
		C270.9,206.9,270.5,206.5,270.5,206z M270.5,202.2c0-0.5,0.4-1,1-1l0,0c0.5,0,1,0.4,1,1l0,0c0,0.5-0.4,1-1,1l0,0
		C270.9,203.2,270.5,202.8,270.5,202.2z M270.5,198.6c0-0.5,0.4-1,1-1l0,0c0.5,0,1,0.4,1,1l0,0c0,0.5-0.4,1-1,1l0,0
		C270.9,199.6,270.5,199.1,270.5,198.6z M270.5,195c0-0.5,0.4-1,1-1l0,0c0.5,0,1,0.4,1,1l0,0c0,0.5-0.4,1-1,1l0,0
		C270.9,196,270.5,195.5,270.5,195z M270.5,191.4c0-0.5,0.4-1,1-1l0,0c0.5,0,1,0.4,1,1l0,0c0,0.5-0.4,1-1,1l0,0
		C270.9,192.4,270.5,191.9,270.5,191.4z"/>
	<path id="onboarding_slide1_line_1" fill="#FFFFFF" d="M341.4,231.4c0-0.5,0.4-1,1-1l0,0c0.5,0,1,0.4,1,1l0,0c0,0.5-0.4,1-1,1l0,0
		C341.8,232.4,341.4,231.9,341.4,231.4z M341.4,227.8c0-0.5,0.4-1,1-1l0,0c0.5,0,1,0.4,1,1l0,0c0,0.5-0.4,1-1,1l0,0
		C341.8,228.8,341.4,228.2,341.4,227.8z M341.4,224.1c0-0.5,0.4-1,1-1l0,0c0.5,0,1,0.4,1,1l0,0c0,0.5-0.4,0.9-1,0.9l0,0
		C341.8,225,341.4,224.6,341.4,224.1z M341.4,220.5c0-0.5,0.4-1,1-1l0,0c0.5,0,1,0.4,1,1l0,0c0,0.5-0.4,1-1,1l0,0
		C341.8,221.4,341.4,221,341.4,220.5z M341.4,216.9c0-0.5,0.4-1,1-1l0,0c0.5,0,1,0.4,1,1l0,0c0,0.5-0.4,1-1,1l0,0
		C341.8,217.8,341.4,217.4,341.4,216.9z M341.4,213.2c0-0.5,0.4-1,1-1l0,0c0.5,0,1,0.4,1,1l0,0c0,0.5-0.4,1-1,1l0,0
		C341.8,214.1,341.4,213.8,341.4,213.2z M341.4,209.6c0-0.5,0.4-1,1-1l0,0c0.5,0,1,0.4,1,1l0,0c0,0.5-0.4,1-1,1l0,0
		C341.8,210.5,341.4,210.1,341.4,209.6z M341.4,206c0-0.5,0.4-1,1-1l0,0c0.5,0,1,0.4,1,1l0,0c0,0.5-0.4,1-1,1l0,0
		C341.8,206.9,341.4,206.5,341.4,206z M341.4,202.2c0-0.5,0.4-1,1-1l0,0c0.5,0,1,0.4,1,1l0,0c0,0.5-0.4,1-1,1l0,0
		C341.8,203.2,341.4,202.8,341.4,202.2z M341.4,198.6c0-0.5,0.4-1,1-1l0,0c0.5,0,1,0.4,1,1l0,0c0,0.5-0.4,1-1,1l0,0
		C341.8,199.6,341.4,199.1,341.4,198.6z M341.4,195c0-0.5,0.4-1,1-1l0,0c0.5,0,1,0.4,1,1l0,0c0,0.5-0.4,1-1,1l0,0
		C341.8,196,341.4,195.5,341.4,195z M341.4,191.4c0-0.5,0.4-1,1-1l0,0c0.5,0,1,0.4,1,1l0,0c0,0.5-0.4,1-1,1l0,0
		C341.8,192.4,341.4,191.9,341.4,191.4z"/>
</g>
<g id="b1">
	<g>
		<path fill="#F4900C" d="M369.4,298.8c0,3.5-2.8,6.2-6.2,6.2h-43.8c-3.5,0-6.2-2.8-6.2-6.2V255c0-3.5,2.8-6.2,6.2-6.2h43.8
			c3.5,0,6.2,2.8,6.2,6.2V298.8z"/>
		<path fill="#FFFFFF" d="M336.9,263.9c0.9-2.2,2.8-4,5.1-4c2.6,0,4.4,1.8,5.1,4l9.5,26.4c0.2,0.8,0.4,1.5,0.4,1.8
			c0,1.9-1.5,3.2-3.4,3.2c-2,0-3-1.1-3.5-2.5l-1.5-4.5h-13.5l-1.5,4.5c-0.5,1.5-1.5,2.6-3.5,2.6s-3.6-1.5-3.6-3.4
			c0-0.8,0.2-1.4,0.4-1.6L336.9,263.9z M337.5,281.4h9.2l-4.5-14h-0.1L337.5,281.4z"/>
	</g>
	<g>
		<path fill="#F4900C" d="M298.1,298.8c0,3.5-2.8,6.2-6.2,6.2h-43.8c-3.5,0-6.2-2.8-6.2-6.2V255c0-3.5,2.8-6.2,6.2-6.2h43.8
			c3.5,0,6.2,2.8,6.2,6.2V298.8z"/>
		<path fill="#FFFFFF" d="M266.6,276.4l-7.9-10.6c-0.5-0.6-0.8-1.4-0.8-2.1c0-2.1,1.6-3.5,3.6-3.5c1.2,0,2.5,0.9,3.1,1.8l6,8.5
			l6-8.5c0.6-1,2-1.8,3.1-1.8c2.1,0,3.6,1.4,3.6,3.5c0,0.8-0.2,1.5-0.8,2.1l-7.9,10.6l9.6,12.9c0.4,0.5,0.9,1.5,0.9,2.5
			c0,2-1.5,3.4-3.6,3.4c-1.2,0-2.2-0.6-3-1.6l-8-11l-8,11c-0.8,1-1.8,1.6-3,1.6c-2.1,0-3.6-1.4-3.6-3.4c0-1,0.4-2,0.9-2.5
			L266.6,276.4z"/>
	</g>
	<g>
		<path fill="#F4900C" d="M228.1,298.8c0,3.5-2.8,6.2-6.2,6.2h-43.8c-3.5,0-6.2-2.8-6.2-6.2V255c0-3.5,2.8-6.2,6.2-6.2h43.8
			c3.5,0,6.2,2.8,6.2,6.2V298.8z"/>
		<path fill="#FFFFFF" d="M195.4,276.4l-7.9-10.6c-0.5-0.6-0.8-1.4-0.8-2.1c0-2.1,1.6-3.5,3.6-3.5c1.2,0,2.5,0.9,3.1,1.8l6,8.5
			l6-8.5c0.6-1,2-1.8,3.1-1.8c2.1,0,3.6,1.4,3.6,3.5c0,0.8-0.2,1.5-0.8,2.1l-7.9,10.6l9.6,12.9c0.4,0.5,0.9,1.5,0.9,2.5
			c0,2-1.5,3.4-3.6,3.4c-1.2,0-2.2-0.6-3-1.6l-8-11l-8,11c-0.8,1-1.8,1.6-3,1.6c-2.1,0-3.6-1.4-3.6-3.4c0-1,0.4-2,0.9-2.5
			L195.4,276.4z"/>
	</g>
	<g>
		<path fill="#F4900C" d="M156.9,298.8c0,3.5-2.8,6.2-6.2,6.2h-43.8c-3.5,0-6.2-2.8-6.2-6.2V255c0-3.5,2.8-6.2,6.2-6.2h43.8
			c3.5,0,6.2,2.8,6.2,6.2V298.8z"/>
		<path fill="#FFFFFF" d="M138,293.4c-2.4,1.4-5.2,2.1-8.5,2.1c-9.9,0-16.6-7.8-16.6-17.9s6.8-17.9,16.6-17.9s16.6,8,16.6,17.9
			c0,4.2-1.1,8.1-3.2,11.2l2.8,2.4c0.9,0.9,1.8,1.6,1.8,3c0,1.8-1.8,3-3.4,3c-1.1,0-2-0.4-3.2-1.5L138,293.4z M137.5,283.9
			c0.9-1.9,1.1-4,1.1-6.2c0-5.8-3-11.1-9.1-11.1c-6,0-9.1,5.2-9.1,11.1c0,5.9,3,11.1,9.1,11.1c1.1,0,2.1-0.1,3.1-0.4l-1.8-1.8
			c-0.5-0.5-0.9-1.2-0.9-2c0-1.9,1.2-3.5,3.2-3.5c0.6,0,1.2,0.2,1.9,0.6L137.5,283.9z"/>
	</g>
	<g>
		<path fill="#F4900C" d="M86.9,298.8c0,3.5-2.8,6.2-6.2,6.2H36.9c-3.5,0-6.2-2.8-6.2-6.2V255c0-3.5,2.8-6.2,6.2-6.2h43.8
			c3.5,0,6.2,2.8,6.2,6.2V298.8z"/>
		<path fill="#FFFFFF" d="M54.5,267.1h-5.2c-2.4,0-3.2-1.8-3.2-3.4c0-1.8,1.2-3.4,3.2-3.4h17.9c2.1,0,3.2,1.6,3.2,3.4
			c0,1.6-1,3.4-3.2,3.4H62v24.4c0,2.4-1.5,3.8-3.6,3.8c-2.1,0-3.6-1.4-3.6-3.8v-24.4H54.5z"/>
	</g>
</g>
<g id="b2">
	<g>
		<path fill="#F46060" d="M369.4,298.8c0,3.5-2.8,6.2-6.2,6.2h-43.8c-3.5,0-6.2-2.8-6.2-6.2V255c0-3.5,2.8-6.2,6.2-6.2h43.8
			c3.5,0,6.2,2.8,6.2,6.2V298.8z"/>
		<path fill="#FFFFFF" d="M338.4,266.4h-5.2c-2.4,0-3.2-1.8-3.2-3.4c0-1.8,1.2-3.4,3.2-3.4H351c2.1,0,3.2,1.6,3.2,3.4
			c0,1.6-1,3.4-3.2,3.4h-5.4v24.4c0,2.4-1.5,3.8-3.6,3.8s-3.6-1.4-3.6-3.8V266.4z"/>
	</g>
	<g>
		<path fill="#F46060" d="M298.1,298.8c0,3.5-2.8,6.2-6.2,6.2h-43.8c-3.5,0-6.2-2.8-6.2-6.2V255c0-3.5,2.8-6.2,6.2-6.2h43.8
			c3.5,0,6.2,2.8,6.2,6.2V298.8z"/>
		<path fill="#FFFFFF" d="M279.2,292.4c-2.4,1.4-5.2,2.1-8.5,2.1c-9.9,0-16.6-7.8-16.6-17.9s6.8-17.9,16.6-17.9
			c9.8,0,16.6,8,16.6,17.9c0,4.2-1.1,8.1-3.2,11.2l2.8,2.4c0.9,0.9,1.8,1.6,1.8,3c0,1.8-1.8,3-3.4,3c-1.1,0-2-0.4-3.2-1.5
			L279.2,292.4z M278.8,282.9c0.9-1.9,1.1-4,1.1-6.2c0-5.8-3-11.1-9.1-11.1c-6,0-9.1,5.2-9.1,11.1c0,5.9,3,11.1,9.1,11.1
			c1.1,0,2.1-0.1,3.1-0.4l-1.8-1.8c-0.5-0.5-0.9-1.2-0.9-2c0-1.9,1.2-3.5,3.2-3.5c0.6,0,1.2,0.2,1.9,0.6L278.8,282.9z"/>
	</g>
	<g>
		<path fill="#F46060" d="M228.1,298.8c0,3.5-2.8,6.2-6.2,6.2h-43.8c-3.5,0-6.2-2.8-6.2-6.2V255c0-3.5,2.8-6.2,6.2-6.2h43.8
			c3.5,0,6.2,2.8,6.2,6.2V298.8z"/>
		<path fill="#FFFFFF" d="M208,292.4c-2.4,1.4-5.2,2.1-8.5,2.1c-9.9,0-16.6-7.8-16.6-17.9s6.8-17.9,16.6-17.9s16.6,8,16.6,17.9
			c0,4.2-1.1,8.1-3.2,11.2l2.8,2.4c0.9,0.9,1.8,1.6,1.8,3c0,1.8-1.8,3-3.4,3c-1.1,0-2-0.4-3.2-1.5L208,292.4z M207.5,282.9
			c0.9-1.9,1.1-4,1.1-6.2c0-5.8-3-11.1-9.1-11.1c-6,0-9.1,5.2-9.1,11.1c0,5.9,3,11.1,9.1,11.1c1.1,0,2.1-0.1,3.1-0.4l-1.8-1.8
			c-0.5-0.5-0.9-1.2-0.9-2c0-1.9,1.2-3.5,3.2-3.5c0.6,0,1.2,0.2,1.9,0.6L207.5,282.9z"/>
	</g>
	<g>
		<path fill="#F46060" d="M156.9,298.8c0,3.5-2.8,6.2-6.2,6.2h-43.8c-3.5,0-6.2-2.8-6.2-6.2V255c0-3.5,2.8-6.2,6.2-6.2h43.8
			c3.5,0,6.2,2.8,6.2,6.2V298.8z"/>
		<path fill="#FFFFFF" d="M137.5,284.2c0,8.1-5.1,10.2-9.6,10.2c-3.4,0-8.9-1.2-8.9-5.5c0-1.2,1.1-3,2.8-3c2,0,3.6,1.8,5.9,1.8
			c2.8,0,2.8-2.5,2.8-4.1v-20.9c0-2.4,1.5-3.8,3.6-3.8s3.6,1.4,3.6,3.8v21.5H137.5z"/>
	</g>
	<g>
		<path fill="#F46060" d="M86.9,298.8c0,3.5-2.8,6.2-6.2,6.2H36.9c-3.5,0-6.2-2.8-6.2-6.2V255c0-3.5,2.8-6.2,6.2-6.2h43.8
			c3.5,0,6.2,2.8,6.2,6.2V298.8z"/>
		<path fill="#FFFFFF" d="M42.8,262.9c0.2-1.8,2.1-3.8,4.8-3.8c2.4,0,4.2,1.8,4.9,3.5l5.8,19.1l0,0l5.8-19.1
			c0.5-1.8,2.4-3.5,4.9-3.5c2.6,0,4.5,2,4.8,3.8l4.5,27c0,0.2,0,0.6,0,0.9c0,2.1-1.5,3.5-3.5,3.5c-2.5,0-3.5-1.1-3.8-3.4l-2.9-19.8
			H68l-5.9,20.2c-0.4,1.1-1.2,2.8-3.9,2.8c-2.7,0-3.5-1.6-3.9-2.8l-5.9-20.2h-0.1l-2.9,19.8c-0.4,2.2-1.2,3.4-3.8,3.4
			c-2,0-3.5-1.4-3.5-3.5c0-0.2,0-0.5,0-0.9L42.8,262.9z"/>
	</g>
</g>
<g id="b3">
	<g>
		<path fill="#FFCC4D" d="M369.4,298.8c0,3.5-2.8,6.2-6.2,6.2h-43.8c-3.5,0-6.2-2.8-6.2-6.2V255c0-3.5,2.8-6.2,6.2-6.2h43.8
			c3.5,0,6.2,2.8,6.2,6.2V298.8z"/>
		<path fill="#FFFFFF" d="M350,284.9c0,8.1-5.1,10.2-9.6,10.2c-3.4,0-8.9-1.2-8.9-5.5c0-1.2,1.1-3,2.8-3c2,0,3.6,1.8,5.9,1.8
			c2.8,0,2.8-2.5,2.8-4.1v-20.9c0-2.4,1.5-3.8,3.6-3.8c2.1,0,3.6,1.4,3.6,3.8v21.5H350z"/>
	</g>
	<g>
		<path fill="#FFCC4D" d="M298.1,298.8c0,3.5-2.8,6.2-6.2,6.2h-43.8c-3.5,0-6.2-2.8-6.2-6.2V255c0-3.5,2.8-6.2,6.2-6.2h43.8
			c3.5,0,6.2,2.8,6.2,6.2V298.8z"/>
		<path fill="#FFFFFF" d="M282.5,273.8c3,0,4.2,1.5,4.2,4.6c0,9.4-6.1,16.4-15.8,16.4c-9.9,0-16.6-7.8-16.6-17.9S261.1,259,271,259
			c7.4,0,13.4,3.5,13.4,6.9c0,2.1-1.2,3.4-3,3.4c-3.2,0-4-3.5-10.4-3.5c-6,0-9.1,5.2-9.1,11.1s3,11.1,9.1,11.1
			c3.9,0,8.2-2.1,8.2-7.6h-5c-2,0-3.4-1.4-3.4-3.4s1.5-3.2,3.4-3.2H282.5L282.5,273.8z"/>
	</g>
	<g>
		<path fill="#FFCC4D" d="M228.1,298.8c0,3.5-2.8,6.2-6.2,6.2h-43.8c-3.5,0-6.2-2.8-6.2-6.2V255c0-3.5,2.8-6.2,6.2-6.2h43.8
			c3.5,0,6.2,2.8,6.2,6.2V298.8z"/>
		<path fill="#FFFFFF" d="M212.5,273.8c3,0,4.2,1.5,4.2,4.6c0,9.4-6.1,16.4-15.8,16.4c-9.9,0-16.6-7.8-16.6-17.9S191.1,259,201,259
			c7.4,0,13.4,3.5,13.4,6.9c0,2.1-1.2,3.4-3,3.4c-3.2,0-4-3.5-10.4-3.5c-6,0-9.1,5.2-9.1,11.1s3,11.1,9.1,11.1
			c3.9,0,8.2-2.1,8.2-7.6h-5c-2,0-3.4-1.4-3.4-3.4s1.5-3.2,3.4-3.2H212.5L212.5,273.8z"/>
	</g>
	<g>
		<path fill="#FFCC4D" d="M156.9,298.8c0,3.5-2.8,6.2-6.2,6.2h-43.8c-3.5,0-6.2-2.8-6.2-6.2V255c0-3.5,2.8-6.2,6.2-6.2h43.8
			c3.5,0,6.2,2.8,6.2,6.2V298.8z"/>
		<path fill="#FFFFFF" d="M139,287.8c2,0,3.5,1.1,3.5,3.2c0,1.9-1.8,3.2-3.5,3.2h-19c-2.6,0-4.1-1.5-4.1-3.5c0-1,0.4-2,1-2.8
			l15.6-21.8h-12.8c-2,0-3.4-1.1-3.4-3.1c0-1.9,1.5-3.2,3.4-3.2h17.8c2.8,0,4.1,1.8,4.1,3.5c0,1.1-0.4,2.2-1.1,3.1L125,288h14V287.8
			z"/>
	</g>
	<g>
		<path fill="#FFCC4D" d="M86.9,298.8c0,3.5-2.8,6.2-6.2,6.2H36.9c-3.5,0-6.2-2.8-6.2-6.2V255c0-3.5,2.8-6.2,6.2-6.2h43.8
			c3.5,0,6.2,2.8,6.2,6.2V298.8z"/>
		<path fill="#FFFFFF" d="M60.8,259.1c3.5,0,10.4,1.1,10.4,5.4c0,1.8-1.2,3.2-3,3.2c-2,0-3.4-1.8-7.4-1.8c-6,0-9.1,5.1-9.1,11
			c0,5.8,3.1,10.8,9.1,10.8c4.1,0,5.8-2,7.8-2c2.1,0,3.2,2.1,3.2,3.2c0,4.6-7.4,5.8-10.9,5.8c-9.9,0-16.6-7.8-16.6-17.9
			C44.1,266.9,50.9,259.1,60.8,259.1z"/>
	</g>
</g>
<g id="tt1">
	<text id="s1_t1" transform="matrix(1 0 0 1 72.4976 394.5)" fill="#FFFFFF" font-family="'FiraSans-Regular'" font-size="26">Early ciphers shifted </text>
</g>
<g id="tt2">
	<text id="s1_t2" transform="matrix(1 0 0 1 60.3547 425.7002)" fill="#FFFFFF" font-family="'FiraSans-Regular'" font-size="26">letters of the alphabet </text>
</g>
<g id="tt3">
	<text id="s1_t3" transform="matrix(1 0 0 1 99.4819 456.9004)" fill="#FFFFFF" font-family="'FiraSans-Regular'" font-size="26">by set amounts. </text>
</g>
<g id="tt4">
	<text id="s1_t4" transform="matrix(1 0 0 1 62.7288 488.0996)" fill="#FFFFFF" font-family="'FiraSans-Regular'" font-size="26">E.g. H would become T.</text>
</g>
</svg>
