<?xml version="1.0" encoding="utf-8"?>
<!-- Generator: Adobe Illustrator 18.0.0, SVG Export Plug-In . SVG Version: 6.00 Build 0)  -->
<!DOCTYPE svg PUBLIC "-//W3C//DTD SVG 1.1//EN" "http://www.w3.org/Graphics/SVG/1.1/DTD/svg11.dtd">
<svg version="1.1" id="s3" xmlns="http://www.w3.org/2000/svg" xmlns:xlink="http://www.w3.org/1999/xlink" x="0px" y="0px"
	 width="393.1px" height="700px" viewBox="0 0 393.1 700" enable-background="new 0 0 393.1 700" xml:space="preserve">
<polyline fill="#283344" points="0,700 0,0 393.1,0 393.1,700 "/>
<g id="tt1">
	<text transform="matrix(1 0 0 1 84.6411 444.5771)" fill="#FFFFFF" font-family="'FiraSans-Regular'" font-size="26">Write the message </text>
</g>
<g id="tt2">
	<text transform="matrix(1 0 0 1 95.7051 475.7773)" fill="#FFFFFF" font-family="'FiraSans-Regular'" font-size="26">you want to turn </text>
</g>
<g id="tt3">
	<text transform="matrix(1 0 0 1 133.3782 506.9775)" fill="#FFFFFF" font-family="'FiraSans-Regular'" font-size="26">into emoji.</text>
</g>
<path id="bubble" fill="#005189" d="M338.9,269.4h-285c-9.6,0-17.5-7.9-17.5-17.5V111c0-9.6,7.9-17.5,17.5-17.5H339
	c9.6,0,17.5,7.9,17.5,17.5v140.6C356.4,261.6,348.5,269.4,338.9,269.4z"/>
<g id="txt">
	<g>
		<path fill="#FFFFFF" d="M78.5,138.3H65v18.6h-6.8V116H65v16.7h13.4V116h6.8v40.9h-6.8L78.5,138.3L78.5,138.3z"/>
	</g>
	<g>
		<path fill="#FFFFFF" d="M121.2,153.1l-1.4,4.5c-3-0.4-5.4-1.6-6.4-4.3c-2.2,2.9-5.9,4.3-10,4.3c-6.4,0-10.4-3.9-10.4-9.7
			c0-6.6,5.4-10.4,15-10.4h4.5v-1.8c0-4.1-2.5-5.8-7-5.8c-2.1,0-5.1,0.4-8.3,1.6l-1.6-4.7c3.9-1.4,7.7-2.2,11-2.2
			c8.4,0,12.5,3.9,12.5,10.5v14C118.8,151.8,119.5,152.7,121.2,153.1z M112.2,148.8v-7h-3.7c-6.2,0-8.7,2.2-8.7,5.9
			c0,3.3,1.8,5.1,5.2,5.1C107.9,152.7,110.7,151.3,112.2,148.8z"/>
	</g>
	<g>
		<path fill="#FFFFFF" d="M146.9,156.9h-7.7L128,125.7h7.2l7.9,25.8l8-25.8h6.8L146.9,156.9z"/>
	</g>
	<g>
		<path fill="#FFFFFF" d="M180.1,152.6c3,0,5.6-0.9,8.3-2.8l2.9,4.1c-2.9,2.4-7,3.9-11.3,3.9c-9.7,0-15.1-6.7-15.1-16.4
			c0-9.4,5.4-16.5,14.3-16.5c8.3,0,13.5,5.9,13.5,15.7c0,1.1-0.1,2.2-0.3,3h-20.7C171.9,149.8,175.6,152.6,180.1,152.6z M171.5,139
			h14.6c-0.1-5.9-2.5-9.2-7-9.2C174.8,129.8,171.9,132.7,171.5,139z"/>
	</g>
	<g>
		<path fill="#FFFFFF" d="M263.5,153.1l-1.4,4.5c-3-0.4-5.4-1.6-6.4-4.3c-2.2,2.9-5.9,4.3-10,4.3c-6.4,0-10.4-3.9-10.4-9.7
			c0-6.6,5.4-10.4,15-10.4h4.5v-1.8c0-4.1-2.5-5.8-7-5.8c-2.1,0-5.1,0.4-8.3,1.6l-1.6-4.7c3.9-1.4,7.7-2.2,11-2.2
			c8.4,0,12.5,3.9,12.5,10.5v14C261.1,151.8,261.9,152.7,263.5,153.1z M254.6,148.8v-7h-3.7c-6.2,0-8.7,2.2-8.7,5.9
			c0,3.3,1.8,5.1,5.2,5.1C250.2,152.7,253,151.3,254.6,148.8z"/>
	</g>
	<g>
		<path fill="#FFFFFF" d="M59.4,196.8h5.8l0.4,4.1c2.6-3.1,6.3-5,10.2-5c5.9,0,8.7,3.4,8.7,9.3V228h-6.7v-19.5
			c0-5.5-0.7-7.6-4.5-7.6c-3.1,0-5.8,2.2-7.3,4.6v22.4h-6.7L59.4,196.8z"/>
	</g>
	<g>
		<path fill="#FFFFFF" d="M112,223.3h8.7v4.9H96v-4.9h9.3v-21.5h-9.1v-4.9H112V223.3L112,223.3z M111.7,185.7c0,2.4-1.8,4.1-4.3,4.1
			c-2.6,0-4.3-1.8-4.3-4.1c0-2.2,1.7-4.2,4.3-4.2S111.7,183.3,111.7,185.7z"/>
	</g>
	<g>
		<path fill="#FFFFFF" d="M153.3,220.8l3,4.2c-2.8,2.2-6.8,3.9-11,3.9c-9.6,0-15.2-6.4-15.2-16.3c0-9.6,5.8-16.7,15.3-16.7
			c4.2,0,7.7,1.3,10.9,3.8l-3.1,4.1c-2.4-1.6-5-2.6-7.7-2.6c-5,0-8.4,3.5-8.4,11.3s3.5,10.8,8.4,10.8
			C148.4,223.4,151.1,222.4,153.3,220.8z"/>
	</g>
	<g>
		<path fill="#FFFFFF" d="M180.1,223.7c3,0,5.6-0.9,8.3-2.8l2.9,4.1c-2.9,2.4-7,3.9-11.3,3.9c-9.7,0-15.1-6.7-15.1-16.4
			c0-9.4,5.4-16.5,14.3-16.5c8.3,0,13.5,5.9,13.5,15.7c0,1-0.1,2.2-0.3,3h-20.7C171.9,220.9,175.6,223.7,180.1,223.7z M171.5,210.1
			h14.6c-0.1-5.9-2.5-9.2-7-9.2C174.8,200.9,171.9,203.8,171.5,210.1z"/>
	</g>
	<g>
		<path fill="#FFFFFF" d="M262.3,184.3v43.9h-5.9l-0.4-3.9c-2.1,3-5.1,4.6-8.8,4.6c-8,0-11.8-6.6-11.8-16.4
			c0-9.6,4.7-16.5,12.3-16.5c3.1,0,5.9,1.2,7.9,3.4v-15.9L262.3,184.3z M242.4,212.5c0,8,2.4,11.3,6.6,11.3c3,0,5.1-2.1,6.7-4.5
			v-14.8c-1.4-2.2-3.7-3.5-6.2-3.5C245,201.1,242.4,204.7,242.4,212.5z"/>
	</g>
	<g>
		<path fill="#FFFFFF" d="M299.2,224.4l-1.4,4.5c-3-0.4-5.4-1.6-6.4-4.3c-2.2,2.9-5.9,4.3-10,4.3c-6.4,0-10.4-3.9-10.4-9.7
			c0-6.6,5.4-10.4,15-10.4h4.5v-2.1c0-4.1-2.5-5.8-7-5.8c-2.1,0-5.1,0.4-8.3,1.6l-1.6-4.7c3.9-1.4,7.7-2.2,11-2.2
			c8.4,0,12.5,3.9,12.5,10.5v14.2C296.8,222.9,297.5,223.8,299.2,224.4z M290.1,220v-7h-3.7c-6.2,0-8.7,2.2-8.7,5.9
			c0,3.3,1.8,5.1,5.2,5.1C285.9,224.1,288.7,222.5,290.1,220z"/>
	</g>
	<g>
		<path fill="#FFFFFF" d="M325,228.3c-2.4,7.1-6.6,11.9-15.4,12.7l-0.8-5c6.3-1,8.4-3.3,10-7.7h-2.2l-10.5-31.2h7.1l7.9,26.8l8-26.8
			h6.8L325,228.3z"/>
	</g>
</g>
<line id="cur" fill="none" stroke="#FFFFFF" stroke-miterlimit="10" x1="58.2" y1="112.5" x2="58.2" y2="161.5"/>
</svg>
