<?xml version="1.0" encoding="utf-8"?>
<!-- Generator: Adobe Illustrator 18.0.0, SVG Export Plug-In . SVG Version: 6.00 Build 0)  -->
<!DOCTYPE svg PUBLIC "-//W3C//DTD SVG 1.1//EN" "http://www.w3.org/Graphics/SVG/1.1/DTD/svg11.dtd">
<svg version="1.1" id="s2" xmlns="http://www.w3.org/2000/svg" xmlns:xlink="http://www.w3.org/1999/xlink" x="0px" y="0px"
	 width="393.1px" height="700px" viewBox="0 0 393.1 700" enable-background="new 0 0 393.1 700" xml:space="preserve">
<polyline fill="#283344" points="0,700 0,0 393.1,0 393.1,700 "/>
<g id="a1">
	<g id="onboarding_slide_2_A5">
		<path id="path22_5_" fill="#3B88C3" d="M369.6,167.6c0,3.5-2.7,6.2-6.2,6.2h-43.7c-3.5,0-6.2-2.7-6.2-6.2v-43.7
			c0-3.5,2.7-6.2,6.2-6.2h43.7c3.5,0,6.2,2.7,6.2,6.2V167.6L369.6,167.6z"/>
		<path id="path26_5_" fill="#FFFFFF" d="M350.6,145.8c0-5.9-3-11.1-9.1-11.1c-6.1,0-9.1,5.2-9.1,11.1c0,5.9,3,11.1,9.1,11.1
			C347.7,156.9,350.6,151.6,350.6,145.8 M324.8,145.8c0-10.1,6.7-17.9,16.6-17.9c9.7,0,16.6,8,16.6,17.9c0,10-6.7,17.9-16.6,17.9
			C331.7,163.5,324.8,155.8,324.8,145.8"/>
	</g>
	<g id="onboarding_slide_2_A3">
		<path id="path22_3_" fill="#3B88C3" d="M298.8,167.6c0,3.5-2.7,6.2-6.2,6.2h-43.7c-3.5,0-6.2-2.7-6.2-6.2v-43.7
			c0-3.5,2.7-6.2,6.2-6.2h43.7c3.5,0,6.2,2.7,6.2,6.2V167.6z"/>
		<path id="path26_3_" fill="#FFFFFF" d="M262.6,132c0-2.4,1.5-3.7,3.6-3.7c2.1,0,3.6,1.4,3.6,3.7v24.2h8.6c2.5,0,3.5,1.9,3.5,3.5
			c-0.1,1.6-1.4,3.2-3.5,3.2h-12.1c-2.4,0-3.7-1.5-3.7-4V132z"/>
	</g>
	<g id="onboarding_slide_2_A4">
		<path id="path22_4_" fill="#3B88C3" d="M228.1,167.6c0,3.5-2.7,6.2-6.2,6.2h-43.7c-3.5,0-6.2-2.7-6.2-6.2v-43.7
			c0-3.5,2.7-6.2,6.2-6.2h43.7c3.5,0,6.2,2.7,6.2,6.2V167.6z"/>
		<path id="path26_4_" fill="#FFFFFF" d="M191.8,132c0-2.4,1.5-3.7,3.6-3.7c2.1,0,3.6,1.4,3.6,3.7v24.2h8.6c2.5,0,3.5,1.9,3.5,3.5
			c-0.1,1.6-1.4,3.2-3.5,3.2h-12.1c-2.4,0-3.7-1.5-3.7-4V132z"/>
	</g>
	<g id="onboarding_slide_2_A2">
		<path id="path22_2_" fill="#3B88C3" d="M157.3,167.6c0,3.5-2.7,6.2-6.2,6.2h-43.7c-3.5,0-6.2-2.7-6.2-6.2v-43.7
			c0-3.5,2.7-6.2,6.2-6.2h43.7c3.5,0,6.2,2.7,6.2,6.2V167.6z"/>
		<path id="path26_2_" fill="#FFFFFF" d="M120.2,132.6c0-2.4,1.2-4.2,3.7-4.2h12c2.4,0,3.5,1.6,3.5,3.4c0,1.6-1.1,3.4-3.5,3.4h-8.5
			v7.1h8c2.4,0,3.5,1.6,3.5,3.4c0,1.6-1.2,3.4-3.5,3.4h-8v7.4h9c2.4,0,3.5,1.6,3.5,3.4c0,1.6-1.1,3.4-3.5,3.4h-12.5
			c-2.1,0-3.7-1.5-3.7-3.6V132.6z"/>
	</g>
	<g id="onboarding_slide_2_A1">
		<path id="path22_1_" fill="#3B88C3" d="M86.6,167.6c0,3.5-2.7,6.2-6.2,6.2H36.6c-3.5,0-6.2-2.7-6.2-6.2v-43.7
			c0-3.5,2.7-6.2,6.2-6.2h43.7c3.5,0,6.2,2.7,6.2,6.2L86.6,167.6L86.6,167.6z"/>
		<path id="path26_1_" fill="#FFFFFF" d="M70.2,128.6c-2.1,0-3.9,1.7-3.9,3.9v8.6H50.7v-8.6c0-2.1-1.7-3.9-3.9-3.9
			c-2.1,0-3.9,1.7-3.9,3.9V159c0,2.1,1.7,3.9,3.9,3.9c2.1,0,3.9-1.7,3.9-3.9v-10.1h15.6V159c0,2.1,1.7,3.9,3.9,3.9
			c2.1,0,3.9-1.7,3.9-3.9v-26.5C74.1,130.4,72.3,128.6,70.2,128.6"/>
	</g>
</g>
<g id="a2">
	<path id="onboarding_slide1_line_5_1_" fill="#FFFFFF" d="M57.7,231.4c0-0.5,0.4-1,1-1l0,0c0.5,0,1,0.4,1,1l0,0c0,0.5-0.4,1-1,1
		l0,0C58,232.4,57.7,231.9,57.7,231.4z M57.7,227.8c0-0.5,0.4-1,1-1l0,0c0.5,0,1,0.4,1,1l0,0c0,0.5-0.4,1-1,1l0,0
		C58,228.8,57.7,228.3,57.7,227.8z M57.7,224.1c0-0.5,0.4-1,1-1l0,0c0.5,0,1,0.4,1,1l0,0c0,0.5-0.4,1-1,1l0,0
		C58,225,57.7,224.6,57.7,224.1z M57.7,220.5c0-0.5,0.4-1,1-1l0,0c0.5,0,1,0.4,1,1l0,0c0,0.5-0.4,1-1,1l0,0
		C58,221.4,57.7,221,57.7,220.5z M57.7,216.9c0-0.5,0.4-1,1-1l0,0c0.5,0,1,0.4,1,1l0,0c0,0.5-0.4,1-1,1l0,0
		C58,217.8,57.7,217.4,57.7,216.9z M57.7,213.3c0-0.5,0.4-1,1-1l0,0c0.5,0,1,0.4,1,1l0,0c0,0.5-0.4,1-1,1l0,0
		C58,214.1,57.7,213.8,57.7,213.3z M57.7,209.6c0-0.5,0.4-1,1-1l0,0c0.5,0,1,0.4,1,1l0,0c0,0.5-0.4,1-1,1l0,0
		C58,210.5,57.7,210.1,57.7,209.6z M57.7,206c0-0.5,0.4-1,1-1l0,0c0.5,0,1,0.4,1,1l0,0c0,0.5-0.4,1-1,1l0,0
		C58,206.9,57.7,206.5,57.7,206z M57.7,202.3c0-0.5,0.4-1,1-1l0,0c0.5,0,1,0.4,1,1l0,0c0,0.5-0.4,1-1,1l0,0
		C58,203.3,57.7,202.8,57.7,202.3z M57.7,198.6c0-0.5,0.4-1,1-1l0,0c0.5,0,1,0.4,1,1l0,0c0,0.5-0.4,1-1,1l0,0
		C58,199.6,57.7,199.1,57.7,198.6z M57.7,195c0-0.5,0.4-1,1-1l0,0c0.5,0,1,0.4,1,1l0,0c0,0.5-0.4,1-1,1l0,0
		C58,196,57.7,195.5,57.7,195z M57.7,191.4c0-0.5,0.4-1,1-1l0,0c0.5,0,1,0.4,1,1l0,0c0,0.5-0.4,1-1,1l0,0
		C58,192.4,57.7,191.9,57.7,191.4z"/>
	<path id="onboarding_slide1_line_4_1_" fill="#FFFFFF" d="M128.5,231.4c0-0.5,0.4-1,1-1l0,0c0.5,0,1,0.4,1,1l0,0c0,0.5-0.4,1-1,1
		l0,0C129,232.4,128.5,231.9,128.5,231.4z M128.5,227.8c0-0.5,0.4-1,1-1l0,0c0.5,0,1,0.4,1,1l0,0c0,0.5-0.4,1-1,1l0,0
		C129,228.8,128.5,228.3,128.5,227.8z M128.5,224.1c0-0.5,0.4-0.9,1-0.9l0,0c0.5,0,1,0.4,1,0.9l0,0c0,0.5-0.4,1-1,1l0,0
		C129,225,128.5,224.6,128.5,224.1z M128.5,220.5c0-0.5,0.4-1,1-1l0,0c0.5,0,1,0.4,1,1l0,0c0,0.5-0.4,1-1,1l0,0
		C129,221.4,128.5,221,128.5,220.5z M128.5,216.9c0-0.5,0.4-1,1-1l0,0c0.5,0,1,0.4,1,1l0,0c0,0.5-0.4,1-1,1l0,0
		C129,217.8,128.5,217.4,128.5,216.9z M128.5,213.3c0-0.5,0.4-1,1-1l0,0c0.5,0,1,0.4,1,1l0,0c0,0.5-0.4,1-1,1l0,0
		C129,214.1,128.5,213.8,128.5,213.3z M128.5,209.6c0-0.5,0.4-1,1-1l0,0c0.5,0,1,0.4,1,1l0,0c0,0.5-0.4,1-1,1l0,0
		C129,210.5,128.5,210.1,128.5,209.6z M128.5,206c0-0.5,0.4-1,1-1l0,0c0.5,0,1,0.4,1,1l0,0c0,0.5-0.4,1-1,1l0,0
		C129,206.9,128.5,206.5,128.5,206z M128.5,202.3c0-0.5,0.4-1,1-1l0,0c0.5,0,1,0.4,1,1l0,0c0,0.5-0.4,1-1,1l0,0
		C129,203.3,128.5,202.8,128.5,202.3z M128.5,198.6c0-0.5,0.4-1,1-1l0,0c0.5,0,1,0.4,1,1l0,0c0,0.5-0.4,1-1,1l0,0
		C129,199.6,128.5,199.1,128.5,198.6z M128.5,195c0-0.5,0.4-1,1-1l0,0c0.5,0,1,0.4,1,1l0,0c0,0.5-0.4,1-1,1l0,0
		C129,196,128.5,195.5,128.5,195z M128.5,191.4c0-0.5,0.4-1,1-1l0,0c0.5,0,1,0.4,1,1l0,0c0,0.5-0.4,1-1,1l0,0
		C129,192.4,128.5,191.9,128.5,191.4z"/>
	<path id="onboarding_slide1_line_3_1_" fill="#FFFFFF" d="M199.5,231.4c0-0.5,0.4-1,1-1l0,0c0.5,0,1,0.4,1,1l0,0c0,0.5-0.4,1-1,1
		l0,0C199.9,232.4,199.5,231.9,199.5,231.4z M199.5,227.8c0-0.5,0.4-1,1-1l0,0c0.5,0,1,0.4,1,1l0,0c0,0.5-0.4,1-1,1l0,0
		C199.9,228.8,199.5,228.3,199.5,227.8z M199.5,224.1c0-0.5,0.4-0.9,1-0.9l0,0c0.5,0,1,0.4,1,0.9l0,0c0,0.5-0.4,1-1,1l0,0
		C199.9,225,199.5,224.6,199.5,224.1z M199.5,220.5c0-0.5,0.4-1,1-1l0,0c0.5,0,1,0.4,1,1l0,0c0,0.5-0.4,1-1,1l0,0
		C199.9,221.4,199.5,221,199.5,220.5z M199.5,216.9c0-0.5,0.4-1,1-1l0,0c0.5,0,1,0.4,1,1l0,0c0,0.5-0.4,1-1,1l0,0
		C199.9,217.8,199.5,217.4,199.5,216.9z M199.5,213.3c0-0.5,0.4-1,1-1l0,0c0.5,0,1,0.4,1,1l0,0c0,0.5-0.4,1-1,1l0,0
		C199.9,214.1,199.5,213.8,199.5,213.3z M199.5,209.6c0-0.5,0.4-1,1-1l0,0c0.5,0,1,0.4,1,1l0,0c0,0.5-0.4,1-1,1l0,0
		C199.9,210.5,199.5,210.1,199.5,209.6z M199.5,206c0-0.5,0.4-1,1-1l0,0c0.5,0,1,0.4,1,1l0,0c0,0.5-0.4,1-1,1l0,0
		C199.9,206.9,199.5,206.5,199.5,206z M199.5,202.3c0-0.5,0.4-1,1-1l0,0c0.5,0,1,0.4,1,1l0,0c0,0.5-0.4,1-1,1l0,0
		C199.9,203.3,199.5,202.8,199.5,202.3z M199.5,198.6c0-0.5,0.4-1,1-1l0,0c0.5,0,1,0.4,1,1l0,0c0,0.5-0.4,1-1,1l0,0
		C199.9,199.6,199.5,199.1,199.5,198.6z M199.5,195c0-0.5,0.4-1,1-1l0,0c0.5,0,1,0.4,1,1l0,0c0,0.5-0.4,1-1,1l0,0
		C199.9,196,199.5,195.5,199.5,195z M199.5,191.4c0-0.5,0.4-1,1-1l0,0c0.5,0,1,0.4,1,1l0,0c0,0.5-0.4,1-1,1l0,0
		C199.9,192.4,199.5,191.9,199.5,191.4z"/>
	<path id="onboarding_slide1_line_2_1_" fill="#FFFFFF" d="M270.5,231.4c0-0.5,0.4-1,1-1l0,0c0.5,0,1,0.4,1,1l0,0c0,0.5-0.4,1-1,1
		l0,0C270.9,232.4,270.5,231.9,270.5,231.4z M270.5,227.8c0-0.5,0.4-1,1-1l0,0c0.5,0,1,0.4,1,1l0,0c0,0.5-0.4,1-1,1l0,0
		C270.9,228.8,270.5,228.3,270.5,227.8z M270.5,224.1c0-0.5,0.4-1,1-1l0,0c0.5,0,1,0.4,1,1l0,0c0,0.5-0.4,1-1,1l0,0
		C270.9,225.1,270.5,224.6,270.5,224.1z M270.5,220.5c0-0.5,0.4-1,1-1l0,0c0.5,0,1,0.4,1,1l0,0c0,0.5-0.4,1-1,1l0,0
		C270.9,221.4,270.5,221,270.5,220.5z M270.5,216.9c0-0.5,0.4-1,1-1l0,0c0.5,0,1,0.4,1,1l0,0c0,0.5-0.4,1-1,1l0,0
		C270.9,217.8,270.5,217.4,270.5,216.9z M270.5,213.3c0-0.5,0.4-1,1-1l0,0c0.5,0,1,0.4,1,1l0,0c0,0.5-0.4,1-1,1l0,0
		C270.9,214.1,270.5,213.8,270.5,213.3z M270.5,209.6c0-0.5,0.4-1,1-1l0,0c0.5,0,1,0.4,1,1l0,0c0,0.5-0.4,1-1,1l0,0
		C270.9,210.5,270.5,210.1,270.5,209.6z M270.5,206c0-0.5,0.4-1,1-1l0,0c0.5,0,1,0.4,1,1l0,0c0,0.5-0.4,1-1,1l0,0
		C270.9,206.9,270.5,206.5,270.5,206z M270.5,202.3c0-0.5,0.4-1,1-1l0,0c0.5,0,1,0.4,1,1l0,0c0,0.5-0.4,1-1,1l0,0
		C270.9,203.3,270.5,202.8,270.5,202.3z M270.5,198.6c0-0.5,0.4-1,1-1l0,0c0.5,0,1,0.4,1,1l0,0c0,0.5-0.4,1-1,1l0,0
		C270.9,199.6,270.5,199.1,270.5,198.6z M270.5,195c0-0.5,0.4-1,1-1l0,0c0.5,0,1,0.4,1,1l0,0c0,0.5-0.4,1-1,1l0,0
		C270.9,196,270.5,195.5,270.5,195z M270.5,191.4c0-0.5,0.4-1,1-1l0,0c0.5,0,1,0.4,1,1l0,0c0,0.5-0.4,1-1,1l0,0
		C270.9,192.4,270.5,191.9,270.5,191.4z"/>
	<path id="onboarding_slide1_line_1_1_" fill="#FFFFFF" d="M341.3,231.4c0-0.5,0.4-1,1-1l0,0c0.5,0,1,0.4,1,1l0,0c0,0.5-0.4,1-1,1
		l0,0C341.8,232.4,341.3,231.9,341.3,231.4z M341.3,227.8c0-0.5,0.4-1,1-1l0,0c0.5,0,1,0.4,1,1l0,0c0,0.5-0.4,1-1,1l0,0
		C341.8,228.8,341.3,228.3,341.3,227.8z M341.3,224.1c0-0.5,0.4-1,1-1l0,0c0.5,0,1,0.4,1,1l0,0c0,0.5-0.4,0.9-1,0.9l0,0
		C341.8,225,341.3,224.6,341.3,224.1z M341.3,220.5c0-0.5,0.4-1,1-1l0,0c0.5,0,1,0.4,1,1l0,0c0,0.5-0.4,1-1,1l0,0
		C341.8,221.4,341.3,221,341.3,220.5z M341.3,216.9c0-0.5,0.4-1,1-1l0,0c0.5,0,1,0.4,1,1l0,0c0,0.5-0.4,1-1,1l0,0
		C341.8,217.8,341.3,217.4,341.3,216.9z M341.3,213.3c0-0.5,0.4-1,1-1l0,0c0.5,0,1,0.4,1,1l0,0c0,0.5-0.4,1-1,1l0,0
		C341.8,214.1,341.3,213.8,341.3,213.3z M341.3,209.6c0-0.5,0.4-1,1-1l0,0c0.5,0,1,0.4,1,1l0,0c0,0.5-0.4,1-1,1l0,0
		C341.8,210.5,341.3,210.1,341.3,209.6z M341.3,206c0-0.5,0.4-1,1-1l0,0c0.5,0,1,0.4,1,1l0,0c0,0.5-0.4,1-1,1l0,0
		C341.8,206.9,341.3,206.5,341.3,206z M341.3,202.3c0-0.5,0.4-1,1-1l0,0c0.5,0,1,0.4,1,1l0,0c0,0.5-0.4,1-1,1l0,0
		C341.8,203.3,341.3,202.8,341.3,202.3z M341.3,198.6c0-0.5,0.4-1,1-1l0,0c0.5,0,1,0.4,1,1l0,0c0,0.5-0.4,1-1,1l0,0
		C341.8,199.6,341.3,199.1,341.3,198.6z M341.3,195c0-0.5,0.4-1,1-1l0,0c0.5,0,1,0.4,1,1l0,0c0,0.5-0.4,1-1,1l0,0
		C341.8,196,341.3,195.5,341.3,195z M341.3,191.4c0-0.5,0.4-1,1-1l0,0c0.5,0,1,0.4,1,1l0,0c0,0.5-0.4,1-1,1l0,0
		C341.8,192.4,341.3,191.9,341.3,191.4z"/>
</g>
<g id="b1">
	<g>
		<path fill="#FFCC4D" d="M361.7,275.9c0,11.7-9.5,21.2-21.2,21.2s-21.2-9.5-21.2-21.2c0-11.7,9.5-21.2,21.2-21.2
			S361.7,264.1,361.7,275.9"/>
		<ellipse fill="#664500" cx="340.5" cy="287.1" rx="6.2" ry="7.5"/>
		<path fill="#664500" d="M325.5,267.1c-0.2,0-0.5-0.1-0.7-0.2c-0.5-0.4-0.6-1.2-0.2-1.7c4.1-5.5,9.5-5.5,9.7-5.5
			c0.7,0,1.2,0.5,1.2,1.2c0,0.7-0.5,1.2-1.2,1.2c-0.2,0-4.5,0.1-7.7,4.5C326.2,266.9,325.9,267.1,325.5,267.1z"/>
		<path fill="#664500" d="M355.5,267.1c-0.4,0-0.7-0.1-1-0.5c-3.2-4.4-7.6-4.5-7.7-4.5c-0.6,0-1.2-0.6-1.2-1.2
			c0-0.7,0.5-1.2,1.2-1.2c0.2,0,5.6,0,9.7,5.5c0.4,0.5,0.2,1.4-0.2,1.7C356,267,355.7,267.1,355.5,267.1z"/>
		<path fill="#664500" d="M335.4,272.8l2.2-2.2c0.5-0.5,0.5-1.2,0-1.7s-1.2-0.5-1.7,0l-2.2,2.2l-2.2-2.2c-0.5-0.5-1.2-0.5-1.7,0
			s-0.5,1.2,0,1.7l2.2,2.2l-2.2,2.2c-0.5,0.5-0.5,1.2,0,1.7c0.2,0.2,0.6,0.4,0.9,0.4s0.6-0.1,0.9-0.4l2.2-2.2l2.2,2.2
			c0.2,0.2,0.6,0.4,0.9,0.4c0.3,0,0.6-0.1,0.9-0.4c0.5-0.5,0.5-1.2,0-1.7L335.4,272.8z"/>
		<path fill="#664500" d="M349.1,272.8l2.2-2.2c0.5-0.5,0.5-1.2,0-1.7s-1.2-0.5-1.7,0l-2.2,2.2l-2.2-2.2c-0.5-0.5-1.2-0.5-1.7,0
			s-0.5,1.2,0,1.7l2.2,2.2l-2.2,2.2c-0.5,0.5-0.5,1.2,0,1.7c0.2,0.2,0.6,0.4,0.9,0.4c0.3,0,0.6-0.1,0.9-0.4l2.2-2.2l2.2,2.2
			c0.2,0.2,0.6,0.4,0.9,0.4c0.3,0,0.6-0.1,0.9-0.4c0.5-0.5,0.5-1.2,0-1.7L349.1,272.8z"/>
	</g>
	<g>
		<path fill="#553788" d="M259.9,268.5c3.7,6.2,0,13.4-3.7,12.1c-3.7-1.2-5,2.5-1.2,3.7c3.7,1.2,11.9-0.6,16.2-5
			c1.2-1.2,2.5-1.2,2.5-1.2L259.9,268.5z"/>
		<path fill="#553788" d="M279.9,268.5c-3.7,6.2,0,13.4,3.7,12.1c3.7-1.2,5,2.5,1.2,3.7c-3.7,1.2-11.9-0.6-16.2-5
			c-1.2-1.2-2.5-1.2-2.5-1.2L279.9,268.5z"/>
		<path fill="#744EAA" d="M285.1,273.5c-3.7,6.2,0,13.4,3.7,12.1c3.7-1.2,5,2.5,1.2,3.7c-3.7,1.2-11.9-0.6-16.2-5
			c-1.2-1.2-2.5-1.2-2.5-1.2L285.1,273.5z"/>
		<path fill="#744EAA" d="M254.6,273.5c3.7,6.2,0,13.4-3.7,12.1c-3.7-1.2-5,2.5-1.2,3.7c3.7,1.2,11.9-0.6,16.2-5
			c1.2-1.2,2.5-1.2,2.5-1.2L254.6,273.5z"/>
		<path fill="#9266CC" d="M288.9,292.8c-3.4,1.1-8-7-6-13.2c2-4,3.2-8.6,3.2-12.2c0-9-7.2-13.7-16.2-13.7s-16.2,4.7-16.2,13.7
			c0,3.6,1.2,8.2,3.2,12.2c2,6.2-2.6,14.4-6,13.2c-3.7-1.2-5,3.7-1.2,5c3.7,1.2,10.4-0.7,15-5c2.7-2.5,5.2-2.5,5.2-2.5
			s2.5,0,5.2,2.5c4.6,4.2,11.2,6.2,15,5C293.9,296.5,292.6,291.5,288.9,292.8z"/>
		<circle fill="#292F33" cx="264.9" cy="279.8" r="2.5"/>
		<circle fill="#292F33" cx="274.9" cy="279.8" r="2.5"/>
	</g>
	<g>
		<path fill="#553788" d="M189.1,268.5c3.7,6.2,0,13.4-3.7,12.1c-3.7-1.2-5,2.5-1.2,3.7c3.7,1.2,11.9-0.6,16.2-5
			c1.2-1.2,2.5-1.2,2.5-1.2L189.1,268.5z"/>
		<path fill="#553788" d="M209.1,268.5c-3.7,6.2,0,13.4,3.7,12.1c3.7-1.2,5,2.5,1.2,3.7c-3.7,1.2-11.9-0.6-16.2-5
			c-1.2-1.2-2.5-1.2-2.5-1.2L209.1,268.5z"/>
		<path fill="#744EAA" d="M214.4,273.5c-3.7,6.2,0,13.4,3.7,12.1c3.7-1.2,5,2.5,1.2,3.7c-3.7,1.2-11.9-0.6-16.2-5
			c-1.2-1.2-2.5-1.2-2.5-1.2L214.4,273.5z"/>
		<path fill="#744EAA" d="M183.9,273.5c3.7,6.2,0,13.4-3.7,12.1c-3.7-1.2-5,2.5-1.2,3.7c3.7,1.2,11.9-0.6,16.2-5
			c1.2-1.2,2.5-1.2,2.5-1.2L183.9,273.5z"/>
		<path fill="#9266CC" d="M218.1,292.8c-3.4,1.1-8-7-6-13.2c2-4,3.2-8.6,3.2-12.2c0-9-7.2-13.7-16.2-13.7c-9,0-16.2,4.7-16.2,13.7
			c0,3.6,1.2,8.2,3.2,12.2c2,6.2-2.6,14.4-6,13.2c-3.7-1.2-5,3.7-1.2,5c3.7,1.2,10.4-0.7,15-5c2.7-2.5,5.2-2.5,5.2-2.5
			s2.5,0,5.2,2.5c4.6,4.2,11.2,6.2,15,5C223.1,296.5,221.9,291.5,218.1,292.8z"/>
		<circle fill="#292F33" cx="194.1" cy="279.8" r="2.5"/>
		<circle fill="#292F33" cx="204.1" cy="279.8" r="2.5"/>
	</g>
	<g>
		<path fill="#FDD888" d="M145.9,283.3c-0.7-8.2-4.9-12.4-4.9-12.4l-7.5-10h-1.3h-3.7h-3.7h-1.2l-7.5,10c0,0-1.7,1.7-3.2,5.4
			c-2.5,0.9-4.2,3.1-4.2,5.9c0,1.7,0.7,3.4,2,4.6c-0.5,0.9-0.7,1.9-0.7,2.9c0,2.5,1.4,4.5,3.5,5.6c1.6,2.4,3.7,3.1,5.2,3.1h20
			c1.7,0,4.2-1,5.9-4.1c2.4-0.9,4.1-3.1,4.1-5.9C148.5,286.3,147.5,284.4,145.9,283.3z"/>
		<path fill="#FDD888" d="M128.5,260.9c0.6,0,1.4-0.2,1.9-0.5c0.5,0.4,1.2,0.5,1.9,0.5c2.1,0,5-2.9,5-5c0,0,0-2.5-2.5-2.5
			c-1,0-1.2,1.2-2.5,1.2c-1.3,0-1.2-1.2-3.7-1.2c-2.5,0-2.5,1.2-3.7,1.2c-1.2,0-1.5-1.2-2.5-1.2c-2.5,0-2.5,2.5-2.5,2.5
			c0,2.1,2.9,5,5,5c0.6,0,1.4-0.2,1.9-0.5C127.1,260.6,127.9,260.9,128.5,260.9z"/>
		<path fill="#BF6952" d="M136,260.9c0,0.7-0.5,1.2-1.2,1.2h-12.6c-0.7,0-1.2-0.5-1.2-1.2l0,0c0-0.7,0.5-1.2,1.2-1.2h12.5
			C135.5,259.6,136,260.1,136,260.9L136,260.9z"/>
		<path fill="#67757F" d="M135.9,284c0-5.6-10.7-5.2-10.7-8.6c0-1.6,1.6-2.4,3.5-2.4c3.1,0,3.7,2,5.1,2c1,0,1.5-0.6,1.5-1.2
			c0-1.6-2.5-2.9-5-3.2V269c0-1-0.9-1.7-1.9-1.7s-1.9,0.7-1.9,1.7v1.6c-2.6,0.6-4.9,2.4-4.9,5.2c0,5.4,10.7,5.1,10.7,8.9
			c0,1.2-1.5,2.6-3.9,2.6c-3.6,0-4.9-2.4-6.2-2.4c-0.7,0-1.4,0.6-1.4,1.5c0,1.4,2.4,3.1,5.7,3.5l0,0v1.7c0,1,0.9,1.7,1.9,1.7
			s1.9-0.7,1.9-1.7V290l0,0C133.4,289.3,135.9,287.4,135.9,284z"/>
	</g>
	<g>
		<path fill="#3E721D" d="M70.1,287c-10,0-10.2,7.5-10.2,7.5V280h-5v14.5c0,0,0.2-7.5-9.7-7.5c-5,0-8.6-2.9-8.6-2.9
			s0,10.9,11.3,10.9c5,0,7.5,0,7.5,0s0,2.5,2.5,2.5s2.5-2.5,2.5-2.5s2.5,0,7.5,0c11.2,0,11.1-10.9,11.1-10.9S75.1,287,70.1,287z"/>
		<path fill="#FFAC33" d="M61.9,287.9c-0.4,0-0.9-0.1-1.1-0.4l-2.9-2l-2.9,2c-0.4,0.2-0.7,0.4-1.1,0.4c-0.1,0-0.4,0-0.5-0.1
			c-0.6-0.1-1.1-0.5-1.4-1.1l-1.5-3.1l-3.5,0.2h-0.1c-0.5,0-1.1-0.2-1.5-0.6c-0.4-0.4-0.6-1-0.6-1.6l0.2-3.5l-3.1-1.5
			c-0.5-0.2-1-0.7-1.1-1.4c-0.1-0.6,0-1.2,0.2-1.7l2-2.9l-2-2.9c-0.4-0.5-0.5-1.1-0.2-1.7c0.1-0.6,0.5-1.1,1.1-1.4l3.1-1.5l-0.2-3.5
			c0-0.6,0.1-1.2,0.6-1.6c0.4-0.4,0.9-0.6,1.5-0.6H47l3.5,0.2l1.5-3.1c0.2-0.5,0.7-1,1.4-1.1c0.1,0,0.4-0.1,0.5-0.1
			c0.4,0,0.9,0.1,1.1,0.4l2.9,2l2.9-2c0.4-0.2,0.7-0.4,1.1-0.4c0.1,0,0.4,0,0.5,0.1c0.6,0.1,1.1,0.5,1.4,1.1l1.5,3.1l3.5-0.2h0.1
			c0.5,0,1.1,0.2,1.5,0.6c0.4,0.4,0.6,1,0.6,1.6l-0.2,3.5l3.1,1.5c0.5,0.2,1,0.7,1.1,1.4c0.1,0.7,0,1.2-0.2,1.7l-2,2.9l2,2.9
			c0.4,0.5,0.5,1.1,0.2,1.7c-0.1,0.6-0.5,1.1-1.1,1.4l-3.1,1.5l0.2,3.5c0,0.6-0.1,1.1-0.6,1.6c-0.4,0.4-0.9,0.6-1.5,0.6h-0.1
			l-3.5-0.2l-1.5,3.1c-0.2,0.5-0.7,1-1.4,1.1C62.2,287.9,62.1,287.9,61.9,287.9z"/>
		<circle fill="#732700" cx="58" cy="270.8" r="8.7"/>
	</g>
</g>
<g id="b2">
	<g>
		<path fill="#C6E5B3" d="M363,280.3c0,9.4-10.1,15-22.5,15s-22.5-5.6-22.5-15c0-9.4,10.1-18.7,22.5-18.7S363,270.9,363,280.3z"/>
		<path fill="#77B255" d="M357.7,268.6c1.7-1.4,2.7-3.5,2.7-5.9c0-4.1-3.4-7.5-7.5-7.5c-3.6,0-6.5,2.5-7.4,5.9c-1.6-0.6-3.4-1-5.1-1
			c-1.9,0-3.6,0.4-5.1,1c-0.7-3.4-3.7-5.9-7.4-5.9c-4.1,0-7.5,3.4-7.5,7.5c0,2.4,1.1,4.5,2.7,5.9c-3.2,3.4-5.2,7.5-5.2,11.6
			c0,9.4,10.1,1.2,22.5,1.2c12.4,0,22.5,8.1,22.5-1.2C363,276.1,361,271.9,357.7,268.6z"/>
		<circle fill="#FFFFFF" cx="327.4" cy="262.1" r="4.4"/>
		<circle fill="#292F33" cx="327.4" cy="262.1" r="1.9"/>
		<circle fill="#FFFFFF" cx="353.6" cy="262.1" r="4.4"/>
		<circle fill="#292F33" cx="353.6" cy="262.1" r="1.9"/>
		<circle fill="#5C913B" cx="335.5" cy="277.8" r="1.2"/>
		<circle fill="#5C913B" cx="345.5" cy="277.8" r="1.2"/>
	</g>
	<g>
		<path fill="#292F33" d="M290.6,290c0,0,1.5,0.6,1.5,1.9c0,1.2-1.2,1.9-2.6,1.9c-1.2,0-19.5,0-22.1,0c-2.6,0-2.6-4.5-6.5-12.2
			c-3.9-7.9-7.9-2.4-7.9-2.4l-1.2,15.9h-3.1c0,0,0-15.5,0-18c0-2.6-1-5.4-1-6.5c0-2.6,0.9-5.5,0.9-5.5l8.5,2.9L290.6,290z"/>
		<path fill="#9266CC" d="M249.5,267.3c3.7,0.9,12.9,5.1,17.5,22c0,0,0,2,3,2s20.6,0,20.6,0s1.5-0.6,1.5-3.4c0-1.4-7.4-4.4-10.4-5.7
			c-3-1.3-5.5-5.5-5.5-5.5s-5.2,2-14.1-7.5c-8.9-9.5-5.5-13.1-8.4-13.1c-0.6,0-4.6,4.1-5.6,8.7C247.9,265.6,248.5,267,249.5,267.3z"
			/>
	</g>
	<g>
		<path fill="#292F33" d="M220,290c0,0,1.5,0.6,1.5,1.9c0,1.2-1.2,1.9-2.6,1.9c-1.2,0-19.5,0-22.1,0c-2.6,0-2.6-4.5-6.5-12.2
			c-3.9-7.9-7.9-2.4-7.9-2.4l-1.2,15.9h-2.5c0,0,0-15.5,0-18c0-2.6-1.4-5.4-1.4-6.5c0-2.6,0.7-5.5,0.7-5.5l8.4,2.9L220,290z"/>
		<path fill="#9266CC" d="M178.9,267.3c3.7,0.9,12.9,5.1,17.5,22c0,0,0,2,3,2c3,0,20.6,0,20.6,0s1.5-0.6,1.5-3.4
			c0-1.4-7.4-4.4-10.4-5.7c-3-1.4-5.5-5.5-5.5-5.5s-5.2,2-14.1-7.5c-8.9-9.5-5.5-13.1-8.4-13.1c-0.6,0-4.6,4.1-5.6,8.7
			C177.2,265.6,177.9,267,178.9,267.3z"/>
	</g>
	<g>
		<path fill="#8899A6" d="M151.1,275.9c0,12.4-10.1,22.5-22.5,22.5s-22.5-10.1-22.5-22.5s10.1-22.5,22.5-22.5
			S151.1,263.4,151.1,275.9z M128.6,272.1c-2.1,0-3.7,1.6-3.7,3.7c0,2.1,1.6,3.7,3.7,3.7s3.7-1.6,3.7-3.7
			C132.4,273.8,130.7,272.1,128.6,272.1z"/>
		<g>
			<g>
				<g>
					<g>
						<g>
							<defs>
								<path id="SVGID_1_" d="M148.6,275.9c0,11-9,20-20,20s-20-9-20-20s9-20,20-20S148.6,264.8,148.6,275.9z M128.6,269.9
									c-3.2,0-6,2.6-6,6c0,3.2,2.6,6,6,6c3.2,0,6-2.6,6-6S131.9,269.9,128.6,269.9z"/>
							</defs>
							<clipPath id="SVGID_2_">
								<use xlink:href="#SVGID_1_"  overflow="visible"/>
							</clipPath>
							<polygon clip-path="url(#SVGID_2_)" fill="#CCD6DD" points="128.6,276 106.1,273.4 106.1,253.8 126.1,253.8 							"/>
						</g>
					</g>
				</g>
			</g>
			<g>
				<g>
					<g>
						<g>
							<defs>
								<path id="SVGID_3_" d="M148.6,275.9c0,11-9,20-20,20s-20-9-20-20s9-20,20-20S148.6,264.8,148.6,275.9z M128.6,269.9
									c-3.2,0-6,2.6-6,6c0,3.2,2.6,6,6,6c3.2,0,6-2.6,6-6S131.9,269.9,128.6,269.9z"/>
							</defs>
							<clipPath id="SVGID_4_">
								<use xlink:href="#SVGID_3_"  overflow="visible"/>
							</clipPath>
							<polygon clip-path="url(#SVGID_4_)" fill="#CCD6DD" points="128.6,276 151.1,278.4 151.1,298.8 131.1,298.8 							"/>
						</g>
					</g>
				</g>
			</g>
			<g>
				<g>
					<g>
						<g>
							<defs>
								<path id="SVGID_5_" d="M148.6,275.9c0,11-9,20-20,20s-20-9-20-20s9-20,20-20S148.6,264.8,148.6,275.9z M128.6,269.9
									c-3.2,0-6,2.6-6,6c0,3.2,2.6,6,6,6c3.2,0,6-2.6,6-6S131.9,269.9,128.6,269.9z"/>
							</defs>
							<clipPath id="SVGID_6_">
								<use xlink:href="#SVGID_5_"  overflow="visible"/>
							</clipPath>
							<polygon clip-path="url(#SVGID_6_)" fill="#F5F8FA" points="128.6,275.9 131.2,299.6 151.1,298.4 							"/>
						</g>
					</g>
				</g>
			</g>
			<g>
				<g>
					<g>
						<g>
							<defs>
								<path id="SVGID_7_" d="M148.6,275.9c0,11-9,20-20,20s-20-9-20-20s9-20,20-20S148.6,264.8,148.6,275.9z M128.6,269.9
									c-3.2,0-6,2.6-6,6c0,3.2,2.6,6,6,6c3.2,0,6-2.6,6-6S131.9,269.9,128.6,269.9z"/>
							</defs>
							<clipPath id="SVGID_8_">
								<use xlink:href="#SVGID_7_"  overflow="visible"/>
							</clipPath>
							<polygon clip-path="url(#SVGID_8_)" fill="#F5F8FA" points="128.6,275.9 106.1,253.4 126.1,252.1 							"/>
						</g>
					</g>
				</g>
			</g>
		</g>
	</g>
	<g>
		<path fill="#E75A70" d="M66.5,277.4c0-4.7-3.7-8.5-8.5-8.5c-2.9,0-5.4,1.4-6.9,3.5c-1.5-2.1-4-3.5-6.9-3.5c-4.7,0-8.5,3.7-8.5,8.5
			c0,0.6,0.1,1.2,0.2,1.9c1.1,7.4,9.4,15.1,15.1,17.2c5.9-2.1,14-9.9,15.1-17.2C66.4,278.8,66.5,278,66.5,277.4z"/>
		<path fill="#E75A70" d="M80.4,259.9c0-3.2-2.6-5.9-5.9-5.9c-2,0-3.7,1-4.7,2.5c-1.1-1.5-2.7-2.5-4.7-2.5c-3.2,0-5.9,2.6-5.9,5.9
			c0,0.5,0,0.9,0.1,1.4c0.9,5.1,6.5,10.5,10.5,11.9c4-1.5,9.7-6.9,10.5-11.9C80.2,260.8,80.4,260.4,80.4,259.9z"/>
	</g>
</g>
<g id="b3">
	<g>
		<path fill="#E1E8ED" d="M363,267.3c0-1.4-1.1-2.5-2.5-2.5s-2.5,1.1-2.5,2.5c0,0,0,4.1-3.7,4.9v-3.6c0-7.6-6.1-13.7-13.7-13.7
			c-7.6,0-13.7,6.1-13.7,13.7v4c-6.5,2-8.7,10-8.7,14.7c0,1.4,1.1,2.5,2.5,2.5c1.4,0,2.5-1.1,2.5-2.5c0,0,0-4.4,4.1-5
			c0.6,6,2,12.5,4.6,12.5c0.4,0,0.7,0,1.2,0c5,0,3.7,2.5,8.7,2.5s3.7-2.5,7.5-2.5s3,2.5,7.5,2.5c2.1,0,3.7-1.6,3.7-3.7
			c0-0.9-2.9-6.2-4.7-11.6C363,280.3,363,271.8,363,267.3z"/>
		<circle fill="#292F33" cx="334.2" cy="268.5" r="2.5"/>
		<circle fill="#292F33" cx="346.7" cy="268.5" r="5"/>
		<circle fill="#9AAAB4" cx="346.7" cy="269.8" r="2.5"/>
		
			<ellipse transform="matrix(0.6001 -0.7999 0.7999 0.6001 -89.0626 386.8241)" fill="#292F33" cx="342.4" cy="282.5" rx="5.6" ry="7.5"/>
	</g>
	<g>
		<path fill="#99AAB5" d="M281,295c0,2.7-2.2,3.7-5,3.7h-12.5c-2.7,0-5-1-5-3.7l0,0c0-2.7,3.7-8.7,3.7-16.2s15-7.5,15,0
			S281,292.3,281,295L281,295z"/>
		<g>
			<g>
				<g>
					<g>
						<g>
							<defs>
								<path id="SVGID_9_" d="M269.7,253.1c-12.4,0-22.5,10.2-22.5,22.7c0,2.7,2.2,5.2,5,5.2h35c2.7,0,5-2.5,5-5.2
									C292.2,263.5,282.1,253.1,269.7,253.1z"/>
							</defs>
							<clipPath id="SVGID_10_">
								<use xlink:href="#SVGID_9_"  overflow="visible"/>
							</clipPath>
							<path clip-path="url(#SVGID_10_)" fill="#DD2E44" d="M269.7,252.4c-13.1,0-23.7,11.1-23.7,24.2c0,2.9,2.4,5.9,5.2,5.9h37
								c2.9,0,5.2-2.9,5.2-5.9C293.5,263.5,282.9,252.4,269.7,252.4z"/>
						</g>
					</g>
				</g>
			</g>
			<g>
				<g>
					<g>
						<g>
							<defs>
								<path id="SVGID_11_" d="M269.7,253.1c-12.4,0-22.5,10.2-22.5,22.7c0,2.7,2.2,5.2,5,5.2h35c2.7,0,5-2.5,5-5.2
									C292.2,263.5,282.1,253.1,269.7,253.1z"/>
							</defs>
							<clipPath id="SVGID_12_">
								<use xlink:href="#SVGID_11_"  overflow="visible"/>
							</clipPath>
							<g clip-path="url(#SVGID_12_)">
								<path fill="#F4ABBA" d="M256.9,273.8c-4.2,0-7.7-3.5-7.7-7.7c0-4.2,3.5-7.7,7.7-7.7c4.2,0,7.7,3.5,7.7,7.7
									C264.6,270.3,261.1,273.8,256.9,273.8z"/>
								<path fill="#F4ABBA" d="M256.9,258.5c4.1,0,7.5,3.4,7.5,7.5s-3.4,7.5-7.5,7.5c-4.1,0-7.5-3.4-7.5-7.5
									C249.2,261.9,252.7,258.5,256.9,258.5 M256.9,258.1c-4.4,0-7.9,3.5-7.9,7.9s3.5,7.9,7.9,7.9c4.4,0,7.9-3.5,7.9-7.9
									S261.2,258.1,256.9,258.1L256.9,258.1z"/>
							</g>
						</g>
					</g>
				</g>
			</g>
			<g>
				<g>
					<g>
						<g>
							<defs>
								<path id="SVGID_13_" d="M269.7,253.1c-12.4,0-22.5,10.2-22.5,22.7c0,2.7,2.2,5.2,5,5.2h35c2.7,0,5-2.5,5-5.2
									C292.2,263.5,282.1,253.1,269.7,253.1z"/>
							</defs>
							<clipPath id="SVGID_14_">
								<use xlink:href="#SVGID_13_"  overflow="visible"/>
							</clipPath>
							<path clip-path="url(#SVGID_14_)" fill="#F4ABBA" d="M290.5,267.1c-1.2-3-3-5.6-5.2-7.7c-3.1,0-5.6,2.5-5.6,5.6
								s2.5,5.6,5.6,5.6C287.7,270.6,289.7,269.3,290.5,267.1z"/>
						</g>
					</g>
				</g>
			</g>
			<g>
				<g>
					<g>
						<g>
							<defs>
								<path id="SVGID_15_" d="M269.7,253.1c-12.4,0-22.5,10.2-22.5,22.7c0,2.7,2.2,5.2,5,5.2h35c2.7,0,5-2.5,5-5.2
									C292.2,263.5,282.1,253.1,269.7,253.1z"/>
							</defs>
							<clipPath id="SVGID_16_">
								<use xlink:href="#SVGID_15_"  overflow="visible"/>
							</clipPath>
							<circle clip-path="url(#SVGID_16_)" fill="#F4ABBA" cx="274.1" cy="273.1" r="5.6"/>
						</g>
					</g>
				</g>
			</g>
			<g>
				<g>
					<g>
						<g>
							<defs>
								<path id="SVGID_17_" d="M269.7,253.1c-12.4,0-22.5,10.2-22.5,22.7c0,2.7,2.2,5.2,5,5.2h35c2.7,0,5-2.5,5-5.2
									C292.2,263.5,282.1,253.1,269.7,253.1z"/>
							</defs>
							<clipPath id="SVGID_18_">
								<use xlink:href="#SVGID_17_"  overflow="visible"/>
							</clipPath>
							<circle clip-path="url(#SVGID_18_)" fill="#F4ABBA" cx="272.2" cy="259.4" r="3.7"/>
						</g>
					</g>
				</g>
			</g>
		</g>
	</g>
	<g>
		<path fill="#99AAB5" d="M210.1,295c0,2.7-2.2,3.7-5,3.7h-12.5c-2.7,0-5-1-5-3.7l0,0c0-2.7,3.7-8.7,3.7-16.2s15-7.5,15,0
			C206.4,286.3,210.1,292.3,210.1,295L210.1,295z"/>
		<g>
			<g>
				<g>
					<g>
						<g>
							<defs>
								<path id="SVGID_19_" d="M198.9,253.5c-12.4,0-22.5,10.1-22.5,22.6c0,2.7,2.2,5.1,5,5.1h35c2.7,0,5-2.4,5-5.1
									C221.4,263.6,211.4,253.5,198.9,253.5z"/>
							</defs>
							<clipPath id="SVGID_20_">
								<use xlink:href="#SVGID_19_"  overflow="visible"/>
							</clipPath>
							<path clip-path="url(#SVGID_20_)" fill="#DD2E44" d="M198.9,252.8c-13.1,0-23.7,10.9-23.7,24.1c0,2.9,2.4,5.6,5.2,5.6h37
								c2.9,0,5.2-2.7,5.2-5.6C222.6,263.6,212,252.8,198.9,252.8z"/>
						</g>
					</g>
				</g>
			</g>
			<g>
				<g>
					<g>
						<g>
							<defs>
								<path id="SVGID_21_" d="M198.9,253.5c-12.4,0-22.5,10.1-22.5,22.6c0,2.7,2.2,5.1,5,5.1h35c2.7,0,5-2.4,5-5.1
									C221.4,263.6,211.4,253.5,198.9,253.5z"/>
							</defs>
							<clipPath id="SVGID_22_">
								<use xlink:href="#SVGID_21_"  overflow="visible"/>
							</clipPath>
							<g clip-path="url(#SVGID_22_)">
								<path fill="#F4ABBA" d="M186.1,274.1c-4.2,0-7.7-3.5-7.7-7.7c0-4.2,3.5-7.7,7.7-7.7c4.2,0,7.7,3.5,7.7,7.7
									C193.9,270.6,190.4,274.1,186.1,274.1z"/>
								<path fill="#F4ABBA" d="M186.1,258.9c4.1,0,7.5,3.4,7.5,7.5s-3.4,7.5-7.5,7.5s-7.5-3.4-7.5-7.5
									C178.5,262.3,181.9,258.9,186.1,258.9 M186.1,258.5c-4.4,0-7.9,3.5-7.9,7.9s3.5,7.9,7.9,7.9s7.9-3.5,7.9-7.9
									S190.4,258.5,186.1,258.5L186.1,258.5z"/>
							</g>
						</g>
					</g>
				</g>
			</g>
			<g>
				<g>
					<g>
						<g>
							<defs>
								<path id="SVGID_23_" d="M198.9,253.5c-12.4,0-22.5,10.1-22.5,22.6c0,2.7,2.2,5.1,5,5.1h35c2.7,0,5-2.4,5-5.1
									C221.4,263.6,211.4,253.5,198.9,253.5z"/>
							</defs>
							<clipPath id="SVGID_24_">
								<use xlink:href="#SVGID_23_"  overflow="visible"/>
							</clipPath>
							<path clip-path="url(#SVGID_24_)" fill="#F4ABBA" d="M219.7,267.5c-1.2-3-3-5.6-5.2-7.7c-3.1,0-5.6,2.5-5.6,5.6
								s2.5,5.6,5.6,5.6C216.9,271,218.9,269.6,219.7,267.5z"/>
						</g>
					</g>
				</g>
			</g>
			<g>
				<g>
					<g>
						<g>
							<defs>
								<path id="SVGID_25_" d="M198.9,253.5c-12.4,0-22.5,10.1-22.5,22.6c0,2.7,2.2,5.1,5,5.1h35c2.7,0,5-2.4,5-5.1
									C221.4,263.6,211.4,253.5,198.9,253.5z"/>
							</defs>
							<clipPath id="SVGID_26_">
								<use xlink:href="#SVGID_25_"  overflow="visible"/>
							</clipPath>
							<circle clip-path="url(#SVGID_26_)" fill="#F4ABBA" cx="203.4" cy="273.5" r="5.6"/>
						</g>
					</g>
				</g>
			</g>
			<g>
				<g>
					<g>
						<g>
							<defs>
								<path id="SVGID_27_" d="M198.9,253.5c-12.4,0-22.5,10.1-22.5,22.6c0,2.7,2.2,5.1,5,5.1h35c2.7,0,5-2.4,5-5.1
									C221.4,263.6,211.4,253.5,198.9,253.5z"/>
							</defs>
							<clipPath id="SVGID_28_">
								<use xlink:href="#SVGID_27_"  overflow="visible"/>
							</clipPath>
							<circle clip-path="url(#SVGID_28_)" fill="#F4ABBA" cx="201.4" cy="259.8" r="3.7"/>
						</g>
					</g>
				</g>
			</g>
		</g>
	</g>
	<g>
		<path fill="#FFCC4D" d="M141.7,275.6c-1.2,1.2-2,3.9-1.7,5.6l1.1,8c0.2,1.7-0.9,2.6-2.5,1.9l-7.4-3.5c-1.6-0.7-4.2-0.7-5.9,0
			l-7.2,3.5c-1.6,0.7-2.7,0-2.5-1.9l1-8c0.2-1.7-0.6-4.2-1.9-5.6l-5.6-5.9c-1.2-1.2-0.9-2.6,1-3l8-1.5c1.7-0.4,3.9-1.9,4.7-3.5
			l3.9-7.1c0.9-1.6,2.2-1.6,3.1,0l3.9,7.1c0.9,1.6,3,3.1,4.7,3.5l8,1.4c1.7,0.4,2.2,1.6,1,3L141.7,275.6z"/>
		<path fill="#FFD983" d="M117.9,256.3c1.2,1.7,3,6.1,2.1,6.7c-0.9,0.6-4.5-2.4-5.7-4.1c-1.2-1.7-1.1-3.4-0.1-4.1
			C115.1,254.1,116.6,254.5,117.9,256.3z"/>
		<path fill="#FFD983" d="M142.1,258.9c-1.2,1.7-4.9,4.9-5.7,4.1c-0.9-0.6,0.9-5,2.1-6.7c1.2-1.7,2.7-2.1,3.7-1.4
			C143.2,255.6,143.4,257.1,142.1,258.9z"/>
		<path fill="#FFD983" d="M126.4,295.1c0-2.1,1.1-6.7,2.2-6.7s2.2,4.6,2.2,6.7s-1,3.4-2.2,3.4C127.5,298.5,126.4,297.4,126.4,295.1z
			"/>
		<path fill="#FFD983" d="M146.6,283.5c-2.1-0.6-6.1-3.1-5.7-4.2c0.4-1.1,5-0.7,7.1,0c2.1,0.6,2.9,2,2.5,3.2
			C150.1,283.6,148.7,284.3,146.6,283.5z"/>
		<path fill="#FFD983" d="M108.2,279.3c2.1-0.6,6.7-1,7.1,0c0.4,1.1-3.6,3.6-5.7,4.2c-2.1,0.6-3.5,0.1-3.9-1.1
			C105.4,281.3,106.2,280,108.2,279.3z"/>
	</g>
	<g>
		<path fill="#66757F" d="M77.4,295c0,1.4-1.1,2.5-2.5,2.5h-3.7c-1.4,0-2.5-1.1-2.5-2.5v-10c0-1.4,1.1-2.5,2.5-2.5h3.7
			c1.4,0,2.5,1.1,2.5,2.5V295z"/>
		<path fill="#66757F" d="M46.1,295c0,1.4-1.1,2.5-2.5,2.5h-3.7c-1.4,0-2.5-1.1-2.5-2.5v-10c0-1.4,1.1-2.5,2.5-2.5h3.7
			c1.4,0,2.5,1.1,2.5,2.5V295z"/>
		<path fill="#66757F" d="M41.1,273.1c0,1-0.9,1.9-1.9,1.9h-2.5c-1,0-1.9-0.9-1.9-1.9l0,0c0-1,0.9-1.9,1.9-1.9h2.5
			C40.2,271.3,41.1,272.1,41.1,273.1L41.1,273.1z"/>
		<path fill="#66757F" d="M79.9,273.1c0-1-0.9-1.9-1.9-1.9h-2.5c-1,0-1.9,0.9-1.9,1.9l0,0c0,1,0.9,1.9,1.9,1.9H78
			C79,275,79.9,274.1,79.9,273.1L79.9,273.1z"/>
		<path fill="#CCD6DD" d="M46.7,259.1c5-1.2,17.5-1.2,22.5,0c4.9,1.2,6,13.7,6,13.7s2.2,0,2.2,5s0,10,0,10s0.2,3.7-3.5,5
			C69,294.4,64,294,57.8,294c-6.2,0-11.6,0.4-16.5-1.2c-3.7-1.2-4-5-4-5v-10c0,0,0.2-5,2.7-5C40.1,272.9,41.9,260.4,46.7,259.1z"/>
		<path fill="#292F33" d="M57.4,279.1c-7.1,0-13.7-0.1-20-0.4v9.1c0,0,0.2,3.7,4,5c4.9,1.6,10.1,1.2,16.4,1.2c6.3,0,11.1,0.4,16-1.2
			c3.7-1.2,3.5-5,3.5-5s0-4.4,0-9.1C72.4,279,64.5,279.1,57.4,279.1z"/>
		<path fill="#55ACEE" d="M58,271.6c4.9,0,10.7,0.2,15,0.7l-1.2-7c-1.2-3.7-8.7-3.7-13.7-3.7s-12.5,0-13.7,3.7l-1.2,7
			C47.2,271.9,53.1,271.6,58,271.6z"/>
		<path fill="#CCD6DD" d="M49.9,283.8c0,1.4-1.1,2.5-2.5,2.5h-5c-1.4,0-2.5-1.1-2.5-2.5l0,0c0-1.4,1.1-2.5,2.5-2.5h5
			C48.7,281.3,49.9,282.4,49.9,283.8L49.9,283.8z"/>
		<path fill="#CCD6DD" d="M74.9,283.8c0-1.4-1.1-2.5-2.5-2.5h-5c-1.4,0-2.5,1.1-2.5,2.5l0,0c0,1.4,1.1,2.5,2.5,2.5h5
			C73.7,286.3,74.9,285.1,74.9,283.8L74.9,283.8z"/>
		<path fill="#66757F" d="M71.1,289.4c0,1-0.9,1.9-1.9,1.9H45.5c-1,0-1.9-0.9-1.9-1.9l0,0c0-1,0.9-1.9,1.9-1.9h23.7
			C70.2,287.5,71.1,288.4,71.1,289.4L71.1,289.4z"/>
		<path fill="#99AAB5" d="M50.5,279.1c-0.1,0-0.4,0-0.5-0.1l-7.5-3.7c-0.6-0.2-0.9-1-0.5-1.6c0.2-0.6,1-0.9,1.6-0.5l7.5,3.7
			c0.6,0.2,0.9,1,0.5,1.6C51.4,278.9,51,279.1,50.5,279.1z"/>
		<path fill="#99AAB5" d="M65.5,279.1c-0.5,0-0.9-0.2-1.1-0.7c-0.2-0.6,0-1.4,0.5-1.6l7.5-3.7c0.6-0.2,1.4,0,1.6,0.5
			c0.2,0.6,0,1.4-0.5,1.6l-7.5,3.7C65.9,279.1,65.7,279.1,65.5,279.1z"/>
		<path fill="#DD2E44" d="M57.4,258.1c0,1-0.9,1.9-1.9,1.9h-8.7c-1,0-1.9-0.9-1.9-1.9l0,0c0-1,0.9-1.9,1.9-1.9h8.7
			C56.5,256.3,57.4,257.1,57.4,258.1L57.4,258.1z"/>
		<path fill="#55ACEE" d="M69.9,258.1c0,1-0.9,1.9-1.9,1.9h-8.8c-1,0-1.9-0.9-1.9-1.9l0,0c0-1,0.9-1.9,1.9-1.9h8.7
			C69,256.3,69.9,257.1,69.9,258.1L69.9,258.1z"/>
		<rect x="54.9" y="256.3" fill="#F5F8FA" width="5" height="3.7"/>
	</g>
</g>
<g id="tt1">
	<text transform="matrix(1 0 0 1 104.9592 394.5771)" fill="#FFFFFF" font-family="'FiraSans-Regular'" font-size="26">Codemoji shifts</text>
</g>
<g id="tt2">
	<text transform="matrix(1 0 0 1 132.1843 425.7773)" fill="#FFFFFF" font-family="'FiraSans-Regular'" font-size="26">letters too,</text>
</g>
<g id="tt3">
	<text transform="matrix(1 0 0 1 83.2439 456.9775)" fill="#FFFFFF" font-family="'FiraSans-Regular'" font-size="26">and replaces them </text>
</g>
<g id="tt4">
	<text transform="matrix(1 0 0 1 131.5117 488.1777)" fill="#FFFFFF" font-family="'FiraSans-Regular'" font-size="26">with emoji!</text>
</g>
<g id="tt5">
</g>
</svg>
