<?xml version="1.0" encoding="utf-8"?>
<!-- Generator: Adobe Illustrator 16.0.0, SVG Export Plug-In . SVG Version: 6.00 Build 0)  -->
<!DOCTYPE svg PUBLIC "-//W3C//DTD SVG 1.1//EN" "http://www.w3.org/Graphics/SVG/1.1/DTD/svg11.dtd">
<svg version="1.1" id="Layer_1" xmlns="http://www.w3.org/2000/svg" xmlns:xlink="http://www.w3.org/1999/xlink" x="0px" y="0px"
	 width="24.8px" height="24.8px" viewBox="0 0 24.8 24.8" enable-background="new 0 0 24.8 24.8" xml:space="preserve">
<path fill="#FFCC4D" d="M24.8,12.4c0,6.8-5.5,12.4-12.4,12.4C5.5,24.8,0,19.2,0,12.4C0,5.5,5.5,0,12.4,0C19.2,0,24.8,5.5,24.8,12.4"
	/>
<path fill="#664500" d="M12.4,14.6c-2.6,0-4.4-0.3-6.6-0.7c-0.5-0.1-1.5,0-1.5,1.5c0,2.9,3.3,6.6,8,6.6c4.7,0,8-3.6,8-6.6
	c0-1.5-1-1.6-1.5-1.5C16.8,14.3,15,14.6,12.4,14.6"/>
<path fill="#664500" d="M6.6,8.7c0,0,0-1.5,1.5-1.5c1.5,0,1.5,1.5,1.5,1.5v1.5c0,0,0,1.5-1.5,1.5c-1.5,0-1.5-1.5-1.5-1.5V8.7z"/>
<path fill="#664500" d="M15.3,8.7c0,0,0-1.5,1.5-1.5c1.5,0,1.5,1.5,1.5,1.5v1.5c0,0,0,1.5-1.5,1.5c-1.5,0-1.5-1.5-1.5-1.5V8.7z"/>
<path fill="#FFFFFF" d="M5.8,15.3c0,0,2.2,0.7,6.6,0.7s6.6-0.7,6.6-0.7s-1.5,2.9-6.6,2.9C7.3,18.2,5.8,15.3,5.8,15.3"/>
</svg>
