<?xml version="1.0" encoding="utf-8"?>
<!-- Generator: Adobe Illustrator 18.0.0, SVG Export Plug-In . SVG Version: 6.00 Build 0)  -->
<!DOCTYPE svg PUBLIC "-//W3C//DTD SVG 1.1//EN" "http://www.w3.org/Graphics/SVG/1.1/DTD/svg11.dtd">
<svg version="1.1" id="Layer_1" xmlns="http://www.w3.org/2000/svg" xmlns:xlink="http://www.w3.org/1999/xlink" x="0px" y="0px"
	 viewBox="0 0 560 560" enable-background="new 0 0 560 560" xml:space="preserve">
<g>
	<g>
		<path d="M361.6,232.9H188.3c-6,0-10.9-4.9-10.9-10.9c0-6,4.9-10.9,10.9-10.9h173.3c6,0,10.9,4.9,10.9,10.9
			C372.5,228,367.7,232.9,361.6,232.9z"/>
	</g>
	<g>
		<path d="M361.6,287.7H188.3c-6,0-10.9-4.9-10.9-10.9c0-6,4.9-10.9,10.9-10.9h173.3c6,0,10.9,4.9,10.9,10.9
			C372.5,282.8,367.7,287.7,361.6,287.7z"/>
	</g>
	<g>
		<path d="M299,448.7c-1.3,0-2.6-0.2-3.9-0.7c-4.2-1.6-7-5.7-7-10.2v-83H159.1c-17.6,0-32-14.3-32-32V169.3
			c0-17.6,14.3-32,32-32h241.9c17.6,0,32,14.3,32,32v153.5c0,17.6-14.3,32-32,32h-13.2l-80.6,90.3C305,447.5,302.1,448.7,299,448.7z
			 M159.1,159.1c-5.6,0-10.2,4.6-10.2,10.2v153.5c0,5.6,4.6,10.2,10.2,10.2h140c6,0,10.9,4.9,10.9,10.9v65.4l64.8-72.6
			c2.1-2.3,5-3.6,8.1-3.6h18.1c5.6,0,10.2-4.6,10.2-10.2V169.3c0-5.6-4.6-10.2-10.2-10.2H159.1z"/>
	</g>
</g>
</svg>
