<?xml version="1.0" encoding="utf-8"?>
<!-- Generator: Adobe Illustrator 18.0.0, SVG Export Plug-In . SVG Version: 6.00 Build 0)  -->
<!DOCTYPE svg PUBLIC "-//W3C//DTD SVG 1.1//EN" "http://www.w3.org/Graphics/SVG/1.1/DTD/svg11.dtd">
<svg version="1.1" id="social_go" xmlns="http://www.w3.org/2000/svg" xmlns:xlink="http://www.w3.org/1999/xlink" x="0px" y="0px"
	 viewBox="200 0 560 560" enable-background="new 200 0 560 560" xml:space="preserve">
<g>
	<path d="M411.2,253.5v46.9c0,0,45.5-0.1,64-0.1c-10,30.4-25.6,47-64,47c-38.9,0-69.2-31.5-69.2-70.4s30.3-70.4,69.2-70.4
		c20.5,0,33.8,7.2,46,17.3c9.7-9.8,8.9-11.1,33.7-34.5c-21-19.1-49-30.8-79.7-30.8c-65.4,0-118.4,53-118.4,118.4
		s53,118.4,118.4,118.4c97.8,0,121.7-85.1,113.7-141.9H411.2V253.5z M624.7,255.8v-41h-29.3v41h-42.2v29.3h42.2v42.2h29.3v-42.2h41
		v-29.3H624.7z"/>
</g>
</svg>
