<?xml version="1.0" encoding="utf-8"?>
<!-- Generator: Adobe Illustrator 18.0.0, SVG Export Plug-In . SVG Version: 6.00 Build 0)  -->
<!DOCTYPE svg PUBLIC "-//W3C//DTD SVG 1.1//EN" "http://www.w3.org/Graphics/SVG/1.1/DTD/svg11.dtd">
<svg version="1.1" id="social_wa" xmlns="http://www.w3.org/2000/svg" xmlns:xlink="http://www.w3.org/1999/xlink" x="0px" y="0px"
	 viewBox="200 0 560 560" enable-background="new 200 0 560 560" xml:space="preserve">
<g>
	<path d="M609.3,391.3H349.7c-14.1,0-25.6-11.5-25.6-25.6V191.5c0-14.1,11.5-25.6,25.6-25.6h259.6c14.1,0,25.6,11.5,25.6,25.6v174.1
		C634.9,379.8,623.4,391.3,609.3,391.3 M354.3,361.1h250.5v-165H354.3V361.1z"/>
	<path d="M479.3,339.2c-3.1,0-6.2-1-8.9-2.9L341,242.4l6-33.9l132.4,97L615,206l3.1,36.7l-129.9,93.6
		C485.5,338.2,482.4,339.2,479.3,339.2"/>
</g>
</svg>
