<?xml version="1.0" encoding="utf-8"?>
<!-- Generator: Adobe Illustrator 18.0.0, SVG Export Plug-In . SVG Version: 6.00 Build 0)  -->
<!DOCTYPE svg PUBLIC "-//W3C//DTD SVG 1.1//EN" "http://www.w3.org/Graphics/SVG/1.1/DTD/svg11.dtd">
<svg version="1.1" id="social_te" xmlns="http://www.w3.org/2000/svg" xmlns:xlink="http://www.w3.org/1999/xlink" x="0px" y="0px"
	 viewBox="200 0 560 560" enable-background="new 200 0 560 560" xml:space="preserve">
<path d="M617.2,158.8c-0.2-2.3-1.1-4.8-2.8-6.7c-0.2-0.3-0.4-0.5-0.5-0.7c-2.1-2.1-4.8-3.2-7.5-3.4H605c-1.4,0-2.7,0.4-3.9,0.9
	L331.5,256.1c-4.4,1.8-7.3,6-7.3,10.8s3,9,7.4,10.8l70.9,27.1l19.8,75c0.9,3.7,3.7,6.7,7.3,8c3.5,1.4,7.6,0.9,10.6-1.4l39.5-28.4
	l73.7,50c2,1.2,4.3,2,6.6,2c1.4,0,3-0.4,4.4-0.9c3.5-1.4,6.2-4.6,6.9-8.5L617,161.8c0-0.4,0.2-0.7,0.2-1.2
	C617.2,159.8,617.3,159.3,617.2,158.8z M423.5,293.1c-0.1-0.4-0.2-0.9-0.4-1.3c-1.1-2.9-3.6-5.3-6.7-6.5l-48.7-18.6L555,192.1
	L433.2,309.4c-1.9,1.8-3.2,4.4-3.5,7.1L423.5,293.1z M440.7,357.8v-0.1l-0.2,0.1l-8.9-33.3c0.1,0.1,0.2,0.3,0.3,0.4l-0.1-0.4
	c0.7,1.1,1.8,2.1,3,2.8l24.8,16.8L440.7,357.8z M552,378.9l-65.6-44.5c-0.2,0-0.2-0.2-0.3-0.2l-26.6-18.1l128-123L552,378.9z"/>
</svg>
