<?xml version="1.0" encoding="utf-8"?>
<!-- Generator: Adobe Illustrator 18.0.0, SVG Export Plug-In . SVG Version: 6.00 Build 0)  -->
<!DOCTYPE svg PUBLIC "-//W3C//DTD SVG 1.1//EN" "http://www.w3.org/Graphics/SVG/1.1/DTD/svg11.dtd">
<svg version="1.1" id="social_wa" xmlns="http://www.w3.org/2000/svg" xmlns:xlink="http://www.w3.org/1999/xlink" x="0px" y="0px"
	 viewBox="200 0 560 560" enable-background="new 200 0 560 560" xml:space="preserve">
<path d="M481.6,132.6c-79.6,0-143.9,64-143.9,142.8c0,26.9,7.4,52.3,20.5,73.7l-25.9,76.6l79.8-25.3c20.5,11.3,44.3,17.7,69.5,17.7
	c79.6,0,143.9-64,143.9-142.7C625.5,196.5,561,132.6,481.6,132.6z M481.4,395.2c-24.5,0-47.3-7.3-66.5-19.8l-46.4,14.9l15.1-44.7
	c-14.5-19.9-23-44.1-23-70.4c0-66.1,54.4-120,121-120s121,53.9,120.9,120C602.5,341.3,548,395.2,481.4,395.2z M547.7,304.5
	c-3.5-1.8-20.9-10.1-24.1-11.4c-3.4-1.2-5.7-1.8-8,1.8c-2.3,3.4-9,11.3-11.2,13.6c-2.1,2.3-4.1,2.7-7.6,0.9
	c-3.6-1.8-14.9-5.5-28.4-17.4c-10.4-9.2-17.5-20.7-19.7-24.3c-2-3.5-0.2-5.3,1.6-7.1c1.6-1.6,3.5-4.1,5.3-6.2
	c1.8-2.1,2.3-3.5,3.6-5.8c1.1-2.5,0.5-4.4-0.4-6.2s-7.8-19-10.8-26c-3-7.1-5.8-5.8-8-5.8c-2,0-4.4-0.4-6.7-0.4
	c-2.3,0-6.2,0.9-9.4,4.4c-3.4,3.5-12.4,12-12.4,29.2s12.6,33.9,14.4,36.2s24.5,38.8,60.2,52.8c36,14,36,9.2,42.4,8.7
	c6.4-0.7,20.7-8.5,23.7-16.6c2.8-8.3,2.8-15.2,2.1-16.3C553.5,307.1,551.2,306.2,547.7,304.5z"/>
</svg>
