<?xml version="1.0" encoding="utf-8"?>
<!-- Generator: Adobe Illustrator 18.0.0, SVG Export Plug-In . SVG Version: 6.00 Build 0)  -->
<!DOCTYPE svg PUBLIC "-//W3C//DTD SVG 1.1//EN" "http://www.w3.org/Graphics/SVG/1.1/DTD/svg11.dtd">
<svg version="1.1" id="social_tw" xmlns="http://www.w3.org/2000/svg" xmlns:xlink="http://www.w3.org/1999/xlink" x="0px" y="0px"
	 viewBox="200 0 560 560" enable-background="new 200 0 560 560" xml:space="preserve">
<path d="M591.5,222.9c0.2,2.5,0.2,5,0.2,7.4c0,75.8-57.8,163.4-163.4,163.4c-32.4,0-62.6-9.6-88.1-25.9c4.4,0.5,9,0.7,13.6,0.7
	c26.9,0,51.7-9.2,71.4-24.6c-25.2-0.5-46.4-17-53.7-39.9c3.5,0.7,7.1,1.1,10.8,1.1c5.3,0,10.3-0.7,15.1-1.9
	c-26.2-5.3-46.1-28.5-46.1-56.4c0-0.2,0-0.5,0-0.7c7.8,4.3,16.7,6.9,26.1,7.3c-15.4-10.3-25.5-27.8-25.5-47.8
	c0-10.5,2.8-20.4,7.8-28.9c28.4,34.7,70.7,57.6,118.4,60.1c-1.1-4.3-1.4-8.5-1.4-13.1c0-31.7,25.7-57.4,57.4-57.4
	c16.5,0,31.4,6.9,42,18.1c13.1-2.7,25.3-7.3,36.5-14c-4.3,13.5-13.5,24.6-25.3,31.7c11.7-1.4,22.7-4.4,33-9
	C612.4,204.7,602.6,214.8,591.5,222.9z"/>
</svg>
