<?xml version="1.0" encoding="utf-8"?>
<!-- Generator: Adobe Illustrator 18.0.0, SVG Export Plug-In . SVG Version: 6.00 Build 0)  -->
<!DOCTYPE svg PUBLIC "-//W3C//DTD SVG 1.1//EN" "http://www.w3.org/Graphics/SVG/1.1/DTD/svg11.dtd">
<svg version="1.1" id="social_wa" xmlns="http://www.w3.org/2000/svg" xmlns:xlink="http://www.w3.org/1999/xlink" x="0px" y="0px"
	 viewBox="0 0 560 560" enable-background="new 0 0 560 560" xml:space="preserve">
<g>
	<path d="M136.7,240.1c9.3,10.5,20.8,16.9,31.5,24.4c25.8,18.1,51.5,36.2,77.4,54.1c8.9,6.1,18.6,10.7,29.5,12.4
		c8.3,1.3,16.1-0.8,23.7-3.9c8.7-3.5,16.3-8.7,24-14.1c27.7-19.4,55.5-38.5,83.1-57.9c6.1-4.3,11.7-9.2,17.5-13.8
		c0,0.2,0.1,0.9,0.1,1.6c0,41.2,0,82.4,0,123.6c0,15.2-11.2,26.2-26.4,26.2c-78,0-156,0-233.9,0c-15.2,0-26.3-11.1-26.3-26.3
		c0-41,0-82.1,0-123.1C136.7,242.4,136.7,241.6,136.7,240.1z"/>
	<path d="M279.9,167.5c38.6,0,77.3,0.3,115.9-0.2c15.5-0.2,31.2,12.8,26.8,33.2c-2.4,11.2-8.5,20.4-16.7,27.8
		c-7,6.3-14.8,11.8-22.5,17.2c-25.9,18.2-51.8,36.3-77.8,54.3c-4.6,3.2-9.6,5.9-14.6,8.4c-8.3,4.1-16.7,3.4-24.5-1.2
		c-8.6-5.1-16.8-10.6-25-16.3c-25.5-17.6-50.8-35.3-76.2-53c-10.9-7.6-20-17.1-25.7-29.3c-4.8-10.3-3.7-20.5,2.1-30.1
		c4.8-7.9,12.3-10.8,21.3-10.8C201.9,167.5,240.9,167.5,279.9,167.5z"/>
</g>
</svg>
