<svg version="1.1" xmlns="http://www.w3.org/2000/svg" xmlns:xlink="http://www.w3.org/1999/xlink" x="0px" y="0px"
     id="watermelon" viewBox="0 0 800 800" enable-background="new 0 0 800 800" xml:space="preserve"> 
        <g id="g14_27_">
          <g id="g20_27_" transform="translate(3.4717,30.4277)">
            <g id="path22_27_">
              <path style="fill:#5C913B;" d="M55.57,203.301c-20.121,45.342-31.409,95.293-31.409,147.826
                c0,206.227,171.959,373.406,384.074,373.406c165.28,0,305.766-101.716,359.92-244.122L55.57,203.301z"/>
            </g>
          </g>
          <g id="g24_19_" transform="translate(5.3315,29.7046)">
            <g id="path26_19_">
              <path style="fill:#FFE8B6;" d="M93.394,219.453c-18.201,40.584-28.422,85.307-28.422,132.399
                c0,183.289,152.862,331.904,341.399,331.904c147.335,0,272.479-90.898,320.339-218.026L93.394,219.453z"/>
            </g>
          </g>
          <g id="g28_26_" transform="translate(7.1909,28.9814)">
            <g id="path30_17_">
              <path style="fill:#DD2E44;" d="M131.21,235.607c-16.238,35.804-25.413,75.321-25.413,116.951
                c0,160.415,133.743,290.446,298.724,290.446c129.369,0,239.193-80.079,280.716-191.93L131.21,235.607z"/>
            </g>
          </g>
          <g id="g32_8_" transform="translate(10.916,22.7227)">
            <g id="path34_7_">
              <path d="M206.969,375.411c-6.551,9.815-15.811,15.107-20.719,11.842c-4.908-3.286-3.585-13.869,2.966-23.685
                c6.551-9.815,15.811-15.107,20.719-11.821C214.842,355.012,213.519,365.596,206.969,375.411"/>
            </g>
          </g>
          <g id="g36_7_" transform="translate(16.916,21.7227)">
            <g id="path38_7_">
              <path d="M328.993,397.748c-6.551,9.815-15.811,15.107-20.719,11.842c-4.908-3.286-3.585-13.869,2.966-23.685
                c6.551-9.815,15.811-15.107,20.719-11.821C336.867,377.35,335.544,387.933,328.993,397.748"/>
            </g>
          </g>
          <g id="g40_8_" transform="translate(21.998,17.0449)">
            <g id="path42_8_">
              <path d="M432.348,502.238c1.067,11.757-2.817,21.679-8.663,22.212c-5.889,0.533-11.48-8.535-12.546-20.292
                c-1.088-11.757,2.817-21.679,8.663-22.191C425.691,481.392,431.281,490.46,432.348,502.238"/>
            </g>
          </g>
          <g id="g44_8_" transform="translate(12.998,19.0449)">
            <g id="path46_8_">
              <path d="M249.311,457.563c1.067,11.757-2.817,21.679-8.663,22.212c-5.889,0.533-11.48-8.535-12.546-20.292
                c-1.067-11.757,2.817-21.679,8.663-22.191C242.654,436.717,248.244,445.785,249.311,457.563"/>
            </g>
          </g>
          <g id="g48_8_" transform="translate(16.8994,13.6992)">
            <g id="path50_8_">
              <path d="M328.656,576.973c-7.105,9.41-16.643,14.147-21.337,10.605c-4.737-3.542-2.753-14.04,4.353-23.45
                c7.127-9.41,16.665-14.147,21.337-10.605C337.746,557.065,335.783,567.563,328.656,576.973"/>
            </g>
          </g>
          <g id="g52_7_" transform="translate(24.9355,13.2451)">
            <g id="path54_7_">
              <path d="M492.09,587.116c5.804,10.263,6.38,20.889,1.28,23.791c-5.164,2.923-14.019-3.03-19.823-13.315
                c-5.846-10.242-6.38-20.868-1.259-23.791C477.431,570.857,486.265,576.832,492.09,587.116"/>
            </g>
          </g>
          <g id="g56_7_" transform="translate(17.918,18.2734)">
            <g id="path58_7_">
              <path d="M349.372,474.797c6.465,9.879,7.724,20.441,2.795,23.663c-4.929,3.265-14.147-2.112-20.612-11.992
                c-6.465-9.858-7.703-20.441-2.795-23.663C333.688,459.541,342.906,464.896,349.372,474.797"/>
            </g>
          </g>
          <g id="g60_14_" transform="translate(26.8994,16.6992)">
            <g id="path62_6_">
              <path d="M532.03,509.96c-7.105,9.41-16.643,14.147-21.359,10.605c-4.716-3.542-2.753-14.04,4.374-23.45
                c7.105-9.431,16.643-14.147,21.337-10.605C541.12,490.053,539.178,500.551,532.03,509.96"/>
            </g>
          </g>
        </g>
</svg>
