<?xml version="1.0" encoding="UTF-8" standalone="no"?>
<svg width="57px" height="47px" viewBox="0 0 57 47" version="1.1" xmlns="http://www.w3.org/2000/svg" xmlns:xlink="http://www.w3.org/1999/xlink">
    <!-- Generator: Sketch 3.7.1 (28215) - http://www.bohemiancoding.com/sketch -->
    <title>icon-home-twitter</title>
    <desc>Created with Sketch.</desc>
    <defs>
        <polyline id="path-1" points="0 0.601 57 0.601 57 47 0 47"></polyline>
    </defs>
    <g id="Page-1" stroke="none" stroke-width="1" fill="none" fill-rule="evenodd">
        <g id="icon-home-twitter">
            <polyline id="path-1" fill="#FFFFFF" points="0 0.601 57 0.601 57 47 0 47"></polyline>
            <mask id="mask-2" fill="white">
                <use xlink:href="#path-1"></use>
            </mask>
            <g id="path-1"></g>
            <path d="M2.5205,42.0164 C7.2905,44.6944 12.4135,46.0004 18.1185,46.0004 C22.2995,46.0004 25.9985,45.3884 29.4225,44.1304 C32.9965,42.8174 35.9355,41.1494 38.4095,39.0294 C40.9215,36.9464 43.1015,34.4764 44.8935,31.6824 C46.7695,28.7554 48.0885,25.9044 48.9275,22.9684 C49.7875,19.9564 50.2235,16.9034 50.2235,13.8944 L50.2235,12.4324 C50.2235,12.2704 50.3015,12.1184 50.4345,12.0244 C52.2285,10.7514 53.7925,9.2494 55.1865,7.4594 C53.4795,7.8484 52.0525,7.6744 51.9755,7.6644 C51.7955,7.6414 51.6425,7.5214 51.5755,7.3524 C51.5075,7.1834 51.5385,6.9914 51.6545,6.8504 C51.6705,6.8304 53.0475,5.1434 53.9895,3.0894 C52.0515,4.0874 49.9985,4.7974 47.7505,5.2464 C47.5825,5.2804 47.4075,5.2234 47.2895,5.0984 C45.1095,2.7774 42.4035,1.6004 39.2465,1.6004 C36.1875,1.6004 33.6495,2.6524 31.4855,4.8174 C29.3205,6.9814 28.2685,9.5204 28.2685,12.5784 C28.2685,13.5204 28.3595,14.3414 28.5455,15.0894 C28.5825,15.2384 28.5495,15.3964 28.4545,15.5184 C28.3595,15.6394 28.2145,15.7104 28.0605,15.7104 C27.4575,15.7104 26.8875,15.6444 26.3345,15.5804 C26.0475,15.5474 25.7585,15.5144 25.4605,15.4894 C21.6515,15.0414 18.1265,13.9474 14.6695,12.1444 C10.7525,10.1154 7.3455,7.4144 4.5365,4.1094 C3.7905,5.6104 3.4125,7.2504 3.4125,8.9964 C3.4125,10.9434 3.8445,12.6564 4.7365,14.2334 C5.6665,15.8774 6.8675,17.1974 8.3065,18.1574 C8.4935,18.2814 8.5745,18.5144 8.5045,18.7274 C8.4355,18.9414 8.2395,19.0784 8.0085,19.0724 C6.4085,19.0084 4.8465,18.6254 3.3575,17.9324 C3.4865,20.3064 4.3075,22.3784 5.8555,24.2494 C7.5265,26.2674 9.6435,27.5384 12.1465,28.0254 C12.3775,28.0694 12.5465,28.2714 12.5505,28.5064 C12.5545,28.7434 12.3935,28.9494 12.1635,29.0034 C11.0745,29.2544 10.0285,29.3814 9.0525,29.3814 C8.6105,29.3814 8.1275,29.3814 7.6085,29.3374 C8.3575,31.2064 9.5555,32.7604 11.1785,33.9624 C13.0515,35.3504 15.1355,36.0594 17.5475,36.1314 C17.7575,36.1374 17.9425,36.2744 18.0075,36.4734 C18.0745,36.6734 18.0075,36.8924 17.8425,37.0234 C13.6355,40.3444 8.7355,42.0284 3.2775,42.0284 C3.0195,42.0284 2.7675,42.0244 2.5205,42.0164 M18.1185,47.0004 C11.6035,47.0004 5.5845,45.2514 0.2295,41.8034 C0.0365,41.6784 -0.0475,41.4374 0.0275,41.2204 C0.1005,41.0024 0.3225,40.8674 0.5445,40.8844 C1.3305,40.9554 2.2685,41.0284 3.2775,41.0284 C8.0545,41.0284 12.3845,39.6824 16.1675,37.0254 C14.1045,36.7584 12.2675,36.0134 10.5835,34.7664 C8.5755,33.2784 7.1625,31.3014 6.3835,28.8884 C6.3295,28.7214 6.3675,28.5384 6.4835,28.4054 C6.5985,28.2734 6.7715,28.2114 6.9495,28.2434 C7.9865,28.4314 8.8625,28.4154 9.7545,28.3584 C7.9605,27.6324 6.3965,26.4714 5.0855,24.8864 C3.2375,22.6534 2.3385,20.1584 2.3385,17.2574 L2.3385,17.1114 C2.3385,16.9344 2.4315,16.7714 2.5835,16.6814 C2.7355,16.5914 2.9245,16.5874 3.0785,16.6724 C4.1245,17.2424 5.2115,17.6424 6.3275,17.8674 C5.3755,16.9884 4.5505,15.9374 3.8655,14.7254 C2.9015,13.0184 2.4125,11.0904 2.4125,8.9964 C2.4125,6.8514 2.9665,4.7674 4.0155,2.9684 C4.0975,2.8274 4.2455,2.7354 4.4095,2.7224 C4.5645,2.7094 4.7315,2.7784 4.8345,2.9054 C7.6465,6.3654 11.1115,9.1754 15.1305,11.2574 C18.4795,13.0044 21.8905,14.0624 25.5605,14.4944 C25.8525,14.5184 26.1525,14.5534 26.4505,14.5874 C26.7865,14.6264 27.1115,14.6634 27.4385,14.6864 C27.3245,14.0384 27.2685,13.3434 27.2685,12.5784 C27.2685,9.2874 28.4495,6.4384 30.7785,4.1104 C33.1065,1.7814 35.9555,0.6004 39.2465,0.6004 C42.5975,0.6004 45.4815,1.8144 47.8235,4.2104 C50.3305,3.6814 52.5855,2.8084 54.7085,1.5474 C54.8885,1.4424 55.1145,1.4574 55.2765,1.5874 C55.4385,1.7174 55.5035,1.9344 55.4395,2.1324 C54.8335,4.0014 53.7075,5.7444 53.0155,6.7084 C53.8335,6.6984 55.0865,6.5784 56.3005,6.0514 C56.5055,5.9634 56.7445,6.0204 56.8855,6.1924 C57.0275,6.3654 57.0385,6.6104 56.9125,6.7934 C55.2835,9.1624 53.4205,11.0934 51.2235,12.6884 L51.2235,13.8944 C51.2235,16.9964 50.7745,20.1424 49.8885,23.2434 C49.0235,26.2744 47.6655,29.2114 45.7355,32.2214 C43.8875,35.1024 41.6395,37.6504 39.0535,39.7934 C36.4945,41.9874 33.4555,43.7144 29.7685,45.0684 C26.2305,46.3684 22.4185,47.0004 18.1185,47.0004" id="Fill-1" fill="#335B98" mask="url(#mask-2)"></path>
        </g>
    </g>
</svg>