<?xml version="1.0" encoding="UTF-8" standalone="no"?>
<svg width="111px" height="63px" viewBox="0 0 111 63" version="1.1" xmlns="http://www.w3.org/2000/svg" xmlns:xlink="http://www.w3.org/1999/xlink">
    <!-- Generator: Sketch 3.7.1 (28215) - http://www.bohemiancoding.com/sketch -->
    <title>icon-clubs-connect</title>
    <desc>Created with Sketch.</desc>
    <defs></defs>
    <g id="Page-1" stroke="none" stroke-width="1" fill="none" fill-rule="evenodd">
        <g id="icon-clubs-connect" fill="#335B98">
            <path d="M75.2784,23.6643 C76.3834,23.6643 77.2784,24.5593 77.2784,25.6643 C77.2784,26.7693 76.3834,27.6643 75.2784,27.6643 C74.1734,27.6643 73.2784,26.7693 73.2784,25.6643 C73.2784,24.5593 74.1734,23.6643 75.2784,23.6643" id="Fill-1"></path>
            <path d="M37.575,33.151 C38.68,33.151 39.575,34.046 39.575,35.151 C39.575,36.256 38.68,37.151 37.575,37.151 C36.47,37.151 35.575,36.256 35.575,35.151 C35.575,34.046 36.47,33.151 37.575,33.151" id="Fill-3"></path>
            <path d="M12.9238,1.0435 C16.2098,1.0435 18.8838,3.6435 18.8838,6.8385 C18.8838,10.0345 16.2098,12.6335 12.9238,12.6335 C9.6358,12.6335 6.9608,10.0345 6.9608,6.8385 C6.9608,3.6435 9.6358,1.0435 12.9238,1.0435 M12.9238,13.6335 C16.7618,13.6335 19.8838,10.5855 19.8838,6.8385 C19.8838,3.0915 16.7618,0.0435 12.9238,0.0435 C9.0848,0.0435 5.9608,3.0915 5.9608,6.8385 C5.9608,10.5855 9.0848,13.6335 12.9238,13.6335" id="Fill-5"></path>
            <path d="M24.8467,36.0444 C24.8467,37.4884 24.0837,38.5124 23.3277,38.8864 C22.9557,39.0714 22.3997,39.1984 21.7947,38.8384 L21.7947,24.8314 C21.7947,24.5544 21.5717,24.3314 21.2947,24.3314 C21.0187,24.3314 20.7947,24.5544 20.7947,24.8314 L20.7947,58.9324 C20.7947,60.6234 19.3757,62.0004 17.6327,62.0004 C15.8897,62.0004 14.4707,60.6234 14.4707,58.9324 L14.4707,39.1034 C14.4707,38.8264 14.2467,38.6034 13.9707,38.6034 L11.8767,38.6034 C11.6007,38.6034 11.3767,38.8264 11.3767,39.1034 L11.3767,58.9324 C11.3767,60.6234 9.9577,62.0004 8.2127,62.0004 C6.4707,62.0004 5.0527,60.6234 5.0527,58.9324 L5.0527,24.8314 C5.0527,24.5544 4.8287,24.3314 4.5527,24.3314 C4.2767,24.3314 4.0527,24.5544 4.0527,24.8314 L4.0527,38.8064 C3.5127,39.0464 2.8447,39.0164 2.2867,38.7114 C1.4567,38.2584 0.9997,37.3114 0.9997,36.0444 L0.9997,18.5864 C0.9997,16.9454 1.6067,16.3354 3.2377,16.3354 L21.6417,16.3354 C24.1887,16.3354 24.8477,16.7984 24.8477,18.5864 L24.8467,36.0444 L24.8467,36.0444 Z M21.6417,15.3354 L3.2377,15.3354 C1.0587,15.3354 -0.0003,16.3984 -0.0003,18.5864 L-0.0003,36.0444 C-0.0003,37.6694 0.6597,38.9614 1.8077,39.5884 C2.5047,39.9694 3.3237,40.0594 4.0527,39.8624 L4.0527,58.9324 C4.0527,61.1754 5.9187,63.0004 8.2127,63.0004 C10.5087,63.0004 12.3767,61.1754 12.3767,58.9324 L12.3767,39.6034 L13.4707,39.6034 L13.4707,58.9324 C13.4707,61.1754 15.3377,63.0004 17.6327,63.0004 C19.9277,63.0004 21.7947,61.1754 21.7947,58.9324 L21.7947,39.9334 C22.4377,40.1494 23.1247,40.1034 23.7727,39.7824 C25.0127,39.1684 25.8467,37.6664 25.8467,36.0444 L25.8477,18.5864 C25.8477,15.5844 23.8587,15.3354 21.6417,15.3354 L21.6417,15.3354 L21.6417,15.3354 Z" id="Fill-7"></path>
            <path d="M98.0762,1.0435 C101.3622,1.0435 104.0362,3.6435 104.0362,6.8385 C104.0352,10.0345 101.3612,12.6335 98.0762,12.6335 C94.7882,12.6335 92.1132,10.0345 92.1132,6.8385 C92.1132,3.6435 94.7882,1.0435 98.0762,1.0435 M98.0762,13.6335 C101.9132,13.6335 105.0352,10.5855 105.0362,6.8385 C105.0362,3.0915 101.9142,0.0435 98.0762,0.0435 C94.2372,0.0435 91.1132,3.0915 91.1132,6.8385 C91.1132,10.5855 94.2372,13.6335 98.0762,13.6335" id="Fill-10"></path>
            <path d="M109.999,36.0444 C109.999,37.4884 109.236,38.5124 108.479,38.8864 C108.106,39.0714 107.552,39.1984 106.946,38.8384 L106.946,24.8314 C106.946,24.5544 106.723,24.3314 106.446,24.3314 C106.17,24.3314 105.946,24.5544 105.946,24.8314 L105.946,58.9324 C105.946,60.6234 104.528,62.0004 102.785,62.0004 C101.041,62.0004 99.622,60.6234 99.622,58.9324 L99.622,39.1034 C99.622,38.8264 99.398,38.6034 99.122,38.6034 L97.028,38.6034 C96.752,38.6034 96.528,38.8264 96.528,39.1034 L96.528,58.9324 C96.528,60.6234 95.109,62.0004 93.365,62.0004 C91.622,62.0004 90.204,60.6234 90.204,58.9324 L90.204,24.8314 C90.204,24.5544 89.98,24.3314 89.704,24.3314 C89.428,24.3314 89.204,24.5544 89.204,24.8314 L89.204,38.8064 C88.663,39.0464 87.997,39.0164 87.439,38.7114 C86.609,38.2584 86.152,37.3114 86.152,36.0444 L86.152,18.5864 C86.152,16.9454 86.758,16.3354 88.388,16.3354 L106.794,16.3354 C109.341,16.3354 110,16.7984 110,18.5864 L109.999,36.0444 L109.999,36.0444 Z M106.794,15.3354 L88.388,15.3354 C86.211,15.3354 85.152,16.3984 85.152,18.5864 L85.152,36.0444 C85.152,37.6694 85.812,38.9614 86.96,39.5894 C87.656,39.9694 88.474,40.0604 89.204,39.8624 L89.204,58.9324 C89.204,61.1754 91.07,63.0004 93.365,63.0004 C95.661,63.0004 97.528,61.1754 97.528,58.9324 L97.528,39.6034 L98.622,39.6034 L98.622,58.9324 C98.622,61.1754 100.489,63.0004 102.785,63.0004 C105.08,63.0004 106.946,61.1754 106.946,58.9324 L106.946,39.9334 C107.588,40.1494 108.275,40.1024 108.924,39.7824 C110.165,39.1684 110.999,37.6664 110.999,36.0444 L111,18.5864 C111,15.5844 109.011,15.3354 106.794,15.3354 L106.794,15.3354 L106.794,15.3354 Z" id="Fill-12"></path>
            <path d="M74.1621,25.6641 C74.1621,25.3881 73.9381,25.1641 73.6621,25.1641 L35.5751,25.1641 C35.2991,25.1641 35.0751,25.3881 35.0751,25.6641 C35.0751,25.9401 35.2991,26.1641 35.5751,26.1641 L73.6621,26.1641 C73.9381,26.1641 74.1621,25.9401 74.1621,25.6641" id="Fill-15"></path>
            <path d="M77.2783,34.6509 L38.6143,34.6509 C38.3383,34.6509 38.1143,34.8749 38.1143,35.1509 C38.1143,35.4269 38.3383,35.6509 38.6143,35.6509 L77.2783,35.6509 C77.5543,35.6509 77.7783,35.4269 77.7783,35.1509 C77.7783,34.8749 77.5543,34.6509 77.2783,34.6509" id="Fill-17"></path>
        </g>
    </g>
</svg>