<?xml version="1.0" encoding="UTF-8" standalone="no"?>
<svg width="77px" height="61px" viewBox="0 0 77 61" version="1.1" xmlns="http://www.w3.org/2000/svg" xmlns:xlink="http://www.w3.org/1999/xlink">
    <!-- Generator: Sketch 3.7.1 (28215) - http://www.bohemiancoding.com/sketch -->
    <title>icon-makerparty-join</title>
    <desc>Created with Sketch.</desc>
    <defs>
        <polygon id="path-1" points="0 0 76.596 0 76.596 61 0 61"></polygon>
    </defs>
    <g id="Page-1" stroke="none" stroke-width="1" fill="none" fill-rule="evenodd">
        <g id="icon-makerparty-join">
            <path d="M75.5957,31.4897 C75.5957,33.3957 74.0447,34.9457 72.1387,34.9457 L69.5017,34.9457 C69.2257,34.9457 69.0017,35.1697 69.0017,35.4457 L69.0017,45.4477 L58.6467,35.0927 C58.5527,34.9987 58.4257,34.9457 58.2927,34.9457 L51.5397,34.9457 L51.5397,23.9057 C51.5397,21.4477 49.5407,19.4487 47.0827,19.4487 L26.4847,19.4487 L26.4847,4.4557 C26.4847,2.5507 28.0347,0.9997 29.9407,0.9997 L72.1387,0.9997 C74.0447,0.9997 75.5957,2.5507 75.5957,4.4557 L75.5957,31.4897 L75.5957,31.4897 Z M50.5397,34.9457 L29.9407,34.9457 C28.0347,34.9457 26.4847,33.3957 26.4847,31.4897 L26.4847,20.4487 L47.0827,20.4487 C48.9897,20.4487 50.5397,21.9997 50.5397,23.9057 L50.5397,34.9457 L50.5397,34.9457 Z M50.5397,45.3347 C50.5397,47.2397 48.9897,48.7907 47.0827,48.7907 L18.3027,48.7907 C18.1697,48.7907 18.0427,48.8437 17.9497,48.9377 L7.5927,59.2927 L7.5927,49.2907 C7.5927,49.0147 7.3687,48.7907 7.0927,48.7907 L4.4557,48.7907 C2.5507,48.7907 0.9997,47.2397 0.9997,45.3347 L0.9997,23.9057 C0.9997,21.9997 2.5507,20.4487 4.4557,20.4487 L25.4847,20.4487 L25.4847,31.4897 C25.4847,33.9467 27.4837,35.9457 29.9407,35.9457 L50.5397,35.9457 L50.5397,45.3347 L50.5397,45.3347 Z M72.1387,-0.0003 L29.9407,-0.0003 C27.4837,-0.0003 25.4847,1.9987 25.4847,4.4557 L25.4847,19.4487 L4.4557,19.4487 C1.9987,19.4487 -0.0003,21.4477 -0.0003,23.9057 L-0.0003,45.3347 C-0.0003,47.7917 1.9987,49.7907 4.4557,49.7907 L6.5927,49.7907 L6.5927,60.4997 C6.5927,60.7017 6.7147,60.8847 6.9017,60.9617 C6.9627,60.9877 7.0287,60.9997 7.0927,60.9997 C7.2227,60.9997 7.3507,60.9487 7.4467,60.8537 L18.5097,49.7907 L47.0827,49.7907 C49.5407,49.7907 51.5397,47.7917 51.5397,45.3347 L51.5397,35.9457 L58.0857,35.9457 L69.1487,47.0087 C69.2437,47.1037 69.3717,47.1547 69.5017,47.1547 C69.5667,47.1547 69.6317,47.1427 69.6937,47.1167 C69.8797,47.0397 70.0017,46.8567 70.0017,46.6547 L70.0017,35.9457 L72.1387,35.9457 C74.5967,35.9457 76.5957,33.9467 76.5957,31.4897 L76.5957,4.4557 C76.5957,1.9987 74.5967,-0.0003 72.1387,-0.0003 L72.1387,-0.0003 L72.1387,-0.0003 Z" id="Fill-1" fill="#335B98"></path>
            <path d="M19.9795,25.9243 L6.4165,25.9243 C6.1395,25.9243 5.9165,26.1483 5.9165,26.4243 C5.9165,26.7003 6.1395,26.9243 6.4165,26.9243 L19.9795,26.9243 C20.2555,26.9243 20.4795,26.7003 20.4795,26.4243 C20.4795,26.1483 20.2555,25.9243 19.9795,25.9243" id="Fill-4" fill="#335B98"></path>
            <path d="M19.9795,30.8564 L6.4165,30.8564 C6.1395,30.8564 5.9165,31.0804 5.9165,31.3564 C5.9165,31.6324 6.1395,31.8564 6.4165,31.8564 L19.9795,31.8564 C20.2555,31.8564 20.4795,31.6324 20.4795,31.3564 C20.4795,31.0804 20.2555,30.8564 19.9795,30.8564" id="Fill-6" fill="#335B98"></path>
            <path d="M68.6709,17.3164 L55.1079,17.3164 C54.8319,17.3164 54.6079,17.5404 54.6079,17.8164 C54.6079,18.0924 54.8319,18.3164 55.1079,18.3164 L68.6709,18.3164 C68.9469,18.3164 69.1709,18.0924 69.1709,17.8164 C69.1709,17.5404 68.9469,17.3164 68.6709,17.3164" id="Fill-8" fill="#335B98"></path>
            <path d="M68.6709,22.2485 L55.1079,22.2485 C54.8319,22.2485 54.6079,22.4725 54.6079,22.7485 C54.6079,23.0245 54.8319,23.2485 55.1079,23.2485 L68.6709,23.2485 C68.9469,23.2485 69.1709,23.0245 69.1709,22.7485 C69.1709,22.4725 68.9469,22.2485 68.6709,22.2485" id="Fill-10" fill="#335B98"></path>
            <path d="M67.671,11.884 L33.914,11.884 L33.914,8.952 L67.671,8.952 L67.671,11.884 L67.671,11.884 Z M68.671,7.953 L32.914,7.953 L32.914,12.885 L68.671,12.885 L68.671,7.953 L68.671,7.953 Z" id="Fill-12" fill="#335B98"></path>
            <mask id="mask-2" fill="white">
                <use xlink:href="#path-1"></use>
            </mask>
            <g id="path-3"></g>
            <path d="M43.6797,26.4702 C43.1157,26.4702 42.6597,26.9272 42.6597,27.4912 C42.6597,28.0542 43.1157,28.5112 43.6797,28.5112 C44.2437,28.5112 44.7007,28.0542 44.7007,27.4912 C44.7007,26.9272 44.2437,26.4702 43.6797,26.4702" id="Fill-14" fill="#335B98" mask="url(#mask-2)"></path>
            <path d="M38.5486,26.4702 C37.9846,26.4702 37.5276,26.9272 37.5276,27.4912 C37.5276,28.0542 37.9846,28.5112 38.5486,28.5112 C39.1126,28.5112 39.5686,28.0542 39.5686,27.4912 C39.5686,26.9272 39.1126,26.4702 38.5486,26.4702" id="Fill-15" fill="#335B98" mask="url(#mask-2)"></path>
            <path d="M33.4175,26.4702 C32.8535,26.4702 32.3965,26.9272 32.3965,27.4912 C32.3965,28.0542 32.8535,28.5112 33.4175,28.5112 C33.9815,28.5112 34.4375,28.0542 34.4375,27.4912 C34.4375,26.9272 33.9815,26.4702 33.4175,26.4702" id="Fill-16" fill="#335B98" mask="url(#mask-2)"></path>
        </g>
    </g>
</svg>