<svg id="Layer_1" data-name="Layer 1" xmlns="http://www.w3.org/2000/svg" viewBox="0 0 70 50"><defs><style>.cls-1{fill:#f89c24}</style></defs><title>MLN_Web-Literacy_Icons</title><path class="cls-1" d="M67.26 18.92A2.72 2.72 0 0 0 64.62 21L28.47 9.87 7.64 3.46A3.83 3.83 0 0 0 0 3.84v42.28a3.83 3.83 0 0 0 7.64.38l20.83-6.41 5.73-1.76a12.73 12.73 0 0 0 24.3-7.48L64.62 29a2.72 2.72 0 0 0 5.38-.68v-6.68a2.73 2.73 0 0 0-2.74-2.72zM6.68 46.12a2.84 2.84 0 1 1-5.68 0V3.84a2.84 2.84 0 0 1 5.68 0v42.28zm21.14-6.87L7.68 45.44V4.52l20.14 6.2v28.53zm18.3 6.37a11.71 11.71 0 0 1-11-7.58l3.32-1a8.26 8.26 0 0 0 15.74-4.84l3.3-1a11.66 11.66 0 0 1-11.36 14.42zm-6.69-8.9l13.83-4.25a7.27 7.27 0 0 1-13.83 4.25zm25.11-8.77l-35.72 11V11l35.71 11v5.94zm4.46.37a1.73 1.73 0 0 1-3.45 0v-6.68a1.73 1.73 0 0 1 3.45 0v6.68z"/><path class="cls-1" d="M21.76 25.48h2a.5.5 0 0 0 0-1h-2a.5.5 0 0 0 0 1zM17.31 25.48h2a.5.5 0 0 0 0-1h-2a.5.5 0 0 0 0 1zM12.86 25.48h2a.5.5 0 0 0 0-1h-2a.5.5 0 0 0 0 1z"/></svg>