<svg id="Layer_1" data-name="Layer 1" xmlns="http://www.w3.org/2000/svg" viewBox="0 0 70 66"><defs><style>.cls-1{fill:#f89c24}</style></defs><title>MLN_Web-Literacy_Icons</title><path class="cls-1" d="M69.51 57.88h-4v-34A3.84 3.84 0 0 0 61.72 20H48.86V.51a.5.5 0 0 0-.5-.5H37.23a.5.5 0 0 0-.5.5V20h-5.68V9.41a.49.49 0 0 0 0-.21L26.6.3a.52.52 0 0 0-.89 0L21.2 9.19a.49.49 0 0 0 0 .21V20H8.29a3.84 3.84 0 0 0-3.84 3.84v34h-4a.5.5 0 0 0-.5.5v2.23a.5.5 0 0 0 .2.43l4.45 4.42a.5.5 0 0 0 .35.15h60.1a.5.5 0 0 0 .35-.15L69.86 61a.5.5 0 0 0 .14-.39v-2.23a.5.5 0 0 0-.49-.5zm-20.65-33.5h12.36v30.17H48.86V24.38zM31.05 21h5.68v2.34h-5.68V21zm0 3.34h5.68v30.21h-5.68V24.38zm-5-22.75L27 3.35h-1.76zm-1.31 2.76h2.72l2.28 4.56h-7.28zM5.46 23.88A2.84 2.84 0 0 1 8.29 21h12.86v2.34H8.29a.5.5 0 0 0-.5.5V55a.5.5 0 0 0 .5.5h13.36a.5.5 0 0 0 .5-.5V9.91h3.45V55a.5.5 0 1 0 1 0V9.91h3.45V55a.5.5 0 0 0 .5.5h6.68a.5.5 0 0 0 .5-.5v-6.62h2.84a.5.5 0 0 0 0-1h-2.84V42h2.84a.5.5 0 0 0 0-1h-2.84v-5.34h2.84a.5.5 0 0 0 0-1h-2.84V29.3h2.84a.5.5 0 0 0 0-1h-2.84v-5.36h2.84a.5.5 0 0 0 0-1h-2.84v-5.36h2.84a.5.5 0 0 0 0-1h-2.84v-5.36h2.84a.5.5 0 0 0 0-1h-2.84V1h10.13v54a.5.5 0 0 0 .5.5h13.36a.5.5 0 0 0 .5-.5V23.88a.5.5 0 0 0-.5-.5H48.86V21h12.86a2.84 2.84 0 0 1 2.84 2.84v34H42.8a.5.5 0 0 0-.35.15l-2.08 2.08H29.65L27.57 58a.5.5 0 0 0-.35-.15H5.46v-34zm15.69.5v30.17H8.79V24.38h12.36zM69 60.4l-4.16 4.16H5.16L1 60.4v-1.52h26L29.09 61a.5.5 0 0 0 .35.15h11.13a.5.5 0 0 0 .35-.15L43 58.88h26v1.52z"/><path class="cls-1" d="M43.91 6.51a.5.5 0 0 0 .5-.5v-2.1a.5.5 0 1 0-1 0V6a.5.5 0 0 0 .5.51z"/></svg>