<svg id="Layer_1" data-name="Layer 1" xmlns="http://www.w3.org/2000/svg" viewBox="0 0 70 56"><defs><style>.cls-1{fill:#f89c24}</style></defs><title>MLN_Web-Literacy_Icons</title><path class="cls-1" d="M69.84 20.42a.5.5 0 0 0-.71 0l-6.32 6.32-16.34-16.33-3-3 6.34-6.31a.5.5 0 1 0-.7-.71l-6.68 6.68a.5.5 0 0 0 0 .71l2.48 2.48H25.08l2.48-2.48a.5.5 0 0 0 0-.71L20.88.39a.5.5 0 0 0-.71.71l6.33 6.32-3 3L7.18 26.74.86 20.42a.5.5 0 0 0-.71.71l6.68 6.67a.5.5 0 0 0 .71 0l1.39-1.39a.49.49 0 0 0 .13.27l4.3 4.3v3.13a.5.5 0 0 0 .15.35l1.39 1.39a.49.49 0 0 0-.27.13 4.35 4.35 0 0 0-1.26 2.58 3.84 3.84 0 0 0 3.84 3.84 2.51 2.51 0 0 0 .74-.13 2.52 2.52 0 0 0-.13.74 3.84 3.84 0 0 0 3.84 3.84 2.52 2.52 0 0 0 .74-.13 2.51 2.51 0 0 0-.13.74 3.84 3.84 0 0 0 3.84 3.84 2.52 2.52 0 0 0 .74-.13 2.52 2.52 0 0 0-.13.74 3.84 3.84 0 0 0 3.84 3.84 4.35 4.35 0 0 0 2.58-1.26.49.49 0 0 0 .13-.27l.27.27a4.35 4.35 0 0 0 2.58 1.26A3.84 3.84 0 0 0 39.94 52l.27.27a4.35 4.35 0 0 0 2.58 1.26 3.84 3.84 0 0 0 3.84-3.84v-.1a3.35 3.35 0 0 0 1.74.6 3.84 3.84 0 0 0 3.84-3.84 4.35 4.35 0 0 0-1.26-2.58l-.27-.27a3.84 3.84 0 0 0 3.75-3.83 4.35 4.35 0 0 0-1.26-2.58l-.27-.27a.49.49 0 0 0 .27-.13l4.45-4.45a.5.5 0 0 0 .15-.35v-2l3.19-3.19a.49.49 0 0 0 .13-.28l1.39 1.39a.5.5 0 0 0 .71 0l6.68-6.68a.5.5 0 0 0-.03-.71zm-52.65 21a2.84 2.84 0 0 1-2.84-2.84 3.31 3.31 0 0 1 1-1.87.49.49 0 0 0 .13-.28l3.89 3.89a.48.48 0 0 0-.27.13 3.31 3.31 0 0 1-1.91.96zm4.45 4.45A2.84 2.84 0 0 1 18.81 43a3.32 3.32 0 0 1 1-1.87v-.06a.48.48 0 0 0 .09-.22l3.89 3.89a.49.49 0 0 0-.27.13 3.29 3.29 0 0 1-1.88.99zm4.45 4.45a2.84 2.84 0 0 1-2.84-2.84 3.31 3.31 0 0 1 1-1.87.75.75 0 0 0 .13-.28l3.89 3.89a.48.48 0 0 0-.18.07l-.09.06a3.32 3.32 0 0 1-1.91.96zm6.32 3.48a3.32 3.32 0 0 1-1.87 1 2.84 2.84 0 0 1-2.84-2.84 3.31 3.31 0 0 1 1-1.87.67.67 0 0 0 .13-.27l3.89 3.89a.49.49 0 0 0-.3.09zm21-14.11a2.84 2.84 0 0 1-2.84 2.84 3.31 3.31 0 0 1-1.87-1l-10-10a.5.5 0 0 0-.71.71l10 10 2.22 2.22a3.32 3.32 0 0 1 1 1.87 2.84 2.84 0 0 1-2.84 2.84 3.32 3.32 0 0 1-1.87-1l-1.09-1.09L34.24 36a.5.5 0 0 0-.71.71l11.14 11.13a3.27 3.27 0 0 1 1 1.86 2.84 2.84 0 0 1-2.84 2.84 3.32 3.32 0 0 1-1.87-1l-2.22-2.22-8.9-8.9a.5.5 0 0 0-.71.71L38 50.07a3.3 3.3 0 0 1 1 1.86 2.84 2.84 0 0 1-2.84 2.84 3.32 3.32 0 0 1-1.87-1L14.35 33.92v-3.13a.5.5 0 0 0-.15-.35L9.76 26a.49.49 0 0 0-.27-.13l14.59-14.61h6.37l-5.82 5.82a4.35 4.35 0 0 0-1.26 2.58 3.84 3.84 0 0 0 3.84 3.84 4.35 4.35 0 0 0 2.58-1.26l5.42-5.42h2.63V23a.5.5 0 0 0 .15.35l2.22 2.22 12.23 12.25a3.32 3.32 0 0 1 .97 1.87zM60.23 26l-3.34 3.34a.5.5 0 0 0-.15.35v2L52.44 36a.49.49 0 0 0-.13.27L41.77 25.72h2.13a3.84 3.84 0 0 0 3.84-3.84.5.5 0 0 0-1 0 2.84 2.84 0 0 1-2.84 2.84h-3.13l-1.93-1.93v-6.47a.5.5 0 0 0-.5-.5H35a.5.5 0 0 0-.35.15l-5.56 5.56a3.29 3.29 0 0 1-1.87 1 2.84 2.84 0 0 1-2.84-2.84 3.32 3.32 0 0 1 1-1.87l6.53-6.53h14l14.6 14.56a.49.49 0 0 0-.28.15z"/><path class="cls-1" d="M62.46 21.13a.5.5 0 0 0 .71-.71l-2.23-2.22a.5.5 0 0 0-.71.71zM7.18 21.27a.5.5 0 0 0 .35-.15l2.23-2.22a.5.5 0 0 0-.71-.71l-2.22 2.23a.5.5 0 0 0 .35.85z"/></svg>