<?xml version="1.0" encoding="UTF-8" standalone="no"?>
<svg width="73px" height="53px" viewBox="0 0 73 53" version="1.1" xmlns="http://www.w3.org/2000/svg" xmlns:xlink="http://www.w3.org/1999/xlink" xmlns:sketch="http://www.bohemiancoding.com/sketch/ns">
    <!-- Generator: Sketch 3.4.4 (17249) - http://www.bohemiancoding.com/sketch -->
    <title>icon-makerparty-help</title>
    <desc>Created with Sketch.</desc>
    <defs>
        <path id="path-1" d="M0,0.732 L73,0.732 L73,53 L0,53 L0,0.732 Z"></path>
    </defs>
    <g id="Page-1" stroke="none" stroke-width="1" fill="none" fill-rule="evenodd" sketch:type="MSPage">
        <g id="icon-makerparty-help" sketch:type="MSLayerGroup">
            <path d="M72,52 L37.457,52 C37.926,51.185 39.131,49.567 40.665,49.225 L69.852,49.225 C70.128,49.225 70.352,49.001 70.352,48.725 L70.352,5.507 L72,5.507 L72,52 Z M1,5.507 L2.647,5.507 L2.647,48.782 C2.647,49.058 2.871,49.282 3.147,49.282 L32.881,49.277 C35.066,49.584 35.865,51.052 36.159,52 L1,52 L1,5.507 Z M3.647,1.789 L32.95,1.789 C34.787,1.789 36.281,3.283 36.281,5.12 L36.281,50.106 C35.643,49.285 34.611,48.513 32.95,48.282 L3.647,48.282 L3.647,1.789 Z M37.281,5.063 C37.281,3.227 38.775,1.732 40.612,1.732 L69.352,1.732 L69.352,4.788 C69.318,4.854 69.296,4.927 69.296,5.007 C69.296,5.086 69.318,5.159 69.352,5.226 L69.352,48.225 L40.612,48.225 C40.579,48.225 40.545,48.229 40.512,48.235 C39.121,48.52 38.016,49.536 37.281,50.477 L37.281,5.12 L37.281,5.063 Z M72.5,4.507 L70.352,4.507 L70.352,1.232 C70.352,0.956 70.128,0.732 69.852,0.732 L40.612,0.732 C38.929,0.732 37.482,1.708 36.766,3.115 C36.04,1.739 34.611,0.789 32.95,0.789 L3.147,0.789 C2.871,0.789 2.647,1.012 2.647,1.289 L2.647,4.507 L0.5,4.507 C0.224,4.507 0,4.73 0,5.007 L0,52.5 C0,52.776 0.224,53 0.5,53 L72.5,53 C72.776,53 73,52.776 73,52.5 L73,5.007 C73,4.73 72.776,4.507 72.5,4.507 L72.5,4.507 Z" id="Fill-1" fill="#7E93BB" sketch:type="MSShapeGroup"></path>
            <path d="M29.6826,16.8452 L9.2316,16.8452 C8.9546,16.8452 8.7316,17.0692 8.7316,17.3452 C8.7316,17.6212 8.9546,17.8452 9.2316,17.8452 L29.6826,17.8452 C29.9586,17.8452 30.1826,17.6212 30.1826,17.3452 C30.1826,17.0692 29.9586,16.8452 29.6826,16.8452" id="Fill-3" fill="#7E93BB" sketch:type="MSShapeGroup"></path>
            <path d="M29.6826,21.3521 L9.2316,21.3521 C8.9546,21.3521 8.7316,21.5761 8.7316,21.8521 C8.7316,22.1281 8.9546,22.3521 9.2316,22.3521 L29.6826,22.3521 C29.9586,22.3521 30.1826,22.1281 30.1826,21.8521 C30.1826,21.5761 29.9586,21.3521 29.6826,21.3521" id="Fill-5" fill="#7E93BB" sketch:type="MSShapeGroup"></path>
            <path d="M29.6826,25.9155 L9.2316,25.9155 C8.9546,25.9155 8.7316,26.1395 8.7316,26.4155 C8.7316,26.6915 8.9546,26.9155 9.2316,26.9155 L29.6826,26.9155 C29.9586,26.9155 30.1826,26.6915 30.1826,26.4155 C30.1826,26.1395 29.9586,25.9155 29.6826,25.9155" id="Fill-7" fill="#7E93BB" sketch:type="MSShapeGroup"></path>
            <path d="M29.6826,7.8311 L9.2316,7.8311 C8.9546,7.8311 8.7316,8.0551 8.7316,8.3311 C8.7316,8.6071 8.9546,8.8311 9.2316,8.8311 L29.6826,8.8311 C29.9586,8.8311 30.1826,8.6071 30.1826,8.3311 C30.1826,8.0551 29.9586,7.8311 29.6826,7.8311" id="Fill-9" fill="#7E93BB" sketch:type="MSShapeGroup"></path>
            <path d="M9.2314,13.3379 L29.5704,13.3379 C29.8464,13.3379 30.0704,13.1139 30.0704,12.8379 C30.0704,12.5619 29.8464,12.3379 29.5704,12.3379 L9.2314,12.3379 C8.9554,12.3379 8.7314,12.5619 8.7314,12.8379 C8.7314,13.1139 8.9554,13.3379 9.2314,13.3379" id="Fill-11" fill="#7E93BB" sketch:type="MSShapeGroup"></path>
            <path d="M44.1055,33.7324 L64.5005,33.7324 C64.7765,33.7324 65.0005,33.5084 65.0005,33.2324 C65.0005,32.9564 64.7765,32.7324 64.5005,32.7324 L44.1055,32.7324 C43.8295,32.7324 43.6055,32.9564 43.6055,33.2324 C43.6055,33.5084 43.8295,33.7324 44.1055,33.7324" id="Fill-13" fill="#7E93BB" sketch:type="MSShapeGroup"></path>
            <path d="M44.1055,38.2393 L64.5005,38.2393 C64.7765,38.2393 65.0005,38.0153 65.0005,37.7393 C65.0005,37.4633 64.7765,37.2393 64.5005,37.2393 L44.1055,37.2393 C43.8295,37.2393 43.6055,37.4633 43.6055,37.7393 C43.6055,38.0153 43.8295,38.2393 44.1055,38.2393" id="Fill-15" fill="#7E93BB" sketch:type="MSShapeGroup"></path>
            <path d="M44.1055,24.7744 L64.5005,24.7744 C64.7765,24.7744 65.0005,24.5504 65.0005,24.2744 C65.0005,23.9984 64.7765,23.7744 64.5005,23.7744 L44.1055,23.7744 C43.8295,23.7744 43.6055,23.9984 43.6055,24.2744 C43.6055,24.5504 43.8295,24.7744 44.1055,24.7744" id="Fill-17" fill="#7E93BB" sketch:type="MSShapeGroup"></path>
            <path d="M44.1055,29.3379 L64.5005,29.3379 C64.7765,29.3379 65.0005,29.1139 65.0005,28.8379 C65.0005,28.5619 64.7765,28.3379 64.5005,28.3379 L44.1055,28.3379 C43.8295,28.3379 43.6055,28.5619 43.6055,28.8379 C43.6055,29.1139 43.8295,29.3379 44.1055,29.3379" id="Fill-19" fill="#7E93BB" sketch:type="MSShapeGroup"></path>
            <path d="M44.1055,42.8027 L64.5005,42.8027 C64.7765,42.8027 65.0005,42.5787 65.0005,42.3027 C65.0005,42.0267 64.7765,41.8027 64.5005,41.8027 L44.1055,41.8027 C43.8295,41.8027 43.6055,42.0267 43.6055,42.3027 C43.6055,42.5787 43.8295,42.8027 44.1055,42.8027" id="Fill-21" fill="#7E93BB" sketch:type="MSShapeGroup"></path>
            <mask id="mask-2" sketch:name="Clip 24" fill="white">
                <use xlink:href="#path-1"></use>
            </mask>
            <g id="Clip-24"></g>
            <path d="M45.338,8.943 L63.492,8.943 L63.492,18.76 L45.338,18.76 L45.338,8.943 Z M44.838,19.761 L63.992,19.761 C64.269,19.761 64.492,19.537 64.492,19.261 L64.492,8.443 C64.492,8.167 64.269,7.943 63.992,7.943 L44.838,7.943 C44.562,7.943 44.338,8.167 44.338,8.443 L44.338,19.261 C44.338,19.537 44.562,19.761 44.838,19.761 L44.838,19.761 Z" id="Fill-23" fill="#7E93BB" sketch:type="MSShapeGroup" mask="url(#mask-2)"></path>
            <path d="M28.45,41.972 L10.295,41.972 L10.295,31.761 L28.45,31.761 L28.45,41.972 Z M28.95,30.761 L9.795,30.761 C9.519,30.761 9.295,30.984 9.295,31.261 L9.295,42.472 C9.295,42.748 9.519,42.972 9.795,42.972 L28.95,42.972 C29.227,42.972 29.45,42.748 29.45,42.472 L29.45,31.261 C29.45,30.984 29.227,30.761 28.95,30.761 L28.95,30.761 Z" id="Fill-25" fill="#7E93BB" sketch:type="MSShapeGroup" mask="url(#mask-2)"></path>
        </g>
    </g>
</svg>