<?xml version="1.0" encoding="UTF-8" standalone="no"?>
<svg width="160px" height="188px" viewBox="0 0 160 188" version="1.1" xmlns="http://www.w3.org/2000/svg" xmlns:xlink="http://www.w3.org/1999/xlink">
    <!-- Generator: Sketch 39.1 (31720) - http://www.bohemiancoding.com/sketch -->
    <title>Page 1</title>
    <desc>Created with Sketch.</desc>
    <defs>
        <polygon id="path-1" points="159.802 187.9995 159.802 0.76225 0.0002 0.76225 0.0002 187.9995 159.802 187.9995"></polygon>
    </defs>
    <g id="Page-1" stroke="none" stroke-width="1" fill="none" fill-rule="evenodd">
        <g transform="translate(0.000000, -1.000000)">
            <g id="Group-3" transform="translate(0.000000, 0.238000)">
                <mask id="mask-2" fill="white">
                    <use xlink:href="#path-1"></use>
                </mask>
                <g id="Clip-2"></g>
                <path d="M157.2952,44.5825 L82.4072,1.3585 C81.0282,0.5635 78.7722,0.5635 77.3942,1.3585 L2.5062,44.5825 C1.1282,45.3785 0.0002,47.3315 0.0002,48.9235 L0.0002,135.3755 C0.0002,136.9665 1.1282,138.9195 2.5062,139.7155 L23.0612,151.5795 L23.5572,187.9995 L52.1702,168.3805 L77.3942,182.9395 C78.7722,183.7355 81.0282,183.7355 82.4072,182.9395 L157.2912,139.7155 C158.6692,138.9195 159.7972,136.9665 159.7972,135.3755 L159.8022,48.9235 C159.8022,47.3315 158.6742,45.3785 157.2952,44.5825" id="Fill-1" fill="#00A6A5" mask="url(#mask-2)"></path>
            </g>
            <path d="M87.6057,88.9549 L89.4427,87.8569 L93.9777,96.6319 L100.9787,96.6319 L93.8687,83.9649 L101.1037,73.6819 L94.3227,73.6819 L89.5047,80.7149 C88.5527,82.0549 87.9157,83.0319 87.6057,83.6489 L87.6057,73.6819 L81.3717,73.6819 L81.3717,96.6319 L87.6057,96.6319 L87.6057,88.9549 Z" id="Fill-4" fill="#FDE500"></path>
            <polygon id="Fill-6" fill="#FDE500" points="117.0858 91.5781 109.6608 91.5781 109.6608 87.2441 116.5358 87.2441 116.5358 82.2681 109.6608 82.2681 109.6608 78.6571 117.0858 78.6571 117.0858 73.6821 103.4598 73.6821 103.4598 96.6321 117.0858 96.6321"></polygon>
            <polygon id="Fill-8" fill="#FDE500" points="89.1116 106.6441 94.7186 106.6441 94.7186 124.5251 100.9156 124.5251 100.9156 106.6441 106.5046 106.6441 106.5046 101.5721 89.1116 101.5721"></polygon>
            <path d="M71.3071,73.5884 L69.0041,73.5884 L67.5951,79.1224 C67.6741,79.4584 67.7621,79.8234 67.8611,80.2274 C68.1921,81.5554 68.4721,82.6394 68.7031,83.4784 L69.6931,87.2444 L65.5261,87.2444 L64.2311,92.3314 L70.9801,92.3314 L72.1091,96.6314 L78.8901,96.6314 L71.3071,73.5884 Z" id="Fill-10" fill="#FDE500"></path>
            <path d="M67.1952,77.4526 C67.1992,77.4256 67.2052,77.3946 67.2102,77.3686 C67.2112,77.3726 67.2122,77.3786 67.2132,77.3826 L68.1792,73.5886 L63.0362,73.5886 L55.5472,96.6316 L62.3132,96.6316 L67.1952,77.4526 Z" id="Fill-12" fill="#FDE500"></path>
            <polygon id="Fill-14" fill="#FDE500" points="117.6871 109.4423 114.0561 101.5723 107.3051 101.5723 114.6781 115.4133"></polygon>
            <polygon id="Fill-16" fill="#FDE500" points="122.5495 101.5725 114.8555 116.8395 114.8555 124.5245 121.1025 124.5245 121.1025 115.5605 128.6565 101.5725"></polygon>
            <path d="M54.7267,106.018 C54.7887,105.717 54.8377,105.464 54.8737,105.263 C54.8797,105.294 54.8867,105.332 54.8927,105.365 L55.8827,101.478 L50.6997,101.478 L43.2117,124.525 L50.0147,124.525 L54.7267,106.018 Z" id="Fill-18" fill="#FDE500"></path>
            <path d="M58.9716,101.4783 L56.7086,101.4783 L55.2776,107.1003 C55.3516,107.4113 55.4346,107.7483 55.5256,108.1173 C55.8546,109.4443 56.1346,110.5313 56.3656,111.3683 L57.3546,115.1353 L53.2316,115.1353 L51.9366,120.2203 L58.6426,120.2203 L59.7726,124.5253 L66.5546,124.5253 L58.9716,101.4783 Z" id="Fill-20" fill="#FDE500"></path>
            <polygon id="Fill-22" fill="#FDE500" points="126.7893 73.6823 121.1053 73.6823 121.1053 96.6313 126.7013 96.6313"></polygon>
            <path d="M134.0887,86.6329 C136.6837,85.1779 137.9797,83.1219 137.9797,80.4629 C137.9797,75.9399 134.8627,73.6819 128.6247,73.6819 L127.5887,73.6819 L127.5697,78.3759 L128.5287,78.3759 C130.6547,78.3759 131.7187,79.1619 131.7187,80.7469 C131.7187,82.6599 130.6317,83.6189 128.4677,83.6189 L127.5497,83.6189 L127.5307,88.2809 L128.8767,88.2809 L133.7417,96.6319 L140.7757,96.6319 L134.0887,86.6329 Z" id="Fill-24" fill="#FDE500"></path>
            <path d="M44.8089,73.6823 L40.1499,89.8633 L41.8779,96.6313 L42.8459,96.6313 L47.4789,80.1333 L47.6189,80.1333 C47.4949,82.6223 47.4229,84.1883 47.4059,84.8273 C47.3939,85.4643 47.3839,86.0453 47.3839,86.5713 L47.3839,96.6313 L53.0839,96.6313 L53.0839,73.6823 L44.8089,73.6823 Z" id="Fill-26" fill="#FDE500"></path>
            <path d="M36.9444,96.6318 L41.0534,96.6318 L35.1924,73.6828 L26.9444,73.6828 L26.9444,96.6318 L32.4384,96.6318 L32.4384,86.6628 C32.4384,85.1048 32.3304,82.9168 32.1104,80.0998 L32.2524,80.0998 L36.9444,96.6318 Z" id="Fill-28" fill="#FDE500"></path>
            <polygon id="Fill-30" fill="#FDE500" points="75.0211 101.5725 69.0341 101.5725 69.0341 124.5245 74.9341 124.5245"></polygon>
            <path d="M82.0137,114.5233 C84.6107,113.0683 85.9087,111.0123 85.9087,108.3543 C85.9087,103.8343 82.7897,101.5723 76.5547,101.5723 L75.8197,101.5723 L75.8017,106.2673 L76.4597,106.2673 C78.5837,106.2673 79.6457,107.0563 79.6457,108.6343 C79.6457,110.5503 78.5637,111.5103 76.3967,111.5103 L75.7827,111.5103 L75.7647,116.1693 L76.8057,116.1693 L81.6707,124.5253 L88.7037,124.5253 L82.0137,114.5233 Z" id="Fill-32" fill="#FDE500"></path>
            <polygon id="Fill-34" fill="#FDE500" points="32.7955 101.5725 26.9445 101.5725 26.9445 124.5245 32.7055 124.5245"></polygon>
            <path d="M41.419,103.4715 C39.964,102.2055 37.787,101.5725 34.888,101.5725 L33.597,101.5725 L33.578,106.5815 L34.747,106.5815 C36.461,106.5815 37.324,107.3535 37.324,108.9035 C37.324,109.8235 37.047,110.5465 36.498,111.0675 C35.948,111.5925 35.208,111.8545 34.277,111.8545 L33.556,111.8545 L33.538,116.9075 L34.888,116.9075 C37.674,116.9075 39.82,116.2115 41.332,114.8125 C42.844,113.4165 43.603,111.4345 43.603,108.8715 C43.603,106.5385 42.874,104.7365 41.419,103.4715" id="Fill-36" fill="#FDE500"></path>
            <path d="M29.021,58.2828 C29.206,58.5678 29.287,58.8218 29.39,59.3568 C30.112,58.6538 31.003,58.2828 31.973,58.2828 C32.851,58.2828 33.571,58.5678 34.128,59.1478 C34.277,59.2948 34.421,59.4828 34.548,59.6658 C35.517,58.6738 36.384,58.2828 37.548,58.2828 C38.376,58.2828 39.161,58.5288 39.641,58.9428 C40.239,59.4598 40.43,60.0818 40.43,61.5298 L40.43,69.0638 L37.737,69.0638 L37.737,62.0698 C37.737,60.8018 37.587,60.5568 36.866,60.5568 C36.348,60.5568 35.621,60.9088 35.024,61.4468 L35.024,69.0638 L32.399,69.0638 L32.399,62.1698 C32.399,60.8478 32.207,60.5358 31.436,60.5358 C30.924,60.5358 30.216,60.8018 29.619,61.3418 L29.619,69.0638 L26.909,69.0638 L26.909,61.6738 C26.909,60.1438 26.804,59.4828 26.513,58.9618 L29.021,58.2828 Z" id="Fill-38" fill="#FDE500"></path>
            <path d="M50.3363,59.8538 C51.1833,60.8468 51.5603,62.0048 51.5603,63.7228 C51.5603,65.5438 51.1433,66.7878 50.2303,67.8218 C49.4273,68.7318 48.3703,69.2918 46.7363,69.2918 C43.8563,69.2918 41.9783,67.1388 41.9783,63.8078 C41.9783,60.4738 43.8773,58.2588 46.7363,58.2588 C48.2483,58.2588 49.4273,58.7778 50.3363,59.8538 M45.3503,61.3848 C45.1603,61.9458 45.0593,62.6888 45.0593,63.7448 C45.0593,64.9648 45.1833,65.8788 45.4103,66.4158 C45.6603,66.9938 46.2833,67.2838 46.8173,67.2838 C48.0183,67.2838 48.5323,66.2088 48.5323,63.7048 C48.5323,62.2768 48.3453,61.3418 47.9753,60.8658 C47.7093,60.5158 47.2753,60.3078 46.7773,60.3078 C46.1133,60.3078 45.5753,60.7208 45.3503,61.3848" id="Fill-40" fill="#FDE500"></path>
            <polygon id="Fill-42" fill="#FDE500" points="60.4822 58.4671 60.4822 60.3711 55.8002 67.1381 60.6642 67.1381 60.0012 69.0641 52.2012 69.0641 52.2012 67.3461 57.1832 60.4131 52.6172 60.4131 52.6172 58.4671"></polygon>
            <path d="M65.1716,55.5494 C65.1716,56.5014 64.4136,57.2634 63.4546,57.2634 C62.5276,57.2634 61.7636,56.5014 61.7636,55.5494 C61.7636,54.5984 62.5526,53.8304 63.5016,53.8304 C64.4316,53.8304 65.1716,54.5984 65.1716,55.5494 L65.1716,55.5494 Z M64.8456,58.2174 L64.8456,69.0634 L62.0726,69.0634 L62.0726,58.6534 L64.8456,58.2174 Z" id="Fill-44" fill="#FDE500"></path>
            <path d="M69.8953,56.5019 L69.8953,64.7579 C69.8953,66.5829 69.9173,66.8289 70.0833,67.1179 C70.1893,67.3069 70.4133,67.4069 70.6443,67.4069 C70.7443,67.4069 70.8033,67.4069 70.9543,67.3689 L71.4273,69.0229 C70.9543,69.2079 70.3743,69.3109 69.7733,69.3109 C68.5913,69.3109 67.6393,68.7549 67.3083,67.8659 C67.1003,67.3289 67.0573,66.9939 67.0573,65.4849 L67.0573,57.5749 C67.0573,56.1899 67.0203,55.3429 66.9173,54.3869 L69.7523,53.7459 C69.8523,54.3239 69.8953,55.0089 69.8953,56.5019" id="Fill-46" fill="#FDE500"></path>
            <path d="M75.6469,56.5019 L75.6469,64.7579 C75.6469,66.5829 75.6709,66.8289 75.8419,67.1179 C75.9389,67.3069 76.1639,67.4069 76.3949,67.4069 C76.4979,67.4069 76.5619,67.4069 76.7089,67.3689 L77.1829,69.0229 C76.7089,69.2079 76.1279,69.3109 75.5259,69.3109 C74.3449,69.3109 73.3909,68.7549 73.0609,67.8659 C72.8499,67.3289 72.8149,66.9939 72.8149,65.4849 L72.8149,57.5749 C72.8149,56.1899 72.7729,55.3429 72.6669,54.3869 L75.4989,53.7459 C75.6119,54.3239 75.6469,55.0089 75.6469,56.5019" id="Fill-48" fill="#FDE500"></path>
            <path d="M79.9987,58.861 C81.0297,58.425 81.9157,58.241 82.8917,58.241 C84.6767,58.241 85.8947,58.901 86.3127,60.082 C86.4497,60.516 86.5147,60.847 86.5007,61.987 L86.4337,65.543 L86.4337,65.733 C86.4337,66.87 86.6217,67.307 87.4327,67.904 L85.9607,69.605 C85.3137,69.333 84.7357,68.855 84.4657,68.319 C84.2627,68.528 84.0327,68.731 83.8237,68.877 C83.3087,69.251 82.5587,69.459 81.6897,69.459 C79.3307,69.459 78.0477,68.256 78.0477,66.149 C78.0477,63.66 79.7697,62.5 83.1407,62.5 C83.3437,62.5 83.5347,62.5 83.7647,62.523 L83.7647,62.091 C83.7647,60.91 83.5347,60.516 82.5147,60.516 C81.6357,60.516 80.5927,60.948 79.4567,61.716 L78.2747,59.729 C78.8367,59.376 79.2517,59.17 79.9987,58.861 L79.9987,58.861 Z M83.5937,64.428 C81.6757,64.428 81.0037,64.778 81.0037,66.045 C81.0037,66.87 81.5277,67.428 82.2307,67.428 C82.7457,67.428 83.2677,67.159 83.6777,66.705 L83.7227,64.428 L83.5937,64.428 Z" id="Fill-50" fill="#FDE500"></path>
        </g>
    </g>
</svg>