<?xml version="1.0" encoding="UTF-8" standalone="no"?>
<svg width="160px" height="188px" viewBox="0 0 160 188" version="1.1" xmlns="http://www.w3.org/2000/svg" xmlns:xlink="http://www.w3.org/1999/xlink">
    <!-- Generator: Sketch 39.1 (31720) - http://www.bohemiancoding.com/sketch -->
    <title>MakerPartyLogo 2</title>
    <desc>Created with Sketch.</desc>
    <defs></defs>
    <g id="Wireframing" stroke="none" stroke-width="1" fill="none" fill-rule="evenodd">
        <g id="1200px---Desktop-Homepage-Copy-5" transform="translate(-916.000000, -549.000000)">
            <g id="MakerPartyLogo-2" transform="translate(916.000000, 549.000000)">
                <path d="M157.295182,43.8202344 L82.4074307,0.596729736 C81.0282824,-0.198909912 78.7724178,-0.198909912 77.3940509,0.596729736 L2.50629921,43.8202344 C1.12793232,44.6162647 0,46.5692339 0,48.1609037 L0,134.612991 C0,136.20427 1.12793232,138.15763 2.50629921,138.95327 L23.061469,150.817167 L23.5576498,187.237699 L52.1697023,167.61817 L77.3940509,182.177165 C78.7724178,182.972805 81.0282824,182.972805 82.4074307,182.177165 L157.290885,138.95327 C158.669642,138.15763 159.797575,136.20427 159.797575,134.612991 L159.801872,48.1609037 C159.801872,46.5692339 158.674331,44.6162647 157.295182,43.8202344" id="Fill-1" fill="#00A6A5"></path>
                <path d="M86.3875658,78.4600998 L88.205463,77.3742489 L92.6937506,86.0563687 L99.6234824,86.0563687 L92.5867006,73.5233843 L99.7473323,63.3480242 L93.0356075,63.3480242 L88.2675833,70.306844 C87.3248397,71.6325195 86.6942603,72.5996298 86.3875658,73.2105186 L86.3875658,63.3480242 L80.2173424,63.3480242 L80.2173424,86.0563687 L86.3875658,86.0563687 L86.3875658,78.4600998" id="Fill-2" fill="#FFE611"></path>
                <polygon id="Fill-3" fill="#FFE611" points="108.216397 81.0559864 108.216397 76.7676567 115.020716 76.7676567 115.020716 71.8438308 108.216397 71.8438308 108.216397 68.2706783 115.564952 68.2706783 115.564952 63.3480242 102.078991 63.3480242 102.078991 86.0563687 115.564952 86.0563687 115.564952 81.0559864"></polygon>
                <polyline id="Fill-4" fill="#FFE611" points="87.8780618 95.9633908 93.4278639 95.9633908 93.4278639 113.65612 99.5609714 113.65612 99.5609714 95.9633908 105.092802 95.9633908 105.092802 90.9450412 87.8780618 90.9450412 87.8780618 95.9633908"></polyline>
                <path d="M70.25661,63.2554535 L67.9773037,63.2554535 L66.5825277,68.7319697 C66.6606664,69.0635838 66.7477911,69.4248831 66.8462458,69.8244606 C67.1736471,71.1388089 67.4506488,72.2117702 67.6788138,73.0413915 L68.6598454,76.7676567 L64.5352934,76.7676567 L63.2534278,81.8004583 L69.9331157,81.8004583 L71.0501086,86.0563687 L77.7610519,86.0563687 L70.25661,63.2554535" id="Fill-5" fill="#FFE611"></path>
                <path d="M66.1867551,67.0789765 C66.1914434,67.0520256 66.1969131,67.0219498 66.2016015,66.9965612 C66.2027735,67.0004672 66.2035549,67.0059355 66.2043363,67.010232 L67.1603635,63.2554535 L62.070017,63.2554535 L54.6589508,86.0563687 L61.3542664,86.0563687 L66.1867551,67.0789765" id="Fill-6" fill="#FFE611"></path>
                <polyline id="Fill-7" fill="#FFE611" points="116.159978 98.73192 112.566769 90.9450412 105.884347 90.9450412 113.182112 104.640433 116.159978 98.73192"></polyline>
                <polyline id="Fill-8" fill="#FFE611" points="120.972542 90.9450412 113.357533 106.052039 113.357533 113.65612 119.54065 113.65612 119.54065 104.785734 127.016962 90.9450412 120.972542 90.9450412"></polyline>
                <path d="M53.8466989,95.3435184 C53.9076471,95.0454953 53.9564838,94.7959059 53.9920369,94.5963124 C53.9975066,94.6275599 54.0049298,94.6646663 54.0111809,94.6978668 L54.9906496,90.8512987 L49.8604525,90.8512987 L42.4497769,113.65612 L49.1833805,113.65612 L53.8466989,95.3435184" id="Fill-9" fill="#FFE611"></path>
                <path d="M58.0478268,90.8512987 L55.8083713,90.8512987 L54.3917164,96.4145267 C54.4651668,96.7223147 54.5468218,97.0554912 54.6374627,97.4206965 C54.9629104,98.7342635 55.2399121,99.8095684 55.4688586,100.637237 L56.4475459,104.365455 L52.3667517,104.365455 L51.0852768,109.397085 L57.7219884,109.397085 L58.8409347,113.65612 L65.5530501,113.65612 L58.0478268,90.8512987" id="Fill-10" fill="#FFE611"></path>
                <polyline id="Fill-11" fill="#FFE611" points="125.168981 63.3480242 119.543384 63.3480242 119.543384 86.0563687 125.081466 86.0563687 125.168981 63.3480242"></polyline>
                <path d="M132.393686,76.1626268 C134.962106,74.7228979 136.243972,72.6882946 136.243972,70.0576451 C136.243972,65.5822209 133.159446,63.3480242 126.984925,63.3480242 L125.959354,63.3480242 L125.941382,67.9925755 L126.891158,67.9925755 C128.995043,67.9925755 130.047181,68.771029 130.047181,70.3388727 C130.047181,72.2316904 128.971602,73.1808335 126.829819,73.1808335 L125.921457,73.1808335 L125.903094,77.7933561 L127.234969,77.7933561 L132.050658,86.0563687 L139.011645,86.0563687 L132.393686,76.1626268" id="Fill-12" fill="#FFE611"></path>
                <path d="M44.0305231,63.3480242 L39.4195577,79.3592468 L41.1300141,86.0563687 L42.0883854,86.0563687 L46.6731744,69.7318899 L46.8114799,69.7318899 C46.6888021,72.194584 46.6176959,73.7440698 46.6012867,74.3764412 C46.5887846,75.0068597 46.5790172,75.5818138 46.5790172,76.1020848 L46.5790172,86.0563687 L52.2198509,86.0563687 L52.2198509,63.3480242 L44.0305231,63.3480242" id="Fill-13" fill="#FFE611"></path>
                <path d="M36.2467352,86.0563687 L40.3130738,86.0563687 L34.5128372,63.3480242 L26.3492952,63.3480242 L26.3492952,86.0563687 L31.7873589,86.0563687 L31.7873589,76.1927025 C31.7873589,74.6506381 31.6803088,72.4855764 31.4630832,69.6986894 L31.6033422,69.6986894 L36.2467352,86.0563687" id="Fill-14" fill="#FFE611"></path>
                <polyline id="Fill-15" fill="#FFE611" points="73.932255 90.9450412 68.0066057 90.9450412 68.0066057 113.65612 73.8463024 113.65612 73.932255 90.9450412"></polyline>
                <path d="M80.8530008,103.759644 C83.4233738,102.319915 84.7079742,100.285312 84.7079742,97.6550528 C84.7079742,93.1823627 81.6207137,90.9450412 75.4504902,90.9450412 L74.7226281,90.9450412 L74.7054376,95.5903737 L75.3563331,95.5903737 C77.4586551,95.5903737 78.5096208,96.3711708 78.5096208,97.9323744 C78.5096208,99.8287075 77.4387298,100.778241 75.2942128,100.778241 L74.6862936,100.778241 L74.6683217,105.388811 L75.6985806,105.388811 L80.5134881,113.65612 L87.474866,113.65612 L80.8530008,103.759644" id="Fill-16" fill="#FFE611"></path>
                <polyline id="Fill-17" fill="#FFE611" points="32.1405459 90.9450412 26.3492952 90.9450412 26.3492952 113.65612 32.0522491 113.65612 32.1405459 90.9450412"></polyline>
                <path d="M40.6756375,92.8241882 C39.235541,91.5719443 37.0804753,90.9450412 34.2116124,90.9450412 L32.9336538,90.9450412 L32.9145098,95.901677 L34.0721348,95.901677 C35.7685263,95.901677 36.6221917,96.665288 36.6221917,98.19915 C36.6221917,99.1096242 36.3483155,99.8244109 35.8048608,100.340385 C35.2610154,100.859485 34.5284649,101.11962 33.6064281,101.11962 L32.8938031,101.11962 L32.8750498,106.118831 L34.2116124,106.118831 C36.9683462,106.118831 39.0925471,105.429823 40.5892942,104.045559 C42.0860412,102.664028 42.8369543,100.702856 42.8369543,98.1671213 C42.8369543,95.8591023 42.1157339,94.0756508 40.6756375,92.8241882" id="Fill-18" fill="#FFE611"></path>
            </g>
        </g>
    </g>
</svg>