<?xml version="1.0" encoding="utf-8"?>
<!-- Generator: Adobe Illustrator 19.2.1, SVG Export Plug-In . SVG Version: 6.00 Build 0)  -->
<svg version="1.0" id="Layer_1" xmlns="http://www.w3.org/2000/svg" xmlns:xlink="http://www.w3.org/1999/xlink" x="0px" y="0px"
	 viewBox="0 0 360 252" style="enable-background:new 0 0 360 252;" xml:space="preserve">
<style type="text/css">
	.st0{fill:none;stroke:#010101;stroke-width:2;}
	.st1{fill:#010101;}
</style>
<g>
	<path class="st0" d="M62,197.3H51.8V184H36.4v13.2H26.2v-33.9h10.2v12.5h15.4v-12.5H62V197.3z"/>
	<path class="st0" d="M107.8,197.3H97.4l-2.8-6.9H79.8l-2.8,6.9H66.5l15-33.9h11.3L107.8,197.3z M92.2,184.5l-5-12.4l-5,12.4H92.2z"
		/>
	<path class="st0" d="M145.2,197.3h-11l-2.7-6c-1-2.2-1.9-3.8-2.6-4.8c-0.8-1-1.5-1.7-2.3-2c-0.7-0.3-1.7-0.4-2.9-0.4h-1.2v13.2
		h-10.2v-33.9h17.4c2.8,0,5.1,0.6,6.9,1.7c1.8,1.1,3.1,2.5,3.9,4.2c0.8,1.6,1.2,3.2,1.2,4.7c0,1.7-0.3,3.2-1,4.3
		c-0.7,1.2-1.4,2-2.1,2.6c-0.7,0.5-1.6,1.1-2.5,1.5c1.1,0.6,2,1.4,2.7,2.3c0.7,0.9,1.7,2.6,2.9,5.3L145.2,197.3z M131.3,174.1
		c0-1.6-0.5-2.7-1.5-3.3c-1-0.6-2.7-0.9-5-0.9h-2.2v8.2h2.2c2.5,0,4.2-0.3,5.1-0.8C130.8,176.7,131.3,175.6,131.3,174.1z"/>
	<path class="st0" d="M189.3,197.3h-10.2v-19.7l-9.2,11.4h-0.8l-9.3-11.4v19.7h-9.9v-33.9h9.3l10.4,12.7l10.5-12.7h9.3V197.3z"/>
	<path class="st0" d="M234.2,180.3c0,3.2-0.7,6.1-2.2,8.7c-1.5,2.7-3.6,4.8-6.5,6.3c-2.9,1.6-6.4,2.3-10.6,2.3
		c-4.2,0-7.7-0.8-10.7-2.4c-2.9-1.6-5.1-3.8-6.5-6.4c-1.4-2.7-2.1-5.5-2.1-8.5c0-3.1,0.7-5.9,2.1-8.6c1.4-2.7,3.6-4.8,6.5-6.4
		c2.9-1.6,6.5-2.4,10.7-2.4c3.1,0,5.9,0.5,8.4,1.4c2.5,0.9,4.5,2.2,6.1,3.8c1.6,1.6,2.8,3.4,3.6,5.6
		C233.8,175.7,234.2,178,234.2,180.3z M223.8,180.3c0-1.3-0.2-2.4-0.6-3.5c-0.4-1.1-0.9-2-1.7-2.7c-0.8-0.8-1.7-1.4-2.8-1.8
		c-1.1-0.4-2.4-0.6-3.8-0.6c-2.7,0-4.9,0.8-6.5,2.4c-1.6,1.6-2.4,3.7-2.4,6.3c0,2.6,0.8,4.7,2.4,6.3c1.6,1.6,3.7,2.4,6.5,2.4
		c1.9,0,3.5-0.4,4.8-1.1c1.3-0.7,2.3-1.8,3-3.1C223.4,183.5,223.8,182,223.8,180.3z"/>
	<path class="st0" d="M276.7,197.3h-9.1L250,178.4v18.9h-10.1v-33.9h9.1l17.6,18.8v-18.8h10.2V197.3z"/>
	<path class="st0" d="M295.5,197.3h-10.2v-33.9h10.2V197.3z"/>
	<path class="st0" d="M334.5,194.8c-1.4,0.7-2.8,1.3-4.3,1.8c-1.5,0.4-3,0.8-4.4,0.9c-1.5,0.2-3,0.3-4.6,0.3c-3,0-5.6-0.4-7.9-1.2
		c-2.3-0.8-4.4-2-6.1-3.6c-1.7-1.6-3-3.5-3.9-5.6c-0.9-2.1-1.3-4.5-1.3-7c0-2.9,0.5-5.5,1.5-7.7c1-2.2,2.4-4,4.2-5.5
		c1.8-1.5,3.9-2.5,6.2-3.2c2.3-0.7,4.8-1,7.4-1c3.9,0,8.2,0.9,13.1,2.6v9c-1.7-1-3.3-1.9-5-2.6c-1.6-0.7-3.6-1-5.8-1
		c-2,0-3.8,0.4-5.5,1.2c-1.7,0.8-3.1,1.9-4.1,3.4c-1,1.5-1.6,3.2-1.6,5.1c0,1.7,0.5,3.3,1.4,4.7c0.9,1.4,2.2,2.6,3.8,3.4
		c1.6,0.8,3.5,1.3,5.5,1.3c1.6,0,3.2-0.2,4.7-0.6c1.5-0.4,2.7-0.8,3.7-1.3c1-0.5,2-1.1,3.1-1.7V194.8z"/>
</g>
<g>
	<path class="st1" d="M47.7,229.5H26.9v-27.4h8.3v20.8h12.5V229.5z"/>
	<path class="st1" d="M82.6,229.5h-8.5l-2.2-5.6H60l-2.3,5.6h-8.5l12.1-27.4h9.1L82.6,229.5z M70,219.2l-4-10l-4.1,10H70z"/>
	<path class="st1" d="M111.9,221.7c0,2.4-0.8,4.2-2.4,5.7c-1.6,1.4-3.9,2.1-6.8,2.1H86.9v-27.4h13.2c1.7,0,3.2,0.2,4.5,0.5
		c1.3,0.3,2.3,0.8,3.1,1.4c0.8,0.6,1.4,1.2,1.7,2c0.4,0.8,0.6,1.6,0.6,2.5c0,1-0.2,1.9-0.6,2.8c-0.4,0.8-0.9,1.5-1.5,2.1
		c-0.6,0.5-1.2,0.9-1.8,1.2c1.9,0.7,3.3,1.7,4.3,2.8C111.4,218.5,111.9,219.9,111.9,221.7z M102.2,210c0-1.3-0.4-2.2-1.3-2.6
		c-0.9-0.4-2.2-0.7-4.1-0.7h-1.7v6.6h1.8c1.9,0,3.2-0.2,4.1-0.7C101.8,212.2,102.2,211.3,102.2,210z M103.6,221.4
		c0-2.3-1.7-3.5-5.1-3.5h-3.4v7h3.4C101.9,224.9,103.6,223.7,103.6,221.4z"/>
	<path class="st1" d="M147.1,215.8c0,2.6-0.6,4.9-1.8,7.1c-1.2,2.1-2.9,3.9-5.3,5.1c-2.3,1.3-5.2,1.9-8.5,1.9c-3.4,0-6.2-0.7-8.6-2
		c-2.3-1.3-4.1-3-5.2-5.2c-1.1-2.1-1.7-4.4-1.7-6.9c0-2.5,0.6-4.8,1.7-6.9c1.1-2.1,2.9-3.9,5.2-5.2c2.4-1.3,5.2-2,8.6-2
		c2.5,0,4.8,0.4,6.8,1.1c2,0.8,3.6,1.8,4.9,3.1c1.3,1.3,2.2,2.8,2.9,4.5C146.8,212.1,147.1,213.9,147.1,215.8z M138.7,215.8
		c0-1-0.2-2-0.5-2.8c-0.3-0.8-0.8-1.6-1.4-2.2c-0.6-0.6-1.4-1.1-2.2-1.5c-0.9-0.3-1.9-0.5-3.1-0.5c-2.2,0-4,0.6-5.2,1.9
		c-1.3,1.3-1.9,3-1.9,5.1c0,2.1,0.6,3.8,1.9,5.1c1.3,1.3,3,1.9,5.2,1.9c1.5,0,2.8-0.3,3.9-0.9c1.1-0.6,1.9-1.4,2.4-2.5
		C138.4,218.3,138.7,217.1,138.7,215.8z"/>
	<path class="st1" d="M179.3,229.5h-8.9l-2.2-4.9c-0.8-1.8-1.5-3.1-2.1-3.9c-0.6-0.8-1.2-1.4-1.8-1.6c-0.6-0.2-1.4-0.3-2.3-0.3h-0.9
		v10.7h-8.3v-27.4h14c2.3,0,4.1,0.5,5.6,1.4c1.5,0.9,2.5,2,3.1,3.4c0.6,1.3,1,2.6,1,3.8c0,1.4-0.3,2.6-0.8,3.5
		c-0.5,1-1.1,1.6-1.7,2.1c-0.6,0.4-1.3,0.8-2,1.2c0.9,0.5,1.6,1.1,2.2,1.8c0.6,0.7,1.4,2.1,2.3,4.3L179.3,229.5z M168.1,210.7
		c0-1.3-0.4-2.1-1.2-2.6c-0.8-0.5-2.2-0.8-4-0.8h-1.7v6.6h1.8c2,0,3.4-0.2,4.1-0.7C167.7,212.8,168.1,212,168.1,210.7z"/>
	<path class="st1" d="M213.8,229.5h-8.5l-2.2-5.6h-11.9l-2.3,5.6h-8.5l12.1-27.4h9.1L213.8,229.5z M201.2,219.2l-4-10l-4,10H201.2z"
		/>
	<path class="st1" d="M240.2,208.8h-10v20.7h-8.2v-20.7h-10v-6.7h28.3V208.8z"/>
	<path class="st1" d="M272.6,215.8c0,2.6-0.6,4.9-1.8,7.1c-1.2,2.1-2.9,3.9-5.3,5.1c-2.3,1.3-5.2,1.9-8.5,1.9c-3.4,0-6.3-0.7-8.6-2
		c-2.3-1.3-4.1-3-5.2-5.2c-1.1-2.1-1.7-4.4-1.7-6.9c0-2.5,0.6-4.8,1.7-6.9c1.1-2.1,2.9-3.9,5.2-5.2c2.4-1.3,5.2-2,8.6-2
		c2.5,0,4.8,0.4,6.8,1.1c2,0.8,3.6,1.8,4.9,3.1c1.3,1.3,2.2,2.8,2.9,4.5C272.3,212.1,272.6,213.9,272.6,215.8z M264.2,215.8
		c0-1-0.2-2-0.5-2.8c-0.3-0.8-0.8-1.6-1.4-2.2c-0.6-0.6-1.4-1.1-2.2-1.5c-0.9-0.3-1.9-0.5-3.1-0.5c-2.2,0-4,0.6-5.2,1.9
		c-1.3,1.3-1.9,3-1.9,5.1c0,2.1,0.6,3.8,1.9,5.1c1.3,1.3,3,1.9,5.2,1.9c1.5,0,2.8-0.3,3.9-0.9c1.1-0.6,1.9-1.4,2.4-2.5
		C263.9,218.3,264.2,217.1,264.2,215.8z"/>
	<path class="st1" d="M304.9,229.5H296l-2.2-4.9c-0.8-1.8-1.5-3.1-2.1-3.9c-0.6-0.8-1.3-1.4-1.8-1.6c-0.6-0.2-1.4-0.3-2.3-0.3h-0.9
		v10.7h-8.3v-27.4h14c2.3,0,4.1,0.5,5.6,1.4c1.4,0.9,2.5,2,3.1,3.4c0.6,1.3,1,2.6,1,3.8c0,1.4-0.3,2.6-0.8,3.5
		c-0.5,1-1.1,1.6-1.7,2.1c-0.6,0.4-1.3,0.8-2,1.2c0.9,0.5,1.6,1.1,2.2,1.8c0.6,0.7,1.4,2.1,2.3,4.3L304.9,229.5z M293.7,210.7
		c0-1.3-0.4-2.1-1.2-2.6c-0.8-0.5-2.2-0.8-4.1-0.8h-1.7v6.6h1.8c2,0,3.4-0.2,4.1-0.7C293.3,212.8,293.7,212,293.7,210.7z"/>
	<path class="st1" d="M334.8,202.1l-10.7,14.8v12.5h-8.3v-12.4l-10.9-15h8.6l6.3,8.6l6.3-8.6H334.8z"/>
</g>
<g>
	<path d="M29.2,109.6c-5.7,1.7-11.5,2.9-17.5,3.9C17.3,112.8,23.6,111.7,29.2,109.6z"/>
	<path d="M10.5,113.7c0.4-0.1,0.8-0.1,1.1-0.2C11.3,113.5,10.9,113.6,10.5,113.7C10.5,113.6,10.5,113.7,10.5,113.7z"/>
	<path d="M175.2,62.9c-11,9.7-18.5,22.5-25,35.4c-1.4,2.8-2.8,5.7-4.2,8.5c1.7-6.4,3.3-12.8,4.9-19.2c4.4-17.8,7-36.5,6.7-54.8
		c0-1.6-3.2-2.5-4.1-1.2c-4.9,7.2-10,14.1-14.4,21.6c-4.5,7.7-8.6,15.6-12.4,23.6c-4,8.2-7.5,16.7-10.8,25.1c-2,5-4.1,9.9-6.3,14.9
		c4.4-27.3,11.3-54.2,19.4-80.7c0.2-0.7-1.2-1.1-1.6-0.6c-10.9,15.7-18.8,32.9-26.8,50.2c-7.6,16.3-15.3,32.8-28.3,45.4
		c3.3-20.3,13.3-38.8,16.5-59.1c0.2-1.3-1.8-1.8-2.7-1.2c-12.2,8-23,17.8-34.9,26.4c-5.3,3.8-11,6.7-16.5,10c-1.7,1-3.6,1.9-5.5,2.6
		c7.9-2.4,15.5-5.7,22.5-10.5C63.1,91.3,73.5,82.2,85,74.5c-4.4,20.2-14.9,39-16.3,59.8c-0.1,1.4,2,1.9,2.9,1
		c6.8-6.4,11.7-13.9,16.7-21.7c5.2-8,9.3-16.5,13.3-25.1c7.3-15.9,13.4-33,23.6-47.4c-10.3,27-18.9,54.6-21.4,83.5
		c-0.1,0.9,0.8,1.6,1.8,1.9c0.4,1.6,3.7,2.6,4.3,0.8c2.8-7.9,5.3-16,8.7-23.6c3.7-8.4,7.6-16.7,11.5-24.9
		c3.9-8.1,8.1-16.1,12.6-23.8c2.9-5,6-10.1,9.4-14.9c-5.3,33.2-17.6,64.9-25.5,97.5c-0.8,3.4,3.3,5.8,6.3,5.8c0.6,0,1.1,0,1.7,0
		c1.3,0,3-0.5,3.5-1.9c1.2-3.1,0.3-6.5,1.6-9.7c1.4-3.4,2.7-6.7,4-10.1c2.6-7,5.7-13.9,8.8-20.7c6.3-13.5,13.8-26.5,24-37.3
		C177,63.2,175.7,62.5,175.2,62.9z"/>
</g>
<path d="M347.4,81.1c-7.7,0.1-15.3,1.1-23,1.5c-6.3,0.4-12.5,0.6-18.8,1.6c-11.5,1.9-22.3,6.2-31.5,13.3c-5.2-4.9-7.2-12.1-7.5-19.2
	c-0.1-1.6-3.2-2.7-4.1-1.3c-3.8,5.5-7.6,11.2-10.8,17.1c-3.6,6.5-8.5,12.3-12.5,18.6c-3.7,5.8-7.1,11.8-10,18
	c-1.5,3.3-2.9,6.6-4.4,9.9c-0.3,0.6-0.5,1.2-0.7,1.8c0.3-1.6,0.6-3.2,0.9-4.7c1.1-5.7,2.1-11.4,3.2-17.1c0.5-2.6,1.7-5.1,2.2-7.8
	c0.5-2.7,1-5.4,1.5-8c1.1-5.8,2.1-11.6,3.2-17.3c2-11.1,3.7-22.5,6.8-33.4c3.1-10.7,5.7-21.8,7.8-32.7c0.4-2.3-1.3-4-3.2-5
	c-1.9-0.9-6.6-1.8-7.9,0.7c-0.2,0.3-0.3,0.7-0.5,1c0,0,0,0,0,0c0,0,0,0,0,0c-9.1,17.7-15.1,36.8-22.3,55.3
	C209,91,198.8,109.4,181.7,119c-4.3-8.4-3.2-18.4-1.8-27.5c1.6-9.9,3.6-19.7,2.8-29.8c0,0-0.1,0-0.1,0c0.7,10.7-4.2,21.2-6.7,31.4
	c-2.5,10-2.7,20.2,3.1,29.2c0.7,1.1,2.6,1.4,3.7,0.9c18.5-8.8,29.9-27.7,39.9-44.8c3.6-6.1,6.7-12.3,9.7-18.7
	c-1.3,8.8-3.2,17.5-4.7,26.3c-1,5.4-1.9,10.7-2.8,16.1c-0.4,2.7-0.9,5.4-1.3,8.1c-0.5,3-0.4,5.8-0.6,8.8c-0.4,5.7-1.7,11.5-2.5,17.2
	c-0.4,2.7-0.7,5.3-1.1,8c-0.2,1.5-0.4,3-0.6,4.6c-0.1,1.1,0.5,2.7,0.7,3.8c0.1,0.5,1.4,0.9,1.6,0.3c0.6-1,1.2-1.9,1.7-2.9
	c0.6-1.1,0.6-3.3,0.8-4.5c0.1-0.4,0.1-0.8,0.2-1.1c0.3-0.6,0.6-1.1,0.8-1.7c1.5-3.3,3.1-6.5,4.9-9.7c3.7-6.6,7.5-13.1,11.5-19.5
	c3.7-6,7.1-12.7,11.8-18c3.4-3.8,6.8-7.8,10-11.8c1,7,4.1,13.6,9.9,18.1c1.4,1.1,3.2,1.7,4.7,0.5c5.4-4.2,10.8-7.8,17.1-10.3
	c5.2-2.1,10.7-3,16.3-3.5c12.7-1.2,26.2-0.3,38.5-3.9C351.8,83.7,349.1,81.1,347.4,81.1z"/>
</svg>
