<?xml version="1.0" encoding="utf-8"?>
<!-- Generator: Adobe Illustrator 19.2.0, SVG Export Plug-In . SVG Version: 6.00 Build 0)  -->
<svg version="1.1" id="Layer_1" xmlns:sketch="http://www.bohemiancoding.com/sketch/ns"
	 xmlns="http://www.w3.org/2000/svg" xmlns:xlink="http://www.w3.org/1999/xlink" x="0px" y="0px" viewBox="0 0 57 47"
	 style="enable-background:new 0 0 57 47;" xml:space="preserve">
<style type="text/css">
	.st0{filter:url(#Adobe_OpacityMaskFilter);}
	.st1{fill:#FFFFFF;}
	.st2{mask:url(#mask-2);fill:#3379AC;}
</style>
<title>icon-home-twitter</title>
<desc>Created with Sketch.</desc>
<g id="Page-1" sketch:type="MSPage">
	<g id="icon-home-twitter" sketch:type="MSLayerGroup">
		<g id="Clip-2">
		</g>
		<defs>
			<filter id="Adobe_OpacityMaskFilter" filterUnits="userSpaceOnUse" x="0" y="0.6" width="57" height="46.4">
				<feColorMatrix  type="matrix" values="1 0 0 0 0  0 1 0 0 0  0 0 1 0 0  0 0 0 1 0"/>
			</filter>
		</defs>
		<mask maskUnits="userSpaceOnUse" x="0" y="0.6" width="57" height="46.4" id="mask-2">
			<g class="st0">
				<path id="path-1" class="st1" d="M0,0.6h57V47H0"/>
			</g>
		</mask>
		<path id="Fill-1" sketch:type="MSShapeGroup" class="st2" d="M2.5,42c4.8,2.7,9.9,4,15.6,4c4.2,0,7.9-0.6,11.3-1.9
			c3.6-1.3,6.5-3,9-5.1c2.5-2.1,4.7-4.6,6.5-7.3c1.9-2.9,3.2-5.8,4-8.7c0.9-3,1.3-6.1,1.3-9.1v-1.5c0-0.2,0.1-0.3,0.2-0.4
			c1.8-1.3,3.4-2.8,4.8-4.6c-1.7,0.4-3.1,0.2-3.2,0.2c-0.2,0-0.3-0.1-0.4-0.3c-0.1-0.2,0-0.4,0.1-0.5c0,0,1.4-1.7,2.3-3.8
			c-1.9,1-4,1.7-6.2,2.2c-0.2,0-0.3,0-0.5-0.1c-2.2-2.3-4.9-3.5-8-3.5c-3.1,0-5.6,1.1-7.8,3.2c-2.2,2.2-3.2,4.7-3.2,7.8
			c0,0.9,0.1,1.8,0.3,2.5c0,0.1,0,0.3-0.1,0.4c-0.1,0.1-0.2,0.2-0.4,0.2c-0.6,0-1.2-0.1-1.7-0.1c-0.3,0-0.6-0.1-0.9-0.1
			c-3.8-0.4-7.3-1.5-10.8-3.3c-3.9-2-7.3-4.7-10.1-8C3.8,5.6,3.4,7.3,3.4,9c0,1.9,0.4,3.7,1.3,5.2c0.9,1.6,2.1,3,3.6,3.9
			c0.2,0.1,0.3,0.4,0.2,0.6c-0.1,0.2-0.3,0.4-0.5,0.3c-1.6-0.1-3.2-0.4-4.7-1.1c0.1,2.4,0.9,4.4,2.5,6.3c1.7,2,3.8,3.3,6.3,3.8
			c0.2,0,0.4,0.2,0.4,0.5c0,0.2-0.2,0.4-0.4,0.5c-1.1,0.3-2.1,0.4-3.1,0.4c-0.4,0-0.9,0-1.4,0c0.7,1.9,1.9,3.4,3.6,4.6
			c1.9,1.4,4,2.1,6.4,2.2c0.2,0,0.4,0.1,0.5,0.3c0.1,0.2,0,0.4-0.2,0.5c-4.2,3.3-9.1,5-14.6,5C3,42,2.8,42,2.5,42 M18.1,47
			c-6.5,0-12.5-1.7-17.9-5.2C0,41.7,0,41.4,0,41.2c0.1-0.2,0.3-0.4,0.5-0.3C1.3,41,2.3,41,3.3,41c4.8,0,9.1-1.3,12.9-4
			c-2.1-0.3-3.9-1-5.6-2.3c-2-1.5-3.4-3.5-4.2-5.9c-0.1-0.2,0-0.3,0.1-0.5c0.1-0.1,0.3-0.2,0.5-0.2c1,0.2,1.9,0.2,2.8,0.1
			c-1.8-0.7-3.4-1.9-4.7-3.5c-1.8-2.2-2.7-4.7-2.7-7.6v-0.1c0-0.2,0.1-0.3,0.2-0.4c0.2-0.1,0.3-0.1,0.5,0c1,0.6,2.1,1,3.2,1.2
			c-1-0.9-1.8-1.9-2.5-3.1C2.9,13,2.4,11.1,2.4,9C2.4,6.9,3,4.8,4,3c0.1-0.1,0.2-0.2,0.4-0.2c0.2,0,0.3,0.1,0.4,0.2
			c2.8,3.5,6.3,6.3,10.3,8.4c3.3,1.7,6.8,2.8,10.4,3.2c0.3,0,0.6,0.1,0.9,0.1c0.3,0,0.7,0.1,1,0.1c-0.1-0.6-0.2-1.3-0.2-2.1
			c0-3.3,1.2-6.1,3.5-8.5c2.3-2.3,5.2-3.5,8.5-3.5c3.4,0,6.2,1.2,8.6,3.6c2.5-0.5,4.8-1.4,6.9-2.7c0.2-0.1,0.4-0.1,0.6,0
			c0.2,0.1,0.2,0.3,0.2,0.5C54.8,4,53.7,5.7,53,6.7c0.8,0,2.1-0.1,3.3-0.7c0.2-0.1,0.4,0,0.6,0.1c0.1,0.2,0.2,0.4,0,0.6
			c-1.6,2.4-3.5,4.3-5.7,5.9v1.2c0,3.1-0.4,6.2-1.3,9.3c-0.9,3-2.2,6-4.2,9c-1.8,2.9-4.1,5.4-6.7,7.6c-2.6,2.2-5.6,3.9-9.3,5.3
			C26.2,46.4,22.4,47,18.1,47"/>
	</g>
</g>
</svg>
