<?xml version="1.0" encoding="UTF-8" standalone="no"?>
<svg width="150px" height="150px" viewBox="0 0 150 150" version="1.1" xmlns="http://www.w3.org/2000/svg" xmlns:xlink="http://www.w3.org/1999/xlink" xmlns:sketch="http://www.bohemiancoding.com/sketch/ns">
    <!-- Generator: Sketch 3.4.4 (17249) - http://www.bohemiancoding.com/sketch -->
    <title>logo-mozfest</title>
    <desc>Created with Sketch.</desc>
    <defs>
        <path id="path-1" d="M0,0.001 L150,0.001 L150,150 L0,150 L0,0.001 Z"></path>
    </defs>
    <g id="Page-1" stroke="none" stroke-width="1" fill="none" fill-rule="evenodd" sketch:type="MSPage">
        <g id="logo-mozfest" sketch:type="MSLayerGroup">
            <g id="Group-3">
                <mask id="mask-2" sketch:name="Clip 2" fill="white">
                    <use xlink:href="#path-1"></use>
                </mask>
                <g id="Clip-2"></g>
                <path d="M65.7831,144.8286 C71.2231,145.5516 76.7431,145.6346 82.1781,145.0786 L82.2931,144.8256 C86.7101,135.0946 96.5891,128.8066 107.4581,128.8066 C110.9701,128.8066 114.3851,129.4746 117.6081,130.7916 L117.8701,130.8996 C122.2051,127.5776 126.1491,123.7376 129.6221,119.4646 L129.5311,119.2216 C124.4201,105.6046 131.1741,89.9516 144.5831,84.3236 L144.8251,84.2216 C145.5521,78.7606 145.6381,73.2576 145.0781,67.8236 L144.8241,67.7066 C131.5851,61.6936 125.2901,45.8506 130.7941,32.3896 L130.9001,32.1266 C127.5781,27.7936 123.7381,23.8496 119.4601,20.3756 L119.2051,20.4706 C116.2051,21.5966 113.0381,22.1696 109.8001,22.1706 C98.7651,22.1706 88.5251,15.4376 84.3191,5.4166 L84.2181,5.1746 C78.7801,4.4496 73.2631,4.3616 67.8221,4.9186 L67.7051,5.1746 C63.2911,14.9046 53.4131,21.1916 42.5431,21.1916 C39.0281,21.1916 35.6101,20.5236 32.3861,19.2036 L32.1271,19.0986 C27.7981,22.4186 23.8541,26.2576 20.3781,30.5396 L20.4701,30.7846 C25.5781,44.3976 18.8241,60.0486 5.4131,65.6756 L5.1741,65.7766 C4.4481,71.2386 4.3621,76.7436 4.9181,82.1756 L5.1711,82.2896 C18.4111,88.3066 24.7051,104.1516 19.2041,117.6116 L19.0981,117.8716 C22.4191,122.2026 26.2601,126.1486 30.5391,129.6246 L30.7751,129.5336 C33.7921,128.4016 36.9591,127.8296 40.1951,127.8296 C51.2331,127.8296 61.4751,134.5636 65.6821,144.5866 L65.7831,144.8286 Z M75.0521,149.9996 C71.3201,149.9996 67.5471,149.7146 63.8391,149.1556 L62.5711,148.9646 L61.4781,146.3446 C57.9741,137.9976 49.4211,132.3866 40.1951,132.3866 C37.5081,132.3866 34.8801,132.8606 32.3851,133.7976 L29.7421,134.8026 L28.7291,134.0096 C23.3851,129.8246 18.6541,124.9636 14.6661,119.5596 L13.9061,118.5296 L14.9861,115.8876 C19.5731,104.6666 14.3251,91.4556 3.2871,86.4386 L0.6901,85.2606 L0.5351,83.9886 C-0.2709,77.3226 -0.1659,70.5426 0.8461,63.8356 L1.0371,62.5716 L3.6501,61.4736 C14.8311,56.7826 20.4621,43.7346 16.2041,32.3856 L15.2081,29.7316 L15.9961,28.7246 C20.1801,23.3806 25.0391,18.6506 30.4391,14.6666 L31.4681,13.9076 L34.1091,14.9856 C36.7861,16.0806 39.6231,16.6356 42.5431,16.6356 C51.6291,16.6356 59.8781,11.3966 63.5571,3.2906 L64.7391,0.6906 L66.0101,0.5366 C72.6691,-0.2704 79.4991,-0.1644 86.1651,0.8496 L87.4301,1.0416 L88.5221,3.6556 C92.0261,12.0036 100.5771,17.6136 109.8001,17.6136 C112.4891,17.6126 115.1181,17.1376 117.6131,16.2006 L120.2771,15.2136 L121.2791,15.9976 C126.6171,20.1776 131.3451,25.0356 135.3321,30.4366 L136.0921,31.4646 L135.0131,34.1126 C130.4231,45.3366 135.6711,58.5446 146.7101,63.5586 L149.3071,64.7416 L149.4611,66.0106 C150.2711,72.6796 150.1681,79.4596 149.1511,86.1626 L148.9601,87.4266 L146.3481,88.5246 C135.1671,93.2166 129.5361,106.2666 133.7951,117.6166 L134.7951,120.2686 L134.0051,121.2776 C129.8251,126.6146 124.9631,131.3446 119.5561,135.3336 L118.5241,136.0946 L115.8791,135.0086 C113.2111,133.9176 110.3761,133.3636 107.4581,133.3636 C98.3721,133.3636 90.1231,138.6016 86.4421,146.7096 L85.2621,149.3076 L83.9901,149.4616 C81.0371,149.8186 78.0301,149.9996 75.0521,149.9996 L75.0521,149.9996 Z" id="Fill-1" fill="#00283A" sketch:type="MSShapeGroup" mask="url(#mask-2)"></path>
            </g>
            <path d="M75.0008,25.8773 C47.9148,25.8773 25.8788,47.9133 25.8788,74.9973 C25.8788,102.0853 47.9148,124.1223 74.9998,124.1223 C102.0838,124.1223 124.1188,102.0853 124.1208,74.9983 C124.1208,61.8793 119.0118,49.5443 109.7348,40.2663 C100.4568,30.9863 88.1218,25.8773 75.0008,25.8773 M74.9998,128.6793 C45.4018,128.6793 21.3218,104.5963 21.3218,74.9973 C21.3218,45.4003 45.4018,21.3203 74.9988,21.3203 C89.3378,21.3193 102.8178,26.9033 112.9568,37.0443 C123.0938,47.1833 128.6778,60.6623 128.6768,74.9983 C128.6758,104.5983 104.5958,128.6793 74.9998,128.6793" id="Fill-4" fill="#00283A" sketch:type="MSShapeGroup"></path>
            <path d="M50.3418,94.5574 L63.3358,94.5574 L70.8388,106.8994 L57.9418,106.8994 L50.3418,94.5574 Z M57.9558,43.1024 L70.5218,43.1024 L63.1078,55.8224 L50.2948,55.8224 L57.9558,43.1024 Z M103.8198,87.8734 L95.9938,74.9964 L103.6318,61.8924 L111.9218,75.1744 L103.8198,87.8734 Z M79.2318,77.4674 L92.1638,77.4674 L99.6648,89.8104 L86.9358,89.8104 L79.2318,77.4674 Z M70.5218,77.2794 L63.1078,90.0004 L50.2948,90.0004 L57.9558,77.2794 L70.5218,77.2794 Z M63.3358,60.3794 L70.8388,72.7214 L57.9418,72.7214 L50.3418,60.3794 L63.3358,60.3794 Z M93.3438,75.0204 L93.3448,75.0204 L93.3438,75.0204 Z M87.1608,60.1904 L99.3488,60.1904 L91.9368,72.9094 L79.1238,72.9094 L80.5058,70.6174 L87.1608,60.1904 Z M74.8038,44.8044 L82.9108,57.7904 L76.6378,68.2074 L74.9928,70.7824 L67.1668,57.9084 L74.8038,44.8044 Z M67.1668,92.0844 L74.7788,79.0254 L83.0118,92.3974 L74.9938,104.9604 L67.1668,92.0844 Z M117.3108,75.2014 L105.0958,55.6324 L86.9368,55.6324 L76.2688,38.5454 L55.3808,38.5454 L43.5948,58.1144 L54.0008,75.0134 L43.5948,92.2924 L55.3958,111.4564 L76.2548,111.4564 L87.1608,94.3674 L105.0808,94.3674 L117.3108,75.2014 Z" id="Fill-6" fill="#D9081E" sketch:type="MSShapeGroup"></path>
        </g>
    </g>
</svg>