<?xml version="1.0" encoding="UTF-8" standalone="no"?>
<svg width="129px" height="130px" viewBox="0 0 129 130" version="1.1" xmlns="http://www.w3.org/2000/svg" xmlns:xlink="http://www.w3.org/1999/xlink" xmlns:sketch="http://www.bohemiancoding.com/sketch/ns">
    <!-- Generator: Sketch 3.4.4 (17249) - http://www.bohemiancoding.com/sketch -->
    <title>logo-hive</title>
    <desc>Created with Sketch.</desc>
    <defs></defs>
    <g id="Page-1" stroke="none" stroke-width="1" fill="none" fill-rule="evenodd" sketch:type="MSPage">
        <g id="logo-hive" sketch:type="MSLayerGroup">
            <path d="M27.5261,62.1063 C27.5261,63.6823 28.8031,64.9593 30.3781,64.9593 C31.9521,64.9593 33.2301,63.6823 33.2301,62.1063 C33.2301,60.5283 31.9521,59.2543 30.3781,59.2543 C28.8031,59.2543 27.5261,60.5283 27.5261,62.1063" id="Fill-1" fill="#FCD724" sketch:type="MSShapeGroup"></path>
            <path d="M54.7785,90.7391 C54.7785,92.3141 56.0565,93.5921 57.6305,93.5921 C59.2055,93.5921 60.4835,92.3141 60.4835,90.7391 C60.4835,89.1611 59.2055,87.8881 57.6305,87.8881 C56.0565,87.8881 54.7785,89.1611 54.7785,90.7391" id="Fill-3" fill="#FCD724" sketch:type="MSShapeGroup"></path>
            <path d="M29.1072,42.0962 C29.1072,43.9442 30.6032,45.4412 32.4462,45.4412 C34.2942,45.4412 35.7882,43.9442 35.7882,42.0962 C35.7882,40.2532 34.2942,38.7562 32.4462,38.7562 C30.6032,38.7562 29.1072,40.2532 29.1072,42.0962" id="Fill-5" fill="#FCD724" sketch:type="MSShapeGroup"></path>
            <path d="M31.3397,86.9454 C31.3397,88.8704 32.9037,90.4344 34.8267,90.4344 C36.7537,90.4344 38.3127,88.8704 38.3127,86.9454 C38.3127,85.0174 36.7537,83.4594 34.8267,83.4594 C32.9037,83.4594 31.3397,85.0174 31.3397,86.9454" id="Fill-7" fill="#F79531" sketch:type="MSShapeGroup"></path>
            <path d="M42.0818,58.9769 C42.0818,61.6559 44.2568,63.8309 46.9398,63.8309 C49.6128,63.8309 51.7908,61.6559 51.7908,58.9769 C51.7908,56.2999 49.6128,54.1269 46.9398,54.1269 C44.2568,54.1269 42.0818,56.2999 42.0818,58.9769" id="Fill-9" fill="#F79531" sketch:type="MSShapeGroup"></path>
            <path d="M67.0024,60.2644 C67.0024,62.4754 68.7894,64.2674 70.9984,64.2674 C73.2124,64.2674 75.0024,62.4754 75.0024,60.2644 C75.0024,58.0554 73.2124,56.2664 70.9984,56.2664 C68.7894,56.2664 67.0024,58.0554 67.0024,60.2644" id="Fill-11" fill="#FCD724" sketch:type="MSShapeGroup"></path>
            <path d="M50.2942,42.0988 C50.2942,43.6728 51.5722,44.9508 53.1462,44.9508 C54.7202,44.9508 55.9982,43.6728 55.9982,42.0988 C55.9982,40.5198 54.7202,39.2458 53.1462,39.2458 C51.5722,39.2458 50.2942,40.5198 50.2942,42.0988" id="Fill-13" fill="#9BBFE6" sketch:type="MSShapeGroup"></path>
            <path d="M53.9565,77.1768 C53.9565,79.4628 55.8055,81.3188 58.0895,81.3188 C60.3745,81.3188 62.2235,79.4628 62.2235,77.1768 C62.2235,74.8948 60.3745,73.0438 58.0895,73.0438 C55.8055,73.0438 53.9565,74.8948 53.9565,77.1768" id="Fill-15" fill="#9BBFE6" sketch:type="MSShapeGroup"></path>
            <path d="M101.0659,61.3423 L73.3869,77.3233 L73.3869,101.3603 L79.2289,97.9873 L79.2289,80.6953 L101.0659,68.0873 L122.9029,80.6953 L122.9029,105.9123 L101.0659,118.5213 L91.8339,113.1923 L85.9929,116.5653 L101.0659,125.2663 L128.7439,109.2853 L128.7439,77.3233 L101.0659,61.3423 Z" id="Fill-17" fill="#F79531" sketch:type="MSShapeGroup"></path>
            <path d="M95.6241,76.8506 L95.6241,92.9706 L71.3231,106.9986 L53.2511,117.4336 L10.8841,92.9706 L10.8841,74.5906 L10.8841,44.0406 L20.4541,38.5146 L20.4541,25.9456 L0.0001,37.7566 L0.0001,74.5906 L0.0001,99.2536 L53.2511,129.9996 L103.2661,101.1246 L106.5081,99.2536 L106.5081,76.8506 L101.0661,73.7076 L95.6241,76.8506 Z" id="Fill-19" fill="#FCD724" sketch:type="MSShapeGroup"></path>
            <path d="M93.3088,30.1358 L53.2518,7.0058 L35.8098,17.0788 L35.8098,29.6478 L53.2518,19.5748 L87.8668,39.5618 L95.6238,44.0408 L95.6238,58.8638 L101.0658,55.7218 L106.5078,58.8638 L106.5078,37.7568 L93.3088,30.1358 Z" id="Fill-21" fill="#FCD724" sketch:type="MSShapeGroup"></path>
            <path d="M22.3063,13.9443 C22.3063,15.7233 23.7443,17.1693 25.5233,17.1693 C27.3073,17.1693 28.7493,15.7233 28.7493,13.9443 C28.7493,12.1643 27.3073,10.7233 25.5233,10.7233 C23.7443,10.7233 22.3063,12.1643 22.3063,13.9443" id="Fill-23" fill="#9BBFE6" sketch:type="MSShapeGroup"></path>
            <path d="M13.7276,1.989 C13.7276,3.087 14.6186,3.979 15.7166,3.979 C16.8146,3.979 17.7056,3.087 17.7056,1.989 C17.7056,0.889 16.8146,0 15.7166,0 C14.6186,0 13.7276,0.889 13.7276,1.989" id="Fill-25" fill="#F79531" sketch:type="MSShapeGroup"></path>
        </g>
    </g>
</svg>