<?xml version="1.0" encoding="UTF-8" standalone="no"?>
<svg width="145px" height="170px" viewBox="0 0 145 170" version="1.1" xmlns="http://www.w3.org/2000/svg" xmlns:xlink="http://www.w3.org/1999/xlink" xmlns:sketch="http://www.bohemiancoding.com/sketch/ns">
    <!-- Generator: Sketch 3.4.4 (17249) - http://www.bohemiancoding.com/sketch -->
    <title>logo-makerparty</title>
    <desc>Created with Sketch.</desc>
    <defs>
        <path id="path-1" d="M0,0.062 L145,0.062 L145,170 L0,170"></path>
    </defs>
    <g id="Page-1" stroke="none" stroke-width="1" fill="none" fill-rule="evenodd" sketch:type="MSPage">
        <g id="logo-makerparty" sketch:type="MSLayerGroup">
            <g id="Group-3">
                <mask id="mask-2" sketch:name="Clip 2" fill="white">
                    <use xlink:href="#path-1"></use>
                </mask>
                <g id="Clip-2"></g>
                <path d="M142.7255,39.8338 L74.7745,0.6038 C73.5235,-0.1182 71.4755,-0.1182 70.2255,0.6038 L2.2745,39.8338 C1.0235,40.5558 0.0005,42.3288 0.0005,43.7728 L0.0005,122.2378 C0.0005,123.6818 1.0235,125.4548 2.2745,126.1768 L20.9255,136.9448 L21.3755,169.9998 L47.3375,152.1928 L70.2255,165.4068 C71.4755,166.1288 73.5235,166.1288 74.7745,165.4068 L142.7215,126.1768 C143.9725,125.4548 144.9955,123.6818 144.9955,122.2378 L145.0005,43.7728 C145.0005,42.3288 143.9765,40.5558 142.7255,39.8338" id="Fill-1" fill="#00A1A6" sketch:type="MSShapeGroup" mask="url(#mask-2)"></path>
            </g>
            <path d="M78.3272,76.1055 L79.9772,75.1205 L84.0492,82.9995 L90.3372,82.9995 L83.9522,71.6255 L90.4492,62.3895 L84.3592,62.3895 L80.0332,68.7055 C79.1772,69.9085 78.6052,70.7865 78.3272,71.3415 L78.3272,62.3895 L72.7282,62.3895 L72.7282,82.9995 L78.3272,82.9995 L78.3272,76.1055 Z" id="Fill-4" fill="#FFE400" sketch:type="MSShapeGroup"></path>
            <path d="M104.8018,78.4615 L98.1338,78.4615 L98.1338,74.5695 L104.3078,74.5695 L104.3078,70.1005 L98.1338,70.1005 L98.1338,66.8575 L104.8018,66.8575 L104.8018,62.3895 L92.5648,62.3895 L92.5648,82.9995 L104.8018,82.9995 L104.8018,78.4615 Z" id="Fill-6" fill="#FFE400" sketch:type="MSShapeGroup"></path>
            <path d="M79.6794,91.9917 L84.7154,91.9917 L84.7154,108.0497 L90.2804,108.0497 L90.2804,91.9917 L95.2994,91.9917 L95.2994,87.4367 L79.6794,87.4367 L79.6794,91.9917 Z" id="Fill-8" fill="#FFE400" sketch:type="MSShapeGroup"></path>
            <path d="M63.6906,62.3055 L61.6226,62.3055 L60.3566,67.2765 C60.4276,67.5775 60.5066,67.9055 60.5956,68.2675 C60.8936,69.4605 61.1446,70.4345 61.3516,71.1875 L62.2416,74.5695 L58.4996,74.5695 L57.3356,79.1375 L63.3966,79.1375 L64.4106,82.9995 L70.4996,82.9995 L63.6906,62.3055 Z" id="Fill-10" fill="#FFE400" sketch:type="MSShapeGroup"></path>
            <path d="M59.9975,65.776 C60.0015,65.751 60.0065,65.724 60.0115,65.701 C60.0115,65.705 60.0125,65.71 60.0135,65.714 L60.8805,62.306 L56.2625,62.306 L49.5375,83 L55.6125,83 L59.9975,65.776 Z" id="Fill-12" fill="#FFE400" sketch:type="MSShapeGroup"></path>
            <path d="M105.3419,94.5044 L102.0819,87.4364 L96.0179,87.4364 L102.6399,99.8674 L105.3419,94.5044 Z" id="Fill-14" fill="#FFE400" sketch:type="MSShapeGroup"></path>
            <path d="M109.7085,87.4368 L102.7995,101.1478 L102.7995,108.0498 L108.4095,108.0498 L108.4095,99.9988 L115.1935,87.4368 L109.7085,87.4368 Z" id="Fill-16" fill="#FFE400" sketch:type="MSShapeGroup"></path>
            <path d="M48.8005,91.4291 C48.8555,91.1581 48.9005,90.9321 48.9325,90.7511 C48.9375,90.7791 48.9445,90.8131 48.9495,90.8431 L49.8385,87.3521 L45.1835,87.3521 L38.4595,108.0501 L44.5695,108.0501 L48.8005,91.4291 Z" id="Fill-18" fill="#FFE400" sketch:type="MSShapeGroup"></path>
            <path d="M52.6125,87.352 L50.5805,87.352 L49.2955,92.401 C49.3615,92.68 49.4355,92.983 49.5185,93.314 C49.8135,94.506 50.0645,95.482 50.2725,96.234 L51.1605,99.617 L47.4575,99.617 L46.2945,104.184 L52.3165,104.184 L53.3325,108.05 L59.4225,108.05 L52.6125,87.352 Z" id="Fill-20" fill="#FFE400" sketch:type="MSShapeGroup"></path>
            <path d="M113.5163,62.3898 L108.4123,62.3898 L108.4123,82.9998 L113.4373,82.9998 L113.5163,62.3898 Z" id="Fill-22" fill="#FFE400" sketch:type="MSShapeGroup"></path>
            <path d="M120.0719,74.0203 C122.4029,72.7133 123.5659,70.8673 123.5659,68.4793 C123.5659,64.4173 120.7669,62.3903 115.1639,62.3903 L114.2339,62.3903 L114.2169,66.6053 L115.0789,66.6053 C116.9879,66.6053 117.9429,67.3113 117.9429,68.7343 C117.9429,70.4523 116.9669,71.3143 115.0229,71.3143 L114.1989,71.3143 L114.1829,75.5003 L115.3909,75.5003 L119.7609,83.0003 L126.0769,83.0003 L120.0719,74.0203 Z" id="Fill-24" fill="#FFE400" sketch:type="MSShapeGroup"></path>
            <path d="M39.8935,62.3898 L35.7095,76.9218 L37.2615,82.9998 L38.1315,82.9998 L42.2915,68.1838 L42.4165,68.1838 C42.3055,70.4188 42.2415,71.8248 42.2255,72.3988 C42.2145,72.9708 42.2055,73.4928 42.2055,73.9648 L42.2055,82.9998 L47.3245,82.9998 L47.3245,62.3898 L39.8935,62.3898 Z" id="Fill-26" fill="#FFE400" sketch:type="MSShapeGroup"></path>
            <path d="M32.8308,82.9999 L36.5208,82.9999 L31.2578,62.3899 L23.8498,62.3899 L23.8498,82.9999 L28.7848,82.9999 L28.7848,74.0479 C28.7848,72.6479 28.6868,70.6829 28.4898,68.1539 L28.6178,68.1539 L32.8308,82.9999 Z" id="Fill-28" fill="#FFE400" sketch:type="MSShapeGroup"></path>
            <path d="M67.0256,87.4368 L61.6486,87.4368 L61.6486,108.0498 L66.9476,108.0498 L67.0256,87.4368 Z" id="Fill-30" fill="#FFE400" sketch:type="MSShapeGroup"></path>
            <path d="M73.3053,99.0676 C75.6373,97.7606 76.8033,95.9136 76.8033,93.5266 C76.8033,89.4676 74.0023,87.4366 68.4033,87.4366 L67.7423,87.4366 L67.7273,91.6536 L68.3173,91.6536 C70.2253,91.6536 71.1783,92.3616 71.1783,93.7786 C71.1783,95.4996 70.2073,96.3616 68.2613,96.3616 L67.7093,96.3616 L67.6933,100.5466 L68.6283,100.5466 L72.9973,108.0496 L79.3143,108.0496 L73.3053,99.0676 Z" id="Fill-32" fill="#FFE400" sketch:type="MSShapeGroup"></path>
            <path d="M29.105,87.4368 L23.85,87.4368 L23.85,108.0498 L29.025,108.0498 L29.105,87.4368 Z" id="Fill-34" fill="#FFE400" sketch:type="MSShapeGroup"></path>
            <path d="M36.8494,89.1425 C35.5424,88.0055 33.5874,87.4365 30.9844,87.4365 L29.8244,87.4365 L29.8074,91.9355 L30.8574,91.9355 C32.3964,91.9355 33.1714,92.6285 33.1714,94.0205 C33.1714,94.8475 32.9224,95.4955 32.4294,95.9645 C31.9364,96.4355 31.2714,96.6715 30.4354,96.6715 L29.7884,96.6715 L29.7714,101.2085 L30.9844,101.2085 C33.4854,101.2085 35.4134,100.5835 36.7714,99.3265 C38.1294,98.0725 38.8104,96.2935 38.8104,93.9915 C38.8104,91.8965 38.1564,90.2785 36.8494,89.1425" id="Fill-36" fill="#FFE400" sketch:type="MSShapeGroup"></path>
        </g>
    </g>
</svg>