<?xml version="1.0" encoding="UTF-8" standalone="no"?>
<svg width="121px" height="69px" viewBox="0 0 121 69" version="1.1" xmlns="http://www.w3.org/2000/svg" xmlns:xlink="http://www.w3.org/1999/xlink" xmlns:sketch="http://www.bohemiancoding.com/sketch/ns">
    <!-- Generator: Sketch 3.4.4 (17249) - http://www.bohemiancoding.com/sketch -->
    <title>logo-clubs</title>
    <desc>Created with Sketch.</desc>
    <defs>
        <path id="path-1" d="M0,0.883 L120.646,0.883 L120.646,69 L0,69 L0,0.883 Z"></path>
    </defs>
    <g id="Page-1" stroke="none" stroke-width="1" fill="none" fill-rule="evenodd" sketch:type="MSPage">
        <g id="logo-clubs" sketch:type="MSLayerGroup">
            <path d="M21.2764,31.3926 L20.7064,20.7146 C20.4784,16.9546 20.3644,13.0016 20.4784,10.0016 L16.0334,28.5796 L10.7524,28.5796 L6.0034,9.9626 C6.2314,13.6486 6.1934,17.1446 6.0034,20.8296 L5.4334,31.3926 L0.0004,31.3926 L2.0514,5.0996 L9.1564,5.0996 L13.4874,23.2226 L17.5534,5.0996 L24.7344,5.0996 L26.7484,31.3926 L21.2764,31.3926 Z" id="Fill-1" fill="#A3A3A3" sketch:type="MSShapeGroup"></path>
            <path d="M35.5293,21.3242 C35.5293,25.9592 36.8973,27.9722 39.5563,27.9722 C42.2163,27.9722 43.5843,25.9222 43.5843,21.3242 C43.5843,16.6872 42.2163,14.6742 39.5943,14.6742 C36.8973,14.6742 35.5293,16.7262 35.5293,21.3242 M49.2073,21.3242 C49.2073,27.7072 45.5973,32.0002 39.5563,32.0002 C33.5533,32.0002 29.9063,28.0102 29.9063,21.3242 C29.9063,14.9022 33.5153,10.6462 39.5943,10.6462 C45.5973,10.6462 49.2073,14.6372 49.2073,21.3242" id="Fill-3" fill="#A3A3A3" sketch:type="MSShapeGroup"></path>
            <path d="M57.4551,27.2129 L67.1061,27.2129 L66.5741,31.3929 L51.2621,31.3929 L51.2621,27.5179 L60.7231,15.3969 L52.0601,15.3969 L52.0601,11.2559 L66.9161,11.2559 L66.9161,15.0919 L57.4551,27.2129 Z" id="Fill-5" fill="#A3A3A3" sketch:type="MSShapeGroup"></path>
            <mask id="mask-2" sketch:name="Clip 8" fill="white">
                <use xlink:href="#path-1"></use>
            </mask>
            <g id="Clip-8"></g>
            <path d="M70.566,11.256 L75.961,11.256 L75.961,31.393 L70.566,31.393 L70.566,11.256 Z M76.531,4.037 C76.531,5.822 75.163,7.189 73.226,7.189 C71.288,7.189 69.958,5.822 69.958,4.037 C69.958,2.25 71.288,0.883 73.226,0.883 C75.163,0.883 76.531,2.25 76.531,4.037 L76.531,4.037 Z" id="Fill-7" fill="#A3A3A3" sketch:type="MSShapeGroup" mask="url(#mask-2)"></path>
            <path d="M86.4868,26.1113 C86.4868,27.2503 86.8288,27.7073 87.5508,27.7073 C87.9308,27.7073 88.3488,27.6313 88.6528,27.4783 L89.7548,31.3163 C88.7288,31.7343 87.3988,32.0003 86.1068,32.0003 C82.9158,32.0003 81.0918,30.0993 81.0918,26.6053 L81.0918,3.2383 L86.4868,2.6313 L86.4868,26.1113 Z" id="Fill-9" fill="#A3A3A3" sketch:type="MSShapeGroup" mask="url(#mask-2)"></path>
            <path d="M97.7344,26.1113 C97.7344,27.2503 98.0764,27.7073 98.7984,27.7073 C99.1784,27.7073 99.5964,27.6313 99.9004,27.4783 L101.0024,31.3163 C99.9764,31.7343 98.6464,32.0003 97.3544,32.0003 C94.1634,32.0003 92.3394,30.0993 92.3394,26.6053 L92.3394,3.2383 L97.7344,2.6313 L97.7344,26.1113 Z" id="Fill-10" fill="#A3A3A3" sketch:type="MSShapeGroup" mask="url(#mask-2)"></path>
            <path d="M113.8833,25.8828 L113.8833,22.0448 L112.0973,22.0448 C109.1723,22.0448 107.7283,23.1098 107.7283,25.3128 C107.7283,27.0998 108.6403,28.1248 110.3123,28.1248 C111.8693,28.1248 113.0473,27.3258 113.8833,25.8828 L113.8833,25.8828 Z M119.1643,25.8068 C119.1643,27.4418 119.6583,28.0098 120.6463,28.3538 L119.5063,31.9238 C117.2263,31.7348 115.7073,30.9748 114.8713,28.9608 C113.4273,31.1638 111.2233,31.9998 108.8303,31.9998 C104.8023,31.9998 102.2953,29.4158 102.2953,25.7698 C102.2953,21.3618 105.6003,18.9688 111.5653,18.9688 L113.8833,18.9688 L113.8833,17.9808 C113.8833,15.4728 112.8193,14.6738 110.2743,14.6738 C108.9443,14.6738 107.0063,15.0548 104.9543,15.7378 L103.7383,12.1288 C106.2463,11.1408 108.9063,10.6468 111.1853,10.6468 C116.7713,10.6468 119.1643,13.1168 119.1643,17.6758 L119.1643,25.8068 Z" id="Fill-11" fill="#A3A3A3" sketch:type="MSShapeGroup" mask="url(#mask-2)"></path>
            <path d="M33.3989,44.3418 L30.5869,47.6098 C29.1439,46.3558 27.6239,45.7088 25.7999,45.7088 C22.3049,45.7088 19.7209,48.3688 19.7209,55.2088 C19.7209,61.8188 22.2669,64.5918 25.8759,64.5918 C28.0799,64.5918 29.5999,63.5668 31.1199,62.3888 L33.7029,65.6958 C32.0309,67.4038 29.2579,68.9998 25.6099,68.9998 C18.6189,68.9998 13.8319,64.1738 13.8319,55.2088 C13.8319,46.3558 18.8849,41.4918 25.4579,41.4918 C28.9539,41.4918 31.2329,42.5178 33.3989,44.3418" id="Fill-12" fill="#A3A3A3" sketch:type="MSShapeGroup" mask="url(#mask-2)"></path>
            <path d="M41.9507,63.1113 C41.9507,64.2503 42.2927,64.7073 43.0147,64.7073 C43.3947,64.7073 43.8127,64.6313 44.1167,64.4783 L45.2187,68.3163 C44.1927,68.7343 42.8627,69.0003 41.5707,69.0003 C38.3797,69.0003 36.5557,67.0993 36.5557,63.6053 L36.5557,40.2383 L41.9507,39.6313 L41.9507,63.1113 Z" id="Fill-13" fill="#A3A3A3" sketch:type="MSShapeGroup" mask="url(#mask-2)"></path>
            <path d="M59.8096,68.3926 L59.5436,65.6956 C58.0996,67.9356 56.1236,68.9996 53.4266,68.9996 C49.7026,68.9996 47.8036,66.6056 47.8036,62.7306 L47.8036,48.2556 L53.1986,48.2556 L53.1986,62.0466 C53.1986,64.2496 53.9206,64.9726 55.4016,64.9726 C56.8836,64.9726 58.1376,63.9846 59.0876,62.3516 L59.0876,48.2556 L64.4826,48.2556 L64.4826,68.3926 L59.8096,68.3926 Z" id="Fill-14" fill="#A3A3A3" sketch:type="MSShapeGroup" mask="url(#mask-2)"></path>
            <path d="M82.5327,58.3242 C82.5327,53.0802 81.0507,51.6372 78.9237,51.6372 C77.3277,51.6372 76.0737,52.7012 75.1997,54.2202 L75.1997,62.8452 C76.0357,64.2132 77.2517,65.0102 78.6957,65.0102 C80.9367,65.0102 82.5327,63.2242 82.5327,58.3242 M88.1557,58.3242 C88.1557,64.5542 85.1547,69.0002 80.1777,69.0002 C77.9357,69.0002 76.1497,68.0512 74.8957,66.4162 L74.5917,68.3922 L69.8047,68.3922 L69.8047,40.2382 L75.1997,39.6312 L75.1997,50.4202 C76.4157,48.7112 78.4287,47.6462 80.5957,47.6462 C85.4587,47.6462 88.1557,51.5972 88.1557,58.3242" id="Fill-15" fill="#A3A3A3" sketch:type="MSShapeGroup" mask="url(#mask-2)"></path>
            <path d="M106.4346,50.0781 L104.3826,53.2321 C102.7486,52.1311 101.1156,51.5601 99.5196,51.5601 C97.5816,51.5601 96.5936,52.2831 96.5936,53.3851 C96.5936,54.5621 97.2776,55.0941 100.8116,56.1191 C104.8386,57.2231 107.1186,58.8921 107.1186,62.4651 C107.1186,66.6441 103.2056,69.0001 98.4176,69.0001 C94.9226,69.0001 92.1106,67.8221 90.2106,66.0741 L92.9086,63.0721 C94.3906,64.2891 96.2516,65.0861 98.2276,65.0861 C100.2796,65.0861 101.5716,64.2501 101.5716,62.9221 C101.5716,61.3631 100.8496,60.8691 97.1256,59.8441 C93.0606,58.7031 91.1606,56.6891 91.1606,53.6501 C91.1606,50.2301 94.2766,47.6461 99.1396,47.6461 C102.0646,47.6461 104.5346,48.5581 106.4346,50.0781" id="Fill-16" fill="#A3A3A3" sketch:type="MSShapeGroup" mask="url(#mask-2)"></path>
        </g>
    </g>
</svg>