<?xml version="1.0" encoding="UTF-8" standalone="no"?>
<svg width="131px" height="45px" viewBox="0 0 131 45" version="1.1" xmlns="http://www.w3.org/2000/svg" xmlns:xlink="http://www.w3.org/1999/xlink" xmlns:sketch="http://www.bohemiancoding.com/sketch/ns">
    <!-- Generator: Sketch 3.4.4 (17249) - http://www.bohemiancoding.com/sketch -->
    <title>logo-gigabit</title>
    <desc>Created with Sketch.</desc>
    <defs>
        <path id="path-1" d="M0,0.191 L130.066,0.191 L130.066,45 L0,45"></path>
    </defs>
    <g id="Page-1" stroke="none" stroke-width="1" fill="none" fill-rule="evenodd" sketch:type="MSPage">
        <g id="logo-gigabit" sketch:type="MSLayerGroup">
            <path d="M14.6154,36.1733 C9.9364,36.1733 6.3184,34.6783 3.7144,31.4473 C1.1584,28.3113 0.0004,24.5483 0.0004,19.2913 C0.0004,12.4423 2.0744,7.6673 6.2704,4.5313 C8.6824,2.6993 11.2864,1.9273 14.5184,1.9273 C18.3284,1.9273 21.7054,3.0853 24.4544,5.4493 L21.6574,8.9213 C19.3414,7.1363 17.1714,6.3653 14.6154,6.3653 C8.4414,6.3653 6.1734,11.7673 6.1734,19.5813 C6.1734,24.2593 7.0424,27.5393 8.6334,29.4203 C9.9854,31.0123 12.3964,31.9293 14.9524,31.9293 C16.6894,31.9293 18.1364,31.5433 19.3904,30.8673 L19.3904,22.1863 L13.6984,22.1863 L12.9274,17.6513 L25.0334,17.6513 L25.0334,33.3753 C21.9944,35.2093 18.3284,36.1733 14.6154,36.1733" id="Fill-1" fill="#A3A3A3" sketch:type="MSShapeGroup"></path>
            <path d="M29.241,35.7392 L29.241,11.7192 L34.596,10.7542 L34.596,35.7392 L29.241,35.7392 Z M31.894,7.7152 C29.965,7.7152 28.47,6.1242 28.47,4.1942 C28.47,2.2172 30.013,0.6252 31.991,0.6252 C33.871,0.6252 35.464,2.1692 35.464,4.1942 C35.464,6.1242 33.871,7.7152 31.894,7.7152 L31.894,7.7152 Z" id="Fill-3" fill="#A3A3A3" sketch:type="MSShapeGroup"></path>
            <path d="M47.4746,14.7577 C44.7726,14.7577 43.2786,16.2527 43.2786,19.0017 C43.2786,21.7997 44.8696,23.1027 47.4746,23.1027 C50.2236,23.1027 51.6706,21.6547 51.6706,18.9537 C51.6706,16.2047 50.2716,14.7577 47.4746,14.7577 M57.6036,15.2397 C56.5906,15.2397 55.8676,15.0467 55.7226,14.9987 C55.8676,15.1437 57.3136,16.7357 57.3136,19.2427 C57.3136,23.4877 53.7926,26.7197 48.0526,26.7197 C46.3166,27.3467 44.7726,28.2627 44.7726,29.0347 C44.7726,29.9517 45.1106,30.0477 50.8506,30.0477 C54.7576,30.0477 58.9546,32.0247 58.9546,36.9937 C58.9546,42.2017 54.6126,44.9997 48.1016,44.9997 C41.7826,44.9997 37.2006,42.9267 37.2006,38.3437 C37.2006,37.1867 37.6826,35.7387 37.6826,35.7387 L42.6996,35.7387 C42.6996,35.7387 42.3126,36.7037 42.3126,37.4757 C42.3126,39.7427 44.2426,40.9967 47.6676,40.9967 C51.4296,40.9967 53.4556,39.4537 53.4556,37.1867 C53.4556,34.5337 51.2366,33.8097 46.7026,33.8097 C40.1426,33.8097 38.6956,32.5067 38.6956,30.0957 C38.6956,27.6837 40.7216,26.7197 43.3266,25.8987 C39.6606,24.8387 37.7796,22.4747 37.7796,19.0017 C37.7796,14.0347 41.6856,10.7547 47.5226,10.7547 C50.9956,10.7547 52.9736,12.0077 54.9506,12.0077 C56.5426,12.0077 58.0376,11.4297 59.3886,10.3207 L61.8476,13.6487 C60.4976,14.8057 59.2436,15.2397 57.6036,15.2397" id="Fill-5" fill="#A3A3A3" sketch:type="MSShapeGroup"></path>
            <path d="M74.4055,24.2116 C69.0995,24.2116 67.5085,25.7546 67.5085,28.8416 C67.5085,31.1566 68.7615,32.6046 70.8845,32.6046 C72.5725,32.6046 74.2125,31.5906 75.2735,30.0476 L75.3695,24.2596 C75.3695,24.2596 74.7915,24.2116 74.4055,24.2116 L74.4055,24.2116 Z M79.9045,36.7526 C78.4085,36.1736 77.1545,35.0156 76.5765,33.4726 C74.5985,35.6916 72.4755,36.4626 69.8715,36.4626 C64.2765,36.4626 61.7685,33.3756 61.7685,29.1316 C61.7685,23.4876 66.0125,20.6426 73.8265,20.6426 L75.4665,20.6426 L75.4665,19.3396 C75.4665,16.5426 74.9845,15.0466 72.0905,15.0466 C68.5695,15.0466 64.8065,17.8446 64.8065,17.8446 L62.4435,14.0346 C66.1085,11.7186 69.1475,10.7056 72.8135,10.7056 C76.6245,10.7056 79.1805,12.1046 80.2415,14.7576 C80.6755,15.8186 80.6755,17.1216 80.6275,20.7386 L80.5315,27.7326 C80.4835,31.0126 80.7725,32.0726 82.6535,33.3756 L79.9045,36.7526 Z" id="Fill-7" fill="#A3A3A3" sketch:type="MSShapeGroup"></path>
            <g id="Group-11">
                <mask id="mask-2" sketch:name="Clip 10" fill="white">
                    <use xlink:href="#path-1"></use>
                </mask>
                <g id="Clip-10"></g>
                <path d="M95.0516,15.2399 C92.8326,15.2399 91.3856,16.4939 90.4216,17.6999 L90.4216,29.6129 C91.4826,30.7229 93.0256,31.7359 94.9556,31.7359 C98.2836,31.7359 99.7296,29.3239 99.7296,23.1979 C99.7296,18.8089 98.8616,15.2399 95.0516,15.2399 M95.9676,36.2699 C93.5566,36.2699 91.5306,35.3049 90.0346,33.4729 C89.7936,34.7259 89.7456,35.0639 89.3596,35.7389 L84.4886,35.7389 C84.9226,34.6299 85.1156,33.5689 85.1156,30.2889 L85.1156,7.2819 C85.1156,4.4839 84.9226,2.7469 84.4886,1.3969 L89.9866,0.1909 C90.2766,1.9279 90.3736,3.1329 90.3736,5.0629 L90.3736,10.7549 C90.3736,12.3459 90.2286,13.0689 90.2286,13.0689 L90.4216,13.1169 C92.1096,11.4779 93.8946,10.7549 96.2086,10.7549 C102.0456,10.7549 105.7106,15.5289 105.7106,23.1499 C105.7106,30.9639 101.6596,36.2699 95.9676,36.2699" id="Fill-9" fill="#A3A3A3" sketch:type="MSShapeGroup" mask="url(#mask-2)"></path>
            </g>
            <path d="M108.8773,35.7392 L108.8773,11.7192 L114.2313,10.7542 L114.2313,35.7392 L108.8773,35.7392 Z M111.5303,7.7152 C109.6003,7.7152 108.1053,6.1242 108.1053,4.1942 C108.1053,2.2172 109.6483,0.6252 111.6263,0.6252 C113.5073,0.6252 115.0993,2.1692 115.0993,4.1942 C115.0993,6.1242 113.5073,7.7152 111.5303,7.7152 L111.5303,7.7152 Z" id="Fill-12" fill="#A3A3A3" sketch:type="MSShapeGroup"></path>
            <path d="M125.2903,36.3663 C120.5643,36.3663 118.9243,33.5683 118.9243,30.0953 L118.9243,14.9983 L116.2223,14.9983 L116.2223,11.3323 L118.9243,11.3323 C118.9243,9.2593 118.9243,7.1363 119.1653,5.3033 L124.6153,4.0013 C124.3743,5.9793 124.1813,8.9213 124.1813,11.3323 L130.0173,11.3323 L128.6193,14.9983 L124.1333,14.9983 L124.1333,28.6973 C124.1333,31.7363 124.8083,32.6043 127.1243,32.6043 C127.8473,32.6043 128.4743,32.4593 129.3903,32.1223 L130.0653,35.3053 C128.4743,36.0283 126.9303,36.3663 125.2903,36.3663" id="Fill-14" fill="#A3A3A3" sketch:type="MSShapeGroup"></path>
        </g>
    </g>
</svg>