<?xml version="1.0" encoding="UTF-8" standalone="no"?>
<svg width="200px" height="200px" viewBox="0 0 200 200" version="1.1" xmlns="http://www.w3.org/2000/svg" xmlns:xlink="http://www.w3.org/1999/xlink" xmlns:sketch="http://www.bohemiancoding.com/sketch/ns">
    <!-- Generator: Sketch 3.4.4 (17249) - http://www.bohemiancoding.com/sketch -->
    <title>icon-circle-mln</title>
    <desc>Created with Sketch.</desc>
    <defs></defs>
    <g id="Page-1" stroke="none" stroke-width="1" fill="none" fill-rule="evenodd" sketch:type="MSPage">
        <g id="icon-circle-mln" sketch:type="MSLayerGroup" fill="#A0D4B2">
            <path d="M82.0884,179.5674 L79.6564,178.5214 L79.1824,178.9324 C78.1884,179.7944 77.0664,180.4754 75.8494,180.9574 L75.2704,181.1854 L75.0584,183.7944 L72.3314,184.2024 L71.3764,181.7984 L70.7474,181.7554 C69.4284,181.6664 68.1324,181.3474 66.8974,180.8084 L66.3244,180.5594 L64.3714,182.2194 L62.1554,180.5804 L63.1624,178.2434 L62.7494,177.7684 C61.8594,176.7474 61.1614,175.5934 60.6754,174.3394 L60.4484,173.7554 L57.9314,173.5504 L57.5234,170.8234 L59.8714,169.8914 L59.9174,169.2664 C60.0154,167.9234 60.3444,166.6164 60.8964,165.3794 L61.1534,164.8044 L59.5054,162.8644 L61.1464,160.6484 L63.5024,161.6634 L63.9754,161.2574 C64.9984,160.3814 66.1434,159.6984 67.3784,159.2264 L67.9664,159.0014 L68.1754,156.4224 L70.9024,156.0154 L71.8684,158.4454 L72.4884,158.4954 C73.7964,158.6004 75.0684,158.9234 76.2694,159.4564 L76.8434,159.7114 L78.8624,157.9974 L81.0784,159.6364 L80.0214,162.0884 L80.4254,162.5614 C81.2724,163.5534 81.9394,164.6654 82.4094,165.8684 L82.6364,166.4504 L85.3034,166.6674 L85.7114,169.3934 L83.2284,170.3794 L83.1804,171.0024 C83.0824,172.2944 82.7694,173.5544 82.2494,174.7484 L82.0004,175.3194 L83.7284,177.3534 L82.0884,179.5674 Z M85.1124,171.7834 L87.9244,170.6674 L87.0464,164.8024 L84.0284,164.5574 C83.5834,163.5594 83.0194,162.6184 82.3444,161.7514 L83.5434,158.9724 L78.7764,155.4454 L76.4944,157.3844 C75.4564,156.9804 74.3784,156.7064 73.2744,156.5664 L72.1764,153.8024 L66.3104,154.6794 L66.0734,157.5994 C65.0384,158.0524 64.0634,158.6354 63.1624,159.3394 L60.4824,158.1844 L56.9534,162.9494 L58.8244,165.1514 C58.4024,166.2284 58.1204,167.3454 57.9834,168.4894 L55.3104,169.5504 L56.1884,175.4164 L59.0534,175.6484 C59.5184,176.7004 60.1154,177.6874 60.8344,178.5934 L59.6904,181.2454 L64.4574,184.7714 L66.6814,182.8804 C67.7504,183.2904 68.8534,183.5624 69.9764,183.6924 L71.0574,186.4144 L76.9234,185.5384 L77.1644,182.5714 C78.1774,182.1154 79.1294,181.5384 80.0034,180.8474 L82.7534,182.0304 L86.2804,177.2674 L84.3214,174.9634 C84.7134,173.9364 84.9784,172.8714 85.1124,171.7834 L85.1124,171.7834 Z" id="Fill-1" sketch:type="MSShapeGroup"></path>
            <path d="M73.7285,171.73 C73.2985,172.311 72.6675,172.689 71.9495,172.796 C71.2325,172.903 70.5215,172.725 69.9405,172.295 C69.3585,171.865 68.9795,171.235 68.8735,170.52 C68.6525,169.044 69.6745,167.663 71.1525,167.44 C72.6215,167.222 74.0075,168.242 74.2285,169.72 C74.3355,170.435 74.1585,171.149 73.7285,171.73 M70.8555,165.462 L70.8545,165.462 C68.2865,165.849 66.5105,168.251 66.8955,170.815 C67.0805,172.058 67.7395,173.155 68.7505,173.903 C69.5695,174.509 70.5395,174.827 71.5375,174.827 C71.7725,174.827 72.0095,174.81 72.2455,174.774 C73.4905,174.589 74.5875,173.931 75.3355,172.919 C76.0845,171.909 76.3935,170.667 76.2065,169.423 C75.8235,166.856 73.4265,165.084 70.8555,165.462" id="Fill-3" sketch:type="MSShapeGroup"></path>
            <path d="M179.7285,145.5962 L177.7715,145.7552 L177.5455,146.3402 C177.1695,147.3092 176.6305,148.2012 175.9415,148.9922 L175.5285,149.4672 L176.3115,151.2842 L174.8255,152.3842 L173.3065,151.0932 L172.7345,151.3432 C171.7795,151.7602 170.7775,152.0062 169.7585,152.0752 L169.1285,152.1172 L168.3865,153.9882 L166.5565,153.7152 L166.3915,151.6872 L165.8135,151.4582 C164.8705,151.0842 164.0025,150.5572 163.2355,149.8912 L162.7615,149.4802 L160.8695,150.2952 L159.7705,148.8092 L161.1125,147.2282 L160.8645,146.6582 C160.4615,145.7282 160.2205,144.7542 160.1455,143.7622 L160.0995,143.1382 L158.1665,142.3692 L158.4395,140.5412 L160.5145,140.3712 L160.7415,139.7892 C161.1045,138.8602 161.6205,138.0002 162.2755,137.2322 L162.6795,136.7592 L161.8565,134.8532 L163.3435,133.7542 L164.9145,135.0882 L165.4885,134.8332 C166.4175,134.4202 167.4015,134.1702 168.4115,134.0902 L169.0315,134.0402 L169.7825,132.1492 L171.6115,132.4232 L171.7745,134.4282 L172.3635,134.6532 C173.3185,135.0182 174.2035,135.5472 174.9955,136.2252 L175.4685,136.6302 L177.2995,135.8412 L178.3995,137.3272 L177.1185,138.8362 L177.3745,139.4112 C177.8015,140.3682 178.0565,141.3792 178.1315,142.4152 L178.1765,143.0412 L180.0025,143.7662 L179.7285,145.5962 Z M179.4445,139.1872 L180.9515,137.4122 L177.9635,133.3772 L175.8045,134.3082 C175.1385,133.8002 174.4235,133.3722 173.6675,133.0312 L173.4775,130.6792 L168.5095,129.9362 L167.6245,132.1642 C166.8185,132.2752 166.0295,132.4752 165.2665,132.7632 L163.4295,131.2022 L159.3925,134.1892 L160.3575,136.4262 C159.8715,137.0662 159.4595,137.7532 159.1265,138.4782 L156.6965,138.6772 L155.9535,143.6432 L158.2175,144.5422 C158.3235,145.3332 158.5165,146.1112 158.7945,146.8672 L157.2185,148.7242 L160.2055,152.7592 L162.4175,151.8052 C163.0625,152.3032 163.7585,152.7262 164.4975,153.0682 L164.6925,155.4592 L169.6595,156.2002 L170.5305,154.0082 C171.3525,153.9032 172.1615,153.7042 172.9475,153.4122 L174.7395,154.9342 L178.7755,151.9502 L177.8555,149.8122 C178.3755,149.1412 178.8125,148.4172 179.1635,147.6492 L181.4715,147.4612 L182.2155,142.4922 L180.0615,141.6382 C179.9525,140.8012 179.7455,139.9802 179.4445,139.1872 L179.4445,139.1872 Z" id="Fill-5" sketch:type="MSShapeGroup"></path>
            <path d="M174.0371,143.7119 C173.8381,145.0499 173.1281,146.2299 172.0391,147.0359 C170.9491,147.8409 169.6131,148.1769 168.2731,147.9729 C166.9331,147.7739 165.7501,147.0639 164.9451,145.9749 C164.1401,144.8869 163.8081,143.5509 164.0091,142.2119 C164.2101,140.8719 164.9191,139.6899 166.0081,138.8839 C166.8891,138.2319 167.9331,137.8889 169.0111,137.8889 C169.2631,137.8889 169.5181,137.9079 169.7731,137.9459 C172.5381,138.3629 174.4511,140.9489 174.0371,143.7119 M170.0701,135.9679 L170.0691,135.9679 C168.2021,135.6889 166.3351,136.1519 164.8171,137.2769 C163.3001,138.3999 162.3111,140.0479 162.0321,141.9159 C161.7501,143.7829 162.2141,145.6469 163.3371,147.1649 C164.4601,148.6839 166.1091,149.6729 167.9771,149.9509 C168.3331,150.0049 168.6881,150.0309 169.0411,150.0309 C170.5421,150.0309 171.9981,149.5539 173.2281,148.6439 C174.7471,147.5199 175.7371,145.8739 176.0151,144.0079 C176.5931,140.1549 173.9261,136.5489 170.0701,135.9679" id="Fill-7" sketch:type="MSShapeGroup"></path>
            <path d="M32.5483,68.1235 C35.1683,68.1235 37.2983,70.2545 37.2983,72.8745 C37.2993,74.1465 36.8063,75.3405 35.9103,76.2365 C35.0153,77.1315 33.8213,77.6245 32.5483,77.6245 C29.9283,77.6245 27.7973,75.4935 27.7973,72.8735 C27.7973,70.2545 29.9283,68.1235 32.5483,68.1235 M32.5483,79.6245 C34.3553,79.6245 36.0513,78.9235 37.3243,77.6505 C38.5983,76.3775 39.2993,74.6815 39.2983,72.8735 C39.2983,69.1515 36.2703,66.1235 32.5483,66.1235 C28.8253,66.1235 25.7973,69.1515 25.7973,72.8735 C25.7973,76.5965 28.8253,79.6245 32.5483,79.6245" id="Fill-9" sketch:type="MSShapeGroup"></path>
            <path d="M23.3799,101.5308 C22.8089,101.2228 22.4939,100.5218 22.4939,99.5538 L22.4939,83.6048 C22.4939,82.3228 22.8689,82.0938 23.9269,82.0938 L40.3079,82.0938 C42.5009,82.0938 42.6059,82.4568 42.6059,83.6048 L42.6049,99.5538 C42.6049,100.6548 42.0499,101.4268 41.5359,101.6768 C41.3519,101.7668 41.1739,101.7918 40.9989,101.7528 L40.9989,89.3108 L38.9989,89.3108 L38.9989,120.4618 C38.9989,121.7078 37.9849,122.7218 36.7399,122.7218 C35.4949,122.7218 34.4819,121.7078 34.4819,120.4618 L34.4819,101.3468 L30.6189,101.3468 L30.6189,120.4618 C30.6189,121.7078 29.6049,122.7218 28.3589,122.7218 C27.1129,122.7218 26.0999,121.7078 26.0999,120.4618 L26.0999,89.3108 L24.0999,89.3108 L24.0999,101.6728 C23.8629,101.6988 23.6079,101.6528 23.3799,101.5308 L23.3799,101.5308 Z M24.0999,120.4618 C24.0999,122.8108 26.0099,124.7218 28.3589,124.7218 C30.4459,124.7218 32.1889,123.2118 32.5499,121.2268 C32.9119,123.2118 34.6529,124.7218 36.7399,124.7218 C39.0879,124.7218 40.9989,122.8108 40.9989,120.4618 L40.9989,103.7698 C41.4739,103.7978 41.9499,103.6998 42.4109,103.4748 C43.7439,102.8258 44.6049,101.2868 44.6049,99.5538 L44.6059,83.6048 C44.6059,80.0938 41.8099,80.0938 40.3079,80.0938 L23.9269,80.0938 C21.6809,80.0938 20.4939,81.3078 20.4939,83.6048 L20.4939,99.5538 C20.4939,101.2668 21.2009,102.6298 22.4329,103.2918 C22.9599,103.5748 23.5359,103.7078 24.0999,103.6798 L24.0999,120.4618 Z" id="Fill-11" sketch:type="MSShapeGroup"></path>
            <path d="M56.1167,77.0674 C56.1167,75.7844 56.4917,75.5564 57.5497,75.5564 L73.9297,75.5564 C76.1237,75.5564 76.2277,75.9194 76.2277,77.0674 L76.2267,93.0154 C76.2267,94.1174 75.6727,94.8884 75.1587,95.1394 C74.9737,95.2294 74.7967,95.2544 74.6207,95.2154 L74.6207,82.7734 L72.6207,82.7734 L72.6207,113.9244 C72.6207,115.1704 71.6077,116.1844 70.3627,116.1844 C69.1167,116.1844 68.1037,115.1704 68.1037,113.9244 L68.1037,94.8094 L64.2417,94.8094 L64.2417,113.9244 C64.2417,115.1704 63.2277,116.1844 61.9807,116.1844 C60.7357,116.1844 59.7227,115.1704 59.7227,113.9244 L59.7227,82.7734 L57.7227,82.7734 L57.7227,95.1354 C57.4847,95.1614 57.2307,95.1154 57.0027,94.9934 C56.4317,94.6864 56.1167,93.9834 56.1167,93.0154 L56.1167,77.0674 Z M57.7227,97.1424 L57.7227,113.9244 C57.7227,116.2734 59.6327,118.1844 61.9807,118.1844 C64.0687,118.1844 65.8107,116.6744 66.1727,114.6894 C66.5337,116.6744 68.2757,118.1844 70.3627,118.1844 C72.7107,118.1844 74.6207,116.2734 74.6207,113.9244 L74.6207,97.2324 C75.0947,97.2604 75.5727,97.1624 76.0337,96.9374 C77.3667,96.2884 78.2267,94.7494 78.2267,93.0154 L78.2277,77.0674 C78.2277,73.5564 75.4317,73.5564 73.9297,73.5564 L57.5497,73.5564 C55.3037,73.5564 54.1167,74.7704 54.1167,77.0674 L54.1167,93.0154 C54.1167,94.7294 54.8237,96.0924 56.0557,96.7544 C56.5827,97.0374 57.1657,97.1714 57.7227,97.1424 L57.7227,97.1424 Z" id="Fill-13" sketch:type="MSShapeGroup"></path>
            <path d="M70.9214,66.3364 C70.9214,67.6094 70.4284,68.8034 69.5334,69.6984 C68.6384,70.5934 67.4434,71.0864 66.1714,71.0864 C63.5504,71.0864 61.4194,68.9554 61.4194,66.3364 C61.4194,63.7164 63.5504,61.5864 66.1714,61.5864 C68.7904,61.5864 70.9214,63.7164 70.9214,66.3364 M59.4194,66.3364 C59.4194,70.0584 62.4484,73.0864 66.1714,73.0864 C67.9784,73.0864 69.6744,72.3854 70.9474,71.1124 C72.2214,69.8394 72.9214,68.1434 72.9214,66.3364 C72.9214,62.6134 69.8934,59.5864 66.1714,59.5864 C62.4484,59.5864 59.4194,62.6134 59.4194,66.3364" id="Fill-15" sketch:type="MSShapeGroup"></path>
            <path d="M95.042,73.8081 C95.042,71.1881 97.173,69.0581 99.793,69.0581 C102.413,69.0581 104.544,71.1881 104.544,73.8081 C104.544,75.0811 104.051,76.2751 103.156,77.1701 C102.261,78.0651 101.066,78.5581 99.793,78.5581 C97.173,78.5581 95.042,76.4271 95.042,73.8081 M104.57,78.5841 C105.844,77.3111 106.544,75.6151 106.544,73.8081 C106.544,70.0861 103.516,67.0581 99.793,67.0581 C96.071,67.0581 93.042,70.0861 93.042,73.8081 C93.042,77.5301 96.071,80.5581 99.793,80.5581 C101.601,80.5581 103.297,79.8571 104.57,78.5841" id="Fill-17" sketch:type="MSShapeGroup"></path>
            <path d="M90.626,102.4648 C90.054,102.1578 89.739,101.4548 89.739,100.4868 L89.739,84.5388 C89.739,83.2568 90.115,83.0278 91.172,83.0278 L107.553,83.0278 C109.746,83.0278 109.851,83.3908 109.851,84.5388 L109.85,100.4868 C109.85,101.5888 109.295,102.3608 108.781,102.6108 C108.597,102.7008 108.419,102.7258 108.244,102.6868 L108.244,90.2448 L106.244,90.2448 L106.244,121.3958 C106.244,122.6418 105.23,123.6558 103.985,123.6558 C102.74,123.6558 101.727,122.6418 101.727,121.3958 L101.727,102.2808 L97.864,102.2808 L97.864,121.3958 C97.864,122.6418 96.85,123.6558 95.604,123.6558 C94.358,123.6558 93.345,122.6418 93.345,121.3958 L93.345,90.2448 L91.345,90.2448 L91.345,102.6068 C91.108,102.6338 90.853,102.5878 90.626,102.4648 M95.604,125.6558 C97.692,125.6558 99.434,124.1458 99.795,122.1608 C100.157,124.1458 101.898,125.6558 103.985,125.6558 C106.334,125.6558 108.244,123.7448 108.244,121.3958 L108.244,104.7038 C108.716,104.7298 109.195,104.6338 109.657,104.4088 C110.989,103.7598 111.85,102.2208 111.85,100.4868 L111.851,84.5388 C111.851,81.0278 109.055,81.0278 107.553,81.0278 L91.172,81.0278 C88.926,81.0278 87.739,82.2418 87.739,84.5388 L87.739,100.4868 C87.739,102.2008 88.446,103.5638 89.679,104.2268 C90.206,104.5088 90.781,104.6378 91.345,104.6138 L91.345,121.3958 C91.345,123.7448 93.256,125.6558 95.604,125.6558" id="Fill-19" sketch:type="MSShapeGroup"></path>
            <path d="M123.3618,77.0674 C123.3618,75.7844 123.7368,75.5564 124.7948,75.5564 L141.1758,75.5564 C143.3688,75.5564 143.4728,75.9194 143.4728,77.0674 L143.4728,93.0154 C143.4728,94.1174 142.9188,94.8884 142.4038,95.1394 C142.2198,95.2294 142.0418,95.2544 141.8658,95.2154 L141.8658,82.7734 L139.8658,82.7734 L139.8658,113.9244 C139.8658,115.1704 138.8528,116.1844 137.6078,116.1844 C136.3618,116.1844 135.3488,115.1704 135.3488,113.9244 L135.3488,94.8094 L131.4868,94.8094 L131.4868,113.9244 C131.4868,115.1704 130.4728,116.1844 129.2268,116.1844 C127.9808,116.1844 126.9678,115.1704 126.9678,113.9244 L126.9678,82.7734 L124.9678,82.7734 L124.9678,95.1354 C124.7298,95.1634 124.4758,95.1154 124.2488,94.9934 C123.6768,94.6864 123.3618,93.9834 123.3618,93.0154 L123.3618,77.0674 Z M123.3008,96.7544 C123.8278,97.0374 124.4018,97.1674 124.9678,97.1424 L124.9678,113.9244 C124.9678,116.2734 126.8788,118.1844 129.2268,118.1844 C131.3148,118.1844 133.0558,116.6744 133.4178,114.6894 C133.7788,116.6744 135.5208,118.1844 137.6078,118.1844 C139.9558,118.1844 141.8658,116.2734 141.8658,113.9244 L141.8658,97.2324 C142.3318,97.2564 142.8178,97.1624 143.2788,96.9374 C144.6118,96.2884 145.4728,94.7494 145.4728,93.0154 L145.4728,77.0674 C145.4728,73.5564 142.6778,73.5564 141.1758,73.5564 L124.7948,73.5564 C122.5488,73.5564 121.3618,74.7704 121.3618,77.0674 L121.3618,93.0154 C121.3618,94.7294 122.0688,96.0924 123.3008,96.7544 L123.3008,96.7544 Z" id="Fill-21" sketch:type="MSShapeGroup"></path>
            <path d="M133.416,61.5859 C136.036,61.5859 138.166,63.7169 138.166,66.3359 C138.167,67.6089 137.674,68.8029 136.779,69.6979 C135.883,70.5929 134.689,71.0859 133.416,71.0859 C130.796,71.0859 128.665,68.9559 128.665,66.3359 C128.665,63.7169 130.796,61.5859 133.416,61.5859 M133.416,73.0859 C135.223,73.0859 136.919,72.3859 138.193,71.1129 C139.466,69.8399 140.167,68.1429 140.166,66.3359 C140.166,62.6139 137.138,59.5859 133.416,59.5859 C129.693,59.5859 126.665,62.6139 126.665,66.3359 C126.665,70.0579 129.693,73.0859 133.416,73.0859" id="Fill-23" sketch:type="MSShapeGroup"></path>
            <path d="M156.9844,84.5391 C156.9844,83.2561 157.3594,83.0281 158.4174,83.0281 L174.7984,83.0281 C176.9914,83.0281 177.0964,83.3911 177.0964,84.5391 L177.0954,100.4871 C177.0954,101.5891 176.5414,102.3601 176.0264,102.6111 C175.8414,102.7011 175.6644,102.7261 175.4894,102.6871 L175.4894,90.2451 L173.4894,90.2451 L173.4894,121.3961 C173.4894,122.6421 172.4764,123.6561 171.2304,123.6561 C169.9844,123.6561 168.9714,122.6421 168.9714,121.3961 L168.9714,102.2811 L165.1094,102.2811 L165.1094,121.3961 C165.1094,122.6421 164.0954,123.6561 162.8494,123.6561 C161.6034,123.6561 160.5904,122.6421 160.5904,121.3961 L160.5904,90.2451 L158.5904,90.2451 L158.5904,102.6071 C158.3544,102.6341 158.0984,102.5871 157.8714,102.4651 C157.2994,102.1581 156.9844,101.4551 156.9844,100.4871 L156.9844,84.5391 Z M154.9844,84.5391 L154.9844,100.4871 C154.9844,102.2011 155.6914,103.5641 156.9234,104.2261 C157.4504,104.5091 158.0284,104.6381 158.5904,104.6141 L158.5904,121.3961 C158.5904,123.7451 160.5014,125.6561 162.8494,125.6561 C164.9374,125.6561 166.6784,124.1461 167.0404,122.1611 C167.4014,124.1461 169.1434,125.6561 171.2304,125.6561 C173.5784,125.6561 175.4894,123.7451 175.4894,121.3961 L175.4894,104.7041 C175.9624,104.7291 176.4404,104.6341 176.9014,104.4091 C178.2344,103.7601 179.0954,102.2211 179.0954,100.4871 L179.0964,84.5391 C179.0964,81.0281 176.3004,81.0281 174.7984,81.0281 L158.4174,81.0281 C156.1714,81.0281 154.9844,82.2421 154.9844,84.5391 L154.9844,84.5391 Z" id="Fill-25" sketch:type="MSShapeGroup"></path>
            <path d="M167.0391,69.0576 C169.6581,69.0576 171.7891,71.1886 171.7891,73.8086 C171.7891,75.0806 171.2961,76.2746 170.4011,77.1696 C169.5061,78.0646 168.3121,78.5576 167.0391,78.5576 C164.4191,78.5576 162.2881,76.4276 162.2881,73.8076 C162.2881,71.1886 164.4191,69.0576 167.0391,69.0576 M167.0391,80.5576 C168.8461,80.5576 170.5421,79.8576 171.8151,78.5846 C173.0891,77.3116 173.7891,75.6156 173.7891,73.8076 C173.7891,70.0856 170.7611,67.0576 167.0391,67.0576 C163.3161,67.0576 160.2881,70.0856 160.2881,73.8076 C160.2881,77.5306 163.3161,80.5576 167.0391,80.5576" id="Fill-27" sketch:type="MSShapeGroup"></path>
            <path d="M143.5547,165.8452 L140.4477,170.7102 L136.2587,169.2312 L135.8127,169.6692 C134.1367,171.3182 132.2067,172.6532 130.0777,173.6362 L129.5057,173.9002 L129.4487,178.3872 L123.8097,179.6292 L121.8527,175.5352 L121.2297,175.5282 C118.9217,175.5022 116.6507,175.0872 114.4797,174.2952 L113.8887,174.0792 L110.6057,177.2802 L105.7417,174.1722 L107.2777,169.8162 L106.8417,169.3702 C105.2447,167.7422 103.9417,165.8672 102.9677,163.7992 L102.7007,163.2332 L98.0647,163.1732 L96.8247,157.5352 L101.0077,155.5342 L101.0117,154.9092 C101.0267,152.6272 101.4227,150.3782 102.1877,148.2252 L102.3967,147.6382 L99.1737,144.3302 L102.2807,139.4672 L106.6037,140.9932 L107.0497,140.5502 C108.6887,138.9182 110.5757,137.5872 112.6587,136.5952 L113.2217,136.3262 L113.2787,131.7902 L118.9157,130.5492 L120.8517,134.5972 L121.4827,134.5962 L121.4987,134.5962 C123.8367,134.5962 126.1427,134.9972 128.3527,135.7872 L128.9407,135.9972 L132.1207,132.8972 L136.9847,136.0052 L135.5187,140.1632 L135.9637,140.6082 C137.6457,142.2902 139.0067,144.2322 140.0087,146.3792 L140.2747,146.9472 L144.6627,147.0042 L145.9037,152.6402 L141.9457,154.5342 L141.9427,155.1612 C141.9327,157.5322 141.5127,159.8662 140.6947,162.0972 L140.4777,162.6892 L143.5547,165.8452 Z M148.1977,153.7602 L146.2747,145.0242 L141.5457,144.9632 C140.5697,143.0182 139.3197,141.2352 137.8207,139.6492 L139.3987,135.1742 L131.8617,130.3582 L128.4317,133.7002 C126.3827,133.0322 124.2637,132.6642 122.1167,132.6052 L120.0357,128.2542 L111.2987,130.1782 L111.2367,135.0662 C109.3587,136.0272 107.6327,137.2432 106.0937,138.6922 L101.4497,137.0532 L96.6347,144.5902 L100.1017,148.1492 C99.4577,150.1322 99.0967,152.1842 99.0247,154.2662 L94.5307,156.4162 L96.4527,165.1532 L101.4347,165.2172 C102.3757,167.0792 103.5657,168.7892 104.9807,170.3172 L103.3277,175.0032 L110.8657,179.8192 L114.3917,176.3822 C116.3957,177.0512 118.4717,177.4292 120.5807,177.5122 L122.6907,181.9232 L131.4277,179.9992 L131.4897,175.1772 C133.4147,174.2202 135.1827,172.9972 136.7607,171.5302 L141.2787,173.1242 L146.0937,165.5852 L142.7827,162.1882 C143.4757,160.1202 143.8617,157.9772 143.9317,155.8012 L148.1977,153.7602 Z" id="Fill-29" sketch:type="MSShapeGroup"></path>
            <path d="M121.4844,170.5684 C113.0294,170.5684 106.1514,163.6904 106.1514,155.2354 C106.1514,146.7804 113.0294,139.9014 121.4844,139.9014 C129.9394,139.9014 136.8174,146.7804 136.8174,155.2354 C136.8174,163.6904 129.9394,170.5684 121.4844,170.5684 M121.4844,137.9014 C111.9264,137.9014 104.1514,145.6774 104.1514,155.2354 C104.1514,164.7934 111.9264,172.5684 121.4844,172.5684 C131.0424,172.5684 138.8174,164.7934 138.8174,155.2354 C138.8174,145.6774 131.0424,137.9014 121.4844,137.9014" id="Fill-31" sketch:type="MSShapeGroup"></path>
            <path d="M121.4844,158.5317 C119.6664,158.5317 118.1874,157.0527 118.1874,155.2357 C118.1874,153.4177 119.6664,151.9387 121.4844,151.9387 C123.3024,151.9387 124.7804,153.4177 124.7804,155.2357 C124.7804,157.0527 123.3024,158.5317 121.4844,158.5317 M121.4844,149.9387 C118.5634,149.9387 116.1874,152.3147 116.1874,155.2357 C116.1874,158.1557 118.5634,160.5317 121.4844,160.5317 C124.4044,160.5317 126.7804,158.1557 126.7804,155.2357 C126.7804,152.3147 124.4044,149.9387 121.4844,149.9387" id="Fill-33" sketch:type="MSShapeGroup"></path>
            <path d="M98.8384,11.3984 C107.9544,11.3984 115.3714,18.9214 115.3714,28.1694 C115.3714,32.7434 111.9654,40.6204 107.4504,46.4904 C103.9534,51.0394 100.3694,55.5664 98.8334,57.5004 C97.2994,55.5974 93.6564,51.0544 89.1834,45.3304 C85.3904,40.4784 82.3054,32.7794 82.3054,28.1694 C82.3054,18.9214 89.7224,11.3984 98.8384,11.3984 M88.5884,47.8154 C86.1644,48.7324 83.8444,49.9214 81.6924,51.3834 L82.8164,53.0384 C85.0114,51.5474 87.3874,50.3434 89.8784,49.4584 C94.6464,55.5164 98.0234,59.6814 98.0624,59.7294 L98.8444,60.6934 L99.6194,59.7234 C99.6644,59.6674 103.9044,54.3584 108.2544,48.7234 C112.0934,49.7394 115.6584,51.4584 118.8474,53.8434 L120.0454,52.2414 C116.8694,49.8664 113.3414,48.1154 109.5534,47.0124 C114.1124,40.8324 117.3714,33.0294 117.3714,28.1694 C117.3714,17.8184 109.0574,9.3984 98.8384,9.3984 C88.6194,9.3984 80.3054,17.8184 80.3054,28.1694 C80.3054,33.2444 83.5124,41.3234 87.6074,46.5624 C87.9394,46.9874 88.2654,47.4044 88.5884,47.8154" id="Fill-35" sketch:type="MSShapeGroup"></path>
            <path d="M98.8384,18.9658 C103.2094,18.9658 106.7654,22.5758 106.7654,27.0128 C106.7654,31.4498 103.2094,35.0598 98.8384,35.0598 C94.4674,35.0598 90.9114,31.4498 90.9114,27.0128 C90.9114,22.5758 94.4674,18.9658 98.8384,18.9658 M98.8384,37.0598 C104.3124,37.0598 108.7654,32.5528 108.7654,27.0128 C108.7654,21.4728 104.3124,16.9658 98.8384,16.9658 C93.3644,16.9658 88.9114,21.4728 88.9114,27.0128 C88.9114,32.5528 93.3644,37.0598 98.8384,37.0598" id="Fill-37" sketch:type="MSShapeGroup"></path>
            <path d="M44.3926,161.895 L36.3606,161.895 C33.9556,161.895 32.9726,161.112 31.6766,159.355 C30.9356,158.352 27.6206,151.904 25.5656,147.801 C25.4426,147.564 25.4846,147.301 25.5416,147.121 C25.6626,146.74 25.9646,146.378 26.3136,146.197 C26.4566,146.122 26.6326,146.084 26.8236,146.084 C26.9816,146.084 27.1496,146.111 27.3156,146.163 C27.6786,146.277 27.9756,146.5 28.1036,146.747 L31.7306,153.952 C31.5026,153.952 31.3616,153.959 31.3346,153.961 L31.4616,155.957 C31.4916,155.955 34.3726,155.802 36.6306,157.339 C38.9136,158.891 39.7796,160.91 39.7866,160.926 L41.6376,160.168 C41.5946,160.063 40.5586,157.591 37.7556,155.686 C35.7996,154.354 33.5596,154.036 32.3086,153.968 L32.3086,134.583 C32.3086,133.991 32.8946,133.453 33.5386,133.453 C34.1586,133.453 34.6436,133.949 34.6436,134.583 L34.6436,144.828 L37.5096,144.828 L37.5096,132.452 C37.5096,131.841 38.0436,131.325 38.6756,131.325 C39.3086,131.325 39.8426,131.841 39.8426,132.452 L39.8426,144.828 L42.7106,144.828 L42.7106,132.452 C42.7106,131.841 43.2446,131.325 43.8766,131.325 C44.5086,131.325 45.0426,131.841 45.0426,132.452 L45.0426,144.828 L47.9096,144.828 L47.9096,134.583 C47.9096,133.97 48.4436,133.453 49.0756,133.453 C49.7086,133.453 50.2426,133.97 50.2426,134.583 L50.2426,147.099 L35.5566,147.099 L35.5566,149.099 L50.2426,149.099 L50.2426,154.739 C50.2426,155.121 50.2096,155.504 50.1536,155.886 C49.4046,155.977 47.2666,156.1 44.9746,154.991 C42.6136,153.848 41.3556,151.951 41.3426,151.932 L39.6636,153.018 C39.7256,153.115 41.2166,155.394 44.1026,156.791 C46.0476,157.732 47.8866,157.945 49.1536,157.945 C49.3136,157.945 49.4486,157.937 49.5906,157.932 C48.6606,160.147 46.7986,161.895 44.3926,161.895 M49.0756,131.453 C48.2976,131.453 47.5836,131.732 47.0326,132.194 C46.8986,130.59 45.5346,129.325 43.8766,129.325 C42.8006,129.325 41.8496,129.857 41.2766,130.669 C40.7046,129.857 39.7516,129.325 38.6756,129.325 C37.0236,129.325 35.6636,130.581 35.5216,132.176 C34.9836,131.725 34.2916,131.453 33.5386,131.453 C31.7876,131.453 30.3086,132.886 30.3086,134.583 L30.3086,146.679 L29.8846,145.836 C29.5046,145.106 28.7886,144.53 27.9176,144.256 C27.0416,143.98 26.1216,144.041 25.3916,144.422 C24.5726,144.847 23.9156,145.63 23.6346,146.518 C23.3936,147.282 23.4486,148.065 23.7846,148.71 C24.3136,149.767 28.9866,159.08 30.0666,160.543 C31.6336,162.666 33.1656,163.895 36.3606,163.895 L44.3926,163.895 C49.2416,163.895 52.2426,159.143 52.2426,154.739 L52.2426,134.583 C52.2426,132.857 50.8216,131.453 49.0756,131.453" id="Fill-39" sketch:type="MSShapeGroup"></path>
            <path d="M154.686,165.6533 L156.012,167.1503 C158.56,164.8943 161.005,162.4673 163.28,159.9373 L161.792,158.6003 C159.568,161.0743 157.177,163.4473 154.686,165.6533" id="Fill-41" sketch:type="MSShapeGroup"></path>
            <path d="M88.0093,187.3472 L87.6833,189.3212 C92.5103,190.1182 97.4533,190.5222 102.3753,190.5222 C103.0413,190.5222 103.7053,190.5152 104.3673,190.5002 L104.3213,188.5012 C98.8863,188.6272 93.3673,188.2322 88.0093,187.3472" id="Fill-43" sketch:type="MSShapeGroup"></path>
            <path d="M42.5918,168.5654 L41.1168,169.9174 C43.9078,172.9614 46.9438,175.8444 50.1408,178.4854 L51.4138,176.9434 C48.2888,174.3614 45.3208,171.5424 42.5918,168.5654" id="Fill-45" sketch:type="MSShapeGroup"></path>
            <path d="M57.543,128.1245 L55.925,129.3005 C62.597,138.4845 72.834,144.8645 84.01,146.8035 L84.352,144.8325 C73.683,142.9825 63.912,136.8925 57.543,128.1245" id="Fill-47" sketch:type="MSShapeGroup"></path>
            <path d="M86.106,134.8882 C79.095,133.2452 72.828,129.1882 68.459,123.4652 L66.869,124.6792 C71.519,130.7692 78.189,135.0872 85.65,136.8352 L86.106,134.8882 Z" id="Fill-49" sketch:type="MSShapeGroup"></path>
            <path d="M9.3618,102.3711 C9.6928,108.3651 10.6268,114.3301 12.1398,120.1011 L14.0738,119.5941 C12.5958,113.9531 11.6818,108.1211 11.3588,102.2611 L9.3618,102.3711 Z" id="Fill-51" sketch:type="MSShapeGroup"></path>
            <path d="M187.7227,102.2632 C187.3867,108.0832 186.4527,113.9122 184.9497,119.5862 L186.8827,120.0992 C188.4207,114.2952 189.3747,108.3322 189.7197,102.3782 L187.7227,102.2632 Z" id="Fill-53" sketch:type="MSShapeGroup"></path>
            <path d="M157.8462,32.2324 C150.2132,25.4834 141.5742,20.1304 132.1702,16.3234 L131.4192,18.1764 C140.6132,21.8994 149.0582,27.1324 156.5212,33.7304 L157.8462,32.2324 Z" id="Fill-55" sketch:type="MSShapeGroup"></path>
            <path d="M67.8838,17.3882 L67.1798,15.5162 C54.7618,20.1842 43.3198,27.7382 34.0908,37.3622 L35.5338,38.7472 C44.5568,29.3372 55.7438,21.9512 67.8838,17.3882" id="Fill-57" sketch:type="MSShapeGroup"></path>
            <path d="M59.6538,31.3403 C62.0218,31.3403 63.9478,33.3213 63.9478,35.7563 C63.9478,36.9973 62.9598,39.2663 61.6988,40.9213 C60.9488,41.9053 60.1908,42.8803 59.6488,43.5723 C59.0838,42.8603 58.2528,41.8063 57.2898,40.5623 C56.2428,39.2103 55.3588,37.0103 55.3588,35.7563 C55.3588,33.3213 57.2848,31.3403 59.6538,31.3403 M58.8748,45.8103 L59.6598,46.7863 L60.4378,45.8043 C60.4378,45.8043 61.8768,43.9873 63.2898,42.1333 C64.8548,40.0793 65.9478,37.4573 65.9478,35.7563 C65.9478,32.2183 63.1248,29.3403 59.6538,29.3403 C56.1828,29.3403 53.3588,32.2183 53.3588,35.7563 C53.3588,37.4653 54.3688,40.0573 55.7088,41.7863 C57.5258,44.1343 58.8748,45.8103 58.8748,45.8103" id="Fill-59" sketch:type="MSShapeGroup"></path>
            <path d="M143.335,36.6904 C143.335,37.9314 142.347,40.2004 141.085,41.8554 C140.335,42.8394 139.578,43.8144 139.035,44.5064 C138.47,43.7944 137.64,42.7404 136.677,41.4954 C135.63,40.1454 134.745,37.9444 134.745,36.6904 C134.745,34.2554 136.672,32.2744 139.041,32.2744 C141.409,32.2744 143.335,34.2554 143.335,36.6904 M132.745,36.6904 C132.745,38.3994 133.756,40.9924 135.096,42.7204 C136.913,45.0684 138.261,46.7444 138.261,46.7444 L139.047,47.7204 L139.824,46.7384 C139.824,46.7384 141.264,44.9214 142.676,43.0674 C144.242,41.0134 145.335,38.3914 145.335,36.6904 C145.335,33.1524 142.511,30.2744 139.041,30.2744 C135.569,30.2744 132.745,33.1524 132.745,36.6904" id="Fill-61" sketch:type="MSShapeGroup"></path>
            <path d="M100,198 C45.962,198 2,154.038 2,100 C2,45.962 45.962,2 100,2 C154.038,2 198,45.962 198,100 C198,154.038 154.038,198 100,198 M100,0 C44.86,0 0,44.86 0,100 C0,155.14 44.86,200 100,200 C155.14,200 200,155.14 200,100 C200,44.86 155.14,0 100,0" id="Fill-63" sketch:type="MSShapeGroup"></path>
            <path d="M30.4198,51.1346 C31.4518,51.1346 32.2878,51.9706 32.2878,53.0026 C32.2878,54.0346 31.4518,54.8706 30.4198,54.8706 C29.3878,54.8706 28.5518,54.0346 28.5518,53.0026 C28.5518,51.9706 29.3878,51.1346 30.4198,51.1346" id="Fill-65" sketch:type="MSShapeGroup"></path>
            <path d="M169.5802,51.1346 C170.6122,51.1346 171.4482,51.9706 171.4482,53.0026 C171.4482,54.0346 170.6122,54.8706 169.5802,54.8706 C168.5482,54.8706 167.7122,54.0346 167.7122,53.0026 C167.7122,51.9706 168.5482,51.1346 169.5802,51.1346" id="Fill-67" sketch:type="MSShapeGroup"></path>
            <path d="M155.5708,40.861 C156.6028,40.861 157.4388,41.697 157.4388,42.729 C157.4388,43.761 156.6028,44.597 155.5708,44.597 C154.5388,44.597 153.7028,43.761 153.7028,42.729 C153.7028,41.697 154.5388,40.861 155.5708,40.861" id="Fill-69" sketch:type="MSShapeGroup"></path>
            <path d="M43.4953,40.861 C44.5273,40.861 45.3633,41.697 45.3633,42.729 C45.3633,43.761 44.5273,44.597 43.4953,44.597 C42.4633,44.597 41.6273,43.761 41.6273,42.729 C41.6273,41.697 42.4633,40.861 43.4953,40.861" id="Fill-71" sketch:type="MSShapeGroup"></path>
        </g>
    </g>
</svg>