<?xml version="1.0" encoding="UTF-8" standalone="no"?>
<svg width="242px" height="175px" viewBox="0 0 242 175" version="1.1" xmlns="http://www.w3.org/2000/svg" xmlns:xlink="http://www.w3.org/1999/xlink" xmlns:sketch="http://www.bohemiancoding.com/sketch/ns">
    <!-- Generator: Sketch 3.2.2 (9983) - http://www.bohemiancoding.com/sketch -->
    <title>icon-teach-like-mozilla</title>
    <desc>Created with Sketch.</desc>
    <defs></defs>
    <g id="Page-1" stroke="none" stroke-width="1" fill="none" fill-rule="evenodd" sketch:type="MSPage">
        <g id="Teach-Like-Mozilla" sketch:type="MSArtboardGroup" transform="translate(-337.000000, -658.000000)">
            <g id="icon-teach-like-mozilla" sketch:type="MSLayerGroup" transform="translate(339.000000, 659.000000)">
                <g id="Fill-6984-+-Fill-6985-+-Fill-6986" transform="translate(14.000000, 0.000000)" stroke="#AFDBC0" stroke-width="2" fill="#FFFFFF" sketch:type="MSShapeGroup">
                    <path d="M3.6405,33 C1.9845,33 0.6405,34.3589867 0.6405,36.0334526 L0.6405,69.4014308 C0.6405,71.0758966 1.9845,72.4348833 3.6405,72.4348833 L33.2444486,72.4348833 L33.6738281,79.921875 L41.6995267,72.4348833 L57.6405,72.4348833 C59.2965,72.4348833 60.6405,71.0758966 60.6405,69.4014308 L60.6405,36.0334526 C60.6405,34.3589867 59.2965,33 57.6405,33 L3.6405,33 Z" id="Fill-6984"></path>
                    <path d="M183.231409,0 L125.049591,0 C123.443773,0 122.1405,1.31911111 122.1405,2.94444444 L122.1405,38.2777778 C122.1405,39.9031111 123.443773,41.2222222 125.049591,41.2222222 L162.867773,41.2222222 L162.867773,53 L174.504136,41.2222222 L183.231409,41.2222222 C184.837227,41.2222222 186.1405,39.9031111 186.1405,38.2777778 L186.1405,2.94444444 C186.1405,1.31911111 184.837227,0 183.231409,0" id="Fill-6986"></path>
                </g>
                <g id="Group-3-+-Group" transform="translate(148.000000, 8.000000)" stroke="#AFDBC0" sketch:type="MSShapeGroup">
                    <g id="Group-3" stroke-width="2">
                        <path d="M25.2991304,16.8186087 L25.8445652,13.1791739 L23.7238696,12.3375652 C23.6328696,11.0816522 23.3208696,9.8766087 22.8234783,8.762 L24.3088696,7.01265217 L22.1203478,4.05656522 L19.994,4.97334783 C19.0772174,4.18769565 18.025913,3.54843478 16.8626957,3.1036087 L16.673913,0.78226087 L13.0350435,0.237956522 L12.1634783,2.43269565 C10.9431739,2.52991304 9.77147826,2.83456522 8.68456522,3.31726087 L6.86852174,1.77478261 L3.91130435,3.96273913 L4.86426087,6.17047826 C4.10121739,7.06408696 3.47947826,8.08656522 3.03917391,9.2136087 L0.638695652,9.40973913 L0.0943913043,13.0474783 L2.33095652,13.9354348 C2.4213913,15.1438696 2.71813043,16.3036957 3.18613043,17.3826957 L1.63008696,19.2151304 L3.81747826,22.1706522 L6.00486957,21.2284348 C6.90243478,22.0073043 7.93452174,22.6414783 9.07286957,23.0919565 L9.26447826,25.4472174 L12.9033478,25.9892609 L13.7630435,23.8256087 C15.0053913,23.7413913 16.1985652,23.4373043 17.3052609,22.9546087 L19.0704348,24.4535652 L22.027087,22.2667391 L21.1187826,20.1596087 C21.9208261,19.2388696 22.5719565,18.1773913 23.0269565,17.0034348 L25.2991304,16.8186087 L25.2991304,16.8186087 Z" id="Shape"></path>
                        <path d="M14.0129714,5.58127053 C18.1058171,6.19792828 20.9333789,10.0157571 20.3199248,14.1088298 C19.7103638,18.2019026 15.8878162,21.028853 11.7955267,20.4133074 C7.69378236,19.8027662 4.87178224,15.9843813 5.48801719,11.8913086 C6.10035896,7.79267529 9.91400791,4.96739302 14.0129714,5.58127053 L14.0129714,5.58127053 Z" id="Shape"></path>
                    </g>
                    <g id="Group" transform="translate(26.000000, 1.000000)">
                        <path d="M13.9516364,7.49205882 L13.6597576,5.46308824 L12.3721818,5.35411765 C12.1358788,4.72544118 11.8024242,4.15544118 11.3934545,3.65735294 L11.9042424,2.42558824 L10.3184242,1.20529412 L9.34436364,2.06558824 C8.76187879,1.79691176 8.13357576,1.62705882 7.4789697,1.57235294 L7.01145455,0.348970588 L5.05993939,0.6525 L4.9589697,1.94735294 C4.33533333,2.19529412 3.77151515,2.55176471 3.28024242,2.98941176 L2.13987879,2.47852941 L0.965575758,4.12720588 L1.76230303,5.10264706 C1.49545455,5.72426471 1.32830303,6.39661765 1.27909091,7.09676471 L0.142121212,7.56617647 L0.434424242,9.59558824 L1.65284848,9.69838235 C1.89678788,10.3526471 2.24593939,10.9447059 2.67612121,11.4577941 L2.18909091,12.6326471 L3.77490909,13.8525 L4.7209697,13.0164706 C5.31448485,13.2855882 5.95424242,13.455 6.62072727,13.5022059 L7.08187879,14.7088235 L9.03339394,14.4057353 L9.13606061,13.0927941 C9.74612121,12.8417647 10.2993333,12.4879412 10.7808485,12.0538235 L11.954303,12.5788235 L13.1277576,10.9310294 L12.2928485,9.90926471 C12.5444242,9.30838235 12.7030909,8.66117647 12.752303,7.98705882 L13.9516364,7.49205882 Z" id="Shape" stroke-width="1.5"></path>
                        <path d="M6.76793939,5.80147059 C5.84860606,5.94529412 5.21351515,6.83735294 5.35139394,7.79338235 C5.488,8.74941176 6.34666667,9.40941176 7.26557576,9.26558824 C8.18660606,9.12352941 8.82042424,8.23147059 8.68212121,7.275 C8.54466667,6.31808824 7.68812121,5.65852941 6.76793939,5.80147059 L6.76793939,5.80147059 Z" id="Shape" stroke-width="1.4"></path>
                    </g>
                </g>
                <g id="Group" transform="translate(0.000000, 111.000000)" stroke="#AFDBC0" stroke-width="3" stroke-linecap="round" sketch:type="MSShapeGroup">
                    <path d="M0.435546875,55.4550781 C0.435546875,55.4550781 48.8164062,3.45898437 103.165506,55.4550781" id="Path-93"></path>
                    <path d="M130.435547,55.4550781 C130.435547,55.4550781 178.816406,3.45898437 233.165506,55.4550781" id="Path-95"></path>
                    <path d="M143,55.9653273 C143,55.9653273 182.227051,19.0913086 221.454102,57.1420852" id="Path-98"></path>
                    <path d="M53.0566406,26.0078125 C53.0566406,26.0078125 109.343659,-30.9472656 183.830032,26.0078125" id="Path-94"></path>
                    <path d="M11.9277344,56.0888675 C11.9277344,56.0888675 50.9235934,20.6894531 90.6405076,56.0888672" id="Path-96"></path>
                    <path d="M68.5371094,25.8955078 C68.5371094,25.8955078 110.225586,-12.0419924 170.204076,25.8955078" id="Path-97"></path>
                    <path d="M81.7763672,29.0400389 C81.7763672,29.0400389 117.295898,2.97265611 158.173828,30.5966792" id="Path-99"></path>
                    <path d="M20.4389648,59.1928713 C20.4389648,59.1928713 52.4736328,33.7241212 83.3374023,60.7768554" id="Path-100"></path>
                    <path d="M153.952148,59.0292973 C153.952148,59.0292973 181.562988,32.6464846 214.029297,61.1606448" id="Path-101"></path>
                </g>
                <g id="Group" transform="translate(10.000000, 82.000000)" stroke="#AFDBC0" sketch:type="MSShapeGroup">
                    <g transform="translate(14.000000, 37.000000)" id="Shape" stroke-width="2" fill="#E4CDEA">
                        <path d="M0.903,0.285 L0.903,30.268"></path>
                    </g>
                    <g stroke-width="3">
                        <path d="M28.345,14.083 C28.345,6.351 22.217,0.083 14.657,0.083 C7.097,0.083 0.969,6.351 0.969,14.083 C0.969,18.024 3.502,24.214 6.503,28.09 C11.184,34.134 14.656,38.452 14.656,38.452 C14.656,38.452 18.363,33.77 21.999,28.999 C25.597,24.278 28.345,17.952 28.345,14.083 L28.345,14.083 Z" id="Shape"></path>
                        <ellipse id="Oval" cx="14.657" cy="13.985" rx="6.97" ry="7.129"></ellipse>
                    </g>
                </g>
                <g id="Group" transform="translate(139.000000, 52.000000)" stroke="#AFDBC0" sketch:type="MSShapeGroup">
                    <g transform="translate(14.000000, 37.000000)" id="Shape" stroke-width="2" fill="#AFDBC0">
                        <path d="M0.842,0.354 L0.842,30.336"></path>
                    </g>
                    <g stroke-width="3">
                        <path d="M28.283,14.151 C28.283,6.419 22.155,0.151 14.595,0.151 C7.035,0.151 0.907,6.419 0.907,14.151 C0.907,18.092 3.44,24.282 6.441,28.158 C11.122,34.202 14.594,38.52 14.594,38.52 C14.594,38.52 18.301,33.838 21.937,29.067 C25.535,24.347 28.283,18.021 28.283,14.151 L28.283,14.151 Z" id="Shape"></path>
                        <ellipse id="Oval" cx="14.596" cy="14.054" rx="6.97" ry="7.129"></ellipse>
                    </g>
                </g>
                <path d="M229.090909,105.586207 L231.994367,105.586207 C236.424189,105.586207 240,109.163687 240,113.576733 L240,114.009474 C240,118.418206 236.415756,122 231.994367,122 L198.005633,122 C193.575811,122 190,118.42252 190,114.009474 L190,113.576733 C190,109.168001 193.584244,105.586207 198.005633,105.586207 L201.822844,105.586207 C201.96807,101.293316 205.487682,97.862069 209.808254,97.862069 L210.191746,97.862069 C211.367572,97.862069 212.485675,98.1179746 213.492904,98.5773599 C214.773854,95.8705497 217.527277,94 220.717345,94 L221.100837,94 C225.49984,94 229.090909,97.5818057 229.090909,102.000187 L229.090909,105.586207 Z" id="Rectangle-854" stroke="#AFDBC0" stroke-width="3" fill="#FFFFFF" sketch:type="MSShapeGroup"></path>
                <path d="M98.0950531,84.0344828 L99.6529414,84.0344828 C102.410141,84.0344828 104.640508,86.2653398 104.640508,89.0172414 C104.640508,91.7635434 102.407498,94 99.6529414,94 L79.6280739,94 C76.8708742,94 74.6405076,91.769143 74.6405076,89.0172414 C74.6405076,86.2709393 76.8735171,84.0344828 79.6280739,84.0344828 L81.7363848,84.0344828 C81.8528935,81.4275081 84.0039759,79.3448276 86.6405076,79.3448276 C87.3928309,79.3448276 88.1063195,79.5148662 88.7444054,79.8187067 C89.5301723,78.1537543 91.2236037,77 93.1859622,77 C95.8916614,77 98.0950531,79.1993668 98.0950531,81.9124231 L98.0950531,84.0344828 Z" id="Rectangle-857" stroke="#AFDBC0" stroke-width="2.5" fill="#FFFFFF" sketch:type="MSShapeGroup"></path>
                <g id="Group" transform="translate(25.000000, 38.000000)" fill="#AFDBC0" sketch:type="MSShapeGroup">
                    <path d="M34.1716,18.7122353 L34.1676,4.56152941 C34.1684,2.19841176 32.3008,0.275470588 30.0044,0.275470588 L9.9996,0.275470588 C7.704,0.275470588 5.836,2.198 5.836,4.56152941 L5.836,18.7089412 L0.3476,22.7434118 C0.146,22.911 0,23.1518824 0,23.4384706 C0,25.8015882 2.2424,27.7245294 4.9984,27.7245294 L35.0048,27.7245294 C37.7588,27.7245294 39.9996,25.802 39.9996,23.4384706 C40,23.1522941 39.8544,22.911 39.644,22.7561765 L34.1716,18.7122353 Z M9.9996,1.98305882 L30.0044,1.98305882 C31.3852,1.98305882 32.5096,3.13970588 32.5096,4.56152941 L32.5088,4.56152941 L32.5088,18.2947059 L7.4948,18.2947059 L7.4948,4.56152941 C7.4948,3.14011765 8.6188,1.98305882 9.9996,1.98305882 L9.9996,1.98305882 Z M3.418,22.5803529 L6.96582188,20.0639648 L33.1074219,20.0639648 L36.584,22.5803529 L22.5068,22.5803529 C22.5068,22.9315882 21.8556,23.4425882 20.836,23.4425882 L19.168,23.4425882 C18.1484,23.4425882 17.4972,22.932 17.4972,22.5803529 L3.418,22.5803529 L3.418,22.5803529 Z M35.006,26.0169412 L4.9984,26.0169412 C3.5464,26.0169412 2.3204,25.2934706 1.8616,24.2924706 L16.6824,24.2924706 C17.288,24.8178824 18.1648,25.1505882 19.168,25.1505882 L20.8356,25.1505882 C21.8388,25.1505882 22.7156,24.8178824 23.3212,24.2924706 L38.1384,24.2924706 C37.6804,25.2934706 36.456,26.0169412 35.006,26.0169412 L35.006,26.0169412 Z" id="Shape"></path>
                    <path d="M15.3624,6.06694118 C15.2888,5.93311765 15.15,5.85076471 15.0012,5.85076471 L13.33,5.85076471 L13.33,4.56152941 C13.33,4.09005882 12.9588,3.70794118 12.5008,3.70794118 C12.0428,3.70794118 11.6716,4.09005882 11.6716,4.56152941 L11.6716,5.85076471 L10.0004,5.85076471 C9.8508,5.85076471 9.7132,5.93311765 9.6396,6.06694118 C9.566,6.20117647 9.568,6.36547059 9.6448,6.49723529 L12.1456,10.7874118 C12.2204,10.9158824 12.3552,10.9945294 12.5012,10.9945294 C12.6472,10.9945294 12.782,10.9158824 12.8568,10.7874118 L15.3576,6.49723529 C15.4336,6.36547059 15.4352,6.20117647 15.3624,6.06694118 L15.3624,6.06694118 Z" id="Shape"></path>
                    <ellipse id="Oval" cx="9.5948" cy="10.8215882" rx="0.84" ry="0.864705882"></ellipse>
                    <ellipse id="Oval" cx="10.7288" cy="13.1126471" rx="0.84" ry="0.864705882"></ellipse>
                    <ellipse id="Oval" cx="13.2484" cy="13.1126471" rx="0.84" ry="0.864705882"></ellipse>
                    <ellipse id="Oval" cx="15.4744" cy="11.9024706" rx="0.84" ry="0.864705882"></ellipse>
                    <ellipse id="Oval" cx="16.7764" cy="9.56776471" rx="0.84" ry="0.864705882"></ellipse>
                    <ellipse id="Oval" cx="18.2044" cy="7.406" rx="0.84" ry="0.864705882"></ellipse>
                    <ellipse id="Oval" cx="20.0524" cy="5.50364706" rx="0.84" ry="0.864705882"></ellipse>
                    <ellipse id="Oval" cx="22.446" cy="4.59570588" rx="0.84" ry="0.864705882"></ellipse>
                    <ellipse id="Oval" cx="25.008" cy="4.81188235" rx="0.84" ry="0.864705882"></ellipse>
                    <ellipse id="Oval" cx="27.402" cy="5.80629412" rx="0.84" ry="0.864705882"></ellipse>
                    <ellipse id="Oval" cx="29.04" cy="7.88158824" rx="0.84" ry="0.864705882"></ellipse>
                    <ellipse id="Oval" cx="29.418" cy="10.4757059" rx="0.84" ry="0.864705882"></ellipse>
                    <ellipse id="Oval" cx="28.494" cy="12.8532353" rx="0.84" ry="0.864705882"></ellipse>
                    <ellipse id="Oval" cx="26.646" cy="14.7123529" rx="0.84" ry="0.864705882"></ellipse>
                    <ellipse id="Oval" cx="24.168" cy="15.4041176" rx="0.84" ry="0.864705882"></ellipse>
                    <ellipse id="Oval" cx="21.648" cy="14.8420588" rx="0.84" ry="0.864705882"></ellipse>
                    <ellipse id="Oval" cx="20.2624" cy="12.6802941" rx="0.84" ry="0.864705882"></ellipse>
                    <ellipse id="Oval" cx="21.0604" cy="10.3027647" rx="0.84" ry="0.864705882"></ellipse>
                    <ellipse id="Oval" cx="23.496" cy="9.87041176" rx="0.84" ry="0.864705882"></ellipse>
                    <ellipse id="Oval" cx="24.168" cy="12.2483529" rx="0.84" ry="0.864705882"></ellipse>
                </g>
            </g>
        </g>
    </g>
</svg>