<?xml version="1.0" encoding="utf-8"?>
<!-- Generator: Adobe Illustrator 18.1.1, SVG Export Plug-In . SVG Version: 6.00 Build 0)  -->
<!DOCTYPE svg PUBLIC "-//W3C//DTD SVG 1.1//EN" "http://www.w3.org/Graphics/SVG/1.1/DTD/svg11.dtd">
<svg version="1.1" id="Layer_1" xmlns="http://www.w3.org/2000/svg" xmlns:xlink="http://www.w3.org/1999/xlink" x="0px" y="0px"
	 viewBox="0 0 210 210" style="enable-background:new 0 0 210 210;" xml:space="preserve">
<style type="text/css">
	.st0{fill:none;stroke:#FFFFFF;stroke-width:2.549;}
</style>
<g>
	<path class="st0" d="M61.9,112c0,3.8-3.3,6.5-5.9,4.5V112V95.5v50.2c0,2.9-2.4,5.2-5.4,5.2s-5.4-2.3-5.4-5.2v-29.2h-3.1v29.2
		c0,2.9-2.4,5.2-5.4,5.2s-5.4-2.3-5.4-5.2V95.5V112v4.5c-2.2,1.4-5.9,0.1-5.9-4.5V86.3c0-2.8,1.3-4.1,4-4.1h27
		c3.6,0,5.4,0.5,5.4,4.1L61.9,112L61.9,112z M43.6,78.4c-5.2,0-9.5-4.1-9.5-9.2s4.2-9.2,9.5-9.2c5.2,0,9.5,4.1,9.5,9.2
		C53.1,74.2,48.9,78.4,43.6,78.4L43.6,78.4z"/>
	<path class="st0" d="M128.9,113.7c0,4.8-4.2,8.2-7.4,5.6v-5.6V93.1v62.7c0,3.7-3,6.6-6.7,6.6s-6.7-2.9-6.7-6.6v-36.5h-3.8v36.5
		c0,3.7-3,6.6-6.7,6.6s-6.7-2.9-6.7-6.6V93.1v20.6v5.6c-2.7,1.8-7.4,0.2-7.4-5.6V81.5c0-3.5,1.6-5.1,5-5.1h33.7
		c4.5,0,6.7,0.6,6.7,5.1L128.9,113.7L128.9,113.7z M106,71.6c-6.6,0-11.8-5.1-11.8-11.5s5.3-11.5,11.8-11.5
		c6.6,0,11.8,5.1,11.8,11.5C117.8,66.4,112.6,71.6,106,71.6L106,71.6z"/>
	<path class="st0" d="M186.7,112c0,3.8-3.3,6.5-5.9,4.5V112V95.5v50.2c0,2.9-2.4,5.2-5.4,5.2c-2.9,0-5.4-2.3-5.4-5.2v-29.2H167v29.2
		c0,2.9-2.4,5.2-5.4,5.2s-5.4-2.3-5.4-5.2V95.5V112v4.5c-2.2,1.4-5.9,0.1-5.9-4.5V86.3c0-2.8,1.3-4.1,4-4.1h27
		c3.6,0,5.4,0.5,5.4,4.1L186.7,112L186.7,112z M168.6,78.4c-5.2,0-9.5-4.1-9.5-9.2s4.2-9.2,9.5-9.2s9.5,4.1,9.5,9.2
		C178,74.2,173.8,78.4,168.6,78.4L168.6,78.4z"/>
</g>
</svg>
