<?xml version="1.0" encoding="utf-8"?>
<!-- Generator: Adobe Illustrator 18.1.1, SVG Export Plug-In . SVG Version: 6.00 Build 0)  -->
<!DOCTYPE svg PUBLIC "-//W3C//DTD SVG 1.1//EN" "http://www.w3.org/Graphics/SVG/1.1/DTD/svg11.dtd">
<svg version="1.1" id="Layer_1" xmlns="http://www.w3.org/2000/svg" xmlns:xlink="http://www.w3.org/1999/xlink" x="0px" y="0px"
	 viewBox="0 0 210 210" style="enable-background:new 0 0 210 210;" xml:space="preserve">
<style type="text/css">
	.st0{fill:none;stroke:#FFFFFF;stroke-width:2.549;stroke-linejoin:round;stroke-miterlimit:10;}
	.st1{fill:none;stroke:#FFFFFF;stroke-width:2.549;stroke-linecap:round;stroke-linejoin:round;stroke-miterlimit:10;}
</style>
<g>
	<path class="st0" d="M169.1,155.3H44.9c-1.4,0-2.4-1-2.4-2.4V72.7c0-1.4,1-2.4,2.4-2.4h124.4c1.4,0,2.4,1,2.4,2.4v80.2
		C171.5,154.3,170.5,155.3,169.1,155.3z"/>
	<path class="st1" d="M132.5,69.8h-51c-0.5,0-0.7-0.2-0.7-0.7V54.9c0-0.5,0.2-0.7,0.7-0.7h50.8c0.5,0,0.7,0.2,0.7,0.7v14.2
		C133,69.6,132.7,69.8,132.5,69.8z"/>
	<line class="st0" x1="41.5" y1="112.4" x2="93.3" y2="112.4"/>
	<line class="st0" x1="120.5" y1="112.4" x2="172.3" y2="112.4"/>
	<path class="st1" d="M120.2,123H93.7c-0.2,0-0.5-0.2-0.5-0.5v-22.4c0-0.2,0.2-0.5,0.5-0.5h26.5c0.2,0,0.5,0.2,0.5,0.5v22.1
		C120.7,122.8,120.4,123,120.2,123z"/>
	<path class="st1" d="M139.4,69.9H74.5c-0.4,0-0.7-0.3-0.7-0.7V48.8c0-0.4,0.3-0.7,0.7-0.7h64.8c0.4,0,0.7,0.3,0.7,0.7V69
		C140,69.6,139.6,69.9,139.4,69.9z"/>
</g>
</svg>
