<?xml version="1.0" encoding="UTF-8" standalone="no"?>
<svg width="22px" height="22px" viewBox="0 0 22 22" version="1.1" xmlns="http://www.w3.org/2000/svg" xmlns:xlink="http://www.w3.org/1999/xlink" xmlns:sketch="http://www.bohemiancoding.com/sketch/ns">
    <!-- Generator: Sketch 3.3.3 (12081) - http://www.bohemiancoding.com/sketch -->
    <title>icon tlm</title>
    <desc>Created with Sketch.</desc>
    <defs></defs>
    <g id="Page-1" stroke="none" stroke-width="1" fill="none" fill-rule="evenodd" sketch:type="MSPage">
        <g id="icon-tlm" sketch:type="MSLayerGroup" fill="#FFFFFF">
            <path d="M13.846,4.888 C13.85,3.027 15.356,1.52 17.218,1.515 C19.08,1.52 20.586,3.027 20.589,4.888 C20.586,6.748 19.08,8.255 17.218,8.258 C15.356,8.255 13.85,6.748 13.846,4.888 M17.218,0.517 C14.803,0.517 12.847,2.473 12.847,4.888 L13.846,4.888 L12.847,4.888 C12.847,5.732 13.086,6.52 13.5,7.188 L13.724,7.046 L14.259,7.89 L14.124,7.975 C14.915,8.768 16.009,9.258 17.218,9.258 C19.632,9.258 21.588,7.302 21.588,4.888 C21.588,2.473 19.632,0.517 17.218,0.517" id="Fill-1" sketch:type="MSShapeGroup"></path>
            <path d="M4.314,10.516 C2.256,10.516 0.589,12.184 0.589,14.243 C0.589,16.3 2.256,17.967 4.314,17.967 C5.662,17.967 6.842,17.253 7.496,16.182 L7.032,15.996 L7.403,15.068 L7.898,15.265 C7.991,14.94 8.041,14.597 8.041,14.243 L7.04,14.243 C7.037,15.749 5.82,16.965 4.314,16.968 C2.809,16.965 1.591,15.747 1.588,14.243 C1.591,12.736 2.809,11.519 4.314,11.516 C5.819,11.519 7.037,12.736 7.04,14.243 L8.041,14.243 C8.041,13.499 7.823,12.806 7.448,12.225 L7.163,12.405 L6.626,11.562 L6.79,11.457 C6.132,10.871 5.265,10.516 4.314,10.516" id="Fill-2" sketch:type="MSShapeGroup"></path>
            <path d="M16.25,15.356 C14.898,15.356 13.748,16.227 13.334,17.44 L13.855,17.648 L13.539,18.436 L14.169,18.436 C14.171,17.286 15.101,16.358 16.25,16.354 C17.398,16.358 18.328,17.286 18.331,18.436 C18.328,19.585 17.398,20.514 16.25,20.516 C15.101,20.514 14.171,19.585 14.169,18.436 L13.539,18.436 L13.483,18.577 L13.169,18.451 C13.177,20.145 14.554,21.515 16.25,21.515 C17.952,21.515 19.33,20.137 19.33,18.436 C19.33,16.734 17.952,15.356 16.25,15.356" id="Fill-3" sketch:type="MSShapeGroup"></path>
            <path d="M7.403,15.068 L7.032,15.996 L7.496,16.182 L13.169,18.451 L13.483,18.577 L13.539,18.436 L13.855,17.648 L13.334,17.44 L7.898,15.265 L7.403,15.068" id="Fill-4" sketch:type="MSShapeGroup"></path>
            <path d="M13.724,7.046 L13.5,7.188 L6.79,11.457 L6.626,11.562 L7.163,12.405 L7.448,12.225 L14.124,7.975 L14.259,7.89 L13.724,7.046" id="Fill-5" sketch:type="MSShapeGroup"></path>
        </g>
    </g>
</svg>