<?xml version="1.0" encoding="UTF-8" standalone="no"?>
<svg width="24px" height="19px" viewBox="0 0 24 19" version="1.1" xmlns="http://www.w3.org/2000/svg" xmlns:xlink="http://www.w3.org/1999/xlink" xmlns:sketch="http://www.bohemiancoding.com/sketch/ns">
    <!-- Generator: Sketch 3.3.3 (12081) - http://www.bohemiancoding.com/sketch -->
    <title>icon tools</title>
    <desc>Created with Sketch.</desc>
    <defs></defs>
    <g id="Page-1" stroke="none" stroke-width="1" fill="none" fill-rule="evenodd" sketch:type="MSPage">
        <g id="icon-tools" sketch:type="MSLayerGroup" fill="#FFFFFF">
            <path d="M1.507,7.731 L1.507,4.095 L22.67,4.095 L22.67,7.731 L23.169,7.731 L23.169,8.732 L22.67,8.732 L22.67,17.005 L1.507,17.005 L1.507,8.732 L1.009,8.732 L1.009,7.731 L1.507,7.731 M22.67,3.595 L23.169,3.595 L22.67,3.595 M23.669,3.095 L16.017,3.095 C16.065,3.383 16.065,3.574 16.066,3.595 L15.066,3.595 L15.066,3.589 L15.065,3.548 L15.047,3.376 C15.037,3.296 15.021,3.201 14.997,3.095 L9.18,3.095 C9.126,3.337 9.113,3.522 9.113,3.58 L9.113,3.595 L8.112,3.595 C8.112,3.574 8.113,3.383 8.161,3.095 L0.508,3.095 L0.508,18.004 L23.669,18.004 L23.669,3.095" id="Fill-1" sketch:type="MSShapeGroup"></path>
            <path d="M23.169,7.731 L1.009,7.731 L1.009,8.732 L9.657,8.732 L9.657,8.232 L10.657,8.232 L10.657,8.732 L13.521,8.732 L13.521,8.232 L14.52,8.232 L14.52,8.732 L23.169,8.732 L23.169,7.731" id="Fill-2" sketch:type="MSShapeGroup"></path>
            <path d="M14.52,8.232 L13.521,8.232 L13.521,10.051 L10.657,10.051 L10.657,8.232 L9.657,8.232 L9.657,11.05 L14.52,11.05 L14.52,8.232" id="Fill-3" sketch:type="MSShapeGroup"></path>
            <path d="M12.1,0.005 L12.079,0.005 C11.141,0.005 10.395,0.217 9.825,0.557 C8.959,1.07 8.528,1.842 8.321,2.457 C8.242,2.696 8.191,2.914 8.161,3.095 C8.113,3.383 8.112,3.574 8.112,3.595 L9.113,3.595 L9.113,3.58 C9.113,3.522 9.126,3.337 9.18,3.095 C9.241,2.827 9.352,2.489 9.555,2.175 C9.747,1.872 10.014,1.59 10.411,1.373 C10.809,1.158 11.342,1.005 12.089,1.004 C12.885,1.005 13.439,1.178 13.845,1.418 C14.447,1.775 14.749,2.307 14.91,2.778 C14.947,2.89 14.976,2.997 14.997,3.095 C15.021,3.201 15.037,3.296 15.047,3.376 L15.065,3.548 L15.066,3.589 L15.066,3.595 L16.066,3.595 C16.065,3.574 16.065,3.383 16.017,3.095 C15.96,2.758 15.837,2.29 15.567,1.804 C15.316,1.357 14.928,0.897 14.354,0.557 C13.783,0.217 13.037,0.005 12.1,0.005" id="Fill-4" sketch:type="MSShapeGroup"></path>
        </g>
    </g>
</svg>