<?xml version="1.0" encoding="utf-8"?>
<!-- Generator: Adobe Illustrator 16.0.0, SVG Export Plug-In . SVG Version: 6.00 Build 0)  -->
<!DOCTYPE svg PUBLIC "-//W3C//DTD SVG 1.1//EN" "http://www.w3.org/Graphics/SVG/1.1/DTD/svg11.dtd">
<svg version="1.1" id="Layer_1" xmlns="http://www.w3.org/2000/svg" xmlns:xlink="http://www.w3.org/1999/xlink" x="0px" y="0px"
	 width="130.908px" height="127.273px" viewBox="0 0 130.908 127.273" enable-background="new 0 0 130.908 127.273"
	 xml:space="preserve">
<path fill="none" stroke="#FFFFFF" stroke-width="3" stroke-miterlimit="10" d="M106.28,105.162c0,3.977-3.224,7.201-7.2,7.201
	H35.481c-3.977,0-7.2-3.225-7.2-7.201v-86.6c0-3.977,3.224-7.199,7.2-7.199H99.08c3.977,0,7.2,3.223,7.2,7.199V105.162z"/>
<line fill="none" stroke="#FFFFFF" stroke-width="3" stroke-miterlimit="10" x1="43.669" y1="77.252" x2="91.908" y2="77.252"/>
<line fill="none" stroke="#FFFFFF" stroke-width="3" stroke-miterlimit="10" x1="43.669" y1="85.752" x2="91.908" y2="85.752"/>
<line fill="none" stroke="#FFFFFF" stroke-width="3" stroke-miterlimit="10" x1="43.669" y1="94.252" x2="91.908" y2="94.252"/>
<line fill="none" stroke="#FFFFFF" stroke-width="3" stroke-miterlimit="10" x1="43.669" y1="30.604" x2="91.908" y2="30.604"/>
<line fill="none" stroke="#FFFFFF" stroke-width="3" stroke-miterlimit="10" x1="43.669" y1="39.104" x2="75.575" y2="39.104"/>
<rect x="45.001" y="49.631" fill="none" stroke="#FFFFFF" stroke-width="3" stroke-miterlimit="10" width="45.236" height="17"/>
<g>
	<polygon fill="#FFFFFF" points="93,32.727 83,41.227 83,12 93,12 	"/>
	<polygon fill="#FFFFFF" points="87,32.727 97,41.227 97,12 87,12 	"/>
</g>
</svg>
