<?xml version="1.0" encoding="UTF-8" standalone="no"?>
<svg width="22px" height="28px" viewBox="0 0 22 28" version="1.1" xmlns="http://www.w3.org/2000/svg" xmlns:xlink="http://www.w3.org/1999/xlink" xmlns:sketch="http://www.bohemiancoding.com/sketch/ns">
    <!-- Generator: Sketch 3.3.3 (12081) - http://www.bohemiancoding.com/sketch -->
    <title>icon clubs</title>
    <desc>Created with Sketch.</desc>
    <defs></defs>
    <g id="Page-1" stroke="none" stroke-width="1" fill="none" fill-rule="evenodd" sketch:type="MSPage">
        <g id="icon-clubs" sketch:type="MSLayerGroup" fill="#FFFFFF">
            <path d="M4.678,21.326 L4.655,21.346 L4.679,21.328 L4.678,21.326 M9.645,0.493 L9.645,1.493 L9.648,1.493 C12.461,1.493 15.125,2.736 17.085,4.696 C19.046,6.656 20.288,9.321 20.288,12.136 C20.288,14.95 19.046,17.615 17.085,19.576 C15.124,21.537 12.458,22.78 9.645,22.779 C7.646,22.778 6.389,22.381 5.637,22.007 C5.263,21.818 5.013,21.635 4.862,21.505 L4.706,21.358 L4.679,21.328 L3.88,21.929 C3.95,22.037 5.271,23.65 9.145,23.771 L9.145,22.866 L10.144,22.866 L10.144,23.766 C13.066,23.629 15.778,22.298 17.791,20.282 C19.92,18.154 21.285,15.247 21.287,12.136 C21.285,9.024 19.92,6.117 17.791,3.989 C15.663,1.859 12.756,0.493 9.645,0.493" id="Fill-1" sketch:type="MSShapeGroup"></path>
            <path d="M9.645,3.382 C4.809,3.382 0.891,7.3 0.891,12.136 C0.891,16.969 4.809,20.89 9.645,20.89 C14.478,20.89 18.398,16.969 18.398,12.136 L17.398,12.136 C17.398,14.279 16.53,16.213 15.128,17.619 C13.722,19.023 11.787,19.889 9.645,19.889 C7.5,19.889 5.566,19.023 4.161,17.619 C2.757,16.215 1.891,14.279 1.89,12.136 C1.891,9.993 2.757,8.057 4.161,6.653 C5.566,5.248 7.5,4.382 9.645,4.382 C11.787,4.382 13.722,5.248 15.128,6.653 C16.53,8.058 17.398,9.993 17.398,12.136 L18.398,12.136 C18.398,7.3 14.478,3.382 9.645,3.382" id="Fill-2" sketch:type="MSShapeGroup"></path>
            <path d="M9.145,26.081 L10.144,26.081 L10.144,22.866 L9.145,22.866 L9.145,26.081 Z" id="Fill-3" sketch:type="MSShapeGroup"></path>
            <path d="M5.518,27.08 L13.771,27.08 L13.771,26.081 L5.518,26.081 L5.518,27.08 Z" id="Fill-4" sketch:type="MSShapeGroup"></path>
        </g>
    </g>
</svg>