<svg id="Layer_1" data-name="Layer 1" xmlns="http://www.w3.org/2000/svg" viewBox="0 0 25 25"><defs><style>.cls-1{fill:#fff}</style></defs><title>navigation-icon_web-literacy</title><path class="cls-1" d="M24.22 8.95l-.08-.24-.08-.24a11.62 11.62 0 0 0-2.3-4l-.17-.19-.07-.07-.1-.12a11.55 11.55 0 0 0-3.73-2.7l-.23-.1-.2-.09a11.64 11.64 0 0 0-4.51-1h-.5a11.64 11.64 0 0 0-4.5 1l-.23.1-.23.1a11.63 11.63 0 0 0-3.72 2.71l-.17.19-.17.19a11.62 11.62 0 0 0-2.3 4l-.08.24-.08.24a11.63 11.63 0 0 0-.48 4.58v.5a11.61 11.61 0 0 0 1.48 4.35l.13.22.1.22a11.63 11.63 0 0 0 3.1 3.41l.2.15.2.16a11.64 11.64 0 0 0 4.2 1.87l.3.05.24.05a12 12 0 0 0 2.3.24 12 12 0 0 0 2.3-.24l.16-.05.25-.05a11.64 11.64 0 0 0 4.2-1.87l.2-.15.2-.15A11.65 11.65 0 0 0 23 18.83l.13-.22.13-.22A11.61 11.61 0 0 0 24.65 14v-.5a11.63 11.63 0 0 0-.43-4.55zM14.35 19.4a7.08 7.08 0 0 1-5.42-.71 6.73 6.73 0 0 1-2.48-2.4l3.38-1.95a3.24 3.24 0 0 0 5.36 0l3.38 1.95a7.09 7.09 0 0 1-4.22 3.11zM5.6 10.65a7.09 7.09 0 0 1 3.33-4.33 6.73 6.73 0 0 1 3.32-1v3.96a3.21 3.21 0 0 0-2.67 4.62l-3.38 2a7.09 7.09 0 0 1-.6-5.25zm6.9 4.6a2.75 2.75 0 1 1 2.75-2.75 2.75 2.75 0 0 1-2.75 2.75zm6.3.6l-3.38-2a3.21 3.21 0 0 0-2.67-4.62V5.36a7.15 7.15 0 0 1 6.89 7.14 6.73 6.73 0 0 1-.84 3.35zm5.41-2.38l-4.1-.47v-.54a7.61 7.61 0 0 0-.31-2.13l3.96-1.23a11.12 11.12 0 0 1 .46 4.37zm-.61-4.85L19.67 9.9a7.64 7.64 0 0 0-1.34-2.32L20.07 6l1.33-1.19a11.1 11.1 0 0 1 2.2 3.81zm-6.09-6.76a11 11 0 0 1 3.56 2.58l-.94.84L18 7.21a7.67 7.67 0 0 0-2.17-1.57l.33-.75zm-.46-.21l-1.32 3-.36.81a7.58 7.58 0 0 0-2.62-.55V.74a11.13 11.13 0 0 1 4.3.91zm-4.8-.92v4.15a7.28 7.28 0 0 0-2.63.54L7.95 1.65a11.13 11.13 0 0 1 4.3-.91zM7.49 1.86l1.68 3.78c-.17.08-.33.15-.49.24A7.67 7.67 0 0 0 7 7.2L3.93 4.44a11.12 11.12 0 0 1 3.56-2.58zm-3.89 3l3.07 2.72A7.57 7.57 0 0 0 5.32 9.9L1.4 8.62a11.1 11.1 0 0 1 2.2-3.81zM1.24 9.1l3.93 1.28v.15A7.64 7.64 0 0 0 4.88 13l-4.1.43a11.12 11.12 0 0 1 .46-4.33zM.84 14l4.09-.43a7.61 7.61 0 0 0 .84 2.55l-3.58 2.03A11.07 11.07 0 0 1 .84 14zm1.61 4.62L6 16.52a7.27 7.27 0 0 0 1.79 2l-2.4 3.34a11.11 11.11 0 0 1-2.95-3.27zm5.77.22c.15.1.3.21.46.3a7.66 7.66 0 0 0 2 .8l-.86 4a11.12 11.12 0 0 1-4-1.79zM10.3 24l.86-4a7.51 7.51 0 0 0 1.33.13 7.67 7.67 0 0 0 1.35-.13l.86 4a11.21 11.21 0 0 1-4.4 0zm4.89-.1l-.86-4h.15a7.64 7.64 0 0 0 2.31-1.06l2.42 3.33a11.12 11.12 0 0 1-4.02 1.77zm4.42-2.08l-2.42-3.33a7.61 7.61 0 0 0 1.79-2l3.57 2.06a11.12 11.12 0 0 1-2.94 3.31zm3.19-3.7l-3.58-2.06a7.27 7.27 0 0 0 .84-2.55l4.1.49a11.07 11.07 0 0 1-1.35 4.15z"/></svg>