<?xml version="1.0" encoding="utf-8"?>
<!-- Generator: Adobe Illustrator 16.0.0, SVG Export Plug-In . SVG Version: 6.00 Build 0)  -->
<!DOCTYPE svg PUBLIC "-//W3C//DTD SVG 1.1//EN" "http://www.w3.org/Graphics/SVG/1.1/DTD/svg11.dtd">
<svg version="1.1" id="Layer_1" xmlns="http://www.w3.org/2000/svg" xmlns:xlink="http://www.w3.org/1999/xlink" x="0px" y="0px"
	 width="130.908px" height="127.273px" viewBox="0 0 130.908 127.273" enable-background="new 0 0 130.908 127.273"
	 xml:space="preserve">
<g>
	<path fill="none" stroke="#FFFFFF" stroke-width="3" stroke-miterlimit="10" d="M81.542,36.334c0-7.732-6.128-14-13.688-14
		s-13.688,6.268-13.688,14c0,3.941,2.533,10.131,5.534,14.007c4.681,6.044,8.153,10.362,8.153,10.362s3.707-4.682,7.343-9.453
		C78.794,46.529,81.542,40.203,81.542,36.334z"/>
	<ellipse fill="none" stroke="#FFFFFF" stroke-width="3" stroke-miterlimit="10" cx="67.854" cy="36.236" rx="6.97" ry="7.129"/>
</g>
<g>
	<path fill="none" stroke="#FFFFFF" stroke-width="3" stroke-miterlimit="10" d="M52.33,73.408c0-7.732-6.129-14-13.688-14
		c-7.561,0-13.688,6.268-13.688,14c0,3.941,2.533,10.132,5.534,14.008c4.681,6.043,8.153,10.361,8.153,10.361
		s3.707-4.682,7.342-9.453C49.582,83.604,52.33,77.277,52.33,73.408z"/>
	<ellipse fill="none" stroke="#FFFFFF" stroke-width="3" stroke-miterlimit="10" cx="38.642" cy="73.312" rx="6.97" ry="7.129"/>
</g>
<g>
	<path fill="none" stroke="#FFFFFF" stroke-width="3" stroke-miterlimit="10" d="M110.754,73.408c0-7.732-6.128-14-13.688-14
		s-13.688,6.268-13.688,14c0,3.941,2.533,10.132,5.535,14.008c4.68,6.043,8.152,10.361,8.152,10.361s3.707-4.682,7.343-9.453
		C108.006,83.604,110.754,77.277,110.754,73.408z"/>
	<ellipse fill="none" stroke="#FFFFFF" stroke-width="3" stroke-miterlimit="10" cx="97.066" cy="73.312" rx="6.97" ry="7.129"/>
</g>
<polyline fill="none" stroke="#FFFFFF" stroke-width="3" stroke-miterlimit="10" points="39.404,96.847 67.734,60.721 96.89,97.422 
	"/>
</svg>
