<?xml version="1.0" encoding="UTF-8" standalone="no"?>
<svg width="29px" height="17px" viewBox="0 0 29 17" version="1.1" xmlns="http://www.w3.org/2000/svg" xmlns:xlink="http://www.w3.org/1999/xlink" xmlns:sketch="http://www.bohemiancoding.com/sketch/ns">
    <!-- Generator: Sketch 3.3.3 (12081) - http://www.bohemiancoding.com/sketch -->
    <title>icon community</title>
    <desc>Created with Sketch.</desc>
    <defs></defs>
    <g id="Page-1" stroke="none" stroke-width="1" fill="none" fill-rule="evenodd" sketch:type="MSPage">
        <g id="icon-community" sketch:type="MSLayerGroup" fill="#FFFFFF">
            <path d="M14.071,15.022 C12.716,15.022 11.36,14.823 10.397,14.442 C9.913,14.25 9.533,14.015 9.295,13.767 C9.06,13.514 8.955,13.279 8.95,12.98 C8.953,11.193 9.871,9.575 11.356,8.621 L11.844,8.308 L11.462,7.87 C10.898,7.225 10.575,6.391 10.575,5.536 C10.575,4.571 10.97,3.695 11.608,3.055 C12.248,2.417 13.125,2.022 14.088,2.022 C15.053,2.022 15.929,2.417 16.569,3.055 C17.208,3.695 17.602,4.571 17.602,5.536 C17.602,6.391 17.28,7.225 16.714,7.87 L16.332,8.308 L16.822,8.621 C18.307,9.575 19.225,11.193 19.225,12.98 C19.222,13.288 19.117,13.529 18.881,13.782 C18.528,14.156 17.846,14.489 16.988,14.702 C16.133,14.917 15.111,15.022 14.088,15.022 L14.071,15.022 M14.088,1.023 C11.605,1.024 9.578,3.051 9.576,5.536 C9.576,6.455 9.861,7.345 10.371,8.093 C10.343,8.114 10.316,8.136 10.289,8.158 C10.378,8.356 10.456,8.56 10.521,8.768 L9.568,9.066 C9.55,9.009 9.53,8.952 9.51,8.895 C8.794,9.7 8.294,10.681 8.076,11.75 C8.11,11.74 8.143,11.73 8.175,11.72 L8.48,12.671 C8.31,12.726 8.135,12.775 7.955,12.818 C7.953,12.871 7.952,12.926 7.952,12.98 C7.949,13.556 8.197,14.072 8.576,14.461 C9.147,15.047 9.983,15.415 10.942,15.662 C11.903,15.908 12.996,16.022 14.088,16.022 C15.543,16.02 16.998,15.831 18.146,15.384 C18.719,15.157 19.222,14.867 19.603,14.473 C19.983,14.082 20.228,13.56 20.225,12.98 C20.225,12.926 20.224,12.872 20.223,12.818 C20.042,12.775 19.867,12.726 19.695,12.671 L20.003,11.72 C20.035,11.73 20.068,11.74 20.101,11.75 C19.883,10.681 19.384,9.699 18.668,8.895 C18.647,8.952 18.628,9.009 18.61,9.066 L17.656,8.768 C17.722,8.56 17.8,8.356 17.889,8.158 C17.862,8.136 17.834,8.114 17.806,8.092 C18.317,7.345 18.602,6.455 18.602,5.536 C18.6,3.051 16.573,1.024 14.088,1.023" id="Fill-1" sketch:type="MSShapeGroup"></path>
            <path d="M5.387,0.023 C4.289,0.023 3.287,0.46 2.566,1.174 C1.844,1.887 1.395,2.884 1.395,3.986 C1.396,4.748 1.62,5.505 2.04,6.142 C0.756,7.148 0.014,8.691 0.016,10.357 C0.013,10.876 0.237,11.348 0.575,11.697 C1.083,12.226 1.819,12.553 2.657,12.774 C3.495,12.991 4.444,13.093 5.387,13.093 C6.27,13.093 7.155,13.01 7.955,12.818 C8.135,12.775 8.31,12.726 8.48,12.671 L8.175,11.72 C8.143,11.73 8.11,11.74 8.076,11.75 C7.305,11.983 6.347,12.094 5.387,12.094 L5.371,12.094 C4.215,12.094 3.052,11.918 2.231,11.585 C1.817,11.42 1.497,11.216 1.299,11.008 C1.102,10.796 1.019,10.603 1.015,10.357 C1.019,8.836 1.756,7.471 3.02,6.674 L3.521,6.358 L3.124,5.917 C2.66,5.404 2.394,4.688 2.394,3.986 C2.396,2.332 3.726,1.024 5.387,1.023 C7.042,1.025 8.377,2.36 8.38,4.015 C8.38,4.718 8.121,5.398 7.643,5.957 L7.265,6.397 L7.758,6.706 C8.579,7.22 9.188,8.003 9.51,8.895 C9.53,8.952 9.55,9.009 9.568,9.066 L10.521,8.768 C10.456,8.56 10.378,8.356 10.289,8.158 C9.94,7.388 9.411,6.701 8.731,6.168 C9.149,5.527 9.38,4.784 9.38,4.015 C9.38,1.809 7.593,0.023 5.387,0.023" id="Fill-2" sketch:type="MSShapeGroup"></path>
            <path d="M22.79,0.023 C20.583,0.023 18.798,1.809 18.798,4.015 C18.798,4.779 19.022,5.536 19.441,6.173 C18.765,6.704 18.237,7.39 17.889,8.158 C17.8,8.356 17.722,8.56 17.656,8.768 L18.61,9.066 C18.628,9.009 18.647,8.952 18.668,8.895 C18.989,8.002 19.597,7.219 20.42,6.706 L20.925,6.391 L20.527,5.948 C20.062,5.434 19.796,4.72 19.796,4.015 C19.8,2.36 21.135,1.025 22.79,1.023 C24.443,1.025 25.78,2.36 25.783,4.015 C25.782,4.718 25.523,5.398 25.046,5.957 L24.668,6.396 L25.157,6.706 C26.42,7.501 27.159,8.869 27.16,10.357 C27.157,10.603 27.075,10.796 26.878,11.008 C26.583,11.323 26.003,11.617 25.268,11.805 C24.536,11.997 23.66,12.094 22.79,12.094 C21.829,12.094 20.873,11.983 20.101,11.75 C20.068,11.74 20.035,11.73 20.003,11.72 L19.695,12.671 C19.867,12.726 20.042,12.775 20.223,12.818 C21.023,13.01 21.907,13.093 22.79,13.093 C24.049,13.092 25.314,12.915 26.319,12.513 C26.823,12.31 27.264,12.051 27.603,11.697 C27.941,11.346 28.163,10.876 28.161,10.357 C28.162,8.715 27.418,7.175 26.132,6.17 C26.55,5.529 26.783,4.785 26.783,4.015 C26.783,1.809 24.996,0.023 22.79,0.023" id="Fill-3" sketch:type="MSShapeGroup"></path>
        </g>
    </g>
</svg>