<?xml version="1.0" encoding="utf-8"?>
<!-- Generator: Adobe Illustrator 18.1.1, SVG Export Plug-In . SVG Version: 6.00 Build 0)  -->
<!DOCTYPE svg PUBLIC "-//W3C//DTD SVG 1.0//EN" "http://www.w3.org/TR/2001/REC-SVG-20010904/DTD/svg10.dtd">
<svg version="1.0" id="Layer_1" xmlns="http://www.w3.org/2000/svg" xmlns:xlink="http://www.w3.org/1999/xlink" x="0px" y="0px"
	 viewBox="-52.7 167.3 220.7 220" enable-background="new -52.7 167.3 220.7 220" xml:space="preserve">
<circle fill="#FFFFFF" stroke="#FFDEBB" stroke-width="3" stroke-linecap="round" stroke-linejoin="round" stroke-miterlimit="10" cx="57.5" cy="277" r="106"/>
<g>
	
		<path fill="#FFFFFF" stroke="#FFDEBB" stroke-width="3" stroke-linecap="round" stroke-linejoin="round" stroke-miterlimit="10" d="
		M-34,300.3c-1.5-5.8-2.6-12-2.9-18.8"/>
	
		<path fill="#FFFFFF" stroke="#FFDEBB" stroke-width="3" stroke-linecap="round" stroke-linejoin="round" stroke-miterlimit="10" d="
		M59.7,370.8c-0.7,0-1.4,0-2.1,0c-5.3,0-10.5-0.4-15.6-1.3"/>
	
		<path fill="#FFFFFF" stroke="#FFDEBB" stroke-width="3" stroke-linecap="round" stroke-linejoin="round" stroke-miterlimit="10" d="
		M128,339.5c-2.4,2.7-5,5.2-7.7,7.6"/>
	
		<path fill="#FFFFFF" stroke="#FFDEBB" stroke-width="3" stroke-linecap="round" stroke-linejoin="round" stroke-miterlimit="10" d="
		M149.6,254c1.7,7.1,2.6,14.5,2.6,22.2c0,0.7,0,1.3,0,2"/>
	
		<path fill="#FFFFFF" stroke="#FFDEBB" stroke-width="3" stroke-linecap="round" stroke-linejoin="round" stroke-miterlimit="10" d="
		M93,188.4c10,4.1,19.2,9.8,27.2,16.8"/>
	
		<path fill="#FFFFFF" stroke="#FFDEBB" stroke-width="3" stroke-linecap="round" stroke-linejoin="round" stroke-miterlimit="10" d="
		M-10.8,210.7c9.7-10.1,21.7-18.1,35-23.1"/>
</g>
<circle fill="#FFFFFF" cx="61.4" cy="217.6" r="3.9"/>
<g>
	<ellipse fill="none" stroke="#FFDEBB" stroke-width="3" stroke-miterlimit="10" cx="-7.7" cy="262.1" rx="9.6" ry="25.7"/>
	<ellipse fill="none" stroke="#FFDEBB" stroke-width="3" stroke-miterlimit="10" cx="-7.7" cy="262.1" rx="25.7" ry="9.6"/>
	
		<ellipse transform="matrix(0.7071 0.7071 -0.7071 0.7071 183.0927 82.2563)" fill="none" stroke="#FFDEBB" stroke-width="3" stroke-miterlimit="10" cx="-7.7" cy="262.1" rx="25.7" ry="9.6"/>
	
		<ellipse transform="matrix(-0.7071 0.7071 -0.7071 -0.7071 172.1382 452.9827)" fill="none" stroke="#FFDEBB" stroke-width="3" stroke-miterlimit="10" cx="-7.7" cy="262.1" rx="25.7" ry="9.6"/>
</g>
<g>
	<g>
		<g>
			<path fill="none" stroke="#FFDEBB" stroke-width="3" stroke-miterlimit="10" d="M97.1,212.4l2.8-1.1l-0.7-4.6l-3-0.2
				c-0.6-1.4-1.3-2.7-2.3-3.8l1.2-2.8l-3.7-2.8L89,199c-1.4-0.6-2.9-1-4.4-1.1l-1.1-2.8l-4.6,0.7l-0.2,2.9c-1.5,0.6-2.8,1.4-4,2.4
				L72,200l-2.8,3.7l1.9,2.2c-0.6,1.4-1,2.9-1.1,4.5l-2.7,1.1l0.7,4.6l2.9,0.2c0.6,1.5,1.4,2.8,2.4,4l-1.1,2.7l3.7,2.8l2.2-1.9
				c1.4,0.6,2.9,1,4.5,1.1l1.1,2.7l4.6-0.7l0.2-3c1.4-0.6,2.7-1.4,3.9-2.4l2.8,1.2l2.8-3.7l-2-2.3C96.6,215.4,96.9,214,97.1,212.4z"
				/>
		</g>
	</g>
	<path fill="none" stroke="#FFDEBB" stroke-width="3" stroke-miterlimit="10" d="M83,207.5c-2.2,0.3-3.7,2.3-3.3,4.5
		c0.3,2.2,2.3,3.7,4.5,3.3c2.2-0.3,3.7-2.3,3.3-4.5C87.1,208.7,85.1,207.2,83,207.5z"/>
</g>
<circle fill="#FFFFFF" cx="66.1" cy="322.6" r="3.9"/>
<path fill="none" stroke="#FFDEBB" stroke-width="3" stroke-miterlimit="10" d="M0.9,291.4C0.9,291.4,0.9,291.4,0.9,291.4"/>
<g>
	<g>
		<g>
			<path fill="none" stroke="#FFDEBB" stroke-width="3" stroke-miterlimit="10" d="M104.1,344.8l1-6.4l-3.8-1.5
				c-0.2-2.2-0.7-4.4-1.6-6.3l2.6-3.1l-3.9-5.2l-3.8,1.6c-1.6-1.4-3.5-2.5-5.5-3.3l-0.3-4.1l-6.4-1l-1.5,3.9
				c-2.2,0.2-4.2,0.7-6.2,1.6l-3.2-2.7l-5.2,3.9l1.7,3.9c-1.4,1.6-2.4,3.4-3.2,5.4l-4.2,0.3l-1,6.4l4,1.6c0.2,2.1,0.7,4.2,1.5,6.1
				l-2.8,3.2l3.9,5.2l3.9-1.7c1.6,1.4,3.4,2.5,5.4,3.3l0.3,4.2l6.4,1l1.5-3.8c2.2-0.1,4.3-0.7,6.3-1.5l3.1,2.7l5.2-3.9l-1.6-3.7
				c1.4-1.6,2.6-3.5,3.4-5.6L104.1,344.8z"/>
		</g>
	</g>
	<path fill="none" stroke="#FFDEBB" stroke-width="3" stroke-miterlimit="10" d="M84.4,324.9c7.4,1.1,12.4,8,11.3,15.3
		c-1.1,7.4-8,12.4-15.3,11.3c-7.4-1.1-12.4-8-11.3-15.3C70.1,328.9,77,323.8,84.4,324.9z"/>
</g>
<g>
	<path fill="none" stroke="#FFDEBB" stroke-width="3" stroke-miterlimit="10" d="M138.2,304.1c0,2.5-2.2,4.3-3.9,3c0,0,0-1.3,0-3
		v-11l0,0v33.4c0,1.9-1.6,3.5-3.5,3.5c-1.9,0-3.5-1.6-3.5-3.5v-19.4h-2v19.4c0,1.9-1.6,3.5-3.5,3.5c-1.9,0-3.5-1.6-3.5-3.5v-33.4
		l0,0v11c0,1.7,0,3,0,3c-1.4,0.9-3.9,0.1-3.9-3V287c0-1.9,0.8-2.7,2.6-2.7h17.5c2.3,0,3.5,0.4,3.5,2.7L138.2,304.1L138.2,304.1z
		 M126.3,281.7c-3.4,0-6.2-2.7-6.2-6.2c0-3.4,2.8-6.2,6.2-6.2c3.4,0,6.2,2.7,6.2,6.2C132.5,278.9,129.7,281.7,126.3,281.7z"/>
</g>
<g>
	
		<path fill="#FFFFFF" stroke="#FFDEBB" stroke-width="3" stroke-linecap="round" stroke-linejoin="round" stroke-miterlimit="10" d="
		M104.8,229.9v9.8v6.2v5.6c0,4.4,3,8.7,7.3,8.7c0,0,5.6,0,8.6,0c3,0,4.3-1.1,5.9-3.2c1.1-1.5,6.6-12.5,6.6-12.5
		c0.6-1.1-0.1-2.6-1.3-3.2c-1.1-0.6-2.8-0.1-3.4,1.1l-2.5,4.9v-17.5c0-1.3-1.1-2.3-2.4-2.3c-1.3,0-2.3,1-2.3,2.3v9.9h-0.9v-12.2
		c0-1.3-1.1-2.3-2.3-2.3s-2.3,1-2.3,2.3v12.2H115v-12.2c0-1.3-1.1-2.3-2.3-2.3s-2.3,1-2.3,2.3v12.2h-0.9v-9.9c0-1.3-1.1-2.3-2.3-2.3
		C105.9,227.6,104.8,228.6,104.8,229.9z"/>
	
		<path fill="#FFFFFF" stroke="#FFDEBB" stroke-width="3" stroke-linecap="round" stroke-linejoin="round" stroke-miterlimit="10" d="
		M116.1,253.7c0,0,1-2.4,3.8-4.3c2.8-1.9,6.2-1.7,6.2-1.7"/>
	
		<path fill="#FFFFFF" stroke="#FFDEBB" stroke-width="3" stroke-linecap="round" stroke-linejoin="round" stroke-miterlimit="10" d="
		M105.5,249.7c0,0,3.1,0.7,6.5-1c2.9-1.4,4.3-3.7,4.3-3.7"/>
	
		<line fill="none" stroke="#FFDEBB" stroke-width="3" stroke-linecap="round" stroke-linejoin="round" stroke-miterlimit="10" x1="105.6" y1="240.3" x2="121.6" y2="240.3"/>
</g>
<path fill="#FFFFFF" stroke="#FFDEBB" stroke-width="3" stroke-linecap="round" stroke-linejoin="round" stroke-miterlimit="10" d="
	M-0.7,349.2c-3.4-2.8-6.6-5.8-9.6-9.1"/>
<g>
	<path fill="none" stroke="#FFDEBB" stroke-width="3" stroke-linejoin="round" stroke-miterlimit="10" d="M82.8,294.9H31.2
		c-0.6,0-1-0.4-1-1v-33.3c0-0.6,0.4-1,1-1h51.7c0.6,0,1,0.4,1,1v33.3C83.8,294.5,83.4,294.9,82.8,294.9z"/>
	
		<path fill="#FFFFFF" stroke="#FFDEBB" stroke-width="3" stroke-linecap="round" stroke-linejoin="round" stroke-miterlimit="10" d="
		M67.6,259.4H46.4c-0.2,0-0.3-0.1-0.3-0.3v-5.9c0-0.2,0.1-0.3,0.3-0.3h21.1c0.2,0,0.3,0.1,0.3,0.3v5.9
		C67.8,259.3,67.7,259.4,67.6,259.4z"/>
	
		<line fill="none" stroke="#FFDEBB" stroke-width="3" stroke-linejoin="round" stroke-miterlimit="10" x1="29.8" y1="277.1" x2="84" y2="277.1"/>
	
		<path fill="#FFFFFF" stroke="#FFDEBB" stroke-width="2.6752" stroke-linecap="round" stroke-linejoin="round" stroke-miterlimit="10" d="
		M62.5,281.5h-11c-0.1,0-0.2-0.1-0.2-0.2V272c0-0.1,0.1-0.2,0.2-0.2h11c0.1,0,0.2,0.1,0.2,0.2v9.2C62.7,281.4,62.6,281.5,62.5,281.5
		z"/>
</g>
<path fill="none" stroke="#FFDEBB" stroke-width="3.8568" stroke-linecap="round" stroke-linejoin="round" stroke-miterlimit="10" d="
	M38.7,317.6c-9.3-4.4-16.8-11.8-21.1-21.1"/>
<path fill="none" stroke="#FFDEBB" stroke-width="3.8568" stroke-linecap="round" stroke-linejoin="round" stroke-miterlimit="10" d="
	M101.6,279.1c-0.2,7.1-2.1,13.7-5.3,19.6"/>
<path fill="none" stroke="#FFDEBB" stroke-width="3.8568" stroke-linecap="round" stroke-linejoin="round" stroke-miterlimit="10" d="
	M29.6,243.4c7.6-6.2,17.3-9.9,27.9-9.9c8.5,0,16.5,2.4,23.2,6.6"/>
<line fill="#FFDEBB" x1="-14.5" y1="327.8" x2="-8" y2="327.8"/>
<g>
	
		<rect x="35.8" y="188.3" transform="matrix(0.7071 0.7071 -0.7071 0.7071 157.4473 31.9793)" fill="none" stroke="#FFDEBB" stroke-width="3" stroke-miterlimit="10" width="8.7" height="35.5"/>
	<line fill="none" stroke="#FFDEBB" stroke-width="3" stroke-miterlimit="10" x1="48.7" y1="196.9" x2="46.5" y2="194.6"/>
	<line fill="none" stroke="#FFDEBB" stroke-width="3" stroke-miterlimit="10" x1="45.8" y1="199.8" x2="43.5" y2="197.6"/>
	<line fill="none" stroke="#FFDEBB" stroke-width="3" stroke-miterlimit="10" x1="42.8" y1="202.8" x2="40.6" y2="200.5"/>
	<line fill="none" stroke="#FFDEBB" stroke-width="3" stroke-miterlimit="10" x1="39.9" y1="205.7" x2="37.6" y2="203.5"/>
	<line fill="none" stroke="#FFDEBB" stroke-width="3" stroke-miterlimit="10" x1="36.9" y1="208.7" x2="34.7" y2="206.4"/>
	<line fill="none" stroke="#FFDEBB" stroke-width="3" stroke-miterlimit="10" x1="34" y1="211.6" x2="31.7" y2="209.4"/>
	<line fill="none" stroke="#FFDEBB" stroke-width="3" stroke-miterlimit="10" x1="31" y1="214.6" x2="28.8" y2="212.3"/>
</g>
<g>
	<polygon fill="none" stroke="#FFDEBB" stroke-width="3" stroke-linejoin="round" stroke-miterlimit="10" points="-1.8,216.2 
		2.5,211.9 21.6,230.9 22.8,236.5 17.2,235.3 	"/>
	
		<line fill="none" stroke="#FFDEBB" stroke-width="3" stroke-linejoin="round" stroke-miterlimit="10" x1="20.3" y1="229.7" x2="16" y2="234"/>
</g>
<g>
	<path fill="none" stroke="#FFDEBB" stroke-width="3" stroke-miterlimit="10" d="M36.7,349.9L36.7,349.9c-3.7,3.7-9.7,3.7-13.4,0
		l-6.1-6.1c-3.7-3.7-3.7-9.7,0-13.4l0,0c3.7-3.7,9.7-3.7,13.4,0l6.1,6.1C40.4,340.2,40.4,346.2,36.7,349.9z"/>
	<line fill="none" stroke="#FFDEBB" stroke-width="3" stroke-miterlimit="10" x1="17.8" y1="344.3" x2="31.5" y2="330.6"/>
	<line fill="none" stroke="#FFDEBB" stroke-width="3" stroke-miterlimit="10" x1="24.5" y1="337.7" x2="17.3" y2="330.6"/>
	<path fill="none" stroke="#FFDEBB" stroke-width="3" stroke-miterlimit="10" d="M-18.1,309.1c0,0-7.9,6.8-4.4,10.4
		c3.6,3.6,8.5-1.4,14.7-7.5c6.2-6.2,10.9-5.9,15.4-1.4c7.9,7.9-10.5,16.4-4.9,22c3.5,3.5,7.6-2.9,11-3.5c1.5-0.3,3.3,0.3,3.9,1.7"/>
</g>
</svg>
