<?xml version="1.0" encoding="UTF-8" standalone="no"?>
<svg width="430px" height="75px" viewBox="0 0 430 75" version="1.1" xmlns="http://www.w3.org/2000/svg" xmlns:xlink="http://www.w3.org/1999/xlink" xmlns:sketch="http://www.bohemiancoding.com/sketch/ns">
    <!-- Generator: Sketch 3.5.1 (25234) - http://www.bohemiancoding.com/sketch -->
    <title>Page 1</title>
    <desc>Created with Sketch.</desc>
    <defs>
        <path id="path-1" d="M0,0.026 L430,0.026 L430,75 L0,75"></path>
        <path id="path-3" d="M0,0.026 L430,0.026 L430,75 L0,75"></path>
        <path id="path-5" d="M0,0.026 L430,0.026 L430,75 L0,75"></path>
        <path id="path-7" d="M0,0.026 L430,0.026 L430,75 L0,75"></path>
        <path id="path-9" d="M0,0.026 L430,0.026 L430,75 L0,75"></path>
        <path id="path-11" d="M0,0.026 L430,0.026 L430,75 L0,75"></path>
        <path id="path-13" d="M0,0.026 L430,0.026 L430,75 L0,75"></path>
        <path id="path-15" d="M0,0.026 L430,0.026 L430,75 L0,75 L0,0.026 Z"></path>
    </defs>
    <g id="Page-1" stroke="none" stroke-width="1" fill="none" fill-rule="evenodd" sketch:type="MSPage">
        <g sketch:type="MSLayerGroup">
            <path d="M222.4945,25.7987 C222.4945,32.4227 218.5585,33.6767 215.2465,33.6767 L207.4625,33.6767 L207.4625,17.2047 L215.2465,17.2047 C218.5585,17.2047 222.4945,18.4577 222.4945,25.0827 L222.4945,25.7987 Z M239.6735,26.3357 L239.6735,24.5457 C239.6735,5.2087 226.3425,2.5237 214.5315,2.5237 L193.9195,2.5647 C191.8515,2.5647 190.6115,3.3927 190.6115,5.8757 L190.6115,69.1917 C190.6115,71.2607 191.8515,72.5027 193.9195,72.5027 L204.2605,72.5027 C206.3285,72.5027 207.5695,71.2607 207.5695,69.1917 L207.4725,50.2157 L210.9895,50.2157 L210.9895,48.3577 L212.2055,48.3577 L220.3905,69.6057 C221.2185,71.6747 222.4585,72.5027 224.1135,72.5027 L235.6945,72.5027 C238.1765,72.5027 239.0035,70.4337 238.1765,68.3637 L228.9375,46.0297 C235.1105,43.2557 239.6735,37.7047 239.6735,26.3357 L239.6735,26.3357 Z" id="Fill-1" fill="#F25F60" sketch:type="MSShapeGroup"></path>
            <path d="M281.6836,72.2747 L271.3436,72.2747 C269.2756,72.2747 268.0346,71.0327 268.0346,68.9637 L267.9116,50.1677 L249.8356,6.4757 C249.0086,4.4067 249.8356,2.7507 252.3176,2.7507 L263.8986,2.7507 C265.5526,2.7507 266.7936,3.1647 267.6206,5.2337 L276.4116,27.5707 L284.9926,5.2337 C285.8196,3.1647 287.0606,2.7507 288.7146,2.7507 L300.7096,2.7507 C303.1916,2.7507 304.0186,4.4067 303.1916,6.4757 L284.9126,50.1677 L284.9926,68.9637 C284.9926,71.0327 283.7516,72.2747 281.6836,72.2747" id="Fill-3" fill="#F25F60" sketch:type="MSShapeGroup"></path>
            <path d="M56.0507,5.8547 L56.0507,13.7177 C56.0507,16.2007 54.8097,17.0277 52.7417,17.0277 L27.7137,17.1837 L27.7137,29.7797 L52.6607,29.8567 C54.7287,29.8567 55.9697,30.6847 55.9697,33.1677 L55.9697,41.0307 C55.9697,43.0997 54.7287,44.3407 52.6607,44.3407 L27.7137,44.4607 L27.7137,57.6477 L52.9077,57.5837 C54.9757,57.5837 56.2167,58.4117 56.2167,60.8947 L56.2167,69.1707 C56.2167,71.2397 54.9757,72.4817 52.9077,72.4817 L14.0227,72.4817 C11.9547,72.4817 10.7137,71.2397 10.7137,69.1707 L10.7137,5.8547 C10.7137,3.7857 11.9547,2.5437 14.0227,2.5437 L52.7417,2.5437 C54.8097,2.5437 56.0507,3.7857 56.0507,5.8547" id="Fill-5" fill="#F25F60" sketch:type="MSShapeGroup"></path>
            <g id="Group-9">
                <mask id="mask-2" sketch:name="Clip 8" fill="white">
                    <use xlink:href="#path-1"></use>
                </mask>
                <g id="Clip-8"></g>
                <path d="M63.2797,4.8618 C64.6147,4.8618 65.6967,3.7788 65.6967,2.4438 C65.6967,1.1078 64.6147,0.0258 63.2797,0.0258 C61.9447,0.0258 60.8627,1.1078 60.8627,2.4438 C60.8627,3.7788 61.9447,4.8618 63.2797,4.8618" id="Fill-7" fill="#5380B7" sketch:type="MSShapeGroup" mask="url(#mask-2)"></path>
            </g>
            <path d="M67.6884,9.2454 C69.0234,9.2454 70.1054,8.1624 70.1054,6.8274 C70.1054,5.4914 69.0234,4.4094 67.6884,4.4094 C66.3534,4.4094 65.2714,5.4914 65.2714,6.8274 C65.2714,8.1624 66.3534,9.2454 67.6884,9.2454" id="Fill-10" fill="#5380B7" sketch:type="MSShapeGroup"></path>
            <g id="Group-14">
                <mask id="mask-4" sketch:name="Clip 13" fill="white">
                    <use xlink:href="#path-3"></use>
                </mask>
                <g id="Clip-13"></g>
                <path d="M72.1974,4.8618 C73.5324,4.8618 74.6144,3.7788 74.6144,2.4438 C74.6144,1.1078 73.5324,0.0258 72.1974,0.0258 C70.8624,0.0258 69.7804,1.1078 69.7804,2.4438 C69.7804,3.7788 70.8624,4.8618 72.1974,4.8618" id="Fill-12" fill="#5380B7" sketch:type="MSShapeGroup" mask="url(#mask-4)"></path>
            </g>
            <path d="M76.6061,9.2454 C77.9411,9.2454 79.0231,8.1624 79.0231,6.8274 C79.0231,5.4914 77.9411,4.4094 76.6061,4.4094 C75.2711,4.4094 74.1891,5.4914 74.1891,6.8274 C74.1891,8.1624 75.2711,9.2454 76.6061,9.2454" id="Fill-15" fill="#5380B7" sketch:type="MSShapeGroup"></path>
            <g id="Group-19">
                <mask id="mask-6" sketch:name="Clip 18" fill="white">
                    <use xlink:href="#path-5"></use>
                </mask>
                <g id="Clip-18"></g>
                <path d="M80.9874,4.8618 C82.3224,4.8618 83.4044,3.7788 83.4044,2.4438 C83.4044,1.1078 82.3224,0.0258 80.9874,0.0258 C79.6524,0.0258 78.5704,1.1078 78.5704,2.4438 C78.5704,3.7788 79.6524,4.8618 80.9874,4.8618" id="Fill-17" fill="#5380B7" sketch:type="MSShapeGroup" mask="url(#mask-6)"></path>
            </g>
            <path d="M85.396,9.2454 C86.731,9.2454 87.813,8.1624 87.813,6.8274 C87.813,5.4914 86.731,4.4094 85.396,4.4094 C84.061,4.4094 82.979,5.4914 82.979,6.8274 C82.979,8.1624 84.061,9.2454 85.396,9.2454" id="Fill-20" fill="#5380B7" sketch:type="MSShapeGroup"></path>
            <g id="Group-24">
                <mask id="mask-8" sketch:name="Clip 23" fill="white">
                    <use xlink:href="#path-7"></use>
                </mask>
                <g id="Clip-23"></g>
                <path d="M89.7955,4.8618 C91.1305,4.8618 92.2125,3.7788 92.2125,2.4438 C92.2125,1.1078 91.1305,0.0258 89.7955,0.0258 C88.4605,0.0258 87.3785,1.1078 87.3785,2.4438 C87.3785,3.7788 88.4605,4.8618 89.7955,4.8618" id="Fill-22" fill="#5380B7" sketch:type="MSShapeGroup" mask="url(#mask-8)"></path>
            </g>
            <path d="M94.2041,9.2454 C95.5391,9.2454 96.6211,8.1624 96.6211,6.8274 C96.6211,5.4914 95.5391,4.4094 94.2041,4.4094 C92.8691,4.4094 91.7871,5.4914 91.7871,6.8274 C91.7871,8.1624 92.8691,9.2454 94.2041,9.2454" id="Fill-25" fill="#5380B7" sketch:type="MSShapeGroup"></path>
            <g id="Group-29">
                <mask id="mask-10" sketch:name="Clip 28" fill="white">
                    <use xlink:href="#path-9"></use>
                </mask>
                <g id="Clip-28"></g>
                <path d="M98.5854,4.8618 C99.9204,4.8618 101.0024,3.7788 101.0024,2.4438 C101.0024,1.1078 99.9204,0.0258 98.5854,0.0258 C97.2504,0.0258 96.1684,1.1078 96.1684,2.4438 C96.1684,3.7788 97.2504,4.8618 98.5854,4.8618" id="Fill-27" fill="#5380B7" sketch:type="MSShapeGroup" mask="url(#mask-10)"></path>
            </g>
            <path d="M102.9941,9.2454 C104.3291,9.2454 105.4111,8.1624 105.4111,6.8274 C105.4111,5.4914 104.3291,4.4094 102.9941,4.4094 C101.6591,4.4094 100.5771,5.4914 100.5771,6.8274 C100.5771,8.1624 101.6591,9.2454 102.9941,9.2454" id="Fill-30" fill="#5380B7" sketch:type="MSShapeGroup"></path>
            <g id="Group-34">
                <mask id="mask-12" sketch:name="Clip 33" fill="white">
                    <use xlink:href="#path-11"></use>
                </mask>
                <g id="Clip-33"></g>
                <path d="M107.5032,4.8618 C108.8382,4.8618 109.9202,3.7788 109.9202,2.4438 C109.9202,1.1078 108.8382,0.0258 107.5032,0.0258 C106.1682,0.0258 105.0862,1.1078 105.0862,2.4438 C105.0862,3.7788 106.1682,4.8618 107.5032,4.8618" id="Fill-32" fill="#5380B7" sketch:type="MSShapeGroup" mask="url(#mask-12)"></path>
            </g>
            <path d="M111.9117,9.2454 C113.2467,9.2454 114.3287,8.1624 114.3287,6.8274 C114.3287,5.4914 113.2467,4.4094 111.9117,4.4094 C110.5767,4.4094 109.4947,5.4914 109.4947,6.8274 C109.4947,8.1624 110.5767,9.2454 111.9117,9.2454" id="Fill-35" fill="#5380B7" sketch:type="MSShapeGroup"></path>
            <g id="Group-39">
                <mask id="mask-14" sketch:name="Clip 38" fill="white">
                    <use xlink:href="#path-13"></use>
                </mask>
                <g id="Clip-38"></g>
                <path d="M116.293,4.8618 C117.628,4.8618 118.71,3.7788 118.71,2.4438 C118.71,1.1078 117.628,0.0258 116.293,0.0258 C114.958,0.0258 113.876,1.1078 113.876,2.4438 C113.876,3.7788 114.958,4.8618 116.293,4.8618" id="Fill-37" fill="#5380B7" sketch:type="MSShapeGroup" mask="url(#mask-14)"></path>
            </g>
            <path d="M63.2797,13.6291 C64.6147,13.6291 65.6967,12.5461 65.6967,11.2111 C65.6967,9.8751 64.6147,8.7931 63.2797,8.7931 C61.9447,8.7931 60.8627,9.8751 60.8627,11.2111 C60.8627,12.5461 61.9447,13.6291 63.2797,13.6291" id="Fill-40" fill="#5380B7" sketch:type="MSShapeGroup"></path>
            <path d="M67.6884,13.1765 C66.3534,13.1765 65.2714,14.2595 65.2714,15.5945 C65.2714,16.9305 66.3534,18.0125 67.6884,18.0125 C69.0234,18.0125 70.1054,16.9305 70.1054,15.5945 C70.1054,14.2595 69.0234,13.1765 67.6884,13.1765" id="Fill-42" fill="#5380B7" sketch:type="MSShapeGroup"></path>
            <path d="M63.2797,22.3964 C64.6147,22.3964 65.6967,21.3134 65.6967,19.9784 C65.6967,18.6424 64.6147,17.5604 63.2797,17.5604 C61.9447,17.5604 60.8627,18.6424 60.8627,19.9784 C60.8627,21.3134 61.9447,22.3964 63.2797,22.3964" id="Fill-44" fill="#5380B7" sketch:type="MSShapeGroup"></path>
            <path d="M67.6884,26.78 C69.0234,26.78 70.1054,25.697 70.1054,24.362 C70.1054,23.026 69.0234,21.944 67.6884,21.944 C66.3534,21.944 65.2714,23.026 65.2714,24.362 C65.2714,25.697 66.3534,26.78 67.6884,26.78" id="Fill-46" fill="#5380B7" sketch:type="MSShapeGroup"></path>
            <path d="M63.2797,31.1636 C64.6147,31.1636 65.6967,30.0806 65.6967,28.7456 C65.6967,27.4096 64.6147,26.3276 63.2797,26.3276 C61.9447,26.3276 60.8627,27.4096 60.8627,28.7456 C60.8627,30.0806 61.9447,31.1636 63.2797,31.1636" id="Fill-48" fill="#5380B7" sketch:type="MSShapeGroup"></path>
            <path d="M67.6884,35.5472 C69.0234,35.5472 70.1054,34.4642 70.1054,33.1292 C70.1054,31.7932 69.0234,30.7112 67.6884,30.7112 C66.3534,30.7112 65.2714,31.7932 65.2714,33.1292 C65.2714,34.4642 66.3534,35.5472 67.6884,35.5472" id="Fill-50" fill="#5380B7" sketch:type="MSShapeGroup"></path>
            <path d="M63.2797,39.9309 C64.6147,39.9309 65.6967,38.8479 65.6967,37.5129 C65.6967,36.1769 64.6147,35.0949 63.2797,35.0949 C61.9447,35.0949 60.8627,36.1769 60.8627,37.5129 C60.8627,38.8479 61.9447,39.9309 63.2797,39.9309" id="Fill-52" fill="#5380B7" sketch:type="MSShapeGroup"></path>
            <path d="M67.6884,44.3145 C69.0234,44.3145 70.1054,43.2315 70.1054,41.8965 C70.1054,40.5605 69.0234,39.4785 67.6884,39.4785 C66.3534,39.4785 65.2714,40.5605 65.2714,41.8965 C65.2714,43.2315 66.3534,44.3145 67.6884,44.3145" id="Fill-54" fill="#5380B7" sketch:type="MSShapeGroup"></path>
            <path d="M63.2797,48.6982 C64.6147,48.6982 65.6967,47.6152 65.6967,46.2802 C65.6967,44.9442 64.6147,43.8622 63.2797,43.8622 C61.9447,43.8622 60.8627,44.9442 60.8627,46.2802 C60.8627,47.6152 61.9447,48.6982 63.2797,48.6982" id="Fill-56" fill="#5380B7" sketch:type="MSShapeGroup"></path>
            <path d="M67.6884,53.0818 C69.0234,53.0818 70.1054,51.9988 70.1054,50.6638 C70.1054,49.3278 69.0234,48.2458 67.6884,48.2458 C66.3534,48.2458 65.2714,49.3278 65.2714,50.6638 C65.2714,51.9988 66.3534,53.0818 67.6884,53.0818" id="Fill-58" fill="#5380B7" sketch:type="MSShapeGroup"></path>
            <path d="M63.2797,57.4654 C64.6147,57.4654 65.6967,56.3824 65.6967,55.0474 C65.6967,53.7114 64.6147,52.6294 63.2797,52.6294 C61.9447,52.6294 60.8627,53.7114 60.8627,55.0474 C60.8627,56.3824 61.9447,57.4654 63.2797,57.4654" id="Fill-60" fill="#5380B7" sketch:type="MSShapeGroup"></path>
            <path d="M67.6884,61.8491 C69.0234,61.8491 70.1054,60.7661 70.1054,59.4311 C70.1054,58.0951 69.0234,57.0131 67.6884,57.0131 C66.3534,57.0131 65.2714,58.0951 65.2714,59.4311 C65.2714,60.7661 66.3534,61.8491 67.6884,61.8491" id="Fill-62" fill="#5380B7" sketch:type="MSShapeGroup"></path>
            <path d="M63.2797,66.2327 C64.6147,66.2327 65.6967,65.1497 65.6967,63.8147 C65.6967,62.4787 64.6147,61.3967 63.2797,61.3967 C61.9447,61.3967 60.8627,62.4787 60.8627,63.8147 C60.8627,65.1497 61.9447,66.2327 63.2797,66.2327" id="Fill-64" fill="#5380B7" sketch:type="MSShapeGroup"></path>
            <path d="M67.6884,65.7802 C66.3534,65.7802 65.2714,66.8632 65.2714,68.1982 C65.2714,69.5342 66.3534,70.6162 67.6884,70.6162 C69.0234,70.6162 70.1054,69.5342 70.1054,68.1982 C70.1054,66.8632 69.0234,65.7802 67.6884,65.7802" id="Fill-66" fill="#5380B7" sketch:type="MSShapeGroup"></path>
            <path d="M63.2797,70.1638 C61.9447,70.1638 60.8627,71.2468 60.8627,72.5818 C60.8627,73.9178 61.9447,74.9998 63.2797,74.9998 C64.6147,74.9998 65.6967,73.9178 65.6967,72.5818 C65.6967,71.2468 64.6147,70.1638 63.2797,70.1638" id="Fill-68" fill="#5380B7" sketch:type="MSShapeGroup"></path>
            <path d="M72.1974,8.7929 C70.8624,8.7929 69.7804,9.8759 69.7804,11.2109 C69.7804,12.5469 70.8624,13.6289 72.1974,13.6289 C73.5324,13.6289 74.6144,12.5469 74.6144,11.2109 C74.6144,9.8759 73.5324,8.7929 72.1974,8.7929" id="Fill-70" fill="#5380B7" sketch:type="MSShapeGroup"></path>
            <path d="M76.6061,13.1765 C75.2711,13.1765 74.1891,14.2595 74.1891,15.5945 C74.1891,16.9305 75.2711,18.0125 76.6061,18.0125 C77.9411,18.0125 79.0231,16.9305 79.0231,15.5945 C79.0231,14.2595 77.9411,13.1765 76.6061,13.1765" id="Fill-72" fill="#5380B7" sketch:type="MSShapeGroup"></path>
            <path d="M72.1974,17.5602 C70.8624,17.5602 69.7804,18.6432 69.7804,19.9782 C69.7804,21.3142 70.8624,22.3962 72.1974,22.3962 C73.5324,22.3962 74.6144,21.3142 74.6144,19.9782 C74.6144,18.6432 73.5324,17.5602 72.1974,17.5602" id="Fill-74" fill="#5380B7" sketch:type="MSShapeGroup"></path>
            <path d="M76.6061,21.9438 C75.2711,21.9438 74.1891,23.0268 74.1891,24.3618 C74.1891,25.6978 75.2711,26.7798 76.6061,26.7798 C77.9411,26.7798 79.0231,25.6978 79.0231,24.3618 C79.0231,23.0268 77.9411,21.9438 76.6061,21.9438" id="Fill-76" fill="#5380B7" sketch:type="MSShapeGroup"></path>
            <path d="M72.1974,31.1636 C73.5324,31.1636 74.6144,30.0806 74.6144,28.7456 C74.6144,27.4096 73.5324,26.3276 72.1974,26.3276 C70.8624,26.3276 69.7804,27.4096 69.7804,28.7456 C69.7804,30.0806 70.8624,31.1636 72.1974,31.1636" id="Fill-78" fill="#5380B7" sketch:type="MSShapeGroup"></path>
            <path d="M76.6061,30.7111 C75.2711,30.7111 74.1891,31.7941 74.1891,33.1291 C74.1891,34.4651 75.2711,35.5471 76.6061,35.5471 C77.9411,35.5471 79.0231,34.4651 79.0231,33.1291 C79.0231,31.7941 77.9411,30.7111 76.6061,30.7111" id="Fill-80" fill="#5380B7" sketch:type="MSShapeGroup"></path>
            <path d="M72.1974,39.9309 C73.5324,39.9309 74.6144,38.8479 74.6144,37.5129 C74.6144,36.1769 73.5324,35.0949 72.1974,35.0949 C70.8624,35.0949 69.7804,36.1769 69.7804,37.5129 C69.7804,38.8479 70.8624,39.9309 72.1974,39.9309" id="Fill-82" fill="#5380B7" sketch:type="MSShapeGroup"></path>
            <path d="M76.6061,44.3145 C77.9411,44.3145 79.0231,43.2315 79.0231,41.8965 C79.0231,40.5605 77.9411,39.4785 76.6061,39.4785 C75.2711,39.4785 74.1891,40.5605 74.1891,41.8965 C74.1891,43.2315 75.2711,44.3145 76.6061,44.3145" id="Fill-84" fill="#5380B7" sketch:type="MSShapeGroup"></path>
            <path d="M72.1974,48.6982 C73.5324,48.6982 74.6144,47.6152 74.6144,46.2802 C74.6144,44.9442 73.5324,43.8622 72.1974,43.8622 C70.8624,43.8622 69.7804,44.9442 69.7804,46.2802 C69.7804,47.6152 70.8624,48.6982 72.1974,48.6982" id="Fill-86" fill="#5380B7" sketch:type="MSShapeGroup"></path>
            <path d="M76.6061,53.0818 C77.9411,53.0818 79.0231,51.9988 79.0231,50.6638 C79.0231,49.3278 77.9411,48.2458 76.6061,48.2458 C75.2711,48.2458 74.1891,49.3278 74.1891,50.6638 C74.1891,51.9988 75.2711,53.0818 76.6061,53.0818" id="Fill-88" fill="#5380B7" sketch:type="MSShapeGroup"></path>
            <path d="M72.1974,57.4654 C73.5324,57.4654 74.6144,56.3824 74.6144,55.0474 C74.6144,53.7114 73.5324,52.6294 72.1974,52.6294 C70.8624,52.6294 69.7804,53.7114 69.7804,55.0474 C69.7804,56.3824 70.8624,57.4654 72.1974,57.4654" id="Fill-90" fill="#5380B7" sketch:type="MSShapeGroup"></path>
            <path d="M76.6061,61.8491 C77.9411,61.8491 79.0231,60.7661 79.0231,59.4311 C79.0231,58.0951 77.9411,57.0131 76.6061,57.0131 C75.2711,57.0131 74.1891,58.0951 74.1891,59.4311 C74.1891,60.7661 75.2711,61.8491 76.6061,61.8491" id="Fill-92" fill="#5380B7" sketch:type="MSShapeGroup"></path>
            <path d="M72.1974,66.2327 C73.5324,66.2327 74.6144,65.1497 74.6144,63.8147 C74.6144,62.4787 73.5324,61.3967 72.1974,61.3967 C70.8624,61.3967 69.7804,62.4787 69.7804,63.8147 C69.7804,65.1497 70.8624,66.2327 72.1974,66.2327" id="Fill-94" fill="#5380B7" sketch:type="MSShapeGroup"></path>
            <path d="M76.6061,65.7802 C75.2711,65.7802 74.1891,66.8632 74.1891,68.1982 C74.1891,69.5342 75.2711,70.6162 76.6061,70.6162 C77.9411,70.6162 79.0231,69.5342 79.0231,68.1982 C79.0231,66.8632 77.9411,65.7802 76.6061,65.7802" id="Fill-96" fill="#5380B7" sketch:type="MSShapeGroup"></path>
            <path d="M72.1974,70.1638 C70.8624,70.1638 69.7804,71.2468 69.7804,72.5818 C69.7804,73.9178 70.8624,74.9998 72.1974,74.9998 C73.5324,74.9998 74.6144,73.9178 74.6144,72.5818 C74.6144,71.2468 73.5324,70.1638 72.1974,70.1638" id="Fill-98" fill="#5380B7" sketch:type="MSShapeGroup"></path>
            <path d="M80.9874,8.7929 C79.6524,8.7929 78.5704,9.8759 78.5704,11.2109 C78.5704,12.5469 79.6524,13.6289 80.9874,13.6289 C82.3224,13.6289 83.4044,12.5469 83.4044,11.2109 C83.4044,9.8759 82.3224,8.7929 80.9874,8.7929" id="Fill-100" fill="#5380B7" sketch:type="MSShapeGroup"></path>
            <path d="M85.396,13.1765 C84.061,13.1765 82.979,14.2595 82.979,15.5945 C82.979,16.9305 84.061,18.0125 85.396,18.0125 C86.731,18.0125 87.813,16.9305 87.813,15.5945 C87.813,14.2595 86.731,13.1765 85.396,13.1765" id="Fill-102" fill="#5380B7" sketch:type="MSShapeGroup"></path>
            <path d="M80.9874,17.5602 C79.6524,17.5602 78.5704,18.6432 78.5704,19.9782 C78.5704,21.3142 79.6524,22.3962 80.9874,22.3962 C82.3224,22.3962 83.4044,21.3142 83.4044,19.9782 C83.4044,18.6432 82.3224,17.5602 80.9874,17.5602" id="Fill-104" fill="#5380B7" sketch:type="MSShapeGroup"></path>
            <path d="M85.396,21.9438 C84.061,21.9438 82.979,23.0268 82.979,24.3618 C82.979,25.6978 84.061,26.7798 85.396,26.7798 C86.731,26.7798 87.813,25.6978 87.813,24.3618 C87.813,23.0268 86.731,21.9438 85.396,21.9438" id="Fill-106" fill="#5380B7" sketch:type="MSShapeGroup"></path>
            <path d="M80.9874,31.1636 C82.3224,31.1636 83.4044,30.0806 83.4044,28.7456 C83.4044,27.4096 82.3224,26.3276 80.9874,26.3276 C79.6524,26.3276 78.5704,27.4096 78.5704,28.7456 C78.5704,30.0806 79.6524,31.1636 80.9874,31.1636" id="Fill-108" fill="#5380B7" sketch:type="MSShapeGroup"></path>
            <path d="M87.8127,33.1292 C87.8127,31.7942 86.7307,30.7112 85.3957,30.7112 C84.0617,30.7112 82.9797,31.7942 82.9797,33.1292 C82.9797,34.4642 84.0617,35.5472 85.3957,35.5472 C86.7307,35.5472 87.8127,34.4642 87.8127,33.1292" id="Fill-110" fill="#5380B7" sketch:type="MSShapeGroup"></path>
            <path d="M83.3821,36.9495 C83.3821,34.8595 82.2121,33.1655 80.7681,33.1655 C79.3241,33.1655 78.1541,34.8595 78.1541,36.9495 C78.1541,39.0395 79.3241,40.7345 80.7681,40.7345 C82.2121,40.7345 83.3821,39.0395 83.3821,36.9495" id="Fill-112" fill="#5380B7" sketch:type="MSShapeGroup"></path>
            <path d="M80.9874,48.6982 C82.3224,48.6982 83.4044,47.6152 83.4044,46.2802 C83.4044,44.9442 82.3224,43.8622 80.9874,43.8622 C79.6524,43.8622 78.5704,44.9442 78.5704,46.2802 C78.5704,47.6152 79.6524,48.6982 80.9874,48.6982" id="Fill-114" fill="#5380B7" sketch:type="MSShapeGroup"></path>
            <path d="M85.396,53.0818 C86.731,53.0818 87.813,51.9988 87.813,50.6638 C87.813,49.3278 86.731,48.2458 85.396,48.2458 C84.061,48.2458 82.979,49.3278 82.979,50.6638 C82.979,51.9988 84.061,53.0818 85.396,53.0818" id="Fill-116" fill="#5380B7" sketch:type="MSShapeGroup"></path>
            <path d="M80.9874,57.4654 C82.3224,57.4654 83.4044,56.3824 83.4044,55.0474 C83.4044,53.7114 82.3224,52.6294 80.9874,52.6294 C79.6524,52.6294 78.5704,53.7114 78.5704,55.0474 C78.5704,56.3824 79.6524,57.4654 80.9874,57.4654" id="Fill-118" fill="#5380B7" sketch:type="MSShapeGroup"></path>
            <path d="M85.396,61.8491 C86.731,61.8491 87.813,60.7661 87.813,59.4311 C87.813,58.0951 86.731,57.0131 85.396,57.0131 C84.061,57.0131 82.979,58.0951 82.979,59.4311 C82.979,60.7661 84.061,61.8491 85.396,61.8491" id="Fill-120" fill="#5380B7" sketch:type="MSShapeGroup"></path>
            <path d="M80.9874,66.2327 C82.3224,66.2327 83.4044,65.1497 83.4044,63.8147 C83.4044,62.4787 82.3224,61.3967 80.9874,61.3967 C79.6524,61.3967 78.5704,62.4787 78.5704,63.8147 C78.5704,65.1497 79.6524,66.2327 80.9874,66.2327" id="Fill-122" fill="#5380B7" sketch:type="MSShapeGroup"></path>
            <path d="M85.396,65.7802 C84.061,65.7802 82.979,66.8632 82.979,68.1982 C82.979,69.5342 84.061,70.6162 85.396,70.6162 C86.731,70.6162 87.813,69.5342 87.813,68.1982 C87.813,66.8632 86.731,65.7802 85.396,65.7802" id="Fill-124" fill="#5380B7" sketch:type="MSShapeGroup"></path>
            <path d="M80.9874,70.1638 C79.6524,70.1638 78.5704,71.2468 78.5704,72.5818 C78.5704,73.9178 79.6524,74.9998 80.9874,74.9998 C82.3224,74.9998 83.4044,73.9178 83.4044,72.5818 C83.4044,71.2468 82.3224,70.1638 80.9874,70.1638" id="Fill-126" fill="#5380B7" sketch:type="MSShapeGroup"></path>
            <path d="M89.7955,8.7929 C88.4605,8.7929 87.3785,9.8759 87.3785,11.2109 C87.3785,12.5469 88.4605,13.6289 89.7955,13.6289 C91.1305,13.6289 92.2125,12.5469 92.2125,11.2109 C92.2125,9.8759 91.1305,8.7929 89.7955,8.7929" id="Fill-128" fill="#5380B7" sketch:type="MSShapeGroup"></path>
            <path d="M94.2041,13.1765 C92.8691,13.1765 91.7871,14.2595 91.7871,15.5945 C91.7871,16.9305 92.8691,18.0125 94.2041,18.0125 C95.5391,18.0125 96.6211,16.9305 96.6211,15.5945 C96.6211,14.2595 95.5391,13.1765 94.2041,13.1765" id="Fill-130" fill="#5380B7" sketch:type="MSShapeGroup"></path>
            <path d="M89.7955,17.5602 C88.4605,17.5602 87.3785,18.6432 87.3785,19.9782 C87.3785,21.3142 88.4605,22.3962 89.7955,22.3962 C91.1305,22.3962 92.2125,21.3142 92.2125,19.9782 C92.2125,18.6432 91.1305,17.5602 89.7955,17.5602" id="Fill-132" fill="#5380B7" sketch:type="MSShapeGroup"></path>
            <path d="M94.2041,21.9438 C92.8691,21.9438 91.7871,23.0268 91.7871,24.3618 C91.7871,25.6978 92.8691,26.7798 94.2041,26.7798 C95.5391,26.7798 96.6211,25.6978 96.6211,24.3618 C96.6211,23.0268 95.5391,21.9438 94.2041,21.9438" id="Fill-134" fill="#5380B7" sketch:type="MSShapeGroup"></path>
            <path d="M89.7955,26.3275 C88.4605,26.3275 87.3785,27.4105 87.3785,28.7455 C87.3785,30.0815 88.4605,31.1635 89.7955,31.1635 C91.1305,31.1635 92.2125,30.0815 92.2125,28.7455 C92.2125,27.4105 91.1305,26.3275 89.7955,26.3275" id="Fill-136" fill="#5380B7" sketch:type="MSShapeGroup"></path>
            <path d="M93.3212,34.5216 C93.3212,35.8566 94.4032,36.9396 95.7382,36.9396 C97.0722,36.9396 98.1542,35.8566 98.1542,34.5216 C98.1542,33.1866 97.0722,32.1036 95.7382,32.1036 C94.4032,32.1036 93.3212,33.1866 93.3212,34.5216" id="Fill-138" fill="#5380B7" sketch:type="MSShapeGroup"></path>
            <path d="M89.7955,35.0947 C88.4605,35.0947 87.3785,36.1777 87.3785,37.5127 C87.3785,38.8487 88.4605,39.9307 89.7955,39.9307 C91.1305,39.9307 92.2125,38.8487 92.2125,37.5127 C92.2125,36.1777 91.1305,35.0947 89.7955,35.0947" id="Fill-140" fill="#5380B7" sketch:type="MSShapeGroup"></path>
            <path d="M94.2041,44.3145 C95.5391,44.3145 96.6211,43.2315 96.6211,41.8965 C96.6211,40.5605 95.5391,39.4785 94.2041,39.4785 C92.8691,39.4785 91.7871,40.5605 91.7871,41.8965 C91.7871,43.2315 92.8691,44.3145 94.2041,44.3145" id="Fill-142" fill="#5380B7" sketch:type="MSShapeGroup"></path>
            <path d="M89.7955,48.6982 C91.1305,48.6982 92.2125,47.6152 92.2125,46.2802 C92.2125,44.9442 91.1305,43.8622 89.7955,43.8622 C88.4605,43.8622 87.3785,44.9442 87.3785,46.2802 C87.3785,47.6152 88.4605,48.6982 89.7955,48.6982" id="Fill-144" fill="#5380B7" sketch:type="MSShapeGroup"></path>
            <path d="M94.2041,53.0818 C95.5391,53.0818 96.6211,51.9988 96.6211,50.6638 C96.6211,49.3278 95.5391,48.2458 94.2041,48.2458 C92.8691,48.2458 91.7871,49.3278 91.7871,50.6638 C91.7871,51.9988 92.8691,53.0818 94.2041,53.0818" id="Fill-146" fill="#5380B7" sketch:type="MSShapeGroup"></path>
            <path d="M89.7955,57.4654 C91.1305,57.4654 92.2125,56.3824 92.2125,55.0474 C92.2125,53.7114 91.1305,52.6294 89.7955,52.6294 C88.4605,52.6294 87.3785,53.7114 87.3785,55.0474 C87.3785,56.3824 88.4605,57.4654 89.7955,57.4654" id="Fill-148" fill="#5380B7" sketch:type="MSShapeGroup"></path>
            <path d="M94.2041,61.8491 C95.5391,61.8491 96.6211,60.7661 96.6211,59.4311 C96.6211,58.0951 95.5391,57.0131 94.2041,57.0131 C92.8691,57.0131 91.7871,58.0951 91.7871,59.4311 C91.7871,60.7661 92.8691,61.8491 94.2041,61.8491" id="Fill-150" fill="#5380B7" sketch:type="MSShapeGroup"></path>
            <path d="M89.7955,66.2327 C91.1305,66.2327 92.2125,65.1497 92.2125,63.8147 C92.2125,62.4787 91.1305,61.3967 89.7955,61.3967 C88.4605,61.3967 87.3785,62.4787 87.3785,63.8147 C87.3785,65.1497 88.4605,66.2327 89.7955,66.2327" id="Fill-152" fill="#5380B7" sketch:type="MSShapeGroup"></path>
            <path d="M94.2041,65.7802 C92.8691,65.7802 91.7871,66.8632 91.7871,68.1982 C91.7871,69.5342 92.8691,70.6162 94.2041,70.6162 C95.5391,70.6162 96.6211,69.5342 96.6211,68.1982 C96.6211,66.8632 95.5391,65.7802 94.2041,65.7802" id="Fill-154" fill="#5380B7" sketch:type="MSShapeGroup"></path>
            <path d="M89.7955,70.1638 C88.4605,70.1638 87.3785,71.2468 87.3785,72.5818 C87.3785,73.9178 88.4605,74.9998 89.7955,74.9998 C91.1305,74.9998 92.2125,73.9178 92.2125,72.5818 C92.2125,71.2468 91.1305,70.1638 89.7955,70.1638" id="Fill-156" fill="#5380B7" sketch:type="MSShapeGroup"></path>
            <path d="M98.5854,8.7929 C97.2504,8.7929 96.1684,9.8759 96.1684,11.2109 C96.1684,12.5469 97.2504,13.6289 98.5854,13.6289 C99.9204,13.6289 101.0024,12.5469 101.0024,11.2109 C101.0024,9.8759 99.9204,8.7929 98.5854,8.7929" id="Fill-158" fill="#5380B7" sketch:type="MSShapeGroup"></path>
            <path d="M102.9941,13.1765 C101.6591,13.1765 100.5771,14.2595 100.5771,15.5945 C100.5771,16.9305 101.6591,18.0125 102.9941,18.0125 C104.3291,18.0125 105.4111,16.9305 105.4111,15.5945 C105.4111,14.2595 104.3291,13.1765 102.9941,13.1765" id="Fill-160" fill="#5380B7" sketch:type="MSShapeGroup"></path>
            <path d="M98.5854,17.5602 C97.2504,17.5602 96.1684,18.6432 96.1684,19.9782 C96.1684,21.3142 97.2504,22.3962 98.5854,22.3962 C99.9204,22.3962 101.0024,21.3142 101.0024,19.9782 C101.0024,18.6432 99.9204,17.5602 98.5854,17.5602" id="Fill-162" fill="#5380B7" sketch:type="MSShapeGroup"></path>
            <path d="M102.9941,21.9438 C101.6591,21.9438 100.5771,23.0268 100.5771,24.3618 C100.5771,25.6978 101.6591,26.7798 102.9941,26.7798 C104.3291,26.7798 105.4111,25.6978 105.4111,24.3618 C105.4111,23.0268 104.3291,21.9438 102.9941,21.9438" id="Fill-164" fill="#5380B7" sketch:type="MSShapeGroup"></path>
            <path d="M101.0022,28.7455 C101.0022,27.4105 99.9202,26.3275 98.5852,26.3275 C97.2512,26.3275 96.1692,27.4105 96.1692,28.7455 C96.1692,30.0805 97.2512,31.1635 98.5852,31.1635 C99.9202,31.1635 101.0022,30.0805 101.0022,28.7455" id="Fill-166" fill="#5380B7" sketch:type="MSShapeGroup"></path>
            <path d="M102.9941,30.7111 C101.6591,30.7111 100.5771,31.7941 100.5771,33.1291 C100.5771,34.4651 101.6591,35.5471 102.9941,35.5471 C104.3291,35.5471 105.4111,34.4651 105.4111,33.1291 C105.4111,31.7941 104.3291,30.7111 102.9941,30.7111" id="Fill-168" fill="#5380B7" sketch:type="MSShapeGroup"></path>
            <path d="M102.9941,44.3145 C104.3291,44.3145 105.4111,43.2315 105.4111,41.8965 C105.4111,40.5605 104.3291,39.4785 102.9941,39.4785 C101.6591,39.4785 100.5771,40.5605 100.5771,41.8965 C100.5771,43.2315 101.6591,44.3145 102.9941,44.3145" id="Fill-170" fill="#5380B7" sketch:type="MSShapeGroup"></path>
            <path d="M98.5854,48.6982 C99.9204,48.6982 101.0024,47.6152 101.0024,46.2802 C101.0024,44.9442 99.9204,43.8622 98.5854,43.8622 C97.2504,43.8622 96.1684,44.9442 96.1684,46.2802 C96.1684,47.6152 97.2504,48.6982 98.5854,48.6982" id="Fill-172" fill="#5380B7" sketch:type="MSShapeGroup"></path>
            <path d="M102.9941,53.0818 C104.3291,53.0818 105.4111,51.9988 105.4111,50.6638 C105.4111,49.3278 104.3291,48.2458 102.9941,48.2458 C101.6591,48.2458 100.5771,49.3278 100.5771,50.6638 C100.5771,51.9988 101.6591,53.0818 102.9941,53.0818" id="Fill-174" fill="#5380B7" sketch:type="MSShapeGroup"></path>
            <path d="M98.5854,57.4654 C99.9204,57.4654 101.0024,56.3824 101.0024,55.0474 C101.0024,53.7114 99.9204,52.6294 98.5854,52.6294 C97.2504,52.6294 96.1684,53.7114 96.1684,55.0474 C96.1684,56.3824 97.2504,57.4654 98.5854,57.4654" id="Fill-176" fill="#5380B7" sketch:type="MSShapeGroup"></path>
            <path d="M102.9941,61.8491 C104.3291,61.8491 105.4111,60.7661 105.4111,59.4311 C105.4111,58.0951 104.3291,57.0131 102.9941,57.0131 C101.6591,57.0131 100.5771,58.0951 100.5771,59.4311 C100.5771,60.7661 101.6591,61.8491 102.9941,61.8491" id="Fill-178" fill="#5380B7" sketch:type="MSShapeGroup"></path>
            <path d="M98.5854,66.2327 C99.9204,66.2327 101.0024,65.1497 101.0024,63.8147 C101.0024,62.4787 99.9204,61.3967 98.5854,61.3967 C97.2504,61.3967 96.1684,62.4787 96.1684,63.8147 C96.1684,65.1497 97.2504,66.2327 98.5854,66.2327" id="Fill-180" fill="#5380B7" sketch:type="MSShapeGroup"></path>
            <path d="M102.9941,65.7802 C101.6591,65.7802 100.5771,66.8632 100.5771,68.1982 C100.5771,69.5342 101.6591,70.6162 102.9941,70.6162 C104.3291,70.6162 105.4111,69.5342 105.4111,68.1982 C105.4111,66.8632 104.3291,65.7802 102.9941,65.7802" id="Fill-182" fill="#5380B7" sketch:type="MSShapeGroup"></path>
            <path d="M98.5854,70.1638 C97.2504,70.1638 96.1684,71.2468 96.1684,72.5818 C96.1684,73.9178 97.2504,74.9998 98.5854,74.9998 C99.9204,74.9998 101.0024,73.9178 101.0024,72.5818 C101.0024,71.2468 99.9204,70.1638 98.5854,70.1638" id="Fill-184" fill="#5380B7" sketch:type="MSShapeGroup"></path>
            <path d="M107.5032,8.7929 C106.1682,8.7929 105.0862,9.8759 105.0862,11.2109 C105.0862,12.5469 106.1682,13.6289 107.5032,13.6289 C108.8382,13.6289 109.9202,12.5469 109.9202,11.2109 C109.9202,9.8759 108.8382,8.7929 107.5032,8.7929" id="Fill-186" fill="#5380B7" sketch:type="MSShapeGroup"></path>
            <path d="M111.9117,13.1765 C110.5767,13.1765 109.4947,14.2595 109.4947,15.5945 C109.4947,16.9305 110.5767,18.0125 111.9117,18.0125 C113.2467,18.0125 114.3287,16.9305 114.3287,15.5945 C114.3287,14.2595 113.2467,13.1765 111.9117,13.1765" id="Fill-188" fill="#5380B7" sketch:type="MSShapeGroup"></path>
            <path d="M107.5032,17.5602 C106.1682,17.5602 105.0862,18.6432 105.0862,19.9782 C105.0862,21.3142 106.1682,22.3962 107.5032,22.3962 C108.8382,22.3962 109.9202,21.3142 109.9202,19.9782 C109.9202,18.6432 108.8382,17.5602 107.5032,17.5602" id="Fill-190" fill="#5380B7" sketch:type="MSShapeGroup"></path>
            <path d="M111.9117,21.9438 C110.5767,21.9438 109.4947,23.0268 109.4947,24.3618 C109.4947,25.6978 110.5767,26.7798 111.9117,26.7798 C113.2467,26.7798 114.3287,25.6978 114.3287,24.3618 C114.3287,23.0268 113.2467,21.9438 111.9117,21.9438" id="Fill-192" fill="#5380B7" sketch:type="MSShapeGroup"></path>
            <path d="M107.5032,26.3275 C106.1682,26.3275 105.0862,27.4105 105.0862,28.7455 C105.0862,30.0815 106.1682,31.1635 107.5032,31.1635 C108.8382,31.1635 109.9202,30.0815 109.9202,28.7455 C109.9202,27.4105 108.8382,26.3275 107.5032,26.3275" id="Fill-194" fill="#5380B7" sketch:type="MSShapeGroup"></path>
            <path d="M111.9117,30.7111 C110.5767,30.7111 109.4947,31.7941 109.4947,33.1291 C109.4947,34.4651 110.5767,35.5471 111.9117,35.5471 C113.2467,35.5471 114.3287,34.4651 114.3287,33.1291 C114.3287,31.7941 113.2467,30.7111 111.9117,30.7111" id="Fill-196" fill="#5380B7" sketch:type="MSShapeGroup"></path>
            <path d="M107.5032,35.0947 C106.1682,35.0947 105.0862,36.1777 105.0862,37.5127 C105.0862,38.8487 106.1682,39.9307 107.5032,39.9307 C108.8382,39.9307 109.9202,38.8487 109.9202,37.5127 C109.9202,36.1777 108.8382,35.0947 107.5032,35.0947" id="Fill-198" fill="#5380B7" sketch:type="MSShapeGroup"></path>
            <path d="M111.9117,39.4783 C110.5767,39.4783 109.4947,40.5613 109.4947,41.8963 C109.4947,43.2323 110.5767,44.3143 111.9117,44.3143 C113.2467,44.3143 114.3287,43.2323 114.3287,41.8963 C114.3287,40.5613 113.2467,39.4783 111.9117,39.4783" id="Fill-200" fill="#5380B7" sketch:type="MSShapeGroup"></path>
            <path d="M107.5032,43.862 C106.1682,43.862 105.0862,44.945 105.0862,46.28 C105.0862,47.616 106.1682,48.698 107.5032,48.698 C108.8382,48.698 109.9202,47.616 109.9202,46.28 C109.9202,44.945 108.8382,43.862 107.5032,43.862" id="Fill-202" fill="#5380B7" sketch:type="MSShapeGroup"></path>
            <path d="M111.9117,48.2457 C110.5767,48.2457 109.4947,49.3287 109.4947,50.6637 C109.4947,51.9997 110.5767,53.0817 111.9117,53.0817 C113.2467,53.0817 114.3287,51.9997 114.3287,50.6637 C114.3287,49.3287 113.2467,48.2457 111.9117,48.2457" id="Fill-204" fill="#5380B7" sketch:type="MSShapeGroup"></path>
            <path d="M107.5032,57.4654 C108.8382,57.4654 109.9202,56.3824 109.9202,55.0474 C109.9202,53.7114 108.8382,52.6294 107.5032,52.6294 C106.1682,52.6294 105.0862,53.7114 105.0862,55.0474 C105.0862,56.3824 106.1682,57.4654 107.5032,57.4654" id="Fill-206" fill="#5380B7" sketch:type="MSShapeGroup"></path>
            <path d="M111.9117,61.8491 C113.2467,61.8491 114.3287,60.7661 114.3287,59.4311 C114.3287,58.0951 113.2467,57.0131 111.9117,57.0131 C110.5767,57.0131 109.4947,58.0951 109.4947,59.4311 C109.4947,60.7661 110.5767,61.8491 111.9117,61.8491" id="Fill-208" fill="#5380B7" sketch:type="MSShapeGroup"></path>
            <path d="M107.5032,66.2327 C108.8382,66.2327 109.9202,65.1497 109.9202,63.8147 C109.9202,62.4787 108.8382,61.3967 107.5032,61.3967 C106.1682,61.3967 105.0862,62.4787 105.0862,63.8147 C105.0862,65.1497 106.1682,66.2327 107.5032,66.2327" id="Fill-210" fill="#5380B7" sketch:type="MSShapeGroup"></path>
            <path d="M111.9117,65.7802 C110.5767,65.7802 109.4947,66.8632 109.4947,68.1982 C109.4947,69.5342 110.5767,70.6162 111.9117,70.6162 C113.2467,70.6162 114.3287,69.5342 114.3287,68.1982 C114.3287,66.8632 113.2467,65.7802 111.9117,65.7802" id="Fill-212" fill="#5380B7" sketch:type="MSShapeGroup"></path>
            <path d="M107.5032,70.1638 C106.1682,70.1638 105.0862,71.2468 105.0862,72.5818 C105.0862,73.9178 106.1682,74.9998 107.5032,74.9998 C108.8382,74.9998 109.9202,73.9178 109.9202,72.5818 C109.9202,71.2468 108.8382,70.1638 107.5032,70.1638" id="Fill-214" fill="#5380B7" sketch:type="MSShapeGroup"></path>
            <path d="M116.293,8.7929 C114.958,8.7929 113.876,9.8759 113.876,11.2109 C113.876,12.5469 114.958,13.6289 116.293,13.6289 C117.628,13.6289 118.71,12.5469 118.71,11.2109 C118.71,9.8759 117.628,8.7929 116.293,8.7929" id="Fill-216" fill="#5380B7" sketch:type="MSShapeGroup"></path>
            <path d="M116.293,17.5602 C114.958,17.5602 113.876,18.6432 113.876,19.9782 C113.876,21.3142 114.958,22.3962 116.293,22.3962 C117.628,22.3962 118.71,21.3142 118.71,19.9782 C118.71,18.6432 117.628,17.5602 116.293,17.5602" id="Fill-218" fill="#5380B7" sketch:type="MSShapeGroup"></path>
            <path d="M116.293,26.3275 C114.958,26.3275 113.876,27.4105 113.876,28.7455 C113.876,30.0815 114.958,31.1635 116.293,31.1635 C117.628,31.1635 118.71,30.0815 118.71,28.7455 C118.71,27.4105 117.628,26.3275 116.293,26.3275" id="Fill-220" fill="#5380B7" sketch:type="MSShapeGroup"></path>
            <path d="M116.293,35.0947 C114.958,35.0947 113.876,36.1777 113.876,37.5127 C113.876,38.8487 114.958,39.9307 116.293,39.9307 C117.628,39.9307 118.71,38.8487 118.71,37.5127 C118.71,36.1777 117.628,35.0947 116.293,35.0947" id="Fill-222" fill="#5380B7" sketch:type="MSShapeGroup"></path>
            <path d="M116.293,43.862 C114.958,43.862 113.876,44.945 113.876,46.28 C113.876,47.616 114.958,48.698 116.293,48.698 C117.628,48.698 118.71,47.616 118.71,46.28 C118.71,44.945 117.628,43.862 116.293,43.862" id="Fill-224" fill="#5380B7" sketch:type="MSShapeGroup"></path>
            <path d="M116.293,52.6293 C114.958,52.6293 113.876,53.7123 113.876,55.0473 C113.876,56.3833 114.958,57.4653 116.293,57.4653 C117.628,57.4653 118.71,56.3833 118.71,55.0473 C118.71,53.7123 117.628,52.6293 116.293,52.6293" id="Fill-226" fill="#5380B7" sketch:type="MSShapeGroup"></path>
            <path d="M116.293,61.3965 C114.958,61.3965 113.876,62.4795 113.876,63.8145 C113.876,65.1505 114.958,66.2325 116.293,66.2325 C117.628,66.2325 118.71,65.1505 118.71,63.8145 C118.71,62.4795 117.628,61.3965 116.293,61.3965" id="Fill-228" fill="#5380B7" sketch:type="MSShapeGroup"></path>
            <path d="M116.293,70.1638 C114.958,70.1638 113.876,71.2468 113.876,72.5818 C113.876,73.9178 114.958,74.9998 116.293,74.9998 C117.628,74.9998 118.71,73.9178 118.71,72.5818 C118.71,71.2468 117.628,70.1638 116.293,70.1638" id="Fill-230" fill="#5380B7" sketch:type="MSShapeGroup"></path>
            <mask id="mask-16" sketch:name="Clip 233" fill="white">
                <use xlink:href="#path-15"></use>
            </mask>
            <g id="Clip-233"></g>
            <path d="M181.338,74.754 L123.733,74.754 L123.733,0.271 L181.338,0.271 L181.338,74.754 Z" id="Fill-232" fill="#5380B7" sketch:type="MSShapeGroup" mask="url(#mask-16)"></path>
            <path d="M314.1372,2.4437 C314.1372,3.7787 313.0552,4.8617 311.7202,4.8617 C310.3852,4.8617 309.3032,3.7787 309.3032,2.4437 C309.3032,1.1087 310.3852,0.0257 311.7202,0.0257 C313.0552,0.0257 314.1372,1.1087 314.1372,2.4437" id="Fill-234" fill="#5380B7" sketch:type="MSShapeGroup" mask="url(#mask-16)"></path>
            <path d="M318.5458,6.8274 C318.5458,8.1624 317.4638,9.2454 316.1288,9.2454 C314.7948,9.2454 313.7118,8.1624 313.7118,6.8274 C313.7118,5.4924 314.7948,4.4094 316.1288,4.4094 C317.4638,4.4094 318.5458,5.4924 318.5458,6.8274" id="Fill-235" fill="#5380B7" sketch:type="MSShapeGroup" mask="url(#mask-16)"></path>
            <path d="M323.0549,2.4437 C323.0549,3.7787 321.9729,4.8617 320.6379,4.8617 C319.3029,4.8617 318.2209,3.7787 318.2209,2.4437 C318.2209,1.1087 319.3029,0.0257 320.6379,0.0257 C321.9729,0.0257 323.0549,1.1087 323.0549,2.4437" id="Fill-236" fill="#5380B7" sketch:type="MSShapeGroup" mask="url(#mask-16)"></path>
            <path d="M327.4635,6.8274 C327.4635,8.1624 326.3815,9.2454 325.0465,9.2454 C323.7125,9.2454 322.6295,8.1624 322.6295,6.8274 C322.6295,5.4924 323.7125,4.4094 325.0465,4.4094 C326.3815,4.4094 327.4635,5.4924 327.4635,6.8274" id="Fill-237" fill="#5380B7" sketch:type="MSShapeGroup" mask="url(#mask-16)"></path>
            <path d="M331.8448,2.4437 C331.8448,3.7787 330.7628,4.8617 329.4278,4.8617 C328.0928,4.8617 327.0108,3.7787 327.0108,2.4437 C327.0108,1.1087 328.0928,0.0257 329.4278,0.0257 C330.7628,0.0257 331.8448,1.1087 331.8448,2.4437" id="Fill-238" fill="#5380B7" sketch:type="MSShapeGroup" mask="url(#mask-16)"></path>
            <path d="M336.2534,6.8274 C336.2534,8.1624 335.1714,9.2454 333.8364,9.2454 C332.5024,9.2454 331.4194,8.1624 331.4194,6.8274 C331.4194,5.4924 332.5024,4.4094 333.8364,4.4094 C335.1714,4.4094 336.2534,5.4924 336.2534,6.8274" id="Fill-239" fill="#5380B7" sketch:type="MSShapeGroup" mask="url(#mask-16)"></path>
            <path d="M340.653,2.4437 C340.653,3.7787 339.571,4.8617 338.236,4.8617 C336.901,4.8617 335.819,3.7787 335.819,2.4437 C335.819,1.1087 336.901,0.0257 338.236,0.0257 C339.571,0.0257 340.653,1.1087 340.653,2.4437" id="Fill-240" fill="#5380B7" sketch:type="MSShapeGroup" mask="url(#mask-16)"></path>
            <path d="M345.0616,6.8274 C345.0616,8.1624 343.9796,9.2454 342.6446,9.2454 C341.3106,9.2454 340.2276,8.1624 340.2276,6.8274 C340.2276,5.4924 341.3106,4.4094 342.6446,4.4094 C343.9796,4.4094 345.0616,5.4924 345.0616,6.8274" id="Fill-241" fill="#5380B7" sketch:type="MSShapeGroup" mask="url(#mask-16)"></path>
            <path d="M349.4429,2.4437 C349.4429,3.7787 348.3609,4.8617 347.0259,4.8617 C345.6909,4.8617 344.6089,3.7787 344.6089,2.4437 C344.6089,1.1087 345.6909,0.0257 347.0259,0.0257 C348.3609,0.0257 349.4429,1.1087 349.4429,2.4437" id="Fill-242" fill="#5380B7" sketch:type="MSShapeGroup" mask="url(#mask-16)"></path>
            <path d="M353.8515,6.8274 C353.8515,8.1624 352.7695,9.2454 351.4345,9.2454 C350.0995,9.2454 349.0175,8.1624 349.0175,6.8274 C349.0175,5.4924 350.0995,4.4094 351.4345,4.4094 C352.7695,4.4094 353.8515,5.4924 353.8515,6.8274" id="Fill-243" fill="#5380B7" sketch:type="MSShapeGroup" mask="url(#mask-16)"></path>
            <path d="M358.3606,2.4437 C358.3606,3.7787 357.2786,4.8617 355.9436,4.8617 C354.6086,4.8617 353.5266,3.7787 353.5266,2.4437 C353.5266,1.1087 354.6086,0.0257 355.9436,0.0257 C357.2786,0.0257 358.3606,1.1087 358.3606,2.4437" id="Fill-244" fill="#5380B7" sketch:type="MSShapeGroup" mask="url(#mask-16)"></path>
            <path d="M362.7692,6.8274 C362.7692,8.1624 361.6872,9.2454 360.3522,9.2454 C359.0172,9.2454 357.9352,8.1624 357.9352,6.8274 C357.9352,5.4924 359.0172,4.4094 360.3522,4.4094 C361.6872,4.4094 362.7692,5.4924 362.7692,6.8274" id="Fill-245" fill="#5380B7" sketch:type="MSShapeGroup" mask="url(#mask-16)"></path>
            <path d="M367.1505,2.4437 C367.1505,3.7787 366.0685,4.8617 364.7335,4.8617 C363.3995,4.8617 362.3165,3.7787 362.3165,2.4437 C362.3165,1.1087 363.3995,0.0257 364.7335,0.0257 C366.0685,0.0257 367.1505,1.1087 367.1505,2.4437" id="Fill-246" fill="#5380B7" sketch:type="MSShapeGroup" mask="url(#mask-16)"></path>
            <path d="M314.1372,11.211 C314.1372,12.546 313.0552,13.629 311.7202,13.629 C310.3852,13.629 309.3032,12.546 309.3032,11.211 C309.3032,9.876 310.3852,8.793 311.7202,8.793 C313.0552,8.793 314.1372,9.876 314.1372,11.211" id="Fill-247" fill="#5380B7" sketch:type="MSShapeGroup" mask="url(#mask-16)"></path>
            <path d="M318.5458,15.5946 C318.5458,16.9296 317.4638,18.0126 316.1288,18.0126 C314.7948,18.0126 313.7118,16.9296 313.7118,15.5946 C313.7118,14.2596 314.7948,13.1766 316.1288,13.1766 C317.4638,13.1766 318.5458,14.2596 318.5458,15.5946" id="Fill-248" fill="#5380B7" sketch:type="MSShapeGroup" mask="url(#mask-16)"></path>
            <path d="M314.1372,19.9783 C314.1372,21.3133 313.0552,22.3963 311.7202,22.3963 C310.3852,22.3963 309.3032,21.3133 309.3032,19.9783 C309.3032,18.6433 310.3852,17.5603 311.7202,17.5603 C313.0552,17.5603 314.1372,18.6433 314.1372,19.9783" id="Fill-249" fill="#5380B7" sketch:type="MSShapeGroup" mask="url(#mask-16)"></path>
            <path d="M318.5458,24.3619 C318.5458,25.6969 317.4638,26.7799 316.1288,26.7799 C314.7948,26.7799 313.7118,25.6969 313.7118,24.3619 C313.7118,23.0269 314.7948,21.9439 316.1288,21.9439 C317.4638,21.9439 318.5458,23.0269 318.5458,24.3619" id="Fill-250" fill="#5380B7" sketch:type="MSShapeGroup" mask="url(#mask-16)"></path>
            <path d="M314.1372,28.7455 C314.1372,30.0805 313.0552,31.1635 311.7202,31.1635 C310.3852,31.1635 309.3032,30.0805 309.3032,28.7455 C309.3032,27.4105 310.3852,26.3275 311.7202,26.3275 C313.0552,26.3275 314.1372,27.4105 314.1372,28.7455" id="Fill-251" fill="#5380B7" sketch:type="MSShapeGroup" mask="url(#mask-16)"></path>
            <path d="M318.5458,33.1292 C318.5458,34.4642 317.4638,35.5472 316.1288,35.5472 C314.7948,35.5472 313.7118,34.4642 313.7118,33.1292 C313.7118,31.7942 314.7948,30.7112 316.1288,30.7112 C317.4638,30.7112 318.5458,31.7942 318.5458,33.1292" id="Fill-252" fill="#5380B7" sketch:type="MSShapeGroup" mask="url(#mask-16)"></path>
            <path d="M314.1372,37.5128 C314.1372,38.8478 313.0552,39.9308 311.7202,39.9308 C310.3852,39.9308 309.3032,38.8478 309.3032,37.5128 C309.3032,36.1778 310.3852,35.0948 311.7202,35.0948 C313.0552,35.0948 314.1372,36.1778 314.1372,37.5128" id="Fill-253" fill="#5380B7" sketch:type="MSShapeGroup" mask="url(#mask-16)"></path>
            <path d="M318.5458,41.8965 C318.5458,43.2315 317.4638,44.3145 316.1288,44.3145 C314.7948,44.3145 313.7118,43.2315 313.7118,41.8965 C313.7118,40.5615 314.7948,39.4785 316.1288,39.4785 C317.4638,39.4785 318.5458,40.5615 318.5458,41.8965" id="Fill-254" fill="#5380B7" sketch:type="MSShapeGroup" mask="url(#mask-16)"></path>
            <path d="M314.1372,46.2801 C314.1372,47.6151 313.0552,48.6981 311.7202,48.6981 C310.3852,48.6981 309.3032,47.6151 309.3032,46.2801 C309.3032,44.9451 310.3852,43.8621 311.7202,43.8621 C313.0552,43.8621 314.1372,44.9451 314.1372,46.2801" id="Fill-255" fill="#5380B7" sketch:type="MSShapeGroup" mask="url(#mask-16)"></path>
            <path d="M318.5458,50.6637 C318.5458,51.9987 317.4638,53.0817 316.1288,53.0817 C314.7948,53.0817 313.7118,51.9987 313.7118,50.6637 C313.7118,49.3287 314.7948,48.2457 316.1288,48.2457 C317.4638,48.2457 318.5458,49.3287 318.5458,50.6637" id="Fill-256" fill="#5380B7" sketch:type="MSShapeGroup" mask="url(#mask-16)"></path>
            <path d="M314.1372,55.0474 C314.1372,56.3824 313.0552,57.4654 311.7202,57.4654 C310.3852,57.4654 309.3032,56.3824 309.3032,55.0474 C309.3032,53.7124 310.3852,52.6294 311.7202,52.6294 C313.0552,52.6294 314.1372,53.7124 314.1372,55.0474" id="Fill-257" fill="#5380B7" sketch:type="MSShapeGroup" mask="url(#mask-16)"></path>
            <path d="M318.5458,59.431 C318.5458,60.766 317.4638,61.849 316.1288,61.849 C314.7948,61.849 313.7118,60.766 313.7118,59.431 C313.7118,58.096 314.7948,57.013 316.1288,57.013 C317.4638,57.013 318.5458,58.096 318.5458,59.431" id="Fill-258" fill="#5380B7" sketch:type="MSShapeGroup" mask="url(#mask-16)"></path>
            <path d="M314.1372,63.8146 C314.1372,65.1496 313.0552,66.2326 311.7202,66.2326 C310.3852,66.2326 309.3032,65.1496 309.3032,63.8146 C309.3032,62.4796 310.3852,61.3966 311.7202,61.3966 C313.0552,61.3966 314.1372,62.4796 314.1372,63.8146" id="Fill-259" fill="#5380B7" sketch:type="MSShapeGroup" mask="url(#mask-16)"></path>
            <path d="M318.5458,68.1983 C318.5458,69.5333 317.4638,70.6163 316.1288,70.6163 C314.7948,70.6163 313.7118,69.5333 313.7118,68.1983 C313.7118,66.8633 314.7948,65.7803 316.1288,65.7803 C317.4638,65.7803 318.5458,66.8633 318.5458,68.1983" id="Fill-260" fill="#5380B7" sketch:type="MSShapeGroup" mask="url(#mask-16)"></path>
            <path d="M314.1372,72.5819 C314.1372,73.9169 313.0552,74.9999 311.7202,74.9999 C310.3852,74.9999 309.3032,73.9169 309.3032,72.5819 C309.3032,71.2469 310.3852,70.1639 311.7202,70.1639 C313.0552,70.1639 314.1372,71.2469 314.1372,72.5819" id="Fill-261" fill="#5380B7" sketch:type="MSShapeGroup" mask="url(#mask-16)"></path>
            <path d="M323.0549,11.211 C323.0549,12.546 321.9729,13.629 320.6379,13.629 C319.3029,13.629 318.2209,12.546 318.2209,11.211 C318.2209,9.876 319.3029,8.793 320.6379,8.793 C321.9729,8.793 323.0549,9.876 323.0549,11.211" id="Fill-262" fill="#5380B7" sketch:type="MSShapeGroup" mask="url(#mask-16)"></path>
            <path d="M327.4635,15.5946 C327.4635,16.9296 326.3815,18.0126 325.0465,18.0126 C323.7125,18.0126 322.6295,16.9296 322.6295,15.5946 C322.6295,14.2596 323.7125,13.1766 325.0465,13.1766 C326.3815,13.1766 327.4635,14.2596 327.4635,15.5946" id="Fill-263" fill="#5380B7" sketch:type="MSShapeGroup" mask="url(#mask-16)"></path>
            <path d="M323.0549,19.9783 C323.0549,21.3133 321.9729,22.3963 320.6379,22.3963 C319.3029,22.3963 318.2209,21.3133 318.2209,19.9783 C318.2209,18.6433 319.3029,17.5603 320.6379,17.5603 C321.9729,17.5603 323.0549,18.6433 323.0549,19.9783" id="Fill-264" fill="#5380B7" sketch:type="MSShapeGroup" mask="url(#mask-16)"></path>
            <path d="M327.4635,24.3619 C327.4635,25.6969 326.3815,26.7799 325.0465,26.7799 C323.7125,26.7799 322.6295,25.6969 322.6295,24.3619 C322.6295,23.0269 323.7125,21.9439 325.0465,21.9439 C326.3815,21.9439 327.4635,23.0269 327.4635,24.3619" id="Fill-265" fill="#5380B7" sketch:type="MSShapeGroup" mask="url(#mask-16)"></path>
            <path d="M323.0549,28.7455 C323.0549,30.0805 321.9729,31.1635 320.6379,31.1635 C319.3029,31.1635 318.2209,30.0805 318.2209,28.7455 C318.2209,27.4105 319.3029,26.3275 320.6379,26.3275 C321.9729,26.3275 323.0549,27.4105 323.0549,28.7455" id="Fill-266" fill="#5380B7" sketch:type="MSShapeGroup" mask="url(#mask-16)"></path>
            <path d="M327.4635,33.1292 C327.4635,34.4642 326.3815,35.5472 325.0465,35.5472 C323.7125,35.5472 322.6295,34.4642 322.6295,33.1292 C322.6295,31.7942 323.7125,30.7112 325.0465,30.7112 C326.3815,30.7112 327.4635,31.7942 327.4635,33.1292" id="Fill-267" fill="#5380B7" sketch:type="MSShapeGroup" mask="url(#mask-16)"></path>
            <path d="M323.0549,37.5128 C323.0549,38.8478 321.9729,39.9308 320.6379,39.9308 C319.3029,39.9308 318.2209,38.8478 318.2209,37.5128 C318.2209,36.1778 319.3029,35.0948 320.6379,35.0948 C321.9729,35.0948 323.0549,36.1778 323.0549,37.5128" id="Fill-268" fill="#5380B7" sketch:type="MSShapeGroup" mask="url(#mask-16)"></path>
            <path d="M327.4635,41.8965 C327.4635,43.2315 326.3815,44.3145 325.0465,44.3145 C323.7125,44.3145 322.6295,43.2315 322.6295,41.8965 C322.6295,40.5615 323.7125,39.4785 325.0465,39.4785 C326.3815,39.4785 327.4635,40.5615 327.4635,41.8965" id="Fill-269" fill="#5380B7" sketch:type="MSShapeGroup" mask="url(#mask-16)"></path>
            <path d="M323.0549,46.2801 C323.0549,47.6151 321.9729,48.6981 320.6379,48.6981 C319.3029,48.6981 318.2209,47.6151 318.2209,46.2801 C318.2209,44.9451 319.3029,43.8621 320.6379,43.8621 C321.9729,43.8621 323.0549,44.9451 323.0549,46.2801" id="Fill-270" fill="#5380B7" sketch:type="MSShapeGroup" mask="url(#mask-16)"></path>
            <path d="M327.4635,50.6637 C327.4635,51.9987 326.3815,53.0817 325.0465,53.0817 C323.7125,53.0817 322.6295,51.9987 322.6295,50.6637 C322.6295,49.3287 323.7125,48.2457 325.0465,48.2457 C326.3815,48.2457 327.4635,49.3287 327.4635,50.6637" id="Fill-271" fill="#5380B7" sketch:type="MSShapeGroup" mask="url(#mask-16)"></path>
            <path d="M323.0549,55.0474 C323.0549,56.3824 321.9729,57.4654 320.6379,57.4654 C319.3029,57.4654 318.2209,56.3824 318.2209,55.0474 C318.2209,53.7124 319.3029,52.6294 320.6379,52.6294 C321.9729,52.6294 323.0549,53.7124 323.0549,55.0474" id="Fill-272" fill="#5380B7" sketch:type="MSShapeGroup" mask="url(#mask-16)"></path>
            <path d="M327.4635,59.431 C327.4635,60.766 326.3815,61.849 325.0465,61.849 C323.7125,61.849 322.6295,60.766 322.6295,59.431 C322.6295,58.096 323.7125,57.013 325.0465,57.013 C326.3815,57.013 327.4635,58.096 327.4635,59.431" id="Fill-273" fill="#5380B7" sketch:type="MSShapeGroup" mask="url(#mask-16)"></path>
            <path d="M323.0549,63.8146 C323.0549,65.1496 321.9729,66.2326 320.6379,66.2326 C319.3029,66.2326 318.2209,65.1496 318.2209,63.8146 C318.2209,62.4796 319.3029,61.3966 320.6379,61.3966 C321.9729,61.3966 323.0549,62.4796 323.0549,63.8146" id="Fill-274" fill="#5380B7" sketch:type="MSShapeGroup" mask="url(#mask-16)"></path>
            <path d="M327.4635,68.1983 C327.4635,69.5333 326.3815,70.6163 325.0465,70.6163 C323.7125,70.6163 322.6295,69.5333 322.6295,68.1983 C322.6295,66.8633 323.7125,65.7803 325.0465,65.7803 C326.3815,65.7803 327.4635,66.8633 327.4635,68.1983" id="Fill-275" fill="#5380B7" sketch:type="MSShapeGroup" mask="url(#mask-16)"></path>
            <path d="M323.0549,72.5819 C323.0549,73.9169 321.9729,74.9999 320.6379,74.9999 C319.3029,74.9999 318.2209,73.9169 318.2209,72.5819 C318.2209,71.2469 319.3029,70.1639 320.6379,70.1639 C321.9729,70.1639 323.0549,71.2469 323.0549,72.5819" id="Fill-276" fill="#5380B7" sketch:type="MSShapeGroup" mask="url(#mask-16)"></path>
            <path d="M331.8448,11.211 C331.8448,12.546 330.7628,13.629 329.4278,13.629 C328.0928,13.629 327.0108,12.546 327.0108,11.211 C327.0108,9.876 328.0928,8.793 329.4278,8.793 C330.7628,8.793 331.8448,9.876 331.8448,11.211" id="Fill-277" fill="#5380B7" sketch:type="MSShapeGroup" mask="url(#mask-16)"></path>
            <path d="M336.2534,16.1914 C336.2534,17.5264 335.1714,18.6094 333.8364,18.6094 C332.5024,18.6094 331.4194,17.5264 331.4194,16.1914 C331.4194,14.8564 332.5024,13.7734 333.8364,13.7734 C335.1714,13.7734 336.2534,14.8564 336.2534,16.1914" id="Fill-278" fill="#5380B7" sketch:type="MSShapeGroup" mask="url(#mask-16)"></path>
            <path d="M345.1148,16.5324 C345.1148,17.8674 344.0328,18.9504 342.6978,18.9504 C341.3638,18.9504 340.2808,17.8674 340.2808,16.5324 C340.2808,15.1974 341.3638,14.1144 342.6978,14.1144 C344.0328,14.1144 345.1148,15.1974 345.1148,16.5324" id="Fill-279" fill="#5380B7" sketch:type="MSShapeGroup" mask="url(#mask-16)"></path>
            <path d="M332.1856,20.6603 C332.1856,21.9953 331.1036,23.0783 329.7686,23.0783 C328.4336,23.0783 327.3516,21.9953 327.3516,20.6603 C327.3516,19.3253 328.4336,18.2423 329.7686,18.2423 C331.1036,18.2423 332.1856,19.3253 332.1856,20.6603" id="Fill-280" fill="#5380B7" sketch:type="MSShapeGroup" mask="url(#mask-16)"></path>
            <path d="M336.5942,24.7029 C336.5942,26.0379 335.5122,27.1209 334.1772,27.1209 C332.8432,27.1209 331.7602,26.0379 331.7602,24.7029 C331.7602,23.3679 332.8432,22.2849 334.1772,22.2849 C335.5122,22.2849 336.5942,23.3679 336.5942,24.7029" id="Fill-281" fill="#5380B7" sketch:type="MSShapeGroup" mask="url(#mask-16)"></path>
            <path d="M332.1856,28.7455 C332.1856,30.0805 331.1036,31.1635 329.7686,31.1635 C328.4336,31.1635 327.3516,30.0805 327.3516,28.7455 C327.3516,27.4105 328.4336,26.3275 329.7686,26.3275 C331.1036,26.3275 332.1856,27.4105 332.1856,28.7455" id="Fill-282" fill="#5380B7" sketch:type="MSShapeGroup" mask="url(#mask-16)"></path>
            <path d="M336.2534,33.1292 C336.2534,34.4642 335.1714,35.5472 333.8364,35.5472 C332.5024,35.5472 331.4194,34.4642 331.4194,33.1292 C331.4194,31.7942 332.5024,30.7112 333.8364,30.7112 C335.1714,30.7112 336.2534,31.7942 336.2534,33.1292" id="Fill-283" fill="#5380B7" sketch:type="MSShapeGroup" mask="url(#mask-16)"></path>
            <path d="M331.8448,37.5128 C331.8448,38.8478 330.7628,39.9308 329.4278,39.9308 C328.0928,39.9308 327.0108,38.8478 327.0108,37.5128 C327.0108,36.1778 328.0928,35.0948 329.4278,35.0948 C330.7628,35.0948 331.8448,36.1778 331.8448,37.5128" id="Fill-284" fill="#5380B7" sketch:type="MSShapeGroup" mask="url(#mask-16)"></path>
            <path d="M336.2534,41.8965 C336.2534,43.2315 335.1714,44.3145 333.8364,44.3145 C332.5024,44.3145 331.4194,43.2315 331.4194,41.8965 C331.4194,40.5615 332.5024,39.4785 333.8364,39.4785 C335.1714,39.4785 336.2534,40.5615 336.2534,41.8965" id="Fill-285" fill="#5380B7" sketch:type="MSShapeGroup" mask="url(#mask-16)"></path>
            <path d="M331.8448,46.2801 C331.8448,47.6151 330.7628,48.6981 329.4278,48.6981 C328.0928,48.6981 327.0108,47.6151 327.0108,46.2801 C327.0108,44.9451 328.0928,43.8621 329.4278,43.8621 C330.7628,43.8621 331.8448,44.9451 331.8448,46.2801" id="Fill-286" fill="#5380B7" sketch:type="MSShapeGroup" mask="url(#mask-16)"></path>
            <path d="M336.2534,50.6637 C336.2534,51.9987 335.1714,53.0817 333.8364,53.0817 C332.5024,53.0817 331.4194,51.9987 331.4194,50.6637 C331.4194,49.3287 332.5024,48.2457 333.8364,48.2457 C335.1714,48.2457 336.2534,49.3287 336.2534,50.6637" id="Fill-287" fill="#5380B7" sketch:type="MSShapeGroup" mask="url(#mask-16)"></path>
            <path d="M336.2534,59.431 C336.2534,60.766 335.1714,61.849 333.8364,61.849 C332.5024,61.849 331.4194,60.766 331.4194,59.431 C331.4194,58.096 332.5024,57.013 333.8364,57.013 C335.1714,57.013 336.2534,58.096 336.2534,59.431" id="Fill-288" fill="#5380B7" sketch:type="MSShapeGroup" mask="url(#mask-16)"></path>
            <path d="M336.2534,68.1983 C336.2534,69.5333 335.1714,70.6163 333.8364,70.6163 C332.5024,70.6163 331.4194,69.5333 331.4194,68.1983 C331.4194,66.8633 332.5024,65.7803 333.8364,65.7803 C335.1714,65.7803 336.2534,66.8633 336.2534,68.1983" id="Fill-289" fill="#5380B7" sketch:type="MSShapeGroup" mask="url(#mask-16)"></path>
            <path d="M331.8448,72.5819 C331.8448,73.9169 330.7628,74.9999 329.4278,74.9999 C328.0928,74.9999 327.0108,73.9169 327.0108,72.5819 C327.0108,71.2469 328.0928,70.1639 329.4278,70.1639 C330.7628,70.1639 331.8448,71.2469 331.8448,72.5819" id="Fill-290" fill="#5380B7" sketch:type="MSShapeGroup" mask="url(#mask-16)"></path>
            <path d="M340.653,11.211 C340.653,12.546 339.571,13.629 338.236,13.629 C336.901,13.629 335.819,12.546 335.819,11.211 C335.819,9.876 336.901,8.793 338.236,8.793 C339.571,8.793 340.653,9.876 340.653,11.211" id="Fill-291" fill="#5380B7" sketch:type="MSShapeGroup" mask="url(#mask-16)"></path>
            <path d="M340.9938,20.6603 C340.9938,21.9953 339.9118,23.0783 338.5768,23.0783 C337.2418,23.0783 336.1598,21.9953 336.1598,20.6603 C336.1598,19.3253 337.2418,18.2423 338.5768,18.2423 C339.9118,18.2423 340.9938,19.3253 340.9938,20.6603" id="Fill-292" fill="#5380B7" sketch:type="MSShapeGroup" mask="url(#mask-16)"></path>
            <path d="M345.4024,24.7029 C345.4024,26.0379 344.3204,27.1209 342.9854,27.1209 C341.6514,27.1209 340.5684,26.0379 340.5684,24.7029 C340.5684,23.3679 341.6514,22.2849 342.9854,22.2849 C344.3204,22.2849 345.4024,23.3679 345.4024,24.7029" id="Fill-293" fill="#5380B7" sketch:type="MSShapeGroup" mask="url(#mask-16)"></path>
            <path d="M340.9938,29.0865 C340.9938,30.4215 339.9118,31.5045 338.5768,31.5045 C337.2418,31.5045 336.1598,30.4215 336.1598,29.0865 C336.1598,27.7515 337.2418,26.6685 338.5768,26.6685 C339.9118,26.6685 340.9938,27.7515 340.9938,29.0865" id="Fill-294" fill="#5380B7" sketch:type="MSShapeGroup" mask="url(#mask-16)"></path>
            <path d="M345.0616,33.1292 C345.0616,34.4642 343.9796,35.5472 342.6446,35.5472 C341.3106,35.5472 340.2276,34.4642 340.2276,33.1292 C340.2276,31.7942 341.3106,30.7112 342.6446,30.7112 C343.9796,30.7112 345.0616,31.7942 345.0616,33.1292" id="Fill-295" fill="#5380B7" sketch:type="MSShapeGroup" mask="url(#mask-16)"></path>
            <path d="M340.653,37.5128 C340.653,38.8478 339.571,39.9308 338.236,39.9308 C336.901,39.9308 335.819,38.8478 335.819,37.5128 C335.819,36.1778 336.901,35.0948 338.236,35.0948 C339.571,35.0948 340.653,36.1778 340.653,37.5128" id="Fill-296" fill="#5380B7" sketch:type="MSShapeGroup" mask="url(#mask-16)"></path>
            <path d="M345.0616,41.8965 C345.0616,43.2315 343.9796,44.3145 342.6446,44.3145 C341.3106,44.3145 340.2276,43.2315 340.2276,41.8965 C340.2276,40.5615 341.3106,39.4785 342.6446,39.4785 C343.9796,39.4785 345.0616,40.5615 345.0616,41.8965" id="Fill-297" fill="#5380B7" sketch:type="MSShapeGroup" mask="url(#mask-16)"></path>
            <path d="M345.0616,50.6637 C345.0616,51.9987 343.9796,53.0817 342.6446,53.0817 C341.3106,53.0817 340.2276,51.9987 340.2276,50.6637 C340.2276,49.3287 341.3106,48.2457 342.6446,48.2457 C343.9796,48.2457 345.0616,49.3287 345.0616,50.6637" id="Fill-298" fill="#5380B7" sketch:type="MSShapeGroup" mask="url(#mask-16)"></path>
            <path d="M340.653,55.0474 C340.653,56.3824 339.571,57.4654 338.236,57.4654 C336.901,57.4654 335.819,56.3824 335.819,55.0474 C335.819,53.7124 336.901,52.6294 338.236,52.6294 C339.571,52.6294 340.653,53.7124 340.653,55.0474" id="Fill-299" fill="#5380B7" sketch:type="MSShapeGroup" mask="url(#mask-16)"></path>
            <path d="M345.0616,59.431 C345.0616,60.766 343.9796,61.849 342.6446,61.849 C341.3106,61.849 340.2276,60.766 340.2276,59.431 C340.2276,58.096 341.3106,57.013 342.6446,57.013 C343.9796,57.013 345.0616,58.096 345.0616,59.431" id="Fill-300" fill="#5380B7" sketch:type="MSShapeGroup" mask="url(#mask-16)"></path>
            <path d="M340.653,63.8146 C340.653,65.1496 339.571,66.2326 338.236,66.2326 C336.901,66.2326 335.819,65.1496 335.819,63.8146 C335.819,62.4796 336.901,61.3966 338.236,61.3966 C339.571,61.3966 340.653,62.4796 340.653,63.8146" id="Fill-301" fill="#5380B7" sketch:type="MSShapeGroup" mask="url(#mask-16)"></path>
            <path d="M345.0616,68.1983 C345.0616,69.5333 343.9796,70.6163 342.6446,70.6163 C341.3106,70.6163 340.2276,69.5333 340.2276,68.1983 C340.2276,66.8633 341.3106,65.7803 342.6446,65.7803 C343.9796,65.7803 345.0616,66.8633 345.0616,68.1983" id="Fill-302" fill="#5380B7" sketch:type="MSShapeGroup" mask="url(#mask-16)"></path>
            <path d="M340.653,72.5819 C340.653,73.9169 339.571,74.9999 338.236,74.9999 C336.901,74.9999 335.819,73.9169 335.819,72.5819 C335.819,71.2469 336.901,70.1639 338.236,70.1639 C339.571,70.1639 340.653,71.2469 340.653,72.5819" id="Fill-303" fill="#5380B7" sketch:type="MSShapeGroup" mask="url(#mask-16)"></path>
            <path d="M349.4429,11.211 C349.4429,12.546 348.3609,13.629 347.0259,13.629 C345.6909,13.629 344.6089,12.546 344.6089,11.211 C344.6089,9.876 345.6909,8.793 347.0259,8.793 C348.3609,8.793 349.4429,9.876 349.4429,11.211" id="Fill-304" fill="#5380B7" sketch:type="MSShapeGroup" mask="url(#mask-16)"></path>
            <path d="M353.8515,15.5946 C353.8515,16.9296 352.7695,18.0126 351.4345,18.0126 C350.0995,18.0126 349.0175,16.9296 349.0175,15.5946 C349.0175,14.2596 350.0995,13.1766 351.4345,13.1766 C352.7695,13.1766 353.8515,14.2596 353.8515,15.5946" id="Fill-305" fill="#5380B7" sketch:type="MSShapeGroup" mask="url(#mask-16)"></path>
            <path d="M349.4429,20.6603 C349.4429,21.9953 348.3609,23.0783 347.0259,23.0783 C345.6909,23.0783 344.6089,21.9953 344.6089,20.6603 C344.6089,19.3253 345.6909,18.2423 347.0259,18.2423 C348.3609,18.2423 349.4429,19.3253 349.4429,20.6603" id="Fill-306" fill="#5380B7" sketch:type="MSShapeGroup" mask="url(#mask-16)"></path>
            <path d="M353.8515,24.3619 C353.8515,25.6969 352.7695,26.7799 351.4345,26.7799 C350.0995,26.7799 349.0175,25.6969 349.0175,24.3619 C349.0175,23.0269 350.0995,21.9439 351.4345,21.9439 C352.7695,21.9439 353.8515,23.0269 353.8515,24.3619" id="Fill-307" fill="#5380B7" sketch:type="MSShapeGroup" mask="url(#mask-16)"></path>
            <path d="M349.4429,28.7455 C349.4429,30.0805 348.3609,31.1635 347.0259,31.1635 C345.6909,31.1635 344.6089,30.0805 344.6089,28.7455 C344.6089,27.4105 345.6909,26.3275 347.0259,26.3275 C348.3609,26.3275 349.4429,27.4105 349.4429,28.7455" id="Fill-308" fill="#5380B7" sketch:type="MSShapeGroup" mask="url(#mask-16)"></path>
            <path d="M353.8515,33.1292 C353.8515,34.4642 352.7695,35.5472 351.4345,35.5472 C350.0995,35.5472 349.0175,34.4642 349.0175,33.1292 C349.0175,31.7942 350.0995,30.7112 351.4345,30.7112 C352.7695,30.7112 353.8515,31.7942 353.8515,33.1292" id="Fill-309" fill="#5380B7" sketch:type="MSShapeGroup" mask="url(#mask-16)"></path>
            <path d="M349.4429,37.5128 C349.4429,38.8478 348.3609,39.9308 347.0259,39.9308 C345.6909,39.9308 344.6089,38.8478 344.6089,37.5128 C344.6089,36.1778 345.6909,35.0948 347.0259,35.0948 C348.3609,35.0948 349.4429,36.1778 349.4429,37.5128" id="Fill-310" fill="#5380B7" sketch:type="MSShapeGroup" mask="url(#mask-16)"></path>
            <path d="M353.8515,41.8965 C353.8515,43.2315 352.7695,44.3145 351.4345,44.3145 C350.0995,44.3145 349.0175,43.2315 349.0175,41.8965 C349.0175,40.5615 350.0995,39.4785 351.4345,39.4785 C352.7695,39.4785 353.8515,40.5615 353.8515,41.8965" id="Fill-311" fill="#5380B7" sketch:type="MSShapeGroup" mask="url(#mask-16)"></path>
            <path d="M349.4429,46.2801 C349.4429,47.6151 348.3609,48.6981 347.0259,48.6981 C345.6909,48.6981 344.6089,47.6151 344.6089,46.2801 C344.6089,44.9451 345.6909,43.8621 347.0259,43.8621 C348.3609,43.8621 349.4429,44.9451 349.4429,46.2801" id="Fill-312" fill="#5380B7" sketch:type="MSShapeGroup" mask="url(#mask-16)"></path>
            <path d="M353.8515,50.6637 C353.8515,51.9987 352.7695,53.0817 351.4345,53.0817 C350.0995,53.0817 349.0175,51.9987 349.0175,50.6637 C349.0175,49.3287 350.0995,48.2457 351.4345,48.2457 C352.7695,48.2457 353.8515,49.3287 353.8515,50.6637" id="Fill-313" fill="#5380B7" sketch:type="MSShapeGroup" mask="url(#mask-16)"></path>
            <path d="M349.4429,55.0474 C349.4429,56.3824 348.3609,57.4654 347.0259,57.4654 C345.6909,57.4654 344.6089,56.3824 344.6089,55.0474 C344.6089,53.7124 345.6909,52.6294 347.0259,52.6294 C348.3609,52.6294 349.4429,53.7124 349.4429,55.0474" id="Fill-314" fill="#5380B7" sketch:type="MSShapeGroup" mask="url(#mask-16)"></path>
            <path d="M353.8515,59.431 C353.8515,60.766 352.7695,61.849 351.4345,61.849 C350.0995,61.849 349.0175,60.766 349.0175,59.431 C349.0175,58.096 350.0995,57.013 351.4345,57.013 C352.7695,57.013 353.8515,58.096 353.8515,59.431" id="Fill-315" fill="#5380B7" sketch:type="MSShapeGroup" mask="url(#mask-16)"></path>
            <path d="M349.4429,63.8146 C349.4429,65.1496 348.3609,66.2326 347.0259,66.2326 C345.6909,66.2326 344.6089,65.1496 344.6089,63.8146 C344.6089,62.4796 345.6909,61.3966 347.0259,61.3966 C348.3609,61.3966 349.4429,62.4796 349.4429,63.8146" id="Fill-316" fill="#5380B7" sketch:type="MSShapeGroup" mask="url(#mask-16)"></path>
            <path d="M353.8515,68.1983 C353.8515,69.5333 352.7695,70.6163 351.4345,70.6163 C350.0995,70.6163 349.0175,69.5333 349.0175,68.1983 C349.0175,66.8633 350.0995,65.7803 351.4345,65.7803 C352.7695,65.7803 353.8515,66.8633 353.8515,68.1983" id="Fill-317" fill="#5380B7" sketch:type="MSShapeGroup" mask="url(#mask-16)"></path>
            <path d="M349.4429,72.5819 C349.4429,73.9169 348.3609,74.9999 347.0259,74.9999 C345.6909,74.9999 344.6089,73.9169 344.6089,72.5819 C344.6089,71.2469 345.6909,70.1639 347.0259,70.1639 C348.3609,70.1639 349.4429,71.2469 349.4429,72.5819" id="Fill-318" fill="#5380B7" sketch:type="MSShapeGroup" mask="url(#mask-16)"></path>
            <path d="M358.3606,11.211 C358.3606,12.546 357.2786,13.629 355.9436,13.629 C354.6086,13.629 353.5266,12.546 353.5266,11.211 C353.5266,9.876 354.6086,8.793 355.9436,8.793 C357.2786,8.793 358.3606,9.876 358.3606,11.211" id="Fill-319" fill="#5380B7" sketch:type="MSShapeGroup" mask="url(#mask-16)"></path>
            <path d="M362.7692,15.5946 C362.7692,16.9296 361.6872,18.0126 360.3522,18.0126 C359.0172,18.0126 357.9352,16.9296 357.9352,15.5946 C357.9352,14.2596 359.0172,13.1766 360.3522,13.1766 C361.6872,13.1766 362.7692,14.2596 362.7692,15.5946" id="Fill-320" fill="#5380B7" sketch:type="MSShapeGroup" mask="url(#mask-16)"></path>
            <path d="M358.3606,19.9783 C358.3606,21.3133 357.2786,22.3963 355.9436,22.3963 C354.6086,22.3963 353.5266,21.3133 353.5266,19.9783 C353.5266,18.6433 354.6086,17.5603 355.9436,17.5603 C357.2786,17.5603 358.3606,18.6433 358.3606,19.9783" id="Fill-321" fill="#5380B7" sketch:type="MSShapeGroup" mask="url(#mask-16)"></path>
            <path d="M362.7692,24.3619 C362.7692,25.6969 361.6872,26.7799 360.3522,26.7799 C359.0172,26.7799 357.9352,25.6969 357.9352,24.3619 C357.9352,23.0269 359.0172,21.9439 360.3522,21.9439 C361.6872,21.9439 362.7692,23.0269 362.7692,24.3619" id="Fill-322" fill="#5380B7" sketch:type="MSShapeGroup" mask="url(#mask-16)"></path>
            <path d="M358.3606,28.7455 C358.3606,30.0805 357.2786,31.1635 355.9436,31.1635 C354.6086,31.1635 353.5266,30.0805 353.5266,28.7455 C353.5266,27.4105 354.6086,26.3275 355.9436,26.3275 C357.2786,26.3275 358.3606,27.4105 358.3606,28.7455" id="Fill-323" fill="#5380B7" sketch:type="MSShapeGroup" mask="url(#mask-16)"></path>
            <path d="M362.7692,33.1292 C362.7692,34.4642 361.6872,35.5472 360.3522,35.5472 C359.0172,35.5472 357.9352,34.4642 357.9352,33.1292 C357.9352,31.7942 359.0172,30.7112 360.3522,30.7112 C361.6872,30.7112 362.7692,31.7942 362.7692,33.1292" id="Fill-324" fill="#5380B7" sketch:type="MSShapeGroup" mask="url(#mask-16)"></path>
            <path d="M358.3606,37.5128 C358.3606,38.8478 357.2786,39.9308 355.9436,39.9308 C354.6086,39.9308 353.5266,38.8478 353.5266,37.5128 C353.5266,36.1778 354.6086,35.0948 355.9436,35.0948 C357.2786,35.0948 358.3606,36.1778 358.3606,37.5128" id="Fill-325" fill="#5380B7" sketch:type="MSShapeGroup" mask="url(#mask-16)"></path>
            <path d="M362.7692,41.8965 C362.7692,43.2315 361.6872,44.3145 360.3522,44.3145 C359.0172,44.3145 357.9352,43.2315 357.9352,41.8965 C357.9352,40.5615 359.0172,39.4785 360.3522,39.4785 C361.6872,39.4785 362.7692,40.5615 362.7692,41.8965" id="Fill-326" fill="#5380B7" sketch:type="MSShapeGroup" mask="url(#mask-16)"></path>
            <path d="M358.3606,46.2801 C358.3606,47.6151 357.2786,48.6981 355.9436,48.6981 C354.6086,48.6981 353.5266,47.6151 353.5266,46.2801 C353.5266,44.9451 354.6086,43.8621 355.9436,43.8621 C357.2786,43.8621 358.3606,44.9451 358.3606,46.2801" id="Fill-327" fill="#5380B7" sketch:type="MSShapeGroup" mask="url(#mask-16)"></path>
            <path d="M362.7692,50.6637 C362.7692,51.9987 361.6872,53.0817 360.3522,53.0817 C359.0172,53.0817 357.9352,51.9987 357.9352,50.6637 C357.9352,49.3287 359.0172,48.2457 360.3522,48.2457 C361.6872,48.2457 362.7692,49.3287 362.7692,50.6637" id="Fill-328" fill="#5380B7" sketch:type="MSShapeGroup" mask="url(#mask-16)"></path>
            <path d="M358.3606,55.0474 C358.3606,56.3824 357.2786,57.4654 355.9436,57.4654 C354.6086,57.4654 353.5266,56.3824 353.5266,55.0474 C353.5266,53.7124 354.6086,52.6294 355.9436,52.6294 C357.2786,52.6294 358.3606,53.7124 358.3606,55.0474" id="Fill-329" fill="#5380B7" sketch:type="MSShapeGroup" mask="url(#mask-16)"></path>
            <path d="M362.7692,59.431 C362.7692,60.766 361.6872,61.849 360.3522,61.849 C359.0172,61.849 357.9352,60.766 357.9352,59.431 C357.9352,58.096 359.0172,57.013 360.3522,57.013 C361.6872,57.013 362.7692,58.096 362.7692,59.431" id="Fill-330" fill="#5380B7" sketch:type="MSShapeGroup" mask="url(#mask-16)"></path>
            <path d="M358.3606,63.8146 C358.3606,65.1496 357.2786,66.2326 355.9436,66.2326 C354.6086,66.2326 353.5266,65.1496 353.5266,63.8146 C353.5266,62.4796 354.6086,61.3966 355.9436,61.3966 C357.2786,61.3966 358.3606,62.4796 358.3606,63.8146" id="Fill-331" fill="#5380B7" sketch:type="MSShapeGroup" mask="url(#mask-16)"></path>
            <path d="M362.7692,68.1983 C362.7692,69.5333 361.6872,70.6163 360.3522,70.6163 C359.0172,70.6163 357.9352,69.5333 357.9352,68.1983 C357.9352,66.8633 359.0172,65.7803 360.3522,65.7803 C361.6872,65.7803 362.7692,66.8633 362.7692,68.1983" id="Fill-332" fill="#5380B7" sketch:type="MSShapeGroup" mask="url(#mask-16)"></path>
            <path d="M358.3606,72.5819 C358.3606,73.9169 357.2786,74.9999 355.9436,74.9999 C354.6086,74.9999 353.5266,73.9169 353.5266,72.5819 C353.5266,71.2469 354.6086,70.1639 355.9436,70.1639 C357.2786,70.1639 358.3606,71.2469 358.3606,72.5819" id="Fill-333" fill="#5380B7" sketch:type="MSShapeGroup" mask="url(#mask-16)"></path>
            <path d="M367.1505,11.211 C367.1505,12.546 366.0685,13.629 364.7335,13.629 C363.3995,13.629 362.3165,12.546 362.3165,11.211 C362.3165,9.876 363.3995,8.793 364.7335,8.793 C366.0685,8.793 367.1505,9.876 367.1505,11.211" id="Fill-334" fill="#5380B7" sketch:type="MSShapeGroup" mask="url(#mask-16)"></path>
            <path d="M367.1505,19.9783 C367.1505,21.3133 366.0685,22.3963 364.7335,22.3963 C363.3995,22.3963 362.3165,21.3133 362.3165,19.9783 C362.3165,18.6433 363.3995,17.5603 364.7335,17.5603 C366.0685,17.5603 367.1505,18.6433 367.1505,19.9783" id="Fill-335" fill="#5380B7" sketch:type="MSShapeGroup" mask="url(#mask-16)"></path>
            <path d="M367.1505,28.7455 C367.1505,30.0805 366.0685,31.1635 364.7335,31.1635 C363.3995,31.1635 362.3165,30.0805 362.3165,28.7455 C362.3165,27.4105 363.3995,26.3275 364.7335,26.3275 C366.0685,26.3275 367.1505,27.4105 367.1505,28.7455" id="Fill-336" fill="#5380B7" sketch:type="MSShapeGroup" mask="url(#mask-16)"></path>
            <path d="M367.1505,37.5128 C367.1505,38.8478 366.0685,39.9308 364.7335,39.9308 C363.3995,39.9308 362.3165,38.8478 362.3165,37.5128 C362.3165,36.1778 363.3995,35.0948 364.7335,35.0948 C366.0685,35.0948 367.1505,36.1778 367.1505,37.5128" id="Fill-337" fill="#5380B7" sketch:type="MSShapeGroup" mask="url(#mask-16)"></path>
            <path d="M367.1505,46.2801 C367.1505,47.6151 366.0685,48.6981 364.7335,48.6981 C363.3995,48.6981 362.3165,47.6151 362.3165,46.2801 C362.3165,44.9451 363.3995,43.8621 364.7335,43.8621 C366.0685,43.8621 367.1505,44.9451 367.1505,46.2801" id="Fill-338" fill="#5380B7" sketch:type="MSShapeGroup" mask="url(#mask-16)"></path>
            <path d="M367.1505,55.0474 C367.1505,56.3824 366.0685,57.4654 364.7335,57.4654 C363.3995,57.4654 362.3165,56.3824 362.3165,55.0474 C362.3165,53.7124 363.3995,52.6294 364.7335,52.6294 C366.0685,52.6294 367.1505,53.7124 367.1505,55.0474" id="Fill-339" fill="#5380B7" sketch:type="MSShapeGroup" mask="url(#mask-16)"></path>
            <path d="M367.1505,63.8146 C367.1505,65.1496 366.0685,66.2326 364.7335,66.2326 C363.3995,66.2326 362.3165,65.1496 362.3165,63.8146 C362.3165,62.4796 363.3995,61.3966 364.7335,61.3966 C366.0685,61.3966 367.1505,62.4796 367.1505,63.8146" id="Fill-340" fill="#5380B7" sketch:type="MSShapeGroup" mask="url(#mask-16)"></path>
            <path d="M367.1505,72.5819 C367.1505,73.9169 366.0685,74.9999 364.7335,74.9999 C363.3995,74.9999 362.3165,73.9169 362.3165,72.5819 C362.3165,71.2469 363.3995,70.1639 364.7335,70.1639 C366.0685,70.1639 367.1505,71.2469 367.1505,72.5819" id="Fill-341" fill="#5380B7" sketch:type="MSShapeGroup" mask="url(#mask-16)"></path>
            <path d="M430,74.754 L372.395,74.754 L372.395,0.271 L430,0.271 L430,74.754 Z" id="Fill-342" fill="#5380B7" sketch:type="MSShapeGroup" mask="url(#mask-16)"></path>
            <path d="M248.428,12.269 L304.607,12.269 L304.607,7.491 L248.428,7.491 L248.428,12.269 Z" id="Fill-343" fill="#5380B7" sketch:type="MSShapeGroup" mask="url(#mask-16)"></path>
            <path d="M248.428,39.762 L304.457,39.762 L304.457,34.984 L248.428,34.984 L248.428,39.762 Z" id="Fill-344" fill="#5380B7" sketch:type="MSShapeGroup" mask="url(#mask-16)"></path>
            <path d="M248.428,67.535 L304.799,67.535 L304.799,62.757 L248.428,62.757 L248.428,67.535 Z" id="Fill-345" fill="#5380B7" sketch:type="MSShapeGroup" mask="url(#mask-16)"></path>
            <path d="M186.1446,42.9584 L243.7496,0.4654 L243.7496,0.2714 L239.0586,0.2714 L186.1446,39.3044 L186.1446,42.9584 Z" id="Fill-346" fill="#5380B7" sketch:type="MSShapeGroup" mask="url(#mask-16)"></path>
            <path d="M186.1446,51.8307 L243.7496,9.3377 L243.7496,5.6837 L186.1446,48.1767 L186.1446,51.8307 Z" id="Fill-347" fill="#5380B7" sketch:type="MSShapeGroup" mask="url(#mask-16)"></path>
            <path d="M186.1446,60.7022 L243.7496,18.2102 L243.7496,14.5562 L186.1446,57.0482 L186.1446,60.7022 Z" id="Fill-348" fill="#5380B7" sketch:type="MSShapeGroup" mask="url(#mask-16)"></path>
            <path d="M186.1446,69.5744 L243.7496,27.0814 L243.7496,23.4274 L186.1446,65.9204 L186.1446,69.5744 Z" id="Fill-349" fill="#5380B7" sketch:type="MSShapeGroup" mask="url(#mask-16)"></path>
            <path d="M190.9499,0.2715 L186.1449,3.8165 L186.1449,7.4705 L195.9039,0.2715 L190.9499,0.2715 Z" id="Fill-350" fill="#5380B7" sketch:type="MSShapeGroup" mask="url(#mask-16)"></path>
            <path d="M202.9773,0.2715 L186.1443,12.6885 L186.1443,16.3425 L207.9313,0.2715 L202.9773,0.2715 Z" id="Fill-351" fill="#5380B7" sketch:type="MSShapeGroup" mask="url(#mask-16)"></path>
            <path d="M186.1446,25.2148 L219.9586,0.2718 L215.0046,0.2718 L186.1446,21.5608 L186.1446,25.2148 Z" id="Fill-352" fill="#5380B7" sketch:type="MSShapeGroup" mask="url(#mask-16)"></path>
            <path d="M186.1446,34.0862 L231.9856,0.2712 L227.0316,0.2712 L186.1446,30.4322 L186.1446,34.0862 Z" id="Fill-353" fill="#5380B7" sketch:type="MSShapeGroup" mask="url(#mask-16)"></path>
            <path d="M191.1504,74.7541 L243.7494,35.9541 L243.7494,32.3001 L186.1964,74.7541 L191.1504,74.7541 Z" id="Fill-354" fill="#5380B7" sketch:type="MSShapeGroup" mask="url(#mask-16)"></path>
            <path d="M203.1771,74.7541 L243.7491,44.8261 L243.7491,41.1721 L198.2231,74.7541 L203.1771,74.7541 Z" id="Fill-355" fill="#5380B7" sketch:type="MSShapeGroup" mask="url(#mask-16)"></path>
            <path d="M215.2044,74.7541 L243.7494,53.6981 L243.7494,50.0431 L210.2504,74.7541 L215.2044,74.7541 Z" id="Fill-356" fill="#5380B7" sketch:type="MSShapeGroup" mask="url(#mask-16)"></path>
            <path d="M227.232,74.7541 L243.749,62.5701 L243.749,58.9161 L222.278,74.7541 L227.232,74.7541 Z" id="Fill-357" fill="#5380B7" sketch:type="MSShapeGroup" mask="url(#mask-16)"></path>
            <path d="M239.2594,74.7541 L243.7494,71.4421 L243.7494,67.7881 L234.3054,74.7541 L239.2594,74.7541 Z" id="Fill-358" fill="#5380B7" sketch:type="MSShapeGroup" mask="url(#mask-16)"></path>
            <path d="M153.3068,58.9969 L154.2018,58.9969 C158.9298,58.9209 161.4108,56.0249 162.2378,51.4719 C162.2378,49.4029 163.4788,48.1619 165.5468,48.1619 L175.8878,48.1619 C177.9558,48.1619 179.1958,49.4029 179.1958,51.4719 C177.9558,66.7839 170.5108,73.8189 153.3068,73.6779 C134.5168,73.6779 126.2858,63.4729 126.2858,39.3019 L126.2858,35.7209 C126.2858,11.5509 134.5168,1.3449 153.3068,1.3449 C171.3378,1.3989 178.3688,8.0199 179.1958,26.2289 C179.1958,28.2979 177.9558,29.5389 175.8878,29.5389 L165.5468,29.5389 C163.4788,29.5389 162.2378,28.2979 162.2378,26.2289 C161.8248,20.0209 159.7568,15.8829 154.2018,16.0269 L153.3068,16.0269 C144.8068,16.0269 143.5538,23.6359 143.5538,35.7209 L143.5538,39.3019 C143.5538,51.3869 144.8068,58.9969 153.3068,58.9969" id="Fill-359" fill="#F25F60" sketch:type="MSShapeGroup" mask="url(#mask-16)"></path>
            <path d="M339.8152,33.6764 C343.1262,33.6764 347.0632,32.4234 347.0632,25.7984 L347.0632,25.0824 C347.0632,18.4584 343.1262,17.2044 339.8152,17.2044 L330.7022,17.2044 L330.7022,33.6764 L339.8152,33.6764 Z M327.5662,72.5024 L316.8122,72.5024 C314.7442,72.5024 313.5032,71.2604 313.5032,69.1914 L313.5032,5.8754 C313.5032,3.3924 314.7442,2.5644 316.8122,2.5644 L339.1002,2.5234 C350.9102,2.5234 364.2412,5.2084 364.2412,24.5454 L364.2412,26.3354 C364.2412,45.6724 350.9102,48.3574 339.1002,48.3574 L330.7022,48.3574 L330.8752,69.1914 C330.8752,71.2604 329.6342,72.5024 327.5662,72.5024 L327.5662,72.5024 Z" id="Fill-360" fill="#F25F60" sketch:type="MSShapeGroup" mask="url(#mask-16)"></path>
            <path d="M406.1399,72.4816 L395.7999,72.4816 C393.7319,72.4816 392.4909,71.2406 392.4909,69.1706 L392.4669,17.1836 L380.0829,17.0286 C378.0149,17.0286 376.7739,16.2006 376.7739,13.7176 L376.7739,5.8546 C376.7739,3.7856 378.0149,2.5436 380.0829,2.5436 L421.8569,2.5436 C423.9249,2.5436 425.1659,3.3716 425.1659,5.8546 L425.1659,13.7176 C425.1659,15.7866 423.9249,17.0286 421.8569,17.0286 L409.4669,17.1836 L409.4489,69.1706 C409.4489,71.2406 408.2079,72.4816 406.1399,72.4816" id="Fill-361" fill="#F25F60" sketch:type="MSShapeGroup" mask="url(#mask-16)"></path>
            <path d="M0,12.269 L56.179,12.269 L56.179,7.491 L0,7.491 L0,12.269 Z" id="Fill-362" fill="#5380B7" sketch:type="MSShapeGroup" mask="url(#mask-16)"></path>
            <path d="M0,39.762 L56.029,39.762 L56.029,34.984 L0,34.984 L0,39.762 Z" id="Fill-363" fill="#5380B7" sketch:type="MSShapeGroup" mask="url(#mask-16)"></path>
            <path d="M0,67.535 L56.371,67.535 L56.371,62.757 L0,62.757 L0,67.535 Z" id="Fill-364" fill="#5380B7" sketch:type="MSShapeGroup" mask="url(#mask-16)"></path>
            <path d="M111.8451,72.4816 L100.3771,72.4816 C98.7951,72.4816 97.2141,71.6536 96.4231,69.9986 L79.3561,33.8346 L79.7841,47.2626 L79.8141,69.1706 C79.8141,71.2406 78.6281,72.4816 76.6501,72.4816 L67.5551,72.4816 C65.5781,72.4816 64.3921,71.6536 64.3921,69.1706 L64.3921,5.8546 C64.3921,3.7856 65.5781,2.5436 67.5551,2.5436 L79.0231,2.5436 C80.6051,2.5436 81.7911,3.3716 82.5821,5.0266 L99.8871,40.9966 L99.4591,27.5686 L99.5861,5.8546 C99.5861,3.7856 100.7731,2.5436 102.7501,2.5436 L111.8451,2.5436 C113.8221,2.5436 115.0091,3.3716 115.0091,5.8546 L115.0091,69.1706 C115.0091,71.2406 113.8221,72.4816 111.8451,72.4816" id="Fill-365" fill="#F25F60" sketch:type="MSShapeGroup" mask="url(#mask-16)"></path>
        </g>
    </g>
</svg>