<svg id="Layer_1" data-name="Layer 1" xmlns="http://www.w3.org/2000/svg" viewBox="0 0 430 74.97"><defs><style>.cls-1{fill:#f25f60;}.cls-2{fill:#5380b7;}</style></defs><title>teach</title><path class="cls-1" d="M2353.21,192v-1.79c0-19.34-13.33-22-25.14-22l-20.61,0c-2.07,0-3.31.83-3.31,3.31v63.32a3,3,0,0,0,3.31,3.31h10.34a3,3,0,0,0,3.31-3.31l-0.1-19h3.52v-1.86h1.22l8.19,21.25c0.83,2.07,2.07,2.9,3.72,2.9h11.58c2.48,0,3.31-2.07,2.48-4.14l-9.24-22.33C2348.65,209,2353.21,203.4,2353.21,192ZM2336,191.5c0,6.62-3.94,7.88-7.25,7.88H2321V182.9h7.78c3.31,0,7.25,1.25,7.25,7.88v0.72Z" transform="translate(-2113.54 -165.73)"/><path class="cls-1" d="M2395.22,238h-10.34a3,3,0,0,1-3.31-3.31l-0.12-18.8-18.08-43.69c-0.83-2.07,0-3.72,2.48-3.72h11.58a3.46,3.46,0,0,1,3.72,2.48l8.79,22.34,8.58-22.34a3.46,3.46,0,0,1,3.72-2.48h12c2.48,0,3.31,1.66,2.48,3.72l-18.28,43.69,0.08,18.8A3,3,0,0,1,2395.22,238Z" transform="translate(-2113.54 -165.73)"/><path class="cls-1" d="M2169.59,171.55v7.86c0,2.48-1.24,3.31-3.31,3.31l-25,.16v12.6l24.95,0.08c2.07,0,3.31.83,3.31,3.31v7.86a3,3,0,0,1-3.31,3.31l-24.95.12v13.19l25.19-.06c2.07,0,3.31.83,3.31,3.31v8.28a3,3,0,0,1-3.31,3.31h-38.89a3,3,0,0,1-3.31-3.31V171.55a3,3,0,0,1,3.31-3.31h38.72A3,3,0,0,1,2169.59,171.55Z" transform="translate(-2113.54 -165.73)"/><circle class="cls-2" cx="63.28" cy="2.42" r="2.42"/><circle class="cls-2" cx="67.69" cy="6.8" r="2.42"/><circle class="cls-2" cx="72.2" cy="2.42" r="2.42"/><circle class="cls-2" cx="76.61" cy="6.8" r="2.42"/><circle class="cls-2" cx="80.99" cy="2.42" r="2.42"/><circle class="cls-2" cx="85.4" cy="6.8" r="2.42"/><circle class="cls-2" cx="89.8" cy="2.42" r="2.42"/><circle class="cls-2" cx="94.2" cy="6.8" r="2.42"/><circle class="cls-2" cx="98.59" cy="2.42" r="2.42"/><circle class="cls-2" cx="102.99" cy="6.8" r="2.42"/><circle class="cls-2" cx="107.5" cy="2.42" r="2.42"/><circle class="cls-2" cx="111.91" cy="6.8" r="2.42"/><circle class="cls-2" cx="116.29" cy="2.42" r="2.42"/><circle class="cls-2" cx="63.28" cy="11.19" r="2.42"/><circle class="cls-2" cx="67.69" cy="15.57" r="2.42"/><circle class="cls-2" cx="63.28" cy="19.95" r="2.42"/><circle class="cls-2" cx="67.69" cy="24.34" r="2.42"/><circle class="cls-2" cx="63.28" cy="28.72" r="2.42"/><circle class="cls-2" cx="67.69" cy="33.1" r="2.42"/><circle class="cls-2" cx="63.28" cy="37.49" r="2.42"/><circle class="cls-2" cx="67.69" cy="41.87" r="2.42"/><circle class="cls-2" cx="63.28" cy="46.25" r="2.42"/><circle class="cls-2" cx="67.69" cy="50.64" r="2.42"/><circle class="cls-2" cx="63.28" cy="55.02" r="2.42"/><circle class="cls-2" cx="67.69" cy="59.41" r="2.42"/><circle class="cls-2" cx="63.28" cy="63.79" r="2.42"/><circle class="cls-2" cx="67.69" cy="68.17" r="2.42"/><circle class="cls-2" cx="63.28" cy="72.56" r="2.42"/><circle class="cls-2" cx="72.2" cy="11.19" r="2.42"/><circle class="cls-2" cx="76.61" cy="15.57" r="2.42"/><circle class="cls-2" cx="72.2" cy="19.95" r="2.42"/><circle class="cls-2" cx="76.61" cy="24.34" r="2.42"/><circle class="cls-2" cx="72.2" cy="28.72" r="2.42"/><circle class="cls-2" cx="76.61" cy="33.1" r="2.42"/><circle class="cls-2" cx="72.2" cy="37.49" r="2.42"/><circle class="cls-2" cx="76.61" cy="41.87" r="2.42"/><circle class="cls-2" cx="72.2" cy="46.25" r="2.42"/><circle class="cls-2" cx="76.61" cy="50.64" r="2.42"/><circle class="cls-2" cx="72.2" cy="55.02" r="2.42"/><circle class="cls-2" cx="76.61" cy="59.41" r="2.42"/><circle class="cls-2" cx="72.2" cy="63.79" r="2.42"/><circle class="cls-2" cx="76.61" cy="68.17" r="2.42"/><circle class="cls-2" cx="72.2" cy="72.56" r="2.42"/><circle class="cls-2" cx="80.99" cy="11.19" r="2.42"/><circle class="cls-2" cx="85.4" cy="15.57" r="2.42"/><circle class="cls-2" cx="80.99" cy="19.95" r="2.42"/><circle class="cls-2" cx="85.4" cy="24.34" r="2.42"/><circle class="cls-2" cx="80.99" cy="28.72" r="2.42"/><circle class="cls-2" cx="85.4" cy="33.1" r="2.42"/><ellipse class="cls-2" cx="80.77" cy="36.92" rx="2.61" ry="3.78"/><circle class="cls-2" cx="80.99" cy="46.25" r="2.42"/><circle class="cls-2" cx="85.4" cy="50.64" r="2.42"/><circle class="cls-2" cx="80.99" cy="55.02" r="2.42"/><circle class="cls-2" cx="85.4" cy="59.41" r="2.42"/><circle class="cls-2" cx="80.99" cy="63.79" r="2.42"/><circle class="cls-2" cx="85.4" cy="68.17" r="2.42"/><circle class="cls-2" cx="80.99" cy="72.56" r="2.42"/><circle class="cls-2" cx="89.8" cy="11.19" r="2.42"/><circle class="cls-2" cx="94.2" cy="15.57" r="2.42"/><circle class="cls-2" cx="89.8" cy="19.95" r="2.42"/><circle class="cls-2" cx="94.2" cy="24.34" r="2.42"/><circle class="cls-2" cx="89.8" cy="28.72" r="2.42"/><circle class="cls-2" cx="95.74" cy="34.5" r="2.42"/><circle class="cls-2" cx="89.8" cy="37.49" r="2.42"/><circle class="cls-2" cx="94.2" cy="41.87" r="2.42"/><circle class="cls-2" cx="89.8" cy="46.25" r="2.42"/><circle class="cls-2" cx="94.2" cy="50.64" r="2.42"/><circle class="cls-2" cx="89.8" cy="55.02" r="2.42"/><circle class="cls-2" cx="94.2" cy="59.41" r="2.42"/><circle class="cls-2" cx="89.8" cy="63.79" r="2.42"/><circle class="cls-2" cx="94.2" cy="68.17" r="2.42"/><circle class="cls-2" cx="89.8" cy="72.56" r="2.42"/><circle class="cls-2" cx="98.59" cy="11.19" r="2.42"/><circle class="cls-2" cx="102.99" cy="15.57" r="2.42"/><circle class="cls-2" cx="98.59" cy="19.95" r="2.42"/><circle class="cls-2" cx="102.99" cy="24.34" r="2.42"/><circle class="cls-2" cx="98.59" cy="28.72" r="2.42"/><circle class="cls-2" cx="102.99" cy="33.1" r="2.42"/><circle class="cls-2" cx="102.99" cy="41.87" r="2.42"/><circle class="cls-2" cx="98.59" cy="46.25" r="2.42"/><circle class="cls-2" cx="102.99" cy="50.64" r="2.42"/><circle class="cls-2" cx="98.59" cy="55.02" r="2.42"/><circle class="cls-2" cx="102.99" cy="59.41" r="2.42"/><circle class="cls-2" cx="98.59" cy="63.79" r="2.42"/><circle class="cls-2" cx="102.99" cy="68.17" r="2.42"/><circle class="cls-2" cx="98.59" cy="72.56" r="2.42"/><circle class="cls-2" cx="107.5" cy="11.19" r="2.42"/><circle class="cls-2" cx="111.91" cy="15.57" r="2.42"/><circle class="cls-2" cx="107.5" cy="19.95" r="2.42"/><circle class="cls-2" cx="111.91" cy="24.34" r="2.42"/><circle class="cls-2" cx="107.5" cy="28.72" r="2.42"/><circle class="cls-2" cx="111.91" cy="33.1" r="2.42"/><circle class="cls-2" cx="107.5" cy="37.49" r="2.42"/><circle class="cls-2" cx="111.91" cy="41.87" r="2.42"/><circle class="cls-2" cx="107.5" cy="46.25" r="2.42"/><circle class="cls-2" cx="111.91" cy="50.64" r="2.42"/><circle class="cls-2" cx="107.5" cy="55.02" r="2.42"/><circle class="cls-2" cx="111.91" cy="59.41" r="2.42"/><circle class="cls-2" cx="107.5" cy="63.79" r="2.42"/><circle class="cls-2" cx="111.91" cy="68.17" r="2.42"/><circle class="cls-2" cx="107.5" cy="72.56" r="2.42"/><circle class="cls-2" cx="116.29" cy="11.19" r="2.42"/><circle class="cls-2" cx="116.29" cy="19.95" r="2.42"/><circle class="cls-2" cx="116.29" cy="28.72" r="2.42"/><circle class="cls-2" cx="116.29" cy="37.49" r="2.42"/><circle class="cls-2" cx="116.29" cy="46.25" r="2.42"/><circle class="cls-2" cx="116.29" cy="55.02" r="2.42"/><circle class="cls-2" cx="116.29" cy="63.79" r="2.42"/><circle class="cls-2" cx="116.29" cy="72.56" r="2.42"/><rect class="cls-2" x="123.73" y="0.25" width="57.6" height="74.48"/><circle class="cls-2" cx="311.72" cy="2.42" r="2.42"/><circle class="cls-2" cx="316.13" cy="6.8" r="2.42"/><circle class="cls-2" cx="320.64" cy="2.42" r="2.42"/><circle class="cls-2" cx="325.05" cy="6.8" r="2.42"/><circle class="cls-2" cx="329.43" cy="2.42" r="2.42"/><circle class="cls-2" cx="333.84" cy="6.8" r="2.42"/><circle class="cls-2" cx="338.24" cy="2.42" r="2.42"/><circle class="cls-2" cx="342.64" cy="6.8" r="2.42"/><circle class="cls-2" cx="347.03" cy="2.42" r="2.42"/><circle class="cls-2" cx="351.43" cy="6.8" r="2.42"/><circle class="cls-2" cx="355.94" cy="2.42" r="2.42"/><circle class="cls-2" cx="360.35" cy="6.8" r="2.42"/><circle class="cls-2" cx="364.73" cy="2.42" r="2.42"/><circle class="cls-2" cx="311.72" cy="11.19" r="2.42"/><circle class="cls-2" cx="316.13" cy="15.57" r="2.42"/><circle class="cls-2" cx="311.72" cy="19.95" r="2.42"/><circle class="cls-2" cx="316.13" cy="24.34" r="2.42"/><circle class="cls-2" cx="311.72" cy="28.72" r="2.42"/><circle class="cls-2" cx="316.13" cy="33.1" r="2.42"/><circle class="cls-2" cx="311.72" cy="37.49" r="2.42"/><circle class="cls-2" cx="316.13" cy="41.87" r="2.42"/><circle class="cls-2" cx="311.72" cy="46.25" r="2.42"/><circle class="cls-2" cx="316.13" cy="50.64" r="2.42"/><circle class="cls-2" cx="311.72" cy="55.02" r="2.42"/><circle class="cls-2" cx="316.13" cy="59.41" r="2.42"/><circle class="cls-2" cx="311.72" cy="63.79" r="2.42"/><circle class="cls-2" cx="316.13" cy="68.17" r="2.42"/><circle class="cls-2" cx="311.72" cy="72.56" r="2.42"/><circle class="cls-2" cx="320.64" cy="11.19" r="2.42"/><circle class="cls-2" cx="325.05" cy="15.57" r="2.42"/><circle class="cls-2" cx="320.64" cy="19.95" r="2.42"/><circle class="cls-2" cx="325.05" cy="24.34" r="2.42"/><circle class="cls-2" cx="320.64" cy="28.72" r="2.42"/><circle class="cls-2" cx="325.05" cy="33.1" r="2.42"/><circle class="cls-2" cx="320.64" cy="37.49" r="2.42"/><circle class="cls-2" cx="325.05" cy="41.87" r="2.42"/><circle class="cls-2" cx="320.64" cy="46.25" r="2.42"/><circle class="cls-2" cx="325.05" cy="50.64" r="2.42"/><circle class="cls-2" cx="320.64" cy="55.02" r="2.42"/><circle class="cls-2" cx="325.05" cy="59.41" r="2.42"/><circle class="cls-2" cx="320.64" cy="63.79" r="2.42"/><circle class="cls-2" cx="325.05" cy="68.17" r="2.42"/><circle class="cls-2" cx="320.64" cy="72.56" r="2.42"/><circle class="cls-2" cx="329.43" cy="11.19" r="2.42"/><circle class="cls-2" cx="333.84" cy="16.17" r="2.42"/><circle class="cls-2" cx="342.7" cy="16.51" r="2.42"/><circle class="cls-2" cx="329.77" cy="20.63" r="2.42"/><circle class="cls-2" cx="334.18" cy="24.68" r="2.42"/><circle class="cls-2" cx="329.77" cy="28.72" r="2.42"/><circle class="cls-2" cx="333.84" cy="33.1" r="2.42"/><circle class="cls-2" cx="329.43" cy="37.49" r="2.42"/><circle class="cls-2" cx="333.84" cy="41.87" r="2.42"/><circle class="cls-2" cx="329.43" cy="46.25" r="2.42"/><circle class="cls-2" cx="333.84" cy="50.64" r="2.42"/><circle class="cls-2" cx="333.84" cy="59.41" r="2.42"/><circle class="cls-2" cx="333.84" cy="68.17" r="2.42"/><circle class="cls-2" cx="329.43" cy="72.56" r="2.42"/><circle class="cls-2" cx="338.24" cy="11.19" r="2.42"/><circle class="cls-2" cx="338.58" cy="20.63" r="2.42"/><circle class="cls-2" cx="342.99" cy="24.68" r="2.42"/><circle class="cls-2" cx="338.58" cy="29.06" r="2.42"/><circle class="cls-2" cx="342.64" cy="33.1" r="2.42"/><circle class="cls-2" cx="338.24" cy="37.49" r="2.42"/><circle class="cls-2" cx="342.64" cy="41.87" r="2.42"/><circle class="cls-2" cx="342.64" cy="50.64" r="2.42"/><circle class="cls-2" cx="338.24" cy="55.02" r="2.42"/><circle class="cls-2" cx="342.64" cy="59.41" r="2.42"/><circle class="cls-2" cx="338.24" cy="63.79" r="2.42"/><circle class="cls-2" cx="342.64" cy="68.17" r="2.42"/><circle class="cls-2" cx="338.24" cy="72.56" r="2.42"/><circle class="cls-2" cx="347.03" cy="11.19" r="2.42"/><circle class="cls-2" cx="351.43" cy="15.57" r="2.42"/><circle class="cls-2" cx="347.03" cy="20.63" r="2.42"/><circle class="cls-2" cx="351.43" cy="24.34" r="2.42"/><circle class="cls-2" cx="347.03" cy="28.72" r="2.42"/><circle class="cls-2" cx="351.43" cy="33.1" r="2.42"/><circle class="cls-2" cx="347.03" cy="37.49" r="2.42"/><circle class="cls-2" cx="351.43" cy="41.87" r="2.42"/><circle class="cls-2" cx="347.03" cy="46.25" r="2.42"/><circle class="cls-2" cx="351.43" cy="50.64" r="2.42"/><circle class="cls-2" cx="347.03" cy="55.02" r="2.42"/><circle class="cls-2" cx="351.43" cy="59.41" r="2.42"/><circle class="cls-2" cx="347.03" cy="63.79" r="2.42"/><circle class="cls-2" cx="351.43" cy="68.17" r="2.42"/><circle class="cls-2" cx="347.03" cy="72.56" r="2.42"/><circle class="cls-2" cx="355.94" cy="11.19" r="2.42"/><circle class="cls-2" cx="360.35" cy="15.57" r="2.42"/><circle class="cls-2" cx="355.94" cy="19.95" r="2.42"/><circle class="cls-2" cx="360.35" cy="24.34" r="2.42"/><circle class="cls-2" cx="355.94" cy="28.72" r="2.42"/><circle class="cls-2" cx="360.35" cy="33.1" r="2.42"/><circle class="cls-2" cx="355.94" cy="37.49" r="2.42"/><circle class="cls-2" cx="360.35" cy="41.87" r="2.42"/><circle class="cls-2" cx="355.94" cy="46.25" r="2.42"/><circle class="cls-2" cx="360.35" cy="50.64" r="2.42"/><circle class="cls-2" cx="355.94" cy="55.02" r="2.42"/><circle class="cls-2" cx="360.35" cy="59.41" r="2.42"/><circle class="cls-2" cx="355.94" cy="63.79" r="2.42"/><circle class="cls-2" cx="360.35" cy="68.17" r="2.42"/><circle class="cls-2" cx="355.94" cy="72.56" r="2.42"/><circle class="cls-2" cx="364.73" cy="11.19" r="2.42"/><circle class="cls-2" cx="364.73" cy="19.95" r="2.42"/><circle class="cls-2" cx="364.73" cy="28.72" r="2.42"/><circle class="cls-2" cx="364.73" cy="37.49" r="2.42"/><circle class="cls-2" cx="364.73" cy="46.25" r="2.42"/><circle class="cls-2" cx="364.73" cy="55.02" r="2.42"/><circle class="cls-2" cx="364.73" cy="63.79" r="2.42"/><circle class="cls-2" cx="364.73" cy="72.56" r="2.42"/><rect class="cls-2" x="372.4" y="0.25" width="57.6" height="74.48"/><rect class="cls-2" x="248.43" y="7.47" width="56.18" height="4.78"/><rect class="cls-2" x="248.43" y="34.96" width="56.03" height="4.78"/><rect class="cls-2" x="248.43" y="62.73" width="56.37" height="4.78"/><polygon class="cls-2" points="239.06 0.25 186.15 39.28 186.15 42.93 243.75 0.44 243.75 0.25 239.06 0.25"/><polygon class="cls-2" points="186.15 51.8 243.75 9.31 243.75 5.66 186.15 48.15 186.15 51.8"/><polygon class="cls-2" points="186.15 60.68 243.75 18.18 243.75 14.53 186.15 57.02 186.15 60.68"/><polygon class="cls-2" points="186.15 69.55 243.75 27.06 243.75 23.4 186.15 65.89 186.15 69.55"/><polygon class="cls-2" points="190.95 0.25 186.15 3.79 186.15 7.45 195.9 0.25 190.95 0.25"/><polygon class="cls-2" points="202.98 0.25 186.15 12.66 186.15 16.32 207.93 0.25 202.98 0.25"/><polygon class="cls-2" points="215 0.25 186.15 21.54 186.15 25.19 219.96 0.25 215 0.25"/><polygon class="cls-2" points="227.03 0.25 186.15 30.41 186.15 34.06 231.99 0.25 227.03 0.25"/><polygon class="cls-2" points="191.15 74.73 243.75 35.93 243.75 32.27 186.2 74.73 191.15 74.73"/><polygon class="cls-2" points="203.18 74.73 243.75 44.8 243.75 41.15 198.22 74.73 203.18 74.73"/><polygon class="cls-2" points="215.2 74.73 243.75 53.67 243.75 50.02 210.25 74.73 215.2 74.73"/><polygon class="cls-2" points="227.23 74.73 243.75 62.54 243.75 58.89 222.28 74.73 227.23 74.73"/><polygon class="cls-2" points="239.26 74.73 243.75 71.42 243.75 67.76 234.31 74.73 239.26 74.73"/><path class="cls-1" d="M2266.85,224.7h0.89c4.73-.08,7.21-3,8-7.52a3,3,0,0,1,3.31-3.31h10.34a3,3,0,0,1,3.31,3.31c-1.24,15.31-8.69,22.35-25.89,22.21-18.79,0-27-10.21-27-34.38v-3.58c0-24.17,8.23-34.38,27-34.38,18,0.05,25.06,6.67,25.89,24.88a3,3,0,0,1-3.31,3.31h-10.34a3,3,0,0,1-3.31-3.31c-0.41-6.21-2.48-10.35-8-10.2h-0.89c-8.5,0-9.75,7.61-9.75,19.69V205C2257.09,217.09,2258.35,224.7,2266.85,224.7Z" transform="translate(-2113.54 -165.73)"/><path class="cls-1" d="M2441.11,238.2h-10.75a3,3,0,0,1-3.31-3.31V171.58c0-2.48,1.24-3.31,3.31-3.31l22.29,0c11.81,0,25.14,2.69,25.14,22V192c0,19.34-13.33,22-25.14,22h-8.4l0.17,20.83A3,3,0,0,1,2441.11,238.2Zm12.25-38.83c3.31,0,7.25-1.25,7.25-7.88v-0.72c0-6.62-3.94-7.88-7.25-7.88h-9.11v16.47h9.11Z" transform="translate(-2113.54 -165.73)"/><path class="cls-1" d="M2519.68,238.18h-10.34a3,3,0,0,1-3.31-3.31l0-52-12.38-.16c-2.07,0-3.31-.83-3.31-3.31v-7.86a3,3,0,0,1,3.31-3.31h41.77c2.07,0,3.31.83,3.31,3.31v7.86a3,3,0,0,1-3.31,3.31l-12.39.16,0,52A3,3,0,0,1,2519.68,238.18Z" transform="translate(-2113.54 -165.73)"/><rect class="cls-2" y="7.47" width="56.18" height="4.78"/><rect class="cls-2" y="34.96" width="56.03" height="4.78"/><rect class="cls-2" y="62.73" width="56.37" height="4.78"/><path class="cls-1" d="M2225.38,238.18h-11.47a4.33,4.33,0,0,1-4-2.48l-17.07-36.16,0.43,13.43,0,21.91a3,3,0,0,1-3.16,3.31h-9.1c-2,0-3.16-.83-3.16-3.31V171.55a3,3,0,0,1,3.16-3.31h11.47a3.8,3.8,0,0,1,3.56,2.48l17.31,36L2213,193.27l0.13-21.71a3,3,0,0,1,3.16-3.31h9.1c2,0,3.16.83,3.16,3.31v63.32A3,3,0,0,1,2225.38,238.18Z" transform="translate(-2113.54 -165.73)"/></svg>