<?xml version="1.0" encoding="utf-8"?>
<!-- Generator: Adobe Illustrator 18.1.1, SVG Export Plug-In . SVG Version: 6.00 Build 0)  -->
<!DOCTYPE svg PUBLIC "-//W3C//DTD SVG 1.1//EN" "http://www.w3.org/Graphics/SVG/1.1/DTD/svg11.dtd">
<svg version="1.1" id="Layer_1" xmlns="http://www.w3.org/2000/svg" xmlns:xlink="http://www.w3.org/1999/xlink" x="0px" y="0px"
	 viewBox="0 0 100 100" enable-background="new 0 0 100 100" xml:space="preserve">
<g>
	<path fill="none" stroke="#1391D0" stroke-width="2.1" stroke-miterlimit="10" d="M78,80.5c0,2.8-2.3,5-5,5H28.5c-2.8,0-5-2.3-5-5
		V19.9c0-2.8,2.3-5,5-5H73c2.8,0,5,2.3,5,5V80.5z"/>
	<line fill="none" stroke="#1391D0" stroke-width="2.1" stroke-miterlimit="10" x1="34.2" y1="61" x2="68" y2="61"/>
	<line fill="none" stroke="#1391D0" stroke-width="2.1" stroke-miterlimit="10" x1="34.2" y1="66.9" x2="68" y2="66.9"/>
	<line fill="none" stroke="#1391D0" stroke-width="2.1" stroke-miterlimit="10" x1="34.2" y1="72.9" x2="68" y2="72.9"/>
	<line fill="none" stroke="#1391D0" stroke-width="2.1" stroke-miterlimit="10" x1="34.2" y1="28.3" x2="68" y2="28.3"/>
	<line fill="none" stroke="#1391D0" stroke-width="2.1" stroke-miterlimit="10" x1="34.2" y1="34.3" x2="56.5" y2="34.3"/>
	<rect x="35.1" y="41.6" fill="none" stroke="#1391D0" stroke-width="2.1" stroke-miterlimit="10" width="31.7" height="11.9"/>
	<g>
		<polygon fill="#1790CF" stroke="#1391D0" stroke-width="2" stroke-miterlimit="10" points="68.7,29.8 61.7,35.8 61.7,15.3 
			68.7,15.3 		"/>
		<polygon fill="#1790CF" stroke="#1391D0" stroke-width="2" stroke-miterlimit="10" points="64.5,29.8 71.5,35.8 71.5,15.3 
			64.5,15.3 		"/>
	</g>
</g>
</svg>
