<?xml version="1.0" encoding="UTF-8" standalone="no"?>
<svg width="52px" height="47px" viewBox="0 0 52 47" version="1.1" xmlns="http://www.w3.org/2000/svg" xmlns:xlink="http://www.w3.org/1999/xlink" xmlns:sketch="http://www.bohemiancoding.com/sketch/ns">
    <!-- Generator: Sketch 3.4.4 (17249) - http://www.bohemiancoding.com/sketch -->
    <title>icon-pledge</title>
    <desc>Created with Sketch.</desc>
    <defs>
        <path id="path-1" d="M0,0.425 L52,0.425 L52,47 L0,47 L0,0.425 Z"></path>
    </defs>
    <g id="Page-1" stroke="none" stroke-width="1" fill="none" fill-rule="evenodd" sketch:type="MSPage">
        <g id="icon-pledge" sketch:type="MSLayerGroup">
            <mask id="mask-2" sketch:name="Clip 2" fill="white">
                <use xlink:href="#path-1"></use>
            </mask>
            <g id="Clip-2"></g>
            <path d="M51,37.6851 L30.463,37.6851 C29.997,36.0631 29.279,34.5371 28.335,33.1621 L37.06,24.4261 C37.254,24.2301 37.254,23.9141 37.059,23.7181 C36.864,23.5241 36.547,23.5231 36.352,23.7191 L27.733,32.3491 C26.156,30.3441 24.089,28.7221 21.668,27.6831 C24.172,25.8131 25.803,22.8331 25.803,19.4711 C25.803,18.4771 25.654,17.5181 25.389,16.6081 C25.389,16.6051 25.39,16.6031 25.389,16.6001 C25.388,16.5971 25.386,16.5941 25.385,16.5901 C24.139,12.3361 20.214,9.2191 15.57,9.2191 C14.875,9.2191 14.197,9.2901 13.541,9.4231 L13.541,1.4251 L51,1.4251 L51,37.6851 Z M30.076,46.0001 L1.064,46.0001 L1.064,41.9591 C1.064,35.9081 4.843,30.4701 10.483,28.3521 C11.984,29.2181 13.718,29.7221 15.57,29.7221 C17.423,29.7221 19.157,29.2191 20.657,28.3521 C26.298,30.4711 30.076,35.9081 30.076,41.9591 L30.076,46.0001 Z M7.042,27.1011 C5.384,28.5241 2.398,29.1081 1.093,29.3031 C1.305,28.1401 1.927,25.6491 3.523,24.2791 C4.259,23.6481 5.078,23.1261 5.886,22.7571 C6.328,24.0591 7.023,25.2411 7.914,26.2491 L7.702,26.4811 C7.498,26.6911 7.278,26.8981 7.042,27.1011 L7.042,27.1011 Z M24.803,19.4711 C24.803,24.5721 20.661,28.7221 15.57,28.7221 C11.488,28.7221 8.021,26.0501 6.805,22.3631 C11.135,21.9541 14.721,18.8501 15.758,14.6481 C18.068,16.8341 21.262,17.8461 24.529,17.2741 C24.702,17.9791 24.803,18.7121 24.803,19.4711 L24.803,19.4711 Z M15.57,10.2191 C19.551,10.2191 22.941,12.7621 24.235,16.3071 C21.013,16.8301 17.906,15.6581 15.83,13.2811 C15.702,13.1341 15.5,13.0781 15.312,13.1301 C15.125,13.1851 14.987,13.3441 14.958,13.5371 C14.325,17.8211 10.814,21.0561 6.537,21.3801 C6.407,20.7641 6.337,20.1251 6.337,19.4711 C6.337,14.3701 10.479,10.2191 15.57,10.2191 L15.57,10.2191 Z M51.5,0.4251 L13.041,0.4251 C12.764,0.4251 12.541,0.6481 12.541,0.9251 L12.541,9.6781 C8.373,10.9751 5.337,14.8741 5.337,19.4711 C5.337,20.2691 5.437,21.0421 5.611,21.7891 C4.669,22.1981 3.732,22.7821 2.872,23.5201 C0.444,25.6041 0.02,29.6631 0.002,29.8351 C-0.012,29.9831 0.04,30.1311 0.146,30.2361 C0.24,30.3311 0.368,30.3841 0.5,30.3841 C0.516,30.3841 0.531,30.3831 0.546,30.3821 C0.739,30.3641 5.297,29.9171 7.694,27.8591 C7.953,27.6371 8.195,27.4091 8.429,27.1671 L8.613,26.9671 C8.886,27.2211 9.173,27.4591 9.472,27.6831 C3.811,30.1131 0.064,35.7311 0.064,41.9591 L0.064,46.5001 C0.064,46.7761 0.288,47.0001 0.564,47.0001 L30.576,47.0001 C30.852,47.0001 31.076,46.7761 31.076,46.5001 L31.076,41.9591 C31.076,40.8431 30.947,39.7481 30.717,38.6851 L51.5,38.6851 C51.776,38.6851 52,38.4611 52,38.1851 L52,0.9251 C52,0.6481 51.776,0.4251 51.5,0.4251 L51.5,0.4251 Z" id="Fill-1" fill="#1F93D0" sketch:type="MSShapeGroup" mask="url(#mask-2)"></path>
        </g>
    </g>
</svg>