<svg id="Layer_1" data-name="Layer 1" xmlns="http://www.w3.org/2000/svg" viewBox="-15 -15 100 100"><defs><style>.cls-1{fill:#1391d0;}</style></defs><title>icon-newsletter</title><path class="cls-1" d="M77.91,28.68V19.31a6.06,6.06,0,0,0-6-6H27.36a6.06,6.06,0,0,0-6,6v9.37l-8,6.21v45a6.06,6.06,0,0,0,6,6h60.6a6.06,6.06,0,0,0,6-6v-45Zm6,9.54V77.1L58.67,57.66Zm-0.23-2.47-5.72,4.41V31.33ZM27.36,15.36h44.5a4,4,0,0,1,4,4V41.77L57,56.33,53.29,53.5l-0.39-.28a6,6,0,0,0-6.61,0c-0.12.08-.38,0.29-0.39,0.29l-3.65,2.81L23.41,41.77V19.31A4,4,0,0,1,27.36,15.36Zm13.19,42.3L15.36,77.1V38.21ZM21.31,40.15l-5.72-4.41,5.72-4.41v8.82Zm58.6,43.7H19.31a4,4,0,0,1-4-4V79.75L47.21,55.16,47.45,55a4,4,0,0,1,4.25,0L51.81,55,83.86,79.75v0.15A4,4,0,0,1,79.91,83.86Z" transform="translate(-13.26 -13.26)"/><rect class="cls-1" x="19.8" y="13.4" width="33.8" height="2.1"/><rect class="cls-1" x="19.8" y="19.77" width="22.3" height="2.1"/><rect class="cls-1" x="19.8" y="26.14" width="33.8" height="2.1"/><rect class="cls-1" x="19.8" y="32.51" width="33.8" height="2.1"/></svg>