<?xml version="1.0" encoding="utf-8"?>
<!-- Generator: Adobe Illustrator 18.1.1, SVG Export Plug-In . SVG Version: 6.00 Build 0)  -->
<!DOCTYPE svg PUBLIC "-//W3C//DTD SVG 1.1//EN" "http://www.w3.org/Graphics/SVG/1.1/DTD/svg11.dtd">
<svg version="1.1" id="Layer_1" xmlns="http://www.w3.org/2000/svg" xmlns:xlink="http://www.w3.org/1999/xlink" x="0px" y="0px"
	 viewBox="0 0 100 100" enable-background="new 0 0 100 100" xml:space="preserve">
<g>
	<g>
		<path fill="none" stroke="#1391D0" stroke-width="2" stroke-miterlimit="10" d="M63.2,28.1c0-7.1-5.6-12.8-12.5-12.8
			c-6.9,0-12.5,5.7-12.5,12.8c0,3.6,2.3,9.2,5,12.8c4.3,5.5,7.4,9.5,7.4,9.5s3.4-4.3,6.7-8.6C60.7,37.4,63.2,31.7,63.2,28.1z"/>
		<ellipse fill="none" stroke="#1391D0" stroke-width="2" stroke-miterlimit="10" cx="50.7" cy="28" rx="6.4" ry="6.5"/>
	</g>
	<g>
		<path fill="none" stroke="#1391D0" stroke-width="2" stroke-miterlimit="10" d="M36.6,61.9c0-7.1-5.6-12.8-12.5-12.8
			c-6.9,0-12.5,5.7-12.5,12.8c0,3.6,2.3,9.2,5,12.8c4.3,5.5,7.4,9.5,7.4,9.5s3.4-4.3,6.7-8.6C34,71.2,36.6,65.5,36.6,61.9z"/>
		<ellipse fill="none" stroke="#1391D0" stroke-width="2" stroke-miterlimit="10" cx="24.1" cy="61.9" rx="6.4" ry="6.5"/>
	</g>
	<g>
		<path fill="none" stroke="#1391D0" stroke-width="2" stroke-miterlimit="10" d="M89.8,61.9c0-7.1-5.6-12.8-12.5-12.8
			c-6.9,0-12.5,5.7-12.5,12.8c0,3.6,2.3,9.2,5,12.8c4.3,5.5,7.4,9.5,7.4,9.5s3.4-4.3,6.7-8.6C87.3,71.2,89.8,65.5,89.8,61.9z"/>
		<ellipse fill="none" stroke="#1391D0" stroke-width="2" stroke-miterlimit="10" cx="77.4" cy="61.9" rx="6.4" ry="6.5"/>
	</g>
	<polyline fill="none" stroke="#1391D0" stroke-width="2" stroke-miterlimit="10" points="24.8,83.3 50.6,50.4 77.2,83.9 	"/>
</g>
</svg>
