<?xml version="1.0" encoding="UTF-8" standalone="no"?>
<svg width="201px" height="188px" viewBox="0 0 201 188" version="1.1" xmlns="http://www.w3.org/2000/svg" xmlns:xlink="http://www.w3.org/1999/xlink" xmlns:sketch="http://www.bohemiancoding.com/sketch/ns">
    <!-- Generator: Sketch 3.4.4 (17249) - http://www.bohemiancoding.com/sketch -->
    <title>icon-circle-home</title>
    <desc>Created with Sketch.</desc>
    <defs>
        <path id="path-1" d="M0,0.989 L200.103,0.989 L200.103,189 L0,189 L0,0.989 Z"></path>
        <path id="path-3" d="M0,0.989 L200.103,0.989 L200.103,189 L0,189 L0,0.989 Z"></path>
    </defs>
    <g id="Page-1" stroke="none" stroke-width="1" fill="none" fill-rule="evenodd" sketch:type="MSPage">
        <g id="icon-circle-home" sketch:type="MSLayerGroup" transform="translate(0.000000, -1.000000)">
            <g id="Group-3">
                <mask id="mask-2" sketch:name="Clip 2" fill="white">
                    <use xlink:href="#path-1"></use>
                </mask>
                <g id="Clip-2"></g>
                <path d="M186.2695,160.2114 L180.9205,160.6974 L180.6955,161.2714 C179.6385,163.9614 178.1795,166.3944 176.3565,168.5044 L175.9515,168.9734 L177.9945,173.8364 L172.2355,178.1144 L168.1435,174.7034 L167.5695,174.9684 C165.0905,176.1124 162.4085,176.7914 159.5975,176.9844 L158.9665,177.0284 L157.0205,181.9884 L149.9625,180.9214 L149.4775,175.4814 L148.9125,175.2514 C146.3915,174.2234 144.0535,172.7954 141.9665,171.0054 L141.4925,170.5994 L136.5395,172.7364 L132.3625,167.0034 L135.9605,162.8214 L135.7185,162.2504 C135.6025,161.9754 135.4955,161.6994 135.3885,161.4234 L141.6495,161.4234 C144.4745,166.3984 149.4575,169.8334 155.1015,170.6484 C156.0695,170.7974 157.0365,170.8714 157.9975,170.8714 C161.9545,170.8714 165.7895,169.6154 169.0255,167.2204 C173.0615,164.2344 175.6795,159.8454 176.3975,154.8714 C177.9745,144.6704 170.9425,135.0724 160.7215,133.4744 C157.9415,133.0444 155.1125,133.2534 152.4565,134.0654 L152.4565,128.6354 C153.7035,128.3244 154.9115,128.1234 156.1245,128.0404 L156.7485,127.9974 L158.7925,122.9354 L165.8465,124.0014 L166.2365,129.3694 L166.8505,129.5884 C169.3845,130.4944 171.7075,131.8774 173.9535,133.8154 L174.4315,134.2294 L179.2935,132.0894 L183.5575,137.8284 L180.1555,141.8134 L180.4115,142.3894 C181.5805,145.0184 182.2415,147.6954 182.4335,150.5734 L182.4755,151.2014 L187.3375,153.1464 L186.2695,160.2114 Z M59.7785,151.8004 C60.7965,152.0824 61.8715,151.9784 62.8805,151.4774 C64.9565,150.4464 66.2965,148.0154 66.2965,145.2824 L66.2965,117.1054 C66.2965,112.1114 62.8305,111.6934 59.2805,111.6934 L58.7995,111.6934 L58.7995,26.6544 L149.0495,26.6544 C149.7985,26.6544 150.4565,27.3114 150.4565,28.0604 L150.4565,158.0174 C150.4565,158.7664 149.7985,159.4234 149.0495,159.4234 L59.7785,159.4234 L59.7785,151.8004 Z M57.7785,182.2844 C57.7785,184.9284 55.6195,187.0004 52.8625,187.0004 C50.1515,187.0004 47.9465,184.8844 47.9465,182.2844 L47.9465,149.2964 L42.5375,149.2964 L42.5375,182.2844 C42.5375,184.9284 40.3775,187.0004 37.6205,187.0004 C34.9095,187.0004 32.7045,184.8844 32.7045,182.2844 L32.7045,127.2324 L30.7045,127.2324 L30.7045,149.5834 C29.8855,149.8994 28.9145,149.8394 28.1105,149.3934 C26.8695,148.7054 26.1865,147.2464 26.1865,145.2824 L26.1865,117.1054 C26.1865,114.5864 27.0795,113.6934 29.5985,113.6934 L59.2805,113.6934 C63.3125,113.6934 64.2965,114.3624 64.2965,117.1054 L64.2965,145.2824 C64.2965,147.5334 63.1385,149.1164 61.9915,149.6864 C61.4545,149.9524 60.6635,150.1364 59.7785,149.6564 L59.7785,127.2324 L57.7785,127.2324 L57.7785,182.2844 Z M47.8695,108.9974 C49.0385,108.7394 50.1355,108.3044 51.1385,107.7264 L56.7995,107.7264 L56.7995,111.6934 L47.8695,111.6934 L47.8695,108.9974 Z M35.9135,98.1534 C35.9135,93.0344 40.0555,89.0254 45.3415,89.0254 C50.5405,89.0254 54.7705,93.1204 54.7705,98.1534 C54.7705,103.1864 50.5405,107.2814 45.3415,107.2814 C40.1435,107.2814 35.9135,103.1864 35.9135,98.1534 L35.9135,98.1534 Z M47.8695,80.3514 L56.7995,80.3514 L56.7995,105.7264 L53.6915,105.7264 C55.5955,103.7374 56.7705,101.0794 56.7705,98.1534 C56.7705,92.8644 52.9575,88.4334 47.8695,87.3094 L47.8695,80.3514 Z M47.8695,52.9764 L56.7995,52.9764 L56.7995,78.3514 L47.8695,78.3514 L47.8695,52.9764 Z M10.6265,65.3654 C5.8695,65.3654 1.9995,61.4964 1.9995,56.7394 L1.9995,52.9284 C1.9995,48.1714 5.8695,44.3024 10.6265,44.3024 L18.6455,44.3024 L18.6455,42.0994 C18.6455,37.3424 22.5155,33.4724 27.2715,33.4724 L31.0825,33.4724 C31.9985,33.4724 32.7585,33.5834 33.4735,33.8224 L34.3375,34.1104 L34.7055,33.2774 C36.1035,30.1064 39.2085,28.0574 42.6145,28.0574 L45.8695,28.0574 L45.8695,28.0604 L45.8695,50.9764 L43.3105,50.9764 C42.7575,50.9764 42.3105,51.4234 42.3105,51.9764 C42.3105,52.5284 42.7575,52.9764 43.3105,52.9764 L45.8695,52.9764 L45.8695,65.3654 L10.6265,65.3654 Z M56.7995,50.9764 L47.8695,50.9764 L47.8695,28.0604 C47.8695,27.2584 48.4745,26.6544 49.2755,26.6544 L56.7995,26.6544 L56.7995,50.9764 Z M27.2695,21.8934 C27.2695,18.2354 28.2835,15.4864 30.3705,13.4914 C32.4735,11.4794 35.3775,10.4594 39.0045,10.4594 C39.9875,10.4594 40.9705,10.6344 42.0975,11.0094 C43.1165,11.3494 44.0455,11.7854 45.1075,12.4224 C45.7325,12.7974 46.2715,13.2134 46.7935,13.6164 C47.0595,13.8204 47.3095,14.0134 47.4995,14.1484 C48.1685,14.7214 48.8595,15.3144 49.4275,15.8824 L50.1345,16.5894 L50.8415,15.8824 C51.4105,15.3144 52.1015,14.7214 52.7905,14.1294 C53.4475,13.5674 54.3385,12.9724 55.1655,12.4204 C56.1295,11.8424 57.0405,11.2954 58.0985,11.0314 L58.1975,11.0014 C59.1585,10.6514 60.2475,10.4594 61.2655,10.4594 C64.9825,10.4594 67.8825,11.4744 69.8835,13.4754 C72.0185,15.6104 73.1005,18.4424 73.1005,21.8934 C73.1005,22.8024 72.9735,23.7284 72.7335,24.6544 L49.2755,24.6544 C48.1215,24.6544 47.1245,25.2064 46.5115,26.0604 C46.4825,26.0604 46.4535,26.0574 46.4245,26.0574 L42.6145,26.0574 C38.7035,26.0574 35.1175,28.2424 33.2555,31.6914 C32.6975,31.5694 32.0975,31.5114 31.4655,31.4914 L30.8325,30.7614 C30.2305,30.0734 29.6645,29.2544 29.1485,28.3264 C28.6315,27.3964 28.1715,26.3454 27.8195,25.2874 C27.4645,24.2234 27.2695,23.0184 27.2695,21.8934 L27.2695,21.8934 Z M139.6185,21.6434 C139.6185,11.3574 147.8065,2.9894 157.8715,2.9894 C167.8405,2.9894 176.0285,11.3614 176.1235,21.6434 C176.1235,26.6834 172.3745,35.4334 167.4085,41.9894 C163.5095,47.0344 159.5125,52.1314 157.8655,54.2264 C156.8635,52.9664 154.9535,50.5584 152.4565,47.3784 L152.4565,30.9704 C154.0885,31.9434 155.9535,32.4694 157.8715,32.4694 C163.7855,32.4694 168.5975,27.5674 168.5975,21.5424 C168.5975,15.5174 163.7855,10.6154 157.8715,10.6154 C151.9565,10.6154 147.1445,15.5174 147.1445,21.5424 C147.1445,22.6104 147.3045,23.6494 147.5985,24.6544 L139.9205,24.6544 C139.7235,23.5534 139.6185,22.5404 139.6185,21.6434 L139.6185,21.6434 Z M152.4565,62.2064 L152.4565,50.6124 C154.7375,53.5084 156.3205,55.4974 156.8715,56.1874 L156.8715,60.4294 L152.4565,62.2064 Z M188.3525,70.9624 L162.2025,81.4854 L152.4565,77.5644 L152.4565,64.3624 L162.2025,60.4404 L188.3525,70.9624 Z M178.3495,84.6804 C178.3495,88.0224 170.8985,92.1034 162.2025,92.1034 C158.8285,92.1034 155.3995,91.4754 152.4565,90.3404 L152.4565,79.7204 L162.2025,83.6414 L178.3495,77.1444 L178.3495,84.6804 Z M152.4565,136.1704 C154.9915,135.2904 157.7285,135.0364 160.4145,135.4504 C169.5465,136.8784 175.8305,145.4524 174.4195,154.5754 C173.7765,159.0264 171.4385,162.9464 167.8365,165.6124 C164.2455,168.2694 159.8285,169.3574 155.3965,168.6694 C150.6635,167.9864 146.5985,165.3714 143.9995,161.4234 L149.0495,161.4234 C150.8955,161.4234 152.4565,159.8634 152.4565,158.0174 L152.4565,136.1704 Z M149.7275,24.7254 C149.3485,23.7114 149.1445,22.6454 149.1445,21.5424 C149.1445,16.6204 153.0595,12.6154 157.8715,12.6154 C162.6835,12.6154 166.5975,16.6204 166.5975,21.5424 C166.5975,26.4644 162.6835,30.4694 157.8715,30.4694 C155.8975,30.4694 153.9935,29.7794 152.4565,28.5324 L152.4565,28.0604 C152.4565,26.4454 151.2625,25.0504 149.7275,24.7254 L149.7275,24.7254 Z M184.6845,85.3734 C184.1915,85.3734 183.7915,84.9724 183.7915,84.4804 C183.7915,83.9874 184.1915,83.5864 184.6845,83.5864 C185.1775,83.5864 185.5775,83.9874 185.5775,84.4804 C185.5775,84.9724 185.1775,85.3734 184.6845,85.3734 L184.6845,85.3734 Z M182.4895,142.1594 L186.1125,137.9154 L179.9475,129.6164 L174.7755,131.8924 C172.6715,130.1524 170.4885,128.8514 168.1375,127.9344 L167.7255,122.2624 L157.5305,120.7214 L155.3595,126.0974 C154.3995,126.1904 153.4335,126.3724 152.4565,126.5954 L152.4565,92.4774 C153.8555,92.9684 155.3435,93.3494 156.8715,93.6224 L156.8715,109.9044 L158.8715,109.9044 L158.8715,93.9104 C159.9775,94.0334 161.0925,94.1034 162.2025,94.1034 C171.6995,94.1034 180.3495,89.6124 180.3495,84.6804 L180.3495,76.3394 L183.6845,74.9974 L183.6845,81.7754 C182.5825,82.1854 181.7915,83.2374 181.7915,84.4804 C181.7915,85.4954 182.3195,86.3864 183.1125,86.9024 L182.4705,87.9274 C182.1675,88.4114 182.1515,89.0224 182.4285,89.5224 C182.7045,90.0214 183.2315,90.3314 183.8025,90.3314 L185.5665,90.3314 C186.1385,90.3314 186.6645,90.0214 186.9405,89.5214 C187.2175,89.0214 187.2005,88.4104 186.8975,87.9274 L186.2565,86.9024 C187.0495,86.3864 187.5775,85.4954 187.5775,84.4804 C187.5775,83.2374 186.7865,82.1854 185.6845,81.7754 L185.6845,74.1924 L193.7095,70.9624 L162.2025,58.2844 L158.8715,59.6254 L158.8715,56.1834 C159.8885,54.8904 164.5005,49.0234 168.9965,43.2044 C174.2855,36.2234 178.1235,27.1554 178.1235,21.6334 C178.0185,10.2504 168.9325,0.9894 157.8715,0.9894 C146.7035,0.9894 137.6185,10.2544 137.6185,21.6434 C137.6185,22.5594 137.7105,23.5694 137.8885,24.6544 L74.7875,24.6544 C74.9895,23.7314 75.1005,22.8064 75.1005,21.8934 C75.1005,17.8924 73.8215,14.5844 71.2975,12.0614 C68.9075,9.6714 65.5325,8.4594 61.2655,8.4594 C60.0375,8.4594 58.7255,8.6884 57.5625,9.1034 C56.2405,9.4434 55.1705,10.0854 54.0925,10.7334 C53.1805,11.3414 52.2375,11.9694 51.4675,12.6294 C51.0215,13.0114 50.5675,13.4014 50.1345,13.7964 C49.7025,13.4014 49.2475,13.0114 48.8025,12.6294 L48.7105,12.5564 C48.4895,12.3994 48.2595,12.2204 48.0155,12.0324 C47.4745,11.6154 46.8615,11.1424 46.1365,10.7084 C44.9445,9.9924 43.8935,9.5004 42.7295,9.1124 C41.4115,8.6724 40.1925,8.4594 39.0045,8.4594 C34.8455,8.4594 31.4755,9.6664 28.9875,12.0454 C26.4855,14.4394 25.2695,17.6604 25.2695,21.8934 C25.2695,23.2474 25.4955,24.6394 25.9225,25.9194 C26.3125,27.0924 26.8245,28.2604 27.4005,29.2974 C27.8475,30.1024 28.3425,30.8154 28.8565,31.4724 L27.2715,31.4724 C21.4125,31.4724 16.6455,36.2394 16.6455,42.0994 L16.6455,42.3024 L10.6265,42.3024 C4.7675,42.3024 -0.0005,47.0694 -0.0005,52.9284 L-0.0005,56.7394 C-0.0005,62.5984 4.7675,67.3654 10.6265,67.3654 L45.8695,67.3654 L45.8695,78.3514 L43.3105,78.3514 C42.7575,78.3514 42.3105,78.7994 42.3105,79.3514 C42.3105,79.9034 42.7575,80.3514 43.3105,80.3514 L45.8695,80.3514 L45.8695,87.0514 C45.6935,87.0434 45.5195,87.0254 45.3415,87.0254 C39.0405,87.0254 33.9135,92.0174 33.9135,98.1534 C33.9135,104.2894 39.0405,109.2814 45.3415,109.2814 C45.5195,109.2814 45.6935,109.2634 45.8695,109.2554 L45.8695,111.6934 L29.5985,111.6934 C26.0075,111.6934 24.1865,113.5144 24.1865,117.1054 L24.1865,145.2824 C24.1865,147.9664 25.2635,150.1024 27.1405,151.1424 C28.2325,151.7474 29.5175,151.9194 30.7045,151.6614 L30.7045,182.2844 C30.7045,185.9874 33.8075,189.0004 37.6205,189.0004 C41.4985,189.0004 44.5375,186.0504 44.5375,182.2844 L44.5375,151.2964 L45.9465,151.2964 L45.9465,182.2844 C45.9465,185.9874 49.0485,189.0004 52.8625,189.0004 C56.7405,189.0004 59.7785,186.0504 59.7785,182.2844 L59.7785,161.4234 L133.2665,161.4234 C133.3885,161.7674 133.5025,162.1094 133.6395,162.4524 L129.8125,166.9004 L135.8645,175.2064 L141.1455,172.9274 C143.1135,174.5394 145.2775,175.8604 147.5925,176.8654 L148.1105,182.6644 L158.2995,184.2044 L160.3695,178.9284 C162.9775,178.6844 165.4795,178.0514 167.8265,177.0434 L172.1645,180.6584 L180.4455,174.5074 L178.2725,169.3354 C179.9285,167.3214 181.2885,165.0534 182.3235,162.5784 L188.0125,162.0614 L189.5525,151.8784 L184.3795,149.8094 C184.1405,147.1404 183.5195,144.6264 182.4895,142.1594 L182.4895,142.1594 Z" id="Fill-1" fill="#ADCEEB" sketch:type="MSShapeGroup" mask="url(#mask-2)"></path>
            </g>
            <path d="M194.043,122.0952 L191.38,120.9542 L190.904,121.3902 C189.843,122.3632 188.656,123.1232 187.275,123.7152 L186.71,123.9572 L186.522,126.8752 L183.504,127.3342 L182.459,124.5782 L181.815,124.5382 C180.424,124.4512 179.018,124.1072 177.634,123.5142 L177.043,123.2612 L174.986,125.1312 L172.527,123.2032 L173.565,120.5622 L173.22,120.1142 C172.277,118.8892 171.514,117.5522 170.949,116.1402 L170.716,115.5572 L167.986,115.3692 L167.513,112.1282 L170.077,111.0842 L170.116,110.4572 C170.206,109.0272 170.553,107.5452 171.15,106.0532 L171.37,105.5022 L169.578,103.3332 L171.461,100.7092 L174.024,101.8482 L174.507,101.4062 C175.606,100.3972 176.784,99.6612 178.213,99.0902 L178.799,98.8562 L178.989,95.9212 L182.007,95.4612 L183.037,98.1772 L183.634,98.2512 C185.083,98.4322 186.399,98.7912 187.776,99.3812 L188.353,99.6292 L190.51,97.7532 L192.973,99.6832 L191.828,102.4492 L192.215,102.9132 C193.078,103.9482 193.74,105.1022 194.362,106.6552 L194.587,107.2182 L197.421,107.5022 L197.897,110.7672 L195.336,111.8102 L195.295,112.4342 C195.204,113.8042 194.84,115.2902 194.271,116.6192 L194.029,117.1822 L195.931,119.4652 L194.043,122.0952 Z M197.233,113.1982 L200.103,112.0292 L199.175,105.6672 L195.984,105.3482 C195.442,104.0972 194.842,103.0472 194.132,102.1122 L195.401,99.0462 L190.443,95.1602 L187.979,97.3032 C186.823,96.8522 185.689,96.5432 184.484,96.3522 L183.304,93.2412 L177.096,94.1852 L176.884,97.4822 C175.697,98.0142 174.631,98.6782 173.653,99.4952 L170.786,98.2212 L167.054,103.4192 L169.079,105.8702 C168.612,107.1572 168.309,108.4402 168.174,109.7002 L165.308,110.8672 L166.24,117.2542 L169.337,117.4672 C169.864,118.6622 170.52,119.8042 171.293,120.8752 L170.121,123.8592 L175.082,127.7472 L177.448,125.5962 C178.635,126.0492 179.839,126.3452 181.041,126.4782 L182.208,129.5552 L188.415,128.6102 L188.628,125.2982 C189.781,124.7512 190.815,124.0912 191.765,123.2952 L194.731,124.5662 L198.459,119.3742 L196.34,116.8322 C196.786,115.6592 197.094,114.4042 197.233,113.1982 L197.233,113.1982 Z" id="Fill-4" fill="#ADCEEB" sketch:type="MSShapeGroup"></path>
            <path d="M185.0425,113.4692 C184.5775,114.1052 183.8955,114.5132 183.1215,114.6182 C182.3175,114.7262 181.5295,114.5242 180.9025,114.0452 C180.2605,113.5542 179.8465,112.8172 179.7305,111.9282 C179.5785,111.0602 179.7695,110.2082 180.2675,109.5272 C180.7325,108.8912 181.4155,108.4832 182.1885,108.3772 C182.3315,108.3582 182.4725,108.3482 182.6125,108.3482 C183.2665,108.3482 183.8915,108.5562 184.4075,108.9512 C185.0495,109.4422 185.4635,110.1782 185.5805,111.0682 C185.7315,111.9352 185.5405,112.7882 185.0425,113.4692 M185.6225,107.3622 C184.5695,106.5572 183.2565,106.2142 181.9185,106.3962 C180.6015,106.5752 179.4415,107.2682 178.6535,108.3462 C177.8325,109.4692 177.5145,110.8632 177.7525,112.2292 C177.9325,113.6082 178.6205,114.8172 179.6885,115.6342 C180.5565,116.2982 181.6045,116.6482 182.6935,116.6482 C182.9245,116.6482 183.1585,116.6322 183.3925,116.6002 C184.7085,116.4212 185.8685,115.7282 186.6565,114.6502 C187.4785,113.5272 187.7955,112.1332 187.5575,110.7672 C187.3775,109.3882 186.6905,108.1792 185.6225,107.3622" id="Fill-6" fill="#ADCEEB" sketch:type="MSShapeGroup"></path>
            <mask id="mask-4" sketch:name="Clip 9" fill="white">
                <use xlink:href="#path-3"></use>
            </mask>
            <g id="Clip-9"></g>
            <path d="M107.8,50.725 L135.877,50.725 L135.877,48.725 L107.8,48.725 L107.8,50.725 Z" id="Fill-8" fill="#ADCEEB" sketch:type="MSShapeGroup" mask="url(#mask-4)"></path>
            <path d="M107.8,57.91 L135.877,57.91 L135.877,55.91 L107.8,55.91 L107.8,57.91 Z" id="Fill-10" fill="#ADCEEB" sketch:type="MSShapeGroup" mask="url(#mask-4)"></path>
            <path d="M107.8,65.095 L135.877,65.095 L135.877,63.095 L107.8,63.095 L107.8,65.095 Z" id="Fill-11" fill="#ADCEEB" sketch:type="MSShapeGroup" mask="url(#mask-4)"></path>
            <path d="M75.1006,43.8716 L99.5536,43.8716 L99.5546,68.3246 L75.1006,68.3246 L75.1006,43.8716 Z M101.5536,68.3246 L101.5536,43.8716 C101.5536,42.7686 100.6566,41.8716 99.5536,41.8716 L75.1006,41.8716 C73.9976,41.8716 73.1006,42.7686 73.1006,43.8716 L73.1006,68.3246 C73.1006,69.4276 73.9976,70.3246 75.1006,70.3246 L99.5536,70.3246 C100.6566,70.3246 101.5536,69.4276 101.5536,68.3246 L101.5536,68.3246 Z" id="Fill-12" fill="#ADCEEB" sketch:type="MSShapeGroup" mask="url(#mask-4)"></path>
            <path d="M79.723,84.935 L135.877,84.935 L135.877,82.935 L79.723,82.935 L79.723,84.935 Z" id="Fill-13" fill="#ADCEEB" sketch:type="MSShapeGroup" mask="url(#mask-4)"></path>
            <path d="M79.723,92.12 L135.877,92.12 L135.877,90.12 L79.723,90.12 L79.723,92.12 Z" id="Fill-14" fill="#ADCEEB" sketch:type="MSShapeGroup" mask="url(#mask-4)"></path>
            <path d="M79.723,99.305 L135.877,99.305 L135.877,97.305 L79.723,97.305 L79.723,99.305 Z" id="Fill-15" fill="#ADCEEB" sketch:type="MSShapeGroup" mask="url(#mask-4)"></path>
            <path d="M79.723,106.49 L135.877,106.49 L135.877,104.49 L79.723,104.49 L79.723,106.49 Z" id="Fill-16" fill="#ADCEEB" sketch:type="MSShapeGroup" mask="url(#mask-4)"></path>
            <path d="M72.612,84.935 L74.612,84.935 L74.612,82.935 L72.612,82.935 L72.612,84.935 Z" id="Fill-17" fill="#ADCEEB" sketch:type="MSShapeGroup" mask="url(#mask-4)"></path>
            <path d="M72.612,92.12 L74.612,92.12 L74.612,90.12 L72.612,90.12 L72.612,92.12 Z" id="Fill-18" fill="#ADCEEB" sketch:type="MSShapeGroup" mask="url(#mask-4)"></path>
            <path d="M72.612,99.305 L74.612,99.305 L74.612,97.305 L72.612,97.305 L72.612,99.305 Z" id="Fill-19" fill="#ADCEEB" sketch:type="MSShapeGroup" mask="url(#mask-4)"></path>
            <path d="M72.612,106.49 L74.612,106.49 L74.612,104.49 L72.612,104.49 L72.612,106.49 Z" id="Fill-20" fill="#ADCEEB" sketch:type="MSShapeGroup" mask="url(#mask-4)"></path>
            <path d="M79.723,120.65 L135.877,120.65 L135.877,118.65 L79.723,118.65 L79.723,120.65 Z" id="Fill-21" fill="#ADCEEB" sketch:type="MSShapeGroup" mask="url(#mask-4)"></path>
            <path d="M79.723,127.836 L135.877,127.836 L135.877,125.836 L79.723,125.836 L79.723,127.836 Z" id="Fill-22" fill="#ADCEEB" sketch:type="MSShapeGroup" mask="url(#mask-4)"></path>
            <path d="M79.723,135.021 L135.877,135.021 L135.877,133.021 L79.723,133.021 L79.723,135.021 Z" id="Fill-23" fill="#ADCEEB" sketch:type="MSShapeGroup" mask="url(#mask-4)"></path>
            <path d="M79.723,142.206 L135.877,142.206 L135.877,140.206 L79.723,140.206 L79.723,142.206 Z" id="Fill-24" fill="#ADCEEB" sketch:type="MSShapeGroup" mask="url(#mask-4)"></path>
            <path d="M72.612,120.65 L74.612,120.65 L74.612,118.65 L72.612,118.65 L72.612,120.65 Z" id="Fill-25" fill="#ADCEEB" sketch:type="MSShapeGroup" mask="url(#mask-4)"></path>
            <path d="M72.612,127.836 L74.612,127.836 L74.612,125.836 L72.612,125.836 L72.612,127.836 Z" id="Fill-26" fill="#ADCEEB" sketch:type="MSShapeGroup" mask="url(#mask-4)"></path>
            <path d="M72.612,135.021 L74.612,135.021 L74.612,133.021 L72.612,133.021 L72.612,135.021 Z" id="Fill-27" fill="#ADCEEB" sketch:type="MSShapeGroup" mask="url(#mask-4)"></path>
            <path d="M72.612,142.206 L74.612,142.206 L74.612,140.206 L72.612,140.206 L72.612,142.206 Z" id="Fill-28" fill="#ADCEEB" sketch:type="MSShapeGroup" mask="url(#mask-4)"></path>
        </g>
    </g>
</svg>