<?xml version="1.0" encoding="utf-8"?>
<!-- Generator: Adobe Illustrator 18.1.1, SVG Export Plug-In . SVG Version: 6.00 Build 0)  -->
<!DOCTYPE svg PUBLIC "-//W3C//DTD SVG 1.1//EN" "http://www.w3.org/Graphics/SVG/1.1/DTD/svg11.dtd">
<svg version="1.1" id="Layer_1" xmlns="http://www.w3.org/2000/svg" xmlns:xlink="http://www.w3.org/1999/xlink" x="0px" y="0px"
	 viewBox="0 0 100 100" enable-background="new 0 0 100 100" xml:space="preserve">
<g>
	<path fill="none" stroke="#1790CF" stroke-width="2" stroke-miterlimit="10" d="M13.5,50.5c0-20.2,16.4-36.6,36.6-36.6
		c20.2,0,36.6,16.4,36.6,36.6S70.3,87.1,50.1,87.1c-18,0-32.9-12.9-36-30C13.7,54.9,13.5,52.7,13.5,50.5z"/>
	<path fill="none" stroke="#1790CF" stroke-width="2" stroke-linecap="round" stroke-linejoin="round" stroke-miterlimit="10" d="
		M74.9,23.7L72,23.3l-0.3,3.5c0,0,2.7,1,3.2,2.7c0.5,1.7,1,3.9,1,3.9l-1.7,2l1.7,3.4l-1.2,1.5c0,0-1.2-3.2-1.9-3.4
		c-0.7-0.2-1.3-1.3-1.3-1.3l-2,0.8l0.8,1.2l1.7,0.7c0,0,0,0-0.3,0.7c-0.3,0.7,0.7,2.2,1.3,4.7c0.7,2.5-2.5,4.2-3.7,4.2
		c-1.2,0-2.7,0.8-3,2c-0.3,1.2,1.5,1.9,2.2,3.4c0.7,1.5-1.9,2.4-1.9,2.4l-2.9-3.2c0,0,0.2,0.7,0,2c-0.2,1.3,0.7,2.5,2,3
		c1.3,0.5,1.2,2.5,1.2,2.5l-0.5,1.3c0,0,0,1.7,1.5,2.7c1.5,1,4.2,1.7,4.2,1.7s-3.4-0.5-4.7-0.5c-1.3,0-2.2-1-3.7-2.5
		c-1.5-1.5-3.5-4.2-3.5-4.2s1.7,0.2,2.2,0.7c0.5,0.5,2,1.2,2,1.2s-1.5-3.4-1.5-4.6c0-1.2-1.2-4.6-1.2-4.6l-2.2,2.2
		c0,0,0.5-1,0.5-2.4c0-1.3-1.5-2.9-1.5-2.9S57,49,56,49.6c-1,0.7-3.4,2.7-3.5,4.2c-0.2,1.5-1.5,3.2-1.5,3.2s-2.2-4.7-4.2-7.6
		c-2-2.9-3.9-2.5-5.9-2.5c-2,0-4.6-1.5-5.6-2.4c-1-0.8-2-0.3-2-0.3l2,3c0,0,2.4-0.2,3.7,0.3c1.3,0.5,0.5,1.5-0.7,3.2
		c-1.2,1.7-3.7,2.5-5.2,2.9c-1.5,0.3-1.3-1.5-1.3-1.5l-5.4-7.3l2.9,6.6l3.2,3.7l3.9-0.8c0,0-1,3-2.4,4.6c-1.3,1.5-4,4.2-4,4.2
		s0.5,1.5,0.5,3.2c0,1.7,0.2,3.4,0.2,3.4L29.2,70c0,0,0,0.8-0.2,2c-0.2,1.2-1.9,3.7-1.9,3.7s-1.7-1-4.2-3.9
		c-2.5-2.9-2.7-7.3-3.5-10.1c-0.8-2.9-0.8-3.3-2.7-4.6c-1-0.7-2.6-0.2-2.6-0.2"/>
	<path fill="none" stroke="#1790CF" stroke-width="2" stroke-linecap="round" stroke-linejoin="round" stroke-miterlimit="10" d="
		M14.2,44c0,0,1.9-1.8,2.6-2.1c1.2-0.5,2.2-0.6,2.2-0.6l-0.8,1.7l3.2,1.8l0.3-1.9l4.2,0.3c0,0,1.4-0.8,1.7-1.5
		c0.3-0.7,0.2-1.9,0.2-1.9l-2.5,0.8l-1.7-0.4l0.2-1.5h-1.7l0.7,2l-1.2,0.9l-0.7-3.5l-1.4-1.4v3.9l-1-1l-0.7-2.5l-0.7,2L16,40.7
		l-1.1,0.4l1.5-3l0.4-2.4l2.3-2.7l2.6-0.8l1.4-1.3l1-3l2.4-1.2"/>
	
		<line fill="none" stroke="#1790CF" stroke-width="2" stroke-linecap="round" stroke-linejoin="round" stroke-miterlimit="10" x1="25.8" y1="24.8" x2="24" y2="27.9"/>
	<path fill="none" stroke="#1790CF" stroke-width="2" stroke-linecap="round" stroke-linejoin="round" stroke-miterlimit="10" d="
		M27.2,22.1l3.1,0.4L29,24.4l2.9-3.9l2.7,0.2l1.5-1.4l-2.9-0.5l3.4-2l1.3,2l2,0.8l-0.3-2.2h2c0,0,0.7,0.6,0.7,1.1s1.5-1.5,1.5-1.5
		l-1-1.1c0,0,1.2-1.1,1.7-1.1c0.5,0,1.4-0.4,1.4-0.4"/>
	
		<polygon fill="none" stroke="#1790CF" stroke-width="2" stroke-linecap="round" stroke-linejoin="round" stroke-miterlimit="10" points="
		35.2,68.3 33.7,70.4 32.2,70.4 32.6,72.6 33.7,75.1 35.3,74.9 	"/>
	<path fill="none" stroke="#1790CF" stroke-width="2" stroke-linecap="round" stroke-linejoin="round" stroke-miterlimit="10" d="
		M74.9,77.3c0,0,0.7-2-0.3-1.9c-1,0.2-2.9,1.2-4.4,1.9C68.6,78,67,77.8,67,77.8s0.7-0.8,0.8-2.2c0.2-1.3,0-3.4,1.5-4
		c1.5-0.7,2.7,0,3.5-1c0.8-1,2-3,2-3l2.5-1.2l1.9-0.2l-0.7,2.4c0,0,1.2,0.3,1.7-1.2c0.5-1.5,0.5-2,0.5-2l0.9,3.5"/>
	<path fill="none" stroke="#1790CF" stroke-width="2" stroke-linecap="round" stroke-linejoin="round" stroke-miterlimit="10" d="
		M73.6,26.5c0,0,2.9,3.9,3.9,5.9c1,2,1.4,4.9,1.4,4.9l-0.1,3.2L76.3,42v-2l2.3-2.4"/>
	<path fill="none" stroke="#1790CF" stroke-width="2" stroke-linecap="round" stroke-linejoin="round" stroke-miterlimit="10" d="
		M28.5,33.6c0,0-1.5,0.6-1.4,0.8c0.1,0.2,0.3,1.5,0.3,1.5l-1.7-1.4c0,0-1.5,3-0.7,3.2c0.8,0.3,1.8-1,2.5-0.7
		c0.7,0.4,2.2,0.5,2.2-0.3c0-0.8-1.1-0.9-1.3-1.6C28.2,34.5,28.5,33.6,28.5,33.6z"/>
	<path fill="none" stroke="#1790CF" stroke-width="2" stroke-linecap="round" stroke-linejoin="round" stroke-miterlimit="10" d="
		M34.8,32.8l-2.3,1.9l1.7,2.7l-0.3,1.4c0,0,1.7,0.9,2.1,0.7c0.4-0.1,0.4-1-0.2-2.3c-0.6-1.3-1.8-1.9-1.5-2.6
		C34.5,33.8,34.8,32.8,34.8,32.8z"/>
	<path fill="none" stroke="#1790CF" stroke-width="2" stroke-linecap="round" stroke-linejoin="round" stroke-miterlimit="10" d="
		M52.8,56.3c0,0-1.1,0.7-0.5,1.5c0.6,0.8,1.3,0.8,1.2-0.1C53.4,56.8,52.8,56.3,52.8,56.3z"/>
	<path fill="none" stroke="#1790CF" stroke-width="2" stroke-linecap="round" stroke-linejoin="round" stroke-miterlimit="10" d="
		M68.5,49.7c-0.4,0.3-0.3,1.2,0.2,0.9C69.1,50.3,68.5,49.7,68.5,49.7z"/>
	<path fill="none" stroke="#1790CF" stroke-width="2" stroke-linecap="round" stroke-linejoin="round" stroke-miterlimit="10" d="
		M73.4,47.1c0,0.7,0.9,2.1,0.8,0.8C74,46.5,73.4,47.1,73.4,47.1z"/>
	<path fill="none" stroke="#1790CF" stroke-width="2" stroke-linecap="round" stroke-linejoin="round" stroke-miterlimit="10" d="
		M73.7,51.4c-0.1,0.9,0,2.6,0.8,2.8c0.8,0.2,1.4,0.5,1.1,1.1c-0.4,0.6-1.7,1.2-1.1,1.7c0.6,0.5,1.6,2.1,1.9,0.7
		c0.3-1.4,0.6-3.9-0.7-4.3c-1.3-0.5-1.3-1.5-1.5-2.2C73.9,50.3,73.7,51.4,73.7,51.4z"/>
	<path fill="none" stroke="#1790CF" stroke-width="2" stroke-linecap="round" stroke-linejoin="round" stroke-miterlimit="10" d="
		M71.8,57.7l-2.4,2.9l-1.1-0.5c0,0,0.4,3.9,2,3.2c1.7-0.7,2.2-2.5,2.3-3.4c0.1-1-0.1-1.2,0.3-1.5c0.4-0.4-0.1-1.3-0.5-1.2
		S72.1,57.2,71.8,57.7z"/>
	<path fill="none" stroke="#1790CF" stroke-width="2" stroke-linecap="round" stroke-linejoin="round" stroke-miterlimit="10" d="
		M79.2,61.8c0,0,1.3-1.2,2.1-0.8c0.8,0.4,1.1,1,1.1,1l1.4-0.8c0,0-1.5,1.6-1.5,2.1c0.1,0.6-0.3,0.2-1.1,0.4c-0.8,0.2-1-0.8-1.7-1.1
		c-0.7-0.2-1.4-0.5-1.4-1.2c-0.1-0.7,0.7-1.3,0.9-0.8C79.2,61.3,79.2,61.8,79.2,61.8z"/>
	<path fill="none" stroke="#1790CF" stroke-width="2" stroke-linecap="round" stroke-linejoin="round" stroke-miterlimit="10" d="
		M75.8,64.4c0,0-0.8,0.9-1.1,0.9c-0.3,0-0.5,0.8-0.5,0.8"/>
	<path fill="none" stroke="#1790CF" stroke-width="2" stroke-linecap="round" stroke-linejoin="round" stroke-miterlimit="10" d="
		M75.9,60.1c0,0-0.5,0.6-1.2,0.7c-0.8,0.1-0.6,0-1.1,0.9c-0.5,0.9-0.6,2.3-0.6,2.3l1.7-0.2c0,0-0.6-1-0.5-1.8
		c0.1-0.8-0.1-1.4-0.1-1.4"/>
</g>
</svg>
