<?xml version="1.0" encoding="utf-8"?>
<!-- Generator: Adobe Illustrator 18.1.1, SVG Export Plug-In . SVG Version: 6.00 Build 0)  -->
<!DOCTYPE svg PUBLIC "-//W3C//DTD SVG 1.1//EN" "http://www.w3.org/Graphics/SVG/1.1/DTD/svg11.dtd">
<svg version="1.1" id="Layer_1" xmlns="http://www.w3.org/2000/svg" xmlns:xlink="http://www.w3.org/1999/xlink" x="0px" y="0px"
	 viewBox="0 0 250 200" enable-background="new 0 0 250 200" xml:space="preserve">
<g>
	<path fill="#1790CF" d="M234.6,27.1H127c-1.7,0-3,1.3-3,3v71.2l9.7-9.7c4.1-4.1,10.9-4.1,15,0v0c4.1,4.1,4.1,10.9,0,15l-11.6,11.6
		h97.5c1.7,0,3-1.3,3-3v-85C237.6,28.5,236.3,27.1,234.6,27.1z"/>
	<path fill="#1790CF" d="M83,138.3l-16.8-16.8c-1.1-1.1-3-1.1-4.1,0l-16.7,16.7l12,12c4.1,4.1,4.1,10.9,0,15
		c-0.7,0.7-1.4,1.2-2.1,1.6c1.1,0.7,2.6,0.7,3.6-0.3L83,142.4C84.1,141.3,84.1,139.5,83,138.3z"/>
	<path fill="none" stroke="#1790CF" stroke-width="3" stroke-linecap="round" stroke-miterlimit="10" d="M95.8,128.6V170
		c0,3.9-2.6,6.5-5.7,6.5H43.6c-3.2,0-5.7-2.6-5.7-5.7v-7.2"/>
	
		<line fill="none" stroke="#FFFFFF" stroke-width="3" stroke-linecap="round" stroke-miterlimit="10" x1="148.6" y1="90.4" x2="188.6" y2="50.4"/>
	<path fill="none" stroke="#1790CF" stroke-width="3" stroke-linecap="round" stroke-miterlimit="10" d="M38,125.4l-3.4,3.4
		L57,151.1c4.1,4.1,4.1,10.9,0,15c-4.1,4.1-10.9,4.1-15,0l-29.3-29.3c-2.2-2.2-3.2-5.2-3.1-8.1c-0.2-2.9,0.8-5.8,3.1-8.1l19.4-19.4
		c3.7-3.7,7.5-3.2,12.1-3.2l38.9,0c5.9,0,11.7-0.8,15.9,3.4l12.4,12.4l22.3-22.3c4.1-4.1,10.9-4.1,15,0v0c4.1,4.1,4.1,10.9,0,15
		l-29.3,29.3c-2.2,2.2-5.2,3.2-8.1,3.1c-2.9,0.2-5.8-0.8-8.1-3.1l-7.3-7.3"/>
	<path fill="none" stroke="#1790CF" stroke-width="3" stroke-miterlimit="10" d="M64.6,88.6c-12.1,0-21.8-9.5-21.8-21.3
		s9.8-21.3,21.8-21.3c12.1,0,21.8,9.5,21.8,21.3C86.5,79.1,76.7,88.6,64.6,88.6z"/>
</g>
</svg>
