<svg id="Layer_1" data-name="Layer 1" xmlns="http://www.w3.org/2000/svg" xmlns:xlink="http://www.w3.org/1999/xlink" viewBox="0 0 743.29 252.68"><defs><style>.cls-1{fill:#b33b85;}.cls-2{fill:url(#New_Gradient_Swatch);}.cls-3{fill:url(#New_Gradient_Swatch-2);}.cls-4{fill:url(#New_Gradient_Swatch-3);}</style><linearGradient id="New_Gradient_Swatch" x1="22.88" y1="149.91" x2="278.89" y2="149.91" gradientUnits="userSpaceOnUse"><stop offset="0" stop-color="#151d5f"/><stop offset="0.07" stop-color="#2a2164"/><stop offset="0.21" stop-color="#54296e"/><stop offset="0.36" stop-color="#762f76"/><stop offset="0.52" stop-color="#91357d"/><stop offset="0.67" stop-color="#a43881"/><stop offset="0.83" stop-color="#af3a84"/><stop offset="1" stop-color="#b33b85"/></linearGradient><linearGradient id="New_Gradient_Swatch-2" x1="59.27" y1="149.9" x2="242.49" y2="149.9" xlink:href="#New_Gradient_Swatch"/><linearGradient id="New_Gradient_Swatch-3" x1="97.28" y1="149.91" x2="223.1" y2="149.91" xlink:href="#New_Gradient_Swatch"/></defs><title>MozFest-2016-Wordmark</title><path class="cls-1" d="M335.57,70.93a8.52,8.52,0,0,1,1.16,3.39,11.48,11.48,0,0,1,8.14-3.39,9,9,0,0,1,6.8,2.73A12.22,12.22,0,0,1,353,75.29c3-3.13,5.78-4.36,9.44-4.36A10.41,10.41,0,0,1,369,73c1.89,1.63,2.49,3.6,2.49,8.17v23.75H363V82.86c0-4-.47-4.76-2.74-4.76-1.64,0-3.93,1.12-5.81,2.81v24h-8.28V83.17c0-4.16-.61-5.14-3-5.14a9.19,9.19,0,0,0-5.73,2.54v24.35h-8.54V81.62c0-4.82-.34-6.9-1.25-8.55l7.9-2.14h0Zm67.19,5c2.67,3.13,3.86,6.78,3.86,12.2,0,5.74-1.32,9.66-4.19,12.91-2.54,2.88-5.87,4.64-11,4.64-9.07,0-15-6.79-15-17.29s6-17.49,15-17.49a14,14,0,0,1,11.34,5h0ZM387,80.7a23.8,23.8,0,0,0-.91,7.45c0,3.84.39,6.73,1.11,8.42a4.84,4.84,0,0,0,4.43,2.73c3.79,0,5.42-3.39,5.42-11.29,0-4.49-.59-7.44-1.76-8.94A4.78,4.78,0,0,0,387,80.71h0Zm47.71-9.18v6L420,98.85h15.33l-2.08,6.08H408.65V99.51l15.7-21.86H410V71.52h24.79Zm14.78-9.21a5.37,5.37,0,1,1-10.75,0,5.48,5.48,0,0,1,5.49-5.42A5.33,5.33,0,0,1,449.52,62.31Zm-1,8.42v34.19h-8.73V72.1l8.74-1.37h0Zm15.92-5.41v26c0,5.75.08,6.53,0.59,7.44a2,2,0,0,0,1.76.91,3,3,0,0,0,1-.13l1.49,5.23a14.63,14.63,0,0,1-5.2.91c-3.72,0-6.73-1.76-7.77-4.56-0.65-1.69-.8-2.75-0.8-7.51V68.69a84.88,84.88,0,0,0-.44-10l8.93-2a51.26,51.26,0,0,1,.45,8.69h0Zm18.13,0v26c0,5.75.08,6.53,0.61,7.44a1.93,1.93,0,0,0,1.75.91,3,3,0,0,0,1-.13l1.49,5.23a14.75,14.75,0,0,1-5.22.91c-3.72,0-6.73-1.76-7.77-4.56-0.67-1.69-.78-2.75-0.78-7.51V68.69a85.88,85.88,0,0,0-.47-10l8.93-2a47,47,0,0,1,.47,8.69h0Zm13.71,7.43a22.63,22.63,0,0,1,9.12-1.95c5.63,0,9.47,2.07,10.79,5.8,0.42,1.37.63,2.41,0.59,6l-0.21,11.22v0.59c0,3.59.59,5,3.15,6.85l-4.65,5.36a9.31,9.31,0,0,1-4.71-4,14.05,14.05,0,0,1-2,1.75,11.46,11.46,0,0,1-6.73,1.84c-7.43,0-11.48-3.79-11.48-10.43,0-7.85,5.42-11.5,16-11.5a17.66,17.66,0,0,1,2,.08V83c0-3.73-.72-5-3.94-5-2.77,0-6.06,1.36-9.64,3.78l-3.73-6.26a33.67,33.67,0,0,1,5.44-2.74h0ZM507.6,90.31c-6.05,0-8.17,1.1-8.17,5.09,0,2.6,1.65,4.36,3.86,4.36a6.26,6.26,0,0,0,4.55-2.28L508,90.3h-0.4Z" transform="translate(-22.88 -23.57)"/><path class="cls-1" d="M328.57,122.69h53.11l-2.26,15.92H348.29V161h24.94v16.06H348.29v43.25H328.58V122.7h0Zm106.1,78.47L442,212.43c-8.32,6.77-17.05,10-27.2,10-20.71,0-34.09-14.65-34.09-37.34,0-12.95,2.67-21.54,9-28.59,5.92-6.62,13.1-9.72,22.68-9.72,8.31,0,16.21,2.82,20.85,7.62,6.62,6.76,9.58,16.48,9.58,31.55v4.36h-41.7v0.57c0,11.13,5.5,17.48,15.22,17.48,6.47,0,12.53-2.4,18.31-7.19h0Zm-33.24-24.65h21.83v-0.85c0-5.35-.56-8.17-2.24-10.85-1.84-2.82-4.51-4.23-8.32-4.23-7.18,0-11.27,5.63-11.27,15.64v0.28h0ZM505.68,153l-6.2,12.68c-7.18-3.66-12.4-5.2-17.75-5.2-5.5,0-9.16,2.82-9.16,7,0,3.66,2.39,5.64,9,7.32l8.73,2.26c8.87,2.26,11.83,4.93,14.37,8.18a19.08,19.08,0,0,1,3.94,12.25c0,14.94-12.4,25.08-30.85,25.08-8.88,0-18.6-2.82-29.16-8.32l6.76-13.81c5.78,3.53,15.78,8.18,24,8.18,5.35,0,9.58-3.52,9.58-8.17,0-4.93-3.52-7.47-11.13-8.88L469.32,190c-4.79-.85-10.71-4.22-13.24-7.32s-4.09-8.31-4.09-13c0-14.08,11.13-23.53,27.89-23.53,11.55,0,19.16,3.52,25.78,6.76h0Zm52.14-4.93L553,160.59H540.9v36.76c0,9.16,1.69,11.55,8.18,11.55,1.69,0,3.39-.42,6.76-1.41l2.39,11.27A39.83,39.83,0,0,1,542.87,222c-9.58,0-17.33-4.23-19.44-10.57-1.13-3.1-1.27-4.5-1.27-11.13V160.59H515V148.34h7.19c0-7,0-11.84.71-17.19L542,126.36a210.62,210.62,0,0,0-1.13,21.69h16.92Zm15.49-31.42a11.52,11.52,0,0,1,11.42,11.7,11.62,11.62,0,1,1-23.25,0,11.79,11.79,0,0,1,11.84-11.7h0Zm-9.72,32.84,18.88-3v73.82H563.59V149.46Zm26.77-.14,19.3-2.4,10.43,32.54c1.54,4.79,3.66,12.68,4.65,17.33a121.32,121.32,0,0,1,4.36-18.31l9.72-30.28h19.72L632.2,220.33H616.56l-26.21-71h0Zm73.11,7.46a53.49,53.49,0,0,1,11.7-5.92,48.89,48.89,0,0,1,19.72-4.22c12.11,0,20.43,4.51,23.24,12.54,1,3,1.27,5.21,1.27,13L719,196.37v1.27c0,7.74,1.27,10.71,6.76,14.79l-10,11.55c-4.36-1.83-8.31-5.07-10.14-8.74a31.75,31.75,0,0,1-4.37,3.81c-3.52,2.53-8.59,3.94-14.51,3.94-16.06,0-24.79-8.18-24.79-22.55,0-16.9,11.69-24.79,34.66-24.79,1.4,0,2.24,0,4.22.14v-3c0-8-1.54-10.71-8.45-10.71-6.05,0-13.1,3-20.85,8.18l-8-13.54h0Zm37,32h-0.85c-13.1,0-17.6,2.4-17.6,11,0,5.64,3.52,9.44,8.31,9.44,3.52,0,7-1.84,9.86-4.93Zm54.25-72.7c0.7,3.94,1,8.59,1,18.74V191c0,12.4.14,14.09,1.27,16.06a4.31,4.31,0,0,0,3.8,2,6.38,6.38,0,0,0,2.12-.28L766.17,220a31.67,31.67,0,0,1-11.27,2c-8,0-14.51-3.81-16.77-9.86-1.41-3.67-1.69-5.92-1.69-16.21V142.14a184.67,184.67,0,0,0-1-21.71Z" transform="translate(-22.88 -23.57)"/><path class="cls-2" d="M151,276.24a130.44,130.44,0,0,1-19.14-1.42l-2.16-.32-1.86-4.41c-6-14.06-20.58-23.51-36.32-23.51A38.26,38.26,0,0,0,78.15,249l-4.51,1.69-1.73-1.34a126.64,126.64,0,0,1-24-24.34l-1.3-1.73,1.84-4.45c7.83-18.9-1.13-41.16-20-49.61l-4.43-2L23.79,165a124.44,124.44,0,0,1,.53-33.95L24.65,129l4.46-1.85c19.08-7.9,28.69-29.88,21.43-49l-1.7-4.47L50.18,72A126.58,126.58,0,0,1,74.83,48.27L76.59,47l4.51,1.82a38.27,38.27,0,0,0,14.39,2.78c15.51,0,29.59-8.82,35.87-22.48l2-4.38,2.17-.26a129.2,129.2,0,0,1,34.4.53l2.16,0.32,1.86,4.4c6,14.06,20.57,23.51,36.31,23.51a38.24,38.24,0,0,0,13.33-2.38l4.55-1.66,1.71,1.32a126.66,126.66,0,0,1,24,24.32l1.3,1.73L253.31,81c-7.83,18.91,1.12,41.16,20,49.6l4.43,2,0.26,2.14a123.93,123.93,0,0,1-.53,33.95l-0.33,2.13-4.46,1.85c-19.08,7.9-28.69,29.89-21.42,49l1.71,4.47-1.35,1.7a126.72,126.72,0,0,1-24.66,23.68l-1.76,1.28L220.65,251a38.21,38.21,0,0,0-14.37-2.77c-15.51,0-29.59,8.82-35.87,22.48l-2,4.38-2.17.26A129.07,129.07,0,0,1,151,276.24Zm-15.82-8.71a121.64,121.64,0,0,0,28,.42l0.2-.42c7.54-16.39,24.4-27,43-27a46.08,46.08,0,0,1,17.32,3.34l0.45,0.18a119,119,0,0,0,20.06-19.26L244,224.4c-8.72-22.94,2.8-49.31,25.69-58.79l0.41-.17a116.28,116.28,0,0,0,.43-27.62l-0.44-.2c-22.6-10.13-33.34-36.82-23.95-59.49l0.18-.44a118.9,118.9,0,0,0-19.53-19.79l-0.44.16a46.08,46.08,0,0,1-16.05,2.86c-18.83,0-36.31-11.34-43.49-28.22l-0.17-.41a121.3,121.3,0,0,0-28-.43l-0.2.43c-7.53,16.39-24.39,27-42.95,27a46.08,46.08,0,0,1-17.34-3.35l-0.44-.18A118.82,118.82,0,0,0,57.66,75l0.16,0.41c8.72,22.93-2.81,49.3-25.7,58.77l-0.41.17A116.85,116.85,0,0,0,31.27,162l0.43,0.19c22.6,10.14,33.34,36.83,24,59.5l-0.18.44A118.85,118.85,0,0,0,75,241.92l0.4-.15a46.15,46.15,0,0,1,16.08-2.87c18.84,0,36.32,11.34,43.5,28.23Z" transform="translate(-22.88 -23.57)"/><path class="cls-3" d="M150.88,240.33c-50.52,0-91.61-40.57-91.61-90.43s41.1-90.08,91.61-90.42C174.09,59.32,198,68.84,215.67,86a88.35,88.35,0,0,1,26.83,63.94C242.49,199.76,201.4,240.33,150.88,240.33Zm0-173.17C104.66,67.16,67,104.28,67,149.9s37.61,82.75,83.84,82.75,83.83-37.12,83.83-82.75a81.67,81.67,0,0,0-24.55-58.51A83.83,83.83,0,0,0,150.88,67.16Z" transform="translate(-22.88 -23.57)"/><path class="cls-4" d="M223.1,150.24l-20.85-33h-31L153,88.5H117.4l-20.12,33L115,149.93,97.28,179l20.14,32.28H153l18.61-28.79h30.59Zm-85.58,28.44,13-22,14.05,22.53-13.68,21.16Zm13-79.65,13.84,21.88-10.71,17.55-2.81,4.34-13.36-21.69ZM171.64,125h20.8l-12.65,21.43H157.92l2.36-3.86Zm10.55,25h0ZM131,125.28l12.81,20.79h-22l-13-20.79H131Zm12.26,28.47-12.65,21.43H108.72l13.08-21.43h21.45Zm14.86,0.32h22.07L193,174.85H171.25Zm42,17.53L186.71,149.9l13-22.07L213.9,150.2ZM121.79,96.17h21.45L130.59,117.6H108.72Zm-13,86.68H131l12.8,20.79h-22Z" transform="translate(-22.88 -23.57)"/></svg>