<svg width="77" height="77" viewBox="0 0 77 77" xmlns="http://www.w3.org/2000/svg">
  <path
      d="M45 64.321v-9.214c0-.448-.144-.816-.432-1.104-.288-.288-.656-.432-1.104-.432h-9.214c-.448 0-.816.144-1.104.432-.288.288-.432.656-.432 1.104v9.214c0 .448.144.816.432 1.104.288.288.656.432 1.104.432h9.214c.448 0 .816-.144 1.104-.432.288-.288.432-.656.432-1.104zm12.286-35.25c0-2.815-.888-5.423-2.664-7.823-1.776-2.4-3.991-4.255-6.647-5.567-2.656-1.312-5.375-1.968-8.158-1.968-7.775 0-13.709 3.407-17.805 10.222-.48.768-.352 1.44.384 2.016l6.335 4.799c.224.192.528.288.912.288.512 0 .912-.192 1.2-.576 1.696-2.176 3.071-3.647 4.127-4.415 1.088-.768 2.464-1.152 4.127-1.152 1.536 0 2.903.416 4.103 1.248 1.2.832 1.8 1.776 1.8 2.831 0 1.216-.32 2.192-.96 2.927-.64.736-1.728 1.456-3.263 2.16-2.016.896-3.863 2.28-5.543 4.151-1.68 1.872-2.52 3.879-2.52 6.023v1.728c0 .448.144.816.432 1.104.288.288.656.432 1.104.432h9.214c.448 0 .816-.144 1.104-.432.288-.288.432-.656.432-1.104 0-.608.344-1.4 1.032-2.376.688-.976 1.56-1.768 2.616-2.376 1.024-.576 1.808-1.032 2.352-1.368.544-.336 1.28-.896 2.208-1.68.928-.784 1.64-1.552 2.136-2.304.496-.752.944-1.72 1.344-2.903.4-1.184.6-2.48.6-3.887zm18.429 9.214c0 6.687-1.648 12.854-4.943 18.501-3.295 5.647-7.767 10.118-13.414 13.414-5.647 3.295-11.814 4.943-18.501 4.943-6.687 0-12.854-1.648-18.501-4.943-5.647-3.295-10.118-7.767-13.414-13.414-3.295-5.647-4.943-11.814-4.943-18.501 0-6.687 1.648-12.854 4.943-18.501 3.295-5.647 7.767-10.118 13.414-13.414 5.647-3.295 11.814-4.943 18.501-4.943 6.687 0 12.854 1.648 18.501 4.943 5.647 3.295 10.118 7.767 13.414 13.414 3.295 5.647 4.943 11.814 4.943 18.501z"
      stroke="#F39EB1" stroke-width="2.5" fill="#fff"/>
</svg>
