<svg width="129" height="74" viewBox="0 0 129 74" xmlns="http://www.w3.org/2000/svg">
  <g transform="translate(-2 1)" fill="none">
    <path
        d="M31.78 41.198c0 2.986-2.599 5.079-4.643 3.516v-16.405 39.196c0 2.269-1.872 4.101-4.196 4.101s-4.196-1.832-4.196-4.101v-22.791h-2.399v22.791c0 2.269-1.871 4.101-4.198 4.101-2.323 0-4.194-1.833-4.194-4.101v-39.196 12.889 3.516c-1.678 1.08-4.643.114-4.643-3.516v-20.066c0-2.228.992-3.162 3.136-3.162h21.089c2.781 0 4.247.447 4.247 3.162v20.066h-.002zm-14.234-26.334c-4.099 0-7.405-3.23-7.405-7.236 0-4.005 3.306-7.236 7.405-7.236 4.097 0 7.402 3.23 7.402 7.236-.001 4.005-3.305 7.236-7.402 7.236zm111.803 26.334c0 2.986-2.6 5.079-4.643 3.516v-16.405 39.196c0 2.269-1.871 4.101-4.195 4.101-2.325 0-4.197-1.833-4.197-4.101v-22.791h-2.399v22.791c0 2.269-1.871 4.101-4.197 4.101-2.323 0-4.195-1.833-4.195-4.101v-39.196 12.889 3.516c-1.677 1.08-4.643.114-4.643-3.516v-20.066c0-2.228.992-3.162 3.134-3.162h21.09c2.781 0 4.247.447 4.247 3.162v20.066h-.002zm-14.234-26.334c-4.099 0-7.405-3.23-7.405-7.236 0-4.005 3.306-7.236 7.405-7.236 4.097 0 7.402 3.23 7.402 7.236-.001 4.005-3.305 7.236-7.402 7.236z"
        stroke="#F39EB1" stroke-width="2.549" fill="#fff"/>
    <path d="M43.5 29.267h46.13" stroke="#F396AB" stroke-width="2.549" fill="#F396AB"/>
    <ellipse fill="#F396AB" cx="90.128" cy="29.352" rx="2.987" ry="2.996"/>
    <path d="M91.285 40.171h-47.786" stroke="#F39EB1" stroke-width="2.549" fill="#F396AB"/>
    <ellipse fill="#F396AB" cx="43.997" cy="40.171" rx="2.986" ry="2.995"/>
  </g>
</svg>
