<svg width="292" height="100" viewBox="0 0 292 100" xmlns="http://www.w3.org/2000/svg">
  <defs>
    <radialGradient cx="20.357%" cy="19.758%" fx="20.357%" fy="19.758%" r="30.242%" id="a">
      <stop stop-color="#ECB4C0" offset="0%"/>
      <stop stop-color="#F8EDEF" stop-opacity="0" offset="100%"/>
    </radialGradient>
  </defs>
  <g fill="none">
    <path
        d="M147.334 17c18.41 0 33.334 14.923 33.334 33.334 0 18.41-14.924 33.333-33.334 33.333-18.41 0-33.334-14.923-33.334-33.333 0-18.411 14.924-33.334 33.334-33.334z"
        stroke="url(#a)" stroke-width="100" stroke-dasharray="2.013,2.013"/>
    <path
        d="M162.937 50.804c0 25.298-7.671 45.805-17.133 45.805s-17.133-20.507-17.133-45.805c0-25.297 7.671-45.804 17.133-45.804s17.133 20.507 17.133 45.804zm-17.132 17.133c-25.298 0-45.805-7.67-45.805-17.133 0-9.461 20.507-17.133 45.805-17.133 25.297 0 45.804 7.672 45.804 17.133 0 9.463-20.507 17.133-45.804 17.133zm-12.115-5.018c-17.888-17.889-26.965-37.812-20.274-44.504 6.691-6.69 26.616 2.386 44.504 20.274 17.887 17.888 26.963 37.812 20.274 44.504-6.692 6.69-26.616-2.387-44.504-20.274zm44.504-44.504c6.69 6.691-2.386 26.615-20.274 44.504-17.888 17.887-37.812 26.963-44.504 20.274-6.69-6.692 2.387-26.616 20.274-44.504 17.888-17.888 37.812-26.965 44.504-20.274z"
        stroke="#F39EB1"/>
    <path fill="#F396AB" d="M192 50h100v1h-100zm-192 0h100v1h-100z"/>
    <g transform="translate(136 37)">
      <rect stroke="#D54361" stroke-width="1.5" fill="#fff" x="10" y="16" width="12" height="11" rx="1"/>
      <rect stroke="#D54361" stroke-width="1.5" fill="#fff" y="5" width="7" height="22" rx="1"/>
      <rect stroke="#D54361" stroke-width="1.5" fill="#fff" x="6" y="11" width="11" height="16" rx="1"/>
      <rect stroke="#D54361" stroke-width="1.5" fill="#fff" x="6" y="20" width="7" height="7" rx="1"/>
      <path fill="#D54361" d="M11 5h1v7h-1z"/>
      <path stroke="#D54361" stroke-width="1.5" fill="#fff" d="M11 0h8v6h-8z"/>
    </g>
  </g>
</svg>
