<svg width="86" height="66" viewBox="0 0 86 66" xmlns="http://www.w3.org/2000/svg">
  <path
      d="M74.648 17.487c.032.453.049 1.133.049 2.039 0 4.208-.615 8.407-1.845 12.598-1.23 4.191-3.099 8.213-5.607 12.064-2.508 3.852-5.494 7.258-8.957 10.22-3.463 2.962-7.638 5.324-12.526 7.088-4.887 1.764-10.114 2.646-15.681 2.646-8.771 0-16.798-2.347-24.08-7.04 1.133.129 2.395.194 3.787.194 7.282 0 13.772-2.233 19.468-6.7-3.398-.065-6.441-1.109-9.127-3.131-2.686-2.023-4.531-4.604-5.535-7.744 1.068.162 2.055.243 2.961.243 1.392 0 2.767-.178 4.127-.534-3.625-.744-6.627-2.549-9.006-5.413-2.379-2.864-3.568-6.19-3.568-9.977v-.194c2.201 1.23 4.564 1.893 7.088 1.991-2.136-1.424-3.835-3.285-5.098-5.583-1.262-2.298-1.893-4.79-1.893-7.477 0-2.848.712-5.486 2.136-7.914 3.916 4.823 8.682 8.682 14.298 11.579 5.616 2.897 11.627 4.507 18.036 4.831-.259-1.23-.388-2.427-.388-3.593 0-4.337 1.529-8.035 4.588-11.093 3.059-3.059 6.756-4.588 11.093-4.588 4.531 0 8.35 1.651 11.458 4.952 3.528-.68 6.845-1.942 9.953-3.787-1.198 3.722-4.005 7.09-4.005 7.09s3.131.418 6.141-.876c-2.169 3.172-4.79 5.874-7.865 8.108z"
      stroke="#F396AB" stroke-width="2.5" fill="#fff"/>
</svg>
