<?xml version="1.0" encoding="utf-8"?>
<!-- Generator: Adobe Illustrator 18.1.1, SVG Export Plug-In . SVG Version: 6.00 Build 0)  -->
<!DOCTYPE svg PUBLIC "-//W3C//DTD SVG 1.1//EN" "http://www.w3.org/Graphics/SVG/1.1/DTD/svg11.dtd">
<svg version="1.1" id="Layer_1" xmlns:sketch="http://www.bohemiancoding.com/sketch/ns"
	 xmlns="http://www.w3.org/2000/svg" xmlns:xlink="http://www.w3.org/1999/xlink" x="0px" y="0px" viewBox="-152.7 156 201.7 189"
	 enable-background="new -152.7 156 201.7 189" xml:space="preserve">
<title>about-illustration</title>
<desc>Created with Sketch.</desc>
<g id="Page-1" sketch:type="MSPage">
	<g id="About-Page" transform="translate(-351.000000, -732.000000)" sketch:type="MSArtboardGroup">
		<g id="about-illustration" transform="translate(351.000000, 733.000000)" sketch:type="MSLayerGroup">
			<g id="Group-3-_x2B_-Group" transform="translate(126.130717, 91.000589)" sketch:type="MSShapeGroup">
				<g id="Group-3" transform="translate(0.000000, 28.109986)">
					<path id="Shape" fill="none" stroke="#BBD8EF" stroke-width="2.3952" d="M-90.5,195.8l1.3-8.6l-5-2c-0.2-3-0.9-5.8-2.1-8.5
						l3.5-4.1l-5.2-7l-5,2.2c-2.2-1.9-4.6-3.4-7.4-4.4l-0.4-5.5l-8.6-1.3l-2.1,5.2c-2.9,0.2-5.6,1-8.2,2.1l-4.3-3.6l-7,5.2l2.2,5.2
						c-1.8,2.1-3.3,4.5-4.3,7.2l-5.6,0.5l-1.3,8.6l5.3,2.1c0.2,2.9,0.9,5.6,2,8.2l-3.7,4.3l5.1,7l5.1-2.2c2.1,1.8,4.5,3.3,7.2,4.4
						l0.5,5.6l8.6,1.3l2-5.1c2.9-0.2,5.7-0.9,8.3-2.1l4.2,3.5l7-5.2l-2.1-5c1.9-2.2,3.4-4.7,4.5-7.5L-90.5,195.8L-90.5,195.8z"/>
					<path id="Shape_1_" fill="none" stroke="#BBD8EF" stroke-width="2.3952" d="M-117,169.2c9.6,1.5,16.3,10.5,14.8,20.2
						c-1.4,9.7-10.4,16.4-20.1,14.9c-9.7-1.4-16.3-10.5-14.8-20.2C-135.6,174.4-126.7,167.7-117,169.2L-117,169.2z"/>
				</g>
				<g id="Group" transform="translate(38.526269, 0.608149)">
					<path id="Shape_2_" fill="none" stroke="#BBD8EF" stroke-width="2.3952" d="M-117.2,173.7l-0.7-4.8l-3-0.3
						c-0.6-1.5-1.3-2.8-2.3-4l1.2-2.9l-3.7-2.9l-2.3,2c-1.4-0.6-2.8-1-4.4-1.2l-1.1-2.9l-4.6,0.7l-0.2,3.1c-1.5,0.6-2.8,1.4-4,2.5
						l-2.7-1.2l-2.8,3.9l1.9,2.3c-0.6,1.5-1,3.1-1.1,4.7l-2.7,1.1l0.7,4.8l2.9,0.2c0.6,1.5,1.4,2.9,2.4,4.2l-1.1,2.8l3.7,2.9l2.2-2
						c1.4,0.6,2.9,1,4.5,1.1l1.1,2.9l4.6-0.7l0.2-3.1c1.4-0.6,2.7-1.4,3.9-2.5l2.8,1.2l2.8-3.9l-2-2.4c0.6-1.4,1-3,1.1-4.5
						L-117.2,173.7z"/>
					<path id="Shape_3_" fill="none" stroke="#BBD8EF" stroke-width="2.3952" d="M-134.1,169.7c-2.2,0.3-3.7,2.4-3.3,4.7
						c0.3,2.3,2.3,3.8,4.5,3.5c2.2-0.3,3.7-2.4,3.3-4.7C-129.9,170.9-131.9,169.4-134.1,169.7L-134.1,169.7z"/>
				</g>
			</g>
			<g id="Group_1_" transform="translate(136.940884, 0.000000)" sketch:type="MSShapeGroup">
				<g id="Shape_4_" transform="translate(18.218881, 51.800335)">
					<path fill="#AFDBC0" stroke="#BBD8EF" stroke-width="2.3952" d="M-148.4,156.5l0,53.2"/>
				</g>
				<g>
					<path id="Shape_5_" fill="none" stroke="#BBD8EF" stroke-width="2.3952" d="M-130.5,156.2c-10.6,0-19.2,8.8-19.2,19.6
						c0,5.5,3.5,14.2,7.8,19.6c6.6,8.5,11.4,14.5,11.4,14.5s5.2-6.6,10.3-13.2c5-6.6,8.9-15.5,8.9-20.9
						C-111.4,165-120,156.2-130.5,156.2z"/>
					<ellipse id="Oval" fill="none" stroke="#BBD8EF" stroke-width="2.3952" cx="-130.5" cy="175.7" rx="9.7" ry="9.9"/>
				</g>
			</g>
			<g id="noun_43353_cc" transform="translate(128.143713, 57.540373)" sketch:type="MSShapeGroup">
				<path id="Shape_6_" fill="#FFFFFF" d="M-92.2,168.2l-28.2-11.5c-0.2-0.1-0.4-0.1-0.7,0l-28.1,11.5c-0.3,0.1-0.5,0.5-0.5,0.8
					c0,0.4,0.2,0.7,0.6,0.8l11.4,4.3v8.8c0,4.3,8.3,8.4,17.1,8.4c8.8,0,17.1-4.1,17.1-8.4v-8.7l6.2-2.4v6.8c-1,0.4-1.8,1.3-1.8,2.5
					c0,1,0.6,1.8,1.3,2.3l-1.2,1.9c-0.2,0.3-0.2,0.6,0,0.9c0.2,0.3,0.4,0.5,0.8,0.5h3.6c0,0,0,0,0,0c0.5,0,0.9-0.4,0.9-0.9
					c0-0.3-0.1-0.5-0.3-0.7l-1.1-1.8c0.8-0.5,1.4-1.3,1.4-2.3c0-1.2-0.8-2.2-1.8-2.5v-7.5l3.5-1.4c0.3-0.1,0.6-0.5,0.6-0.8
					C-91.6,168.7-91.9,168.4-92.2,168.2z"/>
				<path id="Shape-3" fill="#BBD8EF" d="M-92.2,168.2l-28.2-11.5c-0.2-0.1-0.4-0.1-0.7,0l-28.1,11.5c-0.3,0.1-0.5,0.5-0.5,0.8
					c0,0.4,0.2,0.7,0.6,0.8l11.4,4.3v8.8c0,4.3,8.3,8.4,17.1,8.4c8.8,0,17.1-4.1,17.1-8.4v-8.7l6.2-2.4v6.8c-1,0.4-1.8,1.3-1.8,2.5
					c0,1,0.6,1.8,1.3,2.3l-1.2,1.9c-0.2,0.3-0.2,0.6,0,0.9c0.2,0.3,0.4,0.5,0.8,0.5h3.6c0,0,0,0,0,0c0.5,0,0.9-0.4,0.9-0.9
					c0-0.3-0.1-0.5-0.3-0.7l-1.1-1.8c0.8-0.5,1.4-1.3,1.4-2.3c0-1.2-0.8-2.2-1.8-2.5v-7.5l3.5-1.4c0.3-0.1,0.6-0.5,0.6-0.8
					C-91.6,168.7-91.9,168.4-92.2,168.2L-92.2,168.2z M-105.7,183c0,2.5-6.4,6.4-15,6.4c-8.6,0-15-3.9-15-6.4V175l15,5.7
					c0.1,0,0.2,0.1,0.3,0.1c0.1,0,0.2,0,0.3-0.1l14.4-5.6V183L-105.7,183z M-95.6,181.2c0,0.5-0.4,0.9-0.9,0.9
					c-0.5,0-0.9-0.4-0.9-0.9s0.4-0.9,0.9-0.9C-96,180.3-95.6,180.7-95.6,181.2L-95.6,181.2z M-120.4,178.4l-24.7-9.4l24.4-10
					l24.4,10L-120.4,178.4L-120.4,178.4z"/>
			</g>
			<path id="_xF08A_" sketch:type="MSShapeGroup" fill="#BBD8EF" d="M-80.4,170.2c-0.4-1.1-0.9-2.1-1.5-2.7
				c-0.6-0.7-1.4-1.2-2.3-1.6c-0.9-0.4-1.8-0.7-2.6-0.9c-0.8-0.1-1.8-0.2-2.7-0.2s-2,0.2-3.1,0.7s-2.1,1.1-3.1,1.8s-1.7,1.4-2.4,2
				s-1.2,1.2-1.7,1.7c-0.3,0.4-0.8,0.6-1.4,0.6s-1-0.2-1.4-0.6c-0.4-0.5-1-1.1-1.7-1.7c-0.7-0.6-1.5-1.3-2.4-2
				c-0.9-0.7-2-1.3-3.1-1.8c-1.1-0.5-2.1-0.7-3.1-0.7s-1.9,0.1-2.7,0.2c-0.8,0.1-1.7,0.4-2.6,0.9c-0.9,0.4-1.6,1-2.3,1.6
				c-0.6,0.7-1.1,1.6-1.5,2.7s-0.6,2.5-0.6,4c0,3.1,1.7,6.4,5.2,9.8l16.1,15.5L-85,184c3.5-3.5,5.2-6.8,5.2-9.9
				C-79.8,172.7-80,171.3-80.4,170.2z M-77.1,174.4c0,3.9-2,7.9-6.1,12l-16.6,15.9c-0.3,0.3-0.7,0.5-1.2,0.5c-0.5,0-0.9-0.2-1.2-0.5
				l-16.6-16c-0.2-0.1-0.4-0.4-0.7-0.7c-0.3-0.3-0.8-0.9-1.5-1.7c-0.7-0.8-1.3-1.7-1.8-2.6c-0.5-0.9-1-2-1.4-3.2s-0.6-2.5-0.6-3.7
				c0-3.9,1.1-6.9,3.4-9.1c2.3-2.2,5.4-3.3,9.3-3.3c1.1,0,2.2,0.2,3.4,0.6s2.2,0.9,3.2,1.5c1,0.6,1.8,1.3,2.5,1.8
				c0.7,0.6,1.4,1.2,2,1.8c0.6-0.6,1.3-1.2,2-1.8c0.7-0.6,1.6-1.2,2.5-1.8c1-0.6,2-1.2,3.2-1.5c1.1-0.4,2.3-0.6,3.4-0.6
				c4,0,7.1,1.1,9.3,3.3S-77.1,170.5-77.1,174.4L-77.1,174.4z"/>
			<path id="Rectangle-854" sketch:type="MSShapeGroup" fill="#FFFFFF" stroke="#BBD8EF" stroke-width="2.6347" d="M-95.2,197.4h5.7
				c5.3,0,9.6,4.3,9.6,9.6v3.8c0,5.3-4.3,9.6-9.6,9.6h-50.9c-5.3,0-9.6-4.3-9.6-9.6V207c0-5.3,4.3-9.6,9.6-9.6h7v-1.2
				c0-5.3,4.3-9.6,9.6-9.6h3.8c0.9,0,1.8,0.1,2.7,0.4c1.5-3.4,4.9-5.8,8.8-5.8h3.8c5.3,0,9.6,4.3,9.6,9.6V197.4z"/>
			<g id="notes" transform="translate(42.043572, 23.800154)" sketch:type="MSShapeGroup">
				<rect id="Rectangle-84" x="-122.6" y="210.5" fill="#BBD8EF" width="3.7" height="3.6"/>
				<path id="Rectangle-74" fill="#FFFFFF" stroke="#BBD8EF" stroke-width="2.3952" d="M-143.9,156h99.5c1.3,0,2.4,1.1,2.4,2.4V288
					c0,1.3-1.1,2.4-2.4,2.4h-99.5c-1.3,0-2.4-1.1-2.4-2.4V158.4C-146.3,157.1-145.3,156-143.9,156z"/>
				<rect id="Rectangle-75" x="-135.4" y="158.2" fill="#BBD8EF" width="2.8" height="130.2"/>
				<path id="Rectangle-76" fill="#BBD8EF" d="M-147.6,179.6h11.7c1.3,0,2.4,0.7,2.4,1.5l0,0c0,0.8-1.1,1.5-2.4,1.5h-11.7
					c-1.3,0-2.4-0.7-2.4-1.5l0,0C-150,180.3-148.9,179.6-147.6,179.6z"/>
				<path id="Rectangle-77" fill="#BBD8EF" d="M-147.6,206.9h11.7c1.3,0,2.4,0.7,2.4,1.5l0,0c0,0.8-1.1,1.5-2.4,1.5h-11.7
					c-1.3,0-2.4-0.7-2.4-1.5l0,0C-150,207.5-148.9,206.9-147.6,206.9z"/>
				<path id="Rectangle-78" fill="#BBD8EF" d="M-147.6,234.1h11.7c1.3,0,2.4,0.7,2.4,1.5l0,0c0,0.8-1.1,1.5-2.4,1.5h-11.7
					c-1.3,0-2.4-0.7-2.4-1.5l0,0C-150,234.8-148.9,234.1-147.6,234.1z"/>
				<path id="Rectangle-79" fill="#BBD8EF" d="M-147.6,261.3h11.7c1.3,0,2.4,0.8,2.4,1.8l0,0c0,1-1.1,1.8-2.4,1.8h-11.7
					c-1.3,0-2.4-0.8-2.4-1.8l0,0C-150,262.2-148.9,261.3-147.6,261.3z"/>
				<path id="Rectangle-80" fill="none" stroke="#BBD8EF" stroke-width="2.3952" d="M-120.2,168.7h26.3c1.3,0,2.4,1.1,2.4,2.4v22.5
					c0,1.3-1.1,2.4-2.4,2.4h-26.3c-1.3,0-2.4-1.1-2.4-2.4v-22.5C-122.6,169.8-121.5,168.7-120.2,168.7z"/>
				<rect id="Rectangle-81" x="-84.2" y="172.3" fill="#BBD8EF" width="25.6" height="3"/>
				<rect id="Rectangle-82" x="-84.2" y="179.6" fill="#BBD8EF" width="25.6" height="3"/>
				<rect id="Rectangle-83" x="-84.2" y="186.9" fill="#BBD8EF" width="25.6" height="3"/>
				<rect id="Rectangle-83_1_" x="-113.4" y="210.5" fill="#BBD8EF" width="54.9" height="3"/>
				<rect id="Rectangle-86" x="-122.6" y="210.5" fill="#BBD8EF" width="3.7" height="3.6"/>
				<rect id="Rectangle-86_1_" x="-122.6" y="217.8" fill="#BBD8EF" width="3.7" height="3.6"/>
				<rect id="Rectangle-85" x="-113.4" y="210.5" fill="#BBD8EF" width="54.9" height="3"/>
				<rect id="Rectangle-85_1_" x="-113.4" y="217.8" fill="#BBD8EF" width="54.9" height="3"/>
				<rect id="Rectangle-88" x="-122.6" y="225" fill="#BBD8EF" width="3.7" height="3.6"/>
				<rect id="Rectangle-87" x="-113.4" y="225" fill="#BBD8EF" width="54.9" height="3"/>
				<rect id="Rectangle-92" x="-122.6" y="232.3" fill="#BBD8EF" width="3.7" height="3.6"/>
				<rect id="Rectangle-91" x="-113.4" y="232.3" fill="#BBD8EF" width="54.9" height="3"/>
				<rect id="Rectangle-97" x="-122.6" y="248.6" fill="#BBD8EF" width="3.7" height="3.6"/>
				<rect id="Rectangle-97_1_" x="-122.6" y="255.9" fill="#BBD8EF" width="3.7" height="3.6"/>
				<rect id="Rectangle-93" x="-113.4" y="248.6" fill="#BBD8EF" width="54.9" height="3"/>
				<rect id="Rectangle-93_1_" x="-113.4" y="255.9" fill="#BBD8EF" width="54.9" height="3"/>
				<rect id="Rectangle-99" x="-122.6" y="263.2" fill="#BBD8EF" width="3.7" height="3.6"/>
				<rect id="Rectangle-98" x="-113.4" y="263.2" fill="#BBD8EF" width="54.9" height="3"/>
				<rect id="Rectangle-101" x="-122.6" y="270.4" fill="#BBD8EF" width="3.7" height="3.6"/>
				<rect id="Rectangle-100" x="-113.4" y="270.4" fill="#BBD8EF" width="54.9" height="3"/>
				<path id="_xF097_" fill="#BBD8EF" d="M-55.8,156.4c0.2,0,0.3,0,0.4,0.1c0.2,0.1,0.4,0.2,0.5,0.4c0.1,0.2,0.2,0.4,0.2,0.6v12.7
					c0,0.2-0.1,0.4-0.2,0.6c-0.1,0.2-0.3,0.3-0.5,0.4c-0.1,0.1-0.3,0.1-0.4,0.1c-0.3,0-0.6-0.1-0.8-0.3l-4.3-4.2l-4.3,4.2
					c-0.2,0.2-0.5,0.3-0.8,0.3c-0.2,0-0.3,0-0.4-0.1c-0.2-0.1-0.4-0.2-0.5-0.4c-0.1-0.2-0.2-0.4-0.2-0.6v-12.7
					c0-0.2,0.1-0.4,0.2-0.6c0.1-0.2,0.3-0.3,0.5-0.4c0.1-0.1,0.3-0.1,0.4-0.1H-55.8z"/>
			</g>
			<g id="Group-2" transform="translate(19.620334, 85.400553)" sketch:type="MSShapeGroup">
				<path id="Shape_7_" fill="#FFFFFF" stroke="#BBD8EF" stroke-width="3.0531" d="M-105.5,213.7c0,4.2-3.6,7.1-6.5,4.9v-4.9v-18
					v54.9c0,3.2-2.6,5.7-5.9,5.7s-5.9-2.6-5.9-5.7v-31.9h-3.4v31.9c0,3.2-2.6,5.7-5.9,5.7c-3.3,0-5.9-2.6-5.9-5.7v-54.9v18v4.9
					c-2.4,1.5-6.5,0.2-6.5-4.9v-28.1c0-3.1,1.4-4.4,4.4-4.4h29.6c3.9,0,6,0.6,6,4.4L-105.5,213.7L-105.5,213.7z M-125.4,176.8
					c-5.7,0-10.4-4.5-10.4-10.1c0-5.6,4.6-10.1,10.4-10.1c5.7,0,10.4,4.5,10.4,10.1C-115,172.3-119.7,176.8-125.4,176.8
					L-125.4,176.8z"/>
			</g>
		</g>
	</g>
</g>
</svg>
