<?xml version="1.0" encoding="UTF-8" standalone="no"?>
<svg width="54px" height="52px" viewBox="0 0 54 52" version="1.1" xmlns="http://www.w3.org/2000/svg" xmlns:xlink="http://www.w3.org/1999/xlink" xmlns:sketch="http://www.bohemiancoding.com/sketch/ns">
    <!-- Generator: Sketch 3.4.4 (17249) - http://www.bohemiancoding.com/sketch -->
    <title>icon-tools-listen</title>
    <desc>Created with Sketch.</desc>
    <defs>
        <path id="path-1" d="M0,0.39 L53.851,0.39 L53.851,52 L0,52 L0,0.39 Z"></path>
    </defs>
    <g id="Page-1" stroke="none" stroke-width="1" fill="none" fill-rule="evenodd" sketch:type="MSPage">
        <g id="icon-tools-listen" sketch:type="MSLayerGroup">
            <mask id="mask-2" sketch:name="Clip 2" fill="white">
                <use xlink:href="#path-1"></use>
            </mask>
            <g id="Clip-2"></g>
            <path d="M43.8398,48.1118 L43.8398,29.4078 C48.8398,29.5998 52.8508,33.7148 52.8508,38.7598 C52.8508,43.8058 48.8398,47.9208 43.8398,48.1118 L43.8398,48.1118 Z M42.8398,48.1398 C42.8398,49.7438 41.5838,50.9998 39.9808,50.9998 C38.3768,50.9998 37.1198,49.7438 37.1198,48.1398 L37.1198,29.2398 C37.1198,27.6358 38.3768,26.3798 39.9808,26.3798 C41.5838,26.3798 42.8398,27.6358 42.8398,29.2398 L42.8398,48.1398 Z M26.8198,5.6398 C15.5438,5.6398 6.3698,14.8138 6.3698,26.0898 L6.3698,29.3338 C4.6758,30.0448 3.2178,31.1988 2.1198,32.6428 L2.1198,26.0898 C2.1198,12.4698 13.1998,1.3898 26.8198,1.3898 C40.4408,1.3898 51.5208,12.4698 51.5208,26.0898 L51.5208,32.2228 C50.4038,30.8508 48.9418,29.7768 47.2708,29.1178 L47.2708,26.0898 C47.2708,14.8138 38.0968,5.6398 26.8198,5.6398 L26.8198,5.6398 Z M11.0108,29.2398 C11.0108,27.6358 12.2668,26.3798 13.8698,26.3798 C15.4738,26.3798 16.7308,27.6358 16.7308,29.2398 L16.7308,48.1398 C16.7308,49.7168 15.4468,50.9998 13.8698,50.9998 C12.2668,50.9998 11.0108,49.7438 11.0108,48.1398 L11.0108,29.2398 Z M0.9998,38.8998 C0.9998,33.8548 5.0108,29.7388 10.0108,29.5478 L10.0108,48.1398 C10.0108,48.1788 10.0208,48.2148 10.0218,48.2528 C5.0168,48.0678 0.9998,43.9488 0.9998,38.8998 L0.9998,38.8998 Z M53.8508,38.7598 C53.8508,36.9018 53.3528,35.1598 52.4928,33.6498 C52.5058,33.6048 52.5208,33.5598 52.5208,33.5098 L52.5208,26.0898 C52.5208,11.9188 40.9908,0.3898 26.8198,0.3898 C12.6498,0.3898 1.1198,11.9188 1.1198,26.0898 L1.1198,33.9998 C1.1198,34.0598 1.1348,34.1148 1.1538,34.1678 C0.4208,35.5888 -0.0002,37.1948 -0.0002,38.8998 C-0.0002,44.5568 4.5558,49.1628 10.1888,49.2608 C10.6608,50.8578 12.0998,51.9998 13.8698,51.9998 C15.9988,51.9998 17.7308,50.2688 17.7308,48.1398 L17.7308,29.2398 C17.7308,27.0758 16.0348,25.3798 13.8698,25.3798 C11.9448,25.3798 10.3988,26.7248 10.0788,28.5448 C9.1398,28.5708 8.2308,28.7158 7.3698,28.9758 L7.3698,26.0898 C7.3698,15.3648 16.0958,6.6398 26.8198,6.6398 C37.5448,6.6398 46.2708,15.3648 46.2708,26.0898 L46.2708,28.7818 C45.4638,28.5568 44.6198,28.4258 43.7478,28.4038 C43.3748,26.6548 41.8558,25.3798 39.9808,25.3798 C37.8158,25.3798 36.1198,27.0758 36.1198,29.2398 L36.1198,48.1398 C36.1198,50.3048 37.8158,51.9998 39.9808,51.9998 C41.8028,51.9998 43.2798,50.7908 43.7048,49.1188 C49.3178,48.9978 53.8508,44.4028 53.8508,38.7598 L53.8508,38.7598 Z" id="Fill-1" fill="#A1D3B2" sketch:type="MSShapeGroup" mask="url(#mask-2)"></path>
        </g>
    </g>
</svg>