<?xml version="1.0" encoding="utf-8"?>
<!-- Generator: Adobe Illustrator 18.1.1, SVG Export Plug-In . SVG Version: 6.00 Build 0)  -->
<!DOCTYPE svg PUBLIC "-//W3C//DTD SVG 1.1//EN" "http://www.w3.org/Graphics/SVG/1.1/DTD/svg11.dtd">
<svg version="1.1" id="Layer_1" xmlns:sketch="http://www.bohemiancoding.com/sketch/ns"
	 xmlns="http://www.w3.org/2000/svg" xmlns:xlink="http://www.w3.org/1999/xlink" x="0px" y="0px" viewBox="-119 61 210 210"
	 enable-background="new -119 61 210 210" xml:space="preserve">
<title>Group</title>
<desc>Created with Sketch.</desc>
<g>
	
		<circle fill="#FFFFFF" stroke="#B0DBC0" stroke-width="2.5" stroke-linecap="round" stroke-linejoin="round" stroke-miterlimit="10" cx="-14.4" cy="166" r="102"/>
	<g>
		
			<path fill="#FFFFFF" stroke="#B0DBC0" stroke-width="2.5" stroke-linecap="round" stroke-linejoin="round" stroke-miterlimit="10" d="
			M-102.5,188.5c-1.4-5.6-2.5-11.6-2.8-18.1"/>
		
			<path fill="#FFFFFF" stroke="#B0DBC0" stroke-width="2.5" stroke-linecap="round" stroke-linejoin="round" stroke-miterlimit="10" d="
			M-12.3,256.3c-0.7,0-1.3,0-2,0c-5.1,0-10.1-0.4-15-1.3"/>
		
			<path fill="#FFFFFF" stroke="#B0DBC0" stroke-width="2.5" stroke-linecap="round" stroke-linejoin="round" stroke-miterlimit="10" d="
			M53.5,226.2c-2.3,2.6-4.8,5-7.4,7.3"/>
		
			<path fill="#FFFFFF" stroke="#B0DBC0" stroke-width="2.5" stroke-linecap="round" stroke-linejoin="round" stroke-miterlimit="10" d="
			M74.3,143.9c1.6,6.8,2.5,14,2.5,21.4c0,0.7,0,1.3,0,1.9"/>
		
			<path fill="#FFFFFF" stroke="#B0DBC0" stroke-width="2.5" stroke-linecap="round" stroke-linejoin="round" stroke-miterlimit="10" d="
			M19.8,80.7c9.6,3.9,18.5,9.4,26.2,16.2"/>
		
			<path fill="#FFFFFF" stroke="#B0DBC0" stroke-width="2.5" stroke-linecap="round" stroke-linejoin="round" stroke-miterlimit="10" d="
			M-80.2,102.2c9.3-9.7,20.9-17.4,33.7-22.2"/>
	</g>
	<g>
		<ellipse fill="none" stroke="#B0DBC0" stroke-width="2.5" stroke-miterlimit="10" cx="16.2" cy="223.5" rx="8.4" ry="22.4"/>
		<ellipse fill="none" stroke="#B0DBC0" stroke-width="2.5" stroke-miterlimit="10" cx="16.2" cy="223.5" rx="22.4" ry="8.4"/>
		
			<ellipse transform="matrix(0.7071 -0.7071 0.7071 0.7071 -153.3276 76.9772)" fill="none" stroke="#B0DBC0" stroke-width="2.5" stroke-miterlimit="10" cx="16.3" cy="223.6" rx="8.4" ry="22.4"/>
		
			<ellipse transform="matrix(0.7071 0.7071 -0.7071 0.7071 162.8733 54.0445)" fill="none" stroke="#B0DBC0" stroke-width="2.5" stroke-miterlimit="10" cx="16.2" cy="223.6" rx="8.4" ry="22.4"/>
	</g>
	<g>
		<g>
			<g>
				<path fill="none" stroke="#B0DBC0" stroke-width="2.5" stroke-miterlimit="10" d="M-23.3,103.8l2.5-1l-0.6-4.1l-2.7-0.2
					c-0.5-1.2-1.2-2.4-2.1-3.4l1.1-2.5l-3.3-2.5l-2.1,1.7c-1.2-0.5-2.6-0.9-3.9-1l-1-2.5l-4.1,0.6l-0.2,2.6
					c-1.3,0.5-2.5,1.2-3.6,2.1l-2.4-1l-2.5,3.3l1.7,2c-0.5,1.2-0.9,2.6-1,4l-2.4,1l0.6,4.1l2.6,0.2c0.5,1.3,1.2,2.5,2.1,3.6l-1,2.4
					l3.3,2.5l2-1.7c1.2,0.5,2.6,0.9,4,1l1,2.4l4.1-0.6l0.2-2.7c1.2-0.5,2.4-1.2,3.5-2.1l2.5,1.1l2.5-3.3l-1.8-2.1
					C-23.8,106.5-23.5,105.2-23.3,103.8z"/>
			</g>
		</g>
		<path fill="none" stroke="#B0DBC0" stroke-width="2.5" stroke-miterlimit="10" d="M-35.9,99.4c-2,0.3-3.3,2.1-2.9,4
			c0.3,2,2.1,3.3,4,2.9c2-0.3,3.3-2.1,2.9-4C-32.3,100.5-34.1,99.2-35.9,99.4z"/>
	</g>
	<path fill="none" stroke="#FFDEBB" stroke-width="3" stroke-miterlimit="10" d="M-68.9,179.9L-68.9,179.9"/>
	<g>
		<path fill="none" stroke="#B0DBC0" stroke-width="2.5" stroke-miterlimit="10" d="M-62.8,181.7c0,3-2.6,5.2-4.7,3.6
			c0,0,0-1.6,0-3.6v-13.2l0,0v40.1c0,2.3-1.9,4.2-4.2,4.2c-2.3,0-4.2-1.9-4.2-4.2v-23.3h-2.4v23.3c0,2.3-1.9,4.2-4.2,4.2
			c-2.3,0-4.2-1.9-4.2-4.2v-40.1l0,0v13.2c0,2,0,3.6,0,3.6c-1.7,1.1-4.7,0.1-4.7-3.6v-20.5c0-2.3,1-3.2,3.1-3.2h21
			c2.8,0,4.2,0.5,4.2,3.2L-62.8,181.7L-62.8,181.7z M-77.1,154.8c-4.1,0-7.4-3.2-7.4-7.4c0-4.1,3.4-7.4,7.4-7.4s7.4,3.2,7.4,7.4
			C-69.7,151.4-73,154.8-77.1,154.8z"/>
	</g>
	<g>
		
			<path fill="#FFFFFF" stroke="#B0DBC0" stroke-width="2.5" stroke-linecap="round" stroke-linejoin="round" stroke-miterlimit="10" d="
			M14.7,88.1c-1.1,0-2.1,0.9-2.1,2.1v8.9h-0.8v-11c0-1.2-1-2.1-2.1-2.1s-2.1,0.9-2.1,2.1v11H7v-11C7,86.9,6,86,4.9,86
			s-2.1,0.9-2.1,2.1v11H2v-8.9c0-1.2-0.9-2.1-2.1-2.1s-2.2,0.9-2.2,2.1v15.8l-2.3-4.4c-0.5-1.1-2.1-1.5-3.1-1
			c-1.1,0.5-1.7,1.9-1.2,2.9c0,0,5,9.9,6,11.3c1.4,1.9,2.6,2.9,5.3,2.9s7.8,0,7.8,0c3.9,0,6.6-3.9,6.6-7.9v-5.1v-5.6v-8.8
			C16.9,89.1,15.9,88.1,14.7,88.1z"/>
		
			<path fill="#FFFFFF" stroke="#B0DBC0" stroke-width="2.5" stroke-linecap="round" stroke-linejoin="round" stroke-miterlimit="10" d="
			M-2.3,106.3c0,0,3.1-0.2,5.6,1.5c2.5,1.7,3.4,3.9,3.4,3.9"/>
		
			<path fill="#FFFFFF" stroke="#B0DBC0" stroke-width="2.5" stroke-linecap="round" stroke-linejoin="round" stroke-miterlimit="10" d="
			M6.5,103.9c0,0,1.3,2.1,3.9,3.3c3.1,1.5,5.9,0.9,5.9,0.9"/>
		
			<line fill="none" stroke="#B0DBC0" stroke-width="2.5" stroke-linecap="round" stroke-linejoin="round" stroke-miterlimit="10" x1="1.7" y1="99.6" x2="16.2" y2="99.6"/>
	</g>
	
		<path fill="#FFFFFF" stroke="#B0DBC0" stroke-width="3" stroke-linecap="round" stroke-linejoin="round" stroke-miterlimit="10" d="
		M-70.3,235.8c-3.3-2.7-6.4-5.6-9.3-8.8"/>
	<g>
		<path fill="none" stroke="#B0DBC0" stroke-width="2.5" stroke-linejoin="round" stroke-miterlimit="10" d="M9.9,185h-49.7
			c-0.6,0-1-0.4-1-1v-32.1c0-0.6,0.4-1,1-1H10c0.6,0,1,0.4,1,1V184C10.8,184.6,10.4,185,9.9,185z"/>
		
			<path fill="#FFFFFF" stroke="#B0DBC0" stroke-width="2.5" stroke-linecap="round" stroke-linejoin="round" stroke-miterlimit="10" d="
			M-4.8,150.8h-20.4c-0.2,0-0.3-0.1-0.3-0.3v-5.7c0-0.2,0.1-0.3,0.3-0.3h20.3c0.2,0,0.3,0.1,0.3,0.3v5.7
			C-4.6,150.7-4.7,150.8-4.8,150.8z"/>
		
			<line fill="none" stroke="#B0DBC0" stroke-width="2.5" stroke-linejoin="round" stroke-miterlimit="10" x1="-41.2" y1="167.8" x2="11" y2="167.8"/>
		
			<path fill="#FFFFFF" stroke="#B0DBC0" stroke-width="2.5" stroke-linecap="round" stroke-linejoin="round" stroke-miterlimit="10" d="
			M-9.7,172.1h-10.6c-0.1,0-0.2-0.1-0.2-0.2v-9c0-0.1,0.1-0.2,0.2-0.2h10.6c0.1,0,0.2,0.1,0.2,0.2v8.9C-9.5,172-9.6,172.1-9.7,172.1
			z"/>
	</g>
	<path fill="none" stroke="#B0DBC0" stroke-width="2.5" stroke-linecap="round" stroke-linejoin="round" stroke-miterlimit="10" d="
		M-32.5,205.1c-9-4.2-16.2-11.4-20.3-20.3"/>
	<path fill="none" stroke="#B0DBC0" stroke-width="2.5" stroke-linecap="round" stroke-linejoin="round" stroke-miterlimit="10" d="
		M28.1,168c-0.2,6.8-2,13.2-5.1,18.9"/>
	<path fill="none" stroke="#B0DBC0" stroke-width="2.5" stroke-linecap="round" stroke-linejoin="round" stroke-miterlimit="10" d="
		M-41.3,133.7c7.3-6,16.7-9.5,26.9-9.5c8.2,0,15.9,2.3,22.3,6.4"/>
	<line fill="none" x1="-83.7" y1="214.9" x2="-77.5" y2="214.9"/>
	<g>
		<rect x="56.1" y="125.7" fill="none" stroke="#B0DBC0" stroke-width="2.5" stroke-miterlimit="10" width="7.4" height="30.2"/>
		<line fill="none" stroke="#B0DBC0" stroke-width="2.5" stroke-miterlimit="10" x1="60.2" y1="150.4" x2="63.3" y2="150.5"/>
		<line fill="none" stroke="#B0DBC0" stroke-width="2.5" stroke-miterlimit="10" x1="60.2" y1="146.5" x2="63.3" y2="146.4"/>
		<line fill="none" stroke="#B0DBC0" stroke-width="2.5" stroke-miterlimit="10" x1="60.2" y1="142.4" x2="63.3" y2="142.4"/>
		<line fill="none" stroke="#B0DBC0" stroke-width="2.5" stroke-miterlimit="10" x1="60.2" y1="138.4" x2="63.3" y2="138.4"/>
		<line fill="none" stroke="#B0DBC0" stroke-width="2.5" stroke-miterlimit="10" x1="60.2" y1="134.3" x2="63.3" y2="134.4"/>
		<line fill="none" stroke="#B0DBC0" stroke-width="2.5" stroke-miterlimit="10" x1="60.2" y1="130.4" x2="63.3" y2="130.3"/>
	</g>
	<g>
		<polygon fill="none" stroke="#B0DBC0" stroke-width="2.5" stroke-linejoin="round" stroke-miterlimit="10" points="-17.7,213.8 
			-17.7,219.6 -54,219.7 -58.6,216.7 -54,213.7 		"/>
		
			<line fill="none" stroke="#B0DBC0" stroke-width="2.5" stroke-linejoin="round" stroke-miterlimit="10" x1="-52.3" y1="219.6" x2="-52.3" y2="213.8"/>
	</g>
	<g>
		<circle fill="none" stroke="#B0DBC0" stroke-width="2.5" stroke-miterlimit="10" cx="-70.9" cy="120.1" r="10.4"/>
		<path fill="none" stroke="#B0DBC0" stroke-width="2.5" stroke-linecap="round" stroke-miterlimit="10" d="M-76.1,124
			c-2.1-2.1-2.1-5.6,0-7.8"/>
		<path fill="none" stroke="#B0DBC0" stroke-width="2.5" stroke-miterlimit="10" d="M-64.9,126.2"/>
		<path fill="none" stroke="#B0DBC0" stroke-width="2.5" stroke-miterlimit="10" d="M-54,136.5l-0.6,0.6c-0.8,0.8-2,0.8-2.8,0
			l-7.7-7.7l3.3-3.3l7.7,7.7C-53.2,134.5-53.2,135.8-54,136.5z"/>
	</g>
	<g>
		<path fill="#B0DBC0" d="M47.6,110.5c0.4,0,0.8,0.1,1.1,0.4l0.9,0.9c0.6,0.6,0.5,1.5-0.1,2.1l-12,12c1.8,3.1,1.4,7.1-1.3,9.8
			c-1.7,1.7-3.7,2.8-5.8,2.8c-0.7,0-1.4-0.1-2.2-0.4l5-5l-1.2-4.6l-4.8-1.2l-4.9,4.9c-1.1-2.9,0.1-5.6,2.4-8
			c1.6-1.6,3.6-2.4,5.7-2.4c1.3,0,2.7,0.3,3.9,1l12-12C46.8,110.6,47.2,110.5,47.6,110.5 M47.6,108c-1.1,0-2.1,0.4-2.9,1.2L33.9,120
			c-1.1-0.4-2.2-0.5-3.3-0.5c-2.8,0-5.5,1.1-7.5,3.1c-3.3,3.3-4.4,7.1-3,10.6c0.3,0.8,1,1.4,1.8,1.6c0.2,0,0.3,0.1,0.5,0.1
			c0.7,0,1.3-0.3,1.8-0.7l3.9-3.9l2,0.5l0.4,1.7l-4,4c-0.6,0.6-0.9,1.5-0.7,2.3s0.8,1.5,1.6,1.8c1,0.4,2,0.6,3.1,0.6
			c2.6,0,5.2-1.2,7.6-3.6c2.9-2.9,3.8-7.2,2.5-11l10.8-10.7c1.6-1.6,1.6-4.1,0.1-5.7l-0.9-0.9C49.8,108.4,48.7,108,47.6,108
			L47.6,108z"/>
	</g>
	<g>
		<g>
			<path fill="none" stroke="#B0DBC0" stroke-width="2.5" stroke-miterlimit="10" d="M54.1,212.5L54.1,212.5c-5.1,0-9.3-4.2-9.3-9.3
				l0-8.5c0-5.1,4.2-9.3,9.3-9.3l0,0c5.1,0,9.3,4.2,9.3,9.3l0,8.5C63.4,208.4,59.2,212.5,54.1,212.5z"/>
			<line fill="none" stroke="#B0DBC0" stroke-width="2.5" stroke-miterlimit="10" x1="44.8" y1="195.5" x2="63.8" y2="195.5"/>
			<line fill="none" stroke="#B0DBC0" stroke-width="2.5" stroke-miterlimit="10" x1="54.1" y1="195.6" x2="54" y2="185.7"/>
			<path fill="none" stroke="#B0DBC0" stroke-width="2.5" stroke-linecap="round" stroke-miterlimit="10" d="M44.3,149.2
				c0,0-10.3-1-10.3,7.2c0,5,6.9,7,15.4,7c8.6,0,11.7,2.4,11.7,4.7c0,7.1-18.7,2.3-18.7,8.8c0,4.9,7.3,3.3,10.1,5.2
				c1.2,0.8,2.1,2.5,1.5,3.9"/>
		</g>
	</g>
	<g>
		<g>
			<path fill="#B0DBC0" d="M-41.1,230.2c3.5,0,6.4,2.2,7.5,5.3c0,0,0,0,0,0c0.9,0,2.9,0,3.1,0l0,0c0,0,0,0,0,0l1.9-1.9l1.9,1.9
				l1.9-1.9l1.7,1.7h2.7l2.2,2.2l-2.1,2.1h-12.8c0,0.1,0,0.3-0.1,0.4c-0.8,3.5-4,6.1-7.8,6.1c-4.4,0-8-3.6-8-8
				C-49.1,233.8-45.5,230.2-41.1,230.2 M-41.1,227.7c-5.8,0-10.5,4.7-10.5,10.5c0,5.8,4.7,10.5,10.5,10.5c4.3,0,8.1-2.6,9.7-6.5
				h10.9c0.7,0,1.3-0.3,1.8-0.7l2.1-2.1c1-1,1-2.6,0-3.5l-2.2-2.2c-0.5-0.5-1.1-0.7-1.8-0.7h-1.7l-1-1c-0.5-0.5-1.1-0.7-1.8-0.7
				c-0.6,0-1.3,0.2-1.8,0.7l-0.1,0.1l-0.1-0.1c-0.5-0.5-1.1-0.7-1.8-0.7c-0.7,0-1.3,0.3-1.8,0.7l-1.1,1.1c-0.1,0-0.3,0-0.4,0
				C-33.8,229.8-37.3,227.7-41.1,227.7L-41.1,227.7z"/>
		</g>
		
			<circle fill="none" stroke="#B0DBC0" stroke-width="2.5" stroke-linecap="round" stroke-linejoin="round" stroke-miterlimit="10" cx="-43.7" cy="238.2" r="2.3"/>
	</g>
</g>
</svg>
