<?xml version="1.0" encoding="UTF-8" standalone="no"?>
<svg width="200px" height="200px" viewBox="0 0 200 200" version="1.1" xmlns="http://www.w3.org/2000/svg" xmlns:xlink="http://www.w3.org/1999/xlink" xmlns:sketch="http://www.bohemiancoding.com/sketch/ns">
    <!-- Generator: Sketch 3.4.4 (17249) - http://www.bohemiancoding.com/sketch -->
    <title>icon-circle-tools</title>
    <desc>Created with Sketch.</desc>
    <defs></defs>
    <g id="Page-1" stroke="none" stroke-width="1" fill="none" fill-rule="evenodd" sketch:type="MSPage">
        <g id="icon-circle-tools" sketch:type="MSLayerGroup" fill="#A1D3B2">
            <path d="M100,198 C45.962,198 2,154.038 2,100 C2,45.962 45.962,2 100,2 C154.038,2 198,45.962 198,100 C198,154.038 154.038,198 100,198 M100,0 C44.86,0 0,44.86 0,100 C0,155.14 44.86,200 100,200 C155.14,200 200,155.14 200,100 C200,44.86 155.14,0 100,0" id="Fill-1" sketch:type="MSShapeGroup"></path>
            <path d="M10.7744,104.3169 C11.0364,109.9899 11.9094,115.6339 13.5214,122.0809 L15.4614,121.5949 C13.8824,115.2809 13.0284,109.7609 12.7724,104.2239 L10.7744,104.3169 Z" id="Fill-3" sketch:type="MSShapeGroup"></path>
            <path d="M85.7188,185.3989 L85.3578,187.3659 C90.0398,188.2259 94.8618,188.6439 100.0968,188.6439 L102.0378,188.6439 L102.0378,186.6439 L100.0968,186.6439 C94.9838,186.6439 90.2808,186.2369 85.7188,185.3989" id="Fill-5" sketch:type="MSShapeGroup"></path>
            <path d="M158.0581,164.7656 L159.3831,166.2636 C162.2431,163.7336 164.6201,161.3876 166.6521,159.0916 L165.1541,157.7666 C163.1771,160.0006 160.8561,162.2896 158.0581,164.7656" id="Fill-7" sketch:type="MSShapeGroup"></path>
            <path d="M187.0649,78.3208 L185.1179,78.7788 C186.7109,85.5478 187.5179,92.4588 187.5179,99.3208 L187.5179,101.1648 L189.5179,101.1648 L189.5179,99.3208 C189.5179,92.3038 188.6919,85.2388 187.0649,78.3208" id="Fill-9" sketch:type="MSShapeGroup"></path>
            <path d="M159.2856,32.1826 C151.6976,25.4816 143.0456,20.1316 133.5706,16.2826 L132.8176,18.1346 C142.0836,21.8996 150.5426,27.1306 157.9616,33.6816 L159.2856,32.1826 Z" id="Fill-11" sketch:type="MSShapeGroup"></path>
            <path d="M69.1953,17.4658 L68.4933,15.5928 C56.0453,20.2608 44.6063,27.7958 35.4133,37.3838 L36.8573,38.7678 C45.8433,29.3948 57.0263,22.0288 69.1953,17.4658" id="Fill-13" sketch:type="MSShapeGroup"></path>
            <path d="M144.8328,160.5811 C144.0058,159.0311 142.9948,157.4351 141.8228,155.8311 C142.9988,154.2121 144.0148,152.6001 144.8368,151.0381 C148.3768,152.3931 150.4418,154.1461 150.4418,155.8091 C150.4418,157.4711 148.3758,159.2251 144.8328,160.5811 M144.4688,170.5321 C143.2768,171.7241 140.5228,171.4871 136.9908,169.8831 C137.5028,168.2181 137.9218,166.3571 138.2318,164.3401 C140.2768,164.0261 142.1598,163.6001 143.8408,163.0781 C145.4218,166.5581 145.6568,169.3441 144.4688,170.5321 M129.6998,176.5501 C128.0438,176.5501 126.2968,174.4981 124.9428,170.9781 C126.5188,170.1421 128.1448,169.1101 129.7768,167.9151 C131.3908,169.1021 132.9718,170.1011 134.4858,170.9101 C133.1278,174.4731 131.3678,176.5501 129.6998,176.5501 M115.0538,170.5791 C113.8658,169.3901 114.1008,166.6021 115.6838,163.1211 L115.6848,163.1181 C117.3348,163.6221 119.1748,164.0341 121.1678,164.3401 C121.4838,166.3971 121.9128,168.2901 122.4398,169.9791 C118.9938,171.5311 116.2338,171.7581 115.0538,170.5791 M108.9588,155.8091 C108.9588,154.1301 111.0598,152.3571 114.6658,150.9961 C115.4828,152.5521 116.5068,154.1791 117.7268,155.8431 C116.5428,157.4591 115.5218,159.0691 114.6888,160.6301 C111.0678,159.2681 108.9588,157.4911 108.9588,155.8091 M115.1358,141.2001 C116.3028,140.0331 118.9738,140.2451 122.4018,141.7601 C121.8928,143.4181 121.4768,145.2701 121.1678,147.2771 C119.1848,147.5821 117.3518,147.9921 115.7078,148.4931 C114.1808,145.0521 113.9668,142.3701 115.1358,141.2001 M129.6998,135.0671 C131.3878,135.0671 133.1698,137.1871 134.5338,140.8271 C132.9918,141.6431 131.4018,142.6481 129.8038,143.8091 C128.1238,142.5751 126.4798,141.5401 124.9108,140.7171 C126.2698,137.1481 128.0308,135.0671 129.6998,135.0671 M138.7358,152.0221 C138.6798,151.1171 138.6028,150.2341 138.5078,149.3731 C140.1128,149.6481 141.5878,149.9911 142.9128,150.3881 C142.2478,151.6211 141.4498,152.8881 140.5478,154.1651 C139.9758,153.4471 139.3648,152.7331 138.7358,152.0221 M138.8468,156.4351 C138.8488,156.2271 138.8528,156.0191 138.8528,155.8091 C138.8528,155.6191 138.8498,155.4331 138.8478,155.2441 C139.0068,155.4411 139.1578,155.6381 139.3118,155.8351 C139.1568,156.0361 139.0078,156.2351 138.8468,156.4351 M138.7308,159.6701 C139.3638,158.9511 139.9778,158.2291 140.5538,157.5031 C141.4488,158.7631 142.2388,160.0131 142.9058,161.2311 C141.5828,161.6271 140.1098,161.9701 138.5078,162.2451 C138.5998,161.4081 138.6748,160.5491 138.7308,159.6701 M135.9578,162.6101 C136.0358,162.5341 136.1148,162.4621 136.1918,162.3851 C136.2978,162.2791 136.3968,162.1691 136.5028,162.0631 C136.4838,162.2271 136.4628,162.3891 136.4428,162.5511 C136.2808,162.5711 136.1218,162.5921 135.9578,162.6101 M133.5718,164.8381 C134.4478,164.7831 135.3028,164.7081 136.1358,164.6161 C135.8658,166.1921 135.5298,167.6411 135.1418,168.9471 C133.9678,168.3041 132.7328,167.5331 131.4568,166.6281 C132.1658,166.0621 132.8708,165.4591 133.5718,164.8381 M129.2428,164.9571 C129.3958,164.9581 129.5468,164.9611 129.6998,164.9611 C129.9168,164.9611 130.1298,164.9571 130.3448,164.9561 C130.1598,165.1041 129.9748,165.2471 129.7908,165.3921 C129.6088,165.2501 129.4258,165.1031 129.2428,164.9571 M122.8788,161.8681 C123.0318,162.0251 123.1748,162.1821 123.3308,162.3381 C123.4298,162.4371 123.5308,162.5311 123.6298,162.6291 C123.4038,162.6041 123.1788,162.5791 122.9578,162.5511 C122.9298,162.3261 122.9038,162.0981 122.8788,161.8681 M120.6558,159.4741 C120.7128,160.4221 120.7928,161.3451 120.8928,162.2441 C119.3408,161.9781 117.9138,161.6481 116.6238,161.2681 C117.2958,160.0381 118.0938,158.7771 118.9998,157.5061 C119.5228,158.1601 120.0778,158.8161 120.6558,159.4741 M120.5508,155.4411 C120.5498,155.5641 120.5468,155.6851 120.5468,155.8091 C120.5468,155.9501 120.5498,156.0891 120.5508,156.2301 C120.4468,156.0981 120.3478,155.9681 120.2458,155.8371 C120.3488,155.7051 120.4448,155.5731 120.5508,155.4411 M120.6508,152.2211 C120.0828,152.8681 119.5318,153.5171 119.0098,154.1691 C118.0738,152.8441 117.2768,151.5631 116.6228,150.3501 C117.9138,149.9691 119.3408,149.6391 120.8928,149.3731 C120.7898,150.2971 120.7078,151.2461 120.6508,152.2211 M123.7268,148.9791 C123.5678,149.1341 123.4058,149.2831 123.2478,149.4401 C123.1188,149.5701 122.9978,149.7031 122.8708,149.8321 C122.8988,149.5751 122.9258,149.3181 122.9578,149.0661 C123.2108,149.0351 123.4688,149.0071 123.7268,148.9791 M126.1228,146.7591 C125.1438,146.8161 124.1918,146.8991 123.2638,147.0011 C123.5338,145.4261 123.8698,143.9771 124.2578,142.6711 C125.4848,143.3301 126.7808,144.1371 128.1218,145.0851 C127.4528,145.6161 126.7868,146.1791 126.1228,146.7591 M130.2228,146.6611 C130.0488,146.6591 129.8758,146.6561 129.6998,146.6561 C129.5838,146.6561 129.4708,146.6591 129.3548,146.6591 C129.5008,146.5431 129.6468,146.4371 129.7928,146.3241 C129.9368,146.4351 130.0788,146.5461 130.2228,146.6611 M136.2748,149.3941 C136.1378,149.2571 135.9998,149.1321 135.8628,148.9981 C136.0578,149.0191 136.2508,149.0421 136.4428,149.0661 C136.4658,149.2561 136.4888,149.4471 136.5108,149.6391 C136.4308,149.5581 136.3548,149.4751 136.2748,149.3941 M136.8528,155.8091 C136.8528,156.8621 136.8158,157.8761 136.7628,158.8721 C136.1238,159.5781 135.4688,160.2801 134.7778,160.9711 C134.1178,161.6301 133.4478,162.2581 132.7738,162.8701 C131.7748,162.9241 130.7578,162.9611 129.6998,162.9611 C128.7088,162.9611 127.7518,162.9281 126.8118,162.8811 C126.1248,162.2581 125.4348,161.6141 124.7448,160.9241 C123.9938,160.1731 123.2968,159.4221 122.6258,158.6751 C122.5798,157.7421 122.5468,156.7921 122.5468,155.8091 C122.5468,154.8511 122.5778,153.9261 122.6218,153.0161 C123.2778,152.2891 123.9518,151.5651 124.6618,150.8541 C125.4038,150.1131 126.1588,149.4111 126.9178,148.7301 C127.8238,148.6861 128.7468,148.6561 129.6998,148.6561 C130.7198,148.6561 131.7038,148.6911 132.6688,148.7411 C133.3978,149.3971 134.1288,150.0761 134.8608,150.8081 C135.5228,151.4701 136.1528,152.1431 136.7668,152.8201 C136.8178,153.7911 136.8528,154.7821 136.8528,155.8091 M136.1358,147.0011 C135.2698,146.9061 134.3808,146.8281 133.4698,146.7721 C132.8008,146.1821 132.1328,145.6171 131.4678,145.0841 C132.7188,144.2011 133.9588,143.4191 135.1678,142.7631 C135.5448,144.0451 135.8728,145.4621 136.1358,147.0011 M123.2638,164.6161 C124.1518,164.7141 125.0618,164.7931 125.9968,164.8501 C126.7068,165.4791 127.4148,166.0721 128.1208,166.6371 C126.8248,167.5601 125.5398,168.3731 124.2878,169.0531 C123.8868,167.7201 123.5408,166.2341 123.2638,164.6161 M142.0938,140.4971 C143.0978,140.4971 143.8848,140.7451 144.3858,141.2471 C145.5548,142.4151 145.3398,145.1341 143.8278,148.5351 C142.1488,148.0151 140.2708,147.5901 138.2318,147.2771 C137.9288,145.3011 137.5208,143.4761 137.0228,141.8371 C138.9948,140.9521 140.7428,140.4971 142.0938,140.4971 M145.7168,149.1931 C147.5648,144.9591 147.6068,141.6391 145.8008,139.8321 C143.9848,138.0171 140.6408,138.0661 136.3738,139.9431 C134.7288,135.6621 132.3858,133.0671 129.6998,133.0671 C127.0388,133.0671 124.7128,135.6151 123.0708,139.8271 C118.9848,138.0591 115.5858,137.9221 113.7218,139.7861 C111.8548,141.6531 111.9978,145.0611 113.7748,149.1581 C109.5298,150.8011 106.9588,153.1361 106.9588,155.8091 C106.9588,158.4851 109.5358,160.8221 113.7918,162.4661 C111.8698,166.7801 111.8088,170.1621 113.6398,171.9931 C114.5318,172.8841 115.7898,173.3301 117.3448,173.3301 C118.9658,173.3291 120.9148,172.8331 123.1008,171.8681 C124.7408,176.0341 127.0548,178.5501 129.6998,178.5501 C132.3578,178.5501 134.6808,176.0101 136.3228,171.8091 C138.4948,172.7731 140.4828,173.2911 142.1538,173.2911 C143.6968,173.2911 144.9728,172.8561 145.8828,171.9461 C147.7138,170.1151 147.6528,166.7341 145.7308,162.4191 C149.9148,160.7781 152.4418,158.4591 152.4418,155.8091 C152.4418,153.1551 149.9088,150.8341 145.7168,149.1931" id="Fill-15" sketch:type="MSShapeGroup"></path>
            <path d="M69.9507,29.9795 L72.1197,30.8825 L72.5837,30.5025 C73.5627,29.7015 74.6467,29.0695 75.8037,28.6245 L76.3927,28.3975 L76.5747,26.0415 L78.9817,25.6885 L79.8907,27.9615 L80.5127,28.0085 C81.5587,28.0885 82.7937,28.4075 83.9897,28.9055 L84.5397,29.1345 L86.4317,27.6025 L88.3817,29.0795 L87.3707,31.3735 L87.8037,31.8545 C88.5367,32.6695 89.1797,33.7115 89.6627,34.8695 L89.8987,35.4365 L92.3327,35.6175 L92.6847,38.0225 L90.4537,38.9155 L90.3717,39.4875 C90.1677,40.9145 89.8807,42.0405 89.4687,43.0295 L89.2317,43.5985 L90.8547,45.4915 L89.3917,47.4225 L87.1267,46.4255 L86.6517,46.8135 C85.6987,47.5945 84.6387,48.2305 83.5037,48.7035 L82.9357,48.9395 L82.7567,51.3735 L80.3387,51.7275 L79.4297,49.5465 L78.8157,49.5025 C77.4007,49.4015 76.0937,48.9595 75.2467,48.6065 L74.6807,48.3705 L72.8847,49.8975 L70.9387,48.4225 L71.8417,46.2545 L71.4617,45.7905 C70.6597,44.8105 70.0287,43.7265 69.5827,42.5705 L69.3567,41.9805 L66.9997,41.7995 L66.6457,39.3795 L68.8267,38.4715 L68.8707,37.8565 C68.9717,36.4415 69.4137,35.1345 69.7667,34.2875 L70.0027,33.7225 L68.4757,31.9255 L69.9507,29.9795 Z M67.6947,34.0945 C67.3937,34.9065 67.0857,35.9495 66.9387,37.0915 L64.4417,38.1315 L65.2527,43.6705 L67.9597,43.8785 C68.3787,44.8305 68.9087,45.7345 69.5397,46.5785 L68.4967,49.0825 L72.9567,52.4605 L75.0537,50.6785 C75.8657,50.9795 76.9087,51.2885 78.0507,51.4355 L79.0907,53.9315 L84.6327,53.1205 L84.8417,50.2985 C85.7557,49.8715 86.6217,49.3505 87.4297,48.7445 L90.0327,49.8895 L93.4217,45.4145 L91.5397,43.2175 C91.8467,42.3645 92.0817,41.4305 92.2627,40.3465 L94.8917,39.2945 L94.0797,33.7415 L91.2567,33.5315 C90.8237,32.6095 90.2997,31.7555 89.7137,31.0175 L90.8477,28.4385 L86.3907,25.0625 L84.1977,26.8375 C83.2137,26.4725 82.2157,26.2125 81.2937,26.0835 L80.2537,23.4815 L74.7017,24.2935 L74.4947,27.0005 C73.5427,27.4195 72.6387,27.9495 71.7947,28.5815 L69.2907,27.5385 L65.9127,31.9975 L67.6947,34.0945 Z" id="Fill-17" sketch:type="MSShapeGroup"></path>
            <path d="M77.6357,37.3398 C78.0057,36.8078 78.5817,36.4568 79.2617,36.3498 C80.4987,36.2258 81.7637,37.1538 82.0357,38.3798 C82.1617,38.9768 82.0407,39.5788 81.6957,40.0748 C81.3237,40.6108 80.7397,40.9638 79.9937,41.0768 C79.3987,41.2018 78.7947,41.0828 78.2987,40.7368 C77.7617,40.3638 77.4097,39.7798 77.2967,39.0348 C77.1707,38.4388 77.2907,37.8368 77.6357,37.3398 M77.1567,42.3798 C77.8717,42.8758 78.6977,43.1308 79.5237,43.1308 C79.8007,43.1308 80.0767,43.1018 80.3487,43.0448 C81.5867,42.8588 82.6477,42.2098 83.3387,41.2158 C84.0007,40.2628 84.2337,39.1088 83.9907,37.9568 C83.4947,35.7268 81.2657,34.1218 79.0217,34.3638 L78.9837,34.3698 C77.7457,34.5558 76.6837,35.2048 75.9927,36.1988 C75.3307,37.1528 75.0987,38.3058 75.3287,39.3898 C75.5147,40.6278 76.1637,41.6888 77.1567,42.3798" id="Fill-19" sketch:type="MSShapeGroup"></path>
            <path d="M50.5361,118.1001 C50.1701,118.2811 49.8101,118.3011 49.4621,118.1631 L49.4621,102.4261 L47.4621,102.4261 L47.4621,141.3471 C47.4621,143.0151 46.0531,144.4231 44.3851,144.4231 C42.7181,144.4231 41.3081,143.0151 41.3081,141.3471 L41.3081,117.7321 L36.9791,117.7321 L36.9791,141.3471 C36.9791,143.0151 35.5701,144.4231 33.9031,144.4231 C32.2351,144.4231 30.8271,143.0151 30.8271,141.3471 L30.8271,102.4261 L28.8271,102.4261 L28.8271,118.0901 C28.4031,118.1971 27.9231,118.1391 27.5071,117.9121 C26.7051,117.4761 26.2651,116.5271 26.2651,115.2381 L26.2651,95.3411 C26.2651,93.7271 26.7341,93.2351 28.2731,93.2351 L48.6561,93.2351 C51.3491,93.2351 51.7321,93.6831 51.7321,95.3551 L52.0231,115.2461 C52.0211,116.7021 51.2511,117.7461 50.5361,118.1001 M48.6561,91.2351 L28.2731,91.2351 C25.6131,91.2351 24.2651,92.6161 24.2651,95.3411 L24.2651,115.2381 C24.2651,117.2641 25.0981,118.8781 26.5511,119.6691 C27.2671,120.0581 28.0611,120.2061 28.8271,120.1211 L28.8271,141.3471 C28.8271,144.1461 31.1041,146.4231 33.9031,146.4231 C36.7021,146.4231 38.9791,144.1461 38.9791,141.3471 L38.9791,119.7321 L39.3081,119.7321 L39.3081,141.3471 C39.3081,144.1461 41.5861,146.4231 44.3851,146.4231 C47.1841,146.4231 49.4621,144.1461 49.4621,141.3471 L49.4621,120.2221 C50.1141,120.3171 50.7851,120.2081 51.4241,119.8921 C52.9781,119.1221 54.0231,117.2521 54.0231,115.2381 L53.7321,95.3411 C53.7321,91.2351 50.4301,91.2351 48.6561,91.2351" id="Fill-21" sketch:type="MSShapeGroup"></path>
            <path d="M39.144,75.7646 C42.553,75.7646 45.327,78.5376 45.327,81.9466 C45.327,85.2986 42.496,88.1296 39.144,88.1296 C35.677,88.1296 32.962,85.4136 32.962,81.9466 C32.962,78.5956 35.793,75.7646 39.144,75.7646 M39.144,90.1296 C43.656,90.1296 47.327,86.4586 47.327,81.9466 C47.327,77.4346 43.656,73.7646 39.144,73.7646 C34.632,73.7646 30.962,77.4346 30.962,81.9466 C30.962,86.5356 34.556,90.1296 39.144,90.1296" id="Fill-23" sketch:type="MSShapeGroup"></path>
            <path d="M106.2334,38.2056 C106.3554,37.8616 106.6104,37.5726 106.9504,37.4176 C107.0864,37.3506 107.2574,37.3156 107.4414,37.3156 C107.6174,37.3156 107.8044,37.3476 107.9804,37.4096 C108.2794,37.5156 108.5054,37.6976 108.6254,37.9576 L112.7444,45.8356 L112.7444,43.0766 C113.7154,43.1536 115.2754,43.4266 116.6174,44.3386 C118.7414,45.7836 119.5474,47.6616 119.5534,47.6756 L121.4054,46.9186 C121.3644,46.8196 120.3874,44.4836 117.7414,42.6846 C115.9664,41.4776 113.9474,41.1536 112.7444,41.0736 L112.7444,26.4296 C112.7444,25.8476 113.2424,25.3916 113.8794,25.3916 C114.4904,25.3916 114.9174,25.8176 114.9174,26.4296 L114.9174,36.0676 L115.6264,36.0676 L115.6264,36.5526 L129.2824,36.5526 L129.2824,42.8696 C128.5714,42.9556 126.6364,43.0606 124.4894,42.0206 C122.2904,41.0066 121.1454,39.2146 121.1334,39.1966 L119.4354,40.2526 C119.4924,40.3466 120.8864,42.5616 123.6354,43.8296 C125.4684,44.7166 127.2034,44.9176 128.3994,44.9176 C128.7504,44.9176 129.0354,44.8986 129.2824,44.8766 L129.2824,45.4526 C129.2824,48.6596 127.2154,52.1206 123.8764,52.1206 L116.3054,52.1206 C114.0974,52.1206 113.2174,51.4106 111.9754,49.7246 C111.2154,48.6616 107.5714,41.5406 106.2334,38.8906 C106.1424,38.7106 106.1434,38.4606 106.2334,38.2056 M118.7324,23.3526 C119.2334,23.3526 119.7704,23.7696 119.7704,24.3916 L119.7704,34.5526 L117.6944,34.5526 L117.6944,24.3916 C117.6944,23.7696 118.2314,23.3526 118.7324,23.3526 M123.3914,23.3526 C123.8924,23.3526 124.4294,23.7696 124.4294,24.3916 L124.4294,34.5526 L122.3534,34.5526 L122.3534,24.3916 C122.3534,23.7696 122.8894,23.3526 123.3914,23.3526 M128.2444,25.3916 C128.5454,25.3916 128.8344,25.5176 129.0364,25.7376 C129.2184,25.9346 129.3074,26.1856 129.2824,26.5266 L129.2824,34.5526 L127.2064,34.5526 L127.2064,26.4296 C127.2064,25.8086 127.7424,25.3916 128.2444,25.3916 M110.3564,50.8986 C111.8594,52.9396 113.3154,54.1206 116.3054,54.1206 L123.8764,54.1206 C128.4504,54.1206 131.2824,49.6216 131.2824,45.4526 L131.2784,26.6096 C131.3474,25.7886 131.0734,24.9976 130.5084,24.3826 C129.9284,23.7526 129.1034,23.3916 128.2444,23.3916 C127.5534,23.3916 126.9164,23.6226 126.4054,24.0126 C126.2184,22.5146 124.9384,21.3526 123.3914,21.3526 C122.4564,21.3526 121.6194,21.7766 121.0624,22.4426 C120.5044,21.7766 119.6674,21.3526 118.7324,21.3526 C117.1914,21.3526 115.9144,22.5066 115.7194,23.9966 C115.2124,23.6146 114.5764,23.3916 113.8794,23.3916 C112.1214,23.3916 110.7444,24.7256 110.7444,26.4296 L110.7444,37.6956 L110.4214,37.0806 C110.0984,36.3676 109.4674,35.8146 108.6484,35.5246 C107.7744,35.2146 106.8044,35.2536 106.0894,35.6136 C105.2864,35.9776 104.6514,36.6796 104.3484,37.5386 C104.0734,38.3146 104.1074,39.1126 104.4454,39.7886 C104.9454,40.7796 109.3614,49.5056 110.3564,50.8986" id="Fill-25" sketch:type="MSShapeGroup"></path>
            <path d="M37.459,158.5342 L35.977,159.8772 C38.737,162.9232 41.725,165.7512 45.111,168.5212 L46.377,166.9732 C43.069,164.2662 40.152,161.5062 37.459,158.5342" id="Fill-27" sketch:type="MSShapeGroup"></path>
            <path d="M75.3765,117.437 L75.3785,102.747 L93.0795,102.747 L93.0795,105.726 C93.0795,106.374 93.6265,106.92 94.2735,106.92 L104.5615,106.92 C105.2315,106.92 105.7555,106.354 105.7555,105.629 L105.7555,102.747 L123.6525,102.747 L123.6525,117.283 C123.6115,117.368 123.5725,117.418 123.5485,117.441 L75.3765,117.437 Z M103.7555,104.92 L95.0795,104.92 L95.0795,97.796 L103.7555,97.796 L103.7555,104.92 Z M123.6525,86.348 L123.6525,100.747 L105.7555,100.747 L105.7555,96.991 C105.7555,96.344 105.2095,95.797 104.5615,95.797 L94.2735,95.797 C93.6265,95.797 93.0795,96.344 93.0795,96.991 L93.0795,100.747 L75.3785,100.747 L75.3805,86.344 L123.6525,86.348 Z M90.2265,80.132 L108.5115,80.132 L108.5115,84.247 L90.2265,84.247 L90.2265,80.132 Z M125.6015,117.786 L125.6525,117.632 L125.6525,86.314 C125.6525,85.172 124.8245,84.344 123.6825,84.344 L110.5115,84.344 L110.5115,79.423 C110.5115,78.675 109.9685,78.132 109.2205,78.132 L89.5175,78.132 C88.7695,78.132 88.2265,78.675 88.2265,79.423 L88.2265,84.344 L75.3475,84.344 C74.2055,84.344 73.3765,85.172 73.3765,86.314 L73.3765,117.47 C73.3765,118.612 74.2055,119.441 75.3475,119.441 L123.5855,119.441 C124.4895,119.441 125.2625,118.807 125.6015,117.786 L125.6015,117.786 Z" id="Fill-29" sketch:type="MSShapeGroup"></path>
            <path d="M63.6377,117.8286 L61.8217,118.6656 C65.8967,127.5126 73.0667,134.6826 82.0097,138.8556 L82.8547,137.0436 C74.3407,133.0706 67.5157,126.2456 63.6377,117.8286" id="Fill-31" sketch:type="MSShapeGroup"></path>
            <path d="M135.4214,119.8076 L137.1784,120.7626 C140.3474,114.9346 142.0544,108.6126 142.2494,101.9706 L140.2504,101.9116 C140.0644,108.2366 138.4394,114.2576 135.4214,119.8076" id="Fill-33" sketch:type="MSShapeGroup"></path>
            <path d="M74.5259,69.4224 C81.5819,63.6234 90.6289,60.4294 99.9999,60.4294 C107.6249,60.4294 114.9219,62.5224 121.1049,66.4834 L122.1839,64.7994 C115.6789,60.6314 108.0079,58.4294 99.9999,58.4294 C90.1669,58.4294 80.6689,61.7844 73.2559,67.8774 L74.5259,69.4224 Z" id="Fill-35" sketch:type="MSShapeGroup"></path>
            <path d="M169.4263,61.8853 L174.6093,61.8853 L174.6093,64.3753 L172.3733,64.4473 L172.4383,66.4463 L174.6093,66.3763 L174.6093,68.3023 L172.4383,68.2323 L172.3733,70.2313 L174.6093,70.3033 L174.6093,72.2113 L172.4053,72.2113 L172.4053,74.2113 L174.6093,74.2113 L174.6093,76.0933 L172.4053,76.0933 L172.4053,78.0933 L174.6093,78.0933 L174.6093,80.0013 L172.3733,80.0733 L172.4383,82.0723 L174.6093,82.0023 L174.6093,83.9293 L172.4383,83.8593 L172.3733,85.8583 L174.6093,85.9303 L174.6093,89.1973 L169.4263,89.1973 L169.4263,61.8853 Z M167.4263,91.1973 L176.6093,91.1973 L176.6093,59.8853 L167.4263,59.8853 L167.4263,91.1973 Z" id="Fill-37" sketch:type="MSShapeGroup"></path>
            <path d="M61.8608,147.2979 L62.2148,147.2989 L62.2148,151.1189 L61.8608,151.1199 L58.9308,149.2089 L61.8608,147.2979 Z M95.7968,151.0269 L64.2148,151.1129 L64.2148,147.3039 L95.7968,147.3909 L95.7968,151.0269 Z M97.7968,153.0209 L97.7968,145.3969 L61.2688,145.2959 L55.2698,149.2089 L61.2688,153.1219 L97.7968,153.0209 Z" id="Fill-39" sketch:type="MSShapeGroup"></path>
            <path d="M45.1616,46.3555 C50.1766,46.3555 54.2556,50.4355 54.2556,55.4495 C54.2556,60.4645 50.1766,64.5435 45.1616,64.5435 C40.1476,64.5435 36.0676,60.4645 36.0676,55.4495 C36.0676,50.4355 40.1476,46.3555 45.1616,46.3555 L45.1616,46.3555 Z M60.8536,69.5365 C61.0906,69.7205 61.1316,69.9555 61.1356,70.0795 C61.1406,70.2875 61.0576,70.4825 60.9066,70.6155 L60.2756,71.2425 C59.8916,71.6265 59.3556,71.6265 58.9716,71.2425 L52.2046,64.4765 L53.9946,62.6875 L60.7606,69.4545 L60.8536,69.5365 Z M45.1616,66.5435 C46.9826,66.5435 48.6976,66.0945 50.2146,65.3135 L57.5576,72.6565 C58.1366,73.2365 58.8806,73.5255 59.6236,73.5255 C60.3666,73.5255 61.1106,73.2365 61.6896,72.6575 L62.2516,72.0955 C62.8356,71.5695 63.1576,70.8155 63.1346,70.0215 C63.1116,69.2345 62.7486,68.5015 62.1356,68.0005 L54.8976,60.7625 C55.7626,59.1835 56.2556,57.3735 56.2556,55.4495 C56.2556,49.3325 51.2786,44.3555 45.1616,44.3555 C39.0446,44.3555 34.0676,49.3325 34.0676,55.4495 C34.0676,61.5665 39.0446,66.5435 45.1616,66.5435 L45.1616,66.5435 Z" id="Fill-41" sketch:type="MSShapeGroup"></path>
            <path d="M40.8218,58.5278 C39.1638,56.8698 39.1718,54.1008 40.8378,52.3548 L39.3918,50.9738 C36.9808,53.4998 36.9888,57.5228 39.4078,59.9418 L40.8218,58.5278 Z" id="Fill-43" sketch:type="MSShapeGroup"></path>
            <path d="M166.4854,144.1323 C162.0594,144.1323 158.4594,140.5313 158.4594,136.1053 L158.4594,129.6323 L174.5114,129.6323 L174.5114,136.1053 C174.5114,140.5313 170.9114,144.1323 166.4854,144.1323 M165.3964,119.9123 L165.4744,127.6323 L158.4704,127.6323 C158.5794,123.6783 161.5574,120.4363 165.3964,119.9123 M174.5004,127.6323 L167.4744,127.6323 L167.3964,119.8843 C171.3204,120.3303 174.3894,123.6163 174.5004,127.6323 M167.5064,117.8813 C167.2964,116.6323 166.4924,115.4653 165.4934,114.7993 C164.3414,114.0173 162.7434,113.7773 161.0514,113.5243 C157.7054,113.0233 156.1294,112.5693 156.1294,110.5793 C156.1294,108.5503 159.3954,108.0453 164.0094,107.5533 C168.8234,107.0403 174.2794,106.4593 174.2794,102.0383 C174.2794,100.7333 173.3884,96.4763 161.9234,96.4763 C153.1904,96.4763 147.9764,94.3103 147.9764,90.6823 C147.9764,88.9193 148.5084,87.5773 149.6024,86.5823 C152.1414,84.2713 156.8304,84.6843 156.8784,84.6893 L157.0704,82.6983 C156.8424,82.6753 151.4654,82.1903 148.2624,85.0973 C146.7454,86.4733 145.9764,88.3533 145.9764,90.6823 C145.9764,95.6353 151.7894,98.4763 161.9234,98.4763 C169.0774,98.4763 172.2794,100.2653 172.2794,102.0383 C172.2794,104.4723 168.7644,105.0353 163.7974,105.5653 C159.0444,106.0713 154.1294,106.5953 154.1294,110.5793 C154.1294,114.5093 157.9584,115.0833 160.7554,115.5023 C162.1514,115.7113 163.5954,115.9273 164.3774,116.4583 C164.8634,116.7823 165.2774,117.3203 165.4644,117.8813 C160.4144,118.3943 156.4594,122.6723 156.4594,127.8553 L156.4594,136.1053 C156.4594,141.6343 160.9574,146.1323 166.4854,146.1323 C172.0134,146.1323 176.5114,141.6343 176.5114,136.1053 L176.5114,127.8553 C176.5114,122.6723 172.5574,118.3943 167.5064,117.8813" id="Fill-45" sketch:type="MSShapeGroup"></path>
            <path d="M160.4927,43.3833 C161.8697,42.8583 162.2907,43.2803 162.4297,43.4203 L163.3757,44.3663 C163.8037,44.7933 163.7597,45.4333 163.2707,45.9223 L150.4387,58.7553 L150.7767,59.4053 C152.4007,62.5293 151.8087,66.3103 149.3047,68.8153 C147.4687,70.6513 145.4747,71.6213 143.5377,71.6213 C143.0327,71.6213 142.5587,71.5663 142.0877,71.4493 L146.9887,66.5483 L145.5937,61.1993 L140.0367,59.8103 L135.2407,64.6073 C134.6297,62.2393 135.4987,59.8693 137.8687,57.3963 C139.4347,55.8293 141.3957,55.0023 143.5377,55.0023 C144.7927,55.0023 146.0517,55.2913 147.0827,55.8163 L147.7297,56.1453 L160.4927,43.3833 Z M147.3207,53.7273 C146.1577,53.2513 144.8647,53.0023 143.5377,53.0023 C140.8537,53.0023 138.4037,54.0323 136.4397,55.9973 C133.2797,59.2943 132.3207,62.6633 133.5907,66.0093 C133.7767,66.5013 134.1947,66.8613 134.7027,66.9703 C135.2127,67.0823 135.7437,66.9283 136.1217,66.5543 L140.6497,62.0253 L143.9577,62.8523 L144.7637,65.9453 L140.1377,70.5713 C139.7647,70.9443 139.6097,71.4733 139.7217,71.9873 C139.8327,72.5023 140.1937,72.9193 140.6857,73.1033 C141.6277,73.4573 142.5347,73.6213 143.5377,73.6213 C146.0167,73.6213 148.4987,72.4483 150.7187,70.2293 C153.6667,67.2813 154.4887,62.9143 152.8697,59.1533 L164.6847,47.3363 C165.9437,46.0773 165.9897,44.1523 164.7907,42.9523 L163.8447,42.0063 C163.1537,41.3153 161.8667,40.6793 159.6577,41.5623 C159.4647,41.6403 159.2927,41.7553 159.1457,41.9023 L147.3207,53.7273 Z" id="Fill-47" sketch:type="MSShapeGroup"></path>
            <path d="M79.2344,172.1191 L78.5734,172.1111 L78.3164,172.7231 L78.2074,172.9941 C77.3574,176.4951 74.0604,179.0371 70.3684,179.0371 C65.9224,179.0371 62.3064,175.4201 62.3054,170.9511 C62.2574,168.9051 63.0434,166.9481 64.5164,165.4401 C66.0204,163.9011 68.1144,163.0181 70.2624,163.0181 C73.6044,163.0181 76.4524,164.9391 77.6954,168.0321 L77.9474,168.6591 L81.7304,168.6591 L83.5664,166.8241 L85.5884,168.8461 L87.6094,166.8241 L89.2324,168.4461 L92.1064,168.4461 L93.9964,170.3361 L92.2124,172.1191 L79.2344,172.1191 Z M93.4944,173.6651 L95.7314,171.4291 C96.0224,171.1361 96.1834,170.7481 96.1834,170.3361 C96.1834,169.9241 96.0224,169.5361 95.7294,169.2411 L93.3884,166.9001 C93.0954,166.6071 92.7074,166.4461 92.2934,166.4461 L90.0604,166.4461 L88.7044,165.0911 C88.1014,164.4871 87.1184,164.4871 86.5154,165.0911 L85.5884,166.0181 L84.6604,165.0911 C84.0574,164.4871 83.0744,164.4871 82.4714,165.0911 L80.9024,166.6591 L79.2744,166.6591 C77.6104,163.2101 74.1444,161.0181 70.2624,161.0181 C67.5794,161.0181 64.9634,162.1201 63.0854,164.0421 C61.2334,165.9381 60.2454,168.4091 60.3064,170.9741 C60.3064,176.5231 64.8204,181.0371 70.3684,181.0371 C74.7394,181.0371 78.6704,178.1651 79.9664,174.1191 L92.3994,174.1191 C92.8134,174.1191 93.2014,173.9581 93.4944,173.6651 L93.4944,173.6651 Z" id="Fill-49" sketch:type="MSShapeGroup"></path>
            <path d="M67.7319,172.2603 C67.0519,172.2603 66.4999,171.7073 66.4999,171.0283 C66.4999,170.3483 67.0519,169.7953 67.7319,169.7953 C68.4119,169.7953 68.9639,170.3483 68.9639,171.0283 C68.9639,171.7073 68.4119,172.2603 67.7319,172.2603 M67.7319,167.7953 C65.9499,167.7953 64.4999,169.2453 64.4999,171.0283 C64.4999,172.8103 65.9499,174.2603 67.7319,174.2603 C69.5139,174.2603 70.9639,172.8103 70.9639,171.0283 C70.9639,169.2453 69.5139,167.7953 67.7319,167.7953" id="Fill-51" sketch:type="MSShapeGroup"></path>
        </g>
    </g>
</svg>