<?xml version="1.0" encoding="UTF-8" standalone="no"?>
<svg width="77px" height="61px" viewBox="0 0 77 61" version="1.1" xmlns="http://www.w3.org/2000/svg" xmlns:xlink="http://www.w3.org/1999/xlink" xmlns:sketch="http://www.bohemiancoding.com/sketch/ns">
    <!-- Generator: Sketch 3.4.4 (17249) - http://www.bohemiancoding.com/sketch -->
    <title>icon-tools-hello</title>
    <desc>Created with Sketch.</desc>
    <defs>
        <path id="path-1" d="M0,0 L76.596,0 L76.596,61 L0,61 L0,0 Z"></path>
        <path id="path-3" d="M0,0 L76.596,0 L76.596,61 L0,61 L0,0 Z"></path>
    </defs>
    <g id="Page-1" stroke="none" stroke-width="1" fill="none" fill-rule="evenodd" sketch:type="MSPage">
        <g id="icon-tools-hello" sketch:type="MSLayerGroup">
            <g id="Group-3">
                <mask id="mask-2" sketch:name="Clip 2" fill="white">
                    <use xlink:href="#path-1"></use>
                </mask>
                <g id="Clip-2"></g>
                <path d="M75.5958,31.4902 C75.5958,33.3962 74.0448,34.9462 72.1398,34.9462 L69.5018,34.9462 C69.2258,34.9462 69.0018,35.1702 69.0018,35.4462 L69.0018,45.4482 L58.6468,35.0932 C58.5528,34.9992 58.4258,34.9462 58.2928,34.9462 L51.5398,34.9462 L51.5398,23.9062 C51.5398,21.4482 49.5408,19.4492 47.0838,19.4492 L26.4848,19.4492 L26.4848,4.4562 C26.4848,2.5512 28.0348,1.0002 29.9408,1.0002 L72.1398,1.0002 C74.0448,1.0002 75.5958,2.5512 75.5958,4.4562 L75.5958,31.4902 Z M50.5398,34.9462 L29.9408,34.9462 C28.0348,34.9462 26.4848,33.3962 26.4848,31.4902 L26.4848,20.4492 L47.0838,20.4492 C48.9898,20.4492 50.5398,22.0002 50.5398,23.9062 L50.5398,34.9462 Z M50.5398,45.3352 C50.5398,47.2402 48.9898,48.7912 47.0838,48.7912 L18.3028,48.7912 C18.1698,48.7912 18.0428,48.8442 17.9488,48.9372 L7.5938,59.2932 L7.5938,49.2912 C7.5938,49.0142 7.3698,48.7912 7.0938,48.7912 L4.4558,48.7912 C2.5508,48.7912 0.9998,47.2402 0.9998,45.3352 L0.9998,23.9062 C0.9998,22.0002 2.5508,20.4492 4.4558,20.4492 L25.4848,20.4492 L25.4848,31.4902 C25.4848,33.9472 27.4838,35.9462 29.9408,35.9462 L50.5398,35.9462 L50.5398,45.3352 Z M72.1398,0.0002 L29.9408,0.0002 C27.4838,0.0002 25.4848,1.9992 25.4848,4.4562 L25.4848,19.4492 L4.4558,19.4492 C1.9988,19.4492 -0.0002,21.4482 -0.0002,23.9062 L-0.0002,45.3352 C-0.0002,47.7922 1.9988,49.7912 4.4558,49.7912 L6.5938,49.7912 L6.5938,60.5002 C6.5938,60.7022 6.7158,60.8852 6.9028,60.9622 C6.9638,60.9882 7.0298,61.0002 7.0938,61.0002 C7.2238,61.0002 7.3518,60.9492 7.4478,60.8532 L18.5098,49.7912 L47.0838,49.7912 C49.5408,49.7912 51.5398,47.7922 51.5398,45.3352 L51.5398,35.9462 L58.0858,35.9462 L69.1488,47.0092 C69.2438,47.1042 69.3718,47.1552 69.5018,47.1552 C69.5668,47.1552 69.6318,47.1432 69.6938,47.1172 C69.8798,47.0402 70.0018,46.8572 70.0018,46.6552 L70.0018,35.9462 L72.1398,35.9462 C74.5968,35.9462 76.5958,33.9472 76.5958,31.4902 L76.5958,4.4562 C76.5958,1.9992 74.5968,0.0002 72.1398,0.0002 L72.1398,0.0002 Z" id="Fill-1" fill="#A1D3B2" sketch:type="MSShapeGroup" mask="url(#mask-2)"></path>
            </g>
            <path d="M19.9795,25.9248 L6.4165,25.9248 C6.1405,25.9248 5.9165,26.1488 5.9165,26.4248 C5.9165,26.7008 6.1405,26.9248 6.4165,26.9248 L19.9795,26.9248 C20.2555,26.9248 20.4795,26.7008 20.4795,26.4248 C20.4795,26.1488 20.2555,25.9248 19.9795,25.9248" id="Fill-4" fill="#A1D3B2" sketch:type="MSShapeGroup"></path>
            <path d="M19.9795,30.8569 L6.4165,30.8569 C6.1405,30.8569 5.9165,31.0809 5.9165,31.3569 C5.9165,31.6329 6.1405,31.8569 6.4165,31.8569 L19.9795,31.8569 C20.2555,31.8569 20.4795,31.6329 20.4795,31.3569 C20.4795,31.0809 20.2555,30.8569 19.9795,30.8569" id="Fill-6" fill="#A1D3B2" sketch:type="MSShapeGroup"></path>
            <path d="M68.6719,17.3169 L55.1089,17.3169 C54.8319,17.3169 54.6089,17.5409 54.6089,17.8169 C54.6089,18.0929 54.8319,18.3169 55.1089,18.3169 L68.6719,18.3169 C68.9479,18.3169 69.1719,18.0929 69.1719,17.8169 C69.1719,17.5409 68.9479,17.3169 68.6719,17.3169" id="Fill-8" fill="#A1D3B2" sketch:type="MSShapeGroup"></path>
            <path d="M68.6719,22.2485 L55.1089,22.2485 C54.8319,22.2485 54.6089,22.4725 54.6089,22.7485 C54.6089,23.0245 54.8319,23.2485 55.1089,23.2485 L68.6719,23.2485 C68.9479,23.2485 69.1719,23.0245 69.1719,22.7485 C69.1719,22.4725 68.9479,22.2485 68.6719,22.2485" id="Fill-10" fill="#A1D3B2" sketch:type="MSShapeGroup"></path>
            <mask id="mask-4" sketch:name="Clip 13" fill="white">
                <use xlink:href="#path-3"></use>
            </mask>
            <g id="Clip-13"></g>
            <path d="M67.671,11.885 L33.914,11.885 L33.914,8.953 L67.671,8.953 L67.671,11.885 Z M68.671,7.953 L32.914,7.953 L32.914,12.885 L68.671,12.885 L68.671,7.953 Z" id="Fill-12" fill="#A1D3B2" sketch:type="MSShapeGroup" mask="url(#mask-4)"></path>
            <path d="M43.6799,26.4702 C43.1159,26.4702 42.6589,26.9272 42.6589,27.4912 C42.6589,28.0542 43.1159,28.5112 43.6799,28.5112 C44.2439,28.5112 44.6999,28.0542 44.6999,27.4912 C44.6999,26.9272 44.2439,26.4702 43.6799,26.4702" id="Fill-14" fill="#A1D3B2" sketch:type="MSShapeGroup" mask="url(#mask-4)"></path>
            <path d="M38.5486,26.4702 C37.9856,26.4702 37.5286,26.9272 37.5286,27.4912 C37.5286,28.0542 37.9856,28.5112 38.5486,28.5112 C39.1126,28.5112 39.5696,28.0542 39.5696,27.4912 C39.5696,26.9272 39.1126,26.4702 38.5486,26.4702" id="Fill-15" fill="#A1D3B2" sketch:type="MSShapeGroup" mask="url(#mask-4)"></path>
            <path d="M33.4176,26.4702 C32.8536,26.4702 32.3966,26.9272 32.3966,27.4912 C32.3966,28.0542 32.8536,28.5112 33.4176,28.5112 C33.9816,28.5112 34.4376,28.0542 34.4376,27.4912 C34.4376,26.9272 33.9816,26.4702 33.4176,26.4702" id="Fill-16" fill="#A1D3B2" sketch:type="MSShapeGroup" mask="url(#mask-4)"></path>
        </g>
    </g>
</svg>