<?xml version="1.0" encoding="UTF-8" standalone="no"?>
<svg width="88px" height="57px" viewBox="0 0 88 57" version="1.1" xmlns="http://www.w3.org/2000/svg" xmlns:xlink="http://www.w3.org/1999/xlink" xmlns:sketch="http://www.bohemiancoding.com/sketch/ns">
    <!-- Generator: Sketch 3.4.4 (17249) - http://www.bohemiancoding.com/sketch -->
    <title>icon-tools-explore</title>
    <desc>Created with Sketch.</desc>
    <defs></defs>
    <g id="Page-1" stroke="none" stroke-width="1" fill="none" fill-rule="evenodd" sketch:type="MSPage">
        <g id="icon-tools-explore" sketch:type="MSLayerGroup" fill="#A1D3B2">
            <path d="M25.4548,18.3486 C25.5388,18.5326 25.7198,18.6406 25.9088,18.6406 C25.9788,18.6406 26.0498,18.6256 26.1168,18.5946 C26.3678,18.4796 26.4778,18.1826 26.3628,17.9316 L23.6338,11.9816 C23.5178,11.7296 23.2188,11.6206 22.9718,11.7356 C22.7208,11.8506 22.6098,12.1476 22.7258,12.3986 L25.4548,18.3486 Z" id="Fill-1" sketch:type="MSShapeGroup"></path>
            <path d="M59.9968,18.5928 C60.0648,18.6248 60.1388,18.6398 60.2098,18.6398 C60.3968,18.6398 60.5768,18.5338 60.6618,18.3528 L63.4618,12.4028 C63.5798,12.1528 63.4728,11.8548 63.2228,11.7378 C62.9738,11.6198 62.6748,11.7268 62.5578,11.9768 L59.7578,17.9268 C59.6398,18.1768 59.7468,18.4748 59.9968,18.5928" id="Fill-3" sketch:type="MSShapeGroup"></path>
            <path d="M87.3963,20.0166 C87.2723,19.7696 86.9733,19.6706 86.7253,19.7926 L72.8663,26.7226 C72.6193,26.8466 72.5193,27.1466 72.6423,27.3936 C72.7303,27.5686 72.9073,27.6696 73.0893,27.6696 C73.1653,27.6696 73.2413,27.6526 73.3133,27.6176 L87.1723,20.6876 C87.4193,20.5636 87.5193,20.2636 87.3963,20.0166" id="Fill-5" sketch:type="MSShapeGroup"></path>
            <path d="M14.4295,27.6699 C14.6135,27.6699 14.7895,27.5679 14.8765,27.3929 C14.9995,27.1459 14.8995,26.8449 14.6525,26.7219 L0.7225,19.7929 C0.4765,19.6699 0.1755,19.7699 0.0525,20.0179 C-0.0705,20.2649 0.0305,20.5649 0.2775,20.6879 L14.2065,27.6179 C14.2785,27.6529 14.3545,27.6699 14.4295,27.6699" id="Fill-7" sketch:type="MSShapeGroup"></path>
            <path d="M74.4939,54.9526 C73.9119,55.6186 73.0939,55.9996 72.2499,55.9996 L45.7419,55.9996 C45.1389,55.5426 44.7349,54.7946 44.4699,54.0786 L44.4699,50.9256 C44.8969,44.5896 50.7509,43.6206 52.0919,43.4856 C52.1189,43.4896 52.1489,43.4926 52.1779,43.4896 C52.4149,43.4806 52.9079,43.4626 52.9069,42.9686 C52.9059,42.6986 52.6639,42.4746 52.3939,42.4656 C51.0429,42.4146 46.5159,43.2626 44.4699,47.1796 L44.4699,37.9506 C44.4699,37.6736 44.2459,37.4506 43.9699,37.4506 C43.6929,37.4506 43.4699,37.6736 43.4699,37.9506 L43.4699,54.3426 C43.2139,54.9536 42.8289,55.5906 42.2619,55.9996 L21.2539,55.9996 C21.4819,54.8686 23.0539,48.4536 29.0539,48.0036 C33.0729,48.3306 34.3539,51.1786 34.4089,51.3066 C34.4909,51.4956 34.6759,51.6086 34.8689,51.6086 C34.9339,51.6086 35.0009,51.5966 35.0649,51.5686 C35.3179,51.4606 35.4359,51.1686 35.3299,50.9146 C35.2679,50.7686 33.8739,47.6256 29.6169,47.0646 C29.5359,47.0096 29.4439,46.9706 29.3399,46.9706 L29.3199,46.9706 C29.2169,46.9746 29.1279,46.9956 29.0269,47.0036 C28.7869,46.9866 28.5469,46.9706 28.2899,46.9706 C23.6829,46.9706 22.2429,42.8656 22.1829,42.6906 C22.0959,42.4306 21.8129,42.2896 21.5509,42.3766 C21.2899,42.4646 21.1479,42.7466 21.2349,43.0086 C21.2489,43.0506 22.5029,46.6416 26.2029,47.6826 C21.3589,49.7936 20.2489,55.9236 20.2359,55.9966 L20.2359,55.9996 L15.6889,55.9996 C14.8209,55.9996 13.9949,55.6286 13.4239,54.9816 C12.8319,54.3106 12.5689,53.4306 12.6849,52.5016 C13.4289,46.5256 15.9269,40.4616 19.7589,35.5716 C21.1049,36.9446 22.4529,37.6416 23.7769,37.6416 C23.7999,37.6416 23.8229,37.6406 23.8459,37.6406 C25.5959,37.6086 26.6089,36.3536 26.6509,36.3006 C26.8219,36.0846 26.7859,35.7726 26.5709,35.6006 C26.3569,35.4296 26.0439,35.4646 25.8689,35.6776 C25.8379,35.7166 25.0889,36.6246 23.8129,36.6406 C22.6909,36.6376 21.5729,36.0256 20.3899,34.7856 C22.2209,32.5936 24.3349,30.6716 26.6849,29.1316 C26.7449,29.1906 26.8149,29.2406 26.9019,29.2636 C26.9539,29.2776 32.1089,30.6986 31.8499,36.5276 C31.5539,43.1976 37.2539,44.1746 37.3109,44.1836 C37.3379,44.1876 37.3639,44.1896 37.3899,44.1896 C37.6319,44.1896 37.8429,44.0146 37.8829,43.7686 C37.9269,43.4966 37.7409,43.2406 37.4689,43.1966 C37.2879,43.1666 33.4499,42.4696 32.9119,38.0666 C33.0589,38.0786 33.2109,38.1046 33.3539,38.1046 C34.3739,38.1046 35.2909,37.8066 36.0899,37.2116 C38.3739,35.5136 38.8459,32.0016 38.8649,31.8536 C38.8999,31.5796 38.7069,31.3296 38.4319,31.2946 C38.1689,31.2556 37.9089,31.4526 37.8729,31.7256 C37.8689,31.7586 37.4319,34.9706 35.4899,36.4116 C34.7479,36.9626 33.8589,37.1696 32.8519,37.0596 C32.8509,36.8976 32.8409,36.7446 32.8479,36.5726 C33.0889,31.1666 29.1909,29.0846 27.7129,28.4926 C31.1949,26.4386 35.1579,25.2206 39.4889,25.2206 C41.4589,25.2206 41.9249,26.3816 42.3749,27.5046 C42.6819,28.2716 43.0309,29.1406 43.9699,29.1406 C44.9089,29.1406 45.2329,28.2786 45.5189,27.5186 C45.9449,26.3886 46.3859,25.2206 48.4489,25.2206 C54.4039,25.2206 59.6509,27.4636 63.8999,31.0136 C63.8389,31.0156 63.7779,31.0266 63.7199,31.0516 C61.7899,31.8936 60.5439,33.0696 60.0179,34.5486 C59.2999,36.5686 60.2159,38.3826 60.2549,38.4596 C60.3439,38.6306 60.5169,38.7296 60.6979,38.7296 C60.7749,38.7296 60.8529,38.7116 60.9269,38.6746 C61.1719,38.5486 61.2679,38.2476 61.1439,38.0016 C61.1369,37.9876 60.3869,36.4786 60.9649,34.8716 C61.3959,33.6696 62.4579,32.6926 64.1199,31.9686 C64.3259,31.8786 64.4329,31.6666 64.4089,31.4536 C66.4769,33.2676 68.2959,35.3926 69.8299,37.7196 C69.6709,37.8566 69.6059,38.0816 69.6889,38.2856 C69.7259,38.3756 70.5449,40.5246 66.6319,43.4286 C62.0029,46.8636 64.6389,52.0586 64.6659,52.1116 C64.7549,52.2826 64.9289,52.3796 65.1089,52.3796 C65.1859,52.3796 65.2649,52.3616 65.3399,52.3236 C65.5839,52.1966 65.6799,51.8946 65.5529,51.6496 C65.4589,51.4676 63.2909,47.1526 67.2269,44.2316 C69.9779,42.1906 70.6619,40.3726 70.7599,39.2096 C73.1699,43.3156 74.7279,47.9326 75.2529,52.4966 C75.2539,52.4996 75.2539,52.5026 75.2539,52.5056 C75.3699,53.3776 75.0939,54.2686 74.4939,54.9526 M48.4489,24.2206 C45.6929,24.2206 45.0249,25.9936 44.5839,27.1666 C44.3289,27.8436 44.1929,28.1406 43.9699,28.1406 C43.7329,28.1406 43.5779,27.8176 43.3039,27.1326 C42.8379,25.9726 42.1349,24.2206 39.4889,24.2206 C31.7669,24.2206 24.6369,27.9876 19.4919,34.1016 C19.3929,34.1106 19.2959,34.1406 19.2159,34.2096 C19.0859,34.3206 19.0359,34.4826 19.0519,34.6406 C15.2079,39.4166 12.5439,45.5356 11.6929,52.3776 C11.5409,53.5946 11.8889,54.7546 12.6739,55.6436 C13.4349,56.5056 14.5339,56.9996 15.6889,56.9996 L72.2499,56.9996 C73.3819,56.9996 74.4729,56.4946 75.2469,55.6116 C76.0339,54.7126 76.3979,53.5336 76.2459,52.3776 C74.4299,36.5886 62.2209,24.2206 48.4489,24.2206" id="Fill-9" sketch:type="MSShapeGroup"></path>
            <path d="M58.2498,46.2002 C56.4208,46.2002 53.0098,43.0782 53.0098,37.1102 C53.0098,34.9052 52.4348,33.4172 51.3008,32.6872 C49.7398,31.6812 47.7658,32.5562 47.6828,32.5952 C47.4318,32.7092 47.3198,33.0062 47.4348,33.2572 C47.5498,33.5092 47.8468,33.6202 48.0968,33.5052 C48.1108,33.4982 49.6528,32.8132 50.7598,33.5282 C51.5888,34.0612 52.0098,35.2672 52.0098,37.1102 C52.0098,43.6072 55.6988,47.2002 58.2498,47.2002 C58.5258,47.2002 58.7498,46.9762 58.7498,46.7002 C58.7498,46.4242 58.5258,46.2002 58.2498,46.2002" id="Fill-11" sketch:type="MSShapeGroup"></path>
            <path d="M53.2625,50.543 C52.9735,50.51 52.7415,50.713 52.7125,50.988 C52.6835,51.262 52.8825,51.508 53.1575,51.537 C53.1795,51.54 55.3335,51.808 55.0905,55.346 C55.0725,55.621 55.2805,55.86 55.5555,55.879 C55.5675,55.879 55.5785,55.88 55.5905,55.88 C55.8505,55.88 56.0705,55.678 56.0885,55.414 C56.3975,50.925 53.2935,50.546 53.2625,50.543" id="Fill-13" sketch:type="MSShapeGroup"></path>
            <path d="M44.2498,17.0303 C44.5258,17.0303 44.7498,16.8063 44.7498,16.5303 L44.7498,1.0603 C44.7498,0.7833 44.5258,0.5603 44.2498,0.5603 C43.9738,0.5603 43.7498,0.7833 43.7498,1.0603 L43.7498,16.5303 C43.7498,16.8063 43.9738,17.0303 44.2498,17.0303" id="Fill-15" sketch:type="MSShapeGroup"></path>
        </g>
    </g>
</svg>