<?xml version="1.0" encoding="UTF-8" standalone="no"?>
<svg width="106px" height="76px" viewBox="0 0 106 76" version="1.1" xmlns="http://www.w3.org/2000/svg" xmlns:xlink="http://www.w3.org/1999/xlink" xmlns:sketch="http://www.bohemiancoding.com/sketch/ns">
    <!-- Generator: Sketch 3.2.2 (9983) - http://www.bohemiancoding.com/sketch -->
    <title>icon-attend</title>
    <desc>Created with Sketch.</desc>
    <defs/>
    <g id="Page-1" stroke="none" stroke-width="1" fill="none" fill-rule="evenodd" sketch:type="MSPage">
        <g id="Teach-Like-Mozilla" sketch:type="MSArtboardGroup" transform="translate(-697.000000, -939.000000)">
            <g id="icon-attend" sketch:type="MSLayerGroup" transform="translate(700.000000, 940.000000)">
                <rect id="Rectangle-56" stroke="#AFDBC0" stroke-width="3" fill="#FFFFFF" sketch:type="MSShapeGroup" x="0" y="2" width="100" height="70" rx="4"/>
                <rect id="Rectangle-57" fill="#AFDBC0" sketch:type="MSShapeGroup" x="0" y="0" width="100" height="14" rx="4"/>
                <rect id="Rectangle-63" fill="#AEDBC0" sketch:type="MSShapeGroup" x="0" y="12" width="100" height="8"/>
                <rect id="Rectangle-62" fill="#FFFFFF" sketch:type="MSShapeGroup" x="30" y="5" width="40" height="6" rx="2"/>
                <path d="M56.1676923,32.8412857 C55.62,32.6633095 55.0489231,32.566119 54.4689231,32.5224762 C52.1624615,31.6994524 49.3898462,31.9885476 47.1033846,32.5014286 C44.0612308,33.1842381 41.4572308,35.0871905 39.4541538,37.4364762 C38.6436923,38.1833571 37.9064615,39.0060714 37.2643077,39.8882143 C33.3313846,45.2906429 35.5541538,54.445119 41.9021538,56.952881 C47.8747692,59.3126905 56.1061538,57.6295 59.9270769,52.228619 C60.0793846,52.0131905 60.2184615,51.7875476 60.3507692,51.559119 C60.7744615,51.0208571 61.1572308,50.4488571 61.4898462,49.8428095 C64.6366154,44.1095 62.8664615,35.0187857 56.1676923,32.8412857 L56.1676923,32.8412857 Z M53.8726154,55.1396905 C50.0486154,56.7325 45.4547692,56.8491905 41.8113846,54.7339048 C39.9963077,53.6802857 38.6683077,51.9259048 37.6378462,50.1337619 C36.3452308,47.8850714 36.412,45.3943333 37.1993846,42.9942857 C37.764,41.2720952 38.7206154,39.6443095 39.924,38.2180238 C41.2523077,37.005 42.8015385,36.0194762 44.3384615,35.2955 C46.2710769,34.3858095 48.4153846,34.0054048 50.5073846,33.6912381 C51.8455385,33.4906667 53.168,33.3739762 54.4507692,33.5058333 C54.8963077,33.6915476 55.3156923,33.9190476 55.6966154,34.197619 C57.0301538,35.4929762 58.7144615,36.3011429 59.8184615,37.8664048 C61.4781538,40.2184762 61.6836923,42.8837857 61.2449231,45.6453571 C60.9427692,47.5430476 60.4738462,49.3661429 59.5621538,51.0555238 C58.0993846,52.8535476 56.0975385,54.2132857 53.8726154,55.1396905 L53.8726154,55.1396905 Z M47.2756923,33.3665476 C47.836,33.214881 48.4175385,33.0907619 49.0110769,33.0053333 C48.4289231,33.1090238 47.8501538,33.2281905 47.2756923,33.3665476 L47.2756923,33.3665476 Z M59.9590769,36.5825 C59.6212308,36.2147857 59.2553846,35.8851429 58.8729231,35.5777857 C58.8723077,35.497 58.8495385,35.4152857 58.8018462,35.3366667 C59.2350769,35.710881 59.6190769,36.1290476 59.9590769,36.5825 L59.9590769,36.5825 Z M41.8747692,55.9463095 C40.3566154,55.2721667 39.1175385,54.1315714 38.1858462,52.7445952 C39.4446154,54.2807619 41.064,55.548881 42.7113846,56.2180714 C43.1172308,56.3830476 43.5323077,56.5269762 43.9538462,56.6507857 C43.2356923,56.4725 42.5378462,56.2409762 41.8747692,55.9463095 L41.8747692,55.9463095 Z M43.8344615,45.5831429 C43.4006154,45.8369524 42.8218462,45.5685952 42.6501538,44.9693571 C42.6412308,44.9390238 42.6381538,44.9055952 42.6301538,44.8752619 C42.5393846,44.7053333 42.4729231,44.524881 42.4332308,44.376 C42.2421538,43.6625476 42.2729231,42.477381 42.9116923,41.9812143 C43.332,41.6543571 43.6747692,41.8202619 43.9123077,42.1415476 C43.9184615,42.1461905 43.9249231,42.1508333 43.9313846,42.1554762 C43.9332308,42.1567143 43.9350769,42.1570238 43.9369231,42.1582619 C44.3246154,42.3885476 44.4978462,42.972619 44.5892308,43.3827381 C44.7501538,44.1076429 44.8381538,45.4645952 43.8344615,45.5831429 L43.8344615,45.5831429 Z M55.4393846,44.5428333 C55.2566154,44.7019286 55.0406154,44.8003571 54.8209231,44.8396667 C54.5710769,44.9303571 54.3076923,44.908381 54.1003077,44.7365952 C54.0836923,44.727619 54.0683077,44.7174048 54.0523077,44.708119 C54.0449231,44.7037857 54.0369231,44.6988333 54.0292308,44.6945 C54.0138462,44.6845952 53.9990769,44.6746905 53.9843077,44.6635476 C53.9587692,44.6459048 53.9344615,44.6264048 53.9113846,44.6047381 C53.892,44.5877143 53.8741538,44.5691429 53.8563077,44.5505714 C53.852,44.5459286 53.848,44.5419048 53.8436923,44.5369524 C53.7323077,44.4165476 53.6436923,44.2642619 53.5923077,44.0754524 C53.5163077,43.7965714 53.5024615,43.4827143 53.5418462,43.1697857 C53.5741538,42.6612381 53.7135385,42.1430952 53.9150769,41.762381 C53.9698462,41.6602381 54.0606154,41.5961667 54.1621538,41.5636667 C54.1738462,41.5522143 54.1846154,41.5385952 54.1969231,41.5271429 C54.8523077,40.9443095 55.7390769,41.3835238 55.9569231,42.1721905 C56.1603077,42.9094762 56.0550769,44.0082857 55.4393846,44.5428333 L55.4393846,44.5428333 Z M53.3858462,47.0694762 C52.7015385,48.8164286 50.3987692,50.4757857 48.4852308,50.2718095 C47.1021538,50.1244762 45.4166154,49.5425714 45.4003077,47.8965238 C45.3941538,47.3047143 46.3058462,47.3053333 46.3116923,47.8965238 C46.3236923,49.0671429 48.0624615,49.4630238 48.9910769,49.3596429 C50.2753846,49.2169524 52.0092308,48.0977143 52.5070769,46.825881 C52.7193846,46.2823571 53.6012308,46.5185238 53.3858462,47.0694762 L53.3858462,47.0694762 Z" id="Shape" fill="#AFDBC0" sketch:type="MSShapeGroup"/>
            </g>
        </g>
    </g>
</svg>