<?xml version="1.0" encoding="UTF-8" standalone="no"?>
<svg width="74px" height="72px" viewBox="0 0 74 72" version="1.1" xmlns="http://www.w3.org/2000/svg" xmlns:xlink="http://www.w3.org/1999/xlink" xmlns:sketch="http://www.bohemiancoding.com/sketch/ns">
    <!-- Generator: Sketch 3.2.2 (9983) - http://www.bohemiancoding.com/sketch -->
    <title>icon-listen</title>
    <desc>Created with Sketch.</desc>
    <defs></defs>
    <g id="Page-1" stroke="none" stroke-width="1" fill="none" fill-rule="evenodd" sketch:type="MSPage">
        <g id="Teach-Like-Mozilla" sketch:type="MSArtboardGroup" transform="translate(-403.000000, -937.000000)" fill="#B0DCC1">
            <path d="M474.76156,971.905 C474.76156,952.6585 459.10306,937 439.85578,937 C420.6085,937 404.95,952.65928 404.95,971.905 L404.95,981.4795 C403.71604,983.65024 403,986.15482 403,988.8271 C403,996.54832 408.89914,1002.91858 416.42536,1003.66816 C417.16246,1006.23514 419.50402,1008.1321 422.30578,1008.1321 C425.69176,1008.1321 428.44906,1005.3748 428.44906,1001.9896 L428.44906,975.6646 C428.44906,972.27784 425.69176,969.52054 422.30578,969.52054 C419.50402,969.52054 417.16246,971.4175 416.42536,973.98448 C415.93396,974.0344 415.4488,974.1085 414.97066,974.20522 L414.97066,971.905 C414.97066,958.18324 426.13402,947.01988 439.85578,947.01988 C453.57754,947.01988 464.7409,958.18324 464.7409,971.905 L464.7409,974.20522 C464.26276,974.1085 463.7776,974.0344 463.2862,973.98448 C462.5491,971.4175 460.20754,969.52054 457.40578,969.52054 C454.0198,969.52054 451.2625,972.27784 451.2625,975.6646 L451.2625,1001.9896 C451.2625,1005.3748 454.0198,1008.1321 457.40578,1008.1321 C460.20754,1008.1321 462.5491,1006.23514 463.2862,1003.66816 C470.81164,1002.91858 476.71156,996.54832 476.71156,988.8271 C476.71156,986.15482 475.99552,983.65024 474.76156,981.4795 L474.76156,971.905 L474.76156,971.905 Z M473.00578,990.88162 C472.85758,991.69126 472.63138,992.4736 472.32016,993.2146 C472.06276,993.82924 471.74764,994.41346 471.39118,994.9696 C469.66192,997.6606 466.83598,999.57472 463.54906,1000.08562 L463.54906,977.56936 C463.9531,977.63176 464.3509,977.71444 464.7409,977.82052 C465.34618,977.98198 465.93274,978.18946 466.49434,978.4453 C467.10976,978.72454 467.69788,979.05214 468.24856,979.43122 C469.42714,980.24476 470.44972,981.2689 471.25,982.45528 C472.11424,983.7337 472.71796,985.19776 473.00578,986.77258 C473.12746,987.44104 473.2,988.12432 473.2,988.82788 C473.2,989.52988 473.12746,990.21394 473.00578,990.88162 L473.00578,990.88162 Z M454.77406,1001.99038 L454.77406,975.66538 C454.77406,974.2138 455.95498,973.03288 457.40578,973.03288 C458.85658,973.03288 460.0375,974.2138 460.0375,975.66538 L460.0375,1001.99038 C460.0375,1003.4404 458.85658,1004.62132 457.40578,1004.62132 C455.95498,1004.62132 454.77406,1003.4404 454.77406,1001.99038 L454.77406,1001.99038 Z M471.25,977.3026 C470.33818,976.5499 469.32652,975.91966 468.24856,975.40018 L468.24856,971.90578 C468.24856,956.24962 455.51272,943.51378 439.85578,943.51378 C424.19884,943.51378 411.463,956.24962 411.463,971.90578 L411.463,975.40018 C410.38504,975.91966 409.37338,976.55068 408.46156,977.3026 L408.46156,971.905 C408.46156,954.59602 422.54602,940.51156 439.85578,940.51156 C457.16554,940.51156 471.25,954.59602 471.25,971.905 L471.25,977.3026 L471.25,977.3026 Z M424.9375,975.66538 L424.9375,1001.99038 C424.9375,1003.4404 423.75658,1004.62132 422.30578,1004.62132 C420.85498,1004.62132 419.67406,1003.4404 419.67406,1001.99038 L419.67406,975.66538 C419.67406,974.2138 420.85498,973.03288 422.30578,973.03288 C423.75658,973.03288 424.9375,974.21302 424.9375,975.66538 L424.9375,975.66538 Z M416.1625,1000.08562 C412.87558,999.5755 410.04964,997.66138 408.32038,994.9696 C407.96392,994.41346 407.6488,993.82924 407.3914,993.2146 C407.08018,992.4736 406.85398,991.69204 406.70578,990.88162 C406.5841,990.21394 406.51156,989.52988 406.51156,988.8271 C406.51156,988.12432 406.5841,987.44104 406.70578,986.7718 C406.9936,985.1962 407.59732,983.73292 408.46156,982.4545 C409.26106,981.26812 410.28442,980.24398 411.463,979.43044 C412.01368,979.05214 412.6018,978.72454 413.21722,978.44452 C413.77882,978.18868 414.36538,977.9812 414.97066,977.81974 C415.36066,977.71288 415.75924,977.63098 416.1625,977.56858 L416.1625,1000.08562 L416.1625,1000.08562 Z" id="icon-listen" sketch:type="MSShapeGroup"></path>
        </g>
    </g>
</svg>