<?xml version="1.0" encoding="utf-8"?>
<!-- Generator: Adobe Illustrator 18.1.1, SVG Export Plug-In . SVG Version: 6.00 Build 0)  -->
<!DOCTYPE svg PUBLIC "-//W3C//DTD SVG 1.1//EN" "http://www.w3.org/Graphics/SVG/1.1/DTD/svg11.dtd">
<svg version="1.1" id="Layer_1" xmlns="http://www.w3.org/2000/svg" xmlns:xlink="http://www.w3.org/1999/xlink" x="0px" y="0px"
	 viewBox="-249.3 189.8 78.7 123.5" enable-background="new -249.3 189.8 78.7 123.5" xml:space="preserve">
<path fill="none" stroke="#AFDBC0" stroke-width="2.549" stroke-miterlimit="10" d="M-232.2,278.4c-7.3,0-13.2-5.9-13.2-13.2
	s5.9-13.2,13.2-13.2"/>
<path fill="none" stroke="#AFDBC0" stroke-width="2.549" stroke-miterlimit="10" d="M-187.9,251.9c7.3,0,13.2,5.9,13.2,13.2
	s-5.9,13.2-13.2,13.2"/>
<path fill="none" stroke="#AFDBC0" stroke-width="2.549" stroke-linecap="round" stroke-miterlimit="10" d="M-243.9,258.7v-10.6
	c0-18.6,15.1-33.7,33.7-33.7s33.7,15.1,33.7,33.7v9.9"/>
<path fill="none" stroke="#AFDBC0" stroke-width="2.549" stroke-linecap="round" stroke-miterlimit="10" d="M-236.9,252.7v-4.6
	c0-14.7,11.9-26.7,26.7-26.7c14.7,0,26.7,11.9,26.7,26.7v4.1"/>
<path fill="none" stroke="#AFDBC0" stroke-width="2.549" stroke-miterlimit="10" d="M-227.9,282.1L-227.9,282.1
	c-2.5,0-4.5-2-4.5-4.5v-25.3c0-2.5,2-4.5,4.5-4.5h0c2.5,0,4.5,2,4.5,4.5v25.3C-223.4,280.1-225.4,282.1-227.9,282.1z"/>
<path fill="none" stroke="#AFDBC0" stroke-width="2.549" stroke-miterlimit="10" d="M-192.6,282.1L-192.6,282.1
	c-2.5,0-4.5-2-4.5-4.5v-25.3c0-2.5,2-4.5,4.5-4.5l0,0c2.5,0,4.5,2,4.5,4.5v25.3C-188.1,280.1-190.1,282.1-192.6,282.1z"/>
</svg>
