<?xml version="1.0" encoding="utf-8"?>
<!-- Generator: Adobe Illustrator 18.1.1, SVG Export Plug-In . SVG Version: 6.00 Build 0)  -->
<!DOCTYPE svg PUBLIC "-//W3C//DTD SVG 1.0//EN" "http://www.w3.org/TR/2001/REC-SVG-20010904/DTD/svg10.dtd">
<svg version="1.0" id="Layer_1" xmlns="http://www.w3.org/2000/svg" xmlns:xlink="http://www.w3.org/1999/xlink" x="0px" y="0px"
	 viewBox="134 218.2 130 86.4" enable-background="new 134 218.2 130 86.4" xml:space="preserve">
<line fill="none" stroke="#B0DBC0" stroke-width="3" stroke-linecap="round" stroke-miterlimit="10" x1="169.8" y1="238.2" x2="173.7" y2="246.7"/>
<line fill="none" stroke="#B0DBC0" stroke-width="3" stroke-linecap="round" stroke-miterlimit="10" x1="222.7" y1="246.7" x2="226.7" y2="238.2"/>
<line fill="none" stroke="#B0DBC0" stroke-width="3" stroke-linecap="round" stroke-miterlimit="10" x1="260.9" y1="249.7" x2="241.1" y2="259.6"/>
<line fill="none" stroke="#B0DBC0" stroke-width="3" stroke-linecap="round" stroke-miterlimit="10" x1="157.3" y1="259.6" x2="137.4" y2="249.7"/>
<path fill="#FFFFFF" stroke="#B0DBC0" stroke-width="3" stroke-miterlimit="10" d="M199.5,257.5"/>
<path fill="#FFFFFF" stroke="#B0DBC0" stroke-width="3" stroke-linecap="round" stroke-miterlimit="10" d="M260.8,264.7"/>
<g>
	<path fill="none" stroke="#B0DBC0" stroke-width="3" stroke-miterlimit="10" d="M244.9,295.7c0.4,3-2,5.8-5,5.8h-40.4h-40.4
		c-3,0-5.4-2.6-5-5.8c2.6-20.9,18.5-39.6,39-39.6c5.4,0,4.2,5.6,6.4,5.6s0.8-5.6,6.4-5.6C226.4,256.1,242.5,274.8,244.9,295.7z"/>
	<path fill="#FFFFFF" stroke="#B0DBC0" stroke-width="3" stroke-miterlimit="10" d="M199.5,269"/>
	
		<line fill="none" stroke="#B0DBC0" stroke-width="3" stroke-linecap="round" stroke-linejoin="round" stroke-miterlimit="10" x1="199.5" y1="275" x2="199.5" y2="301.5"/>
	
		<path fill="#FFFFFF" stroke="#B0DBC0" stroke-width="3" stroke-linecap="round" stroke-linejoin="round" stroke-miterlimit="10" d="
		M205.1,268c0,0,6.6-3,6.6,5.8s5,13.7,8.2,13.7"/>
	
		<path fill="#FFFFFF" stroke="#B0DBC0" stroke-width="3" stroke-linecap="round" stroke-linejoin="round" stroke-miterlimit="10" d="
		M211.8,281c2.8-0.1-12.1-1-12.3,12.2"/>
	<path fill="none" stroke="#B0DBC0" stroke-width="3" stroke-linecap="round" stroke-linejoin="round" stroke-miterlimit="10" d="
		M223.4,275.4c0,0-3.2-6.2,4.6-9.6"/>
	<path fill="none" stroke="#B0DBC0" stroke-width="3" stroke-linecap="round" stroke-linejoin="round" stroke-miterlimit="10" d="
		M237.5,275.2c0,0,1.6,3.6-4.6,8.2s-2.6,11.5-2.6,11.5"/>
	<path fill="none" stroke="#B0DBC0" stroke-width="3" stroke-linecap="round" stroke-linejoin="round" stroke-miterlimit="10" d="
		M190.1,283.2c0,0-7.6-1.2-7.2-10.2c0.4-9-7.6-11.1-7.6-11.1"/>
	<path fill="none" stroke="#B0DBC0" stroke-width="3" stroke-linecap="round" stroke-linejoin="round" stroke-miterlimit="10" d="
		M191.5,266.2c0,0-1.2,9.4-8.4,8.2"/>
	<path fill="none" stroke="#B0DBC0" stroke-width="3" stroke-linecap="round" stroke-linejoin="round" stroke-miterlimit="10" d="
		M167.7,282c0,0,2.2,6.6,9.4,6.6s9.4,5.2,9.4,5.2"/>
	<path fill="none" stroke="#B0DBC0" stroke-width="3" stroke-linecap="round" stroke-linejoin="round" stroke-miterlimit="10" d="
		M166.3,300.9c0,0,2-11.9,12.3-12.3"/>
	<path fill="#FFFFFF" stroke="#B0DBC0" stroke-width="3" stroke-linecap="round" stroke-miterlimit="10" d="M175.2,272.2
		c0,0-3.8,4.8-9.6-2"/>
	<path fill="#FFFFFF" stroke="#B0DBC0" stroke-width="3" stroke-linecap="round" stroke-miterlimit="10" d="M212.7,293.7
		c0,0,3.8,0.4,3.4,6.2"/>
</g>
<line fill="none" stroke="#B0DBC0" stroke-width="3" stroke-linecap="round" stroke-miterlimit="10" x1="199.9" y1="244.4" x2="199.9" y2="222.3"/>
<path fill="#B0DBC0" d="M198.3,295.6c0,0-0.7,4.7-4.3,4.7h4.3C198.3,300.3,198.4,295.7,198.3,295.6z"/>
<path fill="#B0DBC0" d="M200.8,295.6c0,0,0.7,4.7,4.3,4.7h-4.3C200.8,300.3,200.7,295.7,200.8,295.6z"/>
</svg>
