<?xml version="1.0" encoding="UTF-8" standalone="no"?>
<svg width="120px" height="120px" viewBox="0 0 120 120" version="1.1" xmlns="http://www.w3.org/2000/svg" xmlns:xlink="http://www.w3.org/1999/xlink" xmlns:sketch="http://www.bohemiancoding.com/sketch/ns">
    <!-- Generator: Sketch 3.2.2 (9983) - http://www.bohemiancoding.com/sketch -->
    <title>globe-with-pin</title>
    <desc>Created with Sketch.</desc>
    <defs>
        <linearGradient x1="50%" y1="0%" x2="50%" y2="100%" id="linearGradient-1">
            <stop stop-color="#EB5D52" offset="0%"></stop>
            <stop stop-color="#CE4C42" offset="100%"></stop>
        </linearGradient>
    </defs>
    <g id="Page-1" stroke="none" stroke-width="1" fill="none" fill-rule="evenodd" sketch:type="MSPage">
        <g id="Add-Club-confirmation" sketch:type="MSArtboardGroup" transform="translate(-540.000000, -228.000000)">
            <g id="ADD-CLUB-TO-MAP" sketch:type="MSLayerGroup">
                <g id="Rectangle-438" transform="translate(350.000000, 198.000000)" sketch:type="MSShapeGroup">
                    <g id="Oval-168-+-Group" transform="translate(190.000000, 30.000000)">
                        <g id="globe-with-pin">
                            <g id="Orange">
                                <circle id="Globe" fill="#FFCF4B" cx="60.1983421" cy="60.1983421" r="59.5026191"></circle>
                                <path d="M44.1051214,117.514365 C42.4013483,117.092447 39.9901497,116.183399 39.9901497,116.183399 L36.5893662,114.833626 C36.5893662,114.833626 38.90131,112.828429 40.2493433,111.659819 C41.2068749,110.829735 42.8037719,106.677106 42.8037719,106.677106 L47.4847901,105.387411 L52.259164,103.941524 L57.9014984,105.458639 C57.9014984,105.458639 61.8331557,103.834407 63.1571039,103.46043 C64.432807,103.100082 69.8222024,103.159993 69.8222024,103.159993 L75.3113839,97.9113522 L81.7866,98.9631525 L85.1200447,100.379286 C86.134989,100.81046 86.7167769,102.024264 86.4204914,103.086853 L85.7947025,105.331162 L85.4528111,108.98521 L83.5978587,111.921693 L81.2989881,115.880246 L76.2905492,117.556707 C76.2905492,117.556707 71.200838,118.724837 70.6576742,118.794318 C69.5537343,118.935534 69.1974326,119.018936 68.3271595,119.144656 C66.7763776,119.368681 65.1939432,119.549723 65.1939432,119.549723 C65.1939432,119.549723 63.1125059,119.619347 62.0652313,119.670556 C60.38234,119.752844 58.6844936,119.727079 57.1699679,119.687898 C54.9561083,119.630625 53.0093272,119.277312 51.5816875,119.097133 C47.5021887,118.582269 46.1662487,118.024777 44.1051214,117.514365 Z" id="Land" fill="#F39C17"></path>
                                <path d="M6.95157,86.8172236 C7.51630519,87.9584527 8.14593476,89.0533612 8.7672206,90.1339982 C10.5435089,93.2235953 12.4936218,95.901169 13.7143983,97.3532448 C15.9985168,100.070133 17.9182451,102.265876 19.2722734,103.473732 C22.6333047,106.471926 24.6778965,107.91314 24.6778965,107.91314 L22.3650619,103.0163 L22.3650619,99.5811696 L19.33894,97.2910828 L17.2794834,94.0262225 L19.0569584,91.4460459 L18.7889408,88.4136178 L16.3128181,86.9919981 L16.0821878,83.6757866 L14.253812,82.1212842 L14.0821906,79.5649815 L15.3137204,75.3420145 L14.6830907,71.6672449 L16.6218267,69.8231033 L17.4781318,67.4861697 L18.355608,64.9244616 L20.5443437,63.4969861 L20.7213705,61.5605023 L20.6655147,58.1965431 L16.8263309,57.7866337 L12.2295851,57.7093816 L12.0440268,54.2668684 L10.3385562,51.0207604 L9.65462476,47.2952611 L9.57769244,43.8857524 L8.03883424,40.9264277 L8.52616689,36.9177486 L6.90652502,33.6711271 L5.83045671,35.9258536 C5.83045671,35.9258536 5.2136409,37.3885509 4.91243998,38.1354226 C4.72998918,38.587836 4.37950154,39.5237089 4.37950154,39.5237089 L3.52696895,41.9605298 C3.52696895,41.9605298 3.02950051,43.6638456 2.86120412,44.2616527 C2.3107023,46.2170953 1.79526311,48.4480701 1.42179173,50.8253259 C1.15586758,52.5180119 0.983468264,54.2778526 0.824213742,56.0968839 C0.352622527,61.483476 0.757043979,67.6355682 2.21891899,73.6914537 C2.64343574,75.4500342 3.12182642,77.293203 3.70754303,79.1125047 C3.99513748,80.0058054 4.28558275,80.8725247 4.68513174,81.7423433 C5.40661032,83.313003 6.10992218,85.1164034 6.95157,86.8172236 Z" id="Land" fill="#F39C17"></path>
                                <path d="M60.3546482,0.640768054 C48.4120974,0.596173522 42.1216221,3.54679074 37.0589601,5.3574281 C31.3073138,7.41447752 23.3938893,13.2184531 20.702902,15.7463775 C19.5478805,16.8314095 18.205461,18.016166 17.0416459,19.2215978 C15.4939865,20.8245997 14.2673255,22.3251971 14.2673255,22.3251971 L11.7484101,25.6265438 L9.57251227,28.7963591 L14.7866941,29.6195562 L13.8466054,32.4366693 L12.0731844,34.3812612 L10.9020149,35.5222506 L11.0173301,38.6596336 C11.0173301,38.6596336 11.2197505,40.7897637 11.3209607,41.8548288 C11.4292096,42.9939648 11.6457076,45.2722369 11.6457076,45.2722369 L12.3254363,48.6537637 L13.2997593,51.6199757 L14.1844427,54.2145667 L17.0650693,54.9280792 L21.2578562,54.184837 L23.733078,51.2560123 L25.9601019,48.0731339 L26.7598361,46.9588191 C27.4040648,46.0611791 27.5031341,44.5400548 26.9870264,43.572379 L26.8701656,43.353271 C26.3514107,42.3806318 25.0353156,41.6018289 23.9281085,41.6137927 L24.4560732,41.6080878 C23.3499749,41.6200396 22.2543293,42.4955678 21.9899903,43.2319605 C21.9899903,43.2319605 22.1615955,43.0709401 21.9899903,43.2319605 C21.4769219,43.7133823 19.1225529,43.8490677 19.1225529,43.8490677 L17.6163929,42.1104756 L18.6993012,38.3632376 L19.4092012,37.5531387 C20.1381215,36.7213349 21.4651891,36.5612696 22.365615,37.1902618 L23.1826283,37.7609862 L26.5204614,39.2735967 L29.7691055,40.4744959 L32.5645971,41.0731437 L33.2216568,41.0446388 C34.3268032,40.9966948 35.115083,41.8415771 34.9807625,42.9445986 L34.8506299,44.0132297 L34.5686483,47.124937 L37.7240493,48.3722325 L38.6771563,48.5585176 C39.758364,48.76984 40.8528103,49.8027856 41.1265199,50.8848371 L41.3483685,51.7618674 L42.5902542,53.5188244 L42.9947626,55.5533035 L43.7641309,58.7424883 L43.5757663,60.6151703 L44.5375532,62.3150058 L45.8293893,63.6919903 L45.9474602,63.9936997 C46.3512251,65.0254493 47.3644941,65.289051 48.2141966,64.5795174 L48.7046645,64.1699581 L49.9353024,65.4708707 L51.7303359,66.0843698 L52.2805025,66.3263588 C53.2867213,66.7689407 54.8764534,66.6888596 55.3356687,66.428491 L55.3356687,66.428491 L56.7378154,66.3907208 L58.697218,65.64442 L59.7888742,64.2620301 L60.4126328,63.7173604 C60.8282971,63.3544 60.8240104,62.7749909 60.3944156,62.4159918 L59.7555589,61.882119 L58.2449439,62.4976767 L57.1148622,61.9414519 C56.6214325,61.6985864 55.8796918,61.2136074 55.4501936,60.8515236 L54.7480029,60.2595492 L54.5748255,60.1913847 C53.5486779,59.7874824 52.7391893,58.5740838 52.7673284,57.4595363 L52.8019561,56.0879875 L52.8019561,52.8695235 L52.8422877,51.7903369 C52.8836999,50.6822358 53.8174955,49.7684395 54.9169083,49.7495066 L55.2630337,49.7435459 L57.2636615,48.6943042 L60.3749184,47.0105227 L60.3749184,47.0105227 C61.2105589,46.3495234 62.430145,46.5263033 63.0966484,47.4023593 L63.6014904,48.0659267 L65.6235597,50.634842 L67.5938272,52.6902445 L68.9438253,54.3744764 L72.1663433,54.4560078 L72.4878391,54.4322072 C73.5872519,54.3508168 74.3115607,55.1688056 74.1073396,56.2501731 L73.7091339,58.358705 L73.6794042,61.1537461 L73.5082333,62.8077979 L74.7726459,64.5150027 L75.8744462,66.3947298 L76.8190394,68.8262579 L76.689571,69.0751975 C76.1779422,70.0589479 74.9863273,70.418454 74.0489713,69.8899861 L74.0489713,69.8899861 L73.5460711,68.5915735 L72.7256578,67.0670982 L71.3868489,66.82963 L71.3868489,66.82963 C70.7239315,66.2653426 69.7640413,66.5887186 69.4454597,67.1775034 L69.4454597,67.1775034 L67.6057596,67.287715 L66.8985849,68.7894201 L67.6663856,70.0019409 L67.6774262,71.6613125 L68.5596997,73.9499939 L69.6736306,74.5636147 L70.3593053,78.1678619 L71.6278035,79.9806386 L72.8666666,82.1864193 L73.9232642,83.5476967 L74.4967429,84.5781351 C74.7654877,85.0610212 75.4223019,85.4640919 75.9905065,85.4791259 L75.9574349,85.4782509 C77.0624419,85.507488 78.7143529,85.0414246 79.6317038,84.4472297 L80.7253403,83.7388495 L81.9519151,78.2555239 L82.3199326,73.7721969 L82.4055181,70.7127417 L80.8924571,68.5415736 L79.7811974,65.7424784 L78.5244425,63.1735631 L78.0348608,61.9608248 C77.6211137,60.9359357 78.0625804,60.5462362 79.0242482,61.0923055 L79.8289451,61.5492411 L82.9699317,61.7501417 L85.9145222,60.5451884 L86.0761243,60.491215 C87.1242803,60.1411419 87.8562367,58.9680801 87.7106689,57.868649 L87.5167722,56.4042032 L86.8032597,53.5749279 L85.516775,50.459617 L85.4486443,50.2865636 C85.0449422,49.2611512 85.3019156,47.7526766 86.0238649,46.9158373 L87.0811872,45.6902543 L89.2266797,43.3699873 L91.5388386,41.2844047 L93.1928903,39.3997226 L93.4877775,38.9873363 C94.129708,38.0896258 94.0404871,36.7006689 93.2897147,35.886335 L92.0217208,34.5109908 L89.5388414,32.7970292 L89.0218428,32.5187004 C88.0490614,31.9949986 87.0279535,30.7010324 86.7474039,29.6519886 L86.7474039,29.6519886 L85.5505587,27.6817211 L85.5505587,27.6817211 C85.3617373,26.716468 86.0468297,26.2384621 87.0906068,26.6176439 L87.7257809,26.8483889 L89.7514537,28.1907294 L91.7514509,28.9637012 L93.9442406,30.6776628 L94.7698733,31.322388 C95.6388729,32.0009778 96.2838807,31.6617706 96.2098556,30.5545337 L96.1415348,29.5326194 L93.9442406,27.7889281 L92.4613598,25.9596514 L92.4613598,25.9596514 C91.7344347,25.2493943 91.1593137,23.7876703 91.1748751,22.8146108 L91.1451454,24.6736172 C91.1615647,23.6469163 92.0185482,22.508237 92.7514495,22.2420891 L92.7514495,22.2420891 L92.7514495,22.2420891 C93.4005076,22.0365996 93.3429849,21.1898736 92.6204566,20.3479458 L92.0158649,19.6434441 L89.8190212,17.1902944 L88.0496543,15.3650717 L87.9988931,15.263743 C87.505492,14.2788241 86.2084531,13.4365521 85.1016917,13.3824669 L84.2203804,13.3393989 L84.2203804,13.3393989 C83.4300173,13.1503287 82.536742,12.1296084 82.2283001,11.0702233 L82.4102908,11.6952948 C82.25615,11.1658774 82.4795895,10.4470085 82.9013648,10.0963015 L82.3154376,10.5835011 C83.1645068,9.87749849 83.4127158,8.53147149 82.8639046,7.56665209 L81.113628,4.48963652 C81.113628,4.48963652 72.2971989,0.685362586 60.3546482,0.640768054 Z" id="Land" fill="#F39C12"></path>
                                <path d="M116.449952,79.654621 C117.278529,77.2691026 118.083126,74.367091 118.674161,71.4416821 C119.950961,65.1219838 119.939212,57.1496112 119.265038,52.837992 C119.058845,51.5193002 118.892195,49.7741891 118.48272,48.060296 C118.098233,46.4509963 117.730968,44.6915874 117.172586,42.9374429 C116.368222,40.4105497 115.478717,37.8087715 114.310203,35.3553589 C111.466626,29.3849844 108.647486,25.6513185 108.647486,25.6513185 L108.756382,29.3564935 L107.670798,31.5236076 L107.897374,33.6348659 L107.816293,35.7722502 L107.700978,38.507832 L109.098273,40.7902612 L108.670797,43.0645823 L109.812236,45.4880024 L112.607277,47.7704316 L111.671243,48.5992593 L111.243766,50.9672739 L113.585654,52.8776316 L115.068986,55.7028529 L113.627546,58.1010477 L110.887911,58.6136596 L110.712686,63.6059949 L113.653222,66.6875221 L117.723036,65.751037 L117.637451,67.6613946 L117.43655,69.8285087 L116.577542,71.4825604 L113.90187,70.0213012 L111.470342,70.8843631 C111.470342,70.8843631 111.184562,71.9222323 111.041672,72.4411668 C110.86249,73.0919003 110.504127,74.3933672 110.504127,74.3933672 L111.533856,76.2402114 L114.102771,77.0352554 L114.559977,81.2460603 L114.538356,84.4588936 C114.538356,84.4588936 115.488573,82.4224872 116.449952,79.654621 Z" id="Land" fill="#F39C17"></path>
                                <path d="M104.343666,20.2834857 C114.046247,30.9460335 119.700961,44.472679 119.700961,60.1956422 C119.700961,93.3586112 93.1275853,119.719168 60.0929728,119.719168 C37.6703257,119.719168 18.3215785,107.64361 8.20435778,89.514699 C19.0696996,100.927713 34.3597111,108.033008 51.2971764,108.033008 C84.2676804,108.033008 110.995555,81.1092041 110.995555,47.8970095 C110.995555,37.9423527 108.594391,28.552629 104.343666,20.2834857 Z" id="Bottom-Shadow" opacity="0.5" fill="#E6B42B"></path>
                                <path d="M119.688305,61.6806864 C119.696729,61.2641507 119.700961,60.8465748 119.700961,60.4279999 C119.700961,50.0798502 117.288414,40.0498023 112.661755,31.6225579 C102.440976,13.0058826 82.2908166,0.863655128 59.6687842,0.863655128 C26.8063951,0.863655128 0.695722931,27.2196917 0.695722931,60.4279999 C0.695722931,60.8465748 0.699955371,61.2641507 0.708379363,61.6806864 C1.36828625,29.0506977 27.7501677,2.80441179 60.1983421,2.80441179 C92.6465164,2.80441179 119.028398,29.0506977 119.688305,61.6806864 Z" id="Top-Shadow" opacity="0.5" fill="#F2C03B"></path>
                                <path d="M7.53185608,34.9246223 L6.90652502,33.6711271 L6.04147239,35.4837045 L6.04147865,35.4836906 C2.60859443,43.0823197 0.695722931,51.5294208 0.695722931,60.4279999 C0.695722931,60.8465748 0.699955371,61.2641507 0.708379363,61.6806864 C0.903498446,52.0327594 3.34735352,42.9429258 7.53185608,34.9246223 Z" id="Shade" fill="#E69215"></path>
                                <path d="M82.6806804,7.2445409 L81.113628,4.48963652 C81.113628,4.48963652 72.2971989,0.685362586 60.3546482,0.640768054 C48.4120974,0.596173522 42.1216221,3.54679074 37.0589601,5.3574281 C31.3073138,7.41447752 23.3938893,13.2184531 20.702902,15.7463775 C19.5478805,16.8314095 18.205461,18.016166 17.0416459,19.2215978 C15.4939865,20.8245997 14.2673255,22.3251971 14.2673255,22.3251971 L11.7484101,25.6265438 L9.69331403,28.6203769 L9.69331403,28.6203769 C9.65673237,28.6795663 9.62024978,28.7388247 9.58386648,28.7981517 L11.0496412,29.0295632 C21.7666291,13.1954295 39.7816498,2.80441179 60.1983421,2.80441179 C68.1536406,2.80441179 75.7443064,4.38202412 82.6806804,7.2445409 Z" id="Shade" fill="#E69215"></path>
                                <path d="M22.3650619,100.511425 L22.3650619,103.0163 L24.6778965,107.91314 C24.6778965,107.91314 22.6333047,106.471926 19.2722734,103.473732 C17.9182451,102.265876 15.9985168,100.070133 13.7143983,97.3532448 C12.4936218,95.901169 10.5435089,93.2235953 8.7672206,90.1339982 C8.75047472,90.1048712 8.73372277,90.0757337 8.71696619,90.0465853 C12.7287547,94.1585489 17.3229919,97.6920298 22.3650619,100.511425 Z" id="Shade" fill="#E69215"></path>
                                <path d="M110.978383,46.4402768 L112.607277,47.7704316 L111.671243,48.5992593 L111.243766,50.9672739 L113.585654,52.8776316 L115.068986,55.7028529 L113.627546,58.1010477 L110.887911,58.6136596 L110.712686,63.6059949 L113.653222,66.6875221 L117.723036,65.751037 L117.637451,67.6613946 L117.43655,69.8285087 L116.577542,71.4825604 L113.90187,70.0213012 L111.470342,70.8843631 C111.470342,70.8843631 111.184562,71.9222323 111.041672,72.4411668 C110.86249,73.0919003 110.504127,74.3933672 110.504127,74.3933672 L111.533856,76.2402114 L114.102771,77.0352554 L114.559977,81.2460603 L114.538356,84.4588936 C114.538356,84.4588936 115.488573,82.4224872 116.449952,79.654621 C117.158889,77.6135504 117.850273,75.1943723 118.405353,72.7059437 L118.405353,72.7059437 C119.254492,68.6785289 119.700961,64.4942305 119.700961,60.1956422 C119.700961,57.7143857 119.554538,55.2691209 119.269765,52.8683522 C119.268193,52.8582121 119.266618,52.848092 119.265038,52.837992 C119.130219,51.9757675 119.012306,50.9312412 118.832367,49.8323424 C118.789026,49.5770509 118.744107,49.3223216 118.697623,49.0681677 C118.633899,48.7333082 118.562973,48.3962025 118.48272,48.060296 C118.322325,47.3889494 118.18623,46.6763288 118.041536,45.946355 C116.848923,40.9307796 115.038932,36.1652595 112.694709,31.7373682 C112.287962,30.981712 111.835798,30.1900096 111.248858,29.2098158 C110.462458,27.8965215 109.39589,26.3369549 109.39589,26.3369549 L108.714961,25.5127894 L108.756382,29.3564935 L108.355435,30.1568893 C109.936293,35.3222703 110.844908,40.7846146 110.978383,46.4402768 Z" id="Shade" fill="#E69215"></path>
                                <path d="M44.1051214,117.514365 C42.4013483,117.092447 39.9901497,116.183399 39.9901497,116.183399 L36.5893662,114.833626 C36.5893662,114.833626 38.90131,112.828429 40.2493433,111.659819 C41.2068749,110.829735 42.5022689,107.375135 42.5022689,107.375135 C42.5022689,107.375135 43.9532654,107.593977 44.6871792,107.663641 C45.4875917,107.739618 47.1133345,107.872685 47.1133345,107.872685 C47.1133345,107.872685 48.6924147,107.963353 49.4815756,107.989385 C50.3639244,108.018491 52.1119322,108.02517 52.1119322,108.02517 C52.1119322,108.02517 52.6994411,108.028693 53.3387864,107.990015 C53.7487892,107.965211 54.2099132,107.970599 54.519711,107.951857 C55.0727773,107.918399 55.9072014,107.855251 56.5766867,107.795837 C57.1848197,107.741868 57.6569391,107.689717 57.6569391,107.689717 L58.8293412,107.547401 C58.8293412,107.547401 60.0913726,107.387676 60.5483219,107.313686 C61.1006179,107.224257 62.6330684,106.949082 62.6330684,106.949082 L64.0830331,106.649196 C64.0830331,106.649196 64.9268827,106.446157 65.4111889,106.332871 C65.4204347,106.330708 66.4279263,106.083949 66.8985849,105.954491 C67.2256221,105.864536 67.6244553,105.752947 68.0595349,105.633274 C68.4595192,105.523255 68.8885497,105.384262 69.2300726,105.275498 C69.7476068,105.110681 70.0967296,104.995079 70.0967296,104.995079 C70.0967296,104.995079 70.6180313,104.80785 71.2475591,104.579703 C71.8770869,104.351557 72.9426148,103.96549 73.5422935,103.720649 C74.0489443,103.513789 74.7651687,103.215203 75.4170521,102.922946 C76.3622067,102.499208 77.1892501,102.099289 77.1892501,102.099289 C77.1892501,102.099289 78.875057,101.247635 79.6964419,100.796386 C80.1671486,100.537792 80.8783161,100.130291 81.4489558,99.7976789 C81.9892229,99.4827702 82.4024843,99.2352658 82.4024843,99.2352658 L85.1180878,100.382683 C86.1341129,100.811981 86.7167769,102.024264 86.4204914,103.086853 L85.7947025,105.331162 L85.4528111,108.98521 L83.5978587,111.921693 L81.2989881,115.880246 L76.2905492,117.556707 C76.2905492,117.556707 71.200838,118.724837 70.6576742,118.794318 C69.5537343,118.935534 69.1974326,119.018936 68.3271595,119.144656 C66.7763776,119.368681 65.1939432,119.549723 65.1939432,119.549723 C65.1939432,119.549723 63.1125059,119.619347 62.0652313,119.670556 C60.38234,119.752844 58.6844936,119.727079 57.1699679,119.687898 C54.9561083,119.630625 53.0093272,119.277312 51.5816875,119.097133 C47.5021887,118.582269 46.1662487,118.024777 44.1051214,117.514365 Z" id="Shade" fill="#E69214"></path>
                            </g>
                            <g id="Clouds-8" transform="translate(3.598383, 22.601078)" fill="#FFDF7F">
                                <path d="M99.6446949,2.6768287 L100.395889,2.6768287 C101.438191,2.6768287 102.291105,3.52573577 102.291105,4.5729157 C102.291105,5.62739638 101.442588,6.4690027 100.395889,6.4690027 L92.0569407,6.4690027 C91.0146395,6.4690027 90.1617251,5.62009563 90.1617251,4.5729157 C90.1617251,3.51843502 91.010242,2.6768287 92.0569407,2.6768287 L93.0384105,2.6768287 C93.1377177,1.67600129 93.9840819,0.892276234 95.0134771,0.892276234 C95.3274752,0.892276234 95.6234415,0.964079935 95.8862261,1.09203238 C96.2128318,0.444754234 96.8844256,0 97.6598873,0 C98.7637086,0 99.6446949,0.887340377 99.6446949,1.9819302 L99.6446949,2.6768287 Z" id="Rectangle-851"></path>
                                <path d="M9.48296986,67.3668557 L10.2341644,67.3668557 C11.2764656,67.3668557 12.1293801,68.2157627 12.1293801,69.2629427 C12.1293801,70.3174233 11.2808631,71.1590296 10.2341644,71.1590296 L1.89521563,71.1590296 C0.852914452,71.1590296 0,70.3101226 0,69.2629427 C0,68.208462 0.848516942,67.3668557 1.89521563,67.3668557 L2.87668546,67.3668557 C2.97599262,66.3660282 3.82235679,65.5823032 4.85175202,65.5823032 C5.16575017,65.5823032 5.46171647,65.6541069 5.724501,65.7820593 C6.05110674,65.1347812 6.72270055,64.690027 7.49816222,64.690027 C8.60198357,64.690027 9.48296986,65.5773673 9.48296986,66.6719572 L9.48296986,67.3668557 Z" id="Rectangle-854"></path>
                                <path d="M29.9558932,16.8138303 L31.0510131,16.8138303 C32.880073,16.8138303 34.3665768,18.2994176 34.3665768,20.1319825 C34.3665768,21.9608185 32.8821484,23.4501348 31.0510131,23.4501348 L17.4665071,23.4501348 C15.6374472,23.4501348 14.1509434,21.9645474 14.1509434,20.1319825 C14.1509434,18.3031465 15.6353718,16.8138303 17.4665071,16.8138303 L18.9342532,16.8138303 C19.0300702,15.0687499 20.4722109,13.6908635 22.2371968,13.6908635 C22.7463806,13.6908635 23.2291651,13.8063793 23.6605825,14.0126853 C24.1925182,12.8973239 25.3302329,12.1293801 26.6478804,12.1293801 C28.4711279,12.1293801 29.9558932,13.6104766 29.9558932,15.4375019 L29.9558932,16.8138303 Z" id="Rectangle-852"></path>
                            </g>
                            <g id="map-marker-12" transform="translate(63.000000, 16.000000)">
                                <path d="M8.28349662,19.7261842 C7.48228487,21.165297 6.19051696,21.1472411 5.44699657,19.6829164 C5.44699657,19.6829164 -5.94698569,0.00407037373 7.20390349,0.000685988675 C20.3547927,-0.00269839638 8.28349662,19.7261842 8.28349662,19.7261842 Z" id="Path-346" stroke="#CC4545" fill="url(#linearGradient-1)"></path>
                                <ellipse id="Oval-239" stroke="#CB4545" stroke-width="0.4" fill="#F2F2F2" cx="7" cy="6.07894737" rx="2.69230769" ry="2.76315789"></ellipse>
                            </g>
                        </g>
                    </g>
                </g>
            </g>
        </g>
    </g>
</svg>