<?xml version="1.0" encoding="utf-8"?>
<!-- Generator: Adobe Illustrator 18.0.0, SVG Export Plug-In . SVG Version: 6.00 Build 0)  -->
<!DOCTYPE svg PUBLIC "-//W3C//DTD SVG 1.1//EN" "http://www.w3.org/Graphics/SVG/1.1/DTD/svg11.dtd">
<svg version="1.1" id="Layer_1" xmlns="http://www.w3.org/2000/svg" xmlns:xlink="http://www.w3.org/1999/xlink" x="0px" y="0px"
    viewBox="0 0 174.1 81.6" enable-background="new 0 0 174.1 81.6" xml:space="preserve">
<g id="Lato_Black_Version" display="none">

       <text transform="matrix(1 0 0 1 121.7955 169.537)" display="inline" fill="#FAA73F" font-family="'Lato-Black'" font-size="11.8859">NETWORK</text>
   <g id="Hive_Logotype_Lato" display="inline">
       <path fill="#FFDE2F" d="M143.4,152.2h-5.6V142H128v10.2h-5.6v-24.1h5.6v10.1h9.8v-10.1h5.6V152.2z"/>
       <path fill="#FFDE2F" d="M155.2,152.2h-5.6v-24.1h5.6V152.2z"/>
       <path fill="#FFDE2F" d="M159.3,128.1h4.5c0.5,0,0.9,0.1,1.2,0.3c0.3,0.2,0.5,0.5,0.7,0.9l4.7,12.9c0.2,0.6,0.4,1.2,0.6,1.8
           c0.2,0.7,0.4,1.3,0.6,2.1c0.2-0.7,0.3-1.4,0.5-2.1c0.2-0.7,0.4-1.3,0.6-1.8l4.6-12.9c0.1-0.3,0.3-0.6,0.7-0.8
           c0.3-0.3,0.7-0.4,1.2-0.4h4.5l-9.6,24.1H169L159.3,128.1z"/>
       <path fill="#FFDE2F" d="M202.9,128.1v4.3H193v5.6h7.6v4.1H193v5.7h9.9v4.3h-15.5v-24.1H202.9z"/>
   </g>
</g>
<g>
   <g id="Logomark_1_">
       <g id="Logomark">
           <g>
               <g>
                   <g>
                       <g>
                           <path fill="#FFDE2F" d="M17.2,39.2c0,1,0.8,1.8,1.8,1.8s1.8-0.8,1.8-1.8c0-1-0.8-1.8-1.8-1.8S17.2,38.2,17.2,39.2z"/>
                           <path fill="#FFDE2F" d="M34.3,57.1c0,1,0.8,1.8,1.8,1.8c1,0,1.8-0.8,1.8-1.8c0-1-0.8-1.8-1.8-1.8
                               C35,55.3,34.3,56.1,34.3,57.1z"/>
                           <path fill="#FFDE2F" d="M18.2,26.7c0,1.1,0.9,2.1,2.1,2.1c1.1,0,2.1-0.9,2.1-2.1c0-1.1-0.9-2.1-2.1-2.1
                               C19.1,24.6,18.2,25.5,18.2,26.7z"/>
                           <path fill="#FAA73F" d="M19.6,54.7c0,1.2,1,2.2,2.2,2.2s2.2-1,2.2-2.2s-1-2.2-2.2-2.2C20.6,52.5,19.6,53.5,19.6,54.7z"/>
                           <path fill="#FAA73F" d="M26.3,37.2c0,1.7,1.4,3,3,3s3-1.4,3-3s-1.4-3-3-3C27.7,34.2,26.3,35.5,26.3,37.2z"/>
                           <path fill="#FFDE2F" d="M41.9,38c0,1.4,1.1,2.5,2.5,2.5s2.5-1.1,2.5-2.5c0-1.4-1.1-2.5-2.5-2.5S41.9,36.6,41.9,38z"/>
                           <path fill="#ADCDEC" d="M31.4,26.7c0,1,0.8,1.8,1.8,1.8c1,0,1.8-0.8,1.8-1.8c0-1-0.8-1.8-1.8-1.8
                               C32.3,24.9,31.4,25.7,31.4,26.7z"/>
                           <path fill="#ADCDEC" d="M33.7,48.6c0,1.4,1.1,2.6,2.6,2.6c1.4,0,2.6-1.2,2.6-2.6c0-1.4-1.1-2.6-2.6-2.6
                               C34.9,46,33.7,47.2,33.7,48.6z"/>
                           <polygon fill="#FAA73F" points="63.2,38.7 45.9,48.7 45.9,63.7 49.5,61.6 49.5,50.8 63.2,42.9 76.8,50.8 76.8,66.6
                               63.2,74.4 57.4,71.1 53.8,73.2 63.2,78.7 80.5,68.7 80.5,48.7                             "/>
                           <g>
                               <polygon fill="#FFDE2F" points="59.8,48.4 59.8,58.5 44.6,67.2 44.6,67.2 33.3,73.8 6.8,58.5 6.8,47 6.8,27.9 12.8,24.4
                                   12.8,16.6 0,23.9 0,47 0,62.4 33.3,81.6 64.6,63.6 66.6,62.4 66.6,48.4 63.2,46.4                              "/>
                               <polygon fill="#FFDE2F" points="58.3,19.2 33.3,4.7 22.4,11 22.4,18.9 33.3,12.6 54.9,25.1 59.8,27.9 59.8,37.1 63.2,35.2
                                   66.6,37.1 66.6,23.9                                 "/>
                           </g>
                           <path fill="#ADCDEC" d="M13.9,9.1c0,1.1,0.9,2,2,2c1.1,0,2-0.9,2-2s-0.9-2-2-2C14.8,7,13.9,7.9,13.9,9.1z"/>
                           <path fill="#FAA73F" d="M8.6,1.6c0,0.7,0.6,1.2,1.2,1.2s1.2-0.6,1.2-1.2s-0.6-1.2-1.2-1.2C9.1,0.3,8.6,0.9,8.6,1.6z"/>
                       </g>
                   </g>
               </g>
           </g>
       </g>
   </g>
   <g id="Verlag_Black_Version">
       <g>
           <g enable-background="new    ">
               <path fill="#FAA73F" d="M100.7,68.2l-5.5-5.8V68h-1.5v-8.8l0.2,0l5.4,5.7v-5.5h1.5v8.8L100.7,68.2z"/>
               <path fill="#FAA73F" d="M103.6,68v-8.7h5.3v1.4H105V63h3.5v1.3H105v2.4h3.8V68H103.6z"/>
               <path fill="#FAA73F" d="M115,60.7V68h-1.5v-7.4h-2.8v-1.4h7v1.4H115z"/>
               <path fill="#FAA73F" d="M127.5,68.2l-0.2,0l-2.7-6.1l-2.7,6.1l-0.2,0l-2.8-8.9h1.6l1.6,5.5l2.4-5.6h0.2l2.4,5.5l1.5-5.5h1.6
                   L127.5,68.2z"/>
               <path fill="#FAA73F" d="M135.9,68.2c-2.5,0-4.4-1.9-4.4-4.5c0-2.6,1.9-4.5,4.4-4.5c2.5,0,4.4,1.9,4.4,4.5
                   C140.4,66.3,138.4,68.2,135.9,68.2z M136,60.5c-1.7,0-2.8,1.4-2.8,3.2c0,1.8,1.2,3.2,2.8,3.2c1.7,0,2.8-1.4,2.8-3.2
                   C138.8,61.9,137.6,60.5,136,60.5z"/>
               <path fill="#FAA73F" d="M147.5,68l-1.9-3.1c-0.2,0-0.3,0-0.5,0c-0.3,0-0.6,0-0.9,0V68h-1.5v-8.6c0.7-0.1,1.4-0.1,2.3-0.1
                   c2.5,0,3.6,1.2,3.6,2.7c0,1.1-0.6,2-1.7,2.5l2.3,3.5H147.5z M145.3,60.6c-0.4,0-0.7,0-1,0.1v3c0.3,0,0.6,0,0.9,0
                   c1.3,0,1.9-0.6,1.9-1.6C147.1,61.2,146.4,60.6,145.3,60.6z"/>
               <path fill="#FAA73F" d="M156.1,68l-3.6-4.2V68h-1.5v-8.7h1.5v3.9l3.4-3.9h1.8l-3.8,4.2l4,4.5H156.1z"/>
           </g>
       </g>
       <g id="Hive_Logotype_Verlag">
           <path fill="#FFDE2F" d="M108.4,50.9v-9.7h-9.3v9.7h-5.6V26.6h5.6v9.5h9.3v-9.5h5.6v24.2H108.4z"/>
           <path fill="#FFDE2F" d="M121.2,50.9V26.6h5.6v24.2H121.2z"/>
           <path fill="#FFDE2F" d="M143.2,51.1h-0.7l-11.6-24.4h6.5l5.5,13.1l5.5-13.1h6.3L143.2,51.1z"/>
           <path fill="#FFDE2F" d="M158.7,50.9V26.6h15.4v5.2h-9.7v4.3h8.9V41h-8.9v4.7h9.7v5.1H158.7z"/>
       </g>
   </g>
</g>
<g id="Guides">
</g>
</svg>