<?xml version="1.0" encoding="utf-8"?>
<!-- Generator: Adobe Illustrator 18.1.1, SVG Export Plug-In . SVG Version: 6.00 Build 0)  -->
<!DOCTYPE svg PUBLIC "-//W3C//DTD SVG 1.1//EN" "http://www.w3.org/Graphics/SVG/1.1/DTD/svg11.dtd">
<svg version="1.1" id="Layer_1" xmlns="http://www.w3.org/2000/svg" xmlns:xlink="http://www.w3.org/1999/xlink" x="0px" y="0px"
	 viewBox="-150 189.5 198 123.5" enable-background="new -150 189.5 198 123.5" xml:space="preserve">
<g>
	<g>
		<g>
			<path fill="#FFFFFF" stroke="#FFDEBA" stroke-width="2.5493" stroke-miterlimit="10" d="M-96.3,256.1c0,3.8-3.3,6.5-5.9,4.5
				c0,0,0-2,0-4.5v-16.4l0,0v50c0,2.9-2.4,5.2-5.4,5.2c-3,0-5.4-2.3-5.4-5.2v-29.1h-3.1v29.1c0,2.9-2.4,5.2-5.4,5.2
				c-3,0-5.4-2.3-5.4-5.2v-50l0,0v16.4c0,2.5,0,4.5,0,4.5c-2.1,1.4-5.9,0.1-5.9-4.5v-25.6c0-2.8,1.3-4,4-4h27c3.6,0,5.4,0.6,5.4,4
				L-96.3,256.1L-96.3,256.1z M-114.5,222.5c-5.2,0-9.5-4.1-9.5-9.2s4.2-9.2,9.5-9.2c5.2,0,9.5,4.1,9.5,9.2
				C-105.1,218.3-109.3,222.5-114.5,222.5z"/>
		</g>
	</g>
	<g>
		<g>
			<path fill="#FFFFFF" stroke="#FFDEBA" stroke-width="2.5493" stroke-miterlimit="10" d="M28.6,256.1c0,3.8-3.3,6.5-5.9,4.5
				c0,0,0-2,0-4.5v-16.4l0,0v50c0,2.9-2.4,5.2-5.4,5.2c-3,0-5.4-2.3-5.4-5.2v-29.1H8.8v29.1c0,2.9-2.4,5.2-5.4,5.2
				c-3,0-5.4-2.3-5.4-5.2v-50l0,0v16.4c0,2.5,0,4.5,0,4.5c-2.1,1.4-5.9,0.1-5.9-4.5v-25.6c0-2.8,1.3-4,4-4h27c3.6,0,5.4,0.6,5.4,4
				L28.6,256.1L28.6,256.1z M10.4,222.5c-5.2,0-9.5-4.1-9.5-9.2s4.2-9.2,9.5-9.2c5.2,0,9.5,4.1,9.5,9.2
				C19.9,218.3,15.6,222.5,10.4,222.5z"/>
		</g>
	</g>
	
		<line fill="none" stroke="#FFDEBA" stroke-width="2.5493" stroke-linecap="round" stroke-miterlimit="10" x1="-81.3" y1="240.9" x2="-22.2" y2="240.9"/>
	<circle fill="#FFDEBA" cx="-21.6" cy="241" r="3.8"/>
	
		<line fill="none" stroke="#FFDEBA" stroke-width="2.5493" stroke-linecap="round" stroke-miterlimit="10" x1="-20.1" y1="254.8" x2="-81.3" y2="254.8"/>
	<circle fill="#FFDEBA" cx="-80.7" cy="254.8" r="3.8"/>
</g>
</svg>
