<?xml version="1.0" encoding="UTF-8" standalone="no"?>
<svg width="60px" height="77px" viewBox="0 0 60 77" version="1.1" xmlns="http://www.w3.org/2000/svg" xmlns:xlink="http://www.w3.org/1999/xlink" xmlns:sketch="http://www.bohemiancoding.com/sketch/ns">
    <!-- Generator: Sketch 3.2.2 (9983) - http://www.bohemiancoding.com/sketch -->
    <title>icon-curriculum</title>
    <desc>Created with Sketch.</desc>
    <defs></defs>
    <g id="Page-1" stroke="none" stroke-width="1" fill="none" fill-rule="evenodd" sketch:type="MSPage">
        <g id="Clubs-Page" sketch:type="MSArtboardGroup" transform="translate(-410.000000, -1757.000000)">
            <g id="icon-curriculum" sketch:type="MSLayerGroup" transform="translate(412.000000, 1758.000000)">
                <path d="M56.3347595,68.7590588 C56.3347595,71.6443333 54.0085823,73.9825882 51.1398228,73.9825882 L5.25193671,73.9825882 C2.3824557,73.9825882 0.057,71.6436078 0.057,68.7590588 L0.057,5.93160784 C0.057,3.04633333 2.38317722,0.708078431 5.25193671,0.708078431 L51.1398228,0.708078431 C54.0093038,0.708078431 56.3347595,3.04705882 56.3347595,5.93160784 L56.3347595,68.7590588 L56.3347595,68.7590588 Z" id="Shape" stroke="#FFDEBB" stroke-width="3" sketch:type="MSShapeGroup"></path>
                <path d="M11.1597342,48.509902 L45.9650886,48.509902" id="Shape" stroke="#FFDEBB" stroke-width="3" sketch:type="MSShapeGroup"></path>
                <path d="M11.1597342,54.6765686 L45.9650886,54.6765686" id="Shape" stroke="#FFDEBB" stroke-width="3" sketch:type="MSShapeGroup"></path>
                <path d="M11.1597342,60.8432353 L45.9650886,60.8432353" id="Shape" stroke="#FFDEBB" stroke-width="3" sketch:type="MSShapeGroup"></path>
                <path d="M11.1597342,14.6679608 L45.9650886,14.6679608" id="Shape" stroke="#FFDEBB" stroke-width="3" sketch:type="MSShapeGroup"></path>
                <path d="M11.1597342,20.8346275 L34.180519,20.8346275" id="Shape" stroke="#FFDEBB" stroke-width="3" sketch:type="MSShapeGroup"></path>
                <rect id="Rectangle-path" stroke="#FFDEBB" stroke-width="3" sketch:type="MSShapeGroup" x="12.1207975" y="28.4711373" width="32.6386329" height="12.3333333"></rect>
                <g id="Group" transform="translate(38.962025, 0.725490)" fill="#FFDEBB" sketch:type="MSShapeGroup">
                    <path d="M7.72458228,15.4819608 L0.509392405,21.6486275 L0.509392405,0.246666667 L7.72458228,0.246666667 L7.72458228,15.4819608 Z" id="Shape"></path>
                    <path d="M3.39546835,15.4819608 L10.6106582,21.6486275 L10.6106582,0.246666667 L3.39546835,0.246666667 L3.39546835,15.4819608 Z" id="Shape"></path>
                </g>
            </g>
        </g>
    </g>
</svg>