<?xml version="1.0" encoding="UTF-8" standalone="no"?>
<svg width="216px" height="278px" viewBox="0 0 216 278" version="1.1" xmlns="http://www.w3.org/2000/svg" xmlns:xlink="http://www.w3.org/1999/xlink" xmlns:sketch="http://www.bohemiancoding.com/sketch/ns">
    <!-- Generator: Sketch 3.2.2 (9983) - http://www.bohemiancoding.com/sketch -->
    <title>icon-how-do-clubs-work</title>
    <desc>Created with Sketch.</desc>
    <defs></defs>
    <g id="Page-1" stroke="none" stroke-width="1" fill="none" fill-rule="evenodd" sketch:type="MSPage">
        <g id="Clubs-Page" sketch:type="MSArtboardGroup" transform="translate(-350.000000, -1076.000000)">
            <g id="icon-how-do-clubs-work" sketch:type="MSLayerGroup" transform="translate(351.000000, 1078.000000)">
                <circle id="Oval" stroke="#FFDEBB" stroke-width="3" fill="#FFFFFF" sketch:type="MSShapeGroup" cx="106.543" cy="168.021" r="106"></circle>
                <g id="Group" transform="translate(12.000000, 78.000000)" stroke="#FFDEBB" stroke-width="3" fill="#FFFFFF" sketch:type="MSShapeGroup">
                    <path d="M2.963,113.251 C1.455,107.499 0.393,101.202 0.022,94.48" id="Shape"></path>
                    <path d="M96.652,183.829 C95.951,183.845 95.248,183.852 94.543,183.852 C89.245,183.852 84.049,183.416 78.987,182.58" id="Shape"></path>
                    <path d="M164.958,152.46 C162.54,155.149 159.971,157.699 157.263,160.097" id="Shape"></path>
                    <path d="M186.603,67.03 C188.307,74.136 189.209,81.555 189.209,89.185 C189.209,89.847 189.203,90.507 189.189,91.166" id="Shape"></path>
                    <path d="M130.043,1.399 C140.073,5.46 149.249,11.189 157.227,18.243" id="Shape"></path>
                    <path d="M26.203,23.675 C35.914,13.548 47.855,5.575 61.236,0.545" id="Shape"></path>
                </g>
                <circle id="Oval" fill="#FFFFFF" sketch:type="MSShapeGroup" cx="110.37" cy="108.629" r="3.886"></circle>
                <g id="Group" transform="translate(78.000000, 69.000000)" stroke="#FFDEBB" sketch:type="MSShapeGroup">
                    <ellipse id="Oval" stroke-width="3" cx="28.252" cy="28.808" rx="10.471" ry="27.996"></ellipse>
                    <ellipse id="Oval" stroke-width="3" cx="28.253" cy="28.808" rx="27.996" ry="10.472"></ellipse>
                    <ellipse id="Oval" stroke-width="2.99997123" transform="translate(28.254367, 28.807160) rotate(135.000000) translate(-28.254367, -28.807160) " cx="28.2543669" cy="28.8071595" rx="10.4728996" ry="27.9957315"></ellipse>
                    <ellipse id="Oval" stroke-width="2.99997123" transform="translate(28.253341, 28.809067) rotate(225.000000) translate(-28.253341, -28.809067) " cx="28.2533405" cy="28.8090669" rx="10.4728996" ry="27.9957315"></ellipse>
                </g>
                <g id="Group" transform="translate(57.000000, 225.000000)" stroke="#FFDEBB" stroke-width="3" sketch:type="MSShapeGroup">
                    <path d="M30.059,18.104 L32.886,16.982 L32.198,12.383 L29.163,12.136 C28.606,10.711 27.82,9.419 26.856,8.29 L28.06,5.498 L24.322,2.732 L22.026,4.682 C20.653,4.073 19.172,3.688 17.629,3.564 L16.527,0.791 L11.927,1.479 L11.689,4.414 C10.219,4.976 8.89,5.784 7.732,6.776 L5.044,5.618 L2.276,9.355 L4.154,11.566 C3.525,12.975 3.131,14.499 3.015,16.086 L0.335,17.15 L1.024,21.75 L3.896,21.983 C4.471,23.466 5.294,24.808 6.308,25.971 L5.16,28.634 L8.898,31.399 L11.128,29.504 C12.527,30.114 14.035,30.498 15.606,30.605 L16.693,33.34 L21.293,32.653 L21.535,29.677 C22.973,29.108 24.277,28.306 25.412,27.322 L28.178,28.512 L30.944,24.777 L28.976,22.461 C29.569,21.099 29.943,19.632 30.059,18.104 L30.059,18.104 Z" id="Shape"></path>
                    <path d="M15.953,13.15 C13.786,13.476 12.289,15.498 12.614,17.665 C12.936,19.832 14.96,21.328 17.126,21.002 C19.297,20.68 20.791,18.658 20.465,16.49 C20.141,14.321 18.122,12.826 15.953,13.15 L15.953,13.15 Z" id="Shape"></path>
                </g>
                <g id="Group" transform="translate(11.000000, 112.000000)" stroke="#FFDEBB" stroke-width="3" sketch:type="MSShapeGroup">
                    <path d="M59.496,46.278 L65.761,46.197 L67.824,36.826 L62.172,34.122 C62.151,30.957 61.594,27.873 60.565,24.978 L64.922,20.506 L59.756,12.419 L53.914,14.481 C51.712,12.289 49.131,10.448 46.242,9.071 L46.162,2.932 L36.792,0.868 L34.175,6.339 C30.92,6.336 27.748,6.904 24.778,7.968 L20.472,3.773 L12.387,8.939 L14.369,14.562 C12.113,16.818 10.227,19.475 8.835,22.455 L2.897,22.532 L0.834,31.903 L6.19,34.466 C6.203,37.756 6.797,40.958 7.897,43.953 L3.737,48.223 L8.902,56.309 L14.574,54.308 C16.824,56.521 19.464,58.369 22.42,59.734 L22.496,65.798 L31.869,67.86 L34.517,62.321 C37.717,62.285 40.832,61.7 43.751,60.634 L48.187,64.956 L56.273,59.789 L54.197,53.9 C56.347,51.706 58.148,49.142 59.496,46.278 L59.496,46.278 Z" id="Shape"></path>
                    <circle id="Oval" cx="34.171" cy="34.556" r="21.297"></circle>
                    <circle id="Oval" cx="34.171" cy="34.556" r="16.726"></circle>
                    <circle id="Oval" cx="34.171" cy="34.556" r="5.603"></circle>
                </g>
                <circle id="Oval" fill="#FFFFFF" sketch:type="MSShapeGroup" cx="115.052" cy="213.629" r="3.886"></circle>
                <g id="Group" transform="translate(98.000000, 194.000000)" stroke="#FFDEBB" stroke-width="3" sketch:type="MSShapeGroup">
                    <path d="M60.083,33.078 L65.266,30.598 L63.27,21.53 L57.524,21.456 C56.176,18.571 54.351,16 52.169,13.816 L54.087,8.375 L46.263,3.376 L42.096,7.436 C39.22,6.408 36.152,5.858 33.001,5.86 L30.47,0.566 L21.4,2.564 L21.325,8.504 C18.528,9.837 16.03,11.618 13.899,13.74 L8.246,11.745 L3.248,19.569 L7.465,23.897 C6.469,26.698 5.928,29.682 5.908,32.746 L0.438,35.363 L2.434,44.432 L8.496,44.51 C9.801,47.281 11.544,49.764 13.625,51.887 L11.615,57.587 L19.44,62.586 L23.732,58.403 C26.557,59.434 29.572,60.001 32.669,60.036 L35.233,65.396 L44.303,63.399 L44.377,57.531 C47.237,56.211 49.792,54.422 51.97,52.28 L57.458,54.217 L62.457,46.391 L58.431,42.26 C59.494,39.361 60.07,36.262 60.083,33.078 L60.083,33.078 Z" id="Shape"></path>
                    <circle id="Oval" cx="33.004" cy="33.166" r="20.611"></circle>
                    <circle id="Oval" cx="33.004" cy="33.166" r="5.422"></circle>
                </g>
                <g id="Group" transform="translate(163.000000, 174.000000)" stroke="#FFDEBB" stroke-width="3" sketch:type="MSShapeGroup">
                    <path d="M34.577,17.289 C34.577,7.77 27.035,0.057 17.73,0.057 C8.425,0.057 0.883,7.771 0.883,17.289 C0.883,22.14 4.001,29.758 7.695,34.528 C13.457,41.967 17.73,47.282 17.73,47.282 C17.73,47.282 22.292,41.52 26.767,35.646 C31.195,29.837 34.577,22.051 34.577,17.289 L34.577,17.289 Z" id="Shape"></path>
                    <ellipse id="Oval" cx="17.73" cy="17.168" rx="8.578" ry="8.773"></ellipse>
                </g>
                <path d="M70.47,99.214 C70.47,96.012 67.932,93.415 64.801,93.415 C61.67,93.415 59.131,96.012 59.131,99.214 C59.131,100.846 60.18,103.41 61.424,105.015 C63.362,107.52 64.801,109.308 64.801,109.308 C64.801,109.308 66.336,107.37 67.842,105.393 C69.332,103.438 70.47,100.815 70.47,99.214 L70.47,99.214 Z" id="Shape" stroke="#FFDEBB" stroke-width="3" fill="#FFFFFF" sketch:type="MSShapeGroup"></path>
                <path id="Shape" stroke="#FFDEBB" stroke-width="3" sketch:type="MSShapeGroup" d="M49.92,182.419 C49.925,182.426 49.93,182.433 49.934,182.44"></path>
                <g id="Group" transform="translate(84.000000, 145.000000)" stroke="#FFDEBB" stroke-width="3" sketch:type="MSShapeGroup">
                    <path d="M44.76,29.756 L45.725,23.317 L41.973,21.828 C41.812,19.606 41.26,17.474 40.38,15.502 L43.008,12.407 L39.136,7.177 L35.374,8.799 C33.752,7.409 31.892,6.278 29.834,5.491 L29.5,1.384 L23.062,0.421 L21.52,4.304 C19.361,4.476 17.288,5.015 15.365,5.869 L12.152,3.14 L6.92,7.011 L8.606,10.917 C7.256,12.498 6.156,14.307 5.377,16.301 L1.13,16.648 L0.167,23.084 L4.124,24.655 C4.284,26.793 4.809,28.845 5.637,30.754 L2.884,33.996 L6.754,39.225 L10.624,37.558 C12.212,38.936 14.038,40.058 16.052,40.855 L16.391,45.022 L22.829,45.981 L24.35,42.153 C26.548,42.004 28.659,41.466 30.617,40.612 L33.74,43.264 L38.971,39.395 L37.364,35.667 C38.783,34.038 39.935,32.16 40.74,30.083 L44.76,29.756 L44.76,29.756 Z" id="Shape"></path>
                    <path d="M25.04,9.877 C32.399,10.986 37.483,17.852 36.38,25.213 C35.284,32.574 28.411,37.658 21.053,36.551 C13.678,35.453 8.604,28.586 9.712,21.225 C10.813,13.854 17.67,8.773 25.04,9.877 L25.04,9.877 Z" id="Shape"></path>
                </g>
                <path d="M89.837,210.913 C78.725,206.459 69.754,197.793 64.9,186.888" id="Shape" stroke="#FFDEBB" stroke-width="3" sketch:type="MSShapeGroup"></path>
                <path d="M152.896,170.328 C152.593,176.974 150.88,183.252 148.05,188.87" id="Shape" stroke="#FFDEBB" stroke-width="3" sketch:type="MSShapeGroup"></path>
                <path d="M92.354,199.287 C85.149,195.898 79.312,190.078 75.903,182.885" id="Shape" stroke="#FFDEBB" stroke-width="3" sketch:type="MSShapeGroup"></path>
                <path d="M141.26,169.328 C141.082,174.832 139.61,180.011 137.134,184.564" id="Shape" stroke="#FFDEBB" stroke-width="3" sketch:type="MSShapeGroup"></path>
                <path d="M85.26,141.579 C91.173,136.758 98.722,133.866 106.946,133.866 C113.573,133.866 119.76,135.743 125.008,138.995" id="Shape" stroke="#FFDEBB" stroke-width="3" sketch:type="MSShapeGroup"></path>
                <path d="M187.617,140.522 C187.617,143.064 185.457,144.846 183.756,143.514 L183.756,140.522 L183.756,129.555 L183.756,162.909 C183.756,164.842 182.198,166.399 180.267,166.399 C178.334,166.399 176.778,164.841 176.778,162.909 L176.778,143.513 L174.784,143.513 L174.784,162.909 C174.784,164.842 173.225,166.399 171.293,166.399 C169.361,166.399 167.804,164.841 167.804,162.909 L167.804,129.555 L167.804,140.522 L167.804,143.514 C166.411,144.435 163.943,143.613 163.943,140.522 L163.943,123.446 C163.943,121.549 164.767,120.757 166.548,120.757 L184.087,120.757 C186.399,120.757 187.618,121.138 187.618,123.446 L187.618,140.522 L187.617,140.522 Z M175.779,118.113 C172.371,118.113 169.621,115.366 169.621,111.956 C169.621,108.547 172.371,105.799 175.779,105.799 C179.187,105.799 181.936,108.547 181.936,111.956 C181.937,115.366 179.188,118.113 175.779,118.113 L175.779,118.113 Z" id="Shape" stroke="#FFDEBB" stroke-width="3" sketch:type="MSShapeGroup"></path>
                <path d="M154.665,140.928 C154.665,142.568 152.174,142.858 152.174,142.858 L152.174,155.37 C152.174,156.617 151.169,157.622 149.923,157.622 C148.677,157.622 147.672,156.617 147.672,155.37 L147.672,142.858 L146.385,142.858 L146.385,155.37 C146.385,156.617 145.38,157.622 144.134,157.622 C142.888,157.622 141.883,156.617 141.883,155.37 L141.883,133.853 L133.662,123.674 C132.496,122.341 133.829,120.341 135.329,121.674 C135.329,121.674 142.18,128.177 143.329,128.177 L152.387,128.177 C153.878,128.177 154.665,128.423 154.665,129.912 L154.665,140.928 L154.665,140.928 Z M147.029,126.472 C144.83,126.472 143.055,124.7 143.055,122.5 C143.055,120.3 144.829,118.527 147.029,118.527 C149.226,118.527 151,120.3 151,122.5 C151,124.7 149.227,126.472 147.029,126.472 L147.029,126.472 Z" id="Shape" stroke="#FFDEBB" stroke-width="3" sketch:type="MSShapeGroup"></path>
                <g id="Group" transform="translate(23.000000, 188.000000)" stroke="#FFDEBB" stroke-width="3" sketch:type="MSShapeGroup">
                    <path d="M26.475,2.748 C25.217,2.748 24.156,3.77 24.156,5.028 L24.156,14.927 L23.228,14.927 L23.228,2.747 C23.228,1.489 22.167,0.469 20.908,0.469 C19.649,0.469 18.589,1.49 18.589,2.747 L18.589,14.927 L17.66,14.927 L17.66,2.747 C17.66,1.489 16.599,0.469 15.34,0.469 C14.081,0.469 13.02,1.49 13.02,2.747 L13.02,14.927 L12.093,14.927 L12.093,5.028 C12.093,3.77 11.098,2.748 9.84,2.748 C8.58,2.748 7.451,3.77 7.451,5.028 L7.451,22.487 L4.976,17.571 C4.396,16.453 2.726,15.931 1.609,16.514 C0.492,17.093 -0.228,18.558 0.353,19.675 C0.353,19.675 5.848,30.65 6.984,32.188 C8.519,34.269 9.877,35.342 12.861,35.342 L21.461,35.342 C25.814,35.342 28.795,30.963 28.795,26.61 L28.795,20.994 L28.795,14.789 L28.795,5.028 C28.795,3.771 27.734,2.748 26.475,2.748 L26.475,2.748 Z" id="Shape" fill="#FFFFFF"></path>
                    <path d="M7.549,22.845 C7.549,22.845 10.983,22.623 13.752,24.508 C16.522,26.391 17.52,28.828 17.52,28.828" id="Shape" fill="#FFFFFF"></path>
                    <path d="M17.297,20.187 C17.297,20.187 18.762,22.461 21.617,23.843 C25.053,25.505 28.154,24.84 28.154,24.84" id="Shape" fill="#FFFFFF"></path>
                    <path d="M12,15.5 L28,15.5" id="Shape"></path>
                </g>
                <path d="M48.297,240.21 C44.906,237.408 41.713,234.377 38.743,231.137" id="Shape" stroke="#FFDEBB" stroke-width="3" fill="#FFFFFF" sketch:type="MSShapeGroup"></path>
                <g id="Group" transform="translate(8.000000, 40.000000)" sketch:type="MSShapeGroup">
                    <g transform="translate(9.000000, 37.000000)">
                        <circle id="Oval" fill="#FFDEBB" cx="5.842" cy="27.337" r="5"></circle>
                        <path d="M5.842,0.354 L5.842,30.336" id="Shape" stroke="#FFDEBB" stroke-width="2" fill="#FFFFFF"></path>
                    </g>
                    <g stroke="#FFDEBB" stroke-width="3">
                        <path d="M28.283,14.151 C28.283,6.419 22.155,0.151 14.595,0.151 C7.035,0.151 0.907,6.419 0.907,14.151 C0.907,18.092 3.44,24.282 6.441,28.158 C11.122,34.202 14.594,38.52 14.594,38.52 C14.594,38.52 18.301,33.838 21.937,29.067 C25.535,24.347 28.283,18.021 28.283,14.151 L28.283,14.151 Z" id="Shape"></path>
                        <ellipse id="Oval" cx="14.596" cy="14.054" rx="6.97" ry="7.129"></ellipse>
                    </g>
                </g>
                <g id="Group" transform="translate(161.000000, 24.000000)" sketch:type="MSShapeGroup">
                    <g transform="translate(9.000000, 37.000000)">
                        <circle id="Oval" fill="#FFDEBB" cx="5.902" cy="27.268" r="5"></circle>
                        <path d="M5.902,0.284 L5.902,30.267" id="Shape" stroke="#FFDEBB" stroke-width="2" fill="#FFFFFF"></path>
                    </g>
                    <g stroke="#FFDEBB" stroke-width="3">
                        <path d="M28.344,14.082 C28.344,6.35 22.216,0.082 14.656,0.082 C7.096,0.082 0.968,6.35 0.968,14.082 C0.968,18.023 3.501,24.213 6.502,28.089 C11.183,34.133 14.655,38.451 14.655,38.451 C14.655,38.451 18.362,33.769 21.998,28.998 C25.596,24.277 28.344,17.951 28.344,14.082 L28.344,14.082 Z" id="Shape"></path>
                        <ellipse id="Oval" cx="14.656" cy="13.984" rx="6.97" ry="7.129"></ellipse>
                    </g>
                </g>
                <g id="Group" transform="translate(113.000000, 0.000000)" sketch:type="MSShapeGroup">
                    <g transform="translate(9.000000, 37.000000)">
                        <circle id="Oval" fill="#FFDEBB" cx="5.903" cy="27.269" r="5"></circle>
                        <path d="M5.903,0.285 L5.903,30.268" id="Shape" stroke="#FFDEBB" stroke-width="2" fill="#FFFFFF"></path>
                    </g>
                    <g stroke="#FFDEBB" stroke-width="3">
                        <path d="M28.345,14.083 C28.345,6.351 22.217,0.083 14.657,0.083 C7.097,0.083 0.969,6.351 0.969,14.083 C0.969,18.024 3.502,24.214 6.503,28.09 C11.184,34.134 14.656,38.452 14.656,38.452 C14.656,38.452 18.363,33.77 21.999,28.999 C25.597,24.278 28.345,17.952 28.345,14.083 L28.345,14.083 Z" id="Shape"></path>
                        <ellipse id="Oval" cx="14.657" cy="13.985" rx="6.97" ry="7.129"></ellipse>
                    </g>
                </g>
            </g>
        </g>
    </g>
</svg>