<?xml version="1.0" encoding="UTF-8" standalone="no"?>
<svg width="481px" height="122px" viewBox="0 0 481 122" version="1.1" xmlns="http://www.w3.org/2000/svg" xmlns:xlink="http://www.w3.org/1999/xlink" xmlns:sketch="http://www.bohemiancoding.com/sketch/ns">
    <!-- Generator: Sketch 3.2.2 (9983) - http://www.bohemiancoding.com/sketch -->
    <title>mozilla-wordmark</title>
    <desc>Created with Sketch.</desc>
    <defs/>
    <g id="Page-1" stroke="none" stroke-width="1" fill="none" fill-rule="evenodd" sketch:type="MSPage">
        <g id="Full-Wordmark" sketch:type="MSArtboardGroup" transform="translate(-219.000000, -119.000000)" fill="#4E5051">
            <g id="mozilla-wordmark" sketch:type="MSLayerGroup" transform="translate(220.000000, 119.000000)">
                <path d="M19.6349189,34.8605837 C21.0890189,37.0471588 21.730328,38.997588 22.5425813,43.1126009 C28.2294292,37.7058541 35.2419003,34.8605837 42.8956805,34.8605837 C49.8081653,34.8605837 55.4810367,37.0471588 59.8707522,41.5098455 C61.0533843,42.6282661 62.1940868,44.0713219 63.1778217,45.4876738 C70.8165502,37.8666009 77.6580771,34.8605837 86.8229387,34.8605837 C93.349993,34.8605837 99.5362342,36.761794 103.313669,39.9275107 C108.031296,43.8985322 109.527326,48.6727639 109.527326,59.7878541 L109.527326,117.616378 L88.3195059,117.616378 L88.3195059,63.9311416 C88.3195059,54.1994163 87.1368737,52.3175794 81.4494883,52.3175794 C77.3731703,52.3175794 71.6438551,55.0256652 66.9402046,59.1553391 L66.9402046,117.616378 L46.2446797,117.616378 L46.2446797,64.6940343 C46.2446797,54.5465665 44.7346734,52.1641631 38.6629325,52.1641631 C34.6290818,52.1641631 29.0416825,54.1994163 24.3385695,58.3500343 L24.3385695,117.616378 L2.98775884,117.616378 L2.98775884,60.8900429 C2.98775884,49.1450558 2.16099146,44.0713219 -0.133314896,40.080927 L19.6349189,34.8605837" id="Fill-1" sketch:type="MSShapeGroup"/>
                <path d="M148.310134,58.6689099 C146.813029,62.9729442 146.015828,68.686 146.015828,76.7935021 C146.015828,86.1429957 146.998487,93.1687296 148.779961,97.2842661 C150.746894,101.734386 155.665031,103.955519 159.868213,103.955519 C169.333033,103.955519 173.38086,95.7024549 173.38086,76.4819571 C173.38086,65.5129528 171.912246,58.3500343 168.991145,54.6858455 C166.89466,52.0060343 163.489217,50.4100858 159.555353,50.4100858 C154.324894,50.4100858 150.077094,53.5742318 148.310134,58.6689099 L148.310134,58.6689099 Z M187.604162,46.92497 C194.274745,54.5465665 197.253903,63.4379056 197.253903,76.6207124 C197.253903,90.6004464 193.961885,100.150481 186.763418,108.078386 C180.435799,115.061708 172.097704,119.365742 159.241418,119.365742 C136.537031,119.365742 121.728326,102.837622 121.728326,77.2726009 C121.728326,51.6850644 136.693461,34.6794163 159.241418,34.6794163 C171.14246,34.6794163 180.435799,38.6645751 187.604162,46.92497 L187.604162,46.92497 Z" id="Fill-2" sketch:type="MSShapeGroup"/>
                <path d="M267.547944,36.2769356 L267.547944,50.893897 L230.662723,102.837622 L268.988068,102.837622 L263.757071,117.616378 L202.299979,117.616378 L202.299979,104.434618 L241.566591,51.2153906 L205.576945,51.2153906 L205.576945,36.2769356 L267.547944,36.2769356" id="Fill-3" sketch:type="MSShapeGroup"/>
                <path d="M301.942113,34.3605408 L301.942113,117.616378 L280.091371,117.616378 L280.091371,37.7058541 L301.942113,34.3605408 L301.942113,34.3605408 Z M304.506812,13.882867 C304.506812,21.2007725 298.534519,27.044206 290.981263,27.044206 C283.668833,27.044206 277.655149,21.2007725 277.655149,13.882867 C277.655149,6.58066953 283.869343,0.687493562 291.350029,0.687493562 C298.676973,0.687493562 304.506812,6.58066953 304.506812,13.882867 L304.506812,13.882867 Z" id="Fill-4" sketch:type="MSShapeGroup"/>
                <path d="M341.734996,21.2007725 L341.734996,84.5753219 C341.734996,98.5754764 341.906478,100.457313 343.218125,102.678446 C344.044354,104.121502 345.811314,104.900103 347.636331,104.900103 C348.420093,104.900103 348.889921,104.900103 350.07309,104.607408 L353.80752,117.302738 C350.07309,118.725897 345.498454,119.519159 340.767388,119.519159 C331.445022,119.519159 323.948209,115.241305 321.352869,108.425013 C319.714386,104.288532 319.357983,101.734386 319.357983,90.1422918 L319.357983,29.4313219 C319.357983,18.7974249 319.074152,12.3000086 318.259748,4.96325322 L340.609883,0.041888412 C341.393108,4.48520172 341.734996,9.73224893 341.734996,21.2007725" id="Fill-5" sketch:type="MSShapeGroup"/>
                <path d="M387.058298,21.2007725 L387.058298,84.5753219 C387.058298,98.5754764 387.244831,100.457313 388.584969,102.678446 C389.353679,104.121502 391.120639,104.900103 392.946193,104.900103 C393.772423,104.900103 394.271279,104.900103 395.42542,104.607408 L399.146411,117.302738 C395.42542,118.725897 390.849709,119.519159 386.103591,119.519159 C376.797889,119.519159 369.286562,115.241305 366.678321,108.425013 C365.01081,104.288532 364.739342,101.734386 364.739342,90.1422918 L364.739342,29.4313219 C364.739342,18.7974249 364.412505,12.3000086 363.570686,4.96325322 L385.89018,0.041888412 C386.78898,4.48520172 387.058298,9.73224893 387.058298,21.2007725" id="Fill-6" sketch:type="MSShapeGroup"/>
                <path d="M449.671682,82.0347897 C434.563556,82.0347897 429.262139,84.7140773 429.262139,94.4458026 C429.262139,100.775665 433.395438,105.065562 438.938757,105.065562 C443.001099,105.065562 447.106983,102.997322 450.342557,99.5127296 L450.698959,82.0347897 L449.671682,82.0347897 L449.671682,82.0347897 Z M421.350867,39.3023262 C429.476088,35.9564893 436.461143,34.5401373 444.156853,34.5401373 C458.210286,34.5401373 467.816484,39.6086352 471.107964,48.6727639 C472.191685,52.0060343 472.690541,54.5465665 472.591093,63.2912961 L472.062671,90.6004464 L472.062671,92.0429785 C472.062671,100.775665 473.545799,104.121502 479.933625,108.717708 L468.329854,121.766996 C463.225721,119.684618 458.680651,116.019906 456.555676,111.902798 C454.945683,113.506601 453.135181,115.061708 451.481646,116.185888 C447.434357,119.046867 441.520121,120.642815 434.677519,120.642815 C416.079016,120.642815 405.973962,111.410086 405.973962,95.23697 C405.973962,76.1416137 419.542515,67.2345665 446.108196,67.2345665 C447.705287,67.2345665 449.215831,67.2345665 451.026333,67.4157339 L451.026333,64.0981717 C451.026333,55.0256652 449.215831,52.0060343 441.177695,52.0060343 C434.250696,52.0060343 426.026565,55.323073 417.075114,61.2162489 L407.768337,45.9599657 C412.201057,43.2518798 415.46566,41.6768755 421.350867,39.3023262 L421.350867,39.3023262 Z" id="Fill-7" sketch:type="MSShapeGroup"/>
            </g>
        </g>
    </g>
</svg>